<svg width="32" height="32" viewBox="0 0 32 32" fill="none" xmlns="http://www.w3.org/2000/svg">
<path d="M28 27.6667C28.5523 27.6667 29 27.219 29 26.6667C29 26.1144 28.5523 25.6667 28 25.6667V27.6667ZM4 26.6667H3C3 27.219 3.44772 27.6667 4 27.6667V26.6667ZM5 6.66667C5 6.11438 4.55228 5.66667 4 5.66667C3.44772 5.66667 3 6.11438 3 6.66667H5ZM28 25.6667H4V27.6667H28V25.6667ZM5 26.6667V6.66667H3V26.6667H5Z" fill="#737791"/>
<path d="M28.6585 10.0859C29.0741 9.72223 29.1163 9.09046 28.7526 8.67483C28.3889 8.25919 27.7571 8.21707 27.3415 8.58076L28.6585 10.0859ZM17.3333 18.6667L16.6262 19.3738C16.9985 19.746 17.5956 19.7659 17.9918 19.4192L17.3333 18.6667ZM12 13.3333L12.7071 12.6262C12.3414 12.2605 11.7571 12.234 11.3598 12.5651L12 13.3333ZM3.35982 19.2318C2.93554 19.5853 2.87821 20.2159 3.23178 20.6402C3.58534 21.0645 4.21591 21.1218 4.64018 20.7682L3.35982 19.2318ZM27.3415 8.58076L16.6748 17.9141L17.9918 19.4192L28.6585 10.0859L27.3415 8.58076ZM18.0404 17.9596L12.7071 12.6262L11.2929 14.0404L16.6262 19.3738L18.0404 17.9596ZM11.3598 12.5651L3.35982 19.2318L4.64018 20.7682L12.6402 14.1016L11.3598 12.5651Z" fill="#737791"/>
</svg>
