<svg xmlns="http://www.w3.org/2000/svg" width="16" height="16" viewBox="0 0 16 16" fill="none">
<g clip-path="url(#clip0_860_667)">
<path d="M15.8538 8.35377L14.3538 9.85377C14.3073 9.90026 14.2522 9.93714 14.1915 9.9623C14.1308 9.98746 14.0657 10.0004 14 10.0004C13.9343 10.0004 13.8692 9.98746 13.8085 9.9623C13.7478 9.93714 13.6927 9.90026 13.6463 9.85377L12.1463 8.35377C12.0524 8.25995 11.9997 8.1327 11.9997 8.00002C11.9997 7.86734 12.0524 7.74009 12.1463 7.64627C12.2401 7.55245 12.3673 7.49974 12.5 7.49974C12.6327 7.49974 12.7599 7.55245 12.8538 7.64627L13.5 8.29315V8.00002C13.5006 6.83542 13.1315 5.70069 12.4458 4.7593C11.7602 3.81792 10.7934 3.11847 9.68481 2.76172C8.57619 2.40497 7.38294 2.40933 6.27696 2.77418C5.17098 3.13902 4.20936 3.84552 3.53063 4.7919C3.45322 4.89964 3.33618 4.97222 3.20525 4.99367C3.07433 5.01512 2.94025 4.98368 2.8325 4.90627C2.72476 4.82886 2.65218 4.71182 2.63073 4.5809C2.60928 4.44997 2.64072 4.31589 2.71813 4.20815C3.52031 3.08972 4.6568 2.2548 5.96389 1.82366C7.27098 1.39252 8.68119 1.38741 9.99137 1.80908C11.3015 2.23074 12.4441 3.05742 13.2543 4.17C14.0646 5.28259 14.5007 6.62366 14.5 8.00002V8.29315L15.1463 7.64627C15.2401 7.55245 15.3673 7.49974 15.5 7.49974C15.6327 7.49974 15.7599 7.55245 15.8538 7.64627C15.9476 7.74009 16.0003 7.86734 16.0003 8.00002C16.0003 8.1327 15.9476 8.25995 15.8538 8.35377ZM13.28 11.7913C12.4776 12.9089 11.3413 13.743 10.0346 14.1736C8.72792 14.6043 7.3183 14.6092 6.00865 14.1877C4.699 13.7662 3.55686 12.9401 2.74665 11.8281C1.93644 10.7162 1.49995 9.37583 1.5 8.00002V7.7069L0.853754 8.35377C0.759933 8.44759 0.632685 8.5003 0.500003 8.5003C0.367321 8.5003 0.240074 8.44759 0.146253 8.35377C0.0524331 8.25995 -0.000274658 8.1327 -0.000274658 8.00002C-0.000274658 7.86734 0.0524331 7.74009 0.146253 7.64627L1.64625 6.14627C1.69269 6.09978 1.74783 6.0629 1.80853 6.03774C1.86923 6.01258 1.9343 5.99963 2 5.99963C2.06571 5.99963 2.13077 6.01258 2.19147 6.03774C2.25217 6.0629 2.30732 6.09978 2.35375 6.14627L3.85375 7.64627C3.94757 7.74009 4.00028 7.86734 4.00028 8.00002C4.00028 8.1327 3.94757 8.25995 3.85375 8.35377C3.75993 8.44759 3.63269 8.5003 3.5 8.5003C3.36732 8.5003 3.24007 8.44759 3.14625 8.35377L2.5 7.7069V8.00002C2.49882 9.34639 2.99366 10.646 3.89 11.6506C4.44765 10.8426 5.23176 10.2174 6.14375 9.85377C5.65387 9.46793 5.2964 8.93901 5.12105 8.34058C4.9457 7.74215 4.96119 7.10395 5.16537 6.51474C5.36955 5.92552 5.75226 5.41457 6.26029 5.05295C6.76832 4.69133 7.37641 4.49701 8 4.49701C8.6236 4.49701 9.23169 4.69133 9.73972 5.05295C10.2477 5.41457 10.6305 5.92552 10.8346 6.51474C11.0388 7.10395 11.0543 7.74215 10.879 8.34058C10.7036 8.93901 10.3461 9.46793 9.85625 9.85377C10.7691 10.2175 11.5537 10.8434 12.1113 11.6525C12.2377 11.5105 12.3568 11.3622 12.4681 11.2081C12.5455 11.1004 12.6626 11.0278 12.7935 11.0064C12.9244 10.9849 13.0585 11.0164 13.1663 11.0938C13.274 11.1712 13.3466 11.2882 13.368 11.4191C13.3895 11.5501 13.358 11.6842 13.2806 11.7919L13.28 11.7913ZM8 9.50002C8.39557 9.50002 8.78225 9.38272 9.11115 9.16296C9.44004 8.9432 9.69639 8.63084 9.84776 8.26539C9.99914 7.89994 10.0387 7.4978 9.96158 7.10984C9.88441 6.72188 9.69392 6.36551 9.41422 6.08581C9.13451 5.8061 8.77815 5.61562 8.39019 5.53845C8.00222 5.46128 7.60009 5.50089 7.23464 5.65226C6.86918 5.80364 6.55683 6.05998 6.33707 6.38888C6.1173 6.71778 6 7.10446 6 7.50002C6 8.03045 6.21072 8.53916 6.58579 8.91424C6.96086 9.28931 7.46957 9.50002 8 9.50002ZM8 13.5C9.22028 13.4984 10.4055 13.092 11.37 12.3444C11.0083 11.7787 10.51 11.3132 9.92105 10.9907C9.33211 10.6682 8.67146 10.4992 8 10.4992C7.32855 10.4992 6.6679 10.6682 6.07896 10.9907C5.49001 11.3132 4.99171 11.7787 4.63 12.3444C5.59302 13.0947 6.77923 13.5014 8 13.5Z" fill="#272343"/>
</g>
<defs>
<clipPath id="clip0_860_667">
<rect width="16" height="16" fill="white"/>
</clipPath>
</defs>
</svg>