<svg width="362" height="251" viewBox="0 0 362 251" fill="none" xmlns="http://www.w3.org/2000/svg">
<g filter="url(#filter0_d_320_2447)">
<rect x="8" y="5" width="346" height="235" rx="19" fill="white"/>
<g clip-path="url(#clip0_320_2447)">
<rect width="234.486" height="193.036" transform="translate(63.7572 25.6007)" fill="white"/>
<path d="M216.217 169.855C184.082 169.855 157.938 143.686 157.938 111.52C157.938 79.3539 184.082 53.1848 216.217 53.1848C219.614 53.1844 223.005 53.4785 226.352 54.0639C226.394 54.0711 226.433 54.0865 226.469 54.1091C226.505 54.1318 226.536 54.1613 226.56 54.196C226.585 54.2307 226.602 54.2698 226.611 54.3112C226.621 54.3525 226.622 54.3953 226.614 54.4371C226.607 54.4788 226.591 54.5187 226.569 54.5545C226.546 54.5903 226.516 54.6212 226.482 54.6455C226.447 54.6698 226.408 54.687 226.366 54.6961C226.325 54.7053 226.282 54.7061 226.241 54.6987C222.931 54.1199 219.577 53.829 216.217 53.8294C184.437 53.8294 158.582 79.7092 158.582 111.52C158.582 143.331 184.437 169.211 216.217 169.211C247.997 169.211 273.852 143.331 273.852 111.52C273.866 97.1419 268.502 83.2793 258.817 72.6614C258.76 72.5982 258.73 72.5149 258.734 72.4298C258.739 72.3448 258.776 72.2648 258.839 72.2074C258.902 72.15 258.985 72.1199 259.07 72.1236C259.155 72.1273 259.235 72.1645 259.293 72.2271C269.087 82.9636 274.51 96.9812 274.496 111.52C274.496 143.686 248.352 169.855 216.217 169.855Z" fill="#E4E4E4"/>
<path d="M241.913 73.1918C248.282 73.1918 253.444 68.0244 253.444 61.6501C253.444 55.2758 248.282 50.1084 241.913 50.1084C235.545 50.1084 230.383 55.2758 230.383 61.6501C230.383 68.0244 235.545 73.1918 241.913 73.1918Z" fill="#E7AA07"/>
<path d="M240.34 67.6569C240.141 67.6569 239.945 67.6105 239.767 67.5214C239.589 67.4322 239.434 67.3028 239.314 67.1433L236.169 62.9449C236.068 62.81 235.994 62.6565 235.952 62.4932C235.911 62.3299 235.901 62.1599 235.925 61.993C235.949 61.8261 236.005 61.6656 236.091 61.5205C236.177 61.3754 236.291 61.2487 236.425 61.1476C236.56 61.0464 236.713 60.9728 236.877 60.931C237.04 60.8891 237.21 60.8799 237.376 60.9037C237.543 60.9276 237.703 60.9841 237.848 61.07C237.993 61.1559 238.12 61.2695 238.221 61.4044L240.279 64.1509L245.565 56.2146C245.754 55.9325 246.047 55.7369 246.38 55.6708C246.713 55.6047 247.059 55.6734 247.341 55.8619C247.624 56.0504 247.82 56.3433 247.887 56.6764C247.954 57.0095 247.887 57.3556 247.699 57.639L241.408 67.0852C241.294 67.256 241.141 67.3971 240.961 67.4965C240.782 67.5959 240.581 67.6508 240.376 67.6565C240.364 67.6567 240.352 67.6569 240.34 67.6569Z" fill="white"/>
<path d="M156.607 67.4134L156.132 67.5966L154.061 62.2139L154.202 62.1597L154.657 61.9839L154.492 61.5241L153.988 60.1192L153.815 59.6376L153.337 59.8217L153.234 59.8616L151.163 54.4789L151.409 54.3839L151.865 54.2082L151.7 53.7484L147.893 43.1484C147.893 43.1484 147.893 43.1484 147.893 43.1484C147.712 42.6423 147.631 42.1054 147.657 41.5682C147.682 41.0311 147.814 40.5043 148.043 40.0178C148.272 39.5314 148.594 39.0949 148.991 38.7333C149.389 38.3716 149.854 38.0919 150.359 37.9101L150.359 37.9101L182.504 26.3445C183.009 26.1626 183.545 26.0822 184.082 26.1078C184.618 26.1334 185.144 26.2645 185.63 26.4936C186.116 26.7228 186.552 27.0455 186.913 27.4434C187.275 27.8412 187.554 28.3065 187.736 28.8125L188.206 28.6435L187.736 28.8125L193.195 44.015L193.365 44.486L193.815 44.3236L196.748 52.4893L196.297 52.6515L196.466 53.1218L214.247 102.636C214.612 103.658 214.558 104.784 214.096 105.766C213.633 106.748 212.801 107.506 211.781 107.875C211.781 107.875 211.781 107.875 211.78 107.875L179.637 119.44L179.636 119.441C179.131 119.623 178.594 119.705 178.058 119.679C177.521 119.654 176.995 119.523 176.509 119.294C176.022 119.065 175.586 118.742 175.225 118.344C174.864 117.945 174.585 117.479 174.405 116.973L174.404 116.972L156.78 67.895L156.607 67.4134Z" fill="#FFFFFE" stroke="#D2D2D2"/>
<path d="M156.931 37.6485C156.97 37.9779 157.063 38.2997 157.207 38.6009C157.423 39.05 157.745 39.4393 158.146 39.7344C158.547 40.0295 159.014 40.2214 159.507 40.2932C160 40.365 160.502 40.3143 160.971 40.1458L160.971 40.1458L176.149 34.6846L176.169 34.6774L176.189 34.6686C176.626 34.4678 177.011 34.1668 177.311 33.7898C177.61 33.413 177.817 32.9709 177.915 32.4993C178.011 32.0337 177.997 31.5518 177.872 31.093C177.79 30.7931 177.663 30.5086 177.496 30.2491L183.899 27.9451C183.899 27.945 183.9 27.9449 183.9 27.9449C184.324 27.7931 184.791 27.8158 185.198 28.008C185.606 28.2003 185.921 28.5465 186.074 28.9709C186.074 28.9711 186.074 28.9712 186.074 28.9713L211.634 100.147C212.111 101.481 212.04 102.949 211.437 104.231C210.834 105.512 209.748 106.501 208.417 106.982L156.931 37.6485ZM156.931 37.6485L150.751 39.8718C150.327 40.0244 149.981 40.3394 149.789 40.7477C149.597 41.156 149.574 41.624 149.727 42.0488L176.517 116.651L156.931 37.6485ZM208.417 106.982L178.691 117.677L178.691 117.678C178.506 117.744 178.312 117.778 178.116 117.779C177.766 117.778 177.425 117.669 177.139 117.468C176.853 117.266 176.636 116.981 176.517 116.652L208.417 106.982Z" fill="white" stroke="#D2D2D2"/>
<path d="M175.496 65.3645C180.298 65.3645 184.19 61.4685 184.19 56.6625C184.19 51.8566 180.298 47.9606 175.496 47.9606C170.695 47.9606 166.803 51.8566 166.803 56.6625C166.803 61.4685 170.695 65.3645 175.496 65.3645Z" fill="#7165E3"/>
<path d="M197.039 69.3171L166.933 80.1494C166.839 80.1835 166.739 80.1987 166.639 80.1941C166.539 80.1895 166.441 80.1652 166.351 80.1227C166.26 80.0801 166.179 80.0201 166.111 79.946C166.044 79.872 165.992 79.7854 165.958 79.6912C165.924 79.597 165.91 79.497 165.914 79.397C165.919 79.2971 165.944 79.199 165.986 79.1085C166.029 79.018 166.089 78.9368 166.163 78.8696C166.237 78.8024 166.324 78.7505 166.418 78.7168L196.525 67.8845C196.714 67.8169 196.923 67.8272 197.105 67.9134C197.287 67.9995 197.427 68.1544 197.496 68.344C197.564 68.5337 197.554 68.7426 197.468 68.9251C197.383 69.1075 197.228 69.2485 197.039 69.3171Z" fill="#E6E6E6"/>
<path d="M188.098 76.1853L178.196 79.7484C178.102 79.7824 178.002 79.7975 177.902 79.7929C177.802 79.7883 177.704 79.764 177.614 79.7214C177.523 79.6789 177.442 79.6188 177.375 79.5448C177.307 79.4708 177.255 79.3842 177.221 79.29C177.188 79.1958 177.173 79.0959 177.177 78.9959C177.182 78.8959 177.207 78.7979 177.249 78.7074C177.292 78.6169 177.352 78.5357 177.426 78.4685C177.5 78.4013 177.587 78.3494 177.681 78.3157L187.584 74.7526C187.774 74.6843 187.983 74.6943 188.165 74.7804C188.348 74.8664 188.489 75.0215 188.557 75.2115C188.625 75.4015 188.615 75.6108 188.529 75.7934C188.443 75.9761 188.288 76.117 188.098 76.1853Z" fill="#E6E6E6"/>
<path d="M190.454 82.7443L180.551 86.3073C180.457 86.3411 180.357 86.3561 180.258 86.3513C180.158 86.3466 180.06 86.3222 179.97 86.2796C179.879 86.237 179.798 86.177 179.731 86.103C179.664 86.029 179.612 85.9426 179.578 85.8485C179.544 85.7544 179.529 85.6546 179.534 85.5547C179.539 85.4549 179.563 85.357 179.606 85.2665C179.648 85.1761 179.708 85.095 179.782 85.0277C179.856 84.9605 179.943 84.9085 180.037 84.8747L189.939 81.3116C190.129 81.2433 190.338 81.2533 190.521 81.3393C190.703 81.4254 190.844 81.5805 190.912 81.7704C190.98 81.9604 190.97 82.1698 190.885 82.3524C190.799 82.535 190.644 82.676 190.454 82.7443Z" fill="#E6E6E6"/>
<path d="M191.66 86.1037L181.758 89.6667C181.664 89.7008 181.564 89.716 181.464 89.7115C181.364 89.7069 181.266 89.6826 181.175 89.6401C181.085 89.5975 181.003 89.5375 180.936 89.4634C180.869 89.3894 180.817 89.3028 180.783 89.2086C180.749 89.1143 180.734 89.0144 180.739 88.9144C180.744 88.8143 180.768 88.7163 180.811 88.6258C180.854 88.5352 180.914 88.4541 180.988 88.3869C181.062 88.3196 181.149 88.2677 181.243 88.2341L191.146 84.6711C191.24 84.637 191.34 84.6218 191.44 84.6264C191.54 84.631 191.638 84.6553 191.728 84.6978C191.819 84.7404 191.9 84.8004 191.967 84.8745C192.034 84.9485 192.087 85.0351 192.12 85.1293C192.154 85.2235 192.169 85.3235 192.164 85.4235C192.159 85.5234 192.135 85.6215 192.092 85.712C192.05 85.8025 191.989 85.8837 191.915 85.9509C191.841 86.0181 191.755 86.07 191.66 86.1037Z" fill="#E6E6E6"/>
<path d="M194.814 77.4206L173.803 84.9801C173.709 85.0142 173.609 85.0294 173.509 85.0248C173.409 85.0202 173.311 84.9959 173.221 84.9534C173.13 84.9108 173.049 84.8508 172.982 84.7768C172.915 84.7027 172.862 84.6161 172.829 84.5219C172.795 84.4277 172.78 84.3278 172.785 84.2278C172.79 84.1278 172.814 84.0297 172.857 83.9392C172.899 83.8487 172.96 83.7675 173.034 83.7003C173.108 83.6331 173.194 83.5812 173.289 83.5475L194.299 75.988C194.393 75.9539 194.493 75.9387 194.593 75.9433C194.693 75.9479 194.791 75.9722 194.881 76.0147C194.972 76.0573 195.053 76.1173 195.12 76.1914C195.188 76.2654 195.24 76.352 195.274 76.4462C195.307 76.5404 195.322 76.6404 195.317 76.7403C195.313 76.8403 195.288 76.9384 195.245 77.0289C195.203 77.1194 195.143 77.2006 195.068 77.2678C194.994 77.335 194.908 77.3869 194.814 77.4206Z" fill="#E6E6E6"/>
<path d="M190.581 94.2588L186.986 95.5525C186.663 95.6684 186.308 95.6512 185.998 95.5049C185.688 95.3585 185.448 95.0949 185.332 94.772C185.216 94.4491 185.233 94.0933 185.379 93.7829C185.525 93.4724 185.788 93.2327 186.111 93.1164L189.707 91.8227C190.029 91.7069 190.385 91.724 190.695 91.8704C191.005 92.0167 191.244 92.2803 191.36 92.6032C191.476 92.9261 191.459 93.2819 191.313 93.5924C191.167 93.9028 190.904 94.1425 190.581 94.2588Z" fill="#7165E3"/>
<path d="M162.247 37.1818C162.523 37.1818 162.747 36.9577 162.747 36.6813C162.747 36.4049 162.523 36.1808 162.247 36.1808C161.97 36.1808 161.746 36.4049 161.746 36.6813C161.746 36.9577 161.97 37.1818 162.247 37.1818Z" fill="white"/>
<path d="M268.466 176.234C268.923 174.489 270.02 172.98 271.539 172.009C271.69 171.913 271.533 171.684 271.383 171.78C269.804 172.794 268.665 174.366 268.193 176.184C268.148 176.357 268.421 176.407 268.466 176.234Z" fill="white"/>
<path d="M287.781 149.049L287.404 148.85L287.672 148.398L296.99 132.703L287.781 149.049ZM287.781 149.049L285.092 154.152L284.878 154.038L284.457 153.815L284.214 154.225L282.14 157.715L281.881 158.151L282.321 158.404L282.402 158.451L279.521 163.443L279.369 163.355L278.941 163.108L278.689 163.533L248.284 214.751L287.781 149.049ZM231.218 93.5837L182.512 175.633C181.785 176.861 181.574 178.327 181.926 179.711C182.278 181.095 183.164 182.282 184.389 183.012L240.913 216.63L231.218 93.5837ZM231.218 93.5837C231.218 93.5835 231.219 93.5834 231.219 93.5833L231.218 93.5837ZM244.986 217.217C246.368 216.865 247.554 215.978 248.284 214.752L244.986 217.217ZM244.986 217.217C243.605 217.569 242.14 217.358 240.913 216.63L244.986 217.217ZM238.59 91.705L295.113 125.323C295.113 125.323 295.113 125.323 295.113 125.323C296.338 126.054 297.223 127.241 297.575 128.624C297.927 130.008 297.717 131.474 296.99 132.702L238.59 91.705Z" fill="#FFFFFE" stroke="#D2D2D2"/>
<path d="M186.205 179.727L242.927 213.463L186.205 179.727ZM186.205 179.727C185.906 179.548 185.689 179.259 185.604 178.921C185.518 178.583 185.569 178.225 185.746 177.926L186.205 179.727ZM235.58 94.7291C235.244 94.815 234.954 95.031 234.776 95.3302L235.58 94.7291ZM235.58 94.7291C235.918 94.6432 236.275 94.6947 236.574 94.8722M235.58 94.7291L236.574 94.8722M236.574 94.8722L293.297 128.608L236.574 94.8722ZM293.898 129.414C293.812 129.076 293.596 128.787 293.297 128.609L293.898 129.414ZM293.898 129.414C293.984 129.752 293.932 130.11 293.755 130.409M293.898 129.414L293.755 130.409M293.755 130.409L293.755 130.41M293.755 130.409L293.755 130.41M293.755 130.41L244.726 213.004C244.547 213.304 244.258 213.52 243.921 213.606C243.584 213.692 243.227 213.64 242.928 213.463L293.755 130.41ZM185.747 177.925L234.776 95.3307L185.747 177.925Z" fill="#FFFFFE" stroke="#D2D2D2"/>
<path d="M265.972 110.005C266.248 110.005 266.472 109.781 266.472 109.505C266.472 109.228 266.248 109.004 265.972 109.004C265.696 109.004 265.472 109.228 265.472 109.505C265.472 109.781 265.696 110.005 265.972 110.005Z" fill="white"/>
<path d="M262.878 169.171L215.528 141.01C215.379 140.922 215.249 140.806 215.146 140.668C215.042 140.53 214.967 140.373 214.924 140.206C214.881 140.039 214.872 139.865 214.896 139.695C214.921 139.524 214.979 139.36 215.067 139.211C215.155 139.063 215.271 138.933 215.409 138.83C215.547 138.727 215.705 138.652 215.872 138.61C216.039 138.568 216.213 138.559 216.383 138.584C216.554 138.609 216.717 138.668 216.865 138.757L264.215 166.918C264.364 167.006 264.493 167.122 264.597 167.26C264.701 167.398 264.776 167.555 264.819 167.722C264.862 167.889 264.871 168.063 264.847 168.234C264.822 168.404 264.764 168.569 264.676 168.717C264.588 168.865 264.472 168.995 264.334 169.098C264.195 169.201 264.038 169.276 263.871 169.318C263.704 169.36 263.53 169.369 263.36 169.344C263.189 169.319 263.025 169.26 262.878 169.171Z" fill="#E6E6E6"/>
<path d="M243.971 164.808L228.397 155.545C228.249 155.457 228.12 155.34 228.017 155.203C227.914 155.065 227.839 154.908 227.796 154.741C227.754 154.574 227.745 154.401 227.769 154.231C227.794 154.06 227.852 153.896 227.94 153.748C228.027 153.6 228.143 153.471 228.281 153.368C228.419 153.265 228.576 153.19 228.742 153.148C228.909 153.105 229.082 153.096 229.252 153.121C229.423 153.145 229.586 153.203 229.734 153.291L245.309 162.554C245.457 162.642 245.586 162.759 245.689 162.896C245.792 163.034 245.866 163.191 245.909 163.358C245.951 163.525 245.96 163.698 245.936 163.868C245.911 164.039 245.853 164.203 245.766 164.351C245.678 164.498 245.562 164.628 245.424 164.731C245.286 164.834 245.13 164.909 244.963 164.951C244.796 164.994 244.623 165.003 244.453 164.978C244.283 164.954 244.119 164.896 243.971 164.808Z" fill="#E6E6E6"/>
<path d="M237.848 175.123L222.273 165.86C221.975 165.683 221.759 165.394 221.673 165.057C221.588 164.72 221.639 164.363 221.817 164.064C221.994 163.766 222.283 163.55 222.619 163.464C222.955 163.378 223.312 163.43 223.611 163.607L239.185 172.87C239.333 172.958 239.462 173.074 239.565 173.212C239.668 173.35 239.743 173.507 239.785 173.673C239.828 173.84 239.837 174.014 239.812 174.184C239.788 174.354 239.73 174.518 239.642 174.666C239.554 174.814 239.438 174.943 239.3 175.046C239.163 175.149 239.006 175.224 238.84 175.267C238.673 175.309 238.5 175.318 238.329 175.294C238.159 175.269 237.996 175.211 237.848 175.123Z" fill="#E6E6E6"/>
<path d="M234.711 180.407L219.137 171.144C218.988 171.056 218.859 170.94 218.756 170.802C218.652 170.664 218.577 170.507 218.534 170.34C218.492 170.173 218.482 170 218.507 169.829C218.531 169.658 218.589 169.494 218.677 169.346C218.765 169.198 218.881 169.069 219.019 168.965C219.157 168.862 219.314 168.788 219.481 168.745C219.648 168.703 219.822 168.694 219.992 168.719C220.163 168.744 220.326 168.802 220.474 168.891L236.049 178.154C236.197 178.241 236.327 178.357 236.431 178.495C236.534 178.633 236.61 178.79 236.653 178.957C236.696 179.124 236.705 179.298 236.681 179.469C236.656 179.64 236.598 179.804 236.51 179.952C236.422 180.101 236.306 180.23 236.167 180.333C236.029 180.436 235.872 180.511 235.705 180.554C235.538 180.596 235.364 180.605 235.194 180.579C235.023 180.554 234.859 180.496 234.711 180.407Z" fill="#E6E6E6"/>
<path d="M249.687 175.088L216.643 155.435C216.346 155.257 216.132 154.968 216.047 154.632C215.962 154.296 216.014 153.94 216.191 153.642C216.368 153.344 216.655 153.128 216.991 153.042C217.326 152.956 217.682 153.006 217.98 153.182L251.025 172.835C251.173 172.923 251.303 173.039 251.407 173.177C251.51 173.314 251.586 173.471 251.629 173.639C251.671 173.806 251.681 173.98 251.656 174.15C251.632 174.321 251.574 174.485 251.486 174.634C251.398 174.782 251.282 174.912 251.143 175.015C251.005 175.118 250.848 175.193 250.681 175.235C250.514 175.277 250.34 175.286 250.17 175.261C249.999 175.236 249.835 175.177 249.687 175.088Z" fill="#E6E6E6"/>
<path d="M243.389 200.205L237.734 196.842C237.227 196.54 236.861 196.048 236.715 195.476C236.57 194.903 236.658 194.297 236.959 193.789C237.261 193.281 237.751 192.914 238.323 192.768C238.894 192.622 239.501 192.709 240.008 193.01L245.663 196.374C246.171 196.676 246.538 197.167 246.684 197.74C246.829 198.313 246.742 198.92 246.44 199.428C246.138 199.936 245.648 200.303 245.075 200.449C244.503 200.595 243.897 200.507 243.389 200.205Z" fill="#7165E3"/>
<path d="M253.94 145.595C260.342 145.595 265.531 140.401 265.531 133.993C265.531 127.585 260.342 122.39 253.94 122.39C247.538 122.39 242.349 127.585 242.349 133.993C242.349 140.401 247.538 145.595 253.94 145.595Z" fill="#7165E3"/>
<path d="M220.258 90.2398V180.642H64.3937V90.2395C64.3944 89.6908 64.6125 89.1648 65 88.7769C65.3875 88.3891 65.9128 88.171 66.4606 88.1703H218.191C218.739 88.171 219.264 88.3891 219.652 88.7769C220.04 89.1649 220.258 89.691 220.258 90.2398Z" fill="#FFFFFE" stroke="#D2D2D2"/>
<path d="M69.2403 91.7233H215.412V174.356H69.2403V91.7233Z" fill="white" stroke="#D2D2D2"/>
<path d="M125.692 193.441V192.941H125.192H67.2949C66.8961 192.941 66.5011 192.862 66.1326 192.709C65.7641 192.556 65.4292 192.332 65.1471 192.05C64.865 191.768 64.6412 191.432 64.4885 191.063C64.3358 190.694 64.2572 190.299 64.2572 189.899V179.182L220.531 179.182V189.899C220.531 190.299 220.453 190.694 220.3 191.063C220.147 191.432 219.924 191.768 219.641 192.05C219.359 192.332 219.024 192.556 218.656 192.709C218.287 192.862 217.892 192.941 217.494 192.941H159.596H159.096V193.441V215.578V216.078H159.596H160.325V217.538H124.464V216.078H125.192H125.692V215.578V193.441Z" fill="#FFFFFE" stroke="#D2D2D2"/>
<path d="M194.616 119.193H124.921C124.482 119.193 124.06 119.018 123.75 118.707C123.439 118.396 123.265 117.975 123.265 117.535C123.265 117.095 123.439 116.673 123.75 116.362C124.06 116.051 124.482 115.877 124.921 115.877H194.616C195.055 115.877 195.477 116.051 195.787 116.362C196.098 116.673 196.272 117.095 196.272 117.535C196.272 117.975 196.098 118.396 195.787 118.707C195.477 119.018 195.055 119.193 194.616 119.193Z" fill="#E6E6E6"/>
<path d="M171.231 126.679H148.306C147.867 126.679 147.445 126.504 147.135 126.193C146.824 125.882 146.65 125.46 146.65 125.02C146.65 124.58 146.824 124.159 147.135 123.848C147.445 123.537 147.867 123.362 148.306 123.362H171.231C171.67 123.362 172.092 123.537 172.402 123.848C172.713 124.159 172.887 124.58 172.887 125.02C172.887 125.46 172.713 125.882 172.402 126.193C172.092 126.504 171.67 126.679 171.231 126.679Z" fill="#E6E6E6"/>
<path d="M171.231 141.862H148.306C147.867 141.862 147.445 141.688 147.135 141.377C146.824 141.066 146.65 140.644 146.65 140.204C146.65 139.764 146.824 139.342 147.135 139.031C147.445 138.72 147.867 138.546 148.306 138.546H171.231C171.67 138.546 172.092 138.72 172.402 139.031C172.713 139.342 172.887 139.764 172.887 140.204C172.887 140.644 172.713 141.066 172.402 141.377C172.092 141.688 171.67 141.862 171.231 141.862Z" fill="#E6E6E6"/>
<path d="M171.231 149.639H148.306C148.089 149.639 147.873 149.596 147.672 149.513C147.471 149.43 147.289 149.307 147.135 149.153C146.981 149 146.859 148.817 146.776 148.616C146.692 148.414 146.65 148.199 146.65 147.981C146.65 147.763 146.692 147.548 146.776 147.346C146.859 147.145 146.981 146.962 147.135 146.808C147.289 146.654 147.471 146.532 147.672 146.449C147.873 146.366 148.089 146.323 148.306 146.323H171.231C171.448 146.323 171.664 146.366 171.865 146.449C172.066 146.532 172.248 146.654 172.402 146.808C172.556 146.962 172.678 147.145 172.761 147.346C172.844 147.548 172.887 147.763 172.887 147.981C172.887 148.199 172.844 148.414 172.761 148.616C172.678 148.817 172.556 149 172.402 149.153C172.248 149.307 172.066 149.43 171.865 149.513C171.664 149.596 171.448 149.639 171.231 149.639Z" fill="#E6E6E6"/>
<path d="M184.088 134.164H135.449C135.01 134.164 134.589 133.989 134.278 133.678C133.967 133.367 133.793 132.945 133.793 132.506C133.793 132.066 133.967 131.644 134.278 131.333C134.589 131.022 135.01 130.847 135.449 130.847H184.088C184.527 130.847 184.948 131.022 185.259 131.333C185.57 131.644 185.744 132.066 185.744 132.506C185.744 132.945 185.57 133.367 185.259 133.678C184.948 133.989 184.527 134.164 184.088 134.164Z" fill="#E6E6E6"/>
<path d="M193.456 165.562H185.132C184.385 165.562 183.668 165.265 183.14 164.736C182.612 164.207 182.315 163.49 182.315 162.742C182.315 161.994 182.612 161.277 183.14 160.748C183.668 160.22 184.385 159.922 185.132 159.922H193.456C194.203 159.922 194.919 160.22 195.448 160.748C195.976 161.277 196.273 161.994 196.273 162.742C196.273 163.49 195.976 164.207 195.448 164.736C194.919 165.265 194.203 165.562 193.456 165.562Z" fill="#7165E3"/>
<path d="M103.005 145.096C111.007 145.096 117.495 138.603 117.495 130.593C117.495 122.583 111.007 116.09 103.005 116.09C95.0031 116.09 88.516 122.583 88.516 130.593C88.516 138.603 95.0031 145.096 103.005 145.096Z" fill="#7165E3"/>
<path d="M272.559 218.636H64.1406C64.0391 218.636 63.9419 218.596 63.8702 218.524C63.7985 218.452 63.7583 218.354 63.7583 218.253C63.7583 218.151 63.7985 218.054 63.8702 217.982C63.9419 217.91 64.0391 217.869 64.1406 217.869H272.559C272.661 217.869 272.758 217.91 272.829 217.982C272.901 218.054 272.941 218.151 272.941 218.253C272.941 218.354 272.901 218.452 272.829 218.524C272.758 218.596 272.661 218.636 272.559 218.636Z" fill="#CACACA"/>
<path d="M142.258 89.4467C142.559 89.4467 142.804 89.202 142.804 88.9001C142.804 88.5982 142.559 88.3535 142.258 88.3535C141.956 88.3535 141.712 88.5982 141.712 88.9001C141.712 89.202 141.956 89.4467 142.258 89.4467Z" fill="white"/>
</g>
<rect x="8.5" y="5.5" width="345" height="234" rx="18.5" stroke="#D2D2D2"/>
</g>
<defs>
<filter id="filter0_d_320_2447" x="0" y="0" width="362" height="251" filterUnits="userSpaceOnUse" color-interpolation-filters="sRGB">
<feFlood flood-opacity="0" result="BackgroundImageFix"/>
<feColorMatrix in="SourceAlpha" type="matrix" values="0 0 0 0 0 0 0 0 0 0 0 0 0 0 0 0 0 0 127 0" result="hardAlpha"/>
<feOffset dy="3"/>
<feGaussianBlur stdDeviation="4"/>
<feComposite in2="hardAlpha" operator="out"/>
<feColorMatrix type="matrix" values="0 0 0 0 0.655 0 0 0 0 0.655 0 0 0 0 0.655 0 0 0 0.25 0"/>
<feBlend mode="normal" in2="BackgroundImageFix" result="effect1_dropShadow_320_2447"/>
<feBlend mode="normal" in="SourceGraphic" in2="effect1_dropShadow_320_2447" result="shape"/>
</filter>
<clipPath id="clip0_320_2447">
<rect width="234.486" height="193.036" fill="white" transform="translate(63.7572 25.6007)"/>
</clipPath>
</defs>
</svg>
