<svg width="707" height="580" viewBox="0 0 707 580" fill="none" xmlns="http://www.w3.org/2000/svg">
<rect x="-77.5" y="0.5" width="112" height="112" stroke="#FFDA00"/>
<rect x="34.5" y="0.5" width="112" height="112" stroke="#FFDA00"/>
<rect x="146.5" y="0.5" width="112" height="112" stroke="#FFDA00"/>
<rect x="370.5" y="0.5" width="112" height="112" stroke="#FFDA00"/>
<rect x="482.5" y="0.5" width="112" height="112" stroke="#FFDA00"/>
<rect x="594.5" y="0.5" width="112" height="112" stroke="#FFDA00"/>
<rect x="-77.5" y="112.5" width="112" height="112" stroke="#FFDA00"/>
<rect x="34.5" y="112.5" width="112" height="112" fill="#E7AA07" fill-opacity="0.5" stroke="#FFDA00"/>
<rect x="146.5" y="112.5" width="112" height="112" stroke="#FFDA00"/>
<rect x="258.5" y="112.5" width="112" height="112" stroke="#FFDA00"/>
<rect x="370.5" y="112.5" width="112" height="112" stroke="#FFDA00"/>
<rect x="482" y="112" width="113" height="113" fill="#E7AA07" fill-opacity="0.5"/>
<rect x="594.5" y="112.5" width="112" height="112" stroke="#FFDA00"/>
<rect x="-77.5" y="224.5" width="112" height="112" stroke="#FFDA00"/>
<rect x="34.5" y="224.5" width="112" height="112" stroke="#FFDA00"/>
<rect x="146.5" y="224.5" width="112" height="112" stroke="#FFDA00"/>
<rect x="258.5" y="224.5" width="112" height="112" stroke="#FFDA00"/>
<rect x="370.5" y="224.5" width="112" height="112" stroke="#FFDA00"/>
<rect x="482.5" y="224.5" width="112" height="112" stroke="#FFDA00"/>
<rect x="594.5" y="224.5" width="112" height="112" stroke="#FFDA00"/>
<rect x="-77.5" y="336.5" width="112" height="112" stroke="#FFDA00"/>
<rect x="34.5" y="336.5" width="112" height="112" stroke="#FFDA00"/>
<rect x="146.5" y="336.5" width="112" height="112" stroke="#FFDA00"/>
<rect x="258.5" y="336.5" width="112" height="112" stroke="#FFDA00"/>
<rect x="370.5" y="336.5" width="112" height="112" stroke="#FFDA00"/>
<rect x="482.5" y="336.5" width="112" height="112" stroke="#FFDA00"/>
<rect x="594.5" y="336.5" width="112" height="112" stroke="#FFDA00"/>
<rect x="-77.5" y="448.5" width="112" height="112" stroke="#FFDA00"/>
<rect x="34.5" y="448.5" width="112" height="112" stroke="#FFDA00"/>
<rect x="146.5" y="448.5" width="112" height="112" stroke="#FFDA00"/>
<rect x="258.5" y="448.5" width="112" height="112" stroke="#FFDA00"/>
<rect x="370" y="448" width="113" height="113" fill="#E7AA07" fill-opacity="0.5"/>
<rect x="482.5" y="448.5" width="112" height="112" stroke="#FFDA00"/>
<rect x="594.5" y="448.5" width="112" height="112" stroke="#FFDA00"/>
<rect x="-77.5" y="560.5" width="112" height="112" stroke="#FFDA00"/>
<rect x="34.5" y="560.5" width="112" height="112" stroke="#FFDA00"/>
<rect x="146.5" y="560.5" width="112" height="112" stroke="#FFDA00"/>
<rect x="258.5" y="560.5" width="112" height="112" stroke="#FFDA00"/>
<rect x="370.5" y="560.5" width="112" height="112" stroke="#FFDA00"/>
<rect x="482.5" y="560.5" width="112" height="112" stroke="#FFDA00"/>
<rect x="594.5" y="560.5" width="112" height="112" stroke="#FFDA00"/>
</svg>
