<svg width="339" height="297" viewBox="0 0 339 297" fill="none" xmlns="http://www.w3.org/2000/svg">
<g filter="url(#filter0_d_320_2489)">
<rect x="8" y="95" width="299" height="192" rx="14" fill="white"/>
<rect width="299" height="23" transform="translate(8 96)" fill="#7165E3"/>
<line x1="261.5" y1="107.5" x2="287.5" y2="107.5" stroke="white" stroke-linecap="round"/>
<circle cx="247" cy="108" r="6" fill="white"/>
<rect x="24.5" y="131.5" width="82" height="42" rx="4.5" fill="white"/>
<path d="M36.046 161.866C36.3493 161.866 36.627 161.817 36.879 161.719C37.131 161.616 37.3457 161.476 37.523 161.299C37.705 161.122 37.845 160.912 37.943 160.669C38.041 160.426 38.09 160.163 38.09 159.878C38.09 159.57 38.041 159.295 37.943 159.052C37.8497 158.805 37.7143 158.597 37.537 158.429C37.3643 158.261 37.1543 158.133 36.907 158.044C36.6643 157.951 36.396 157.904 36.102 157.904C35.7987 157.904 35.5233 157.955 35.276 158.058C35.0333 158.161 34.8257 158.301 34.653 158.478C34.4803 158.655 34.3473 158.863 34.254 159.101C34.1607 159.339 34.114 159.591 34.114 159.857C34.114 160.156 34.156 160.429 34.24 160.676C34.324 160.923 34.4477 161.136 34.611 161.313C34.7743 161.486 34.975 161.621 35.213 161.719C35.4557 161.817 35.7333 161.866 36.046 161.866ZM35.493 156.63C35.4183 156.723 35.346 156.812 35.276 156.896C35.2107 156.98 35.1453 157.064 35.08 157.148C35.2947 157.027 35.5303 156.931 35.787 156.861C36.0437 156.791 36.319 156.756 36.613 156.756C37.005 156.756 37.3807 156.821 37.74 156.952C38.0993 157.078 38.4143 157.269 38.685 157.526C38.9603 157.778 39.1797 158.093 39.343 158.471C39.5063 158.844 39.588 159.276 39.588 159.766C39.588 160.233 39.5017 160.669 39.329 161.075C39.161 161.481 38.923 161.836 38.615 162.139C38.307 162.438 37.936 162.676 37.502 162.853C37.0727 163.026 36.5967 163.112 36.074 163.112C35.5513 163.112 35.08 163.028 34.66 162.86C34.24 162.692 33.8807 162.456 33.582 162.153C33.288 161.845 33.0617 161.476 32.903 161.047C32.7443 160.618 32.665 160.139 32.665 159.612C32.665 159.155 32.763 158.676 32.959 158.177C33.155 157.678 33.4583 157.153 33.869 156.602L36.347 153.277C36.4217 153.179 36.529 153.095 36.669 153.025C36.8137 152.955 36.9747 152.92 37.152 152.92H38.482L35.493 156.63ZM45.5881 159.276V155.594C45.5881 155.3 45.6091 154.978 45.6511 154.628L42.2631 159.276H45.5881ZM48.2901 159.276V160.144C48.2901 160.228 48.2621 160.3 48.2061 160.361C48.1548 160.422 48.0754 160.452 47.9681 160.452H46.8971V163H45.5881V160.452H41.2271C41.1198 160.452 41.0264 160.422 40.9471 160.361C40.8724 160.296 40.8234 160.216 40.8001 160.123L40.6461 159.353L45.4831 152.913H46.8971V159.276H48.2901ZM54.2202 155.356C54.2202 155.743 54.1572 156.091 54.0312 156.399C53.9099 156.707 53.7442 156.971 53.5342 157.19C53.3242 157.405 53.0815 157.57 52.8062 157.687C52.5309 157.799 52.2415 157.855 51.9382 157.855C51.6115 157.855 51.3082 157.799 51.0282 157.687C50.7529 157.57 50.5125 157.405 50.3072 157.19C50.1065 156.971 49.9479 156.707 49.8312 156.399C49.7145 156.091 49.6562 155.743 49.6562 155.356C49.6562 154.959 49.7145 154.605 49.8312 154.292C49.9479 153.975 50.1065 153.709 50.3072 153.494C50.5125 153.275 50.7529 153.107 51.0282 152.99C51.3082 152.873 51.6115 152.815 51.9382 152.815C52.2649 152.815 52.5659 152.873 52.8412 152.99C53.1212 153.107 53.3615 153.275 53.5622 153.494C53.7675 153.709 53.9285 153.975 54.0452 154.292C54.1619 154.605 54.2202 154.959 54.2202 155.356ZM53.0582 155.356C53.0582 155.071 53.0279 154.831 52.9672 154.635C52.9112 154.434 52.8319 154.273 52.7292 154.152C52.6312 154.026 52.5122 153.937 52.3722 153.886C52.2369 153.83 52.0922 153.802 51.9382 153.802C51.7795 153.802 51.6325 153.83 51.4972 153.886C51.3619 153.937 51.2452 154.026 51.1472 154.152C51.0492 154.273 50.9722 154.434 50.9162 154.635C50.8602 154.831 50.8322 155.071 50.8322 155.356C50.8322 155.636 50.8602 155.872 50.9162 156.063C50.9722 156.254 51.0492 156.411 51.1472 156.532C51.2452 156.649 51.3619 156.733 51.4972 156.784C51.6325 156.835 51.7795 156.861 51.9382 156.861C52.0922 156.861 52.2369 156.835 52.3722 156.784C52.5122 156.733 52.6312 156.649 52.7292 156.532C52.8319 156.411 52.9112 156.254 52.9672 156.063C53.0279 155.872 53.0582 155.636 53.0582 155.356ZM57.6782 153.165C57.7295 153.1 57.7902 153.044 57.8602 152.997C57.9349 152.946 58.0375 152.92 58.1682 152.92H59.2532L51.8262 162.769C51.7749 162.834 51.7119 162.89 51.6372 162.937C51.5625 162.979 51.4715 163 51.3642 163H50.2442L57.6782 153.165ZM59.8622 160.627C59.8622 161.014 59.7992 161.362 59.6732 161.67C59.5472 161.978 59.3792 162.239 59.1692 162.454C58.9592 162.669 58.7165 162.834 58.4412 162.951C58.1659 163.063 57.8765 163.119 57.5732 163.119C57.2465 163.119 56.9432 163.063 56.6632 162.951C56.3879 162.834 56.1475 162.669 55.9422 162.454C55.7415 162.239 55.5829 161.978 55.4662 161.67C55.3542 161.362 55.2982 161.014 55.2982 160.627C55.2982 160.23 55.3542 159.876 55.4662 159.563C55.5829 159.246 55.7415 158.977 55.9422 158.758C56.1475 158.539 56.3879 158.373 56.6632 158.261C56.9432 158.144 57.2465 158.086 57.5732 158.086C57.8999 158.086 58.2032 158.144 58.4832 158.261C58.7632 158.373 59.0035 158.539 59.2042 158.758C59.4095 158.977 59.5705 159.246 59.6872 159.563C59.8039 159.876 59.8622 160.23 59.8622 160.627ZM58.7002 160.627C58.7002 160.342 58.6699 160.102 58.6092 159.906C58.5532 159.705 58.4739 159.544 58.3712 159.423C58.2685 159.297 58.1472 159.208 58.0072 159.157C57.8719 159.101 57.7272 159.073 57.5732 159.073C57.4192 159.073 57.2745 159.101 57.1392 159.157C57.0039 159.208 56.8849 159.297 56.7822 159.423C56.6842 159.544 56.6072 159.705 56.5512 159.906C56.4952 160.102 56.4672 160.342 56.4672 160.627C56.4672 160.907 56.4952 161.143 56.5512 161.334C56.6072 161.525 56.6842 161.682 56.7822 161.803C56.8849 161.92 57.0039 162.004 57.1392 162.055C57.2745 162.106 57.4192 162.132 57.5732 162.132C57.7272 162.132 57.8719 162.106 58.0072 162.055C58.1472 162.004 58.2685 161.92 58.3712 161.803C58.4739 161.682 58.5532 161.525 58.6092 161.334C58.6699 161.143 58.7002 160.907 58.7002 160.627Z" fill="#272343"/>
<line x1="32.5" y1="141.5" x2="58.5" y2="141.5" stroke="#7165E3" stroke-linecap="round"/>
<path d="M95.765 157.265C95.6947 157.335 95.5994 157.375 95.5 157.375C95.4006 157.375 95.3053 157.335 95.235 157.265L91.375 153.406V163.5C91.375 163.599 91.3355 163.695 91.2651 163.765C91.1948 163.835 91.0994 163.875 91 163.875C90.9005 163.875 90.8051 163.835 90.7348 163.765C90.6645 163.695 90.625 163.599 90.625 163.5V153.406L86.765 157.265C86.6939 157.331 86.5999 157.367 86.5027 157.366C86.4056 157.364 86.3129 157.325 86.2442 157.256C86.1755 157.187 86.1361 157.094 86.1344 156.997C86.1327 156.9 86.1687 156.806 86.235 156.735L90.735 152.235C90.8053 152.165 90.9006 152.125 91 152.125C91.0994 152.125 91.1947 152.165 91.265 152.235L95.765 156.735C95.8352 156.805 95.8747 156.901 95.8747 157C95.8747 157.099 95.8352 157.195 95.765 157.265Z" fill="#27B560"/>
<rect x="24.5" y="131.5" width="82" height="42" rx="4.5" stroke="#D2D2D2"/>
<rect x="116.5" y="131.5" width="82" height="42" rx="4.5" fill="white"/>
<path d="M128.354 161.824C128.909 161.759 129.329 161.577 129.614 161.278C129.903 160.979 130.048 160.594 130.048 160.123C130.048 159.922 130.011 159.747 129.936 159.598C129.861 159.449 129.759 159.318 129.628 159.206C129.502 159.094 129.35 158.998 129.173 158.919C128.996 158.835 128.804 158.758 128.599 158.688L128.354 161.824ZM128.011 154.117C127.731 154.145 127.491 154.203 127.29 154.292C127.089 154.376 126.924 154.481 126.793 154.607C126.662 154.728 126.567 154.866 126.506 155.02C126.445 155.174 126.415 155.337 126.415 155.51C126.415 155.706 126.45 155.879 126.52 156.028C126.59 156.177 126.686 156.31 126.807 156.427C126.933 156.539 127.08 156.639 127.248 156.728C127.416 156.812 127.598 156.891 127.794 156.966L128.011 154.117ZM128.711 157.26C129.047 157.363 129.378 157.477 129.705 157.603C130.036 157.724 130.333 157.883 130.594 158.079C130.855 158.27 131.065 158.511 131.224 158.8C131.387 159.089 131.469 159.451 131.469 159.885C131.469 160.31 131.397 160.711 131.252 161.089C131.112 161.462 130.904 161.794 130.629 162.083C130.354 162.368 130.015 162.601 129.614 162.783C129.217 162.96 128.765 163.065 128.256 163.098L128.172 164.218C128.167 164.316 128.128 164.405 128.053 164.484C127.978 164.568 127.883 164.61 127.766 164.61H127.206L127.325 163.077C126.774 163.012 126.261 162.867 125.785 162.643C125.314 162.414 124.91 162.13 124.574 161.789L125.029 161.096C125.071 161.035 125.125 160.986 125.19 160.949C125.26 160.907 125.335 160.886 125.414 160.886C125.512 160.886 125.617 160.926 125.729 161.005C125.846 161.084 125.981 161.178 126.135 161.285C126.289 161.388 126.471 161.49 126.681 161.593C126.891 161.691 127.138 161.763 127.423 161.81L127.682 158.415C127.355 158.317 127.031 158.207 126.709 158.086C126.392 157.96 126.105 157.794 125.848 157.589C125.596 157.384 125.391 157.127 125.232 156.819C125.078 156.511 125.001 156.124 125.001 155.657C125.001 155.307 125.069 154.966 125.204 154.635C125.344 154.304 125.545 154.01 125.806 153.753C126.072 153.492 126.399 153.279 126.786 153.116C127.173 152.948 127.617 152.852 128.116 152.829L128.186 151.891C128.191 151.788 128.23 151.697 128.305 151.618C128.38 151.539 128.475 151.499 128.592 151.499H129.152L129.047 152.871C129.537 152.941 129.962 153.076 130.321 153.277C130.68 153.473 130.993 153.702 131.259 153.963L130.895 154.523C130.792 154.686 130.666 154.768 130.517 154.768C130.447 154.768 130.363 154.742 130.265 154.691C130.172 154.64 130.06 154.579 129.929 154.509C129.803 154.439 129.658 154.369 129.495 154.299C129.332 154.229 129.15 154.175 128.949 154.138L128.711 157.26ZM133.087 155.692C133.157 155.216 133.288 154.798 133.479 154.439C133.675 154.08 133.92 153.781 134.214 153.543C134.508 153.3 134.844 153.118 135.222 152.997C135.605 152.871 136.018 152.808 136.461 152.808C136.909 152.808 137.315 152.873 137.679 153.004C138.048 153.13 138.363 153.307 138.624 153.536C138.89 153.765 139.093 154.038 139.233 154.355C139.378 154.672 139.45 155.02 139.45 155.398C139.45 155.72 139.41 156.005 139.331 156.252C139.256 156.495 139.147 156.709 139.002 156.896C138.862 157.083 138.689 157.239 138.484 157.365C138.279 157.491 138.048 157.596 137.791 157.68C138.416 157.862 138.885 158.154 139.198 158.555C139.511 158.952 139.667 159.451 139.667 160.053C139.667 160.538 139.576 160.97 139.394 161.348C139.212 161.726 138.965 162.046 138.652 162.307C138.344 162.568 137.982 162.769 137.567 162.909C137.156 163.044 136.72 163.112 136.258 163.112C135.74 163.112 135.292 163.051 134.914 162.93C134.536 162.804 134.209 162.627 133.934 162.398C133.663 162.165 133.437 161.885 133.255 161.558C133.073 161.231 132.919 160.865 132.793 160.459L133.444 160.186C133.617 160.111 133.78 160.09 133.934 160.123C134.093 160.156 134.207 160.242 134.277 160.382C134.352 160.531 134.436 160.692 134.529 160.865C134.622 161.033 134.741 161.189 134.886 161.334C135.035 161.474 135.217 161.593 135.432 161.691C135.651 161.784 135.92 161.831 136.237 161.831C136.559 161.831 136.839 161.78 137.077 161.677C137.32 161.57 137.52 161.434 137.679 161.271C137.842 161.103 137.964 160.916 138.043 160.711C138.122 160.506 138.162 160.303 138.162 160.102C138.162 159.85 138.132 159.619 138.071 159.409C138.01 159.194 137.891 159.012 137.714 158.863C137.541 158.714 137.294 158.597 136.972 158.513C136.655 158.424 136.237 158.38 135.719 158.38V157.295C136.144 157.29 136.501 157.248 136.79 157.169C137.084 157.085 137.317 156.973 137.49 156.833C137.667 156.688 137.793 156.516 137.868 156.315C137.947 156.114 137.987 155.895 137.987 155.657C137.987 155.4 137.947 155.174 137.868 154.978C137.789 154.782 137.677 154.619 137.532 154.488C137.392 154.353 137.224 154.252 137.028 154.187C136.832 154.122 136.615 154.089 136.377 154.089C136.148 154.089 135.936 154.122 135.74 154.187C135.549 154.252 135.376 154.343 135.222 154.46C135.073 154.577 134.947 154.717 134.844 154.88C134.741 155.039 134.667 155.214 134.62 155.405C134.555 155.596 134.466 155.725 134.354 155.79C134.247 155.855 134.088 155.869 133.878 155.832L133.087 155.692ZM143.217 156.644C143.46 156.593 143.691 156.555 143.91 156.532C144.134 156.509 144.349 156.497 144.554 156.497C145.082 156.497 145.546 156.576 145.947 156.735C146.353 156.889 146.692 157.104 146.962 157.379C147.238 157.654 147.443 157.979 147.578 158.352C147.718 158.721 147.788 159.122 147.788 159.556C147.788 160.093 147.695 160.58 147.508 161.019C147.322 161.458 147.063 161.833 146.731 162.146C146.4 162.454 146.008 162.692 145.555 162.86C145.107 163.028 144.622 163.112 144.099 163.112C143.791 163.112 143.497 163.082 143.217 163.021C142.942 162.96 142.683 162.879 142.44 162.776C142.198 162.669 141.974 162.547 141.768 162.412C141.563 162.272 141.379 162.127 141.215 161.978L141.677 161.334C141.775 161.194 141.906 161.124 142.069 161.124C142.172 161.124 142.284 161.161 142.405 161.236C142.527 161.311 142.667 161.392 142.825 161.481C142.989 161.565 143.18 161.644 143.399 161.719C143.619 161.794 143.88 161.831 144.183 161.831C144.515 161.831 144.811 161.777 145.072 161.67C145.334 161.563 145.553 161.413 145.73 161.222C145.912 161.026 146.05 160.793 146.143 160.522C146.237 160.251 146.283 159.955 146.283 159.633C146.283 159.339 146.239 159.075 146.15 158.842C146.066 158.609 145.938 158.41 145.765 158.247C145.597 158.084 145.385 157.96 145.128 157.876C144.872 157.787 144.575 157.743 144.239 157.743C143.992 157.743 143.738 157.764 143.476 157.806C143.22 157.848 142.958 157.913 142.692 158.002L141.754 157.736L142.58 152.92H147.459V153.571C147.459 153.786 147.392 153.961 147.256 154.096C147.121 154.231 146.895 154.299 146.577 154.299H143.623L143.217 156.644ZM149.469 162.132C149.469 161.997 149.493 161.871 149.539 161.754C149.591 161.633 149.658 161.528 149.742 161.439C149.831 161.35 149.934 161.28 150.05 161.229C150.172 161.178 150.3 161.152 150.435 161.152C150.571 161.152 150.697 161.178 150.813 161.229C150.935 161.28 151.04 161.35 151.128 161.439C151.217 161.528 151.287 161.633 151.338 161.754C151.39 161.871 151.415 161.997 151.415 162.132C151.415 162.272 151.39 162.4 151.338 162.517C151.287 162.634 151.217 162.736 151.128 162.825C151.04 162.914 150.935 162.981 150.813 163.028C150.697 163.079 150.571 163.105 150.435 163.105C150.3 163.105 150.172 163.079 150.05 163.028C149.934 162.981 149.831 162.914 149.742 162.825C149.658 162.736 149.591 162.634 149.539 162.517C149.493 162.4 149.469 162.272 149.469 162.132ZM156.278 161.866C156.581 161.866 156.859 161.817 157.111 161.719C157.363 161.616 157.578 161.476 157.755 161.299C157.937 161.122 158.077 160.912 158.175 160.669C158.273 160.426 158.322 160.163 158.322 159.878C158.322 159.57 158.273 159.295 158.175 159.052C158.082 158.805 157.946 158.597 157.769 158.429C157.596 158.261 157.386 158.133 157.139 158.044C156.896 157.951 156.628 157.904 156.334 157.904C156.031 157.904 155.755 157.955 155.508 158.058C155.265 158.161 155.058 158.301 154.885 158.478C154.712 158.655 154.579 158.863 154.486 159.101C154.393 159.339 154.346 159.591 154.346 159.857C154.346 160.156 154.388 160.429 154.472 160.676C154.556 160.923 154.68 161.136 154.843 161.313C155.006 161.486 155.207 161.621 155.445 161.719C155.688 161.817 155.965 161.866 156.278 161.866ZM155.725 156.63C155.65 156.723 155.578 156.812 155.508 156.896C155.443 156.98 155.377 157.064 155.312 157.148C155.527 157.027 155.762 156.931 156.019 156.861C156.276 156.791 156.551 156.756 156.845 156.756C157.237 156.756 157.613 156.821 157.972 156.952C158.331 157.078 158.646 157.269 158.917 157.526C159.192 157.778 159.412 158.093 159.575 158.471C159.738 158.844 159.82 159.276 159.82 159.766C159.82 160.233 159.734 160.669 159.561 161.075C159.393 161.481 159.155 161.836 158.847 162.139C158.539 162.438 158.168 162.676 157.734 162.853C157.305 163.026 156.829 163.112 156.306 163.112C155.783 163.112 155.312 163.028 154.892 162.86C154.472 162.692 154.113 162.456 153.814 162.153C153.52 161.845 153.294 161.476 153.135 161.047C152.976 160.618 152.897 160.139 152.897 159.612C152.897 159.155 152.995 158.676 153.191 158.177C153.387 157.678 153.69 157.153 154.101 156.602L156.579 153.277C156.654 153.179 156.761 153.095 156.901 153.025C157.046 152.955 157.207 152.92 157.384 152.92H158.714L155.725 156.63ZM163.328 157.232H163.797C163.974 157.232 164.119 157.209 164.231 157.162C164.343 157.111 164.443 157.031 164.532 156.924L167.584 153.284C167.691 153.149 167.801 153.055 167.913 153.004C168.03 152.948 168.174 152.92 168.347 152.92H169.747L166.142 157.176C166.044 157.297 165.948 157.4 165.855 157.484C165.766 157.563 165.668 157.629 165.561 157.68C165.701 157.731 165.827 157.804 165.939 157.897C166.051 157.986 166.161 158.105 166.268 158.254L170.006 163H168.578C168.475 163 168.387 162.993 168.312 162.979C168.242 162.965 168.179 162.944 168.123 162.916C168.072 162.888 168.025 162.853 167.983 162.811C167.946 162.769 167.911 162.722 167.878 162.671L164.728 158.821C164.681 158.76 164.635 158.709 164.588 158.667C164.541 158.625 164.485 158.59 164.42 158.562C164.359 158.534 164.289 158.515 164.21 158.506C164.131 158.492 164.037 158.485 163.93 158.485H163.328V163H161.69V152.92H163.328V157.232Z" fill="#272343"/>
<line x1="124.5" y1="141.5" x2="150.5" y2="141.5" stroke="#7165E3" stroke-linecap="round"/>
<path d="M187.765 157.265C187.695 157.335 187.599 157.375 187.5 157.375C187.401 157.375 187.305 157.335 187.235 157.265L183.375 153.406V163.5C183.375 163.599 183.336 163.695 183.265 163.765C183.195 163.835 183.1 163.875 183 163.875C182.901 163.875 182.805 163.835 182.735 163.765C182.665 163.695 182.625 163.599 182.625 163.5V153.406L178.765 157.265C178.694 157.331 178.6 157.367 178.503 157.366C178.406 157.364 178.313 157.325 178.244 157.256C178.176 157.187 178.136 157.094 178.134 156.997C178.133 156.9 178.169 156.806 178.235 156.735L182.735 152.235C182.805 152.165 182.901 152.125 183 152.125C183.099 152.125 183.195 152.165 183.265 152.235L187.765 156.735C187.835 156.805 187.875 156.901 187.875 157C187.875 157.099 187.835 157.195 187.765 157.265Z" fill="#27B560"/>
<rect x="116.5" y="131.5" width="82" height="42" rx="4.5" stroke="#D2D2D2"/>
<rect x="208.5" y="131.5" width="82" height="42" rx="4.5" fill="white"/>
<line x1="216.5" y1="141.5" x2="242.5" y2="141.5" stroke="#7165E3" stroke-linecap="round"/>
<path d="M221.047 159.276V155.594C221.047 155.3 221.068 154.978 221.11 154.628L217.722 159.276H221.047ZM223.749 159.276V160.144C223.749 160.228 223.721 160.3 223.665 160.361C223.614 160.422 223.534 160.452 223.427 160.452H222.356V163H221.047V160.452H216.686C216.579 160.452 216.485 160.422 216.406 160.361C216.331 160.296 216.282 160.216 216.259 160.123L216.105 159.353L220.942 152.913H222.356V159.276H223.749ZM224.947 162.132C224.947 161.997 224.97 161.871 225.017 161.754C225.068 161.633 225.136 161.528 225.22 161.439C225.309 161.35 225.411 161.28 225.528 161.229C225.649 161.178 225.778 161.152 225.913 161.152C226.048 161.152 226.174 161.178 226.291 161.229C226.412 161.28 226.517 161.35 226.606 161.439C226.695 161.528 226.765 161.633 226.816 161.754C226.867 161.871 226.893 161.997 226.893 162.132C226.893 162.272 226.867 162.4 226.816 162.517C226.765 162.634 226.695 162.736 226.606 162.825C226.517 162.914 226.412 162.981 226.291 163.028C226.174 163.079 226.048 163.105 225.913 163.105C225.778 163.105 225.649 163.079 225.528 163.028C225.411 162.981 225.309 162.914 225.22 162.825C225.136 162.736 225.068 162.634 225.017 162.517C224.97 162.4 224.947 162.272 224.947 162.132ZM232.757 159.276V155.594C232.757 155.3 232.778 154.978 232.82 154.628L229.432 159.276H232.757ZM235.459 159.276V160.144C235.459 160.228 235.431 160.3 235.375 160.361C235.323 160.422 235.244 160.452 235.137 160.452H234.066V163H232.757V160.452H228.396C228.288 160.452 228.195 160.422 228.116 160.361C228.041 160.296 227.992 160.216 227.969 160.123L227.815 159.353L232.652 152.913H234.066V159.276H235.459ZM240.031 161.922C240.334 161.922 240.605 161.88 240.843 161.796C241.081 161.707 241.279 161.586 241.438 161.432C241.601 161.273 241.725 161.087 241.809 160.872C241.893 160.657 241.935 160.424 241.935 160.172C241.935 159.864 241.886 159.598 241.788 159.374C241.694 159.15 241.561 158.966 241.389 158.821C241.221 158.672 241.02 158.562 240.787 158.492C240.553 158.417 240.301 158.38 240.031 158.38C239.76 158.38 239.508 158.417 239.275 158.492C239.041 158.562 238.838 158.672 238.666 158.821C238.498 158.966 238.365 159.15 238.267 159.374C238.173 159.598 238.127 159.864 238.127 160.172C238.127 160.424 238.169 160.657 238.253 160.872C238.337 161.087 238.458 161.273 238.617 161.432C238.78 161.586 238.981 161.707 239.219 161.796C239.457 161.88 239.727 161.922 240.031 161.922ZM240.031 153.963C239.755 153.963 239.513 154.005 239.303 154.089C239.097 154.173 238.927 154.285 238.792 154.425C238.656 154.565 238.554 154.731 238.484 154.922C238.418 155.109 238.386 155.307 238.386 155.517C238.386 155.727 238.414 155.932 238.47 156.133C238.53 156.334 238.624 156.513 238.75 156.672C238.88 156.826 239.051 156.95 239.261 157.043C239.471 157.136 239.727 157.183 240.031 157.183C240.334 157.183 240.591 157.136 240.801 157.043C241.011 156.95 241.179 156.826 241.305 156.672C241.435 156.513 241.529 156.334 241.585 156.133C241.645 155.932 241.676 155.727 241.676 155.517C241.676 155.307 241.641 155.109 241.571 154.922C241.505 154.731 241.403 154.565 241.263 154.425C241.127 154.285 240.957 154.173 240.752 154.089C240.546 154.005 240.306 153.963 240.031 153.963ZM241.62 157.743C242.24 157.934 242.705 158.238 243.013 158.653C243.325 159.068 243.482 159.584 243.482 160.2C243.482 160.643 243.398 161.045 243.23 161.404C243.062 161.763 242.826 162.069 242.523 162.321C242.219 162.573 241.855 162.769 241.431 162.909C241.011 163.044 240.544 163.112 240.031 163.112C239.517 163.112 239.048 163.044 238.624 162.909C238.204 162.769 237.842 162.573 237.539 162.321C237.235 162.069 237 161.763 236.832 161.404C236.664 161.045 236.58 160.643 236.58 160.2C236.58 159.584 236.734 159.068 237.042 158.653C237.354 158.238 237.821 157.934 238.442 157.743C237.938 157.542 237.557 157.251 237.301 156.868C237.049 156.485 236.923 156.026 236.923 155.489C236.923 155.111 236.997 154.759 237.147 154.432C237.296 154.105 237.506 153.823 237.777 153.585C238.052 153.342 238.381 153.153 238.764 153.018C239.146 152.878 239.569 152.808 240.031 152.808C240.493 152.808 240.913 152.878 241.291 153.018C241.673 153.153 242 153.342 242.271 153.585C242.546 153.823 242.758 154.105 242.908 154.432C243.062 154.759 243.139 155.111 243.139 155.489C243.139 156.026 243.01 156.485 242.754 156.868C242.502 157.251 242.124 157.542 241.62 157.743ZM251.421 161.859V163H245.926V161.859H248.026V155.545C248.026 155.321 248.033 155.092 248.047 154.859L246.43 156.224C246.36 156.28 246.288 156.317 246.213 156.336C246.143 156.35 246.075 156.35 246.01 156.336C245.949 156.322 245.893 156.301 245.842 156.273C245.795 156.24 245.758 156.205 245.73 156.168L245.261 155.51L248.299 152.899H249.524V161.859H251.421Z" fill="#272343"/>
<path d="M279.765 157.265C279.695 157.335 279.599 157.375 279.5 157.375C279.401 157.375 279.305 157.335 279.235 157.265L275.375 153.406V163.5C275.375 163.599 275.336 163.695 275.265 163.765C275.195 163.835 275.1 163.875 275 163.875C274.901 163.875 274.805 163.835 274.735 163.765C274.665 163.695 274.625 163.599 274.625 163.5V153.406L270.765 157.265C270.694 157.331 270.6 157.367 270.503 157.366C270.406 157.364 270.313 157.325 270.244 157.256C270.176 157.187 270.136 157.094 270.134 156.997C270.133 156.9 270.169 156.806 270.235 156.735L274.735 152.235C274.805 152.165 274.901 152.125 275 152.125C275.099 152.125 275.195 152.165 275.265 152.235L279.765 156.735C279.835 156.805 279.875 156.901 279.875 157C279.875 157.099 279.835 157.195 279.765 157.265Z" fill="#27B560"/>
<rect x="208.5" y="131.5" width="82" height="42" rx="4.5" stroke="#D2D2D2"/>
<rect x="24.5" y="182.5" width="266" height="94" rx="4.5" fill="white"/>
<rect x="237.5" y="190.5" width="41" height="12" rx="3.5" fill="white"/>
<line x1="244.5" y1="196.5" x2="270.5" y2="196.5" stroke="#7165E3" stroke-linecap="round"/>
<rect x="237.5" y="190.5" width="41" height="12" rx="3.5" stroke="#D2D2D2"/>
<line x1="37.5" y1="196.5" x2="79.5" y2="196.5" stroke="#7165E3" stroke-width="3" stroke-linecap="round"/>
<path d="M53.525 259.4C53.525 260.03 53.4567 260.575 53.32 261.035C53.1867 261.495 53.0017 261.877 52.765 262.18C52.5283 262.483 52.25 262.708 51.93 262.855C51.61 263.002 51.265 263.075 50.895 263.075C50.525 263.075 50.18 263.002 49.86 262.855C49.54 262.708 49.2617 262.483 49.025 262.18C48.7917 261.877 48.6083 261.495 48.475 261.035C48.3417 260.575 48.275 260.03 48.275 259.4C48.275 258.77 48.3417 258.225 48.475 257.765C48.6083 257.302 48.7917 256.92 49.025 256.62C49.2617 256.317 49.54 256.092 49.86 255.945C50.18 255.795 50.525 255.72 50.895 255.72C51.265 255.72 51.61 255.795 51.93 255.945C52.25 256.092 52.5283 256.317 52.765 256.62C53.0017 256.92 53.1867 257.302 53.32 257.765C53.4567 258.225 53.525 258.77 53.525 259.4ZM52.415 259.4C52.415 258.867 52.3717 258.423 52.285 258.07C52.2017 257.713 52.09 257.428 51.95 257.215C51.81 257.002 51.6483 256.85 51.465 256.76C51.2817 256.67 51.0917 256.625 50.895 256.625C50.695 256.625 50.5033 256.67 50.32 256.76C50.14 256.85 49.98 257.002 49.84 257.215C49.7 257.428 49.5883 257.713 49.505 258.07C49.4217 258.423 49.38 258.867 49.38 259.4C49.38 259.933 49.4217 260.378 49.505 260.735C49.5883 261.088 49.7 261.372 49.84 261.585C49.98 261.798 50.14 261.95 50.32 262.04C50.5033 262.13 50.695 262.175 50.895 262.175C51.0917 262.175 51.2817 262.13 51.465 262.04C51.6483 261.95 51.81 261.798 51.95 261.585C52.09 261.372 52.2017 261.088 52.285 260.735C52.3717 260.378 52.415 259.933 52.415 259.4ZM57.7708 257.54C57.7708 257.817 57.7258 258.065 57.6358 258.285C57.5491 258.505 57.4308 258.693 57.2808 258.85C57.1308 259.003 56.9574 259.122 56.7608 259.205C56.5641 259.285 56.3574 259.325 56.1408 259.325C55.9074 259.325 55.6908 259.285 55.4908 259.205C55.2941 259.122 55.1224 259.003 54.9758 258.85C54.8324 258.693 54.7191 258.505 54.6358 258.285C54.5524 258.065 54.5108 257.817 54.5108 257.54C54.5108 257.257 54.5524 257.003 54.6358 256.78C54.7191 256.553 54.8324 256.363 54.9758 256.21C55.1224 256.053 55.2941 255.933 55.4908 255.85C55.6908 255.767 55.9074 255.725 56.1408 255.725C56.3741 255.725 56.5891 255.767 56.7858 255.85C56.9858 255.933 57.1574 256.053 57.3008 256.21C57.4474 256.363 57.5624 256.553 57.6458 256.78C57.7291 257.003 57.7708 257.257 57.7708 257.54ZM56.9408 257.54C56.9408 257.337 56.9191 257.165 56.8758 257.025C56.8358 256.882 56.7791 256.767 56.7058 256.68C56.6358 256.59 56.5508 256.527 56.4508 256.49C56.3541 256.45 56.2508 256.43 56.1408 256.43C56.0274 256.43 55.9224 256.45 55.8258 256.49C55.7291 256.527 55.6458 256.59 55.5758 256.68C55.5058 256.767 55.4508 256.882 55.4108 257.025C55.3708 257.165 55.3508 257.337 55.3508 257.54C55.3508 257.74 55.3708 257.908 55.4108 258.045C55.4508 258.182 55.5058 258.293 55.5758 258.38C55.6458 258.463 55.7291 258.523 55.8258 258.56C55.9224 258.597 56.0274 258.615 56.1408 258.615C56.2508 258.615 56.3541 258.597 56.4508 258.56C56.5508 258.523 56.6358 258.463 56.7058 258.38C56.7791 258.293 56.8358 258.182 56.8758 258.045C56.9191 257.908 56.9408 257.74 56.9408 257.54ZM60.2408 255.975C60.2774 255.928 60.3208 255.888 60.3708 255.855C60.4241 255.818 60.4974 255.8 60.5908 255.8H61.3658L56.0608 262.835C56.0241 262.882 55.9791 262.922 55.9258 262.955C55.8724 262.985 55.8074 263 55.7308 263H54.9308L60.2408 255.975ZM61.8008 261.305C61.8008 261.582 61.7558 261.83 61.6658 262.05C61.5758 262.27 61.4558 262.457 61.3058 262.61C61.1558 262.763 60.9824 262.882 60.7858 262.965C60.5891 263.045 60.3824 263.085 60.1658 263.085C59.9324 263.085 59.7158 263.045 59.5158 262.965C59.3191 262.882 59.1474 262.763 59.0008 262.61C58.8574 262.457 58.7441 262.27 58.6608 262.05C58.5808 261.83 58.5408 261.582 58.5408 261.305C58.5408 261.022 58.5808 260.768 58.6608 260.545C58.7441 260.318 58.8574 260.127 59.0008 259.97C59.1474 259.813 59.3191 259.695 59.5158 259.615C59.7158 259.532 59.9324 259.49 60.1658 259.49C60.3991 259.49 60.6158 259.532 60.8158 259.615C61.0158 259.695 61.1874 259.813 61.3308 259.97C61.4774 260.127 61.5924 260.318 61.6758 260.545C61.7591 260.768 61.8008 261.022 61.8008 261.305ZM60.9708 261.305C60.9708 261.102 60.9491 260.93 60.9058 260.79C60.8658 260.647 60.8091 260.532 60.7358 260.445C60.6624 260.355 60.5758 260.292 60.4758 260.255C60.3791 260.215 60.2758 260.195 60.1658 260.195C60.0558 260.195 59.9524 260.215 59.8558 260.255C59.7591 260.292 59.6741 260.355 59.6008 260.445C59.5308 260.532 59.4758 260.647 59.4358 260.79C59.3958 260.93 59.3758 261.102 59.3758 261.305C59.3758 261.505 59.3958 261.673 59.4358 261.81C59.4758 261.947 59.5308 262.058 59.6008 262.145C59.6741 262.228 59.7591 262.288 59.8558 262.325C59.9524 262.362 60.0558 262.38 60.1658 262.38C60.2758 262.38 60.3791 262.362 60.4758 262.325C60.5758 262.288 60.6624 262.228 60.7358 262.145C60.8091 262.058 60.8658 261.947 60.9058 261.81C60.9491 261.673 60.9708 261.505 60.9708 261.305Z" fill="#D2D2D2"/>
<path d="M43.925 238.46C44.0983 238.423 44.2633 238.397 44.42 238.38C44.58 238.363 44.7333 238.355 44.88 238.355C45.2567 238.355 45.5883 238.412 45.875 238.525C46.165 238.635 46.4067 238.788 46.6 238.985C46.7967 239.182 46.9433 239.413 47.04 239.68C47.14 239.943 47.19 240.23 47.19 240.54C47.19 240.923 47.1233 241.272 46.99 241.585C46.8567 241.898 46.6717 242.167 46.435 242.39C46.1983 242.61 45.9183 242.78 45.595 242.9C45.275 243.02 44.9283 243.08 44.555 243.08C44.335 243.08 44.125 243.058 43.925 243.015C43.7283 242.972 43.5433 242.913 43.37 242.84C43.1967 242.763 43.0367 242.677 42.89 242.58C42.7433 242.48 42.6117 242.377 42.495 242.27L42.825 241.81C42.895 241.71 42.9883 241.66 43.105 241.66C43.1783 241.66 43.2583 241.687 43.345 241.74C43.4317 241.793 43.5317 241.852 43.645 241.915C43.7617 241.975 43.8983 242.032 44.055 242.085C44.2117 242.138 44.3983 242.165 44.615 242.165C44.8517 242.165 45.0633 242.127 45.25 242.05C45.4367 241.973 45.5933 241.867 45.72 241.73C45.85 241.59 45.9483 241.423 46.015 241.23C46.0817 241.037 46.115 240.825 46.115 240.595C46.115 240.385 46.0833 240.197 46.02 240.03C45.96 239.863 45.8683 239.722 45.745 239.605C45.625 239.488 45.4733 239.4 45.29 239.34C45.1067 239.277 44.895 239.245 44.655 239.245C44.4783 239.245 44.2967 239.26 44.11 239.29C43.9267 239.32 43.74 239.367 43.55 239.43L42.88 239.24L43.47 235.8H46.955V236.265C46.955 236.418 46.9067 236.543 46.81 236.64C46.7133 236.737 46.5517 236.785 46.325 236.785H44.215L43.925 238.46ZM53.6258 239.4C53.6258 240.03 53.5574 240.575 53.4208 241.035C53.2874 241.495 53.1024 241.877 52.8658 242.18C52.6291 242.483 52.3508 242.708 52.0308 242.855C51.7108 243.002 51.3658 243.075 50.9958 243.075C50.6258 243.075 50.2808 243.002 49.9608 242.855C49.6408 242.708 49.3624 242.483 49.1258 242.18C48.8924 241.877 48.7091 241.495 48.5758 241.035C48.4424 240.575 48.3758 240.03 48.3758 239.4C48.3758 238.77 48.4424 238.225 48.5758 237.765C48.7091 237.302 48.8924 236.92 49.1258 236.62C49.3624 236.317 49.6408 236.092 49.9608 235.945C50.2808 235.795 50.6258 235.72 50.9958 235.72C51.3658 235.72 51.7108 235.795 52.0308 235.945C52.3508 236.092 52.6291 236.317 52.8658 236.62C53.1024 236.92 53.2874 237.302 53.4208 237.765C53.5574 238.225 53.6258 238.77 53.6258 239.4ZM52.5158 239.4C52.5158 238.867 52.4724 238.423 52.3858 238.07C52.3024 237.713 52.1908 237.428 52.0508 237.215C51.9108 237.002 51.7491 236.85 51.5658 236.76C51.3824 236.67 51.1924 236.625 50.9958 236.625C50.7958 236.625 50.6041 236.67 50.4208 236.76C50.2408 236.85 50.0808 237.002 49.9408 237.215C49.8008 237.428 49.6891 237.713 49.6058 238.07C49.5224 238.423 49.4808 238.867 49.4808 239.4C49.4808 239.933 49.5224 240.378 49.6058 240.735C49.6891 241.088 49.8008 241.372 49.9408 241.585C50.0808 241.798 50.2408 241.95 50.4208 242.04C50.6041 242.13 50.7958 242.175 50.9958 242.175C51.1924 242.175 51.3824 242.13 51.5658 242.04C51.7491 241.95 51.9108 241.798 52.0508 241.585C52.1908 241.372 52.3024 241.088 52.3858 240.735C52.4724 240.378 52.5158 239.933 52.5158 239.4ZM57.8716 237.54C57.8716 237.817 57.8266 238.065 57.7366 238.285C57.6499 238.505 57.5316 238.693 57.3816 238.85C57.2316 239.003 57.0582 239.122 56.8616 239.205C56.6649 239.285 56.4582 239.325 56.2416 239.325C56.0082 239.325 55.7916 239.285 55.5916 239.205C55.3949 239.122 55.2232 239.003 55.0766 238.85C54.9332 238.693 54.8199 238.505 54.7366 238.285C54.6532 238.065 54.6116 237.817 54.6116 237.54C54.6116 237.257 54.6532 237.003 54.7366 236.78C54.8199 236.553 54.9332 236.363 55.0766 236.21C55.2232 236.053 55.3949 235.933 55.5916 235.85C55.7916 235.767 56.0082 235.725 56.2416 235.725C56.4749 235.725 56.6899 235.767 56.8866 235.85C57.0866 235.933 57.2582 236.053 57.4016 236.21C57.5482 236.363 57.6632 236.553 57.7466 236.78C57.8299 237.003 57.8716 237.257 57.8716 237.54ZM57.0416 237.54C57.0416 237.337 57.0199 237.165 56.9766 237.025C56.9366 236.882 56.8799 236.767 56.8066 236.68C56.7366 236.59 56.6516 236.527 56.5516 236.49C56.4549 236.45 56.3516 236.43 56.2416 236.43C56.1282 236.43 56.0232 236.45 55.9266 236.49C55.8299 236.527 55.7466 236.59 55.6766 236.68C55.6066 236.767 55.5516 236.882 55.5116 237.025C55.4716 237.165 55.4516 237.337 55.4516 237.54C55.4516 237.74 55.4716 237.908 55.5116 238.045C55.5516 238.182 55.6066 238.293 55.6766 238.38C55.7466 238.463 55.8299 238.523 55.9266 238.56C56.0232 238.597 56.1282 238.615 56.2416 238.615C56.3516 238.615 56.4549 238.597 56.5516 238.56C56.6516 238.523 56.7366 238.463 56.8066 238.38C56.8799 238.293 56.9366 238.182 56.9766 238.045C57.0199 237.908 57.0416 237.74 57.0416 237.54ZM60.3416 235.975C60.3782 235.928 60.4216 235.888 60.4716 235.855C60.5249 235.818 60.5982 235.8 60.6916 235.8H61.4666L56.1616 242.835C56.1249 242.882 56.0799 242.922 56.0266 242.955C55.9732 242.985 55.9082 243 55.8316 243H55.0316L60.3416 235.975ZM61.9016 241.305C61.9016 241.582 61.8566 241.83 61.7666 242.05C61.6766 242.27 61.5566 242.457 61.4066 242.61C61.2566 242.763 61.0832 242.882 60.8866 242.965C60.6899 243.045 60.4832 243.085 60.2666 243.085C60.0332 243.085 59.8166 243.045 59.6166 242.965C59.4199 242.882 59.2482 242.763 59.1016 242.61C58.9582 242.457 58.8449 242.27 58.7616 242.05C58.6816 241.83 58.6416 241.582 58.6416 241.305C58.6416 241.022 58.6816 240.768 58.7616 240.545C58.8449 240.318 58.9582 240.127 59.1016 239.97C59.2482 239.813 59.4199 239.695 59.6166 239.615C59.8166 239.532 60.0332 239.49 60.2666 239.49C60.4999 239.49 60.7166 239.532 60.9166 239.615C61.1166 239.695 61.2882 239.813 61.4316 239.97C61.5782 240.127 61.6932 240.318 61.7766 240.545C61.8599 240.768 61.9016 241.022 61.9016 241.305ZM61.0716 241.305C61.0716 241.102 61.0499 240.93 61.0066 240.79C60.9666 240.647 60.9099 240.532 60.8366 240.445C60.7632 240.355 60.6766 240.292 60.5766 240.255C60.4799 240.215 60.3766 240.195 60.2666 240.195C60.1566 240.195 60.0532 240.215 59.9566 240.255C59.8599 240.292 59.7749 240.355 59.7016 240.445C59.6316 240.532 59.5766 240.647 59.5366 240.79C59.4966 240.93 59.4766 241.102 59.4766 241.305C59.4766 241.505 59.4966 241.673 59.5366 241.81C59.5766 241.947 59.6316 242.058 59.7016 242.145C59.7749 242.228 59.8599 242.288 59.9566 242.325C60.0532 242.362 60.1566 242.38 60.2666 242.38C60.3766 242.38 60.4799 242.362 60.5766 242.325C60.6766 242.288 60.7632 242.228 60.8366 242.145C60.9099 242.058 60.9666 241.947 61.0066 241.81C61.0499 241.673 61.0716 241.505 61.0716 241.305Z" fill="#D2D2D2"/>
<path d="M41.135 222.185V223H37.21V222.185H38.71V217.675C38.71 217.515 38.715 217.352 38.725 217.185L37.57 218.16C37.52 218.2 37.4683 218.227 37.415 218.24C37.365 218.25 37.3167 218.25 37.27 218.24C37.2267 218.23 37.1867 218.215 37.15 218.195C37.1167 218.172 37.09 218.147 37.07 218.12L36.735 217.65L38.905 215.785H39.78V222.185H41.135ZM47.6258 219.4C47.6258 220.03 47.5574 220.575 47.4208 221.035C47.2874 221.495 47.1024 221.877 46.8658 222.18C46.6291 222.483 46.3508 222.708 46.0308 222.855C45.7108 223.002 45.3658 223.075 44.9958 223.075C44.6258 223.075 44.2808 223.002 43.9608 222.855C43.6408 222.708 43.3624 222.483 43.1258 222.18C42.8924 221.877 42.7091 221.495 42.5758 221.035C42.4424 220.575 42.3758 220.03 42.3758 219.4C42.3758 218.77 42.4424 218.225 42.5758 217.765C42.7091 217.302 42.8924 216.92 43.1258 216.62C43.3624 216.317 43.6408 216.092 43.9608 215.945C44.2808 215.795 44.6258 215.72 44.9958 215.72C45.3658 215.72 45.7108 215.795 46.0308 215.945C46.3508 216.092 46.6291 216.317 46.8658 216.62C47.1024 216.92 47.2874 217.302 47.4208 217.765C47.5574 218.225 47.6258 218.77 47.6258 219.4ZM46.5158 219.4C46.5158 218.867 46.4724 218.423 46.3858 218.07C46.3024 217.713 46.1908 217.428 46.0508 217.215C45.9108 217.002 45.7491 216.85 45.5658 216.76C45.3824 216.67 45.1924 216.625 44.9958 216.625C44.7958 216.625 44.6041 216.67 44.4208 216.76C44.2408 216.85 44.0808 217.002 43.9408 217.215C43.8008 217.428 43.6891 217.713 43.6058 218.07C43.5224 218.423 43.4808 218.867 43.4808 219.4C43.4808 219.933 43.5224 220.378 43.6058 220.735C43.6891 221.088 43.8008 221.372 43.9408 221.585C44.0808 221.798 44.2408 221.95 44.4208 222.04C44.6041 222.13 44.7958 222.175 44.9958 222.175C45.1924 222.175 45.3824 222.13 45.5658 222.04C45.7491 221.95 45.9108 221.798 46.0508 221.585C46.1908 221.372 46.3024 221.088 46.3858 220.735C46.4724 220.378 46.5158 219.933 46.5158 219.4ZM53.7266 219.4C53.7266 220.03 53.6582 220.575 53.5216 221.035C53.3882 221.495 53.2032 221.877 52.9666 222.18C52.7299 222.483 52.4516 222.708 52.1316 222.855C51.8116 223.002 51.4666 223.075 51.0966 223.075C50.7266 223.075 50.3816 223.002 50.0616 222.855C49.7416 222.708 49.4632 222.483 49.2266 222.18C48.9932 221.877 48.8099 221.495 48.6766 221.035C48.5432 220.575 48.4766 220.03 48.4766 219.4C48.4766 218.77 48.5432 218.225 48.6766 217.765C48.8099 217.302 48.9932 216.92 49.2266 216.62C49.4632 216.317 49.7416 216.092 50.0616 215.945C50.3816 215.795 50.7266 215.72 51.0966 215.72C51.4666 215.72 51.8116 215.795 52.1316 215.945C52.4516 216.092 52.7299 216.317 52.9666 216.62C53.2032 216.92 53.3882 217.302 53.5216 217.765C53.6582 218.225 53.7266 218.77 53.7266 219.4ZM52.6166 219.4C52.6166 218.867 52.5732 218.423 52.4866 218.07C52.4032 217.713 52.2916 217.428 52.1516 217.215C52.0116 217.002 51.8499 216.85 51.6666 216.76C51.4832 216.67 51.2932 216.625 51.0966 216.625C50.8966 216.625 50.7049 216.67 50.5216 216.76C50.3416 216.85 50.1816 217.002 50.0416 217.215C49.9016 217.428 49.7899 217.713 49.7066 218.07C49.6232 218.423 49.5816 218.867 49.5816 219.4C49.5816 219.933 49.6232 220.378 49.7066 220.735C49.7899 221.088 49.9016 221.372 50.0416 221.585C50.1816 221.798 50.3416 221.95 50.5216 222.04C50.7049 222.13 50.8966 222.175 51.0966 222.175C51.2932 222.175 51.4832 222.13 51.6666 222.04C51.8499 221.95 52.0116 221.798 52.1516 221.585C52.2916 221.372 52.4032 221.088 52.4866 220.735C52.5732 220.378 52.6166 219.933 52.6166 219.4ZM57.9723 217.54C57.9723 217.817 57.9273 218.065 57.8373 218.285C57.7507 218.505 57.6323 218.693 57.4823 218.85C57.3323 219.003 57.159 219.122 56.9623 219.205C56.7657 219.285 56.559 219.325 56.3423 219.325C56.109 219.325 55.8923 219.285 55.6923 219.205C55.4957 219.122 55.324 219.003 55.1773 218.85C55.034 218.693 54.9207 218.505 54.8373 218.285C54.754 218.065 54.7123 217.817 54.7123 217.54C54.7123 217.257 54.754 217.003 54.8373 216.78C54.9207 216.553 55.034 216.363 55.1773 216.21C55.324 216.053 55.4957 215.933 55.6923 215.85C55.8923 215.767 56.109 215.725 56.3423 215.725C56.5757 215.725 56.7907 215.767 56.9873 215.85C57.1873 215.933 57.359 216.053 57.5023 216.21C57.649 216.363 57.764 216.553 57.8473 216.78C57.9307 217.003 57.9723 217.257 57.9723 217.54ZM57.1423 217.54C57.1423 217.337 57.1207 217.165 57.0773 217.025C57.0373 216.882 56.9807 216.767 56.9073 216.68C56.8373 216.59 56.7523 216.527 56.6523 216.49C56.5557 216.45 56.4523 216.43 56.3423 216.43C56.229 216.43 56.124 216.45 56.0273 216.49C55.9307 216.527 55.8473 216.59 55.7773 216.68C55.7073 216.767 55.6523 216.882 55.6123 217.025C55.5723 217.165 55.5523 217.337 55.5523 217.54C55.5523 217.74 55.5723 217.908 55.6123 218.045C55.6523 218.182 55.7073 218.293 55.7773 218.38C55.8473 218.463 55.9307 218.523 56.0273 218.56C56.124 218.597 56.229 218.615 56.3423 218.615C56.4523 218.615 56.5557 218.597 56.6523 218.56C56.7523 218.523 56.8373 218.463 56.9073 218.38C56.9807 218.293 57.0373 218.182 57.0773 218.045C57.1207 217.908 57.1423 217.74 57.1423 217.54ZM60.4423 215.975C60.479 215.928 60.5223 215.888 60.5723 215.855C60.6257 215.818 60.699 215.8 60.7923 215.8H61.5673L56.2623 222.835C56.2257 222.882 56.1807 222.922 56.1273 222.955C56.074 222.985 56.009 223 55.9323 223H55.1323L60.4423 215.975ZM62.0023 221.305C62.0023 221.582 61.9573 221.83 61.8673 222.05C61.7773 222.27 61.6573 222.457 61.5073 222.61C61.3573 222.763 61.184 222.882 60.9873 222.965C60.7907 223.045 60.584 223.085 60.3673 223.085C60.134 223.085 59.9173 223.045 59.7173 222.965C59.5207 222.882 59.349 222.763 59.2023 222.61C59.059 222.457 58.9457 222.27 58.8623 222.05C58.7823 221.83 58.7423 221.582 58.7423 221.305C58.7423 221.022 58.7823 220.768 58.8623 220.545C58.9457 220.318 59.059 220.127 59.2023 219.97C59.349 219.813 59.5207 219.695 59.7173 219.615C59.9173 219.532 60.134 219.49 60.3673 219.49C60.6007 219.49 60.8173 219.532 61.0173 219.615C61.2173 219.695 61.389 219.813 61.5323 219.97C61.679 220.127 61.794 220.318 61.8773 220.545C61.9607 220.768 62.0023 221.022 62.0023 221.305ZM61.1723 221.305C61.1723 221.102 61.1507 220.93 61.1073 220.79C61.0673 220.647 61.0107 220.532 60.9373 220.445C60.864 220.355 60.7773 220.292 60.6773 220.255C60.5807 220.215 60.4773 220.195 60.3673 220.195C60.2573 220.195 60.154 220.215 60.0573 220.255C59.9607 220.292 59.8757 220.355 59.8023 220.445C59.7323 220.532 59.6773 220.647 59.6373 220.79C59.5973 220.93 59.5773 221.102 59.5773 221.305C59.5773 221.505 59.5973 221.673 59.6373 221.81C59.6773 221.947 59.7323 222.058 59.8023 222.145C59.8757 222.228 59.9607 222.288 60.0573 222.325C60.154 222.362 60.2573 222.38 60.3673 222.38C60.4773 222.38 60.5807 222.362 60.6773 222.325C60.7773 222.288 60.864 222.228 60.9373 222.145C61.0107 222.058 61.0673 221.947 61.1073 221.81C61.1507 221.673 61.1723 221.505 61.1723 221.305Z" fill="#D2D2D2"/>
<line x1="71" y1="218.5" x2="279" y2="218.5" stroke="#D2D2D2" stroke-dasharray="2 2"/>
<line x1="71" y1="238.5" x2="279" y2="238.5" stroke="#D2D2D2" stroke-dasharray="2 2"/>
<line x1="71" y1="258.5" x2="279" y2="258.5" stroke="#D2D2D2" stroke-dasharray="2 2"/>
<g filter="url(#filter1_f_320_2489)">
<path d="M80 226L96.8586 229.148L109.503 239.148L123.296 232.481L138.239 237.481L155.672 221L191.305 241L224.256 226L246.67 232.481L256.057 221H271" stroke="#4AC6CD"/>
</g>
<g filter="url(#filter2_f_320_2489)">
<path d="M71 256L85.5553 252.671L98.702 240.305L114.196 232.713L140.49 245.061H163.027L186.79 224.61L221.718 217L249.889 224.61L264.445 235.883L279 232.713" stroke="#F7E36D"/>
</g>
<g filter="url(#filter3_f_320_2489)">
<path d="M75 251.441L90.4378 248.706L106.978 256L123.519 245.971H141.162L159.908 229.559L175.346 233.206L194.092 244.147H227.173L247.022 233.206H263.562L279 225" stroke="#FF5EE5"/>
</g>
<rect x="24.5" y="182.5" width="266" height="94" rx="4.5" stroke="#D2D2D2"/>
<rect x="8.5" y="95.5" width="298" height="191" rx="13.5" stroke="#D2D2D2"/>
</g>
<g filter="url(#filter4_d_320_2489)">
<g clip-path="url(#clip0_320_2489)">
<rect x="75" y="6" width="256" height="68" rx="11" fill="white"/>
<path d="M118.156 36.5V42.1875C118.156 42.3615 118.087 42.5285 117.964 42.6515C117.841 42.7746 117.674 42.8437 117.5 42.8437C117.326 42.8437 117.159 42.7746 117.036 42.6515C116.913 42.5285 116.844 42.3615 116.844 42.1875V38.0859L110.964 43.9643C110.841 44.0876 110.674 44.1568 110.499 44.1568C110.325 44.1568 110.158 44.0876 110.035 43.9643C109.911 43.841 109.842 43.6738 109.842 43.4995C109.842 43.3251 109.911 43.1579 110.035 43.0346L115.914 37.1562H111.812C111.638 37.1562 111.472 37.0871 111.348 36.964C111.225 36.841 111.156 36.674 111.156 36.5C111.156 36.326 111.225 36.159 111.348 36.036C111.472 35.9129 111.638 35.8438 111.812 35.8438H117.5C117.674 35.8438 117.841 35.9129 117.964 36.036C118.087 36.159 118.156 36.326 118.156 36.5Z" fill="black"/>
<g filter="url(#filter5_d_320_2489)">
<path d="M132 40C132 49.9411 123.941 58 114 58C104.059 58 96 49.9411 96 40C96 30.0589 104.059 22 114 22C123.941 22 132 30.0589 132 40ZM100.733 40C100.733 47.3274 106.673 53.2674 114 53.2674C121.327 53.2674 127.267 47.3274 127.267 40C127.267 32.6726 121.327 26.7326 114 26.7326C106.673 26.7326 100.733 32.6726 100.733 40Z" fill="white"/>
</g>
<path d="M129.634 40C130.941 40 132.016 41.0639 131.845 42.3595C131.562 44.4968 130.897 46.5725 129.875 48.4851C128.479 51.0957 126.462 53.3219 124 54.9665C121.539 56.611 118.71 57.6232 115.764 57.9133C112.818 58.2035 109.846 57.7626 107.112 56.6298C104.377 55.497 101.964 53.7073 100.086 51.4191C98.2079 49.1309 96.9234 46.4149 96.3459 43.5116C95.7684 40.6084 95.9158 37.6075 96.7751 34.7749C97.4046 32.6996 98.402 30.7615 99.7135 29.0503C100.508 28.0131 102.021 28.0212 102.945 28.9453C103.869 29.8694 103.848 31.3584 103.103 32.4318C102.316 33.5653 101.707 34.8188 101.304 36.1487C100.671 38.2366 100.562 40.4484 100.988 42.5883C101.413 44.7283 102.36 46.7302 103.744 48.4167C105.128 50.1033 106.907 51.4225 108.923 52.2575C110.939 53.0924 113.129 53.4174 115.3 53.2035C117.472 52.9896 119.557 52.2436 121.371 51.0314C123.185 49.8193 124.672 48.1784 125.701 46.2542C126.356 45.0285 126.812 43.712 127.057 42.3538C127.289 41.0677 128.327 40 129.634 40Z" fill="#E7AA07"/>
<path d="M151.06 30.515C151.33 30.515 151.567 30.48 151.77 30.41C151.977 30.34 152.148 30.2417 152.285 30.115C152.425 29.985 152.53 29.8317 152.6 29.655C152.67 29.475 152.705 29.2767 152.705 29.06C152.705 28.6233 152.568 28.28 152.295 28.03C152.025 27.78 151.613 27.655 151.06 27.655H149.95V30.515H151.06ZM151.06 26.82C151.52 26.82 151.92 26.8733 152.26 26.98C152.6 27.0867 152.882 27.2383 153.105 27.435C153.328 27.6283 153.493 27.8633 153.6 28.14C153.71 28.4167 153.765 28.7233 153.765 29.06C153.765 29.3967 153.707 29.7067 153.59 29.99C153.473 30.27 153.302 30.5117 153.075 30.715C152.848 30.9183 152.565 31.0767 152.225 31.19C151.888 31.3 151.5 31.355 151.06 31.355H149.95V34H148.885V26.82H151.06ZM157.413 31.745C157.017 31.7583 156.68 31.79 156.403 31.84C156.127 31.8867 155.902 31.95 155.728 32.03C155.555 32.11 155.43 32.205 155.353 32.315C155.277 32.4217 155.238 32.5417 155.238 32.675C155.238 32.8017 155.258 32.9117 155.298 33.005C155.342 33.095 155.398 33.17 155.468 33.23C155.542 33.2867 155.627 33.3283 155.723 33.355C155.82 33.3817 155.925 33.395 156.038 33.395C156.188 33.395 156.325 33.38 156.448 33.35C156.575 33.32 156.693 33.2783 156.803 33.225C156.913 33.1683 157.018 33.1 157.118 33.02C157.218 32.94 157.317 32.8483 157.413 32.745V31.745ZM154.553 29.63C154.837 29.36 155.143 29.1583 155.473 29.025C155.807 28.8917 156.172 28.825 156.568 28.825C156.858 28.825 157.115 28.8733 157.338 28.97C157.562 29.0633 157.75 29.195 157.903 29.365C158.057 29.535 158.172 29.7383 158.248 29.975C158.328 30.2117 158.368 30.4733 158.368 30.76V34H157.933C157.837 34 157.763 33.985 157.713 33.955C157.663 33.9217 157.623 33.8617 157.593 33.775L157.488 33.33C157.358 33.45 157.23 33.5567 157.103 33.65C156.977 33.74 156.843 33.8183 156.703 33.885C156.567 33.9483 156.42 33.9967 156.263 34.03C156.107 34.0633 155.933 34.08 155.743 34.08C155.543 34.08 155.355 34.0533 155.178 34C155.005 33.9433 154.853 33.8583 154.723 33.745C154.593 33.6317 154.49 33.49 154.413 33.32C154.34 33.15 154.303 32.9517 154.303 32.725C154.303 32.525 154.357 32.3333 154.463 32.15C154.573 31.9633 154.75 31.7967 154.993 31.65C155.24 31.5033 155.56 31.3833 155.953 31.29C156.35 31.1967 156.837 31.1433 157.413 31.13V30.76C157.413 30.3767 157.332 30.09 157.168 29.9C157.005 29.71 156.765 29.615 156.448 29.615C156.235 29.615 156.055 29.6417 155.908 29.695C155.765 29.7483 155.64 29.8083 155.533 29.875C155.43 29.9383 155.338 29.9967 155.258 30.05C155.182 30.1033 155.102 30.13 155.018 30.13C154.952 30.13 154.893 30.1117 154.843 30.075C154.797 30.0383 154.758 29.995 154.728 29.945L154.553 29.63ZM164.087 28.92L161.267 35.475C161.237 35.5483 161.197 35.605 161.147 35.645C161.097 35.685 161.023 35.705 160.927 35.705H160.202L161.132 33.68L159.047 28.92H159.897C159.98 28.92 160.045 28.94 160.092 28.98C160.138 29.02 160.172 29.065 160.192 29.115L161.482 32.165C161.508 32.2417 161.533 32.32 161.557 32.4C161.583 32.4767 161.605 32.5533 161.622 32.63C161.645 32.55 161.67 32.4717 161.697 32.395C161.723 32.315 161.752 32.2367 161.782 32.16L163.027 29.115C163.05 29.0583 163.087 29.0117 163.137 28.975C163.187 28.9383 163.243 28.92 163.307 28.92H164.087ZM164.932 34V28.92H165.517C165.654 28.92 165.739 28.985 165.772 29.115L165.842 29.6C166.029 29.3767 166.236 29.195 166.462 29.055C166.692 28.9117 166.961 28.84 167.267 28.84C167.604 28.84 167.877 28.9333 168.087 29.12C168.297 29.3033 168.451 29.5533 168.547 29.87C168.621 29.69 168.716 29.535 168.832 29.405C168.949 29.275 169.079 29.1683 169.222 29.085C169.366 29.0017 169.517 28.94 169.677 28.9C169.841 28.86 170.006 28.84 170.172 28.84C170.442 28.84 170.682 28.8833 170.892 28.97C171.106 29.0533 171.286 29.1767 171.432 29.34C171.579 29.5033 171.691 29.705 171.767 29.945C171.844 30.185 171.882 30.4583 171.882 30.765V34H170.902V30.765C170.902 30.385 170.819 30.0983 170.652 29.905C170.489 29.7117 170.249 29.615 169.932 29.615C169.792 29.615 169.659 29.64 169.532 29.69C169.406 29.7367 169.294 29.8083 169.197 29.905C169.104 30.0017 169.029 30.1217 168.972 30.265C168.919 30.4083 168.892 30.575 168.892 30.765V34H167.912V30.765C167.912 30.3717 167.834 30.0817 167.677 29.895C167.521 29.7083 167.291 29.615 166.987 29.615C166.777 29.615 166.582 29.67 166.402 29.78C166.222 29.89 166.057 30.04 165.907 30.23V34H164.932ZM176.659 30.895C176.659 30.7017 176.631 30.5233 176.574 30.36C176.521 30.1967 176.441 30.055 176.334 29.935C176.227 29.815 176.097 29.7217 175.944 29.655C175.791 29.5883 175.614 29.555 175.414 29.555C175.004 29.555 174.681 29.6733 174.444 29.91C174.211 30.1467 174.062 30.475 173.999 30.895H176.659ZM177.464 33.275C177.344 33.415 177.206 33.5367 177.049 33.64C176.892 33.74 176.726 33.8217 176.549 33.885C176.372 33.9483 176.189 33.995 175.999 34.025C175.812 34.055 175.627 34.07 175.444 34.07C175.094 34.07 174.769 34.0117 174.469 33.895C174.172 33.775 173.914 33.6017 173.694 33.375C173.477 33.145 173.307 32.8617 173.184 32.525C173.064 32.185 173.004 31.795 173.004 31.355C173.004 31.0017 173.059 30.6733 173.169 30.37C173.279 30.0633 173.436 29.7967 173.639 29.57C173.846 29.3433 174.097 29.165 174.394 29.035C174.691 28.905 175.024 28.84 175.394 28.84C175.704 28.84 175.989 28.8917 176.249 28.995C176.512 29.095 176.739 29.2417 176.929 29.435C177.119 29.6283 177.267 29.8667 177.374 30.15C177.484 30.4333 177.539 30.7567 177.539 31.12C177.539 31.27 177.522 31.3717 177.489 31.425C177.456 31.475 177.394 31.5 177.304 31.5H173.974C173.984 31.8033 174.027 32.0683 174.104 32.295C174.181 32.5183 174.286 32.705 174.419 32.855C174.556 33.005 174.717 33.1167 174.904 33.19C175.091 33.2633 175.299 33.3 175.529 33.3C175.746 33.3 175.932 33.275 176.089 33.225C176.249 33.175 176.386 33.1217 176.499 33.065C176.616 33.005 176.712 32.95 176.789 32.9C176.869 32.85 176.939 32.825 176.999 32.825C177.079 32.825 177.141 32.855 177.184 32.915L177.464 33.275ZM179.602 29.625C179.712 29.5083 179.827 29.4017 179.947 29.305C180.067 29.2083 180.194 29.1267 180.327 29.06C180.464 28.99 180.609 28.9367 180.762 28.9C180.919 28.86 181.085 28.84 181.262 28.84C181.542 28.84 181.787 28.8867 181.997 28.98C182.21 29.0733 182.389 29.205 182.532 29.375C182.675 29.5417 182.784 29.7433 182.857 29.98C182.93 30.2167 182.967 30.4783 182.967 30.765V34H181.987V30.765C181.987 30.4017 181.904 30.12 181.737 29.92C181.57 29.7167 181.315 29.615 180.972 29.615C180.722 29.615 180.487 29.675 180.267 29.795C180.05 29.9117 179.849 30.0717 179.662 30.275V34H178.687V28.92H179.272C179.409 28.92 179.494 28.985 179.527 29.115L179.602 29.625ZM185.904 34.08C185.494 34.08 185.178 33.965 184.954 33.735C184.734 33.505 184.624 33.1767 184.624 32.75V29.71H184.034C183.978 29.71 183.929 29.6933 183.889 29.66C183.853 29.6233 183.834 29.57 183.834 29.5V29.105L184.659 28.99L184.879 27.475C184.893 27.4183 184.918 27.375 184.954 27.345C184.994 27.3117 185.044 27.295 185.104 27.295H185.599V29H187.039V29.71H185.599V32.685C185.599 32.885 185.648 33.035 185.744 33.135C185.844 33.2317 185.971 33.28 186.124 33.28C186.214 33.28 186.291 33.2683 186.354 33.245C186.421 33.2217 186.478 33.1967 186.524 33.17C186.571 33.14 186.611 33.1133 186.644 33.09C186.678 33.0667 186.708 33.055 186.734 33.055C186.768 33.055 186.793 33.0633 186.809 33.08C186.829 33.0933 186.849 33.1167 186.869 33.15L187.159 33.62C186.999 33.7667 186.809 33.88 186.589 33.96C186.369 34.04 186.141 34.08 185.904 34.08ZM191.032 29.795C191.006 29.8383 190.977 29.87 190.947 29.89C190.917 29.9067 190.879 29.915 190.832 29.915C190.779 29.915 190.719 29.8967 190.652 29.86C190.589 29.8233 190.511 29.7833 190.417 29.74C190.327 29.6967 190.221 29.6567 190.097 29.62C189.974 29.5833 189.827 29.565 189.657 29.565C189.517 29.565 189.389 29.5833 189.272 29.62C189.159 29.6533 189.062 29.7017 188.982 29.765C188.902 29.825 188.841 29.8983 188.797 29.985C188.754 30.0683 188.732 30.1583 188.732 30.255C188.732 30.3817 188.769 30.4867 188.842 30.57C188.919 30.6533 189.017 30.725 189.137 30.785C189.261 30.845 189.399 30.9 189.552 30.95C189.709 30.9967 189.867 31.0467 190.027 31.1C190.191 31.1533 190.349 31.215 190.502 31.285C190.659 31.3517 190.797 31.4367 190.917 31.54C191.041 31.64 191.139 31.7617 191.212 31.905C191.289 32.0483 191.327 32.2233 191.327 32.43C191.327 32.6667 191.284 32.8867 191.197 33.09C191.114 33.29 190.989 33.4633 190.822 33.61C190.659 33.7567 190.456 33.8717 190.212 33.955C189.969 34.0383 189.691 34.08 189.377 34.08C189.027 34.08 188.704 34.0217 188.407 33.905C188.111 33.7883 187.862 33.64 187.662 33.46L187.892 33.085C187.919 33.0383 187.952 33.0033 187.992 32.98C188.032 32.9533 188.086 32.94 188.152 32.94C188.216 32.94 188.281 32.9633 188.347 33.01C188.414 33.0567 188.494 33.1083 188.587 33.165C188.681 33.2183 188.794 33.2683 188.927 33.315C189.061 33.3583 189.227 33.38 189.427 33.38C189.594 33.38 189.739 33.36 189.862 33.32C189.986 33.2767 190.087 33.22 190.167 33.15C190.251 33.0767 190.312 32.9933 190.352 32.9C190.392 32.8067 190.412 32.7083 190.412 32.605C190.412 32.4717 190.374 32.3617 190.297 32.275C190.224 32.185 190.126 32.1083 190.002 32.045C189.882 31.9817 189.744 31.9267 189.587 31.88C189.431 31.8333 189.271 31.7833 189.107 31.73C188.944 31.6767 188.784 31.615 188.627 31.545C188.471 31.475 188.331 31.3867 188.207 31.28C188.087 31.1733 187.989 31.0433 187.912 30.89C187.839 30.7367 187.802 30.55 187.802 30.33C187.802 30.1333 187.842 29.945 187.922 29.765C188.006 29.585 188.124 29.4267 188.277 29.29C188.434 29.1533 188.626 29.045 188.852 28.965C189.082 28.8817 189.344 28.84 189.637 28.84C189.974 28.84 190.277 28.8933 190.547 29C190.821 29.1067 191.054 29.2533 191.247 29.44L191.032 29.795Z" fill="#D2D2D2"/>
<path d="M152.732 53.168C152.079 53.168 151.472 53.0467 150.912 52.804C150.352 52.552 149.876 52.2113 149.484 51.782C149.092 51.3527 148.803 50.858 148.616 50.298L150.016 49.71C150.268 50.354 150.637 50.8487 151.122 51.194C151.607 51.5393 152.167 51.712 152.802 51.712C153.175 51.712 153.502 51.656 153.782 51.544C154.062 51.4227 154.277 51.2547 154.426 51.04C154.585 50.8253 154.664 50.578 154.664 50.298C154.664 49.9153 154.557 49.612 154.342 49.388C154.127 49.164 153.81 48.9867 153.39 48.856L151.43 48.24C150.646 47.9973 150.049 47.6287 149.638 47.134C149.227 46.63 149.022 46.042 149.022 45.37C149.022 44.782 149.167 44.2687 149.456 43.83C149.745 43.382 150.142 43.032 150.646 42.78C151.159 42.528 151.743 42.402 152.396 42.402C153.021 42.402 153.591 42.514 154.104 42.738C154.617 42.9527 155.056 43.2513 155.42 43.634C155.793 44.0167 156.064 44.46 156.232 44.964L154.86 45.566C154.655 45.0153 154.333 44.5907 153.894 44.292C153.465 43.9933 152.965 43.844 152.396 43.844C152.051 43.844 151.747 43.9047 151.486 44.026C151.225 44.138 151.019 44.306 150.87 44.53C150.73 44.7447 150.66 44.9967 150.66 45.286C150.66 45.622 150.767 45.9207 150.982 46.182C151.197 46.4433 151.523 46.6393 151.962 46.77L153.782 47.344C154.613 47.596 155.238 47.96 155.658 48.436C156.078 48.9027 156.288 49.486 156.288 50.186C156.288 50.7647 156.134 51.278 155.826 51.726C155.527 52.174 155.112 52.5287 154.58 52.79C154.048 53.042 153.432 53.168 152.732 53.168ZM152.088 54.4V41.17H153.208V54.4H152.088ZM162.44 53V50.648H157.47V49.276L162.37 42.57H164.008V49.276H165.45V50.648H164.008V53H162.44ZM158.688 49.878L158.422 49.276H162.44V43.886L162.888 44.026L158.688 49.878ZM170.049 53.168C169.368 53.168 168.761 53.0187 168.229 52.72C167.697 52.4213 167.277 52.0107 166.969 51.488C166.671 50.9653 166.521 50.3727 166.521 49.71C166.521 49.3647 166.559 49.0193 166.633 48.674C166.708 48.3287 166.839 47.9693 167.025 47.596C167.221 47.2227 167.483 46.8213 167.809 46.392L170.721 42.57H172.695L169.125 47.19L168.845 47.008C168.976 46.8587 169.116 46.742 169.265 46.658C169.424 46.574 169.587 46.5133 169.755 46.476C169.933 46.4387 170.119 46.42 170.315 46.42C170.941 46.42 171.501 46.5647 171.995 46.854C172.49 47.1433 172.877 47.5353 173.157 48.03C173.447 48.5247 173.591 49.094 173.591 49.738C173.591 50.3913 173.437 50.9793 173.129 51.502C172.821 52.0153 172.401 52.4213 171.869 52.72C171.347 53.0187 170.74 53.168 170.049 53.168ZM170.049 51.698C170.413 51.698 170.735 51.614 171.015 51.446C171.295 51.278 171.519 51.0493 171.687 50.76C171.855 50.4613 171.939 50.1253 171.939 49.752C171.939 49.3693 171.855 49.0333 171.687 48.744C171.529 48.4547 171.305 48.2307 171.015 48.072C170.735 47.904 170.413 47.82 170.049 47.82C169.695 47.82 169.373 47.904 169.083 48.072C168.803 48.2307 168.579 48.4547 168.411 48.744C168.243 49.0333 168.159 49.3693 168.159 49.752C168.159 50.1253 168.243 50.4613 168.411 50.76C168.579 51.0493 168.803 51.278 169.083 51.446C169.373 51.614 169.695 51.698 170.049 51.698ZM179.129 53.168C178.299 53.168 177.571 52.944 176.945 52.496C176.32 52.0387 175.83 51.4087 175.475 50.606C175.13 49.794 174.957 48.8513 174.957 47.778C174.957 46.6953 175.13 45.7527 175.475 44.95C175.83 44.1473 176.315 43.522 176.931 43.074C177.557 42.626 178.285 42.402 179.115 42.402C179.946 42.402 180.669 42.626 181.285 43.074C181.911 43.522 182.396 44.152 182.741 44.964C183.096 45.7667 183.273 46.7047 183.273 47.778C183.273 48.8513 183.101 49.794 182.755 50.606C182.41 51.4087 181.925 52.0387 181.299 52.496C180.683 52.944 179.96 53.168 179.129 53.168ZM179.129 51.656C179.643 51.656 180.086 51.4973 180.459 51.18C180.833 50.8627 181.122 50.4147 181.327 49.836C181.533 49.2573 181.635 48.5713 181.635 47.778C181.635 46.9847 181.533 46.2987 181.327 45.72C181.122 45.1413 180.833 44.6933 180.459 44.376C180.086 44.0587 179.638 43.9 179.115 43.9C178.602 43.9 178.159 44.0587 177.785 44.376C177.412 44.6933 177.123 45.1413 176.917 45.72C176.712 46.2987 176.609 46.9847 176.609 47.778C176.609 48.562 176.712 49.248 176.917 49.836C177.123 50.4147 177.412 50.8627 177.785 51.18C178.168 51.4973 178.616 51.656 179.129 51.656ZM185.609 53V51.18H187.219V53H185.609ZM193.724 53.168C192.894 53.168 192.166 52.944 191.54 52.496C190.915 52.0387 190.425 51.4087 190.07 50.606C189.725 49.794 189.552 48.8513 189.552 47.778C189.552 46.6953 189.725 45.7527 190.07 44.95C190.425 44.1473 190.91 43.522 191.526 43.074C192.152 42.626 192.88 42.402 193.71 42.402C194.541 42.402 195.264 42.626 195.88 43.074C196.506 43.522 196.991 44.152 197.336 44.964C197.691 45.7667 197.868 46.7047 197.868 47.778C197.868 48.8513 197.696 49.794 197.35 50.606C197.005 51.4087 196.52 52.0387 195.894 52.496C195.278 52.944 194.555 53.168 193.724 53.168ZM193.724 51.656C194.238 51.656 194.681 51.4973 195.054 51.18C195.428 50.8627 195.717 50.4147 195.922 49.836C196.128 49.2573 196.23 48.5713 196.23 47.778C196.23 46.9847 196.128 46.2987 195.922 45.72C195.717 45.1413 195.428 44.6933 195.054 44.376C194.681 44.0587 194.233 43.9 193.71 43.9C193.197 43.9 192.754 44.0587 192.38 44.376C192.007 44.6933 191.718 45.1413 191.512 45.72C191.307 46.2987 191.204 46.9847 191.204 47.778C191.204 48.562 191.307 49.248 191.512 49.836C191.718 50.4147 192.007 50.8627 192.38 51.18C192.763 51.4973 193.211 51.656 193.724 51.656ZM203.606 53.168C202.775 53.168 202.047 52.944 201.422 52.496C200.797 52.0387 200.307 51.4087 199.952 50.606C199.607 49.794 199.434 48.8513 199.434 47.778C199.434 46.6953 199.607 45.7527 199.952 44.95C200.307 44.1473 200.792 43.522 201.408 43.074C202.033 42.626 202.761 42.402 203.592 42.402C204.423 42.402 205.146 42.626 205.762 43.074C206.387 43.522 206.873 44.152 207.218 44.964C207.573 45.7667 207.75 46.7047 207.75 47.778C207.75 48.8513 207.577 49.794 207.232 50.606C206.887 51.4087 206.401 52.0387 205.776 52.496C205.16 52.944 204.437 53.168 203.606 53.168ZM203.606 51.656C204.119 51.656 204.563 51.4973 204.936 51.18C205.309 50.8627 205.599 50.4147 205.804 49.836C206.009 49.2573 206.112 48.5713 206.112 47.778C206.112 46.9847 206.009 46.2987 205.804 45.72C205.599 45.1413 205.309 44.6933 204.936 44.376C204.563 44.0587 204.115 43.9 203.592 43.9C203.079 43.9 202.635 44.0587 202.262 44.376C201.889 44.6933 201.599 45.1413 201.394 45.72C201.189 46.2987 201.086 46.9847 201.086 47.778C201.086 48.562 201.189 49.248 201.394 49.836C201.599 50.4147 201.889 50.8627 202.262 51.18C202.645 51.4973 203.093 51.656 203.606 51.656Z" fill="#272343"/>
</g>
<rect x="75.25" y="6.25" width="255.5" height="67.5" rx="10.75" stroke="#D2D2D2" stroke-width="0.5"/>
</g>
<defs>
<filter id="filter0_d_320_2489" x="0" y="89" width="315" height="208" filterUnits="userSpaceOnUse" color-interpolation-filters="sRGB">
<feFlood flood-opacity="0" result="BackgroundImageFix"/>
<feColorMatrix in="SourceAlpha" type="matrix" values="0 0 0 0 0 0 0 0 0 0 0 0 0 0 0 0 0 0 127 0" result="hardAlpha"/>
<feOffset dy="2"/>
<feGaussianBlur stdDeviation="4"/>
<feComposite in2="hardAlpha" operator="out"/>
<feColorMatrix type="matrix" values="0 0 0 0 0.5925 0 0 0 0 0.5925 0 0 0 0 0.5925 0 0 0 0.25 0"/>
<feBlend mode="normal" in2="BackgroundImageFix" result="effect1_dropShadow_320_2489"/>
<feBlend mode="normal" in="SourceGraphic" in2="effect1_dropShadow_320_2489" result="shape"/>
</filter>
<filter id="filter1_f_320_2489" x="78.9082" y="219.384" width="193.092" height="23.1762" filterUnits="userSpaceOnUse" color-interpolation-filters="sRGB">
<feFlood flood-opacity="0" result="BackgroundImageFix"/>
<feBlend mode="normal" in="SourceGraphic" in2="BackgroundImageFix" result="shape"/>
<feGaussianBlur stdDeviation="0.5" result="effect1_foregroundBlur_320_2489"/>
</filter>
<filter id="filter2_f_320_2489" x="69.8885" y="215.486" width="210.218" height="42.0019" filterUnits="userSpaceOnUse" color-interpolation-filters="sRGB">
<feFlood flood-opacity="0" result="BackgroundImageFix"/>
<feBlend mode="normal" in="SourceGraphic" in2="BackgroundImageFix" result="shape"/>
<feGaussianBlur stdDeviation="0.5" result="effect1_foregroundBlur_320_2489"/>
</filter>
<filter id="filter3_f_320_2489" x="73.9128" y="223.559" width="206.322" height="34.0041" filterUnits="userSpaceOnUse" color-interpolation-filters="sRGB">
<feFlood flood-opacity="0" result="BackgroundImageFix"/>
<feBlend mode="normal" in="SourceGraphic" in2="BackgroundImageFix" result="shape"/>
<feGaussianBlur stdDeviation="0.5" result="effect1_foregroundBlur_320_2489"/>
</filter>
<filter id="filter4_d_320_2489" x="67" y="0" width="272" height="84" filterUnits="userSpaceOnUse" color-interpolation-filters="sRGB">
<feFlood flood-opacity="0" result="BackgroundImageFix"/>
<feColorMatrix in="SourceAlpha" type="matrix" values="0 0 0 0 0 0 0 0 0 0 0 0 0 0 0 0 0 0 127 0" result="hardAlpha"/>
<feOffset dy="2"/>
<feGaussianBlur stdDeviation="4"/>
<feComposite in2="hardAlpha" operator="out"/>
<feColorMatrix type="matrix" values="0 0 0 0 0.584167 0 0 0 0 0.584167 0 0 0 0 0.584167 0 0 0 0.25 0"/>
<feBlend mode="normal" in2="BackgroundImageFix" result="effect1_dropShadow_320_2489"/>
<feBlend mode="normal" in="SourceGraphic" in2="effect1_dropShadow_320_2489" result="shape"/>
</filter>
<filter id="filter5_d_320_2489" x="88" y="16" width="52" height="52" filterUnits="userSpaceOnUse" color-interpolation-filters="sRGB">
<feFlood flood-opacity="0" result="BackgroundImageFix"/>
<feColorMatrix in="SourceAlpha" type="matrix" values="0 0 0 0 0 0 0 0 0 0 0 0 0 0 0 0 0 0 127 0" result="hardAlpha"/>
<feOffset dy="2"/>
<feGaussianBlur stdDeviation="4"/>
<feComposite in2="hardAlpha" operator="out"/>
<feColorMatrix type="matrix" values="0 0 0 0 0.6425 0 0 0 0 0.6425 0 0 0 0 0.6425 0 0 0 0.25 0"/>
<feBlend mode="normal" in2="BackgroundImageFix" result="effect1_dropShadow_320_2489"/>
<feBlend mode="normal" in="SourceGraphic" in2="effect1_dropShadow_320_2489" result="shape"/>
</filter>
<clipPath id="clip0_320_2489">
<rect x="75" y="6" width="256" height="68" rx="11" fill="white"/>
</clipPath>
</defs>
</svg>
