<svg width="361" height="304" viewBox="0 0 361 304" fill="none" xmlns="http://www.w3.org/2000/svg">
<g filter="url(#filter0_d_320_2538)">
<rect x="8" y="6" width="345" height="288" rx="35" fill="white"/>
<g clip-path="url(#clip0_320_2538)">
<path d="M227.775 71.5237L58.2487 196.051L63.347 206.716L232.873 82.1895L227.775 71.5237Z" fill="#F2F2F2"/>
<path d="M264.621 81.9639L95.0948 206.491L100.193 217.157L269.72 92.6297L264.621 81.9639Z" fill="#F2F2F2"/>
<path d="M297.256 93.3828L127.73 217.91L132.828 228.575L302.355 104.049L297.256 93.3828Z" fill="#F2F2F2"/>
<path d="M168.67 217.499C197.984 217.499 221.747 188.042 221.747 151.704C221.747 115.366 197.984 85.9081 168.67 85.9081C139.357 85.9081 115.593 115.366 115.593 151.704C115.593 188.042 139.357 217.499 168.67 217.499Z" fill="white"/>
<path d="M115.199 151.704C115.199 115.154 139.186 85.4188 168.67 85.4188C198.154 85.4188 222.142 115.154 222.142 151.704C222.142 188.253 198.154 217.989 168.67 217.989C139.186 217.989 115.199 188.253 115.199 151.704ZM115.988 151.704C115.988 187.714 139.621 217.01 168.67 217.01C197.719 217.01 221.352 187.714 221.352 151.704C221.352 115.694 197.719 86.3975 168.67 86.3975C139.621 86.3975 115.988 115.694 115.988 151.704Z" fill="#3F3D56"/>
<path d="M159.209 151.99C159.209 149.67 159.764 147.402 160.803 145.474C161.843 143.545 163.32 142.042 165.049 141.154C166.778 140.266 168.681 140.034 170.516 140.486C172.351 140.939 174.037 142.056 175.36 143.696C176.684 145.337 177.585 147.426 177.95 149.702C178.315 151.977 178.128 154.335 177.411 156.478C176.695 158.621 175.483 160.453 173.927 161.742C172.371 163.031 170.541 163.719 168.67 163.719C166.161 163.719 163.754 162.483 161.98 160.283C160.205 158.084 159.209 155.1 159.209 151.99ZM168.67 140.833C166.284 140.836 163.996 142.013 162.309 144.105C160.622 146.196 159.673 149.032 159.67 151.99C159.67 154.196 160.198 156.353 161.187 158.188C162.176 160.023 163.581 161.453 165.226 162.297C166.871 163.142 168.68 163.363 170.426 162.932C172.172 162.502 173.775 161.439 175.034 159.879C176.293 158.318 177.15 156.331 177.497 154.166C177.844 152.002 177.666 149.759 176.985 147.72C176.304 145.682 175.15 143.939 173.67 142.713C172.19 141.487 170.45 140.833 168.67 140.833Z" fill="#3F3D56"/>
<path d="M150.67 151.99C150.67 147.577 151.726 143.263 153.704 139.593C155.682 135.924 158.493 133.064 161.782 131.375C165.071 129.686 168.69 129.244 172.182 130.105C175.673 130.966 178.881 133.091 181.398 136.212C183.915 139.333 185.63 143.308 186.324 147.637C187.019 151.965 186.662 156.452 185.3 160.529C183.937 164.606 181.63 168.091 178.67 170.543C175.71 172.994 172.23 174.303 168.67 174.303C166.306 174.303 163.966 173.726 161.782 172.605C159.598 171.483 157.614 169.84 155.942 167.768C154.271 165.696 152.945 163.236 152.04 160.529C151.136 157.822 150.67 154.92 150.67 151.99ZM168.67 130.249C165.201 130.249 161.81 131.524 158.926 133.913C156.042 136.302 153.794 139.697 152.467 143.67C151.139 147.643 150.792 152.014 151.469 156.231C152.145 160.449 153.816 164.323 156.269 167.363C158.721 170.404 161.846 172.474 165.249 173.313C168.651 174.152 172.177 173.722 175.382 172.076C178.586 170.43 181.326 167.644 183.253 164.069C185.18 160.493 186.208 156.29 186.208 151.99C186.203 146.226 184.354 140.7 181.066 136.624C177.778 132.548 173.32 130.255 168.67 130.249Z" fill="#CCCCCC"/>
<path d="M133.593 151.99C133.593 143.39 135.651 134.983 139.505 127.832C143.359 120.682 148.837 115.108 155.247 111.817C161.656 108.526 168.709 107.665 175.513 109.343C182.318 111.021 188.568 115.162 193.473 121.243C198.379 127.324 201.719 135.072 203.073 143.507C204.426 151.942 203.732 160.684 201.077 168.63C198.422 176.575 193.926 183.366 188.158 188.144C182.389 192.922 175.608 195.472 168.67 195.472C159.37 195.459 150.455 190.874 143.879 182.722C137.303 174.57 133.604 163.518 133.593 151.99ZM168.67 109.08C161.824 109.08 155.131 111.596 149.439 116.311C143.746 121.026 139.31 127.728 136.69 135.569C134.07 143.41 133.384 152.037 134.72 160.361C136.056 168.685 139.352 176.331 144.193 182.332C149.034 188.333 155.202 192.42 161.917 194.076C168.632 195.731 175.592 194.881 181.917 191.634C188.242 188.386 193.648 182.886 197.452 175.829C201.255 168.773 203.285 160.477 203.285 151.99C203.275 140.613 199.625 129.706 193.135 121.662C186.646 113.618 177.847 109.092 168.67 109.08Z" fill="#CCCCCC"/>
<path d="M168.67 157.139C171.092 157.139 173.055 154.706 173.055 151.704C173.055 148.702 171.092 146.268 168.67 146.268C166.249 146.268 164.286 148.702 164.286 151.704C164.286 154.706 166.249 157.139 168.67 157.139Z" fill="#E7AA07"/>
<path d="M157.363 172.873C159.784 172.873 161.747 170.439 161.747 167.437C161.747 164.436 159.784 162.002 157.363 162.002C154.941 162.002 152.978 164.436 152.978 167.437C152.978 170.439 154.941 172.873 157.363 172.873Z" fill="#E7AA07"/>
<path d="M201.477 170.584C203.899 170.584 205.862 168.151 205.862 165.149C205.862 162.147 203.899 159.714 201.477 159.714C199.056 159.714 197.093 162.147 197.093 165.149C197.093 168.151 199.056 170.584 201.477 170.584Z" fill="#E7AA07"/>
<path d="M168.67 154.278C169.817 154.278 170.747 153.126 170.747 151.704C170.747 150.282 169.817 149.129 168.67 149.129C167.523 149.129 166.593 150.282 166.593 151.704C166.593 153.126 167.523 154.278 168.67 154.278Z" fill="#2F2E41"/>
<path d="M201.477 167.724C202.624 167.724 203.554 166.571 203.554 165.149C203.554 163.727 202.624 162.574 201.477 162.574C200.33 162.574 199.4 163.727 199.4 165.149C199.4 166.571 200.33 167.724 201.477 167.724Z" fill="#2F2E41"/>
<path d="M157.362 170.298C158.509 170.298 159.439 169.145 159.439 167.724C159.439 166.302 158.509 165.149 157.362 165.149C156.215 165.149 155.286 166.302 155.286 167.724C155.286 169.145 156.215 170.298 157.362 170.298Z" fill="#2F2E41"/>
<path d="M71.7474 125.385C72.8944 125.385 73.8243 124.233 73.8243 122.811C73.8243 121.389 72.8944 120.236 71.7474 120.236C70.6003 120.236 69.6705 121.389 69.6705 122.811C69.6705 124.233 70.6003 125.385 71.7474 125.385Z" fill="#E7AA07"/>
<path d="M168.555 122.954H77.4011V122.382H169.016V151.847H168.555V122.954Z" fill="#2F2E41"/>
<path d="M65.7474 122.811C65.7474 121.34 66.0993 119.902 66.7586 118.679C67.4178 117.455 68.3549 116.502 69.4513 115.939C70.5476 115.376 71.754 115.229 72.9179 115.516C74.0818 115.803 75.1509 116.511 75.99 117.552C76.8291 118.592 77.4005 119.917 77.632 121.36C77.8636 122.803 77.7447 124.298 77.2906 125.657C76.8365 127.016 76.0675 128.178 75.0808 128.995C74.0941 129.812 72.934 130.249 71.7474 130.249C70.9594 130.249 70.1792 130.056 69.4513 129.682C68.7233 129.309 68.0619 128.761 67.5047 128.07C66.9476 127.379 66.5056 126.56 66.2041 125.657C65.9026 124.755 65.7474 123.788 65.7474 122.811ZM71.7474 115.945C70.652 115.945 69.5812 116.348 68.6704 117.102C67.7596 117.857 67.0497 118.929 66.6305 120.183C66.2113 121.438 66.1016 122.818 66.3153 124.15C66.529 125.482 67.0565 126.705 67.8311 127.666C68.6056 128.626 69.5925 129.28 70.6669 129.545C71.7412 129.809 72.8548 129.674 73.8668 129.154C74.8788 128.634 75.7438 127.754 76.3524 126.625C76.961 125.496 77.2858 124.169 77.2858 122.811C77.2841 120.991 76.7001 119.246 75.6618 117.958C74.6235 116.671 73.2157 115.947 71.7474 115.945Z" fill="#2F2E41"/>
<path d="M85.5935 199.477C86.7406 199.477 87.6704 198.324 87.6704 196.902C87.6704 195.481 86.7406 194.328 85.5935 194.328C84.4465 194.328 83.5166 195.481 83.5166 196.902C83.5166 198.324 84.4465 199.477 85.5935 199.477Z" fill="#E7AA07"/>
<path d="M79.5935 196.902C79.5935 195.431 79.9454 193.993 80.6047 192.77C81.264 191.547 82.201 190.594 83.2974 190.031C84.3937 189.468 85.6001 189.321 86.764 189.608C87.9279 189.895 88.997 190.603 89.8361 191.643C90.6752 192.683 91.2467 194.009 91.4782 195.451C91.7097 196.894 91.5909 198.39 91.1367 199.749C90.6826 201.108 89.9136 202.269 88.9269 203.087C87.9402 203.904 86.7802 204.34 85.5935 204.34C84.0022 204.34 82.4761 203.557 81.3509 202.162C80.2256 200.767 79.5935 198.875 79.5935 196.902ZM85.5935 190.037C84.4981 190.037 83.4273 190.44 82.5165 191.194C81.6057 191.948 80.8958 193.021 80.4766 194.275C80.0574 195.53 79.9478 196.91 80.1615 198.242C80.3752 199.574 80.9026 200.797 81.6772 201.757C82.4518 202.717 83.4386 203.371 84.513 203.636C85.5873 203.901 86.7009 203.765 87.7129 203.245C88.725 202.726 89.5899 201.846 90.1985 200.717C90.8071 199.588 91.1319 198.26 91.1319 196.902C91.1302 195.082 90.5462 193.337 89.5079 192.05C88.4696 190.763 87.0618 190.039 85.5935 190.037Z" fill="#2F2E41"/>
<path d="M265.862 137.4C267.009 137.4 267.938 136.248 267.938 134.826C267.938 133.404 267.009 132.251 265.862 132.251C264.715 132.251 263.785 133.404 263.785 134.826C263.785 136.248 264.715 137.4 265.862 137.4Z" fill="#E7AA07"/>
<path d="M259.862 134.826C259.862 133.355 260.213 131.917 260.873 130.694C261.532 129.47 262.469 128.517 263.565 127.954C264.662 127.391 265.868 127.244 267.032 127.531C268.196 127.818 269.265 128.526 270.104 129.566C270.943 130.607 271.515 131.932 271.746 133.375C271.978 134.817 271.859 136.313 271.405 137.672C270.951 139.031 270.182 140.193 269.195 141.01C268.208 141.827 267.048 142.263 265.862 142.263C265.074 142.263 264.293 142.071 263.565 141.697C262.838 141.324 262.176 140.776 261.619 140.085C261.062 139.394 260.62 138.574 260.318 137.672C260.017 136.77 259.862 135.802 259.862 134.826ZM265.862 127.96C264.393 127.962 262.985 128.686 261.947 129.973C260.909 131.26 260.325 133.005 260.323 134.826C260.323 136.184 260.648 137.511 261.257 138.64C261.865 139.769 262.73 140.649 263.742 141.169C264.754 141.688 265.868 141.824 266.942 141.559C268.016 141.295 269.003 140.641 269.778 139.68C270.552 138.72 271.08 137.497 271.294 136.165C271.507 134.833 271.398 133.453 270.978 132.198C270.559 130.944 269.849 129.872 268.939 129.117C268.028 128.363 266.957 127.96 265.862 127.96Z" fill="#2F2E41"/>
<path d="M201.246 135.688L260.089 134.54L260.096 135.111L201.708 136.252V165.149H201.246V135.688Z" fill="#2F2E41"/>
<path d="M91.3629 196.617H157.132V167.724H157.593V197.188H91.3629V196.617Z" fill="#2F2E41"/>
<path d="M84.4396 136.256H59.0551V138.259H84.4396V136.256Z" fill="#CCCCCC"/>
<path d="M84.4396 141.977H59.0551V143.98H84.4396V141.977Z" fill="#CCCCCC"/>
<path d="M84.4396 147.699H59.0551V149.701H84.4396V147.699Z" fill="#CCCCCC"/>
<path d="M98.2858 210.348H72.9012V212.35H98.2858V210.348Z" fill="#CCCCCC"/>
<path d="M98.2858 216.069H72.9012V218.072H98.2858V216.069Z" fill="#CCCCCC"/>
<path d="M98.2858 221.79H72.9012V223.793H98.2858V221.79Z" fill="#CCCCCC"/>
<path d="M278.554 148.557H253.169V150.559H278.554V148.557Z" fill="#CCCCCC"/>
<path d="M278.554 154.278H253.169V156.281H278.554V154.278Z" fill="#CCCCCC"/>
<path d="M278.554 160H253.169V162.002H278.554V160Z" fill="#CCCCCC"/>
</g>
<rect x="8.5" y="6.5" width="344" height="287" rx="34.5" stroke="#D2D2D2"/>
</g>
<defs>
<filter id="filter0_d_320_2538" x="0" y="0" width="361" height="304" filterUnits="userSpaceOnUse" color-interpolation-filters="sRGB">
<feFlood flood-opacity="0" result="BackgroundImageFix"/>
<feColorMatrix in="SourceAlpha" type="matrix" values="0 0 0 0 0 0 0 0 0 0 0 0 0 0 0 0 0 0 127 0" result="hardAlpha"/>
<feOffset dy="2"/>
<feGaussianBlur stdDeviation="4"/>
<feComposite in2="hardAlpha" operator="out"/>
<feColorMatrix type="matrix" values="0 0 0 0 0.6375 0 0 0 0 0.6375 0 0 0 0 0.6375 0 0 0 0.25 0"/>
<feBlend mode="normal" in2="BackgroundImageFix" result="effect1_dropShadow_320_2538"/>
<feBlend mode="normal" in="SourceGraphic" in2="effect1_dropShadow_320_2538" result="shape"/>
</filter>
<clipPath id="clip0_320_2538">
<rect width="244.484" height="157.327" fill="white" transform="translate(58.2487 71.5237)"/>
</clipPath>
</defs>
</svg>
