<svg width="162" height="115" viewBox="0 0 162 115" fill="none" xmlns="http://www.w3.org/2000/svg">
<g clip-path="url(#clip0_486_6706)">
<path fill-rule="evenodd" clip-rule="evenodd" d="M49.2193 25.875H112.469V89.125H49.2193V25.875Z" fill="white"/>
<path fill-rule="evenodd" clip-rule="evenodd" d="M52.0032 84.1842H51.8223C51.8223 84.0939 51.7772 83.958 51.7772 83.9125C51.7772 83.8674 51.7772 83.7774 51.6412 83.7774H51.3695V84.1842H51.2338V83.234H51.6412C51.8223 83.234 51.958 83.2794 51.958 83.46C51.958 83.5957 51.9126 83.6414 51.8677 83.686C51.9129 83.7317 51.958 83.7768 51.958 83.8674V84.0482C51.958 84.0939 51.958 84.0939 52.0032 84.0939V84.1842ZM51.8223 83.5057C51.8223 83.3697 51.7318 83.3697 51.6866 83.3697H51.3695V83.6414H51.6412C51.7318 83.6414 51.8223 83.5957 51.8223 83.5057ZM52.592 83.6863C52.592 83.1438 52.1394 82.6904 51.5506 82.6904C51.0075 82.6904 50.5547 83.1438 50.5547 83.6863C50.5547 84.2748 51.0075 84.7279 51.5506 84.7279C52.1391 84.7276 52.592 84.2748 52.592 83.6863ZM52.456 83.6863C52.456 84.1845 52.0489 84.5465 51.5506 84.5465C51.0527 84.5465 50.6907 84.1842 50.6907 83.6863C50.6907 83.234 51.053 82.8264 51.5506 82.8264C52.0486 82.8264 52.456 83.234 52.456 83.6863ZM108.224 65.399C108.224 66.7571 107.364 67.3902 105.825 67.3902H102.883V66.032H105.825C106.096 66.032 106.323 65.9872 106.414 65.8969C106.504 65.8061 106.594 65.6701 106.594 65.4892C106.594 65.3078 106.504 65.127 106.414 65.0367C106.323 64.9459 106.142 64.901 105.87 64.901C104.467 64.8553 102.702 64.9459 102.702 62.9544C102.702 62.0487 103.29 61.0528 104.874 61.0528H107.907V62.411H105.1C104.829 62.411 104.648 62.411 104.512 62.5013C104.376 62.6372 104.286 62.7729 104.286 62.9995C104.286 63.2258 104.422 63.3617 104.603 63.4526C104.784 63.4974 104.965 63.5429 105.192 63.5429H106.006C106.866 63.5429 107.41 63.7237 107.772 64.0408C108.043 64.3576 108.224 64.7656 108.224 65.399ZM101.841 64.0408C101.479 63.7237 100.936 63.5429 100.076 63.5429H99.2613C99.035 63.5429 98.8536 63.4972 98.6727 63.4526C98.4913 63.3617 98.3562 63.2258 98.3562 62.9995C98.3562 62.7729 98.4011 62.6372 98.5822 62.5013C98.7182 62.411 98.899 62.411 99.1707 62.411H101.977V61.0528H98.9444C97.3146 61.0528 96.7712 62.0487 96.7712 62.9544C96.7712 64.9456 98.537 64.8553 99.9403 64.901C100.211 64.901 100.393 64.9459 100.483 65.0367C100.573 65.127 100.665 65.3078 100.665 65.4892C100.665 65.6701 100.574 65.8061 100.483 65.8969C100.347 65.9872 100.167 66.032 99.8949 66.032H96.9523V67.3902H99.8949C101.433 67.3902 102.294 66.7568 102.294 65.399C102.294 64.7656 102.113 64.3576 101.841 64.0408ZM96.047 66.078H92.4717V64.8105H95.957V63.5434H92.4717V62.3661H96.047V61.0537H90.9778V67.3905H96.047V66.078ZM89.348 61.3705C88.8497 61.0988 88.2615 61.0534 87.4919 61.0534H84.0068V67.3902H85.5455V65.0819H87.1753C87.7181 65.0819 88.0352 65.1273 88.2618 65.3535C88.5335 65.6701 88.5335 66.2135 88.5335 66.6211V67.3902H90.0268V66.168C90.0268 65.5795 89.9819 65.3078 89.8008 64.9913C89.6648 64.8099 89.394 64.5836 89.0317 64.4479C89.4385 64.3125 90.1182 63.7691 90.1182 62.7729C90.1176 62.0493 89.8459 61.6416 89.348 61.3705ZM80.7474 61.0534H75.9039L73.9575 63.1358L72.1014 61.0534H65.9906V67.3902H72.0111L73.9578 65.3078L75.8136 67.3902H78.7562V65.2633H80.6571C81.9699 65.2633 83.2829 64.901 83.2829 63.1358C83.2826 61.4157 81.9244 61.0534 80.7474 61.0534ZM88.1255 63.6791C87.8995 63.7691 87.673 63.7691 87.4013 63.7691L85.5455 63.8148V62.3658H87.4013C87.673 62.3658 87.9447 62.3658 88.1255 62.5015C88.3069 62.5927 88.4423 62.7732 88.4423 63.0449C88.4423 63.3169 88.3069 63.5432 88.1255 63.6791ZM80.7474 63.9957H78.7556V62.3658H80.7474C81.2908 62.3658 81.6527 62.5927 81.6527 63.1358C81.6527 63.6791 81.2905 63.9957 80.7474 63.9957ZM74.908 64.2217L77.2618 61.7325V66.8474L74.908 64.2217ZM71.2415 66.078H67.4842V64.8105H70.8338V63.5434H67.4842V62.3661H71.2866L72.9616 64.2219L71.2415 66.078ZM104.014 56.4813H101.841L98.9896 51.7283V56.4813H95.9119L95.3228 55.078H92.1545L91.566 56.4813H89.8005C89.0763 56.4813 88.1255 56.3002 87.583 55.7568C87.0848 55.2137 86.8131 54.4895 86.8131 53.3579C86.8131 52.4071 86.9488 51.5472 87.6276 50.8684C88.0801 50.3702 88.8952 50.1442 89.9359 50.1442H91.3843V51.5024H89.9359C89.3931 51.5024 89.076 51.5929 88.7592 51.8646C88.4875 52.1363 88.3518 52.634 88.3518 53.313C88.3518 53.9918 88.4875 54.4898 88.7592 54.8069C88.9854 55.0329 89.3931 55.1234 89.8002 55.1234H90.4793L92.6519 50.1445H94.9154L97.4503 56.1193V50.1442H99.8043L102.475 54.5349V50.1442H104.014V56.4813H104.014ZM86.0437 50.1442H84.505V56.4813H86.0437V50.1442ZM82.8295 50.4159C82.3315 50.1442 81.7887 50.1442 81.0191 50.1442H77.5334V56.4813H79.027V54.1727H80.6566C81.1999 54.1727 81.5622 54.2178 81.7884 54.4444C82.0601 54.7612 82.0144 55.3046 82.0144 55.6665V56.4813H83.5531V55.2137C83.5531 54.6706 83.508 54.3989 83.282 54.0821C83.146 53.901 82.8743 53.6744 82.5578 53.539C82.9646 53.3579 83.6443 52.8599 83.6443 51.864C83.6445 51.1401 83.3274 50.7324 82.8295 50.4159ZM76.447 55.1689H72.9162V53.9013H76.4016V52.5888H72.9162V51.4569H76.447V50.1445H71.3772V56.4816H76.447V55.1689ZM70.2456 50.1442H67.7559L65.9 54.4444L63.9082 50.1442H61.4639V56.119L58.8839 50.1442H56.6207L53.9047 56.4813H55.5342L56.1225 55.078H59.291L59.8795 56.4813H62.9578V51.5024L65.1755 56.4813H66.488L68.7063 51.5024V56.4813H70.2453L70.2456 50.1442ZM94.7803 53.7201L93.7387 51.2307L92.6979 53.7201H94.7803ZM81.6527 52.7245C81.4268 52.8605 81.2002 52.8605 80.8834 52.8605H79.027V51.4572H80.8831C81.1548 51.4572 81.471 51.4572 81.6525 51.5478C81.8333 51.6838 81.9241 51.8649 81.9241 52.1363C81.9241 52.4077 81.8336 52.6337 81.6527 52.7245ZM56.6655 53.7201L57.7069 51.2307L58.7479 53.7201H56.6655ZM107.862 30.2722H53.8593V53.0865L55.7151 48.8769H59.653L60.1963 49.918V48.8769H64.8136L65.8546 51.1401L66.8505 48.8769H81.5622C82.241 48.8769 82.8292 49.0126 83.2823 49.3746V48.8769H87.3107V49.3746C87.9895 49.0123 88.8494 48.8769 89.8456 48.8769H95.6848L96.2281 49.918V48.8769H100.529L101.162 49.918V48.8769H105.372V57.7489H101.117L100.303 56.391V57.7489H95.0063L94.418 56.3005H93.1047L92.5165 57.7489H89.7554C88.6689 57.7489 87.8538 57.4772 87.3113 57.2058V57.7489H80.7474V55.7119C80.7474 55.4403 80.7023 55.3948 80.5211 55.3948H80.2949V57.7486H67.6202V56.617L67.1676 57.7486H64.497L64.0445 56.6621V57.7486H58.929L58.3859 56.3002H57.0732L56.485 57.7486H53.8593V84.501H107.862V68.2504C107.274 68.5221 106.459 68.6578 105.644 68.6578H101.706V68.1144C101.253 68.4769 100.438 68.6578 99.6686 68.6578H87.2656V66.6211C87.2656 66.3494 87.2208 66.3494 86.9939 66.3494H86.7677V68.6578H82.6938V66.2589C82.015 66.5754 81.2454 66.5754 80.5663 66.5754H80.1135V68.6578H75.1345L73.9578 67.2996L72.6451 68.6578H64.6325V59.7861H72.7805L73.9575 61.1434L75.2251 59.7861H80.7023C81.3356 59.7861 82.377 59.8764 82.8295 60.3286V59.7861H87.7181C88.2161 59.7861 89.1671 59.8764 89.8005 60.3286V59.7861H97.1789V60.3292C97.5863 59.9669 98.3562 59.7864 99.0347 59.7864H103.154V60.3292C103.607 60.0124 104.24 59.7864 105.056 59.7864H107.862V30.2722Z" fill="#006FCF"/>
</g>
<defs>
<clipPath id="clip0_486_6706">
<rect width="161" height="115" fill="white" transform="translate(0.344299)"/>
</clipPath>
</defs>
</svg>
