<svg width="34" height="41" viewBox="0 0 34 41" fill="none" xmlns="http://www.w3.org/2000/svg">
<path d="M30.4656 35.4985C28.8056 37.9785 27.0456 40.3985 24.3656 40.4385C21.6856 40.4985 20.8256 38.8585 17.7856 38.8585C14.7256 38.8585 13.7856 40.3985 11.2456 40.4985C8.6256 40.5985 6.64559 37.8585 4.96559 35.4385C1.54559 30.4985 -1.07441 21.3985 2.44559 15.2785C4.18559 12.2385 7.30559 10.3185 10.6856 10.2585C13.2456 10.2185 15.6856 11.9985 17.2656 11.9985C18.8256 11.9985 21.7856 9.85854 24.8856 10.1785C26.1856 10.2385 29.8256 10.6985 32.1656 14.1385C31.9856 14.2585 27.8256 16.6985 27.8656 21.7585C27.9256 27.7985 33.1656 29.8185 33.2256 29.8385C33.1656 29.9785 32.3856 32.7185 30.4656 35.4985ZM19.0456 3.49854C20.5056 1.83854 22.9256 0.578535 24.9256 0.498535C25.1856 2.83854 24.2456 5.19854 22.8456 6.87854C21.4656 8.57854 19.1856 9.89854 16.9456 9.71854C16.6456 7.41854 17.7656 5.01854 19.0456 3.49854Z" fill="white"/>
</svg>
