<svg width="1117" height="830" viewBox="0 0 1117 830" fill="none" xmlns="http://www.w3.org/2000/svg">
<path opacity="0.1" d="M294.041 236.677C293.687 233.872 292.969 231.125 291.907 228.505C291.772 228.01 291.535 227.548 291.211 227.149C290.888 226.751 290.485 226.424 290.028 226.189C289.417 226.03 288.777 226.023 288.162 226.168L278.586 227.634C277.785 227.671 277.017 227.969 276.401 228.483C275.154 229.796 276.382 231.909 276.344 233.719C276.301 235.754 274.493 237.407 272.532 237.953C270.531 238.358 268.467 238.332 266.476 237.878L253.085 235.797C257.029 234.537 260.539 232.194 263.215 229.034C264.978 226.946 265.915 223.047 263.368 222.058C262.612 221.851 261.823 221.787 261.043 221.872C254.976 221.919 250.202 216.852 244.522 214.717C240.887 213.44 236.941 213.345 233.249 214.446C229.557 215.547 226.307 217.788 223.965 220.848L231.098 221.192C231.769 221.155 232.434 221.333 232.998 221.699C234.561 222.984 232.618 225.452 232.838 227.464C233.124 230.078 236.593 230.636 239.209 230.9C241.824 231.164 245.142 233.29 243.884 235.599C230.739 240.128 217.362 226.745 203.557 228.393C200.063 228.81 196.764 230.183 193.352 231.046C172.514 236.32 150.97 222.248 129.682 225.228C124.95 226.035 120.298 227.262 115.783 228.895C112.886 229.847 109.864 230.875 107.759 233.082C105.654 235.289 104.853 239.064 106.847 241.372C101.35 241.824 95.8164 241.298 90.5032 239.817C91.94 240.616 93.1353 241.787 93.9636 243.208C94.7919 244.628 95.2226 246.246 95.2107 247.89C86.628 249.29 78.2725 251.839 70.369 255.467C71.8441 257.921 73.567 260.217 75.5107 262.319L64.6451 269.302C68.316 270.227 70.214 275.235 68.0792 278.362C71.8855 276.668 74.2445 272.286 78.3147 271.398C80.9812 270.816 83.6945 271.907 86.2241 272.932C88.7537 273.957 91.534 274.951 94.1526 274.182C96.7713 273.412 98.7028 270.015 97.0388 267.851C108.232 264.584 119.799 262.777 131.455 262.472C132.354 262.359 133.266 262.533 134.062 262.967C135.579 264.02 135.18 266.295 135.098 268.14C135.016 269.986 136.454 272.411 138.103 271.579C136.163 273.262 137.821 276.43 139.682 278.2C141.544 279.969 143.787 282.411 142.647 284.713C142.35 285.313 141.846 285.794 141.559 286.4C140.715 288.19 142.056 290.276 143.638 291.464C145.219 292.652 147.157 293.483 148.255 295.128C149.354 296.774 148.855 299.654 146.89 299.884L141.306 292.791C139.398 294.77 138.09 297.249 137.534 299.942C143.455 304.785 144.346 314.641 139.389 320.468C136.855 323.445 133.252 325.255 130.108 327.577C126.963 329.899 124.054 333.207 124.062 337.117C124.075 343.872 123.524 350.147 126.054 356.41C130.72 367.959 136.107 379.202 142.184 390.074C143.779 392.929 145.842 396.058 149.074 396.55C144.989 386.601 141.311 376.497 138.041 366.238C140.171 366.247 142.632 366.416 143.881 368.142C144.915 369.571 144.693 371.514 145.014 373.249C145.422 374.93 146.104 376.532 147.031 377.992L166.539 412.755C168.156 415.637 170.011 418.73 173.102 419.897C175.078 420.643 177.365 420.503 179.184 421.577C180.609 422.419 181.569 423.914 183.023 424.707C187.132 426.95 192.847 422.648 196.688 425.326C197.786 426.092 198.484 427.308 199.496 428.185C203.043 431.257 208.862 429.202 212.956 431.494C215.595 432.971 216.963 435.926 218.371 438.603C221.896 445.31 227.601 451.881 235.157 452.415C237.531 452.582 239.955 452.132 242.275 452.66C244.596 453.188 246.879 455.214 246.507 457.565C245.869 461.595 247.859 466.009 247.325 470.054C246.351 477.423 235.902 480.661 235.004 488.04C234.808 489.656 235.116 491.323 234.731 492.905C234.26 494.843 232.805 496.421 232.288 498.347C231.308 501.998 233.922 505.631 236.795 508.087C239.667 510.544 243.093 512.661 244.664 516.1C246.323 519.734 245.508 523.971 246.048 527.93C247.226 536.572 254.688 542.979 262.368 547.11C264.708 548.369 267.22 549.587 268.734 551.771C270.711 554.621 270.514 558.378 271.174 561.783C272.791 570.123 279.809 576.994 280.008 585.487C280.149 591.523 276.795 596.999 274.792 602.695C272.913 608.152 272.233 613.95 272.799 619.694C273.364 625.437 275.161 630.991 278.067 635.977C279.566 638.509 281.359 640.896 282.419 643.641C284.311 648.539 283.698 654.107 285.442 659.059C287.749 665.607 294.086 671.015 293.48 677.931C296.357 683.908 302.711 686.845 309.1 688.624L320.55 691.813C322.743 692.423 325.034 693.039 327.267 692.597C329.499 692.154 331.63 690.3 331.572 688.024C325.957 686.757 320.162 685.41 315.533 681.987C310.904 678.564 307.733 672.469 309.489 666.985C310.304 664.442 312.036 661.506 310.389 659.405C309.446 658.202 307.722 657.888 306.658 656.79C304.999 655.078 305.569 652.202 306.761 650.138C307.954 648.073 309.678 646.228 310.16 643.893C310.402 642.587 310.24 641.237 309.694 640.025C309.149 638.814 308.246 637.798 307.107 637.114C309.23 636.313 311.161 635.073 312.774 633.477C314.265 631.774 314.953 629.149 313.781 627.213C317.262 627.655 321.373 627.871 323.658 625.207C325.484 623.079 325.358 619.899 324.637 617.189C323.916 614.48 322.697 611.849 322.659 609.045C330.691 609.426 338.74 609.153 346.728 608.229C345.573 604.338 342.948 601.049 339.41 599.061C343.028 598.449 346.323 594.116 347.466 590.629C348.609 587.141 348.318 583.342 347.611 579.741C347.34 578.813 347.303 577.833 347.503 576.888C347.91 575.589 349.186 574.797 350.365 574.119L368.322 563.803C369.393 563.266 370.364 562.549 371.193 561.682C373.074 559.472 372.796 556.135 371.832 553.396C370.869 550.658 369.326 548.082 368.955 545.203C367.845 536.592 377.06 530.413 380.17 522.307C381.391 519.126 381.639 515.668 381.875 512.269C382.129 508.618 382.148 504.378 379.346 502.025C376.66 499.77 372.463 500.273 369.652 498.175C367.075 496.252 366.186 492.517 363.371 490.963C360.814 489.552 357.608 490.45 354.765 489.786C349.758 488.618 346.608 482.846 341.495 482.311C338.61 482.01 335.345 483.42 332.981 481.74C330.897 480.259 330.814 477.282 330.417 474.756C329.722 470.831 327.841 467.213 325.028 464.39C322.214 461.566 318.604 459.673 314.682 458.965C311.708 458.488 308.47 458.669 305.939 457.034C303.377 455.378 302.202 452.278 300.19 449.985C296.946 446.29 291.837 444.977 287.051 443.851L267.584 439.273C264.129 438.46 259.674 438.029 257.82 441.058C257.271 442.211 256.882 443.433 256.665 444.692C255.97 446.968 254.572 448.965 252.671 450.397C250.77 451.828 248.464 452.62 246.085 452.658C244.454 449.874 241.81 447.828 238.707 446.947C236.733 446.397 234.62 446.336 232.738 445.526C231.712 445.025 230.8 444.321 230.056 443.455C229.313 442.59 228.754 441.581 228.413 440.492C228.072 439.403 227.958 438.255 228.076 437.12C228.194 435.985 228.542 434.886 229.099 433.89C230.222 431.891 230.655 429.578 230.333 427.308C230.01 425.038 228.95 422.938 227.316 421.33C224.005 418.357 219.216 417.639 214.777 417.936C213.615 415.399 215.559 412.535 217.653 410.691C219.748 408.847 222.292 407.034 222.748 404.28C223.466 399.948 217.94 396.658 213.745 397.95C209.55 399.241 206.872 403.318 205.102 407.336C204.087 409.641 203.223 412.069 201.621 414.013C200.019 415.957 197.44 417.349 195 416.725C191.545 415.842 190.211 411.736 189.447 408.252C188.421 403.578 187.389 398.839 187.604 394.059C187.819 389.278 189.43 384.37 192.954 381.133C198.696 375.86 207.505 376.377 215.255 377.218C213.424 375.154 213.877 371.676 215.836 369.734C216.87 368.815 218.113 368.162 219.456 367.832C220.799 367.502 222.203 367.504 223.545 367.839C225.88 368.326 227.984 369.584 229.518 371.412C231.72 374.098 232.346 377.724 234.011 380.773C235.675 383.822 239.418 386.422 242.482 384.786C245.128 383.374 245.548 379.703 244.89 376.776C244.231 373.848 242.832 371.002 243.071 368.011C243.526 362.304 249.44 358.868 254.659 356.518C259.878 354.167 265.853 351.006 266.68 345.341C266.709 344.232 266.918 343.135 267.3 342.093C267.878 341.173 268.683 340.416 269.636 339.895C284.867 329.825 300.352 319.633 317.76 314.131C318.666 313.845 318.772 314.163 319.695 313.939C320.987 313.192 320.131 311.126 318.893 310.293C317.654 309.461 315.999 308.823 315.684 307.364C315.453 306.291 316.085 305.238 316.249 304.153C316.653 301.487 313.465 299.026 310.989 300.092C309.591 298.239 312.358 296.086 314.595 295.47C321.313 293.621 328.21 292.494 335.168 292.108C335.97 291.981 336.793 292.121 337.509 292.507C338.677 293.316 338.528 295.174 337.7 296.329C336.871 297.485 335.583 298.211 334.551 299.189C333.424 300.288 332.619 301.675 332.226 303.2C331.833 304.725 331.866 306.329 332.322 307.836C335.954 309.684 339.903 311.587 343.926 310.936C347.949 310.284 351.519 305.763 349.628 302.152C347.867 298.789 342.578 298.03 341.669 294.345C340.604 290.03 346.71 286.192 345.335 281.966C344.732 280.114 342.888 279.025 341.473 277.688C339.801 276.049 338.664 273.943 338.211 271.647C337.758 269.35 338.01 266.97 338.934 264.819C336.628 265.224 334.26 265.071 332.026 264.372C329.792 263.672 327.759 262.448 326.096 260.8C323.025 257.7 320.576 252.81 316.215 252.948C312.214 253.076 308.768 257.745 305.026 256.321C304.106 255.97 303.135 255.257 302.243 255.675C301.951 255.865 301.706 256.118 301.526 256.417C301.346 256.716 301.236 257.051 301.205 257.399C300.254 261.946 301.89 267.127 299.413 271.057C296.716 275.333 290.48 275.926 287.212 279.782C285.438 281.875 284.75 284.695 283.119 286.902C281.489 289.109 278.027 290.512 276.07 288.589C277.032 286.611 277.295 284.365 276.815 282.218C276.336 280.071 275.143 278.151 273.431 276.77C271.614 275.584 269.655 274.631 267.6 273.933C265.305 272.961 263.121 271.744 261.087 270.302C260.068 269.687 259.241 268.801 258.696 267.743C258.266 266.417 258.324 264.982 258.86 263.695C259.852 260.849 261.603 258.328 263.923 256.404C266.243 254.481 269.044 253.227 272.024 252.78C274.63 252.425 277.663 252.55 279.388 250.564C280.3 249.513 280.779 247.924 282.103 247.497C282.95 247.327 283.83 247.436 284.611 247.806L294.337 251.231C295.422 251.721 296.616 251.919 297.802 251.804C298.389 251.725 298.925 251.427 299.302 250.969C299.679 250.51 299.868 249.927 299.833 249.335C299.522 247.719 297.037 246.944 297.263 245.314C297.39 244.786 297.673 244.308 298.077 243.945C301.587 240.208 305.88 237.293 310.648 235.409C315.416 233.526 320.541 232.72 325.657 233.05C326.884 235.067 324.943 237.455 323.327 239.177C321.712 240.899 320.413 243.975 322.367 245.301C323.168 245.709 324.058 245.91 324.957 245.884C327.351 246.208 329.679 246.915 331.85 247.976C335.211 249.439 338.507 251.04 341.739 252.778C341.454 250.647 341.181 248.401 341.989 246.408C342.797 244.414 345.092 242.851 347.097 243.627C349.03 244.375 350.021 246.935 352.08 247.169C354.826 247.482 355.909 243.424 354.762 240.908C353.615 238.392 351.344 236.286 351.155 233.528C351.027 231.667 351.735 229.359 350.249 228.232C349.72 227.893 349.12 227.683 348.495 227.617L311.392 220.786C309.188 220.381 306.005 220.692 305.907 222.931C305.853 224.18 306.969 225.417 306.474 226.566C305.947 227.792 304.214 227.68 302.952 228.114C300.993 228.787 300.01 231.114 300.198 233.177C300.543 235.227 301.336 237.175 302.522 238.882C300.109 237.872 296.455 237.687 294.041 236.677Z" fill="url(#paint0_linear_1_3)"/>
<path opacity="0.1" d="M264.436 205.169C262.096 204.394 259.575 204.358 257.214 205.066C254.853 205.773 252.767 207.189 251.238 209.123C250.627 209.928 250.114 211.037 250.625 211.908C251.358 213.157 253.227 212.664 254.604 212.217C256.629 211.494 258.833 211.441 260.89 212.067C262.183 212.511 263.34 213.297 264.639 213.724C265.272 213.989 265.964 214.076 266.643 213.977C267.321 213.878 267.959 213.596 268.49 213.161C269.381 212.252 269.437 210.837 269.439 209.563C269.501 209.137 269.467 208.702 269.339 208.291C269.212 207.88 268.994 207.502 268.702 207.185C268.182 206.884 267.597 206.711 266.997 206.681C265.653 206.432 264.438 205.722 263.561 204.672" fill="url(#paint1_linear_1_3)"/>
<path opacity="0.1" d="M277.815 201.443C277.291 201.414 276.769 201.521 276.299 201.752C275.828 201.984 275.425 202.333 275.128 202.766C274.832 203.198 274.651 203.7 274.604 204.222C274.557 204.745 274.646 205.27 274.861 205.749C276.469 206.188 278.149 206.297 279.8 206.071C280.624 205.943 281.391 205.574 282.005 205.011C282.62 204.447 283.054 203.714 283.252 202.905C281.308 203.258 279.302 202.875 277.625 201.829" fill="url(#paint2_linear_1_3)"/>
<path opacity="0.1" d="M322.702 195.219C318.326 196.15 314.074 197.595 310.036 199.523C311.94 200.255 313.558 201.58 314.652 203.301C315.747 205.023 316.259 207.05 316.114 209.085C315.944 209.867 315.963 210.677 316.172 211.449C316.637 212.578 317.985 213.001 319.17 213.29C321.3 213.939 323.523 214.222 325.746 214.13C326.859 214.072 327.939 213.737 328.889 213.156C329.84 212.575 330.631 211.766 331.19 210.803C331.512 209.888 331.89 208.994 332.322 208.126C335.162 203.798 343.601 209.031 346.651 204.848C347.725 203.375 347.627 201.157 349.028 199.989C349.752 199.48 350.592 199.16 351.471 199.056C357.604 197.837 363.799 196.955 370.029 196.412C372.98 196.155 376.828 195.095 376.852 192.131C365.734 189.947 354.207 191.498 344.061 196.544C340.406 198.376 335.571 202.228 332.05 199.8C330.732 198.891 330.797 196.443 328.982 195.421C327.127 194.376 324.672 194.801 322.702 195.219Z" fill="url(#paint3_linear_1_3)"/>
<path opacity="0.1" d="M359.061 202.021L364.28 203.024C363.32 202.981 362.361 203.144 361.468 203.502C360.575 203.859 359.769 204.403 359.103 205.097C358.437 205.791 357.927 206.619 357.606 207.526C357.285 208.432 357.161 209.397 357.243 210.356C362.13 211.989 367.458 210.4 372.606 210.617C377.755 210.834 383.745 214.513 382.866 219.592C382.6 221.127 381.713 222.662 382.174 224.151C382.498 225.194 383.418 225.935 383.937 226.896C385.019 228.898 384.154 231.431 382.788 233.252C381.422 235.072 379.585 236.525 378.386 238.459C375.403 243.271 377.098 249.491 378.875 254.867C379.388 256.898 380.337 258.793 381.655 260.421C384.287 263.221 388.577 263.465 392.419 263.521C395.215 263.562 398.418 263.423 400.187 261.256C402.495 258.427 400.881 254.012 402.401 250.691C403.781 247.675 407.298 246.381 410.485 245.464C416.322 243.783 422.272 242.353 427.79 239.814C434.643 236.661 441.048 231.747 448.58 231.341C450.693 231.227 452.859 231.476 454.894 230.897C456.93 230.318 458.863 228.558 458.709 226.446C458.578 224.642 457.052 223.318 455.86 221.958C454.668 220.598 453.731 218.507 454.827 217.068L474.57 213.379C473.171 209.563 472.08 204.539 475.296 202.055C476.457 201.159 478.01 200.801 478.998 199.718C480.682 197.872 479.835 194.691 477.891 193.121C475.948 191.551 473.32 191.186 470.83 190.979C462.173 190.26 453.466 190.735 444.793 191.211C427.838 192.141 410.883 193.071 393.928 194C390.514 194.187 386.574 193.901 383.443 195.066C380.793 196.052 378.909 197.863 375.878 198.499C370.282 199.673 364.125 198.878 359.061 202.021Z" fill="url(#paint4_linear_1_3)"/>
<path opacity="0.1" d="M452.557 243.288C452.025 243.203 451.481 243.327 451.038 243.632C450.744 243.955 450.57 244.369 450.543 244.804C450.206 246.726 450.608 248.704 451.667 250.343C452.206 251.147 452.951 251.791 453.824 252.21C454.697 252.629 455.666 252.806 456.63 252.723C458.98 252.423 460.712 250.418 462.872 249.439C466.202 247.932 480.343 245.583 470.561 240.296C467.19 238.475 465.012 240.083 462.355 241.283C459.332 242.83 455.944 243.523 452.557 243.288Z" fill="url(#paint5_linear_1_3)"/>
<path opacity="0.1" d="M538.235 199.036C537.092 199.503 536.137 200.335 535.517 201.403C535.232 201.945 535.165 202.576 535.332 203.165C535.499 203.755 535.885 204.258 536.412 204.57C536.839 204.725 537.291 204.796 537.745 204.781L542.389 204.92C544.362 204.979 546.827 205.399 547.357 207.301C547.75 208.714 546.869 210.529 547.932 211.538C548.389 211.891 548.937 212.105 549.512 212.154C551.042 212.547 552.64 212.599 554.192 212.305C557.571 211.399 555.796 209.335 556.86 207.498C558.488 204.687 558.206 206.389 561.076 204.778C563.195 203.588 565.933 201.43 564.164 198.398C561.089 193.125 542.773 196.771 538.235 199.036Z" fill="url(#paint6_linear_1_3)"/>
<path opacity="0.1" d="M629.902 196.385L627.205 196.745C621.124 197.557 615.008 198.376 609.151 200.203C611.686 201.206 614.346 201.859 617.057 202.144C618.55 202.217 620.033 202.428 621.487 202.774C624.074 203.544 626.68 205.534 629.18 204.515C630.73 203.883 631.235 202.269 632.519 201.413C633.405 200.823 636.767 199.867 637.143 199.27C640.182 194.45 632.237 196.074 629.902 196.385Z" fill="url(#paint7_linear_1_3)"/>
<path opacity="0.1" d="M641.744 208.647C638.142 210.662 634.799 213.11 631.792 215.938C630.525 217.129 629.231 218.611 629.345 220.347C629.498 222.654 631.955 223.992 634.083 224.894L642.705 228.545C643.75 227.071 642.793 225.035 641.712 223.586C640.631 222.137 639.347 220.46 639.824 218.716C640.369 216.726 642.795 216.048 644.829 215.705C648.143 215.147 657.082 215.192 656.008 209.849C654.743 203.554 645.071 206.787 641.744 208.647Z" fill="url(#paint8_linear_1_3)"/>
<path opacity="0.1" d="M640.01 564.898C639.19 567.274 639.112 570.074 640.531 572.15C642.124 574.478 645.313 575.347 648.071 574.756C650.818 574.025 653.266 572.45 655.071 570.254C656.722 568.413 658.08 566.33 659.097 564.077C660.518 560.566 661.519 556.899 662.082 553.154L664.758 539.094C665.357 535.952 665.333 526.319 659.56 529.458C657.983 530.315 654.332 537.085 652.679 539.005C649.7 542.464 649.306 545.822 647.738 550.013C645.774 555.263 641.826 559.639 640.01 564.898Z" fill="url(#paint9_linear_1_3)"/>
<path opacity="0.1" d="M944.921 636.843C943.032 636.105 941.199 635.232 939.436 634.23C937.668 639.093 936.728 644.218 936.655 649.392L949.581 642.075C951.525 640.974 953.729 639.445 953.688 637.21C953.705 636.934 953.648 636.658 953.522 636.412C953.396 636.166 953.207 635.958 952.973 635.811C952.686 635.695 952.373 635.659 952.067 635.704C950.15 635.864 948.402 636.807 946.594 637.464C944.786 638.12 942.672 638.466 941.013 637.493" fill="url(#paint10_linear_1_3)"/>
<path opacity="0.1" d="M1013.11 641.187C1011.69 641.573 1010.3 642.071 1008.96 642.675C1006 644.185 1003.98 647.052 1001.31 649.041C998.756 650.944 995.681 651.989 992.663 653.005C991.775 653.79 992.183 655.371 993.146 656.061C994.183 656.651 995.371 656.918 996.56 656.829C999.696 656.898 1003 656.928 1005.75 655.413C1007.3 654.409 1008.74 653.259 1010.07 651.979C1013.28 649.298 1017.14 647.529 1020.96 645.82C1022.35 645.295 1023.63 644.527 1024.75 643.551C1027.15 641.186 1027.32 637.538 1023.86 636.734C1021.07 636.083 1015.77 640.326 1013.11 641.187Z" fill="url(#paint11_linear_1_3)"/>
<path opacity="0.1" d="M1043.24 621.499C1043.39 619.872 1043.18 618.232 1042.61 616.7C1042.03 615.169 1041.12 613.788 1039.94 612.661C1039.9 615.916 1039.8 619.384 1037.97 622.076C1036.67 623.994 1034.63 625.289 1033.2 627.116C1031.77 628.943 1031.13 631.839 1032.81 633.442C1033.88 634.257 1035.19 634.707 1036.53 634.724C1039.87 635.117 1043.73 635.336 1046.07 632.925C1047.35 631.609 1047.97 629.66 1049.52 628.693C1050.1 628.449 1050.62 628.078 1051.04 627.608C1051.68 626.585 1050.66 625.237 1049.51 624.869C1048.36 624.5 1047.09 624.674 1045.94 624.324C1044.78 623.974 1043.72 622.673 1044.31 621.621" fill="url(#paint12_linear_1_3)"/>
<path opacity="0.1" d="M989.69 502.152C987.94 502.578 986.128 502.685 984.34 502.468C981.37 501.922 979.059 499.683 976.661 497.847C970.962 493.505 964.033 491.084 956.872 490.93C950.357 490.807 943.781 492.573 937.383 491.341C937.801 493.667 939.79 495.411 941.913 496.448C944.036 497.485 946.379 498.007 948.512 499.023C951.929 500.666 954.638 503.486 956.144 506.965C956.831 508.57 957.264 510.315 958.304 511.716C960.431 514.579 964.463 515.208 968.021 514.974C972.661 514.668 977.506 513.334 981.822 515.063C985.124 516.385 987.487 519.276 990.243 521.524C993 523.772 996.883 525.44 1000.05 523.818C996.761 522.753 993.899 520.665 991.881 517.858C989.863 515.051 988.795 511.672 988.833 508.215C991.938 508.501 1000.88 508.39 1000.4 503.113C999.99 498.64 992.356 501.669 989.69 502.152Z" fill="url(#paint13_linear_1_3)"/>
<path opacity="0.1" d="M949.075 538.541C949.626 535.517 952.641 532.846 951.702 529.918C951.052 527.894 948.706 526.894 946.581 526.844C944.456 526.794 942.369 527.428 940.244 527.487C938.861 527.414 937.475 527.434 936.095 527.546C931.877 528.24 929.278 532.662 925.303 534.234C922.887 535.19 920.172 535.007 917.658 535.668C911.953 537.169 908.343 542.562 904.354 546.91C897.91 553.905 889.515 558.802 880.256 560.969C877.012 561.72 873.525 562.201 870.947 564.309C867.532 567.1 866.691 571.884 865.932 576.229C863.833 588.23 860.625 600.009 856.35 611.416L869.898 613.146C872.473 613.475 875.142 613.797 877.624 613.034C879.427 612.353 881.136 611.443 882.706 610.326C888.74 606.579 895.493 604.14 902.528 603.168C906.076 602.681 909.795 602.592 913.124 603.911C916.454 605.23 919.31 608.222 919.589 611.793C921.029 611.345 922.563 611.297 924.028 611.653C925.493 612.01 926.834 612.757 927.907 613.817C930.029 615.979 931.418 618.753 931.878 621.748C932.235 623.602 932.592 625.823 934.312 626.601C935.715 627.236 937.325 626.552 938.86 626.429C944.068 626.013 948.391 632.088 953.51 631.042C959.001 629.92 960.349 621.694 965.705 620.046C968.781 619.1 973.097 620.251 974.57 617.388C975.868 614.865 973.277 611.953 973.545 609.128C973.874 605.649 977.976 604.172 981.138 602.688C992.04 597.571 997.214 582.892 991.931 572.066C988.801 565.652 982.642 560.603 981.504 553.556C980.629 548.135 982.765 541.812 979.31 537.545C977.552 535.374 974.576 534.176 973.53 531.586C972.872 529.955 973.136 528.105 972.782 526.383C972.428 524.66 970.926 522.859 969.225 523.305C964.29 524.601 962.715 539.853 960.073 543.559C956.056 549.192 947.81 545.481 949.075 538.541Z" fill="url(#paint14_linear_1_3)"/>
<path opacity="0.1" d="M857.848 507.915C856.162 507.442 854.32 506.976 852.704 507.652C851.088 508.328 850.144 510.701 851.441 511.879C861.588 511.484 871.797 511.091 881.858 512.47C893.45 514.058 904.921 517.992 916.564 516.835C909.913 514.872 903.153 513.303 896.318 512.135L884.92 509.957C881.863 509.316 878.773 508.839 875.665 508.526C869.163 507.989 864.241 509.708 857.848 507.915Z" fill="url(#paint15_linear_1_3)"/>
<path opacity="0.1" d="M868.007 472.562C867.164 472.492 866.121 472.431 865.685 473.156C865.269 473.848 865.745 474.763 865.521 475.539C865.215 476.599 863.827 476.87 862.733 476.726C861.639 476.581 860.456 476.236 859.487 476.763C858.996 477.099 858.626 477.585 858.435 478.149C858.243 478.713 858.239 479.323 858.423 479.89C858.82 481.014 859.461 482.035 860.3 482.881C861.733 484.688 863.366 486.327 865.168 487.766C868.655 490.341 873.38 491.582 875.576 495.32C875.886 496.045 876.362 496.686 876.967 497.192C878.021 497.86 879.396 497.352 880.531 496.833L884.511 495.014C885.228 494.756 885.868 494.32 886.371 493.748C887.281 492.514 886.722 490.759 885.959 489.43C885.196 488.101 884.219 486.725 884.383 485.2C884.675 482.483 888.168 481.443 889.604 479.118C891.052 476.774 890.11 473.754 890.276 471.004C890.472 467.787 892.492 463.604 889.241 461.201C886.479 459.158 883.839 461.045 881.855 463.3C877.673 468.055 875.695 473.204 868.007 472.562Z" fill="url(#paint16_linear_1_3)"/>
<path opacity="0.1" d="M892.163 424.506C893.522 427.108 896.354 428.661 897.836 431.195C899.442 433.942 899.259 437.492 901.001 440.154C902.788 442.886 906.385 444.336 907.388 447.443C908.482 450.836 905.999 454.959 907.978 457.923C908.347 458.407 908.813 458.809 909.346 459.105C909.879 459.4 910.467 459.581 911.073 459.636C911.68 459.692 912.291 459.621 912.869 459.428C913.446 459.235 913.977 458.924 914.429 458.515C915.263 457.606 915.71 456.407 915.673 455.174C915.637 453.94 915.12 452.77 914.233 451.912C913.061 450.843 911.379 450.381 910.4 449.132C909.891 448.412 909.551 447.585 909.407 446.714C908.874 444.202 908.959 441.599 909.656 439.127C909.918 438.5 909.985 437.808 909.847 437.143C909.407 435.862 907.673 435.771 906.456 435.177C903.692 433.827 903.759 429.925 904.242 426.887C903.921 428.91 896.718 425.469 895.964 424.324C894.465 422.047 895.281 417.656 894.984 415.141C891.749 416.7 890.502 421.324 892.163 424.506Z" fill="url(#paint17_linear_1_3)"/>
<path opacity="0.1" d="M819.598 464.546C818.269 463.057 816.267 461.5 814.484 462.397C813.124 463.082 812.75 464.965 813.283 466.391C813.933 467.777 814.932 468.969 816.183 469.85C819.898 472.914 823.897 475.68 827.138 479.242C832.937 485.617 836.009 494.219 842.315 500.092C843.583 501.454 845.261 502.362 847.094 502.679C848.932 502.85 850.995 501.674 851.206 499.84C851.38 498.329 850.327 496.977 849.299 495.858C846.849 493.192 844.167 490.739 841.854 487.953C840.786 486.883 840.114 485.481 839.951 483.978C839.939 482.478 841.306 480.908 842.759 481.28C840.992 480.828 839.682 477.884 837.089 477.33C834.923 476.868 834.398 478.21 831.82 477.103C826.901 474.993 823.043 468.403 819.598 464.546Z" fill="url(#paint18_linear_1_3)"/>
<path opacity="0.1" d="M935.164 319.58C933.753 319.161 932.366 318.665 931.009 318.096C927.357 316.999 922.525 319.684 923.012 323.467C923.335 325.98 925.674 327.675 926.965 329.855C928.88 333.088 928.37 337.189 927.363 340.81C927.116 341.931 926.646 342.991 925.982 343.926C925.052 344.914 923.941 345.714 922.709 346.281C917.778 349.048 913.429 352.744 909.903 357.165C909.519 357.573 909.252 358.077 909.129 358.623C908.955 359.9 910.239 360.831 910.964 361.896C912.576 364.262 911.411 367.447 911.57 370.306C911.546 370.71 911.625 371.114 911.8 371.479C911.976 371.844 912.241 372.158 912.572 372.392C913.543 372.885 914.694 372.047 915.221 371.092C916.968 367.926 915.652 362.842 918.93 361.315C919.55 361.026 920.302 360.905 920.716 360.36C921.372 359.495 920.739 358.216 921.071 357.182C921.571 355.631 923.692 355.561 925.319 355.63C928.123 355.747 930.926 355.374 933.601 354.527C934.651 354.278 935.604 353.725 936.343 352.939C937.323 351.716 937.236 349.976 937.04 348.421C936.06 340.667 933.604 333.172 929.807 326.341C932.686 326.709 935.819 327.028 938.304 325.526C939.695 324.686 941.364 322.172 940.674 320.461C939.582 317.755 937.611 320.033 935.164 319.58Z" fill="url(#paint19_linear_1_3)"/>
<path opacity="0.1" d="M566.014 362.227C566.358 364.076 566.697 366.023 566.091 367.803C565.486 369.584 563.58 371.071 561.781 370.526C560.385 370.103 559.578 368.698 558.587 367.627C553.073 361.672 540.632 365.12 537.226 357.753C535.836 354.746 536.781 351.144 535.833 347.97C535.234 346.136 534.044 344.552 532.449 343.468C530.853 342.384 528.943 341.86 527.018 341.98C525.262 342.234 523.553 342.744 521.945 343.495C511.176 347.809 499.869 350.638 488.337 351.903C486.146 352.037 483.978 352.432 481.88 353.079C477.145 354.796 473.909 359.187 471.607 363.669C469.304 368.15 467.605 373.001 464.518 376.983C461.273 381.167 456.727 384.097 452.487 387.266C450.853 388.319 449.493 389.745 448.518 391.427C447.598 393.315 447.65 395.511 447.722 397.61L448.588 423.103C448.7 426.382 448.84 429.779 450.307 432.713C452.139 436.377 455.758 438.777 458.268 442.014C460.83 445.341 462.165 449.451 462.046 453.648C461.993 455.336 461.825 457.332 463.139 458.392C463.938 458.91 464.874 459.179 465.826 459.165L500.298 461.987C506.362 462.484 513.082 463.3 517.041 467.922C518.91 470.103 520.411 473.239 523.273 473.473C524.5 473.574 525.695 473.07 526.923 472.972C530.02 472.727 532.742 475.079 534.459 477.67C537.058 481.618 538.238 486.334 537.805 491.042C537.524 493.997 536.608 496.87 536.41 499.832C535.659 511.102 545.21 520.894 545.395 532.189C545.504 538.832 542.351 545.039 539.278 550.929C544.238 558.446 540.176 568.457 542.151 577.245C544.025 585.583 550.974 592.111 552.706 600.479C553.499 604.31 553.545 609.025 556.922 610.998C558.403 611.72 560.046 612.049 561.692 611.953C571.618 612.071 581.432 609.836 590.329 605.432C594.505 603.359 598.832 600.264 599.562 595.658C600.15 591.944 598.267 587.789 600.183 584.554C602.441 580.74 608.227 581.043 611.55 578.111C616.941 573.355 612.737 564.284 614.922 557.433C616.885 551.275 623.643 548.004 626.994 542.477C628.312 540.1 629.258 537.535 629.799 534.872C631.334 528.505 632.289 522.012 632.653 515.473C632.743 511.5 633.035 507.534 633.531 503.591C637.143 481.143 659.327 466.111 666.53 444.546C667.218 442.486 667.541 439.743 665.709 438.578C664.623 438.059 663.391 437.93 662.221 438.212L646.33 440.217C644.357 440.465 642.264 440.698 640.452 439.878C638.639 439.058 637.34 436.764 638.301 435.022C641 430.131 635.449 423.951 632.982 418.939C626.34 405.444 618.429 392.611 609.358 380.613C608.778 379.996 608.414 379.206 608.322 378.364L612.832 378.514C611.31 373.049 608.798 367.069 603.49 365.07C600.5 363.943 597.188 364.333 593.997 364.507C584.857 365.007 575.059 363.626 566.014 362.227Z" fill="url(#paint20_linear_1_3)"/>
<path opacity="0.1" d="M594.004 239.077C596.396 241.617 599.076 244.311 602.536 244.754C608.648 245.536 613.042 239.214 615.84 233.722C615.944 235.122 616.589 236.426 617.639 237.358C618.69 238.289 620.061 238.774 621.463 238.709C622.972 238.455 624.412 237.892 625.693 237.055C637.802 230.435 651.366 226.927 665.165 226.847C665.033 225.802 665.292 224.744 665.893 223.878C666.494 223.012 667.395 222.4 668.421 222.159C671.226 221.603 673.754 224.029 675.107 226.55C676.46 229.071 677.304 231.993 679.455 233.879C681.605 235.766 685.768 235.684 686.618 232.952C687.433 230.329 684.701 228.092 682.432 226.545C680.162 224.999 677.77 222.136 679.299 219.854C690.893 217.287 702.56 214.709 714.424 214.199C716.444 214.269 718.457 213.923 720.337 213.18C722.146 212.292 723.584 210.276 723.097 208.319C720.508 208.928 717.797 208.752 715.308 207.813C712.82 206.874 710.667 205.215 709.125 203.047C725.587 201.688 743.097 200.53 757.687 208.279C759.437 212.039 750.514 215.167 752.902 218.558C753.663 219.639 755.189 219.766 756.511 219.791C766.649 219.979 776.846 220.164 786.871 218.632C790.534 218.073 794.234 217.283 797.912 217.737C804.037 218.493 809.277 222.581 815.303 223.914C817.756 224.457 820.507 224.475 822.574 223.048C824.642 221.621 825.531 218.371 823.837 216.516C829.511 210.953 838.929 212.331 846.414 214.995C853.9 217.658 860.992 221.954 868.915 222.547C874.597 222.973 880.357 221.444 885.971 222.416C889.499 223.027 892.782 224.597 896.23 225.561C902.752 227.385 909.65 227 916.421 227.088C933.697 227.321 950.784 230.718 966.837 237.11C968.925 237.79 970.838 238.921 972.441 240.422C973.935 242.022 974.697 244.509 973.693 246.454L957.105 244.029C958.668 247.107 962.711 247.632 965.995 248.693C969.278 249.755 972.683 253.383 970.71 256.215C967.152 255.081 963.928 258.64 962.131 261.913C960.334 265.187 958.144 269.108 954.415 269.308C951.077 269.486 947.039 266.642 944.863 269.182C947.869 272.976 950.444 277.093 952.538 281.458C954.688 285.938 956.22 291.584 953.314 295.616C952.857 296.335 952.163 296.873 951.353 297.137C948.979 297.738 947.437 294.834 945.735 293.073C943.591 290.855 940.347 290.227 937.443 289.186C934.539 288.146 931.479 286.1 931.252 283.022C931.11 281.107 932.121 279.327 932.865 277.557C934.117 274.574 934.664 271.343 934.465 268.114C934.302 265.516 933.574 262.814 931.709 260.999C929.844 259.184 926.624 258.609 924.622 260.271C923.688 261.047 922.939 262.287 921.726 262.334C919.583 262.416 917.937 258.677 916.213 259.953C916.415 261.313 916.133 262.701 915.416 263.874C910.27 268.351 902.365 266.457 895.731 268.038C892.576 268.941 889.556 270.261 886.749 271.962C885.699 272.411 884.806 273.161 884.182 274.118C883.354 275.727 884.267 277.789 885.727 278.86C887.275 279.809 889.014 280.403 890.819 280.599C898.907 282.131 907.113 284.503 913.499 289.7C919.884 294.897 924.071 303.487 922.051 311.47L906.101 296.224C906.707 302.625 907.051 309.044 907.132 315.481C907.236 316.738 907.063 318.002 906.627 319.185C905.49 321.697 902.408 322.543 899.707 323.097C898.956 323.24 898.244 323.54 897.617 323.978C896.99 324.416 896.463 324.981 896.07 325.637C895.677 326.293 895.427 327.025 895.337 327.785C895.247 328.544 895.318 329.314 895.547 330.044C896.506 333.173 898.899 335.612 901.089 338.042C903.28 340.473 905.435 343.235 905.722 346.495C906.009 349.755 903.55 353.429 900.287 353.202C897.813 353.031 895.978 350.815 894.922 348.57C893.867 346.325 893.239 343.824 891.654 341.917C886.855 336.143 876.076 338.617 871.777 332.462C870.681 333.705 869.921 335.208 869.569 336.828C869.218 338.448 869.285 340.131 869.767 341.717C871.767 340.465 874.504 341.629 876.007 343.448C877.51 345.268 878.219 347.602 879.399 349.646C880.991 352.404 883.525 354.849 883.748 358.026C883.689 359.228 883.709 360.432 883.808 361.631C884.203 363.556 885.83 364.938 886.957 366.547C889.582 370.292 889.452 375.435 887.761 379.684C886.069 383.932 883.03 387.482 880.02 390.924C874.763 396.935 869.399 402.912 863.166 407.904C861.388 409.328 859.49 410.729 858.382 412.72C857.274 414.712 857.218 417.507 858.92 419.022C857.702 419.083 855.518 419.683 854.3 419.744C853.872 414.856 853.779 409.945 854.021 405.045C849.215 402.737 844.04 408.919 844.66 414.216C845.281 419.514 849.111 423.764 851.837 428.347C853.832 431.699 855.313 435.607 854.648 439.45C853.982 443.293 850.553 446.838 846.669 446.499C840.491 445.96 837.907 437.087 831.789 436.072C831.249 435.945 830.683 436.001 830.179 436.232C829.271 436.73 829.113 437.946 829.062 438.981C828.812 444.061 828.595 449.343 830.577 454.027C833.477 460.878 840.969 466.633 839.398 473.906C830.931 469.969 826.53 460.472 824.531 451.349C822.533 442.226 822.199 432.649 818.617 424.024C815.897 427.512 810.179 424.629 807.693 420.97C805.337 417.501 803.886 413.488 801.6 409.972C799.314 406.456 795.812 403.308 791.623 403.115C787.232 402.912 783.424 405.926 780.075 408.775C777.321 411.117 774.493 413.551 772.883 416.789C770.541 421.5 771.154 427.054 771.041 432.315C770.919 438.002 769.714 444.002 765.839 448.166C761.964 452.329 754.812 453.78 750.538 450.027C748.307 448.068 747.227 445.141 746.264 442.332C741.626 428.789 737.763 414.993 734.694 401.01C733.976 404.202 731.174 408.315 728.498 406.435C727.898 405.93 727.411 405.303 727.071 404.595C722.079 396.132 712.834 391.055 703.494 388.011C694.153 384.967 684.326 383.547 675.089 380.202C669.913 378.327 664.969 375.863 660.354 372.86C659.178 374.589 658.491 376.604 658.366 378.691C658.242 380.779 658.684 382.861 659.646 384.718C661.695 388.347 666.332 390.447 670.301 389.179C672.352 388.523 674.084 387.099 676.119 386.395C678.154 385.692 680.885 386.037 681.775 387.999C682.627 389.876 681.339 392.147 681.978 394.107C682.951 397.093 687.452 397.323 689.026 400.04C690.197 402.061 689.234 404.745 687.561 406.376C685.889 408.007 683.658 408.902 681.617 410.037C674.994 413.722 670.285 420.011 664.497 424.903C658.709 429.796 650.543 433.369 643.645 430.23C645.289 421.901 635.372 415.787 633.547 407.495C632.946 404.766 633.258 401.868 632.4 399.208C631.159 395.358 627.744 392.71 624.943 389.792C621.545 386.215 618.898 381.993 617.158 377.375C615.417 372.757 614.619 367.838 614.811 362.907C614.962 359.48 615.591 355.998 614.811 352.658C614.031 349.318 611.266 346.085 607.841 346.236C600.017 346.582 590.161 347.164 586.057 340.493C584.592 338.111 583.954 334.624 586.072 332.8C587.566 331.513 589.772 331.634 591.734 331.827L609.362 333.562C613.485 333.967 617.941 334.302 621.479 332.146C625.017 329.99 626.55 324.267 623.274 321.73C620.881 319.876 616.592 319.977 615.896 317.03C615.317 314.576 618.032 311.791 616.566 309.74C615.514 308.269 613.15 308.677 611.717 309.78C610.284 310.882 609.245 312.494 607.641 313.329C604.828 314.794 601.467 313.4 598.441 312.453C595.415 311.506 591.358 311.425 589.89 314.237C588.249 317.381 591.346 321.502 589.717 324.653C587.563 328.819 580.269 326.447 577.244 330.031C573.772 334.143 579.606 340.274 578.435 345.527C576.94 346.268 575.28 346.608 573.614 346.514C571.949 346.421 570.337 345.897 568.935 344.993C567.555 344.055 566.456 342.76 565.754 341.247C565.052 339.733 564.773 338.058 564.947 336.398C565.237 334.035 566.468 331.623 565.643 329.39C564.976 327.584 563.164 326.509 561.479 325.578L544.349 316.109C542.759 319.06 544.769 322.719 547.284 324.936C549.799 327.153 552.948 328.822 554.6 331.74C555.645 333.761 555.879 336.105 555.255 338.293C554.631 340.481 553.195 342.349 551.241 343.514C550.996 343.683 550.717 343.797 550.424 343.848C550.131 343.899 549.831 343.886 549.543 343.81C549.27 343.649 549.031 343.435 548.842 343.181C548.653 342.926 548.517 342.637 548.442 342.329C545.419 334.591 540.881 326.962 533.626 322.92C526.371 318.879 515.947 319.71 511.189 326.518C510.059 328.136 509.301 329.979 508.316 331.689C503.087 340.773 491.874 345.074 481.399 344.793C480.374 344.85 479.355 344.611 478.463 344.103C476.77 342.934 476.846 340.452 477.105 338.41L478.205 329.744C478.426 328.004 478.745 326.081 480.122 324.995C482.063 323.464 484.862 324.43 487.334 324.395C489.206 324.307 491.006 323.645 492.49 322.5C493.974 321.354 495.07 319.78 495.629 317.99C496.128 316.183 496.125 314.274 495.62 312.468C495.114 310.663 494.126 309.029 492.761 307.744C491.629 306.68 490.108 305.343 490.707 303.908C490.945 303.511 491.268 303.171 491.652 302.913C492.036 302.654 492.472 302.483 492.93 302.411C497.369 301.121 502.059 300.783 506.425 299.261C510.79 297.74 515.023 294.627 516.057 290.119C516.374 288.738 516.518 287.065 517.758 286.38C518.38 286.117 519.049 285.981 519.724 285.978C522.091 285.642 524.246 284.431 525.764 282.584C527.283 280.738 528.056 278.389 527.931 276.001C530.023 274.539 532.954 275.615 534.977 277.17C537.001 278.725 538.788 280.78 541.251 281.451C545.84 282.7 550.275 278.635 555.031 278.617C557.031 278.609 559.102 279.316 560.983 278.638C562.891 277.95 564.03 276.051 565.494 274.647C566.958 273.244 569.527 272.388 570.879 273.9L569.728 265.37C572.046 265.955 574.463 266.038 576.816 265.613C579.169 265.187 581.404 264.263 583.37 262.902L568.492 257.873C567.974 257.744 567.496 257.488 567.101 257.129C566.019 255.964 567.093 254.148 567.973 252.824C570.077 249.655 570.43 244.436 566.97 242.859C564.608 241.782 561.897 243.074 559.63 244.339L548.771 250.396C548.426 252.461 550.95 253.631 552.514 255.022C553.461 255.863 554.131 256.971 554.436 258.201C554.741 259.43 554.668 260.723 554.225 261.91C553.782 263.096 552.991 264.121 551.955 264.85C550.92 265.578 549.688 265.977 548.422 265.992C549.137 266.922 549.634 268.001 549.875 269.149C550.117 270.297 550.098 271.485 549.818 272.625L542.512 273.15C541.692 273.315 540.84 273.149 540.142 272.688C539.361 271.993 539.467 270.777 539.286 269.747C538.849 267.262 536.416 265.52 533.933 265.073C531.451 264.627 528.911 265.199 526.452 265.765C525.408 266.14 524.262 266.114 523.237 265.69C522.649 265.308 522.202 264.744 521.964 264.084C520.887 261.47 521.894 258.397 523.625 256.161C525.356 253.926 527.726 252.291 529.854 250.43C534.943 245.963 538.683 240.161 540.649 233.68C544.672 231.994 548.836 229.704 552.858 228.018C559.059 224.877 566.013 223.53 572.937 224.126L586.559 224.386C590.591 224.463 594.733 224.562 598.462 226.1C602.191 227.638 605.468 230.965 605.725 234.991C605.803 235.447 605.764 235.915 605.611 236.352C605.458 236.788 605.197 237.179 604.852 237.487C604.325 237.774 603.729 237.909 603.13 237.875C599.369 238.007 597.765 238.945 594.004 239.077Z" fill="url(#paint21_linear_1_3)"/>
<path opacity="0.1" d="M485.434 281.781C485.967 281.278 486.35 280.637 486.541 279.929C486.733 279.222 486.726 278.475 486.521 277.771C485.226 277.271 483.818 277.143 482.454 277.401C481.09 277.658 479.825 278.292 478.801 279.23C477.994 280.046 477.299 280.966 476.733 281.965C474.943 284.886 473.36 288.375 474.397 291.641C474.482 291.997 474.637 292.332 474.853 292.628C475.069 292.923 475.341 293.173 475.655 293.361C476.12 293.548 476.621 293.627 477.121 293.591C479.093 293.588 481.062 293.467 483.02 293.228C484.222 293.081 485.618 292.741 486.082 291.623C486.693 290.152 485.215 288.488 485.646 286.955C485.929 286.27 486.359 285.654 486.904 285.152C487.175 284.899 487.383 284.586 487.512 284.239C487.641 283.892 487.687 283.519 487.647 283.151C487.473 282.431 486.372 282.023 485.976 282.648" fill="url(#paint22_linear_1_3)"/>
<path opacity="0.1" d="M495.659 268.521C493.907 268.118 492.102 268.005 490.314 268.185C489.918 268.173 489.526 268.262 489.175 268.444C488.834 268.695 488.587 269.053 488.473 269.461C488.095 270.673 488.188 271.984 488.733 273.131C489.278 274.278 490.234 275.178 491.413 275.651C492.055 275.799 492.67 276.046 493.236 276.384C494.748 277.558 493.784 279.956 494.07 281.849C494.392 283.974 496.448 285.758 496.071 287.874C495.774 289.541 493.994 290.861 494.28 292.531C494.581 294.279 496.798 294.804 498.566 294.944C499.59 295.123 500.644 295.002 501.601 294.596C502.561 293.939 503.243 292.951 503.517 291.821C504.24 289.666 504.544 287.393 504.413 285.124C504.405 284.092 504.146 283.077 503.658 282.168C503.125 281.447 502.535 280.772 501.894 280.147C498.507 276.207 502.073 270.329 495.659 268.521Z" fill="url(#paint23_linear_1_3)"/>
<defs>
<linearGradient id="paint0_linear_1_3" x1="223.313" y1="213.684" x2="223.313" y2="692.747" gradientUnits="userSpaceOnUse">
<stop stop-color="#7165E3"/>
<stop offset="1" stop-color="#7165E3" stop-opacity="0"/>
</linearGradient>
<linearGradient id="paint1_linear_1_3" x1="259.942" y1="204.56" x2="259.942" y2="214.017" gradientUnits="userSpaceOnUse">
<stop stop-color="#7165E3"/>
<stop offset="1" stop-color="#7165E3" stop-opacity="0"/>
</linearGradient>
<linearGradient id="paint2_linear_1_3" x1="278.922" y1="201.438" x2="278.922" y2="206.185" gradientUnits="userSpaceOnUse">
<stop stop-color="#7165E3"/>
<stop offset="1" stop-color="#7165E3" stop-opacity="0"/>
</linearGradient>
<linearGradient id="paint3_linear_1_3" x1="343.444" y1="191.167" x2="343.444" y2="214.147" gradientUnits="userSpaceOnUse">
<stop stop-color="#7165E3"/>
<stop offset="1" stop-color="#7165E3" stop-opacity="0"/>
</linearGradient>
<linearGradient id="paint4_linear_1_3" x1="418.559" y1="190.611" x2="418.559" y2="263.526" gradientUnits="userSpaceOnUse">
<stop stop-color="#7165E3"/>
<stop offset="1" stop-color="#7165E3" stop-opacity="0"/>
</linearGradient>
<linearGradient id="paint5_linear_1_3" x1="462.191" y1="239.475" x2="462.191" y2="252.743" gradientUnits="userSpaceOnUse">
<stop stop-color="#7165E3"/>
<stop offset="1" stop-color="#7165E3" stop-opacity="0"/>
</linearGradient>
<linearGradient id="paint6_linear_1_3" x1="549.987" y1="195.685" x2="549.987" y2="212.493" gradientUnits="userSpaceOnUse">
<stop stop-color="#7165E3"/>
<stop offset="1" stop-color="#7165E3" stop-opacity="0"/>
</linearGradient>
<linearGradient id="paint7_linear_1_3" x1="623.488" y1="195.872" x2="623.488" y2="204.799" gradientUnits="userSpaceOnUse">
<stop stop-color="#7165E3"/>
<stop offset="1" stop-color="#7165E3" stop-opacity="0"/>
</linearGradient>
<linearGradient id="paint8_linear_1_3" x1="642.718" y1="206.145" x2="642.718" y2="228.545" gradientUnits="userSpaceOnUse">
<stop stop-color="#7165E3"/>
<stop offset="1" stop-color="#7165E3" stop-opacity="0"/>
</linearGradient>
<linearGradient id="paint9_linear_1_3" x1="652.217" y1="528.837" x2="652.217" y2="574.935" gradientUnits="userSpaceOnUse">
<stop stop-color="#7165E3"/>
<stop offset="1" stop-color="#7165E3" stop-opacity="0"/>
</linearGradient>
<linearGradient id="paint10_linear_1_3" x1="945.173" y1="634.23" x2="945.173" y2="649.392" gradientUnits="userSpaceOnUse">
<stop stop-color="#7165E3"/>
<stop offset="1" stop-color="#7165E3" stop-opacity="0"/>
</linearGradient>
<linearGradient id="paint11_linear_1_3" x1="1009.34" y1="636.666" x2="1009.34" y2="656.854" gradientUnits="userSpaceOnUse">
<stop stop-color="#7165E3"/>
<stop offset="1" stop-color="#7165E3" stop-opacity="0"/>
</linearGradient>
<linearGradient id="paint12_linear_1_3" x1="1041.52" y1="612.661" x2="1041.52" y2="634.968" gradientUnits="userSpaceOnUse">
<stop stop-color="#7165E3"/>
<stop offset="1" stop-color="#7165E3" stop-opacity="0"/>
</linearGradient>
<linearGradient id="paint13_linear_1_3" x1="968.9" y1="490.924" x2="968.9" y2="524.466" gradientUnits="userSpaceOnUse">
<stop stop-color="#7165E3"/>
<stop offset="1" stop-color="#7165E3" stop-opacity="0"/>
</linearGradient>
<linearGradient id="paint14_linear_1_3" x1="925.183" y1="523.236" x2="925.183" y2="631.163" gradientUnits="userSpaceOnUse">
<stop stop-color="#7165E3"/>
<stop offset="1" stop-color="#7165E3" stop-opacity="0"/>
</linearGradient>
<linearGradient id="paint15_linear_1_3" x1="883.698" y1="507.313" x2="883.698" y2="517.044" gradientUnits="userSpaceOnUse">
<stop stop-color="#7165E3"/>
<stop offset="1" stop-color="#7165E3" stop-opacity="0"/>
</linearGradient>
<linearGradient id="paint16_linear_1_3" x1="874.682" y1="460.327" x2="874.682" y2="497.511" gradientUnits="userSpaceOnUse">
<stop stop-color="#7165E3"/>
<stop offset="1" stop-color="#7165E3" stop-opacity="0"/>
</linearGradient>
<linearGradient id="paint17_linear_1_3" x1="903.552" y1="415.141" x2="903.552" y2="459.655" gradientUnits="userSpaceOnUse">
<stop stop-color="#7165E3"/>
<stop offset="1" stop-color="#7165E3" stop-opacity="0"/>
</linearGradient>
<linearGradient id="paint18_linear_1_3" x1="832.138" y1="462.133" x2="832.138" y2="502.696" gradientUnits="userSpaceOnUse">
<stop stop-color="#7165E3"/>
<stop offset="1" stop-color="#7165E3" stop-opacity="0"/>
</linearGradient>
<linearGradient id="paint19_linear_1_3" x1="924.974" y1="317.848" x2="924.974" y2="372.538" gradientUnits="userSpaceOnUse">
<stop stop-color="#7165E3"/>
<stop offset="1" stop-color="#7165E3" stop-opacity="0"/>
</linearGradient>
<linearGradient id="paint20_linear_1_3" x1="557.38" y1="341.963" x2="557.38" y2="611.97" gradientUnits="userSpaceOnUse">
<stop stop-color="#7165E3"/>
<stop offset="1" stop-color="#7165E3" stop-opacity="0"/>
</linearGradient>
<linearGradient id="paint21_linear_1_3" x1="725.556" y1="202.062" x2="725.556" y2="473.906" gradientUnits="userSpaceOnUse">
<stop stop-color="#7165E3"/>
<stop offset="1" stop-color="#7165E3" stop-opacity="0"/>
</linearGradient>
<linearGradient id="paint22_linear_1_3" x1="480.864" y1="277.271" x2="480.864" y2="293.599" gradientUnits="userSpaceOnUse">
<stop stop-color="#7165E3"/>
<stop offset="1" stop-color="#7165E3" stop-opacity="0"/>
</linearGradient>
<linearGradient id="paint23_linear_1_3" x1="496.343" y1="268.102" x2="496.343" y2="295.025" gradientUnits="userSpaceOnUse">
<stop stop-color="#7165E3"/>
<stop offset="1" stop-color="#7165E3" stop-opacity="0"/>
</linearGradient>
</defs>
</svg>
