<svg width="496" height="376" viewBox="0 0 496 376" fill="none" xmlns="http://www.w3.org/2000/svg">
<g filter="url(#filter0_d_486_6613)">
<rect x="24" y="22" width="323" height="156" rx="19" fill="white" shape-rendering="crispEdges"/>
<rect x="56" y="46" width="40" height="40" rx="14" fill="#7165E3" fill-opacity="0.1"/>
<path fill-rule="evenodd" clip-rule="evenodd" d="M76.02 57C73.7615 57 71.7035 57.746 70.486 58.3555C70.376 58.4105 70.2735 58.4645 70.178 58.5165C69.989 58.6195 69.828 58.7155 69.7 58.8L71.085 60.839L71.737 61.0985C74.285 62.384 77.702 62.384 80.2505 61.0985L80.9905 60.7145L82.3005 58.8C82.0291 58.623 81.7469 58.4632 81.4555 58.3215C80.2445 57.7185 78.236 57 76.02 57ZM72.7985 59.308C72.3081 59.2162 71.8237 59.0947 71.348 58.944C72.4885 58.4375 74.1885 57.9 76.0195 57.9C77.288 57.9 78.4875 58.158 79.4795 58.485C78.317 58.6485 77.0765 58.926 75.8945 59.2675C74.9645 59.5365 73.8775 59.5075 72.7985 59.308ZM80.7785 61.84L80.656 61.902C77.8525 63.316 74.1345 63.316 71.331 61.902L71.215 61.843C67.004 66.4635 63.789 74.9985 76.02 74.9985C88.25 74.9985 84.9565 66.304 80.7785 61.84ZM75.5 66C75.2348 66 74.9804 66.1054 74.7929 66.2929C74.6054 66.4804 74.5 66.7348 74.5 67C74.5 67.2652 74.6054 67.5196 74.7929 67.7071C74.9804 67.8946 75.2348 68 75.5 68V66ZM76.5 65V64.5H75.5V65C74.9696 65 74.4609 65.2107 74.0858 65.5858C73.7107 65.9609 73.5 66.4696 73.5 67C73.5 67.5304 73.7107 68.0391 74.0858 68.4142C74.4609 68.7893 74.9696 69 75.5 69V71C75.2932 71.0001 75.0915 70.936 74.9226 70.8166C74.7537 70.6973 74.626 70.5285 74.557 70.3335C74.5128 70.2085 74.4208 70.1061 74.3012 70.0489C74.1815 69.9917 74.044 69.9843 73.919 70.0285C73.7939 70.0727 73.6916 70.1647 73.6344 70.2843C73.5772 70.404 73.5698 70.5415 73.614 70.6665C73.7519 71.0565 74.0073 71.3941 74.3451 71.6329C74.6829 71.8718 75.0863 72 75.5 72V72.5H76.5V72C77.0304 72 77.5391 71.7893 77.9142 71.4142C78.2893 71.0391 78.5 70.5304 78.5 70C78.5 69.4696 78.2893 68.9609 77.9142 68.5858C77.5391 68.2107 77.0304 68 76.5 68V66C76.935 66 77.3055 66.2775 77.4435 66.6665C77.464 66.7301 77.497 66.789 77.5406 66.8397C77.5843 66.8903 77.6376 66.9317 77.6975 66.9614C77.7574 66.9911 77.8227 67.0084 77.8894 67.0125C77.9561 67.0165 78.023 67.0071 78.086 66.9848C78.1491 66.9625 78.207 66.9279 78.2564 66.8828C78.3058 66.8378 78.3457 66.7833 78.3736 66.7225C78.4016 66.6618 78.4171 66.5961 78.4192 66.5293C78.4213 66.4624 78.41 66.3959 78.386 66.3335C78.2481 65.9435 77.9927 65.6059 77.6549 65.3671C77.3171 65.1282 76.9137 65 76.5 65ZM76.5 69V71C76.7652 71 77.0196 70.8946 77.2071 70.7071C77.3946 70.5196 77.5 70.2652 77.5 70C77.5 69.7348 77.3946 69.4804 77.2071 69.2929C77.0196 69.1054 76.7652 69 76.5 69Z" fill="#7165E3"/>
<path d="M115.408 72V61.52H112.176V60.08H120.176V61.52H116.992V72H115.408ZM124.322 72.192C123.49 72.192 122.738 72 122.066 71.616C121.394 71.2213 120.861 70.6827 120.466 70C120.072 69.3173 119.874 68.544 119.874 67.68C119.874 66.816 120.066 66.048 120.45 65.376C120.845 64.704 121.378 64.1707 122.05 63.776C122.722 63.3813 123.48 63.184 124.322 63.184C125.154 63.184 125.906 63.3813 126.578 63.776C127.25 64.16 127.778 64.688 128.162 65.36C128.557 66.032 128.754 66.8053 128.754 67.68C128.754 68.5547 128.552 69.3333 128.146 70.016C127.741 70.688 127.202 71.2213 126.53 71.616C125.869 72 125.133 72.192 124.322 72.192ZM124.322 70.752C124.856 70.752 125.336 70.6187 125.762 70.352C126.2 70.0853 126.541 69.7173 126.786 69.248C127.042 68.7787 127.17 68.256 127.17 67.68C127.17 67.0933 127.042 66.576 126.786 66.128C126.541 65.6693 126.2 65.3067 125.762 65.04C125.336 64.7627 124.856 64.624 124.322 64.624C123.778 64.624 123.288 64.7627 122.85 65.04C122.424 65.3067 122.082 65.6693 121.826 66.128C121.57 66.576 121.442 67.0933 121.442 67.68C121.442 68.256 121.57 68.7787 121.826 69.248C122.082 69.7173 122.424 70.0853 122.85 70.352C123.288 70.6187 123.778 70.752 124.322 70.752ZM133.883 72.096C133.04 72.096 132.39 71.856 131.931 71.376C131.483 70.896 131.259 70.2187 131.259 69.344V64.8H129.691V63.376H130.011C130.395 63.376 130.699 63.2587 130.923 63.024C131.147 62.7893 131.259 62.48 131.259 62.096V61.392H132.747V63.376H134.683V64.8H132.747V69.296C132.747 69.584 132.79 69.8347 132.875 70.048C132.971 70.2613 133.126 70.432 133.339 70.56C133.552 70.6773 133.835 70.736 134.187 70.736C134.262 70.736 134.352 70.7307 134.459 70.72C134.576 70.7093 134.683 70.6987 134.779 70.688V72C134.64 72.032 134.486 72.0533 134.315 72.064C134.144 72.0853 134 72.096 133.883 72.096ZM138.981 72.192C138.416 72.192 137.915 72.0907 137.477 71.888C137.051 71.6747 136.715 71.3867 136.469 71.024C136.224 70.6507 136.101 70.224 136.101 69.744C136.101 69.2853 136.197 68.8747 136.389 68.512C136.592 68.1387 136.901 67.824 137.317 67.568C137.744 67.312 138.277 67.1307 138.917 67.024L142.117 66.496V67.744L139.253 68.224C138.699 68.32 138.293 68.496 138.037 68.752C137.792 69.008 137.669 69.3227 137.669 69.696C137.669 70.048 137.808 70.3413 138.085 70.576C138.373 70.8107 138.731 70.928 139.157 70.928C139.701 70.928 140.171 70.816 140.565 70.592C140.971 70.3573 141.285 70.0427 141.509 69.648C141.744 69.2533 141.861 68.816 141.861 68.336V66.144C141.861 65.6747 141.685 65.296 141.333 65.008C140.992 64.7093 140.539 64.56 139.973 64.56C139.483 64.56 139.045 64.688 138.661 64.944C138.288 65.1893 138.011 65.52 137.829 65.936L136.533 65.264C136.693 64.8693 136.949 64.5173 137.301 64.208C137.653 63.888 138.064 63.6373 138.533 63.456C139.003 63.2747 139.493 63.184 140.005 63.184C140.667 63.184 141.248 63.312 141.749 63.568C142.251 63.8133 142.64 64.16 142.917 64.608C143.205 65.0453 143.349 65.5573 143.349 66.144V72H141.893V70.368L142.165 70.464C141.984 70.8053 141.739 71.104 141.429 71.36C141.12 71.616 140.757 71.8187 140.341 71.968C139.925 72.1173 139.472 72.192 138.981 72.192ZM145.496 72V59.888H146.984V72H145.496ZM151.739 72V63.376H153.195V64.96L153.035 64.736C153.238 64.2453 153.547 63.8827 153.963 63.648C154.379 63.4027 154.886 63.28 155.483 63.28H156.011V64.688H155.259C154.651 64.688 154.16 64.88 153.787 65.264C153.414 65.6373 153.227 66.1707 153.227 66.864V72H151.739ZM161.141 72.192C160.309 72.192 159.567 71.9947 158.917 71.6C158.266 71.2053 157.754 70.6667 157.381 69.984C157.007 69.2907 156.821 68.5173 156.821 67.664C156.821 66.8 157.002 66.032 157.365 65.36C157.738 64.688 158.239 64.16 158.869 63.776C159.509 63.3813 160.223 63.184 161.013 63.184C161.653 63.184 162.218 63.3013 162.709 63.536C163.21 63.76 163.631 64.0693 163.973 64.464C164.325 64.848 164.591 65.2907 164.773 65.792C164.965 66.2827 165.061 66.7947 165.061 67.328C165.061 67.4453 165.05 67.5787 165.029 67.728C165.018 67.8667 165.002 68 164.981 68.128H157.909V66.848H164.117L163.413 67.424C163.509 66.8693 163.455 66.3733 163.253 65.936C163.05 65.4987 162.751 65.152 162.357 64.896C161.962 64.64 161.514 64.512 161.013 64.512C160.511 64.512 160.053 64.64 159.637 64.896C159.221 65.152 158.895 65.52 158.661 66C158.437 66.4693 158.346 67.0293 158.389 67.68C158.346 68.3093 158.442 68.864 158.677 69.344C158.922 69.8133 159.263 70.1813 159.701 70.448C160.149 70.704 160.634 70.832 161.157 70.832C161.733 70.832 162.218 70.6987 162.613 70.432C163.007 70.1653 163.327 69.824 163.573 69.408L164.821 70.048C164.65 70.4427 164.383 70.8053 164.021 71.136C163.669 71.456 163.247 71.712 162.757 71.904C162.277 72.096 161.738 72.192 161.141 72.192ZM169.085 72L165.709 63.376H167.373L170.077 70.672H169.501L172.221 63.376H173.885L170.493 72H169.085ZM178.868 72.192C178.036 72.192 177.294 71.9947 176.644 71.6C175.993 71.2053 175.481 70.6667 175.108 69.984C174.734 69.2907 174.548 68.5173 174.548 67.664C174.548 66.8 174.729 66.032 175.092 65.36C175.465 64.688 175.966 64.16 176.596 63.776C177.236 63.3813 177.95 63.184 178.74 63.184C179.38 63.184 179.945 63.3013 180.436 63.536C180.937 63.76 181.358 64.0693 181.7 64.464C182.052 64.848 182.318 65.2907 182.5 65.792C182.692 66.2827 182.788 66.7947 182.788 67.328C182.788 67.4453 182.777 67.5787 182.756 67.728C182.745 67.8667 182.729 68 182.708 68.128H175.636V66.848H181.844L181.14 67.424C181.236 66.8693 181.182 66.3733 180.98 65.936C180.777 65.4987 180.478 65.152 180.084 64.896C179.689 64.64 179.241 64.512 178.74 64.512C178.238 64.512 177.78 64.64 177.364 64.896C176.948 65.152 176.622 65.52 176.388 66C176.164 66.4693 176.073 67.0293 176.116 67.68C176.073 68.3093 176.169 68.864 176.404 69.344C176.649 69.8133 176.99 70.1813 177.428 70.448C177.876 70.704 178.361 70.832 178.884 70.832C179.46 70.832 179.945 70.6987 180.34 70.432C180.734 70.1653 181.054 69.824 181.3 69.408L182.548 70.048C182.377 70.4427 182.11 70.8053 181.748 71.136C181.396 71.456 180.974 71.712 180.484 71.904C180.004 72.096 179.465 72.192 178.868 72.192ZM184.568 72V63.376H186.024V65.056L185.784 64.912C185.997 64.368 186.338 63.9467 186.808 63.648C187.288 63.3387 187.848 63.184 188.488 63.184C189.106 63.184 189.656 63.3227 190.136 63.6C190.626 63.8773 191.01 64.2613 191.288 64.752C191.576 65.2427 191.72 65.7973 191.72 66.416V72H190.216V66.896C190.216 66.416 190.13 66.0107 189.96 65.68C189.789 65.3493 189.544 65.0933 189.224 64.912C188.914 64.72 188.557 64.624 188.152 64.624C187.746 64.624 187.384 64.72 187.064 64.912C186.754 65.0933 186.509 65.3547 186.328 65.696C186.146 66.0267 186.056 66.4267 186.056 66.896V72H184.568ZM196.745 72.192C196.126 72.192 195.566 72.048 195.065 71.76C194.574 71.472 194.19 71.072 193.913 70.56C193.646 70.0373 193.513 69.44 193.513 68.768V63.376H195.001V68.608C195.001 69.0347 195.086 69.408 195.257 69.728C195.438 70.048 195.684 70.2987 195.993 70.48C196.313 70.6613 196.676 70.752 197.081 70.752C197.486 70.752 197.844 70.6613 198.153 70.48C198.473 70.2987 198.718 70.0373 198.889 69.696C199.07 69.3547 199.161 68.9493 199.161 68.48V63.376H200.665V72H199.209V70.32L199.449 70.464C199.246 71.008 198.9 71.4347 198.409 71.744C197.929 72.0427 197.374 72.192 196.745 72.192ZM206.778 72.192C205.946 72.192 205.205 71.9947 204.554 71.6C203.903 71.2053 203.391 70.6667 203.018 69.984C202.645 69.2907 202.458 68.5173 202.458 67.664C202.458 66.8 202.639 66.032 203.002 65.36C203.375 64.688 203.877 64.16 204.506 63.776C205.146 63.3813 205.861 63.184 206.65 63.184C207.29 63.184 207.855 63.3013 208.346 63.536C208.847 63.76 209.269 64.0693 209.61 64.464C209.962 64.848 210.229 65.2907 210.41 65.792C210.602 66.2827 210.698 66.7947 210.698 67.328C210.698 67.4453 210.687 67.5787 210.666 67.728C210.655 67.8667 210.639 68 210.618 68.128H203.546V66.848H209.754L209.05 67.424C209.146 66.8693 209.093 66.3733 208.89 65.936C208.687 65.4987 208.389 65.152 207.994 64.896C207.599 64.64 207.151 64.512 206.65 64.512C206.149 64.512 205.69 64.64 205.274 64.896C204.858 65.152 204.533 65.52 204.298 66C204.074 66.4693 203.983 67.0293 204.026 67.68C203.983 68.3093 204.079 68.864 204.314 69.344C204.559 69.8133 204.901 70.1813 205.338 70.448C205.786 70.704 206.271 70.832 206.794 70.832C207.37 70.832 207.855 70.6987 208.25 70.432C208.645 70.1653 208.965 69.824 209.21 69.408L210.458 70.048C210.287 70.4427 210.021 70.8053 209.658 71.136C209.306 71.456 208.885 71.712 208.394 71.904C207.914 72.096 207.375 72.192 206.778 72.192Z" fill="#8B8B8B"/>
<path d="M66.11 130.36C64.71 130.36 63.39 130.11 62.15 129.61C60.93 129.09 59.87 128.36 58.97 127.42C58.09 126.48 57.43 125.37 56.99 124.09L60.8 122.38C61.36 123.6 62.13 124.56 63.11 125.26C64.11 125.96 65.21 126.31 66.41 126.31C67.05 126.31 67.6 126.21 68.06 126.01C68.52 125.81 68.88 125.54 69.14 125.2C69.4 124.84 69.53 124.42 69.53 123.94C69.53 123.42 69.37 122.98 69.05 122.62C68.73 122.24 68.23 121.94 67.55 121.72L63.17 120.28C61.39 119.7 60.05 118.88 59.15 117.82C58.25 116.74 57.8 115.45 57.8 113.95C57.8 112.63 58.12 111.47 58.76 110.47C59.42 109.47 60.33 108.69 61.49 108.13C62.67 107.57 64.02 107.29 65.54 107.29C66.88 107.29 68.12 107.52 69.26 107.98C70.4 108.44 71.38 109.09 72.2 109.93C73.04 110.77 73.67 111.78 74.09 112.96L70.31 114.67C69.89 113.63 69.26 112.82 68.42 112.24C67.58 111.64 66.62 111.34 65.54 111.34C64.92 111.34 64.37 111.44 63.89 111.64C63.41 111.84 63.04 112.13 62.78 112.51C62.52 112.87 62.39 113.29 62.39 113.77C62.39 114.29 62.56 114.75 62.9 115.15C63.24 115.53 63.75 115.83 64.43 116.05L68.72 117.43C70.52 118.01 71.86 118.82 72.74 119.86C73.64 120.9 74.09 122.17 74.09 123.67C74.09 124.97 73.75 126.13 73.07 127.15C72.39 128.15 71.45 128.94 70.25 129.52C69.07 130.08 67.69 130.36 66.11 130.36ZM64.64 133V104.65H67.34V133H64.64ZM84.7838 130.36C83.2438 130.36 81.8738 130.04 80.6738 129.4C79.4738 128.74 78.5338 127.85 77.8538 126.73C77.1738 125.61 76.8338 124.35 76.8338 122.95C76.8338 122.25 76.9038 121.55 77.0438 120.85C77.1838 120.15 77.4638 119.38 77.8838 118.54C78.3038 117.7 78.9338 116.74 79.7738 115.66L85.9838 107.65H91.5338L84.0038 117.28L83.2538 116.23C83.5338 116.09 83.8038 115.98 84.0638 115.9C84.3238 115.82 84.5738 115.76 84.8138 115.72C85.0738 115.68 85.3438 115.66 85.6238 115.66C87.0038 115.66 88.2238 115.97 89.2838 116.59C90.3638 117.21 91.2038 118.06 91.8038 119.14C92.4238 120.2 92.7338 121.4 92.7338 122.74C92.7338 124.2 92.3938 125.51 91.7138 126.67C91.0338 127.81 90.0938 128.71 88.8938 129.37C87.7138 130.03 86.3438 130.36 84.7838 130.36ZM84.7838 126.16C85.4038 126.16 85.9538 126.02 86.4338 125.74C86.9338 125.46 87.3338 125.07 87.6338 124.57C87.9338 124.05 88.0838 123.46 88.0838 122.8C88.0838 122.12 87.9338 121.54 87.6338 121.06C87.3338 120.56 86.9338 120.17 86.4338 119.89C85.9538 119.61 85.4038 119.47 84.7838 119.47C84.1838 119.47 83.6338 119.61 83.1338 119.89C82.6338 120.17 82.2338 120.56 81.9338 121.06C81.6338 121.54 81.4838 122.12 81.4838 122.8C81.4838 123.46 81.6338 124.05 81.9338 124.57C82.2338 125.07 82.6338 125.46 83.1338 125.74C83.6338 126.02 84.1838 126.16 84.7838 126.16ZM99.2293 130V111.58H94.8793V107.65H103.879V130H99.2293ZM108.082 130V126.4L114.082 120.22C115.262 119 116.152 118.04 116.752 117.34C117.372 116.62 117.792 116.02 118.012 115.54C118.252 115.06 118.372 114.59 118.372 114.13C118.372 113.31 118.102 112.67 117.562 112.21C117.042 111.73 116.382 111.49 115.582 111.49C114.762 111.49 114.032 111.73 113.392 112.21C112.752 112.67 112.282 113.38 111.982 114.34L107.932 113.02C108.172 111.86 108.672 110.85 109.432 109.99C110.192 109.13 111.112 108.47 112.192 108.01C113.272 107.53 114.402 107.29 115.582 107.29C117.062 107.29 118.362 107.55 119.482 108.07C120.602 108.59 121.472 109.32 122.092 110.26C122.712 111.2 123.022 112.3 123.022 113.56C123.022 114.36 122.882 115.15 122.602 115.93C122.322 116.69 121.892 117.47 121.312 118.27C120.752 119.05 120.022 119.9 119.122 120.82L113.992 126.1H123.232V130H108.082ZM128.293 134.95V132.7C128.993 132.54 129.563 132.23 130.003 131.77C130.463 131.33 130.763 130.74 130.903 130H128.893V125.5H133.393V128.11C133.393 130.01 132.963 131.54 132.103 132.7C131.243 133.86 129.973 134.61 128.293 134.95ZM146.345 130.36C144.665 130.36 143.215 130.05 141.995 129.43C140.795 128.81 139.875 127.98 139.235 126.94C138.595 125.9 138.275 124.77 138.275 123.55C138.275 122.09 138.655 120.87 139.415 119.89C140.195 118.91 141.335 118.17 142.835 117.67L142.535 118.81C141.475 118.49 140.625 117.83 139.985 116.83C139.365 115.83 139.055 114.72 139.055 113.5C139.055 112.3 139.365 111.23 139.985 110.29C140.605 109.35 141.465 108.62 142.565 108.1C143.665 107.56 144.925 107.29 146.345 107.29C147.765 107.29 149.015 107.56 150.095 108.1C151.195 108.62 152.055 109.35 152.675 110.29C153.315 111.23 153.635 112.3 153.635 113.5C153.635 114.72 153.325 115.83 152.705 116.83C152.085 117.83 151.235 118.5 150.155 118.84L149.885 117.64C151.385 118.2 152.525 118.97 153.305 119.95C154.085 120.91 154.475 122.12 154.475 123.58C154.475 124.8 154.145 125.93 153.485 126.97C152.845 127.99 151.915 128.81 150.695 129.43C149.475 130.05 148.025 130.36 146.345 130.36ZM146.345 126.46C147.045 126.46 147.655 126.33 148.175 126.07C148.695 125.81 149.095 125.45 149.375 124.99C149.675 124.53 149.825 124 149.825 123.4C149.825 122.78 149.675 122.25 149.375 121.81C149.095 121.35 148.695 121 148.175 120.76C147.655 120.5 147.045 120.37 146.345 120.37C145.665 120.37 145.065 120.5 144.545 120.76C144.045 121 143.645 121.35 143.345 121.81C143.065 122.25 142.925 122.78 142.925 123.4C142.925 124 143.065 124.53 143.345 124.99C143.645 125.45 144.045 125.81 144.545 126.07C145.065 126.33 145.665 126.46 146.345 126.46ZM146.345 116.47C146.885 116.47 147.345 116.35 147.725 116.11C148.125 115.87 148.435 115.55 148.655 115.15C148.875 114.75 148.985 114.31 148.985 113.83C148.985 113.33 148.875 112.88 148.655 112.48C148.435 112.08 148.125 111.77 147.725 111.55C147.345 111.31 146.885 111.19 146.345 111.19C145.825 111.19 145.365 111.31 144.965 111.55C144.565 111.77 144.255 112.08 144.035 112.48C143.815 112.88 143.705 113.33 143.705 113.83C143.705 114.31 143.815 114.75 144.035 115.15C144.255 115.55 144.565 115.87 144.965 116.11C145.365 116.35 145.825 116.47 146.345 116.47ZM164.91 130.36C163.67 130.36 162.49 130.13 161.37 129.67C160.25 129.19 159.3 128.52 158.52 127.66C157.74 126.8 157.22 125.79 156.96 124.63L161.07 123.25C161.41 124.21 161.91 124.94 162.57 125.44C163.23 125.92 164.01 126.16 164.91 126.16C165.65 126.16 166.28 126.02 166.8 125.74C167.34 125.46 167.76 125.07 168.06 124.57C168.36 124.05 168.51 123.45 168.51 122.77C168.51 122.09 168.36 121.51 168.06 121.03C167.78 120.53 167.37 120.15 166.83 119.89C166.31 119.61 165.67 119.47 164.91 119.47C164.47 119.47 164.03 119.52 163.59 119.62C163.15 119.72 162.75 119.86 162.39 120.04L161.31 117.79L167.04 111.55H158.31V107.65H172.26V111.25L166.38 117.94L166.53 116.05C167.87 116.05 169.03 116.33 170.01 116.89C171.01 117.43 171.78 118.19 172.32 119.17C172.88 120.15 173.16 121.29 173.16 122.59C173.16 124.07 172.8 125.4 172.08 126.58C171.36 127.76 170.38 128.69 169.14 129.37C167.9 130.03 166.49 130.36 164.91 130.36ZM177.129 130L184.659 120.37L185.409 121.42C185.129 121.54 184.859 121.65 184.599 121.75C184.359 121.83 184.109 121.89 183.849 121.93C183.589 121.97 183.319 121.99 183.039 121.99C181.659 121.99 180.429 121.68 179.349 121.06C178.289 120.44 177.449 119.6 176.829 118.54C176.229 117.46 175.929 116.25 175.929 114.91C175.929 113.43 176.269 112.12 176.949 110.98C177.629 109.84 178.569 108.94 179.769 108.28C180.969 107.62 182.339 107.29 183.879 107.29C185.439 107.29 186.809 107.62 187.989 108.28C189.189 108.92 190.129 109.8 190.809 110.92C191.489 112.02 191.829 113.28 191.829 114.7C191.829 115.4 191.759 116.1 191.619 116.8C191.479 117.5 191.199 118.27 190.779 119.11C190.359 119.93 189.729 120.89 188.889 121.99L182.679 130H177.129ZM183.879 118.18C184.499 118.18 185.049 118.04 185.529 117.76C186.029 117.48 186.429 117.09 186.729 116.59C187.029 116.09 187.179 115.51 187.179 114.85C187.179 114.17 187.029 113.58 186.729 113.08C186.429 112.58 186.029 112.19 185.529 111.91C185.049 111.63 184.499 111.49 183.879 111.49C183.279 111.49 182.729 111.63 182.229 111.91C181.729 112.19 181.329 112.58 181.029 113.08C180.729 113.58 180.579 114.17 180.579 114.85C180.579 115.51 180.729 116.09 181.029 116.59C181.329 117.09 181.729 117.48 182.229 117.76C182.729 118.04 183.279 118.18 183.879 118.18Z" fill="#272343"/>
<path d="M221.664 127L219.132 120.532H220.38L222.408 126.004H221.976L224.016 120.532H225.264L222.72 127H221.664ZM228.458 127.144C227.81 127.144 227.246 126.984 226.766 126.664C226.286 126.344 225.946 125.912 225.746 125.368L226.634 124.936C226.818 125.32 227.07 125.624 227.39 125.848C227.71 126.072 228.066 126.184 228.458 126.184C228.81 126.184 229.102 126.1 229.334 125.932C229.566 125.764 229.682 125.544 229.682 125.272C229.682 125.08 229.626 124.928 229.514 124.816C229.41 124.696 229.282 124.604 229.13 124.54C228.978 124.468 228.838 124.416 228.71 124.384L227.738 124.108C227.154 123.94 226.726 123.7 226.454 123.388C226.19 123.076 226.058 122.712 226.058 122.296C226.058 121.912 226.154 121.58 226.346 121.3C226.546 121.012 226.814 120.788 227.15 120.628C227.494 120.468 227.878 120.388 228.302 120.388C228.87 120.388 229.378 120.532 229.826 120.82C230.282 121.108 230.606 121.512 230.798 122.032L229.886 122.452C229.742 122.116 229.526 121.852 229.238 121.66C228.95 121.46 228.626 121.36 228.266 121.36C227.938 121.36 227.678 121.444 227.486 121.612C227.294 121.772 227.198 121.976 227.198 122.224C227.198 122.408 227.246 122.56 227.342 122.68C227.438 122.792 227.554 122.88 227.69 122.944C227.826 123 227.958 123.048 228.086 123.088L229.142 123.4C229.67 123.552 230.078 123.788 230.366 124.108C230.662 124.428 230.81 124.812 230.81 125.26C230.81 125.62 230.71 125.944 230.51 126.232C230.31 126.52 230.034 126.744 229.682 126.904C229.33 127.064 228.922 127.144 228.458 127.144ZM234.106 129.4V120.532H235.198V121.924L235.054 121.648C235.294 121.264 235.622 120.96 236.038 120.736C236.454 120.504 236.93 120.388 237.466 120.388C238.074 120.388 238.618 120.536 239.098 120.832C239.586 121.128 239.97 121.532 240.25 122.044C240.53 122.548 240.67 123.124 240.67 123.772C240.67 124.404 240.53 124.976 240.25 125.488C239.97 126 239.586 126.404 239.098 126.7C238.618 126.996 238.07 127.144 237.454 127.144C236.934 127.144 236.458 127.028 236.026 126.796C235.602 126.564 235.274 126.236 235.042 125.812L235.222 125.62V129.4H234.106ZM237.37 126.064C237.778 126.064 238.142 125.964 238.462 125.764C238.782 125.564 239.03 125.292 239.206 124.948C239.39 124.596 239.482 124.204 239.482 123.772C239.482 123.324 239.39 122.932 239.206 122.596C239.03 122.252 238.782 121.98 238.462 121.78C238.142 121.572 237.778 121.468 237.37 121.468C236.962 121.468 236.594 121.568 236.266 121.768C235.946 121.968 235.69 122.244 235.498 122.596C235.314 122.94 235.222 123.332 235.222 123.772C235.222 124.204 235.314 124.596 235.498 124.948C235.69 125.292 235.946 125.564 236.266 125.764C236.594 125.964 236.962 126.064 237.37 126.064ZM242.013 127V120.532H243.105V121.72L242.985 121.552C243.137 121.184 243.369 120.912 243.681 120.736C243.993 120.552 244.373 120.46 244.821 120.46H245.217V121.516H244.653C244.197 121.516 243.829 121.66 243.549 121.948C243.269 122.228 243.129 122.628 243.129 123.148V127H242.013ZM249.064 127.144C248.44 127.144 247.884 126.996 247.396 126.7C246.908 126.404 246.524 126 246.244 125.488C245.964 124.968 245.824 124.388 245.824 123.748C245.824 123.1 245.96 122.524 246.232 122.02C246.512 121.516 246.888 121.12 247.36 120.832C247.84 120.536 248.376 120.388 248.968 120.388C249.448 120.388 249.872 120.476 250.24 120.652C250.616 120.82 250.932 121.052 251.188 121.348C251.452 121.636 251.652 121.968 251.788 122.344C251.932 122.712 252.004 123.096 252.004 123.496C252.004 123.584 251.996 123.684 251.98 123.796C251.972 123.9 251.96 124 251.944 124.096H246.64V123.136H251.296L250.768 123.568C250.84 123.152 250.8 122.78 250.648 122.452C250.496 122.124 250.272 121.864 249.976 121.672C249.68 121.48 249.344 121.384 248.968 121.384C248.592 121.384 248.248 121.48 247.936 121.672C247.624 121.864 247.38 122.14 247.204 122.5C247.036 122.852 246.968 123.272 247 123.76C246.968 124.232 247.04 124.648 247.216 125.008C247.4 125.36 247.656 125.636 247.984 125.836C248.32 126.028 248.684 126.124 249.076 126.124C249.508 126.124 249.872 126.024 250.168 125.824C250.464 125.624 250.704 125.368 250.888 125.056L251.824 125.536C251.696 125.832 251.496 126.104 251.224 126.352C250.96 126.592 250.644 126.784 250.276 126.928C249.916 127.072 249.512 127.144 249.064 127.144ZM255.022 127L252.49 120.532H253.738L255.766 126.004H255.334L257.374 120.532H258.622L256.078 127H255.022ZM259.501 127V120.532H260.617V127H259.501ZM259.501 119.5V118.06H260.617V119.5H259.501ZM265.3 127.144C264.676 127.144 264.112 127 263.608 126.712C263.104 126.416 262.704 126.012 262.408 125.5C262.112 124.988 261.964 124.408 261.964 123.76C261.964 123.112 262.108 122.536 262.396 122.032C262.692 121.528 263.092 121.128 263.596 120.832C264.1 120.536 264.668 120.388 265.3 120.388C265.924 120.388 266.488 120.536 266.992 120.832C267.496 121.12 267.892 121.516 268.18 122.02C268.476 122.524 268.624 123.104 268.624 123.76C268.624 124.416 268.472 125 268.168 125.512C267.864 126.016 267.46 126.416 266.956 126.712C266.46 127 265.908 127.144 265.3 127.144ZM265.3 126.064C265.7 126.064 266.06 125.964 266.38 125.764C266.708 125.564 266.964 125.288 267.148 124.936C267.34 124.584 267.436 124.192 267.436 123.76C267.436 123.32 267.34 122.932 267.148 122.596C266.964 122.252 266.708 121.98 266.38 121.78C266.06 121.572 265.7 121.468 265.3 121.468C264.892 121.468 264.524 121.572 264.196 121.78C263.876 121.98 263.62 122.252 263.428 122.596C263.236 122.932 263.14 123.32 263.14 123.76C263.14 124.192 263.236 124.584 263.428 124.936C263.62 125.288 263.876 125.564 264.196 125.764C264.524 125.964 264.892 126.064 265.3 126.064ZM272.252 127.144C271.788 127.144 271.368 127.036 270.992 126.82C270.624 126.604 270.336 126.304 270.128 125.92C269.928 125.528 269.828 125.08 269.828 124.576V120.532H270.944V124.456C270.944 124.776 271.008 125.056 271.136 125.296C271.272 125.536 271.456 125.724 271.688 125.86C271.928 125.996 272.2 126.064 272.504 126.064C272.808 126.064 273.076 125.996 273.308 125.86C273.548 125.724 273.732 125.528 273.86 125.272C273.996 125.016 274.064 124.712 274.064 124.36V120.532H275.192V127H274.1V125.74L274.28 125.848C274.128 126.256 273.868 126.576 273.5 126.808C273.14 127.032 272.724 127.144 272.252 127.144ZM279.117 127.144C278.469 127.144 277.905 126.984 277.425 126.664C276.945 126.344 276.605 125.912 276.405 125.368L277.293 124.936C277.477 125.32 277.729 125.624 278.049 125.848C278.369 126.072 278.725 126.184 279.117 126.184C279.469 126.184 279.761 126.1 279.993 125.932C280.225 125.764 280.341 125.544 280.341 125.272C280.341 125.08 280.285 124.928 280.173 124.816C280.069 124.696 279.941 124.604 279.789 124.54C279.637 124.468 279.497 124.416 279.369 124.384L278.397 124.108C277.813 123.94 277.385 123.7 277.113 123.388C276.849 123.076 276.717 122.712 276.717 122.296C276.717 121.912 276.813 121.58 277.005 121.3C277.205 121.012 277.473 120.788 277.809 120.628C278.153 120.468 278.537 120.388 278.961 120.388C279.529 120.388 280.037 120.532 280.485 120.82C280.941 121.108 281.265 121.512 281.457 122.032L280.545 122.452C280.401 122.116 280.185 121.852 279.897 121.66C279.609 121.46 279.285 121.36 278.925 121.36C278.597 121.36 278.337 121.444 278.145 121.612C277.953 121.772 277.857 121.976 277.857 122.224C277.857 122.408 277.905 122.56 278.001 122.68C278.097 122.792 278.213 122.88 278.349 122.944C278.485 123 278.617 123.048 278.745 123.088L279.801 123.4C280.329 123.552 280.737 123.788 281.025 124.108C281.321 124.428 281.469 124.812 281.469 125.26C281.469 125.62 281.369 125.944 281.169 126.232C280.969 126.52 280.693 126.744 280.341 126.904C279.989 127.064 279.581 127.144 279.117 127.144ZM286.252 127L284.032 120.532H285.268L287.032 125.944L286.6 125.932L288.328 120.532H289.384L291.112 125.932L290.68 125.944L292.456 120.532H293.68L291.46 127H290.392L288.688 121.6H289.024L287.32 127H286.252ZM297.417 127.144C296.793 127.144 296.237 126.996 295.749 126.7C295.261 126.404 294.877 126 294.597 125.488C294.317 124.968 294.177 124.388 294.177 123.748C294.177 123.1 294.313 122.524 294.585 122.02C294.865 121.516 295.241 121.12 295.713 120.832C296.193 120.536 296.729 120.388 297.321 120.388C297.801 120.388 298.225 120.476 298.593 120.652C298.969 120.82 299.285 121.052 299.541 121.348C299.805 121.636 300.005 121.968 300.141 122.344C300.285 122.712 300.357 123.096 300.357 123.496C300.357 123.584 300.349 123.684 300.333 123.796C300.325 123.9 300.313 124 300.297 124.096H294.993V123.136H299.649L299.121 123.568C299.193 123.152 299.153 122.78 299.001 122.452C298.849 122.124 298.625 121.864 298.329 121.672C298.033 121.48 297.697 121.384 297.321 121.384C296.945 121.384 296.601 121.48 296.289 121.672C295.977 121.864 295.733 122.14 295.557 122.5C295.389 122.852 295.321 123.272 295.353 123.76C295.321 124.232 295.393 124.648 295.569 125.008C295.753 125.36 296.009 125.636 296.337 125.836C296.673 126.028 297.037 126.124 297.429 126.124C297.861 126.124 298.225 126.024 298.521 125.824C298.817 125.624 299.057 125.368 299.241 125.056L300.177 125.536C300.049 125.832 299.849 126.104 299.577 126.352C299.313 126.592 298.997 126.784 298.629 126.928C298.269 127.072 297.865 127.144 297.417 127.144ZM304.668 127.144C304.044 127.144 303.488 126.996 303 126.7C302.512 126.404 302.128 126 301.848 125.488C301.568 124.968 301.428 124.388 301.428 123.748C301.428 123.1 301.564 122.524 301.836 122.02C302.116 121.516 302.492 121.12 302.964 120.832C303.444 120.536 303.98 120.388 304.572 120.388C305.052 120.388 305.476 120.476 305.844 120.652C306.22 120.82 306.536 121.052 306.792 121.348C307.056 121.636 307.256 121.968 307.392 122.344C307.536 122.712 307.608 123.096 307.608 123.496C307.608 123.584 307.6 123.684 307.584 123.796C307.576 123.9 307.564 124 307.548 124.096H302.244V123.136H306.9L306.372 123.568C306.444 123.152 306.404 122.78 306.252 122.452C306.1 122.124 305.876 121.864 305.58 121.672C305.284 121.48 304.948 121.384 304.572 121.384C304.196 121.384 303.852 121.48 303.54 121.672C303.228 121.864 302.984 122.14 302.808 122.5C302.64 122.852 302.572 123.272 302.604 123.76C302.572 124.232 302.644 124.648 302.82 125.008C303.004 125.36 303.26 125.636 303.588 125.836C303.924 126.028 304.288 126.124 304.68 126.124C305.112 126.124 305.476 126.024 305.772 125.824C306.068 125.624 306.308 125.368 306.492 125.056L307.428 125.536C307.3 125.832 307.1 126.104 306.828 126.352C306.564 126.592 306.248 126.784 305.88 126.928C305.52 127.072 305.116 127.144 304.668 127.144ZM308.943 127V117.916H310.059V124.144L309.603 124.036L313.035 120.532H314.463L311.979 123.136L314.631 127H313.311L310.887 123.496L311.583 123.46L309.699 125.428L310.059 124.612V127H308.943Z" fill="#D2D2D2"/>
<path d="M247.492 107V97.76H245.518V96.57H248.878V107H247.492ZM254.283 107.168C253.611 107.168 253.014 107.019 252.491 106.72C251.978 106.421 251.572 106.015 251.273 105.502C250.974 104.979 250.825 104.387 250.825 103.724C250.825 103.36 250.867 103.001 250.951 102.646C251.035 102.291 251.17 101.932 251.357 101.568C251.544 101.204 251.782 100.826 252.071 100.434L255.011 96.57H256.663L253.065 101.246L252.813 101.218C252.953 101.031 253.107 100.887 253.275 100.784C253.452 100.681 253.639 100.607 253.835 100.56C254.04 100.513 254.255 100.49 254.479 100.49C255.095 100.49 255.646 100.635 256.131 100.924C256.626 101.204 257.013 101.591 257.293 102.086C257.582 102.581 257.727 103.15 257.727 103.794C257.727 104.438 257.578 105.017 257.279 105.53C256.98 106.034 256.57 106.435 256.047 106.734C255.534 107.023 254.946 107.168 254.283 107.168ZM254.283 105.936C254.675 105.936 255.025 105.847 255.333 105.67C255.641 105.483 255.884 105.227 256.061 104.9C256.248 104.573 256.341 104.209 256.341 103.808C256.341 103.388 256.252 103.024 256.075 102.716C255.898 102.399 255.655 102.147 255.347 101.96C255.039 101.773 254.684 101.68 254.283 101.68C253.891 101.68 253.536 101.773 253.219 101.96C252.902 102.147 252.654 102.399 252.477 102.716C252.3 103.024 252.211 103.388 252.211 103.808C252.211 104.209 252.3 104.573 252.477 104.9C252.664 105.227 252.911 105.483 253.219 105.67C253.536 105.847 253.891 105.936 254.283 105.936ZM260.312 107L268.824 96.57H270.378L261.866 107H260.312ZM261.88 101.862C261.367 101.862 260.905 101.741 260.494 101.498C260.083 101.246 259.752 100.915 259.5 100.504C259.257 100.093 259.136 99.636 259.136 99.132C259.136 98.628 259.257 98.1707 259.5 97.76C259.752 97.34 260.083 97.0087 260.494 96.766C260.905 96.5233 261.367 96.402 261.88 96.402C262.384 96.402 262.841 96.5233 263.252 96.766C263.663 97.0087 263.989 97.34 264.232 97.76C264.475 98.1707 264.596 98.628 264.596 99.132C264.596 99.636 264.475 100.093 264.232 100.504C263.989 100.915 263.663 101.246 263.252 101.498C262.841 101.741 262.384 101.862 261.88 101.862ZM261.866 100.714C262.183 100.714 262.454 100.639 262.678 100.49C262.902 100.341 263.079 100.145 263.21 99.902C263.341 99.6593 263.406 99.4027 263.406 99.132C263.406 98.852 263.341 98.5953 263.21 98.362C263.079 98.1193 262.902 97.9233 262.678 97.774C262.454 97.6153 262.183 97.536 261.866 97.536C261.567 97.536 261.301 97.6153 261.068 97.774C260.835 97.9233 260.653 98.1193 260.522 98.362C260.391 98.6047 260.326 98.8613 260.326 99.132C260.326 99.3933 260.391 99.65 260.522 99.902C260.653 100.145 260.835 100.341 261.068 100.49C261.301 100.639 261.567 100.714 261.866 100.714ZM268.726 107.168C268.213 107.168 267.751 107.047 267.34 106.804C266.929 106.552 266.598 106.221 266.346 105.81C266.103 105.399 265.982 104.942 265.982 104.438C265.982 103.934 266.103 103.477 266.346 103.066C266.598 102.646 266.929 102.315 267.34 102.072C267.751 101.829 268.213 101.708 268.726 101.708C269.23 101.708 269.687 101.829 270.098 102.072C270.509 102.315 270.835 102.646 271.078 103.066C271.321 103.477 271.442 103.934 271.442 104.438C271.442 104.942 271.321 105.399 271.078 105.81C270.835 106.221 270.509 106.552 270.098 106.804C269.687 107.047 269.23 107.168 268.726 107.168ZM268.726 106.02C269.034 106.02 269.3 105.945 269.524 105.796C269.757 105.647 269.935 105.451 270.056 105.208C270.187 104.965 270.252 104.709 270.252 104.438C270.252 104.158 270.187 103.901 270.056 103.668C269.935 103.425 269.757 103.229 269.524 103.08C269.3 102.921 269.034 102.842 268.726 102.842C268.427 102.842 268.157 102.921 267.914 103.08C267.681 103.229 267.499 103.425 267.368 103.668C267.237 103.911 267.172 104.167 267.172 104.438C267.172 104.699 267.237 104.956 267.368 105.208C267.499 105.451 267.681 105.647 267.914 105.796C268.157 105.945 268.427 106.02 268.726 106.02Z" fill="#68D585"/>
<path d="M230.749 95.5L238.303 95.5005L238.403 95.5144L238.502 95.542L238.562 95.5676C238.641 95.6025 238.715 95.6531 238.781 95.7184L238.822 95.7624L238.865 95.8188L238.919 95.9089L238.958 95.9992L238.977 96.0633L238.991 96.1273L239 96.2215L239 103.754C239 104.168 238.665 104.504 238.25 104.504C237.871 104.504 237.557 104.222 237.507 103.856L237.5 103.754L237.5 98.059L229.781 105.779C229.515 106.045 229.098 106.07 228.805 105.852L228.72 105.779L225.75 102.809L220.28 108.279C219.987 108.572 219.513 108.572 219.22 108.279C218.953 108.012 218.929 107.596 219.147 107.302L219.22 107.218L225.22 101.218C225.486 100.952 225.903 100.927 226.196 101.145L226.28 101.218L229.251 104.188L236.438 97H230.749C230.369 97 230.055 96.7178 230.006 96.3518L229.999 96.25C229.999 95.8703 230.281 95.5565 230.647 95.5068L230.749 95.5Z" fill="#68D585"/>
<rect x="24.5" y="22.5" width="322" height="155" rx="18.5" stroke="#D2D2D2" shape-rendering="crispEdges"/>
</g>
<g filter="url(#filter1_d_486_6613)">
<rect x="158" y="194" width="314" height="156" rx="19" fill="white" shape-rendering="crispEdges"/>
<rect x="190" y="218" width="40" height="40" rx="14" fill="#E7AA07" fill-opacity="0.1"/>
<path d="M216 232H214C214 229.79 212.21 228 210 228C207.79 228 206 229.79 206 232H204C202.9 232 202 232.9 202 234V246C202 247.1 202.9 248 204 248H216C217.1 248 218 247.1 218 246V234C218 232.9 217.1 232 216 232ZM208 236C208 236.55 207.55 237 207 237C206.45 237 206 236.55 206 236V234H208V236ZM210 230C211.1 230 212 230.9 212 232H208C208 230.9 208.9 230 210 230ZM214 236C214 236.55 213.55 237 213 237C212.45 237 212 236.55 212 236V234H214V236Z" fill="#E7AA07"/>
<path d="M249.408 244V233.52H246.176V232.08H254.176V233.52H250.992V244H249.408ZM258.322 244.192C257.49 244.192 256.738 244 256.066 243.616C255.394 243.221 254.861 242.683 254.466 242C254.072 241.317 253.874 240.544 253.874 239.68C253.874 238.816 254.066 238.048 254.45 237.376C254.845 236.704 255.378 236.171 256.05 235.776C256.722 235.381 257.48 235.184 258.322 235.184C259.154 235.184 259.906 235.381 260.578 235.776C261.25 236.16 261.778 236.688 262.162 237.36C262.557 238.032 262.754 238.805 262.754 239.68C262.754 240.555 262.552 241.333 262.146 242.016C261.741 242.688 261.202 243.221 260.53 243.616C259.869 244 259.133 244.192 258.322 244.192ZM258.322 242.752C258.856 242.752 259.336 242.619 259.762 242.352C260.2 242.085 260.541 241.717 260.786 241.248C261.042 240.779 261.17 240.256 261.17 239.68C261.17 239.093 261.042 238.576 260.786 238.128C260.541 237.669 260.2 237.307 259.762 237.04C259.336 236.763 258.856 236.624 258.322 236.624C257.778 236.624 257.288 236.763 256.85 237.04C256.424 237.307 256.082 237.669 255.826 238.128C255.57 238.576 255.442 239.093 255.442 239.68C255.442 240.256 255.57 240.779 255.826 241.248C256.082 241.717 256.424 242.085 256.85 242.352C257.288 242.619 257.778 242.752 258.322 242.752ZM267.883 244.096C267.04 244.096 266.39 243.856 265.931 243.376C265.483 242.896 265.259 242.219 265.259 241.344V236.8H263.691V235.376H264.011C264.395 235.376 264.699 235.259 264.923 235.024C265.147 234.789 265.259 234.48 265.259 234.096V233.392H266.747V235.376H268.683V236.8H266.747V241.296C266.747 241.584 266.79 241.835 266.875 242.048C266.971 242.261 267.126 242.432 267.339 242.56C267.552 242.677 267.835 242.736 268.187 242.736C268.262 242.736 268.352 242.731 268.459 242.72C268.576 242.709 268.683 242.699 268.779 242.688V244C268.64 244.032 268.486 244.053 268.315 244.064C268.144 244.085 268 244.096 267.883 244.096ZM272.981 244.192C272.416 244.192 271.915 244.091 271.477 243.888C271.051 243.675 270.715 243.387 270.469 243.024C270.224 242.651 270.101 242.224 270.101 241.744C270.101 241.285 270.197 240.875 270.389 240.512C270.592 240.139 270.901 239.824 271.317 239.568C271.744 239.312 272.277 239.131 272.917 239.024L276.117 238.496V239.744L273.253 240.224C272.699 240.32 272.293 240.496 272.037 240.752C271.792 241.008 271.669 241.323 271.669 241.696C271.669 242.048 271.808 242.341 272.085 242.576C272.373 242.811 272.731 242.928 273.157 242.928C273.701 242.928 274.171 242.816 274.565 242.592C274.971 242.357 275.285 242.043 275.509 241.648C275.744 241.253 275.861 240.816 275.861 240.336V238.144C275.861 237.675 275.685 237.296 275.333 237.008C274.992 236.709 274.539 236.56 273.973 236.56C273.483 236.56 273.045 236.688 272.661 236.944C272.288 237.189 272.011 237.52 271.829 237.936L270.533 237.264C270.693 236.869 270.949 236.517 271.301 236.208C271.653 235.888 272.064 235.637 272.533 235.456C273.003 235.275 273.493 235.184 274.005 235.184C274.667 235.184 275.248 235.312 275.749 235.568C276.251 235.813 276.64 236.16 276.917 236.608C277.205 237.045 277.349 237.557 277.349 238.144V244H275.893V242.368L276.165 242.464C275.984 242.805 275.739 243.104 275.429 243.36C275.12 243.616 274.757 243.819 274.341 243.968C273.925 244.117 273.472 244.192 272.981 244.192ZM279.496 244V231.888H280.984V244H279.496ZM285.739 247.2V235.376H287.195V237.232L287.003 236.864C287.323 236.352 287.76 235.947 288.315 235.648C288.87 235.339 289.504 235.184 290.219 235.184C291.03 235.184 291.755 235.381 292.395 235.776C293.046 236.171 293.558 236.709 293.931 237.392C294.304 238.064 294.491 238.832 294.491 239.696C294.491 240.539 294.304 241.301 293.931 241.984C293.558 242.667 293.046 243.205 292.395 243.6C291.755 243.995 291.024 244.192 290.203 244.192C289.51 244.192 288.875 244.037 288.299 243.728C287.734 243.419 287.296 242.981 286.987 242.416L287.227 242.16V247.2H285.739ZM290.091 242.752C290.635 242.752 291.12 242.619 291.547 242.352C291.974 242.085 292.304 241.723 292.539 241.264C292.784 240.795 292.907 240.272 292.907 239.696C292.907 239.099 292.784 238.576 292.539 238.128C292.304 237.669 291.974 237.307 291.547 237.04C291.12 236.763 290.635 236.624 290.091 236.624C289.547 236.624 289.056 236.757 288.619 237.024C288.192 237.291 287.851 237.659 287.595 238.128C287.35 238.587 287.227 239.109 287.227 239.696C287.227 240.272 287.35 240.795 287.595 241.264C287.851 241.723 288.192 242.085 288.619 242.352C289.056 242.619 289.547 242.752 290.091 242.752ZM296.282 244V235.376H297.738V236.96L297.578 236.736C297.781 236.245 298.09 235.883 298.506 235.648C298.922 235.403 299.429 235.28 300.026 235.28H300.554V236.688H299.802C299.194 236.688 298.703 236.88 298.33 237.264C297.957 237.637 297.77 238.171 297.77 238.864V244H296.282ZM305.812 244.192C304.98 244.192 304.228 244 303.556 243.616C302.884 243.221 302.35 242.683 301.956 242C301.561 241.317 301.364 240.544 301.364 239.68C301.364 238.816 301.556 238.048 301.94 237.376C302.334 236.704 302.868 236.171 303.54 235.776C304.212 235.381 304.969 235.184 305.812 235.184C306.644 235.184 307.396 235.381 308.068 235.776C308.74 236.16 309.268 236.688 309.652 237.36C310.046 238.032 310.244 238.805 310.244 239.68C310.244 240.555 310.041 241.333 309.636 242.016C309.23 242.688 308.692 243.221 308.02 243.616C307.358 244 306.622 244.192 305.812 244.192ZM305.812 242.752C306.345 242.752 306.825 242.619 307.252 242.352C307.689 242.085 308.03 241.717 308.276 241.248C308.532 240.779 308.66 240.256 308.66 239.68C308.66 239.093 308.532 238.576 308.276 238.128C308.03 237.669 307.689 237.307 307.252 237.04C306.825 236.763 306.345 236.624 305.812 236.624C305.268 236.624 304.777 236.763 304.34 237.04C303.913 237.307 303.572 237.669 303.316 238.128C303.06 238.576 302.932 239.093 302.932 239.68C302.932 240.256 303.06 240.779 303.316 241.248C303.572 241.717 303.913 242.085 304.34 242.352C304.777 242.619 305.268 242.752 305.812 242.752ZM315.944 244.192C315.134 244.192 314.403 243.995 313.752 243.6C313.112 243.205 312.606 242.667 312.232 241.984C311.859 241.301 311.672 240.539 311.672 239.696C311.672 238.832 311.859 238.064 312.232 237.392C312.606 236.709 313.112 236.171 313.752 235.776C314.403 235.381 315.134 235.184 315.944 235.184C316.659 235.184 317.294 235.339 317.848 235.648C318.403 235.947 318.84 236.352 319.16 236.864L318.92 237.232V231.888H320.424V244H318.968V242.16L319.16 242.416C318.862 242.981 318.424 243.419 317.848 243.728C317.283 244.037 316.648 244.192 315.944 244.192ZM316.072 242.752C316.616 242.752 317.102 242.619 317.528 242.352C317.955 242.085 318.291 241.723 318.536 241.264C318.792 240.795 318.92 240.272 318.92 239.696C318.92 239.109 318.792 238.587 318.536 238.128C318.291 237.659 317.955 237.291 317.528 237.024C317.102 236.757 316.616 236.624 316.072 236.624C315.539 236.624 315.054 236.763 314.616 237.04C314.19 237.307 313.854 237.669 313.608 238.128C313.363 238.576 313.24 239.099 313.24 239.696C313.24 240.272 313.363 240.795 313.608 241.264C313.854 241.723 314.19 242.085 314.616 242.352C315.043 242.619 315.528 242.752 316.072 242.752ZM325.624 244.192C325.005 244.192 324.445 244.048 323.944 243.76C323.453 243.472 323.069 243.072 322.792 242.56C322.525 242.037 322.392 241.44 322.392 240.768V235.376H323.88V240.608C323.88 241.035 323.965 241.408 324.136 241.728C324.317 242.048 324.562 242.299 324.872 242.48C325.192 242.661 325.554 242.752 325.96 242.752C326.365 242.752 326.722 242.661 327.032 242.48C327.352 242.299 327.597 242.037 327.768 241.696C327.949 241.355 328.04 240.949 328.04 240.48V235.376H329.544V244H328.088V242.32L328.328 242.464C328.125 243.008 327.778 243.435 327.288 243.744C326.808 244.043 326.253 244.192 325.624 244.192ZM335.689 244.192C334.846 244.192 334.094 243.995 333.433 243.6C332.782 243.205 332.27 242.667 331.897 241.984C331.524 241.301 331.337 240.533 331.337 239.68C331.337 238.816 331.524 238.048 331.897 237.376C332.27 236.704 332.782 236.171 333.433 235.776C334.094 235.381 334.846 235.184 335.689 235.184C336.254 235.184 336.782 235.285 337.273 235.488C337.764 235.691 338.196 235.963 338.569 236.304C338.942 236.645 339.214 237.045 339.385 237.504L338.057 238.144C337.854 237.696 337.545 237.333 337.129 237.056C336.713 236.768 336.233 236.624 335.689 236.624C335.166 236.624 334.692 236.757 334.265 237.024C333.849 237.291 333.518 237.653 333.273 238.112C333.028 238.571 332.905 239.099 332.905 239.696C332.905 240.272 333.028 240.795 333.273 241.264C333.518 241.723 333.849 242.085 334.265 242.352C334.692 242.619 335.166 242.752 335.689 242.752C336.233 242.752 336.713 242.613 337.129 242.336C337.545 242.048 337.854 241.669 338.057 241.2L339.385 241.872C339.214 242.32 338.942 242.72 338.569 243.072C338.196 243.413 337.764 243.685 337.273 243.888C336.782 244.091 336.254 244.192 335.689 244.192ZM344.674 244.096C343.831 244.096 343.18 243.856 342.722 243.376C342.274 242.896 342.05 242.219 342.05 241.344V236.8H340.482V235.376H340.802C341.186 235.376 341.49 235.259 341.714 235.024C341.938 234.789 342.05 234.48 342.05 234.096V233.392H343.538V235.376H345.474V236.8H343.538V241.296C343.538 241.584 343.58 241.835 343.666 242.048C343.762 242.261 343.916 242.432 344.13 242.56C344.343 242.677 344.626 242.736 344.978 242.736C345.052 242.736 345.143 242.731 345.25 242.72C345.367 242.709 345.474 242.699 345.57 242.688V244C345.431 244.032 345.276 244.053 345.106 244.064C344.935 244.085 344.791 244.096 344.674 244.096Z" fill="#8B8B8B"/>
<path d="M191.26 302V298.4L197.26 292.22C198.44 291 199.33 290.04 199.93 289.34C200.55 288.62 200.97 288.02 201.19 287.54C201.43 287.06 201.55 286.59 201.55 286.13C201.55 285.31 201.28 284.67 200.74 284.21C200.22 283.73 199.56 283.49 198.76 283.49C197.94 283.49 197.21 283.73 196.57 284.21C195.93 284.67 195.46 285.38 195.16 286.34L191.11 285.02C191.35 283.86 191.85 282.85 192.61 281.99C193.37 281.13 194.29 280.47 195.37 280.01C196.45 279.53 197.58 279.29 198.76 279.29C200.24 279.29 201.54 279.55 202.66 280.07C203.78 280.59 204.65 281.32 205.27 282.26C205.89 283.2 206.2 284.3 206.2 285.56C206.2 286.36 206.06 287.15 205.78 287.93C205.5 288.69 205.07 289.47 204.49 290.27C203.93 291.05 203.2 291.9 202.3 292.82L197.17 298.1H206.41V302H191.26ZM217.021 302.36C215.841 302.36 214.701 302.14 213.601 301.7C212.501 301.24 211.561 300.6 210.781 299.78C210.001 298.94 209.491 297.94 209.251 296.78L213.361 295.4C213.661 296.36 214.141 297.06 214.801 297.5C215.461 297.94 216.201 298.16 217.021 298.16C217.721 298.16 218.331 298.02 218.851 297.74C219.371 297.44 219.771 297.03 220.051 296.51C220.351 295.97 220.501 295.35 220.501 294.65C220.501 293.95 220.351 293.34 220.051 292.82C219.771 292.3 219.371 291.9 218.851 291.62C218.331 291.32 217.721 291.17 217.021 291.17C216.301 291.17 215.661 291.33 215.101 291.65C214.541 291.95 214.131 292.42 213.871 293.06L210.061 292.16L211.861 279.65H224.341V283.55H213.751L215.491 281.45L214.261 290.75L213.001 289.64C213.501 288.82 214.131 288.22 214.891 287.84C215.671 287.46 216.671 287.27 217.891 287.27C219.391 287.27 220.681 287.59 221.761 288.23C222.841 288.85 223.671 289.71 224.251 290.81C224.851 291.91 225.151 293.19 225.151 294.65C225.151 296.11 224.791 297.43 224.071 298.61C223.371 299.77 222.411 300.69 221.191 301.37C219.971 302.03 218.581 302.36 217.021 302.36ZM235.959 302.36C234.419 302.36 233.049 302.04 231.849 301.4C230.649 300.74 229.709 299.85 229.029 298.73C228.349 297.61 228.009 296.35 228.009 294.95C228.009 294.25 228.079 293.55 228.219 292.85C228.359 292.15 228.639 291.38 229.059 290.54C229.479 289.7 230.109 288.74 230.949 287.66L237.159 279.65H242.709L235.179 289.28L234.429 288.23C234.709 288.09 234.979 287.98 235.239 287.9C235.499 287.82 235.749 287.76 235.989 287.72C236.249 287.68 236.519 287.66 236.799 287.66C238.179 287.66 239.399 287.97 240.459 288.59C241.539 289.21 242.379 290.06 242.979 291.14C243.599 292.2 243.909 293.4 243.909 294.74C243.909 296.2 243.569 297.51 242.889 298.67C242.209 299.81 241.269 300.71 240.069 301.37C238.889 302.03 237.519 302.36 235.959 302.36ZM235.959 298.16C236.579 298.16 237.129 298.02 237.609 297.74C238.109 297.46 238.509 297.07 238.809 296.57C239.109 296.05 239.259 295.46 239.259 294.8C239.259 294.12 239.109 293.54 238.809 293.06C238.509 292.56 238.109 292.17 237.609 291.89C237.129 291.61 236.579 291.47 235.959 291.47C235.359 291.47 234.809 291.61 234.309 291.89C233.809 292.17 233.409 292.56 233.109 293.06C232.809 293.54 232.659 294.12 232.659 294.8C232.659 295.46 232.809 296.05 233.109 296.57C233.409 297.07 233.809 297.46 234.309 297.74C234.809 298.02 235.359 298.16 235.959 298.16ZM248.604 306.95V304.7C249.304 304.54 249.874 304.23 250.314 303.77C250.774 303.33 251.074 302.74 251.214 302H249.204V297.5H253.704V300.11C253.704 302.01 253.274 303.54 252.414 304.7C251.554 305.86 250.284 306.61 248.604 306.95ZM266.237 302.36C264.697 302.36 263.327 302.04 262.127 301.4C260.927 300.74 259.987 299.85 259.307 298.73C258.627 297.61 258.287 296.35 258.287 294.95C258.287 294.25 258.357 293.55 258.497 292.85C258.637 292.15 258.917 291.38 259.337 290.54C259.757 289.7 260.387 288.74 261.227 287.66L267.437 279.65H272.987L265.457 289.28L264.707 288.23C264.987 288.09 265.257 287.98 265.517 287.9C265.777 287.82 266.027 287.76 266.267 287.72C266.527 287.68 266.797 287.66 267.077 287.66C268.457 287.66 269.677 287.97 270.737 288.59C271.817 289.21 272.657 290.06 273.257 291.14C273.877 292.2 274.187 293.4 274.187 294.74C274.187 296.2 273.847 297.51 273.167 298.67C272.487 299.81 271.547 300.71 270.347 301.37C269.167 302.03 267.797 302.36 266.237 302.36ZM266.237 298.16C266.857 298.16 267.407 298.02 267.887 297.74C268.387 297.46 268.787 297.07 269.087 296.57C269.387 296.05 269.537 295.46 269.537 294.8C269.537 294.12 269.387 293.54 269.087 293.06C268.787 292.56 268.387 292.17 267.887 291.89C267.407 291.61 266.857 291.47 266.237 291.47C265.637 291.47 265.087 291.61 264.587 291.89C264.087 292.17 263.687 292.56 263.387 293.06C263.087 293.54 262.937 294.12 262.937 294.8C262.937 295.46 263.087 296.05 263.387 296.57C263.687 297.07 264.087 297.46 264.587 297.74C265.087 298.02 265.637 298.16 266.237 298.16ZM286.082 302.36C284.302 302.36 282.732 301.88 281.372 300.92C280.032 299.96 278.982 298.61 278.222 296.87C277.462 295.13 277.082 293.11 277.082 290.81C277.082 288.49 277.452 286.47 278.192 284.75C278.952 283.03 280.002 281.69 281.342 280.73C282.702 279.77 284.272 279.29 286.052 279.29C287.872 279.29 289.452 279.77 290.792 280.73C292.152 281.69 293.202 283.04 293.942 284.78C294.702 286.5 295.082 288.51 295.082 290.81C295.082 293.11 294.702 295.13 293.942 296.87C293.202 298.59 292.152 299.94 290.792 300.92C289.452 301.88 287.882 302.36 286.082 302.36ZM286.112 298.16C287.032 298.16 287.812 297.87 288.452 297.29C289.092 296.71 289.582 295.87 289.922 294.77C290.262 293.67 290.432 292.35 290.432 290.81C290.432 289.27 290.262 287.96 289.922 286.88C289.582 285.78 289.082 284.94 288.422 284.36C287.782 283.78 286.992 283.49 286.052 283.49C285.132 283.49 284.352 283.78 283.712 284.36C283.072 284.94 282.582 285.78 282.242 286.88C281.902 287.96 281.732 289.27 281.732 290.81C281.732 292.33 281.902 293.64 282.242 294.74C282.582 295.84 283.072 296.69 283.712 297.29C284.372 297.87 285.172 298.16 286.112 298.16ZM307.388 302.36C305.608 302.36 304.038 301.88 302.678 300.92C301.338 299.96 300.288 298.61 299.528 296.87C298.768 295.13 298.388 293.11 298.388 290.81C298.388 288.49 298.758 286.47 299.498 284.75C300.258 283.03 301.308 281.69 302.648 280.73C304.008 279.77 305.578 279.29 307.358 279.29C309.178 279.29 310.758 279.77 312.098 280.73C313.458 281.69 314.508 283.04 315.248 284.78C316.008 286.5 316.388 288.51 316.388 290.81C316.388 293.11 316.008 295.13 315.248 296.87C314.508 298.59 313.458 299.94 312.098 300.92C310.758 301.88 309.188 302.36 307.388 302.36ZM307.418 298.16C308.338 298.16 309.118 297.87 309.758 297.29C310.398 296.71 310.888 295.87 311.228 294.77C311.568 293.67 311.738 292.35 311.738 290.81C311.738 289.27 311.568 287.96 311.228 286.88C310.888 285.78 310.388 284.94 309.728 284.36C309.088 283.78 308.298 283.49 307.358 283.49C306.438 283.49 305.658 283.78 305.018 284.36C304.378 284.94 303.888 285.78 303.548 286.88C303.208 287.96 303.038 289.27 303.038 290.81C303.038 292.33 303.208 293.64 303.548 294.74C303.888 295.84 304.378 296.69 305.018 297.29C305.678 297.87 306.478 298.16 307.418 298.16Z" fill="#272343"/>
<path d="M346.664 299L344.132 292.532H345.38L347.408 298.004H346.976L349.016 292.532H350.264L347.72 299H346.664ZM353.458 299.144C352.81 299.144 352.246 298.984 351.766 298.664C351.286 298.344 350.946 297.912 350.746 297.368L351.634 296.936C351.818 297.32 352.07 297.624 352.39 297.848C352.71 298.072 353.066 298.184 353.458 298.184C353.81 298.184 354.102 298.1 354.334 297.932C354.566 297.764 354.682 297.544 354.682 297.272C354.682 297.08 354.626 296.928 354.514 296.816C354.41 296.696 354.282 296.604 354.13 296.54C353.978 296.468 353.838 296.416 353.71 296.384L352.738 296.108C352.154 295.94 351.726 295.7 351.454 295.388C351.19 295.076 351.058 294.712 351.058 294.296C351.058 293.912 351.154 293.58 351.346 293.3C351.546 293.012 351.814 292.788 352.15 292.628C352.494 292.468 352.878 292.388 353.302 292.388C353.87 292.388 354.378 292.532 354.826 292.82C355.282 293.108 355.606 293.512 355.798 294.032L354.886 294.452C354.742 294.116 354.526 293.852 354.238 293.66C353.95 293.46 353.626 293.36 353.266 293.36C352.938 293.36 352.678 293.444 352.486 293.612C352.294 293.772 352.198 293.976 352.198 294.224C352.198 294.408 352.246 294.56 352.342 294.68C352.438 294.792 352.554 294.88 352.69 294.944C352.826 295 352.958 295.048 353.086 295.088L354.142 295.4C354.67 295.552 355.078 295.788 355.366 296.108C355.662 296.428 355.81 296.812 355.81 297.26C355.81 297.62 355.71 297.944 355.51 298.232C355.31 298.52 355.034 298.744 354.682 298.904C354.33 299.064 353.922 299.144 353.458 299.144ZM359.106 301.4V292.532H360.198V293.924L360.054 293.648C360.294 293.264 360.622 292.96 361.038 292.736C361.454 292.504 361.93 292.388 362.466 292.388C363.074 292.388 363.618 292.536 364.098 292.832C364.586 293.128 364.97 293.532 365.25 294.044C365.53 294.548 365.67 295.124 365.67 295.772C365.67 296.404 365.53 296.976 365.25 297.488C364.97 298 364.586 298.404 364.098 298.7C363.618 298.996 363.07 299.144 362.454 299.144C361.934 299.144 361.458 299.028 361.026 298.796C360.602 298.564 360.274 298.236 360.042 297.812L360.222 297.62V301.4H359.106ZM362.37 298.064C362.778 298.064 363.142 297.964 363.462 297.764C363.782 297.564 364.03 297.292 364.206 296.948C364.39 296.596 364.482 296.204 364.482 295.772C364.482 295.324 364.39 294.932 364.206 294.596C364.03 294.252 363.782 293.98 363.462 293.78C363.142 293.572 362.778 293.468 362.37 293.468C361.962 293.468 361.594 293.568 361.266 293.768C360.946 293.968 360.69 294.244 360.498 294.596C360.314 294.94 360.222 295.332 360.222 295.772C360.222 296.204 360.314 296.596 360.498 296.948C360.69 297.292 360.946 297.564 361.266 297.764C361.594 297.964 361.962 298.064 362.37 298.064ZM367.013 299V292.532H368.105V293.72L367.985 293.552C368.137 293.184 368.369 292.912 368.681 292.736C368.993 292.552 369.373 292.46 369.821 292.46H370.217V293.516H369.653C369.197 293.516 368.829 293.66 368.549 293.948C368.269 294.228 368.129 294.628 368.129 295.148V299H367.013ZM374.064 299.144C373.44 299.144 372.884 298.996 372.396 298.7C371.908 298.404 371.524 298 371.244 297.488C370.964 296.968 370.824 296.388 370.824 295.748C370.824 295.1 370.96 294.524 371.232 294.02C371.512 293.516 371.888 293.12 372.36 292.832C372.84 292.536 373.376 292.388 373.968 292.388C374.448 292.388 374.872 292.476 375.24 292.652C375.616 292.82 375.932 293.052 376.188 293.348C376.452 293.636 376.652 293.968 376.788 294.344C376.932 294.712 377.004 295.096 377.004 295.496C377.004 295.584 376.996 295.684 376.98 295.796C376.972 295.9 376.96 296 376.944 296.096H371.64V295.136H376.296L375.768 295.568C375.84 295.152 375.8 294.78 375.648 294.452C375.496 294.124 375.272 293.864 374.976 293.672C374.68 293.48 374.344 293.384 373.968 293.384C373.592 293.384 373.248 293.48 372.936 293.672C372.624 293.864 372.38 294.14 372.204 294.5C372.036 294.852 371.968 295.272 372 295.76C371.968 296.232 372.04 296.648 372.216 297.008C372.4 297.36 372.656 297.636 372.984 297.836C373.32 298.028 373.684 298.124 374.076 298.124C374.508 298.124 374.872 298.024 375.168 297.824C375.464 297.624 375.704 297.368 375.888 297.056L376.824 297.536C376.696 297.832 376.496 298.104 376.224 298.352C375.96 298.592 375.644 298.784 375.276 298.928C374.916 299.072 374.512 299.144 374.064 299.144ZM380.022 299L377.49 292.532H378.738L380.766 298.004H380.334L382.374 292.532H383.622L381.078 299H380.022ZM384.501 299V292.532H385.617V299H384.501ZM384.501 291.5V290.06H385.617V291.5H384.501ZM390.3 299.144C389.676 299.144 389.112 299 388.608 298.712C388.104 298.416 387.704 298.012 387.408 297.5C387.112 296.988 386.964 296.408 386.964 295.76C386.964 295.112 387.108 294.536 387.396 294.032C387.692 293.528 388.092 293.128 388.596 292.832C389.1 292.536 389.668 292.388 390.3 292.388C390.924 292.388 391.488 292.536 391.992 292.832C392.496 293.12 392.892 293.516 393.18 294.02C393.476 294.524 393.624 295.104 393.624 295.76C393.624 296.416 393.472 297 393.168 297.512C392.864 298.016 392.46 298.416 391.956 298.712C391.46 299 390.908 299.144 390.3 299.144ZM390.3 298.064C390.7 298.064 391.06 297.964 391.38 297.764C391.708 297.564 391.964 297.288 392.148 296.936C392.34 296.584 392.436 296.192 392.436 295.76C392.436 295.32 392.34 294.932 392.148 294.596C391.964 294.252 391.708 293.98 391.38 293.78C391.06 293.572 390.7 293.468 390.3 293.468C389.892 293.468 389.524 293.572 389.196 293.78C388.876 293.98 388.62 294.252 388.428 294.596C388.236 294.932 388.14 295.32 388.14 295.76C388.14 296.192 388.236 296.584 388.428 296.936C388.62 297.288 388.876 297.564 389.196 297.764C389.524 297.964 389.892 298.064 390.3 298.064ZM397.252 299.144C396.788 299.144 396.368 299.036 395.992 298.82C395.624 298.604 395.336 298.304 395.128 297.92C394.928 297.528 394.828 297.08 394.828 296.576V292.532H395.944V296.456C395.944 296.776 396.008 297.056 396.136 297.296C396.272 297.536 396.456 297.724 396.688 297.86C396.928 297.996 397.2 298.064 397.504 298.064C397.808 298.064 398.076 297.996 398.308 297.86C398.548 297.724 398.732 297.528 398.86 297.272C398.996 297.016 399.064 296.712 399.064 296.36V292.532H400.192V299H399.1V297.74L399.28 297.848C399.128 298.256 398.868 298.576 398.5 298.808C398.14 299.032 397.724 299.144 397.252 299.144ZM404.117 299.144C403.469 299.144 402.905 298.984 402.425 298.664C401.945 298.344 401.605 297.912 401.405 297.368L402.293 296.936C402.477 297.32 402.729 297.624 403.049 297.848C403.369 298.072 403.725 298.184 404.117 298.184C404.469 298.184 404.761 298.1 404.993 297.932C405.225 297.764 405.341 297.544 405.341 297.272C405.341 297.08 405.285 296.928 405.173 296.816C405.069 296.696 404.941 296.604 404.789 296.54C404.637 296.468 404.497 296.416 404.369 296.384L403.397 296.108C402.813 295.94 402.385 295.7 402.113 295.388C401.849 295.076 401.717 294.712 401.717 294.296C401.717 293.912 401.813 293.58 402.005 293.3C402.205 293.012 402.473 292.788 402.809 292.628C403.153 292.468 403.537 292.388 403.961 292.388C404.529 292.388 405.037 292.532 405.485 292.82C405.941 293.108 406.265 293.512 406.457 294.032L405.545 294.452C405.401 294.116 405.185 293.852 404.897 293.66C404.609 293.46 404.285 293.36 403.925 293.36C403.597 293.36 403.337 293.444 403.145 293.612C402.953 293.772 402.857 293.976 402.857 294.224C402.857 294.408 402.905 294.56 403.001 294.68C403.097 294.792 403.213 294.88 403.349 294.944C403.485 295 403.617 295.048 403.745 295.088L404.801 295.4C405.329 295.552 405.737 295.788 406.025 296.108C406.321 296.428 406.469 296.812 406.469 297.26C406.469 297.62 406.369 297.944 406.169 298.232C405.969 298.52 405.693 298.744 405.341 298.904C404.989 299.064 404.581 299.144 404.117 299.144ZM411.252 299L409.032 292.532H410.268L412.032 297.944L411.6 297.932L413.328 292.532H414.384L416.112 297.932L415.68 297.944L417.456 292.532H418.68L416.46 299H415.392L413.688 293.6H414.024L412.32 299H411.252ZM422.417 299.144C421.793 299.144 421.237 298.996 420.749 298.7C420.261 298.404 419.877 298 419.597 297.488C419.317 296.968 419.177 296.388 419.177 295.748C419.177 295.1 419.313 294.524 419.585 294.02C419.865 293.516 420.241 293.12 420.713 292.832C421.193 292.536 421.729 292.388 422.321 292.388C422.801 292.388 423.225 292.476 423.593 292.652C423.969 292.82 424.285 293.052 424.541 293.348C424.805 293.636 425.005 293.968 425.141 294.344C425.285 294.712 425.357 295.096 425.357 295.496C425.357 295.584 425.349 295.684 425.333 295.796C425.325 295.9 425.313 296 425.297 296.096H419.993V295.136H424.649L424.121 295.568C424.193 295.152 424.153 294.78 424.001 294.452C423.849 294.124 423.625 293.864 423.329 293.672C423.033 293.48 422.697 293.384 422.321 293.384C421.945 293.384 421.601 293.48 421.289 293.672C420.977 293.864 420.733 294.14 420.557 294.5C420.389 294.852 420.321 295.272 420.353 295.76C420.321 296.232 420.393 296.648 420.569 297.008C420.753 297.36 421.009 297.636 421.337 297.836C421.673 298.028 422.037 298.124 422.429 298.124C422.861 298.124 423.225 298.024 423.521 297.824C423.817 297.624 424.057 297.368 424.241 297.056L425.177 297.536C425.049 297.832 424.849 298.104 424.577 298.352C424.313 298.592 423.997 298.784 423.629 298.928C423.269 299.072 422.865 299.144 422.417 299.144ZM429.668 299.144C429.044 299.144 428.488 298.996 428 298.7C427.512 298.404 427.128 298 426.848 297.488C426.568 296.968 426.428 296.388 426.428 295.748C426.428 295.1 426.564 294.524 426.836 294.02C427.116 293.516 427.492 293.12 427.964 292.832C428.444 292.536 428.98 292.388 429.572 292.388C430.052 292.388 430.476 292.476 430.844 292.652C431.22 292.82 431.536 293.052 431.792 293.348C432.056 293.636 432.256 293.968 432.392 294.344C432.536 294.712 432.608 295.096 432.608 295.496C432.608 295.584 432.6 295.684 432.584 295.796C432.576 295.9 432.564 296 432.548 296.096H427.244V295.136H431.9L431.372 295.568C431.444 295.152 431.404 294.78 431.252 294.452C431.1 294.124 430.876 293.864 430.58 293.672C430.284 293.48 429.948 293.384 429.572 293.384C429.196 293.384 428.852 293.48 428.54 293.672C428.228 293.864 427.984 294.14 427.808 294.5C427.64 294.852 427.572 295.272 427.604 295.76C427.572 296.232 427.644 296.648 427.82 297.008C428.004 297.36 428.26 297.636 428.588 297.836C428.924 298.028 429.288 298.124 429.68 298.124C430.112 298.124 430.476 298.024 430.772 297.824C431.068 297.624 431.308 297.368 431.492 297.056L432.428 297.536C432.3 297.832 432.1 298.104 431.828 298.352C431.564 298.592 431.248 298.784 430.88 298.928C430.52 299.072 430.116 299.144 429.668 299.144ZM433.943 299V289.916H435.059V296.144L434.603 296.036L438.035 292.532H439.463L436.979 295.136L439.631 299H438.311L435.887 295.496L436.583 295.46L434.699 297.428L435.059 296.612V299H433.943Z" fill="#D2D2D2"/>
<path d="M370.756 279V278.048L373.64 274.926C374.209 274.319 374.662 273.82 374.998 273.428C375.343 273.036 375.595 272.686 375.754 272.378C375.913 272.07 375.992 271.743 375.992 271.398C375.992 270.829 375.824 270.39 375.488 270.082C375.152 269.774 374.709 269.62 374.158 269.62C373.598 269.62 373.122 269.783 372.73 270.11C372.338 270.427 372.067 270.88 371.918 271.468L370.672 271.146C370.793 270.586 371.017 270.101 371.344 269.69C371.671 269.279 372.077 268.962 372.562 268.738C373.047 268.514 373.579 268.402 374.158 268.402C374.793 268.402 375.348 268.528 375.824 268.78C376.309 269.023 376.687 269.363 376.958 269.802C377.238 270.241 377.378 270.749 377.378 271.328C377.378 271.711 377.299 272.084 377.14 272.448C376.981 272.812 376.748 273.199 376.44 273.61C376.132 274.011 375.731 274.478 375.236 275.01L372.66 277.81H377.602V279H370.756ZM380.243 279L388.755 268.57H390.309L381.797 279H380.243ZM381.811 273.862C381.298 273.862 380.836 273.741 380.425 273.498C380.014 273.246 379.683 272.915 379.431 272.504C379.188 272.093 379.067 271.636 379.067 271.132C379.067 270.628 379.188 270.171 379.431 269.76C379.683 269.34 380.014 269.009 380.425 268.766C380.836 268.523 381.298 268.402 381.811 268.402C382.315 268.402 382.772 268.523 383.183 268.766C383.594 269.009 383.92 269.34 384.163 269.76C384.406 270.171 384.527 270.628 384.527 271.132C384.527 271.636 384.406 272.093 384.163 272.504C383.92 272.915 383.594 273.246 383.183 273.498C382.772 273.741 382.315 273.862 381.811 273.862ZM381.797 272.714C382.114 272.714 382.385 272.639 382.609 272.49C382.833 272.341 383.01 272.145 383.141 271.902C383.272 271.659 383.337 271.403 383.337 271.132C383.337 270.852 383.272 270.595 383.141 270.362C383.01 270.119 382.833 269.923 382.609 269.774C382.385 269.615 382.114 269.536 381.797 269.536C381.498 269.536 381.232 269.615 380.999 269.774C380.766 269.923 380.584 270.119 380.453 270.362C380.322 270.605 380.257 270.861 380.257 271.132C380.257 271.393 380.322 271.65 380.453 271.902C380.584 272.145 380.766 272.341 380.999 272.49C381.232 272.639 381.498 272.714 381.797 272.714ZM388.657 279.168C388.144 279.168 387.682 279.047 387.271 278.804C386.86 278.552 386.529 278.221 386.277 277.81C386.034 277.399 385.913 276.942 385.913 276.438C385.913 275.934 386.034 275.477 386.277 275.066C386.529 274.646 386.86 274.315 387.271 274.072C387.682 273.829 388.144 273.708 388.657 273.708C389.161 273.708 389.618 273.829 390.029 274.072C390.44 274.315 390.766 274.646 391.009 275.066C391.252 275.477 391.373 275.934 391.373 276.438C391.373 276.942 391.252 277.399 391.009 277.81C390.766 278.221 390.44 278.552 390.029 278.804C389.618 279.047 389.161 279.168 388.657 279.168ZM388.657 278.02C388.965 278.02 389.231 277.945 389.455 277.796C389.688 277.647 389.866 277.451 389.987 277.208C390.118 276.965 390.183 276.709 390.183 276.438C390.183 276.158 390.118 275.901 389.987 275.668C389.866 275.425 389.688 275.229 389.455 275.08C389.231 274.921 388.965 274.842 388.657 274.842C388.358 274.842 388.088 274.921 387.845 275.08C387.612 275.229 387.43 275.425 387.299 275.668C387.168 275.911 387.103 276.167 387.103 276.438C387.103 276.699 387.168 276.956 387.299 277.208C387.43 277.451 387.612 277.647 387.845 277.796C388.088 277.945 388.358 278.02 388.657 278.02Z" fill="#68D585"/>
<path d="M355.749 267.5L363.303 267.501L363.403 267.514L363.502 267.542L363.562 267.568C363.641 267.602 363.715 267.653 363.781 267.718L363.822 267.762L363.865 267.819L363.919 267.909L363.958 267.999L363.977 268.063L363.991 268.127L364 268.221L364 275.754C364 276.168 363.665 276.504 363.25 276.504C362.871 276.504 362.557 276.222 362.507 275.856L362.5 275.754L362.5 270.059L354.781 277.779C354.515 278.045 354.098 278.07 353.805 277.852L353.72 277.779L350.75 274.809L345.28 280.279C344.987 280.572 344.513 280.572 344.22 280.279C343.953 280.012 343.929 279.596 344.147 279.302L344.22 279.218L350.22 273.218C350.486 272.952 350.903 272.927 351.196 273.145L351.28 273.218L354.251 276.188L361.438 269H355.749C355.369 269 355.055 268.718 355.006 268.352L354.999 268.25C354.999 267.87 355.281 267.557 355.647 267.507L355.749 267.5Z" fill="#68D585"/>
<rect x="158.5" y="194.5" width="313" height="155" rx="18.5" stroke="#D2D2D2" shape-rendering="crispEdges"/>
</g>
<defs>
<filter id="filter0_d_486_6613" x="0" y="0" width="371" height="204" filterUnits="userSpaceOnUse" color-interpolation-filters="sRGB">
<feFlood flood-opacity="0" result="BackgroundImageFix"/>
<feColorMatrix in="SourceAlpha" type="matrix" values="0 0 0 0 0 0 0 0 0 0 0 0 0 0 0 0 0 0 127 0" result="hardAlpha"/>
<feOffset dy="2"/>
<feGaussianBlur stdDeviation="12"/>
<feComposite in2="hardAlpha" operator="out"/>
<feColorMatrix type="matrix" values="0 0 0 0 0 0 0 0 0 0 0 0 0 0 0 0 0 0 0.1 0"/>
<feBlend mode="normal" in2="BackgroundImageFix" result="effect1_dropShadow_486_6613"/>
<feBlend mode="normal" in="SourceGraphic" in2="effect1_dropShadow_486_6613" result="shape"/>
</filter>
<filter id="filter1_d_486_6613" x="134" y="172" width="362" height="204" filterUnits="userSpaceOnUse" color-interpolation-filters="sRGB">
<feFlood flood-opacity="0" result="BackgroundImageFix"/>
<feColorMatrix in="SourceAlpha" type="matrix" values="0 0 0 0 0 0 0 0 0 0 0 0 0 0 0 0 0 0 127 0" result="hardAlpha"/>
<feOffset dy="2"/>
<feGaussianBlur stdDeviation="12"/>
<feComposite in2="hardAlpha" operator="out"/>
<feColorMatrix type="matrix" values="0 0 0 0 0 0 0 0 0 0 0 0 0 0 0 0 0 0 0.1 0"/>
<feBlend mode="normal" in2="BackgroundImageFix" result="effect1_dropShadow_486_6613"/>
<feBlend mode="normal" in="SourceGraphic" in2="effect1_dropShadow_486_6613" result="shape"/>
</filter>
</defs>
</svg>
