<svg width="161" height="115" viewBox="0 0 161 115" fill="none" xmlns="http://www.w3.org/2000/svg">
<g clip-path="url(#clip0_486_6740)">
<mask id="mask0_486_6740" style="mask-type:luminance" maskUnits="userSpaceOnUse" x="0" y="0" width="161" height="115">
<path fill-rule="evenodd" clip-rule="evenodd" d="M0 0H161V115H0V0Z" fill="white"/>
</mask>
<g mask="url(#mask0_486_6740)">
<path fill-rule="evenodd" clip-rule="evenodd" d="M20.3446 41.1872H14.375V61.9645H20.267C23.4465 61.9645 25.6942 61.2662 27.7101 59.561C30.036 57.6233 31.5086 54.6767 31.5086 51.5754C31.5086 45.4517 26.9341 41.1872 20.3446 41.1872ZM25.074 56.8476C23.7564 57.9335 22.1271 58.476 19.4919 58.476H18.4069V44.7533H19.4919C22.1271 44.7533 23.6782 45.2185 25.074 46.3812C26.4693 47.6211 27.3226 49.5603 27.3226 51.5754C27.3217 53.5914 26.4693 55.6073 25.074 56.8476ZM33.3696 61.9654H37.4006V41.1872H33.3696V61.9654ZM47.3239 49.1728C44.8428 48.2427 44.1453 47.7002 44.1453 46.5367C44.1453 45.2191 45.4629 44.289 47.169 44.289C48.409 44.289 49.4172 44.7542 50.4249 45.9168L52.5958 43.204C50.8125 41.6532 48.7198 40.8781 46.4712 40.8781C42.7501 40.8781 39.9591 43.4366 39.9591 46.8475C39.9591 49.7162 41.2767 51.112 45.0763 52.5072C46.7047 53.0497 47.4798 53.4373 47.8673 53.6699C48.7197 54.2129 49.1073 54.9875 49.1073 55.8408C49.1073 57.5465 47.7897 58.7868 45.9287 58.7868C44.0677 58.7868 42.4402 57.7791 41.5093 55.9957L38.9516 58.5542C40.8126 61.267 43.0603 62.5079 46.1613 62.5079C50.3473 62.5079 53.2942 59.7168 53.2942 55.6855C53.2933 52.3514 51.8983 50.8779 47.3239 49.1728ZM54.5344 51.5754C54.5344 57.7 59.3411 62.4294 65.5425 62.4294C67.2486 62.4294 68.7988 62.1189 70.5821 61.2662V56.4592C68.9537 58.087 67.5585 58.7851 65.6975 58.7851C61.6665 58.7851 58.7204 55.7617 58.7204 51.5749C58.7204 47.6212 61.7441 44.4425 65.5425 44.4425C67.4811 44.4425 68.9537 45.14 70.5821 46.7684V42.0391C68.8761 41.1084 67.4035 40.7214 65.6202 40.7214C59.4955 40.7223 54.5344 45.6066 54.5344 51.5754Z" fill="black"/>
<path fill-rule="evenodd" clip-rule="evenodd" d="M83.2195 40.7224C77.0943 40.7224 72.1323 45.5294 72.1323 51.4206C72.1323 57.7783 76.8617 62.4295 83.2195 62.4295C89.42 62.4295 94.3055 57.7001 94.3055 51.5755C94.3061 45.5294 89.4985 40.7224 83.2195 40.7224Z" fill="#DB8135"/>
<path fill-rule="evenodd" clip-rule="evenodd" d="M103.453 55.1425L97.9489 41.1873H93.4519L102.291 62.5071H104.462L113.455 41.1873H109.036L103.453 55.1425ZM115.316 61.9655H126.79V58.4761H119.347V52.894H126.479V49.3278H119.347V44.7534H126.79V41.1873H115.316V61.9655ZM142.838 47.3119C142.838 43.4358 140.201 41.1873 135.473 41.1873H129.503V61.9646H133.534V53.6691H134.076L139.658 61.9646H144.62L138.108 53.2033C141.131 52.584 142.838 50.4905 142.838 47.3119ZM134.696 50.8013H133.534V44.4441H134.774C137.332 44.4441 138.649 45.5294 138.649 47.5453C138.65 49.638 137.333 50.8013 134.696 50.8013ZM15.2984 68.0659V69.9275H17.5973V70.6807H15.2984V73.924H14.4722V67.3118H17.6723V68.0659H15.2984ZM21.4463 67.3118H22.2732V73.924H21.4463V67.3118ZM26.2651 66.9944L31.2242 72.1979V67.3118H32.0505V74.1966L27.0862 68.996V73.924H26.2651V66.9944ZM39.6951 71.5139H37.3396L38.5167 68.8364L39.6951 71.5139ZM40.0338 72.2677L40.7876 73.924H41.6771L38.5175 67.0312L35.359 73.924H36.2448L37.0012 72.2677H40.0338ZM44.9843 66.9944L49.9485 72.1979V67.3118H50.7757V74.1966L45.8054 68.996V73.924H44.9843V66.9944ZM59.5947 68.5759C59.1247 68.153 58.4729 67.9265 57.849 67.9265C56.3704 67.9265 55.2385 69.163 55.2385 70.6281C55.2385 72.0751 56.3592 73.3108 57.8341 73.3108C58.4841 73.3108 59.1042 73.067 59.5941 72.6268V73.602C59.0649 73.9019 58.4671 74.0612 57.8588 74.0646C55.9693 74.0646 54.4102 72.5659 54.4102 70.6528C54.4102 68.6964 55.98 67.1689 57.931 67.1689C58.5111 67.1689 59.0973 67.3118 59.5933 67.618V68.5759H59.5947ZM63.3897 67.3118H64.2114V73.924H63.3897V67.3118ZM71.9147 71.5139H69.56L70.7431 68.8364L71.9147 71.5139ZM72.2542 72.2677L73.0103 73.924H73.8961L70.7431 67.0312L67.5835 73.924H68.4667L69.2208 72.2677H72.2542ZM78.1071 73.1736H80.117V73.924H77.2855V67.3118H78.1071V73.1736ZM91.8002 68.567C91.561 68.1525 91.2433 67.9423 90.7393 67.9423C90.2117 67.9423 89.6307 68.3014 89.6307 68.8824C89.6307 69.3976 90.147 69.6716 90.5564 69.8289L91.0268 70.0149C91.9689 70.3812 92.6702 70.9004 92.6702 72.0044C92.6702 73.2076 91.7387 74.0646 90.5564 74.0646C89.4849 74.0646 88.6518 73.2769 88.5149 72.2151L89.3464 72.0412C89.3357 72.7674 89.9153 73.2941 90.6217 73.2941C91.3344 73.2941 91.8416 72.6998 91.8416 72.0044C91.8416 71.2957 91.2726 70.9869 90.7039 70.7486L90.2494 70.558C89.4924 70.2331 88.809 69.8041 88.809 68.8824C88.809 67.8106 89.7558 67.1689 90.758 67.1689C91.4917 67.1689 92.0983 67.5309 92.4557 68.1697L91.8002 68.567ZM96.4033 67.3118H99.958V68.0659H97.2302V69.9191H99.8835V70.6724H97.2302V73.1736H99.958V73.924H96.4033V67.3118ZM104.639 68.0484H104.851C105.674 68.0484 106.654 68.1976 106.654 69.2343C106.654 70.2857 105.736 70.4421 104.896 70.4421H104.638V68.0484H104.639ZM105.839 71.0496C106.794 70.9337 107.426 70.1466 107.426 69.1975C107.426 68.567 107.108 67.9423 106.554 67.6174C106.03 67.3201 105.398 67.3118 104.813 67.3118H103.814V73.924H104.64V71.1301H104.979L106.927 73.924H107.925L105.839 71.0496ZM113.59 72.2062L115.555 67.3118H116.46L113.59 74.2785L110.715 67.3118H111.619L113.59 72.2062ZM119.828 67.3118H120.653V73.924H119.828V67.3118ZM129.545 68.5759C129.069 68.153 128.417 67.9265 127.791 67.9265C126.314 67.9265 125.182 69.163 125.182 70.6281C125.182 72.0751 126.302 73.3108 127.776 73.3108C128.427 73.3108 129.053 73.067 129.545 72.6268V73.602C129.014 73.9013 128.416 74.0606 127.806 74.0646C125.922 74.0646 124.355 72.5659 124.355 70.6528C124.355 68.6964 125.932 67.1689 127.875 67.1689C128.455 67.1689 129.042 67.3118 129.546 67.618V68.5759H129.545ZM133.355 67.3118H136.909V68.0659H134.183V69.9191H136.83V70.6724H134.183V73.1736H136.909V73.924H133.355V67.3118ZM143.696 68.567C143.455 68.1525 143.139 67.9423 142.639 67.9423C142.114 67.9423 141.534 68.3014 141.534 68.8824C141.534 69.3976 142.045 69.6716 142.454 69.8289L142.932 70.0149C143.866 70.3812 144.568 70.9004 144.568 72.0044C144.568 73.2076 143.638 74.0646 142.454 74.0646C141.387 74.0646 140.548 73.2769 140.414 72.2151L141.243 72.0412C141.233 72.7674 141.817 73.2941 142.525 73.2941C143.236 73.2941 143.746 72.6998 143.746 72.0044C143.746 71.2957 143.171 70.9869 142.604 70.7486L142.148 70.558C141.391 70.2331 140.708 69.8041 140.708 68.8824C140.708 67.8106 141.656 67.1689 142.657 67.1689C143.391 67.1689 143.999 67.5309 144.361 68.1697L143.696 68.567ZM145.206 43.0301C145.206 43.1897 145.098 43.2739 144.876 43.2739H144.801V42.7978H144.882C145.101 42.7984 145.206 42.8737 145.206 43.0301ZM145.855 44.2891L145.252 43.5321C145.51 43.466 145.658 43.2777 145.658 43.0189C145.658 42.6607 145.407 42.4583 144.96 42.4583H144.376V44.2891H144.809V43.5804L145.322 44.2891H145.855ZM146.625 43.3702C146.625 42.496 145.914 41.7752 145.051 41.7752C145.047 41.7749 145.044 41.7749 145.04 41.7749C144.169 41.7749 143.452 42.4922 143.452 43.3636V43.3702C143.452 44.2592 144.166 44.9679 145.051 44.9679C145.914 44.967 146.625 44.2471 146.625 43.3702ZM146.303 43.3748C146.303 44.0927 145.739 44.6812 145.043 44.6812C144.343 44.6812 143.768 44.0959 143.768 43.3748C143.768 42.6457 144.338 42.0661 145.043 42.0661C145.739 42.0661 146.303 42.6547 146.303 43.3748Z" fill="black"/>
</g>
</g>
<defs>
<clipPath id="clip0_486_6740">
<rect width="161" height="115" fill="white"/>
</clipPath>
</defs>
</svg>
