<svg width="328" height="371" viewBox="0 0 328 371" fill="none" xmlns="http://www.w3.org/2000/svg">
<circle cx="164" cy="176" r="163.5" stroke="#3F3975" stroke-linecap="round" stroke-linejoin="round" stroke-dasharray="13 13"/>
<circle cx="166" cy="179" r="78.5" stroke="#3F3975" stroke-linecap="round" stroke-linejoin="round" stroke-dasharray="13 13"/>
<circle cx="51.5" cy="48.5" r="36.5" fill="#3F3975"/>
<path d="M51.8173 69.7653C48.2626 69.7653 44.9934 68.9559 42.0099 67.3372C39.0265 65.7185 36.5826 63.5603 34.6782 60.8625V64.0522C34.6782 64.5918 34.496 65.0438 34.1317 65.4081C33.766 65.7738 33.3134 65.9566 32.7739 65.9566C32.2343 65.9566 31.7823 65.7738 31.418 65.4081C31.0523 65.0438 30.8695 64.5918 30.8695 64.0522V56.4348C30.8695 55.8953 31.0523 55.4427 31.418 55.077C31.7823 54.7127 32.2343 54.5305 32.7739 54.5305H40.3912C40.9308 54.5305 41.3834 54.7127 41.749 55.077C42.1134 55.4427 42.2956 55.8953 42.2956 56.4348C42.2956 56.9744 42.1134 57.4264 41.749 57.7907C41.3834 58.1564 40.9308 58.3392 40.3912 58.3392H37.5823C39.1058 60.6244 41.1136 62.4653 43.6058 63.8618C46.0967 65.2583 48.8339 65.9566 51.8173 65.9566C56.2608 65.9566 60.0936 64.4966 63.3158 61.5766C66.5367 58.6566 68.3852 55.0383 68.8612 50.7218C68.9247 50.1822 69.1393 49.7296 69.5049 49.364C69.8693 48.9996 70.3212 48.8175 70.8608 48.8175C71.4004 48.8175 71.8523 49.0079 72.2167 49.3888C72.5823 49.7696 72.7334 50.214 72.6699 50.7218C72.4478 53.3879 71.7419 55.8794 70.5523 58.1964C69.3615 60.5133 67.838 62.5288 65.9819 64.2427C64.1245 65.9566 61.9815 67.3055 59.5528 68.2894C57.1254 69.2733 54.5469 69.7653 51.8173 69.7653ZM32.7739 48.8175C32.2343 48.8175 31.7823 48.627 31.418 48.2462C31.0523 47.8653 30.9012 47.4209 30.9647 46.9131C31.2186 44.247 31.9328 41.7555 33.1071 39.4385C34.2815 37.1216 35.7967 35.1062 37.6528 33.3922C39.5102 31.6783 41.6532 30.3294 44.0819 29.3455C46.5093 28.3616 49.0878 27.8696 51.8173 27.8696C55.3721 27.8696 58.6412 28.679 61.6247 30.2977C64.6082 31.9164 67.0521 34.0746 68.9565 36.7725V33.5827C68.9565 33.0431 69.1393 32.5905 69.5049 32.2249C69.8693 31.8605 70.3212 31.6783 70.8608 31.6783C71.4004 31.6783 71.8523 31.8605 72.2167 32.2249C72.5823 32.5905 72.7652 33.0431 72.7652 33.5827V41.2001C72.7652 41.7396 72.5823 42.1916 72.2167 42.556C71.8523 42.9216 71.4004 43.1044 70.8608 43.1044H63.2434C62.7039 43.1044 62.2519 42.9216 61.8875 42.556C61.5219 42.1916 61.3391 41.7396 61.3391 41.2001C61.3391 40.6605 61.5219 40.2079 61.8875 39.8423C62.2519 39.4779 62.7039 39.2957 63.2434 39.2957H66.0523C64.5289 37.0105 62.521 35.1696 60.0289 33.7731C57.538 32.3766 54.8008 31.6783 51.8173 31.6783C47.3739 31.6783 43.5417 33.1383 40.3208 36.0583C37.0986 38.9783 35.2495 42.5966 34.7734 46.9131C34.7099 47.4527 34.496 47.9046 34.1317 48.269C33.766 48.6346 33.3134 48.8175 32.7739 48.8175ZM51.7697 62.1479C51.3254 62.1479 50.9369 61.9816 50.6043 61.649C50.2704 61.3151 50.1034 60.9259 50.1034 60.4816V59.6722C48.8973 59.4183 47.8658 58.9499 47.0089 58.2668C46.1519 57.5851 45.4695 56.7046 44.9617 55.6255C44.7712 55.2129 44.7795 54.7844 44.9864 54.3401C45.1921 53.8957 45.5171 53.5942 45.9615 53.4355C46.3741 53.2768 46.7867 53.2768 47.1993 53.4355C47.6119 53.5942 47.9452 53.8957 48.1991 54.3401C48.6434 55.1335 49.1989 55.7283 49.8654 56.1244C50.5319 56.5218 51.2778 56.7205 52.103 56.7205C53.1504 56.7205 54.0467 56.4742 54.7919 55.9816C55.5384 55.4903 55.9117 54.7209 55.9117 53.6735C55.9117 52.7531 55.5232 52.0072 54.7462 51.4359C53.968 50.8646 52.5791 50.214 50.5795 49.484C48.7069 48.8175 47.3345 48.024 46.4623 47.1035C45.5888 46.1831 45.1521 44.977 45.1521 43.4853C45.1521 42.184 45.5965 41.0096 46.4852 39.9622C47.3739 38.9148 48.6117 38.2166 50.1986 37.8675V37.1533C50.1986 36.709 50.3656 36.3199 50.6995 35.986C51.0321 35.6533 51.4206 35.487 51.8649 35.487C52.3093 35.487 52.6978 35.6533 53.0304 35.986C53.3643 36.3199 53.5312 36.709 53.5312 37.1533V37.8675C54.3882 37.9309 55.1899 38.2166 55.9364 38.7244C56.6817 39.2322 57.3082 39.8512 57.816 40.5812C58.0699 40.962 58.1099 41.3822 57.936 41.8418C57.7608 42.3027 57.4352 42.6283 56.9591 42.8188C56.6099 42.9775 56.2373 42.9857 55.8412 42.8435C55.4438 42.7001 55.0865 42.4379 54.7691 42.057C54.4517 41.6762 54.0549 41.3746 53.5789 41.1525C53.1028 40.9303 52.5473 40.8192 51.9126 40.8192C50.8017 40.8192 49.953 41.0572 49.3664 41.5333C48.7786 42.0094 48.4847 42.6601 48.4847 43.4853C48.4847 44.3105 48.8497 44.9612 49.5797 45.4372C50.3097 45.9133 51.6269 46.4688 53.5312 47.1035C55.8165 47.9288 57.3399 48.8968 58.1017 50.0077C58.8634 51.1185 59.2443 52.3405 59.2443 53.6735C59.2443 55.5462 58.673 56.9585 57.5304 57.9107C56.3878 58.8629 55.023 59.4818 53.436 59.7675V60.4816C53.436 60.9259 53.2697 61.3151 52.9371 61.649C52.6032 61.9816 52.2141 62.1479 51.7697 62.1479Z" fill="#E6E2FF"/>
<circle cx="249" cy="147" r="32" fill="#3F3975"/>
<g clip-path="url(#clip0_159_2)">
<path d="M247.863 130.665C248.522 130.418 249.242 130.386 249.92 130.573L250.207 130.665L261.894 135.047C262.487 135.269 263.004 135.656 263.386 136.16C263.767 136.665 263.997 137.268 264.05 137.899L264.061 138.174V147.128C264.061 149.834 263.331 152.489 261.947 154.814C260.563 157.139 258.577 159.047 256.199 160.336L255.755 160.569L250.155 163.368C249.847 163.522 249.51 163.611 249.166 163.629C248.822 163.647 248.478 163.593 248.155 163.472L247.915 163.368L242.315 160.569C239.895 159.359 237.847 157.518 236.386 155.24C234.926 152.963 234.107 150.333 234.017 147.629L234.009 147.128V138.174C234.009 137.542 234.188 136.922 234.527 136.388C234.865 135.853 235.349 135.426 235.92 135.156L236.176 135.047L247.863 130.665ZM249.035 133.792L237.348 138.174V147.128C237.348 149.224 237.911 151.281 238.979 153.083C240.047 154.886 241.58 156.369 243.417 157.376L243.809 157.582L249.035 160.195L254.261 157.582C256.135 156.645 257.723 155.221 258.859 153.459C259.994 151.698 260.635 149.663 260.714 147.569L260.722 147.128V138.174L249.035 133.792ZM254.767 141.407C255.067 141.107 255.47 140.933 255.894 140.92C256.318 140.908 256.731 141.056 257.05 141.337C257.368 141.618 257.567 142.009 257.607 142.431C257.648 142.853 257.526 143.275 257.266 143.611L257.128 143.768L248.389 152.508C248.071 152.826 247.646 153.016 247.197 153.042C246.748 153.069 246.304 152.929 245.951 152.65L245.791 152.508L241.777 148.494C241.475 148.194 241.298 147.79 241.284 147.365C241.269 146.939 241.418 146.524 241.7 146.204C241.981 145.885 242.374 145.685 242.799 145.645C243.223 145.606 243.646 145.731 243.981 145.993L244.138 146.132L247.09 149.083L254.767 141.407Z" fill="#E6E2FF"/>
</g>
<circle cx="253" cy="36" r="36" fill="#3F3975"/>
<path d="M265.781 26.2397H263.902V24.3613C263.902 22.8667 263.309 21.4334 262.252 20.3766C261.195 19.3198 259.762 18.7261 258.267 18.7261H239.483C237.988 18.7261 236.555 19.3198 235.498 20.3766C234.441 21.4334 233.848 22.8667 233.848 24.3613V46.9022C233.848 48.3968 234.441 49.8301 235.498 50.8869C236.555 51.9437 237.988 52.5374 239.483 52.5374H265.781C267.275 52.5374 268.709 51.9437 269.765 50.8869C270.822 49.8301 271.416 48.3968 271.416 46.9022V31.8749C271.416 30.3804 270.822 28.947 269.765 27.8902C268.709 26.8334 267.275 26.2397 265.781 26.2397ZM239.483 22.4829H258.267C258.765 22.4829 259.243 22.6808 259.595 23.0331C259.948 23.3853 260.146 23.8631 260.146 24.3613V26.2397H239.483C238.985 26.2397 238.507 26.0418 238.155 25.6895C237.803 25.3373 237.605 24.8595 237.605 24.3613C237.605 23.8631 237.803 23.3853 238.155 23.0331C238.507 22.6808 238.985 22.4829 239.483 22.4829ZM267.659 41.267H265.781C265.283 41.267 264.805 41.0691 264.452 40.7168C264.1 40.3645 263.902 39.8868 263.902 39.3886C263.902 38.8904 264.1 38.4126 264.452 38.0603C264.805 37.7081 265.283 37.5102 265.781 37.5102H267.659V41.267ZM267.659 33.7533H265.781C264.286 33.7533 262.853 34.3471 261.796 35.4039C260.739 36.4607 260.146 37.894 260.146 39.3886C260.146 40.8831 260.739 42.3165 261.796 43.3733C262.853 44.4301 264.286 45.0238 265.781 45.0238H267.659V46.9022C267.659 47.4004 267.461 47.8782 267.109 48.2304C266.757 48.5827 266.279 48.7806 265.781 48.7806H239.483C238.985 48.7806 238.507 48.5827 238.155 48.2304C237.803 47.8782 237.605 47.4004 237.605 46.9022V29.6772C238.208 29.8895 238.843 29.9975 239.483 29.9965H265.781C266.279 29.9965 266.757 30.1944 267.109 30.5467C267.461 30.899 267.659 31.3768 267.659 31.8749V33.7533Z" fill="#E6E2FF"/>
<circle cx="105" cy="222" r="32" fill="#3F3975"/>
<path d="M107.139 236.627L105.035 238.731L102.531 236.226L100.026 238.731L97.5219 236.226L95.0175 238.731L92.5132 236.226L90.0088 238.731V205.339L92.5132 207.843L95.0175 205.339L97.5219 207.843L100.026 205.339L102.531 207.843L105.035 205.339L107.539 207.843L110.044 205.339L112.548 207.843L115.053 205.339L117.557 207.843L120.061 205.339V224.289C119.009 223.922 117.891 223.705 116.722 223.705V210.348H93.348V233.722H106.705C106.705 234.674 106.872 235.759 107.139 236.627ZM95.0175 227.044V230.383H107.289C107.723 229.131 108.374 228.012 109.276 227.044H95.0175ZM95.0175 223.705H115.053V220.365H95.0175V223.705ZM95.0175 217.026H115.053V213.687H95.0175V217.026ZM123.4 230.767L121.464 228.413L115.47 234.407L112.815 231.752L110.879 233.722L115.47 238.731" fill="#D1CDEE"/>
<circle cx="201.5" cy="335.5" r="35.5" fill="#3F3975"/>
<path d="M218.212 332.741C217.665 329.48 216.173 326.451 213.921 324.029C211.669 321.607 208.757 319.899 205.544 319.116C202.331 318.333 198.959 318.509 195.846 319.623C192.732 320.737 190.013 322.74 188.027 325.383C186.04 328.027 184.872 331.195 184.668 334.495C184.463 337.796 185.232 341.084 186.877 343.952C188.523 346.821 190.974 349.143 193.926 350.633C196.879 352.122 200.203 352.713 203.488 352.332M185.762 329.905H217.318M185.762 341.175H204.358" stroke="#E6E2FF" stroke-width="3.75667" stroke-linecap="round" stroke-linejoin="round"/>
<path d="M200.601 318.635C197.437 323.706 195.759 329.563 195.759 335.54C195.759 341.517 197.437 347.374 200.601 352.445M202.479 318.635C205.652 323.716 207.33 329.587 207.322 335.578M218.445 341.175H213.749C213.002 341.175 212.285 341.472 211.757 342C211.229 342.529 210.932 343.245 210.932 343.993C210.932 344.74 211.229 345.456 211.757 345.985C212.285 346.513 213.002 346.81 213.749 346.81H215.628C216.375 346.81 217.091 347.107 217.62 347.635C218.148 348.164 218.445 348.88 218.445 349.628C218.445 350.375 218.148 351.091 217.62 351.62C217.091 352.148 216.375 352.445 215.628 352.445H210.932M214.688 352.445V354.323M214.688 339.297V341.175" stroke="#E6E2FF" stroke-width="3.75667" stroke-linecap="round" stroke-linejoin="round"/>
<defs>
<clipPath id="clip0_159_2">
<rect width="40.07" height="40.07" fill="white" transform="translate(229 127)"/>
</clipPath>
</defs>
</svg>
