<svg width="16" height="18" viewBox="0 0 16 18" fill="none" xmlns="http://www.w3.org/2000/svg">
<g clip-path="url(#clip0_369_732)">
<path d="M15.9891 9.15904C15.9891 8.46256 15.9347 7.95431 15.8169 7.42725H8.1593V10.5708H12.6541C12.5636 11.352 12.0742 12.5285 10.9867 13.3191L10.9715 13.4244L13.3927 15.3724L13.5604 15.3898C15.101 13.9121 15.9891 11.7379 15.9891 9.15904Z" fill="#4285F4"/>
<path d="M8.1593 17.4416C10.3614 17.4416 12.2101 16.6886 13.5604 15.3898L10.9867 13.3191C10.298 13.8179 9.37362 14.1662 8.1593 14.1662C6.0025 14.1662 4.17194 12.6885 3.51939 10.6461L3.42375 10.6546L0.906154 12.6781L0.87323 12.7732C2.21443 15.5403 4.96936 17.4416 8.1593 17.4416Z" fill="#34A853"/>
<path d="M3.51942 10.6461C3.34724 10.119 3.24759 9.55428 3.24759 8.97076C3.24759 8.38718 3.34724 7.82248 3.51036 7.29542L3.5058 7.18317L0.956655 5.12708L0.873252 5.16828C0.320478 6.31656 0.0032959 7.60603 0.0032959 8.97076C0.0032959 10.3355 0.320478 11.6249 0.873252 12.7732L3.51942 10.6461Z" fill="#FBBC05"/>
<path d="M8.15931 3.77535C9.6908 3.77535 10.7239 4.46243 11.3129 5.0366L13.6148 2.70241C12.2011 1.33767 10.3614 0.5 8.15931 0.5C4.96936 0.5 2.21443 2.40121 0.87323 5.16832L3.51034 7.29546C4.17194 5.25306 6.0025 3.77535 8.15931 3.77535Z" fill="#EB4335"/>
</g>
<defs>
<clipPath id="clip0_369_732">
<rect width="16" height="17" fill="white" transform="translate(0 0.5)"/>
</clipPath>
</defs>
</svg>
