<svg width="34" height="37" viewBox="0 0 34 37" fill="none" xmlns="http://www.w3.org/2000/svg">
<path d="M18.408 17.7319L24.322 11.8179L5.22 1.0819C3.954 0.397902 2.768 0.301902 1.728 1.0499L18.408 17.7319ZM25.33 24.6559L31.478 21.1979C32.678 20.5259 33.336 19.5739 33.336 18.5179C33.336 17.4639 32.678 16.5099 31.48 15.8379L25.914 12.7119L19.648 18.9759L25.33 24.6559ZM0.7 2.5039C0.572 2.8979 0.5 3.3379 0.5 3.8199V33.2299C0.5 33.9919 0.668 34.6479 0.972 35.1699L17.166 18.9739L0.7 2.5039ZM18.408 20.2139L2.304 36.3199C2.612 36.4379 2.944 36.4999 3.294 36.4999C3.918 36.4999 4.568 36.3159 5.23 35.9479L23.74 25.5539L18.408 20.2139Z" fill="white"/>
</svg>
