<svg width="352" height="150" viewBox="0 0 352 150" fill="none" xmlns="http://www.w3.org/2000/svg">
<g clip-path="url(#clip0_61_5510)">
<rect width="352" height="150" fill="white"/>
<mask id="mask0_61_5510" style="mask-type:alpha" maskUnits="userSpaceOnUse" x="-62" y="-68" width="495" height="259">
<rect x="-62" y="-68" width="495" height="259" fill="url(#paint0_radial_61_5510)"/>
</mask>
<g mask="url(#mask0_61_5510)">
<path d="M256.966 72.9487C255.256 87.4046 248.656 104.217 235.469 111.955C215.549 123.629 217.215 141.58 178.339 149.385C172.668 150.55 166.887 151.097 161.098 151.016C158.265 150.965 155.438 150.733 152.635 150.322C127.923 146.713 111.288 129.535 105.189 108.799C97.1594 81.5261 113.191 63.674 123.817 52.9138C134.444 42.1537 142.221 8.62034 180.388 0.641845C186.214 -0.599345 192.163 -1.16387 198.118 -1.04053C211.695 -0.705634 226.506 3.7505 236.758 13.0607C237.525 13.7594 238.273 14.4831 239.003 15.2317C253.243 29.8569 259.294 53.2369 256.966 72.9487Z" fill="#D2D2D2"/>
<path opacity="0.7" d="M256.966 72.9487C255.256 87.4046 248.656 104.217 235.469 111.955C215.549 123.629 217.215 141.58 178.339 149.385C172.668 150.55 166.887 151.097 161.098 151.016C158.265 150.965 155.438 150.733 152.635 150.322C127.923 146.713 111.288 129.535 105.189 108.799C97.1594 81.5261 113.191 63.674 123.817 52.9138C134.444 42.1537 142.221 8.62034 180.388 0.641845C186.214 -0.599345 192.163 -1.16387 198.118 -1.04053C211.695 -0.705634 226.506 3.7505 236.758 13.0607C237.525 13.7594 238.273 14.4831 239.003 15.2317C253.243 29.8569 259.294 53.2369 256.966 72.9487Z" fill="white"/>
<path d="M208.741 136.657C225.924 119.473 225.924 91.6122 208.741 74.4284C191.557 57.2446 163.696 57.2446 146.512 74.4284C129.329 91.6122 129.329 119.473 146.512 136.657C163.696 153.84 191.557 153.84 208.741 136.657Z" fill="#D2D2D2" stroke="#263238" stroke-linecap="round" stroke-linejoin="round"/>
<path d="M168.789 146.252C171.148 146.766 173.547 147.072 175.96 147.167" stroke="#263238" stroke-linecap="round" stroke-linejoin="round"/>
<path d="M163.395 144.688C164.59 145.122 165.803 145.503 167.035 145.831" stroke="#263238" stroke-linecap="round" stroke-linejoin="round"/>
<path d="M137.56 94.146C134.761 104.008 135.694 114.556 140.183 123.773C144.671 132.989 152.399 140.228 161.89 144.105" stroke="#263238" stroke-linecap="round" stroke-linejoin="round"/>
<path d="M143.159 82.1646C141.654 84.3826 140.366 86.7404 139.313 89.2053" stroke="#263238" stroke-linecap="round" stroke-linejoin="round"/>
<path d="M171.665 85.998L176.149 86.9279L177.677 88.5157L179.671 88.823L180.305 90.7142L179.841 91.9947L178.481 92.6172L175.152 92.0735L175.061 91.6638L176.637 90.5645L175.55 88.559L172.571 88.1532L170.983 86.7939L171.665 85.998Z" fill="white"/>
<path d="M207.814 127.392L204.268 126.793L199.958 126.249L196.806 126.95L193.713 126.994L190.612 128.432L188.8 128.944L187.677 129.192L185.81 130.89L183.95 132.159L180.798 131.036L180.877 128.022L178.985 127.695L176.948 128.148L176.436 127.297L176.235 125.418L175.294 124.559L173.911 125.079L173.73 126.19L172.02 126.674L170.081 125.181L168.927 122.868L169.825 119.673L172.823 119.22L173.8 119.756L175.022 119.484L176.35 118.227L177.764 118.337L180.301 121.095L180.991 120.835L180.266 118.534L179.383 117.447L179.159 115.477L182.567 113.011L182.24 109.126L183.576 107.435L184.364 104.796L185.341 104.366L187.342 102.317L187.263 101.478L185.656 101.943L185.171 101.195L184.048 101.443L182.405 102.231L182.925 100.722L186.267 98.9093L186.881 97.814L188.804 99.7367L189.927 100.454L191.263 99.7288L190.356 98.5468L187.878 97.4909L184.821 95.2845L181.885 94.1025L179.348 94.2404L177.894 93.283L176.16 93.2318L176.046 93.6849L176.499 96.6871L177.134 97.613L176.941 101.08L174.537 99.8983V98.401L172.173 97.8573L170.991 96.9393L170.932 94.2798L173.414 91.4824L173.075 88.9884L171.976 89.339L171.058 88.5826L170.408 87.1326L169.671 87.1878L169.62 88.8978L168.544 89.3509L167.256 85.9073L166.33 85.5803L164.754 85.2848L163.304 86.4668L165.775 87.9522L166.563 89.5951L162.28 87.6567L159.128 85.47L158.312 82.7632L155.479 82.5347L153.738 84.3116C153.309 84.7209 152.86 85.1076 152.39 85.47C151.626 85.8429 150.836 86.1602 150.026 86.4195L150.003 88.2437L147.678 88.8663L148.131 89.9419L152.04 89.7173L154.451 91.4273L155.239 94.9969L154.818 98.405L155.767 101.722L154.022 107.353L155.066 114.929L156.933 119.007L158.982 121.978L160.558 121.84L159.683 120.323L158.6 119.279L157.591 117.152L158.462 116.758L160.704 120.11L162.449 123.148L163.036 125.8L165.495 127.715L169.549 129.48L175.168 129.728L177.138 130.91L178.714 132.269L180.798 132.982L183.162 133.097L185.38 132.494C185.38 132.494 185.506 133.538 185.616 134.046C185.727 134.554 184.687 136.607 184.687 136.607L184.021 138.896L185.333 140.957L187.78 141.375L191.664 143.936L193.24 144.231L193.579 145.76L193.914 146.434C201.562 143.392 208.198 138.258 213.063 131.619L212.952 130.867L214.595 125.26L213.066 124.638L207.814 127.392Z" fill="white"/>
<path d="M209.473 84.7686L207.921 83.0823L205.994 81.1556L204.911 78.1888L206.814 78.0864L206.687 77.0462L205.34 77.2393L206.349 76.4789L207.412 75.4939L207.188 74.4734L205.612 73.1141L204.863 70.9786C197.328 65.045 188.062 61.7343 178.473 61.5501C168.884 61.3659 159.497 64.3183 151.74 69.9582L154.459 71.1008L153.442 73.2559L151.594 74.0912L151.988 76.8886L151.244 77.3772L150.456 78.7247L150.964 80.5371L152.745 80.3558L152.414 82.247L154.148 81.853L156.267 77.4245L156.212 75.7224L159.021 74.8871L159.463 73.5042L162.351 72.5428L162.272 70.7422L164.388 70.1631C164.388 70.1631 165.739 69.0086 166.042 68.9417C166.661 68.9362 167.278 68.977 167.89 69.0638L169.691 69.9503L171.83 69.4736L173.406 67.9448L175.794 67.6296C176.18 67.7787 176.596 67.8328 177.007 67.7872C177.516 67.673 178.887 66.6052 178.887 66.6052L182.252 67.7872L183.678 68.4334L184.017 69.9621L185.593 69.8242L185.9 68.7959L187.362 69.1111L187.441 69.9503L184.56 71.4475L186.794 73.3032L190.916 74.5286L192.886 76.2267L195.175 75.9312L195.458 74.8004L196.227 74.4064L193.126 72.9565L191.448 73.1141L192.681 72.4128L191.073 70.9511L192.783 70.4664L195.301 71.1914L196.353 73.5239L197.767 74.5995L199.343 77.3575L201.948 78.4883L202.692 81.853L205.379 82.8617L205.525 84.0043V85.399L206.546 87.0972L206.94 87.9718L208.74 87.8931L209.174 85.9782L209.473 84.7686Z" fill="white"/>
<path d="M208.516 74.2056L208.646 74.7926L208.5 76.5341L209.123 77.8934L210.336 78.055L210.766 79.9895L209.43 79.7531L210.344 85.3242L209.619 87.8419L211.069 90.5132L212.665 91.4431L213.89 96.9591L216.163 100.946L218.315 103.893L220.797 103.984L221.159 101.762L221.435 101.431C221.262 99.6014 220.977 97.7842 220.58 95.9898C218.751 87.7141 214.56 80.1468 208.516 74.2056Z" fill="white"/>
<path d="M184.828 78.7997L177.441 77.334L174.51 78.0944L174.226 80.1905L172.705 79.1346L170.577 80.1432L171.121 83.5552L173.249 84.4693L174.143 82.2393L176.015 83.4292L179.785 85.478L181.054 88.299L184.45 91.0767L188.575 89.4101L188.134 87.905L186.83 86.3763L185.719 82.3417L186.357 80.3836L184.828 78.7997Z" fill="white"/>
<path d="M190.829 79.8165L189.21 79.7495L188.134 81.1679L189.505 83.9653L190.829 83.6698V79.8165Z" fill="white"/>
<path d="M200.742 79.6506L196.865 78.5828L195.88 77.519L195.135 78.0076L196.302 79.887L197.499 82.4007L199.166 82.6726L199.383 82.1998L198.122 80.872L201.002 81.3054L200.742 79.6506Z" fill="white"/>
<path d="M179.147 123.062L178.828 123.562L182.09 123.798L183.631 124.953L185.613 124.728L186.077 123.448L183.643 123.562L179.147 123.062Z" fill="white"/>
<path d="M188.65 122.983L186.645 124.07L187.129 124.819L189.781 124.232L190.108 123.302L189.214 123.609L188.65 122.983Z" fill="white"/>
<path d="M171.665 85.998L176.149 86.9279L177.677 88.5157L179.671 88.823L180.305 90.7142L179.841 91.9947L178.481 92.6172L175.152 92.0735L175.061 91.6638L176.637 90.5645L175.55 88.559L172.571 88.1532L170.983 86.7939L171.665 85.998Z" stroke="#263238" stroke-linecap="round" stroke-linejoin="round"/>
<path d="M207.814 127.392L204.268 126.793L199.958 126.249L196.806 126.95L193.713 126.994L190.612 128.432L188.8 128.944L187.677 129.192L185.81 130.89L183.95 132.159L180.798 131.036L180.877 128.022L178.985 127.695L176.948 128.148L176.436 127.297L176.235 125.418L175.294 124.559L173.911 125.079L173.73 126.19L172.02 126.674L170.081 125.181L168.927 122.868L169.825 119.673L172.823 119.22L173.8 119.756L175.022 119.484L176.35 118.227L177.764 118.337L180.301 121.095L180.991 120.835L180.266 118.534L179.383 117.447L179.159 115.477L182.567 113.011L182.24 109.126L183.576 107.435L184.364 104.796L185.341 104.366L187.342 102.317L187.263 101.478L185.656 101.943L185.171 101.195L184.048 101.443L182.405 102.231L182.925 100.722L186.267 98.9093L186.881 97.814L188.804 99.7367L189.927 100.454L191.263 99.7288L190.356 98.5468L187.878 97.4909L184.821 95.2845L181.885 94.1025L179.348 94.2404L177.894 93.283L176.16 93.2318L176.046 93.6849L176.499 96.6871L177.134 97.613L176.941 101.08L174.537 99.8983V98.401L172.173 97.8573L170.991 96.9393L170.932 94.2798L173.414 91.4824L173.075 88.9884L171.976 89.339L171.058 88.5826L170.408 87.1326L169.671 87.1878L169.62 88.8978L168.544 89.3509L167.256 85.9073L166.33 85.5803L164.754 85.2848L163.304 86.4668L165.775 87.9522L166.563 89.5951L162.28 87.6567L159.128 85.47L158.312 82.7632L155.479 82.5347L153.738 84.3116C153.309 84.7209 152.86 85.1076 152.39 85.47C151.626 85.8429 150.836 86.1602 150.026 86.4195L150.003 88.2437L147.678 88.8663L148.131 89.9419L152.04 89.7173L154.451 91.4273L155.239 94.9969L154.818 98.405L155.767 101.722L154.022 107.353L155.066 114.929L156.933 119.007L158.982 121.978L160.558 121.84L159.683 120.323L158.6 119.279L157.591 117.152L158.462 116.758L160.704 120.11L162.449 123.148L163.036 125.8L165.495 127.715L169.549 129.48L175.168 129.728L177.138 130.91L178.714 132.269L180.798 132.982L183.162 133.097L185.38 132.494C185.38 132.494 185.506 133.538 185.616 134.046C185.727 134.554 184.687 136.607 184.687 136.607L184.021 138.896L185.333 140.957L187.78 141.375L191.664 143.936L193.24 144.231L193.579 145.76L193.914 146.434C201.562 143.392 208.198 138.258 213.063 131.619L212.952 130.867L214.595 125.26L213.066 124.638L207.814 127.392Z" stroke="#263238" stroke-linecap="round" stroke-linejoin="round"/>
<path d="M209.473 84.7686L207.921 83.0823L205.994 81.1556L204.911 78.1888L206.814 78.0864L206.687 77.0462L205.34 77.2393L206.349 76.4789L207.412 75.4939L207.188 74.4734L205.612 73.1141L204.863 70.9786C197.328 65.045 188.062 61.7343 178.473 61.5501C168.884 61.3659 159.497 64.3183 151.74 69.9582L154.459 71.1008L153.442 73.2559L151.594 74.0912L151.988 76.8886L151.244 77.3772L150.456 78.7247L150.964 80.5371L152.745 80.3558L152.414 82.247L154.148 81.853L156.267 77.4245L156.212 75.7224L159.021 74.8871L159.463 73.5042L162.351 72.5428L162.272 70.7422L164.388 70.1631C164.388 70.1631 165.739 69.0086 166.042 68.9417C166.661 68.9362 167.278 68.977 167.89 69.0638L169.691 69.9503L171.83 69.4736L173.406 67.9448L175.794 67.6296C176.18 67.7787 176.596 67.8328 177.007 67.7872C177.516 67.673 178.887 66.6052 178.887 66.6052L182.252 67.7872L183.678 68.4334L184.017 69.9621L185.593 69.8242L185.9 68.7959L187.362 69.1111L187.441 69.9503L184.56 71.4475L186.794 73.3032L190.916 74.5286L192.886 76.2267L195.175 75.9312L195.458 74.8004L196.227 74.4064L193.126 72.9565L191.448 73.1141L192.681 72.4128L191.073 70.9511L192.783 70.4664L195.301 71.1914L196.353 73.5239L197.767 74.5995L199.343 77.3575L201.948 78.4883L202.692 81.853L205.379 82.8617L205.525 84.0043V85.399L206.546 87.0972L206.94 87.9718L208.74 87.8931L209.174 85.9782L209.473 84.7686Z" stroke="#263238" stroke-linecap="round" stroke-linejoin="round"/>
<path d="M208.516 74.2056L208.646 74.7926L208.5 76.5341L209.123 77.8934L210.336 78.055L210.766 79.9895L209.43 79.7531L210.344 85.3242L209.619 87.8419L211.069 90.5132L212.665 91.4431L213.89 96.9591L216.163 100.946L218.315 103.893L220.797 103.984L221.159 101.762L221.435 101.431C221.262 99.6014 220.977 97.7842 220.58 95.9898C218.751 87.7141 214.56 80.1468 208.516 74.2056Z" stroke="#263238" stroke-linecap="round" stroke-linejoin="round"/>
<path d="M184.828 78.7997L177.441 77.334L174.51 78.0944L174.226 80.1905L172.705 79.1346L170.577 80.1432L171.121 83.5552L173.249 84.4693L174.143 82.2393L176.015 83.4292L179.785 85.478L181.054 88.299L184.45 91.0767L188.575 89.4101L188.134 87.905L186.83 86.3763L185.719 82.3417L186.357 80.3836L184.828 78.7997Z" stroke="#263238" stroke-linecap="round" stroke-linejoin="round"/>
<path d="M190.829 79.8165L189.21 79.7495L188.134 81.1679L189.505 83.9653L190.829 83.6698V79.8165Z" stroke="#263238" stroke-linecap="round" stroke-linejoin="round"/>
<path d="M200.742 79.6506L196.865 78.5828L195.88 77.519L195.135 78.0076L196.302 79.887L197.499 82.4007L199.166 82.6726L199.383 82.1998L198.122 80.872L201.002 81.3054L200.742 79.6506Z" stroke="#263238" stroke-linecap="round" stroke-linejoin="round"/>
<path d="M179.147 123.062L178.828 123.562L182.09 123.798L183.631 124.953L185.613 124.728L186.077 123.448L183.643 123.562L179.147 123.062Z" stroke="#263238" stroke-linecap="round" stroke-linejoin="round"/>
<path d="M188.65 122.983L186.645 124.07L187.129 124.819L189.781 124.232L190.108 123.302L189.214 123.609L188.65 122.983Z" stroke="#263238" stroke-linecap="round" stroke-linejoin="round"/>
<path d="M218.563 75.7031C217.762 75.7031 216.969 75.8611 216.229 76.1679C215.489 76.4748 214.817 76.9245 214.251 77.4914C213.686 78.0583 213.237 78.7311 212.932 79.4715C212.626 80.2119 212.47 81.0053 212.471 81.8062C212.471 85.1709 218.563 91.9596 218.563 91.9596C218.563 91.9596 224.658 85.1709 224.658 81.8062C224.659 81.0051 224.502 80.2116 224.196 79.4712C223.89 78.7308 223.442 78.058 222.875 77.4911C222.309 76.9243 221.637 76.4746 220.897 76.1678C220.157 75.861 219.364 75.7031 218.563 75.7031ZM218.563 84.4775C218.031 84.4798 217.511 84.3242 217.068 84.0302C216.625 83.7363 216.279 83.3174 216.074 82.8266C215.87 82.3359 215.816 81.7954 215.919 81.2738C216.022 80.7522 216.278 80.2731 216.654 79.8971C217.03 79.5212 217.509 79.2654 218.03 79.1622C218.552 79.0591 219.092 79.1132 219.583 79.3178C220.074 79.5223 220.493 79.868 220.787 80.3111C221.081 80.7541 221.236 81.2745 221.234 81.8062C221.232 82.514 220.95 83.1923 220.449 83.6928C219.949 84.1933 219.271 84.4754 218.563 84.4775Z" fill="#263238" stroke="#263238" stroke-miterlimit="10"/>
<path d="M171.294 91.3408C169.885 91.3408 168.533 91.9008 167.536 92.8976C166.539 93.8943 165.979 95.2462 165.979 96.6559C165.979 99.5912 171.294 105.513 171.294 105.513C171.294 105.513 176.609 99.603 176.609 96.6559C176.609 95.2462 176.049 93.8943 175.053 92.8976C174.056 91.9008 172.704 91.3408 171.294 91.3408ZM171.294 98.9962C170.831 98.9962 170.379 98.859 169.994 98.6018C169.609 98.3447 169.309 97.9791 169.132 97.5515C168.955 97.1238 168.909 96.6533 168.999 96.1993C169.089 95.7453 169.312 95.3283 169.639 95.001C169.967 94.6737 170.384 94.4508 170.838 94.3605C171.292 94.2702 171.762 94.3165 172.19 94.4937C172.618 94.6708 172.983 94.9708 173.24 95.3556C173.497 95.7405 173.635 96.193 173.635 96.6559C173.635 97.2766 173.388 97.8719 172.949 98.3108C172.51 98.7497 171.915 98.9962 171.294 98.9962Z" fill="#263238" stroke="#263238" stroke-miterlimit="10"/>
<path d="M191.392 132.79C190.683 132.79 190.004 133.071 189.502 133.572C189 134.073 188.718 134.752 188.717 135.461C188.717 136.938 191.392 139.917 191.392 139.917C191.392 139.917 194.064 136.938 194.064 135.461C194.063 134.753 193.781 134.074 193.28 133.573C192.779 133.072 192.1 132.791 191.392 132.79ZM191.392 136.639C191.159 136.639 190.93 136.57 190.736 136.44C190.541 136.31 190.39 136.125 190.3 135.909C190.211 135.693 190.187 135.456 190.233 135.226C190.279 134.997 190.391 134.786 190.556 134.621C190.722 134.456 190.932 134.343 191.162 134.298C191.391 134.252 191.629 134.275 191.845 134.365C192.061 134.454 192.245 134.606 192.375 134.8C192.505 134.995 192.574 135.223 192.574 135.457C192.574 135.612 192.544 135.766 192.484 135.909C192.425 136.053 192.338 136.183 192.228 136.293C192.118 136.402 191.988 136.49 191.845 136.549C191.701 136.608 191.548 136.639 191.392 136.639Z" fill="#263238" stroke="#263238" stroke-miterlimit="10"/>
<path d="M158.147 108.105C157.438 108.107 156.758 108.389 156.258 108.89C155.757 109.392 155.475 110.072 155.475 110.781C155.475 112.258 158.147 115.237 158.147 115.237C158.147 115.237 160.822 112.258 160.822 110.781C160.822 110.071 160.54 109.391 160.038 108.889C159.537 108.387 158.856 108.105 158.147 108.105ZM158.147 111.959C157.913 111.959 157.684 111.889 157.49 111.76C157.296 111.63 157.144 111.445 157.055 111.229C156.965 111.013 156.942 110.775 156.987 110.546C157.033 110.317 157.146 110.106 157.311 109.941C157.476 109.776 157.687 109.663 157.916 109.618C158.145 109.572 158.383 109.595 158.599 109.685C158.815 109.774 159 109.926 159.129 110.12C159.259 110.314 159.329 110.543 159.329 110.777C159.329 111.09 159.204 111.391 158.982 111.613C158.761 111.834 158.46 111.959 158.147 111.959Z" fill="#263238" stroke="#263238" stroke-miterlimit="10"/>
<path d="M167.603 119.358C167.252 119.358 166.904 119.428 166.58 119.562C166.255 119.697 165.961 119.894 165.712 120.142C165.464 120.391 165.268 120.686 165.134 121.01C165 121.335 164.931 121.683 164.931 122.034C164.931 123.511 167.603 126.49 167.603 126.49C167.603 126.49 170.278 123.511 170.278 122.034C170.278 121.324 169.996 120.644 169.494 120.142C168.993 119.64 168.312 119.358 167.603 119.358ZM167.603 123.212C167.369 123.212 167.14 123.142 166.946 123.013C166.752 122.883 166.6 122.698 166.511 122.482C166.421 122.266 166.398 122.028 166.443 121.799C166.489 121.57 166.602 121.359 166.767 121.194C166.932 121.029 167.143 120.916 167.372 120.87C167.601 120.825 167.839 120.848 168.055 120.938C168.271 121.027 168.456 121.179 168.586 121.373C168.715 121.567 168.785 121.796 168.785 122.03C168.785 122.343 168.66 122.644 168.439 122.866C168.217 123.087 167.916 123.212 167.603 123.212Z" fill="#263238" stroke="#263238" stroke-miterlimit="10"/>
<path d="M200.813 124.409C200.396 124.409 199.984 124.491 199.599 124.651C199.214 124.81 198.865 125.044 198.57 125.338C198.276 125.633 198.042 125.982 197.883 126.367C197.723 126.752 197.641 127.164 197.641 127.581C197.641 129.33 200.813 132.86 200.813 132.86C200.813 132.86 203.965 129.314 203.965 127.581C203.967 127.165 203.888 126.753 203.731 126.369C203.573 125.984 203.342 125.634 203.049 125.339C202.756 125.045 202.407 124.811 202.024 124.651C201.64 124.491 201.228 124.409 200.813 124.409ZM200.813 128.976C200.536 128.976 200.265 128.895 200.034 128.742C199.804 128.588 199.624 128.37 199.517 128.114C199.411 127.858 199.383 127.577 199.437 127.305C199.491 127.033 199.624 126.784 199.82 126.588C200.016 126.392 200.265 126.259 200.537 126.205C200.809 126.151 201.09 126.179 201.346 126.285C201.602 126.392 201.82 126.572 201.973 126.802C202.127 127.033 202.208 127.304 202.208 127.581C202.208 127.764 202.171 127.945 202.101 128.115C202.031 128.284 201.929 128.438 201.799 128.567C201.67 128.697 201.516 128.799 201.347 128.869C201.177 128.94 200.996 128.976 200.813 128.976Z" fill="#263238" stroke="#263238" stroke-miterlimit="10"/>
<path d="M200.58 63.8081C199.834 63.8081 199.119 64.1045 198.591 64.6321C198.064 65.1596 197.767 65.8752 197.767 66.6213C197.767 68.1973 200.58 71.3138 200.58 71.3138C200.58 71.3138 203.398 68.1618 203.398 66.6213C203.397 65.8748 203.099 65.1593 202.571 64.6318C202.043 64.1044 201.327 63.8081 200.58 63.8081ZM200.58 67.8624C200.335 67.8624 200.095 67.7896 199.891 67.6532C199.687 67.5168 199.528 67.323 199.434 67.0962C199.34 66.8694 199.315 66.6199 199.363 66.3791C199.411 66.1384 199.529 65.9172 199.703 65.7437C199.876 65.5701 200.098 65.4519 200.338 65.404C200.579 65.3561 200.829 65.3807 201.055 65.4746C201.282 65.5686 201.476 65.7276 201.612 65.9317C201.749 66.1358 201.822 66.3758 201.822 66.6213C201.822 66.9504 201.691 67.2661 201.458 67.4988C201.225 67.7316 200.91 67.8624 200.58 67.8624Z" fill="#263238" stroke="#263238" stroke-miterlimit="10"/>
<path d="M152.398 81.4121C152.028 81.4116 151.662 81.484 151.32 81.6251C150.979 81.7663 150.668 81.9734 150.406 82.2347C150.145 82.4959 149.937 82.8062 149.796 83.1478C149.654 83.4894 149.581 83.8555 149.581 84.2253C149.581 85.7816 152.398 88.9178 152.398 88.9178C152.398 88.9178 155.211 85.7658 155.211 84.2253C155.211 83.4792 154.915 82.7636 154.387 82.2361C153.86 81.7085 153.144 81.4121 152.398 81.4121ZM152.398 85.4664C152.153 85.4672 151.912 85.395 151.708 85.2591C151.503 85.1232 151.343 84.9297 151.249 84.703C151.154 84.4762 151.129 84.2266 151.176 83.9856C151.224 83.7446 151.342 83.523 151.515 83.3491C151.689 83.1751 151.91 83.0565 152.151 83.0083C152.391 82.9601 152.641 82.9844 152.868 83.0783C153.095 83.1721 153.289 83.3312 153.426 83.5353C153.562 83.7395 153.635 83.9796 153.635 84.2253C153.635 84.5538 153.505 84.8688 153.273 85.1015C153.041 85.3341 152.727 85.4653 152.398 85.4664Z" fill="#263238" stroke="#263238" stroke-miterlimit="10"/>
<rect x="-3.5" y="-17.5" width="21" height="21" stroke="#68D585"/>
<rect x="17.5" y="-17.5" width="21" height="21" stroke="#68D585"/>
<rect x="38.5" y="-17.5" width="21" height="21" stroke="#68D585"/>
<rect x="59.5" y="-17.5" width="21" height="21" stroke="#68D585"/>
<rect x="80.5" y="-17.5" width="21" height="21" stroke="#68D585"/>
<rect x="101.5" y="-17.5" width="21" height="21" stroke="#68D585"/>
<rect x="122.5" y="-17.5" width="21" height="21" stroke="#68D585"/>
<rect x="143.5" y="-17.5" width="21" height="21" stroke="#68D585"/>
<rect x="164.5" y="-17.5" width="21" height="21" stroke="#68D585"/>
<rect x="185.5" y="-17.5" width="21" height="21" stroke="#68D585"/>
<rect x="206.5" y="-17.5" width="21" height="21" stroke="#68D585"/>
<rect x="227.5" y="-17.5" width="21" height="21" stroke="#68D585"/>
<rect x="248.5" y="-17.5" width="21" height="21" stroke="#68D585"/>
<rect x="269.5" y="-17.5" width="21" height="21" stroke="#68D585"/>
<rect x="290.5" y="-17.5" width="21" height="21" stroke="#68D585"/>
<rect x="311.5" y="-17.5" width="21" height="21" stroke="#68D585"/>
<rect x="332.5" y="-17.5" width="21" height="21" stroke="#68D585"/>
<rect x="-3.5" y="3.5" width="21" height="21" stroke="#68D585"/>
<rect x="17.5" y="3.5" width="21" height="21" stroke="#68D585"/>
<rect x="38.5" y="3.5" width="21" height="21" stroke="#68D585"/>
<rect x="59.5" y="3.5" width="21" height="21" stroke="#68D585"/>
<rect x="80.5" y="3.5" width="21" height="21" stroke="#68D585"/>
<rect x="101.5" y="3.5" width="21" height="21" stroke="#68D585"/>
<rect x="122.5" y="3.5" width="21" height="21" stroke="#68D585"/>
<rect x="143.5" y="3.5" width="21" height="21" stroke="#68D585"/>
<rect x="164.5" y="3.5" width="21" height="21" stroke="#68D585"/>
<rect x="185.5" y="3.5" width="21" height="21" stroke="#68D585"/>
<rect x="206.5" y="3.5" width="21" height="21" stroke="#68D585"/>
<rect x="227.5" y="3.5" width="21" height="21" fill="#68D585" stroke="#68D585"/>
<rect x="248.5" y="3.5" width="21" height="21" stroke="#68D585"/>
<rect x="269.5" y="3.5" width="21" height="21" stroke="#68D585"/>
<rect x="290.5" y="3.5" width="21" height="21" stroke="#68D585"/>
<rect x="311.5" y="3.5" width="21" height="21" stroke="#68D585"/>
<rect x="332.5" y="3.5" width="21" height="21" stroke="#68D585"/>
<rect x="-3.5" y="24.5" width="21" height="21" stroke="#68D585"/>
<rect x="17.5" y="24.5" width="21" height="21" stroke="#68D585"/>
<rect x="38.5" y="24.5" width="21" height="21" stroke="#68D585"/>
<rect x="59.5" y="24.5" width="21" height="21" stroke="#68D585"/>
<rect x="80.5" y="24.5" width="21" height="21" stroke="#68D585"/>
<rect x="101.5" y="24.5" width="21" height="21" stroke="#68D585"/>
<rect x="122.5" y="24.5" width="21" height="21" stroke="#68D585"/>
<rect x="143.5" y="24.5" width="21" height="21" stroke="#68D585"/>
<rect x="164.5" y="24.5" width="21" height="21" stroke="#68D585"/>
<rect x="185.5" y="24.5" width="21" height="21" stroke="#68D585"/>
<rect x="206.5" y="24.5" width="21" height="21" stroke="#68D585"/>
<rect x="227.5" y="24.5" width="21" height="21" stroke="#68D585"/>
<rect x="248.5" y="24.5" width="21" height="21" stroke="#68D585"/>
<rect x="269.5" y="24.5" width="21" height="21" fill="#68D585" stroke="#68D585"/>
<rect x="290.5" y="24.5" width="21" height="21" stroke="#68D585"/>
<rect x="311.5" y="24.5" width="21" height="21" stroke="#68D585"/>
<rect x="332.5" y="24.5" width="21" height="21" stroke="#68D585"/>
<rect x="-3.5" y="45.5" width="21" height="21" stroke="#68D585"/>
<rect x="17.5" y="45.5" width="21" height="21" stroke="#68D585"/>
<rect x="38.5" y="45.5" width="21" height="21" stroke="#68D585"/>
<rect x="59.5" y="45.5" width="21" height="21" stroke="#68D585"/>
<rect x="80.5" y="45.5" width="21" height="21" stroke="#68D585"/>
<rect x="101.5" y="45.5" width="21" height="21" stroke="#68D585"/>
<rect x="122.5" y="45.5" width="21" height="21" stroke="#68D585"/>
<rect x="143.5" y="45.5" width="21" height="21" stroke="#68D585"/>
<rect x="164.5" y="45.5" width="21" height="21" stroke="#68D585"/>
<rect x="185.5" y="45.5" width="21" height="21" stroke="#68D585"/>
<rect x="206.5" y="45.5" width="21" height="21" stroke="#68D585"/>
<rect x="227.5" y="45.5" width="21" height="21" stroke="#68D585"/>
<rect x="248.5" y="45.5" width="21" height="21" stroke="#68D585"/>
<rect x="269.5" y="45.5" width="21" height="21" stroke="#68D585"/>
<rect x="290.5" y="45.5" width="21" height="21" stroke="#68D585"/>
<rect x="311.5" y="45.5" width="21" height="21" stroke="#68D585"/>
<rect x="332.5" y="45.5" width="21" height="21" stroke="#68D585"/>
<rect x="-3.5" y="66.5" width="21" height="21" stroke="#68D585"/>
<rect x="17.5" y="66.5" width="21" height="21" stroke="#68D585"/>
<rect x="38.5" y="66.5" width="21" height="21" stroke="#68D585"/>
<rect x="59.5" y="66.5" width="21" height="21" stroke="#68D585"/>
<rect x="80.5" y="66.5" width="21" height="21" stroke="#68D585"/>
<rect x="101.5" y="66.5" width="21" height="21" stroke="#68D585"/>
<rect x="122.5" y="66.5" width="21" height="21" stroke="#68D585"/>
<rect x="143.5" y="66.5" width="21" height="21" stroke="#68D585"/>
<rect x="164.5" y="66.5" width="21" height="21" stroke="#68D585"/>
<rect x="185.5" y="66.5" width="21" height="21" stroke="#68D585"/>
<rect x="206.5" y="66.5" width="21" height="21" stroke="#68D585"/>
<rect x="227.5" y="66.5" width="21" height="21" stroke="#68D585"/>
<rect x="248.5" y="66.5" width="21" height="21" stroke="#68D585"/>
<rect x="269.5" y="66.5" width="21" height="21" stroke="#68D585"/>
<rect x="290.5" y="66.5" width="21" height="21" stroke="#68D585"/>
<rect x="311.5" y="66.5" width="21" height="21" stroke="#68D585"/>
<rect x="332.5" y="66.5" width="21" height="21" stroke="#68D585"/>
<rect x="-3.5" y="87.5" width="21" height="21" stroke="#68D585"/>
<rect x="17.5" y="87.5" width="21" height="21" stroke="#68D585"/>
<rect x="38.5" y="87.5" width="21" height="21" stroke="#68D585"/>
<rect x="59.5" y="87.5" width="21" height="21" stroke="#68D585"/>
<rect x="80.5" y="87.5" width="21" height="21" fill="#68D585" stroke="#68D585"/>
<rect x="101.5" y="87.5" width="21" height="21" stroke="#68D585"/>
<rect x="122.5" y="87.5" width="21" height="21" stroke="#68D585"/>
<rect x="143.5" y="87.5" width="21" height="21" stroke="#68D585"/>
<rect x="164.5" y="87.5" width="21" height="21" stroke="#68D585"/>
<rect x="185.5" y="87.5" width="21" height="21" stroke="#68D585"/>
<rect x="206.5" y="87.5" width="21" height="21" stroke="#68D585"/>
<rect x="227.5" y="87.5" width="21" height="21" stroke="#68D585"/>
<rect x="248.5" y="87.5" width="21" height="21" stroke="#68D585"/>
<rect x="269.5" y="87.5" width="21" height="21" stroke="#68D585"/>
<rect x="290.5" y="87.5" width="21" height="21" stroke="#68D585"/>
<rect x="311.5" y="87.5" width="21" height="21" stroke="#68D585"/>
<rect x="332.5" y="87.5" width="21" height="21" stroke="#68D585"/>
<rect x="-3.5" y="108.5" width="21" height="21" stroke="#68D585"/>
<rect x="17.5" y="108.5" width="21" height="21" stroke="#68D585"/>
<rect x="38.5" y="108.5" width="21" height="21" stroke="#68D585"/>
<rect x="59.5" y="108.5" width="21" height="21" stroke="#68D585"/>
<rect x="80.5" y="108.5" width="21" height="21" stroke="#68D585"/>
<rect x="101.5" y="108.5" width="21" height="21" stroke="#68D585"/>
<rect x="122.5" y="108.5" width="21" height="21" stroke="#68D585"/>
<rect x="143.5" y="108.5" width="21" height="21" stroke="#68D585"/>
<rect x="164.5" y="108.5" width="21" height="21" stroke="#68D585"/>
<rect x="185.5" y="108.5" width="21" height="21" stroke="#68D585"/>
<rect x="206.5" y="108.5" width="21" height="21" stroke="#68D585"/>
<rect x="227.5" y="108.5" width="21" height="21" stroke="#68D585"/>
<rect x="248.5" y="108.5" width="21" height="21" stroke="#68D585"/>
<rect x="269.5" y="108.5" width="21" height="21" stroke="#68D585"/>
<rect x="290.5" y="108.5" width="21" height="21" stroke="#68D585"/>
<rect x="311.5" y="108.5" width="21" height="21" stroke="#68D585"/>
<rect x="332.5" y="108.5" width="21" height="21" stroke="#68D585"/>
<rect x="-3.5" y="129.5" width="21" height="21" stroke="#68D585"/>
<rect x="17.5" y="129.5" width="21" height="21" stroke="#68D585"/>
<rect x="38.5" y="129.5" width="21" height="21" stroke="#68D585"/>
<rect x="59.5" y="129.5" width="21" height="21" stroke="#68D585"/>
<rect x="80.5" y="129.5" width="21" height="21" stroke="#68D585"/>
<rect x="101.5" y="129.5" width="21" height="21" stroke="#68D585"/>
<rect x="122.5" y="129.5" width="21" height="21" stroke="#68D585"/>
<rect x="143.5" y="129.5" width="21" height="21" stroke="#68D585"/>
<rect x="164.5" y="129.5" width="21" height="21" stroke="#68D585"/>
<rect x="185.5" y="129.5" width="21" height="21" stroke="#68D585"/>
<rect x="206.5" y="129.5" width="21" height="21" stroke="#68D585"/>
<rect x="227.5" y="129.5" width="21" height="21" stroke="#68D585"/>
<rect x="248.5" y="129.5" width="21" height="21" stroke="#68D585"/>
<rect x="269.5" y="129.5" width="21" height="21" stroke="#68D585"/>
<rect x="290.5" y="129.5" width="21" height="21" stroke="#68D585"/>
<rect x="311.5" y="129.5" width="21" height="21" stroke="#68D585"/>
<rect x="332.5" y="129.5" width="21" height="21" stroke="#68D585"/>
</g>
<path d="M207.956 99.6021L181.854 88.6607L203.874 35.7544L229.977 46.6958L207.956 99.6021Z" fill="#D1D1D1" stroke="#263238" stroke-linecap="round" stroke-linejoin="round"/>
<path d="M224.737 52.0973C224.289 51.9118 223.886 51.6327 223.554 51.2786C223.223 50.9245 222.971 50.5036 222.816 50.0443C222.661 49.5849 222.606 49.0977 222.654 48.6153C222.703 48.1328 222.854 47.6664 223.098 47.2472L208.126 40.9668C208.087 41.1006 208.041 41.2322 207.988 41.3608C207.815 41.7769 207.562 42.1549 207.243 42.4727C206.924 42.7906 206.545 43.0421 206.128 43.2128C205.712 43.3835 205.265 43.47 204.815 43.4672C204.364 43.4645 203.919 43.3726 203.504 43.1968C203.437 43.1693 203.374 43.1338 203.311 43.1023L186.7 83.109C186.767 83.1327 186.834 83.1524 186.897 83.18C187.347 83.3627 187.753 83.6404 188.086 83.9942C188.419 84.348 188.672 84.7696 188.827 85.23C188.982 85.6905 189.036 86.179 188.985 86.6623C188.934 87.1455 188.78 87.6121 188.532 88.0301L203.524 94.3105C203.56 94.1764 203.605 94.0447 203.658 93.9165C203.831 93.5028 204.085 93.1273 204.403 92.8116C204.722 92.4958 205.1 92.2459 205.515 92.0762C205.93 91.9064 206.375 91.8201 206.824 91.8222C207.272 91.8243 207.716 91.9147 208.13 92.0883C208.26 92.1435 208.386 92.2104 208.524 92.2774L225.15 52.2391C225.009 52.2026 224.871 52.1552 224.737 52.0973ZM203.504 72.8769C202.484 72.4489 201.613 71.7281 201.003 70.8055C200.392 69.8829 200.068 68.7999 200.073 67.6935C200.078 66.5871 200.411 65.5069 201.029 64.5896C201.648 63.6722 202.524 62.9589 203.548 62.5397C204.572 62.1205 205.698 62.0144 206.782 62.2347C207.866 62.4549 208.861 62.9918 209.64 63.7772C210.419 64.5627 210.948 65.5616 211.159 66.6476C211.371 67.7336 211.256 68.858 210.829 69.8785C210.545 70.5568 210.131 71.1725 209.609 71.6904C209.087 72.2083 208.468 72.6182 207.788 72.8967C207.108 73.1752 206.379 73.3168 205.644 73.3134C204.909 73.31 204.182 73.1617 203.504 72.8769Z" fill="white" stroke="#263238" stroke-linecap="round" stroke-linejoin="round"/>
<path d="M207.614 99.736L182.847 86.0366L210.466 35.8213L235.233 49.5246L207.614 99.736Z" fill="#D1D1D1" stroke="#263238" stroke-linecap="round" stroke-linejoin="round"/>
<path d="M229.437 54.3237C229.044 54.1069 228.698 53.8148 228.418 53.4642C228.139 53.1135 227.931 52.7111 227.807 52.28C227.683 51.8489 227.645 51.3976 227.695 50.9518C227.746 50.5061 227.884 50.0747 228.101 49.6824C228.173 49.5603 228.251 49.442 228.334 49.3278L214.111 41.4478C214.059 41.5824 214 41.7139 213.933 41.8418C213.494 42.6335 212.758 43.2185 211.888 43.4682C211.018 43.7179 210.084 43.6119 209.292 43.1735C209.229 43.1405 209.169 43.1036 209.111 43.0632L188.268 81.0369C188.333 81.0639 188.396 81.0941 188.457 81.1275C189.25 81.566 189.835 82.3013 190.086 83.1716C190.336 84.042 190.231 84.9762 189.793 85.7688C189.723 85.892 189.646 86.0104 189.56 86.1234L203.78 94.0034C203.833 93.8687 203.893 93.7371 203.961 93.6094C204.178 93.2167 204.47 92.8705 204.821 92.5908C205.171 92.311 205.574 92.1032 206.005 91.9791C206.436 91.8551 206.887 91.8172 207.333 91.8678C207.779 91.9183 208.21 92.0563 208.602 92.2738C208.725 92.3443 208.843 92.422 208.957 92.5062L229.839 54.501C229.701 54.4516 229.567 54.3923 229.437 54.3237ZM206.089 72.688C205.12 72.1519 204.331 71.3405 203.824 70.3564C203.316 69.3723 203.111 68.2596 203.236 67.1592C203.36 66.0588 203.808 65.0201 204.523 64.1744C205.238 63.3287 206.188 62.714 207.252 62.4081C208.317 62.1022 209.448 62.1188 210.503 62.4558C211.558 62.7928 212.489 63.4351 213.179 64.3014C213.869 65.1678 214.286 66.2192 214.378 67.3228C214.47 68.4264 214.233 69.5325 213.697 70.5013C212.978 71.8 211.772 72.7598 210.346 73.1699C208.919 73.58 207.388 73.4066 206.089 72.688Z" fill="white" stroke="#263238" stroke-linecap="round" stroke-linejoin="round"/>
<path d="M207.157 99.8543L184.525 82.8571L218.827 36.9482L241.458 53.9454L207.157 99.8543Z" fill="#D1D1D1" stroke="#263238" stroke-linecap="round" stroke-linejoin="round"/>
<path d="M235.056 57.897C234.695 57.6279 234.39 57.2901 234.161 56.903C233.931 56.5159 233.78 56.0871 233.716 55.6414C233.653 55.1957 233.679 54.7418 233.791 54.306C233.904 53.8702 234.102 53.461 234.374 53.102C234.46 52.9894 234.553 52.8828 234.654 52.7829L221.652 43.0195C221.581 43.1431 221.503 43.2628 221.419 43.3781C220.875 44.1011 220.066 44.5785 219.17 44.7056C218.274 44.8327 217.364 44.5989 216.64 44.0557C216.581 44.0124 216.53 43.9651 216.475 43.9218L190.577 78.6411C190.636 78.6805 190.695 78.7159 190.75 78.7593C191.474 79.3037 191.952 80.1132 192.08 81.0099C192.208 81.9066 191.975 82.8174 191.432 83.5424C191.346 83.655 191.253 83.7617 191.152 83.8616L204.154 93.6209C204.221 93.4973 204.298 93.3787 204.383 93.2663C204.652 92.9078 204.99 92.6058 205.376 92.3777C205.762 92.1496 206.19 91.9998 206.634 91.9369C207.078 91.874 207.53 91.8991 207.965 92.011C208.399 92.1228 208.807 92.3191 209.166 92.5887C209.278 92.6731 209.385 92.7652 209.485 92.8645L235.418 58.1294C235.292 58.0596 235.171 57.982 235.056 57.897ZM209.39 72.869C208.505 72.2039 207.837 71.2913 207.47 70.2465C207.104 69.2017 207.055 68.0717 207.331 66.9993C207.606 65.9269 208.194 64.9603 209.019 64.2217C209.844 63.4832 210.869 63.0057 211.965 62.8498C213.061 62.694 214.179 62.8666 215.177 63.3459C216.175 63.8253 217.009 64.5898 217.573 65.5428C218.136 66.4959 218.405 67.5946 218.344 68.7002C218.283 69.8057 217.896 70.8684 217.231 71.7539C216.789 72.3413 216.235 72.8358 215.601 73.209C214.968 73.5822 214.267 73.8268 213.539 73.9289C212.81 74.031 212.069 73.9885 211.357 73.8039C210.646 73.6194 209.977 73.2963 209.39 72.8532V72.869Z" fill="white" stroke="#263238" stroke-linecap="round" stroke-linejoin="round"/>
<path d="M206.703 99.9054L186.546 80.0321L226.679 39.123L246.836 58.9964L206.703 99.9054Z" fill="#D1D1D1" stroke="#263238" stroke-linecap="round" stroke-linejoin="round"/>
<path d="M239.961 62.0577C239.316 61.4218 238.95 60.5557 238.943 59.6498C238.936 58.7439 239.29 57.8725 239.926 57.2272C240.026 57.1277 240.133 57.0343 240.245 56.9475L228.673 45.5215C228.586 45.6324 228.494 45.7389 228.397 45.8406C227.761 46.4858 226.895 46.852 225.989 46.8587C225.083 46.8653 224.212 46.5119 223.567 45.8761C223.516 45.8264 223.469 45.7738 223.425 45.7185L193.114 76.6672C193.166 76.7145 193.221 76.7578 193.272 76.809C193.917 77.4449 194.283 78.311 194.29 79.2169C194.297 80.1228 193.943 80.9942 193.307 81.6395C193.205 81.738 193.099 81.8325 192.988 81.9192L204.56 93.3452C204.646 93.2312 204.739 93.1233 204.84 93.0221C205.154 92.7028 205.529 92.4485 205.942 92.2739C206.354 92.0993 206.797 92.0077 207.246 92.0044C207.694 92.0011 208.138 92.0862 208.554 92.2547C208.969 92.4233 209.347 92.672 209.666 92.9867C209.766 93.0874 209.859 93.1939 209.946 93.3058L240.284 62.3335C240.171 62.2479 240.063 62.1559 239.961 62.0577ZM212.531 73.4443C211.743 72.6671 211.204 71.6739 210.981 70.5903C210.758 69.5067 210.861 68.3812 211.278 67.3563C211.694 66.3313 212.405 65.4528 213.321 64.8319C214.236 64.2109 215.316 63.8754 216.422 63.8677C217.528 63.86 218.612 64.1805 219.536 64.7886C220.46 65.3967 221.184 66.2652 221.614 67.2842C222.045 68.3033 222.164 69.4272 221.956 70.5138C221.748 71.6004 221.223 72.601 220.446 73.3891C219.93 73.9128 219.316 74.3296 218.639 74.6158C217.962 74.902 217.235 75.0519 216.5 75.057C215.765 75.0622 215.036 74.9224 214.355 74.6456C213.674 74.3689 213.054 73.9607 212.531 73.4443Z" fill="white" stroke="#263238" stroke-linecap="round" stroke-linejoin="round"/>
</g>
<defs>
<radialGradient id="paint0_radial_61_5510" cx="0" cy="0" r="1" gradientUnits="userSpaceOnUse" gradientTransform="translate(185.5 61.5) rotate(90) scale(77 147.162)">
<stop offset="0.012987" stop-color="#68D585" stop-opacity="0.5"/>
<stop offset="1" stop-color="#68D585" stop-opacity="0"/>
</radialGradient>
<clipPath id="clip0_61_5510">
<rect width="352" height="150" fill="white"/>
</clipPath>
</defs>
</svg>
