<svg width="184" height="115" viewBox="0 0 184 115" fill="none" xmlns="http://www.w3.org/2000/svg">
<g clip-path="url(#clip0_486_6710)">
<path fill-rule="evenodd" clip-rule="evenodd" d="M169.654 1.15986e-06C160.484 2.02561e-06 63.4038 -1.83839e-06 9.1886 1.15986e-06C4.60388 1.41341e-06 0.019165 4.58686 0.019165 9.17371C0.019165 36.7508 0.0191661 91.7371 0.019165 100.911C0.0191645 110.085 4.60388 114.671 13.7733 114.671C64.9195 114.671 160.484 114.671 169.654 114.671C178.823 114.671 183.408 110.085 183.408 100.911C183.408 91.7371 183.408 44.231 183.408 13.7606C183.408 4.58686 178.823 1.15986e-06 169.654 1.15986e-06Z" fill="#F4F4F4"/>
<path fill-rule="evenodd" clip-rule="evenodd" d="M120.19 59.4067H120.261H120.399H120.536H120.674H120.811H120.949H121.087H121.224H121.362H121.499H121.637H121.774H121.912H122.049H122.187H122.324H122.462H122.599H122.737H122.874H123.012H123.149H123.287H123.424H123.562H123.699H123.837H123.974H124.112H124.249H124.387H124.524H124.662H124.799H124.937H125.074H125.212H125.349H125.487H125.624H125.762H125.899H126.037H126.174H126.312H126.449H126.587H126.724H126.862H126.999H127.137H127.274H127.412H127.549H127.687H127.824H127.962H128.1H128.237H128.374H128.489L128.512 59.4072C128.554 59.4083 128.601 59.4102 128.65 59.4128C128.694 59.4152 128.74 59.4183 128.787 59.4218C128.832 59.4251 128.878 59.429 128.925 59.4332C128.971 59.4374 129.017 59.4421 129.062 59.4471C129.109 59.4523 129.156 59.4579 129.2 59.4638C129.249 59.4705 129.295 59.4773 129.337 59.4845C129.367 59.4896 129.395 59.4948 129.42 59.5002L129.475 59.5125C129.521 59.5232 129.566 59.5348 129.612 59.5474C129.658 59.5602 129.704 59.5736 129.75 59.5882C129.796 59.6029 129.842 59.6185 129.887 59.635C129.933 59.6518 129.979 59.6694 130.025 59.688C130.071 59.7069 130.117 59.7268 130.162 59.7475C130.208 59.7687 130.254 59.7907 130.3 59.8138C130.346 59.8373 130.392 59.8619 130.437 59.8874C130.483 59.9135 130.529 59.9408 130.575 59.9689C130.621 59.9979 130.667 60.0276 130.712 60.0586C130.759 60.0905 130.805 60.1233 130.85 60.1572C130.896 60.1924 130.942 60.2287 130.987 60.2662C131.034 60.3051 131.08 60.3453 131.125 60.3866C131.172 60.4297 131.218 60.4738 131.262 60.5194C131.309 60.5673 131.355 60.6169 131.4 60.6675C131.447 60.7214 131.493 60.7768 131.537 60.8336C131.585 60.8947 131.631 60.9575 131.675 61.022C131.723 61.0926 131.769 61.165 131.812 61.2394C131.861 61.3232 131.907 61.4095 131.95 61.4981C132 61.6031 132.046 61.7113 132.087 61.8226C132.142 61.9721 132.188 62.1271 132.225 62.2871C132.288 62.5645 132.322 62.8566 132.322 63.1616C132.322 63.468 132.288 63.7614 132.225 64.0397C132.188 64.2001 132.142 64.3556 132.087 64.5053C132.046 64.617 132 64.7253 131.95 64.8306C131.907 64.9192 131.861 65.0057 131.812 65.0896C131.769 65.1641 131.723 65.2365 131.675 65.3071C131.631 65.3716 131.585 65.4344 131.537 65.4956C131.493 65.5524 131.447 65.6077 131.4 65.6615C131.355 65.7122 131.309 65.7616 131.262 65.8096C131.218 65.8551 131.172 65.8992 131.125 65.9423C131.08 65.9834 131.034 66.0232 130.987 66.0621C130.942 66.0994 130.896 66.1358 130.85 66.1708C130.805 66.2047 130.759 66.2374 130.712 66.2691C130.667 66.3 130.621 66.3297 130.575 66.3584C130.529 66.3864 130.483 66.4135 130.437 66.4395C130.392 66.4649 130.346 66.4893 130.3 66.5126C130.254 66.5355 130.208 66.5575 130.162 66.5786C130.117 66.5992 130.071 66.6188 130.025 66.6376C129.979 66.6559 129.933 66.6735 129.887 66.6901C129.842 66.7063 129.796 66.7217 129.75 66.7362C129.704 66.7505 129.658 66.7639 129.612 66.7764C129.566 66.7887 129.521 66.8002 129.475 66.8108L129.42 66.823C129.395 66.8287 129.367 66.8342 129.337 66.8396C129.295 66.847 129.249 66.8541 129.2 66.8608C129.156 66.8667 129.109 66.8724 129.062 66.8776C129.017 66.8826 128.971 66.8872 128.925 66.8913C128.878 66.8955 128.832 66.8993 128.787 66.9025C128.74 66.9059 128.694 66.9088 128.65 66.9111C128.601 66.9136 128.554 66.9154 128.512 66.9165L128.438 66.9174H128.374H128.237H128.1H127.962H127.824H127.687H127.549H127.412H127.274H127.137H126.999H126.862H126.724H126.587H126.449H126.312H126.174H126.037H125.899H125.762H125.624H125.487H125.349H125.212H125.074H124.937H124.799H124.662H124.524H124.387H124.249H124.112H123.974H123.837H123.699H123.562H123.424H123.287H123.149H123.012H122.874H122.737H122.599H122.462H122.324H122.187H122.049H121.912H121.774H121.637H121.499H121.362H121.224H121.087H120.949H120.811H120.674H120.536H120.399H120.261H120.19V59.4067ZM131.263 50.9062C131.318 51.1583 131.348 51.4253 131.348 51.7065C131.348 51.9872 131.318 52.254 131.263 52.506C131.227 52.6678 131.181 52.8234 131.125 52.9726C131.084 53.0814 131.038 53.1868 130.988 53.2885C130.945 53.3738 130.899 53.4566 130.85 53.5366C130.807 53.6075 130.761 53.6763 130.713 53.743C130.669 53.8038 130.623 53.8628 130.575 53.9201C130.531 53.9734 130.485 54.0251 130.438 54.0753C130.393 54.1225 130.347 54.1682 130.3 54.2125C130.255 54.2546 130.21 54.2955 130.163 54.335C130.118 54.3728 130.072 54.4094 130.025 54.4448C129.98 54.479 129.934 54.5119 129.888 54.5438C129.843 54.5745 129.797 54.6041 129.75 54.6327C129.705 54.6605 129.659 54.6873 129.613 54.7129C129.567 54.7379 129.522 54.7621 129.475 54.7851C129.43 54.8076 129.384 54.8292 129.338 54.8498C129.292 54.8699 129.246 54.8891 129.2 54.9073C129.155 54.9252 129.109 54.9421 129.063 54.9582C129.017 54.974 128.971 54.9889 128.925 55.0028C128.88 55.0166 128.834 55.0296 128.788 55.0416C128.742 55.0534 128.696 55.0643 128.65 55.0744C128.605 55.0844 128.559 55.0933 128.513 55.1015L128.479 55.1075C128.452 55.1122 128.417 55.1174 128.375 55.1227C128.334 55.1278 128.288 55.1331 128.238 55.1381C128.194 55.1426 128.148 55.1469 128.1 55.1509C128.055 55.1547 128.009 55.158 127.963 55.1609C127.916 55.1639 127.87 55.1664 127.825 55.1682C127.777 55.1701 127.731 55.1714 127.688 55.1716L127.666 55.1717H127.55H127.413H127.275H127.138H127H126.863H126.725H126.588H126.45H126.313H126.175H126.037H125.9H125.763H125.625H125.487H125.35H125.213H125.075H124.938H124.8H124.662H124.525H124.388H124.25H124.112H123.975H123.838H123.7H123.562H123.425H123.287H123.15H123.012H122.875H122.737H122.6H122.462H122.325H122.187H122.05H121.912H121.775H121.637H121.5H121.362H121.225H121.087H120.95H120.812H120.675H120.537H120.4H120.262H120.19V48.2408H120.262H120.4H120.537H120.675H120.812H120.95H121.087H121.225H121.362H121.5H121.637H121.775H121.912H122.05H122.187H122.325H122.462H122.6H122.737H122.875H123.012H123.15H123.287H123.425H123.562H123.7H123.838H123.975H124.112H124.25H124.388H124.525H124.662H124.8H124.938H125.075H125.213H125.35H125.487H125.625H125.763H125.9H126.037H126.175H126.313H126.45H126.588H126.725H126.863H127H127.138H127.275H127.413H127.55H127.688H127.745L127.825 48.2435C127.87 48.2453 127.916 48.248 127.963 48.251C128.009 48.2539 128.055 48.2574 128.1 48.261C128.148 48.2649 128.194 48.2692 128.238 48.2734C128.288 48.2783 128.334 48.2832 128.375 48.2879C128.417 48.2927 128.452 48.2972 128.479 48.301L128.513 48.307C128.559 48.3153 128.605 48.3246 128.65 48.3347C128.696 48.3448 128.742 48.3559 128.788 48.3678C128.834 48.38 128.88 48.3929 128.925 48.4068C128.971 48.4209 129.017 48.4359 129.063 48.4518C129.109 48.4679 129.155 48.485 129.2 48.503C129.246 48.5214 129.292 48.5407 129.338 48.5609C129.384 48.5816 129.43 48.6031 129.475 48.6257C129.522 48.6488 129.567 48.6728 129.613 48.6979C129.659 48.7236 129.705 48.7505 129.75 48.7783C129.797 48.8069 129.843 48.8365 129.888 48.8673C129.934 48.8991 129.98 48.9324 130.025 48.9665C130.072 49.002 130.118 49.0385 130.163 49.0763C130.21 49.116 130.255 49.1568 130.3 49.199C130.347 49.2433 130.393 49.289 130.438 49.3361C130.485 49.3862 130.531 49.438 130.575 49.4913C130.623 49.5486 130.669 49.6077 130.713 49.6685C130.761 49.7353 130.807 49.804 130.85 49.8749C130.899 49.955 130.945 50.0378 130.988 50.1231C131.038 50.2248 131.084 50.3304 131.125 50.4392C131.181 50.5884 131.227 50.7441 131.263 50.9062ZM148.316 14.9668H148.372L148.372 86.1491C148.372 86.5744 148.352 86.9951 148.316 87.4109C148.284 87.7768 148.238 88.1387 148.178 88.4962C148.138 88.7364 148.092 88.9745 148.041 89.2104C147.999 89.4023 147.953 89.593 147.903 89.7819C147.86 89.945 147.814 90.1068 147.766 90.2675C147.722 90.4129 147.676 90.5575 147.628 90.7009C147.584 90.8308 147.538 90.9598 147.491 91.0881C147.446 91.2076 147.4 91.3262 147.353 91.4442C147.309 91.5551 147.263 91.6651 147.216 91.7745C147.171 91.8782 147.125 91.9812 147.078 92.0836C147.033 92.1811 146.987 92.2781 146.94 92.3744C146.895 92.4666 146.85 92.5585 146.803 92.6496C146.758 92.737 146.712 92.824 146.665 92.9102C146.62 92.9932 146.574 93.0753 146.528 93.1573C146.483 93.2367 146.437 93.3155 146.39 93.3939C146.345 93.4702 146.299 93.5461 146.253 93.6214C146.207 93.6948 146.162 93.768 146.115 93.8406C146.07 93.9107 146.024 93.9803 145.978 94.0496C145.932 94.1171 145.886 94.1838 145.84 94.2506C145.795 94.316 145.749 94.3813 145.703 94.446C145.657 94.5091 145.611 94.572 145.565 94.6344C145.52 94.6952 145.474 94.7552 145.427 94.8152C145.382 94.8743 145.336 94.9333 145.29 94.9916C145.245 95.0489 145.199 95.1058 145.152 95.1622C145.107 95.2175 145.061 95.2723 145.015 95.3268C144.969 95.3808 144.924 95.435 144.877 95.4883C144.832 95.5403 144.786 95.5917 144.74 95.6431C144.694 95.6939 144.648 95.7443 144.602 95.7944C144.557 95.8439 144.511 95.8932 144.465 95.9419C144.419 95.9898 144.373 96.0368 144.327 96.084C144.282 96.131 144.236 96.1781 144.19 96.2244C144.144 96.2696 144.098 96.3139 144.052 96.3585C144.007 96.4028 143.961 96.4472 143.915 96.491C143.869 96.5339 143.823 96.5764 143.777 96.6188C143.732 96.6608 143.686 96.7026 143.64 96.7439C143.594 96.7848 143.548 96.8255 143.502 96.8658C143.457 96.9056 143.411 96.945 143.365 96.9843C143.319 97.0233 143.273 97.0621 143.227 97.1005C143.182 97.1383 143.136 97.1756 143.089 97.2128C143.044 97.2498 142.998 97.2868 142.952 97.3234C142.907 97.3594 142.86 97.3946 142.814 97.43C142.769 97.4652 142.723 97.5005 142.677 97.5352C142.631 97.5694 142.585 97.6029 142.539 97.6366C142.494 97.6701 142.448 97.7039 142.402 97.7369C142.356 97.7695 142.31 97.8011 142.264 97.8331C142.218 97.865 142.173 97.8971 142.127 97.9285C142.081 97.9594 142.035 97.9896 141.989 98.0201C141.944 98.0504 141.898 98.0809 141.852 98.1107C141.806 98.1402 141.76 98.1691 141.714 98.198C141.668 98.2269 141.623 98.2557 141.577 98.2839C141.531 98.3119 141.485 98.3396 141.439 98.3672L141.302 98.4485C141.256 98.4751 141.21 98.5018 141.164 98.528C141.118 98.5539 141.072 98.5793 141.027 98.6049C140.981 98.6302 140.935 98.6559 140.889 98.6807C140.843 98.7053 140.797 98.7291 140.751 98.7533C140.706 98.7774 140.66 98.8021 140.614 98.8258C140.568 98.8491 140.522 98.8714 140.476 98.8942C140.431 98.9171 140.385 98.9401 140.339 98.9625C140.293 98.9846 140.247 99.0062 140.201 99.0278L140.064 99.0921L139.926 99.1544C139.881 99.1747 139.835 99.1946 139.789 99.2145C139.743 99.2343 139.697 99.2547 139.651 99.2741C139.606 99.2933 139.56 99.3114 139.514 99.3302C139.468 99.3489 139.422 99.3681 139.376 99.3864C139.33 99.4045 139.285 99.4217 139.239 99.4393C139.193 99.4569 139.147 99.4744 139.101 99.4915L138.964 99.5422C138.918 99.5587 138.872 99.5746 138.826 99.5906C138.78 99.6066 138.735 99.6232 138.688 99.6388C138.643 99.6542 138.597 99.6686 138.551 99.6835L138.413 99.728C138.368 99.7425 138.322 99.7564 138.276 99.7704L138.138 99.8113C138.093 99.8247 138.047 99.8385 138.001 99.8515C137.955 99.8643 137.909 99.8763 137.863 99.8887C137.818 99.9011 137.772 99.9139 137.726 99.9258L137.588 99.9605L137.451 99.9941L137.313 100.027C137.268 100.037 137.222 100.047 137.176 100.057C137.13 100.067 137.084 100.077 137.038 100.087L136.901 100.114L136.763 100.14C136.717 100.149 136.671 100.158 136.626 100.166C136.58 100.174 136.534 100.181 136.488 100.189L136.35 100.212L136.213 100.232L136.075 100.252C136.029 100.258 135.984 100.265 135.938 100.271C135.892 100.277 135.846 100.281 135.8 100.287C135.755 100.292 135.709 100.297 135.663 100.302C135.617 100.307 135.571 100.312 135.525 100.317C135.48 100.321 135.434 100.325 135.388 100.329C135.342 100.333 135.296 100.337 135.25 100.341C135.204 100.345 135.158 100.347 135.113 100.351L134.975 100.359C134.929 100.362 134.884 100.365 134.838 100.368C134.792 100.37 134.746 100.371 134.7 100.373L134.563 100.378L134.425 100.382C134.379 100.383 134.333 100.383 134.288 100.383L134.15 100.385L134.122 100.385H134.012H133.875H133.737H133.6H133.462H133.325H133.187H133.05H132.912H132.775H132.637H132.5H132.362H132.225H132.087H131.949H131.812H131.674H131.537H131.399H131.262H131.124H130.987H130.849H130.712H130.574H130.437H130.299H130.161H130.024H129.886H129.749H129.611H129.474H129.336H129.199H129.061H128.924H128.786H128.649H128.511H128.374H128.236H128.099H127.961H127.823H127.686H127.548H127.411H127.273H127.136H126.998H126.861H126.723H126.586H126.448H126.311H126.173H126.036H125.898H125.76H125.623H125.485H125.348H125.21H125.073H124.935H124.798H124.66H124.523H124.385H124.248H124.11H123.973H123.835H123.698H123.56H123.422H123.285H123.147H123.01H122.872H122.735H122.597H122.46H122.322H122.185H122.047H121.91H121.772H121.635H121.497H121.36H121.222H121.084H120.947H120.809H120.672H120.534H120.397H120.259H120.122H119.984H119.847H119.709H119.572H119.434H119.297H119.159H119.022H118.884H118.746H118.609H118.471H118.334H118.196H118.059H117.921H117.784H117.646H117.509H117.371H117.234H117.096H116.959H116.821H116.683H116.546H116.408H116.271H116.133H115.996H115.858H115.721H115.583H115.446H115.308H115.171H115.033H114.896H114.758H114.621H114.483H114.345H114.208H114.07H113.933H113.795H113.658H113.52H113.223V71.362H113.52H113.658H113.795H113.933H114.07H114.208H114.345H114.483H114.621H114.758H114.896H115.033H115.171H115.308H115.446H115.583H115.721H115.858H115.996H116.133H116.271H116.408H116.546H116.683H116.821H116.959H117.096H117.234H117.371H117.509H117.646H117.784H117.921H118.059H118.196H118.334H118.471H118.609H118.746H118.884H119.022H119.159H119.297H119.434H119.572H119.709H119.847H119.984H120.122H120.259H120.397H120.534H120.672H120.809H120.947H121.084H121.222H121.36H121.497H121.635H121.772H121.91H122.047H122.185H122.322H122.46H122.597H122.735H122.872H123.01H123.147H123.285H123.422H123.56H123.698H123.835H123.973H124.11H124.248H124.385H124.523H124.66H124.798H124.935H125.073H125.21H125.348H125.485H125.623H125.76H125.898H126.036H126.173H126.311H126.448H126.586H126.723H126.861H126.998H127.136H127.273H127.411H127.548H127.686H127.823H127.961H128.099H128.236H128.374H128.511H128.649H128.786H128.924H129.061H129.199H129.336H129.474H129.611H129.749H129.886H130.024H130.161H130.299H130.437H130.574H130.712H130.849H130.987H131.124H131.262H131.399H131.537H131.674H131.812H131.949H132.087H132.225H132.362H132.5H132.637H132.775H132.912H133.05H133.187H133.325H133.462H133.6H133.737H133.875H134.012H134.15H134.288H134.425H134.563H134.7H134.838H134.975H135.113H135.25H135.323L135.388 71.3614L135.525 71.3603L135.663 71.3574C135.709 71.3563 135.755 71.3556 135.8 71.354C135.846 71.3524 135.892 71.3503 135.938 71.3482L136.075 71.3418L136.213 71.3335L136.35 71.3241L136.488 71.3134L136.626 71.3007C136.671 71.2964 136.717 71.2922 136.763 71.2874C136.809 71.2826 136.855 71.2771 136.901 71.2718L137.038 71.255C137.084 71.2491 137.13 71.2434 137.176 71.237C137.222 71.2307 137.267 71.2236 137.313 71.2168C137.359 71.2098 137.405 71.203 137.451 71.1956L137.588 71.1725L137.726 71.1478C137.772 71.1392 137.818 71.1309 137.863 71.1219C137.909 71.1128 137.955 71.103 138.001 71.0934L138.138 71.0637C138.184 71.0535 138.23 71.0432 138.276 71.0325C138.322 71.0217 138.368 71.0102 138.413 70.9988C138.459 70.9874 138.505 70.9758 138.551 70.9638C138.597 70.9518 138.643 70.9396 138.688 70.9269C138.735 70.9143 138.78 70.9011 138.826 70.8878C138.872 70.8744 138.918 70.8609 138.964 70.847L139.101 70.8039C139.147 70.7892 139.193 70.774 139.239 70.7586C139.285 70.7431 139.331 70.7276 139.376 70.7116C139.422 70.6954 139.468 70.6792 139.514 70.6625C139.56 70.6455 139.606 70.6278 139.651 70.6102C139.697 70.5924 139.743 70.5744 139.789 70.5561C139.835 70.5375 139.881 70.5191 139.926 70.5C139.972 70.4806 140.018 70.4608 140.064 70.4407C140.11 70.4205 140.156 70.3997 140.201 70.3788C140.247 70.3576 140.293 70.3363 140.339 70.3146C140.385 70.2926 140.431 70.2704 140.476 70.2477C140.523 70.2246 140.568 70.2011 140.614 70.1773C140.66 70.1533 140.706 70.1286 140.751 70.1037C140.798 70.0786 140.844 70.0532 140.889 70.0273C140.935 70.0011 140.981 69.9746 141.027 69.9476C141.073 69.9203 141.119 69.8927 141.164 69.8646C141.21 69.8358 141.256 69.8066 141.302 69.7771C141.348 69.747 141.394 69.7165 141.439 69.6857C141.485 69.6543 141.531 69.6225 141.577 69.5902C141.623 69.5573 141.669 69.5241 141.714 69.4903C141.761 69.456 141.806 69.4211 141.852 69.3858C141.898 69.3496 141.944 69.3131 141.989 69.2761C142.036 69.2382 142.081 69.1998 142.127 69.161C142.173 69.1211 142.219 69.0806 142.264 69.0397C142.311 68.9977 142.357 68.955 142.402 68.9119C142.448 68.8675 142.494 68.8225 142.539 68.7769C142.586 68.7298 142.632 68.6822 142.677 68.6339C142.724 68.584 142.769 68.5333 142.814 68.4822C142.861 68.429 142.907 68.3751 142.952 68.3206C142.999 68.2638 143.045 68.2063 143.089 68.1481C143.136 68.087 143.182 68.0256 143.227 67.9631C143.274 67.8967 143.32 67.8292 143.365 67.7611C143.412 67.6889 143.458 67.6157 143.502 67.5417C143.55 67.4621 143.596 67.3814 143.64 67.2996C143.687 67.2106 143.734 67.1207 143.777 67.0292C143.826 66.9271 143.872 66.8232 143.915 66.718C143.964 66.5972 144.01 66.4749 144.052 66.3503C144.104 66.1968 144.15 66.0402 144.19 65.8809C144.248 65.648 144.294 65.4089 144.327 65.1641C144.367 64.8669 144.388 64.5616 144.388 64.2478C144.388 63.9423 144.367 63.6455 144.327 63.3572C144.294 63.1205 144.248 62.8896 144.19 62.6649C144.15 62.5117 144.104 62.3615 144.052 62.2141C144.01 62.0933 143.964 61.9742 143.915 61.8573C143.872 61.7561 143.826 61.6563 143.777 61.5581C143.733 61.4698 143.688 61.3826 143.64 61.2968C143.595 61.2177 143.55 61.1396 143.502 61.0627C143.458 60.9913 143.412 60.9209 143.365 60.8515C143.32 60.7859 143.274 60.7207 143.227 60.6568C143.182 60.5965 143.136 60.5371 143.089 60.4784C143.045 60.4221 142.999 60.3666 142.952 60.3117C142.907 60.2591 142.861 60.207 142.814 60.1556C142.769 60.1062 142.724 60.0573 142.677 60.0091C142.632 59.9627 142.586 59.9169 142.539 59.8716C142.494 59.8276 142.448 59.7842 142.402 59.7414C142.357 59.6998 142.311 59.6588 142.264 59.6183C142.219 59.5788 142.173 59.5397 142.127 59.5012C142.081 59.4636 142.036 59.4265 141.989 59.3898C141.944 59.3541 141.898 59.3186 141.852 59.2838C141.806 59.2496 141.76 59.216 141.714 59.1827C141.669 59.1501 141.623 59.1179 141.577 59.0861C141.531 59.055 141.485 59.0241 141.439 58.9937C141.394 58.9639 141.348 58.9344 141.302 58.9053C141.256 58.8769 141.21 58.8486 141.164 58.8208C141.119 58.7936 141.073 58.7667 141.027 58.7402C140.981 58.7141 140.935 58.6884 140.889 58.663C140.844 58.6379 140.798 58.6133 140.751 58.5891C140.706 58.565 140.66 58.5414 140.614 58.5179C140.568 58.4949 140.523 58.472 140.476 58.4496C140.431 58.4275 140.385 58.4055 140.339 58.384C140.293 58.3628 140.247 58.3422 140.201 58.3217C140.156 58.3014 140.11 58.2815 140.064 58.2618C140.018 58.2423 139.972 58.2231 139.926 58.2042C139.881 58.1856 139.835 58.1669 139.789 58.1488C139.743 58.1309 139.697 58.1132 139.651 58.0959C139.606 58.0789 139.56 58.0623 139.514 58.0457C139.468 58.0293 139.422 58.0134 139.376 57.9974C139.33 57.9817 139.285 57.9661 139.239 57.9508C139.193 57.9358 139.147 57.9211 139.101 57.9067C139.056 57.8923 139.009 57.8784 138.964 57.8646L138.826 57.8243C138.78 57.8112 138.735 57.7981 138.688 57.7856C138.643 57.7732 138.597 57.7612 138.551 57.7494C138.505 57.7375 138.459 57.7261 138.413 57.7148C138.368 57.7035 138.322 57.6923 138.276 57.6816C138.23 57.6709 138.184 57.6605 138.138 57.6504C138.093 57.6403 138.047 57.6306 138.001 57.621C137.955 57.6115 137.909 57.6019 137.863 57.5929L137.726 57.5666L137.588 57.5421C137.543 57.5341 137.497 57.5262 137.451 57.5187L137.313 57.4971C137.268 57.4902 137.222 57.4837 137.176 57.4773L137.038 57.4585L136.901 57.4412L136.763 57.4257L136.626 57.4112L136.488 57.3985L136.35 57.387L136.223 57.3772L136.223 57.2125L136.35 57.1928L136.488 57.1701C136.534 57.1623 136.58 57.1544 136.626 57.1461L136.763 57.1197C136.809 57.1106 136.855 57.1011 136.901 57.0914L137.038 57.0615C137.084 57.0511 137.13 57.0406 137.176 57.0297C137.222 57.0186 137.268 57.0069 137.313 56.9953C137.359 56.9836 137.405 56.9713 137.451 56.959C137.497 56.9465 137.543 56.9337 137.588 56.9206C137.634 56.9074 137.68 56.8941 137.726 56.8803C137.772 56.8664 137.818 56.852 137.863 56.8375C137.909 56.8227 137.955 56.8074 138.001 56.792C138.047 56.7764 138.093 56.7604 138.138 56.7442C138.185 56.7278 138.23 56.7112 138.276 56.6941C138.322 56.6768 138.368 56.6592 138.413 56.6414C138.46 56.6232 138.505 56.6047 138.551 56.5859C138.597 56.5668 138.643 56.5474 138.688 56.5276C138.735 56.5074 138.78 56.4869 138.826 56.4661C138.872 56.445 138.918 56.4234 138.964 56.4015C139.01 56.3793 139.056 56.3566 139.101 56.3337C139.147 56.3104 139.193 56.2867 139.239 56.2627C139.285 56.2382 139.331 56.2132 139.376 56.1881C139.422 56.1623 139.468 56.1363 139.514 56.1098C139.56 56.0828 139.606 56.0554 139.651 56.0276C139.698 55.9993 139.743 55.9706 139.789 55.9414C139.835 55.9117 139.881 55.8813 139.926 55.8506C139.973 55.8193 140.018 55.7875 140.064 55.7553C140.11 55.7223 140.156 55.6889 140.201 55.6551C140.248 55.6203 140.294 55.5853 140.339 55.5496C140.385 55.513 140.431 55.4761 140.476 55.4385C140.523 55.3997 140.569 55.3605 140.614 55.3208C140.661 55.2797 140.706 55.2381 140.751 55.1961C140.798 55.1527 140.844 55.1088 140.889 55.0643C140.936 55.0183 140.982 54.9719 141.027 54.9248C141.073 54.8756 141.119 54.826 141.164 54.7756C141.211 54.7233 141.257 54.6701 141.302 54.6164C141.349 54.5603 141.394 54.5033 141.439 54.4458C141.486 54.3851 141.532 54.3236 141.577 54.2614C141.624 54.1955 141.67 54.1288 141.714 54.0613C141.762 53.9894 141.808 53.9167 141.852 53.843C141.899 53.7632 141.945 53.6824 141.989 53.6008C142.037 53.5109 142.083 53.42 142.127 53.3281C142.176 53.2247 142.221 53.1198 142.264 53.0139C142.314 52.8904 142.36 52.7653 142.402 52.6385C142.454 52.4792 142.5 52.3172 142.539 52.1532C142.603 51.8872 142.649 51.6156 142.677 51.3393C142.699 51.1213 142.711 50.9004 142.711 50.6773C142.711 50.4416 142.699 50.2119 142.677 49.9879C142.649 49.7016 142.602 49.4251 142.539 49.1581C142.5 48.9914 142.454 48.8284 142.402 48.6694C142.36 48.5422 142.314 48.4175 142.264 48.2952C142.221 48.1898 142.176 48.0863 142.127 47.9847C142.083 47.8941 142.037 47.8049 141.989 47.7172C141.945 47.6369 141.899 47.5579 141.852 47.48C141.807 47.4076 141.762 47.3363 141.714 47.2662C141.67 47.2005 141.624 47.1358 141.577 47.072C141.532 47.0116 141.486 46.9521 141.439 46.8934C141.394 46.8374 141.349 46.7819 141.302 46.7274C141.257 46.6756 141.211 46.6247 141.164 46.5742C141.119 46.5257 141.073 46.4779 141.027 46.4306C140.981 46.385 140.936 46.3402 140.889 46.2959C140.844 46.2529 140.798 46.2104 140.751 46.1688C140.706 46.1283 140.66 46.0884 140.614 46.049C140.569 46.0107 140.523 45.9729 140.476 45.9356C140.431 45.8994 140.385 45.8635 140.339 45.8284C140.294 45.794 140.248 45.7601 140.201 45.7268C140.156 45.6941 140.11 45.662 140.064 45.6302C140.018 45.5992 139.973 45.5687 139.926 45.5385C139.881 45.5089 139.835 45.4797 139.789 45.451C139.743 45.4229 139.697 45.3952 139.651 45.3679C139.606 45.341 139.56 45.3146 139.514 45.2885C139.468 45.2629 139.422 45.2376 139.376 45.2128C139.331 45.1883 139.285 45.1644 139.239 45.1406C139.193 45.1172 139.147 45.0942 139.101 45.0716C139.056 45.0492 139.01 45.027 138.964 45.0055C138.918 44.9842 138.872 44.9631 138.826 44.9426C138.78 44.9224 138.735 44.9028 138.688 44.8831C138.643 44.8637 138.597 44.8447 138.551 44.8259C138.505 44.8075 138.459 44.7892 138.413 44.7714C138.368 44.7537 138.322 44.7362 138.276 44.7191C138.23 44.7022 138.185 44.6857 138.138 44.6694C138.093 44.6534 138.047 44.6378 138.001 44.6223C137.955 44.607 137.909 44.5921 137.863 44.5774C137.818 44.5628 137.772 44.5485 137.726 44.5345C137.68 44.5206 137.634 44.5067 137.588 44.4933C137.543 44.4803 137.497 44.4676 137.451 44.4551C137.405 44.4426 137.359 44.4305 137.313 44.4185L137.176 44.3836C137.13 44.3723 137.084 44.3612 137.038 44.3505C136.992 44.3399 136.947 44.3297 136.901 44.3197L136.763 44.2904C136.717 44.2809 136.672 44.2714 136.626 44.2625C136.58 44.2536 136.534 44.2454 136.488 44.237L136.35 44.2128C136.305 44.2051 136.259 44.1972 136.213 44.19L136.075 44.1691L135.938 44.1497L135.8 44.1315L135.663 44.1152L135.525 44.1004L135.388 44.0867L135.25 44.0746L135.113 44.064L134.975 44.0542L134.838 44.0463L134.783 44.0433L134.7 44.0381L134.563 44.0301L134.425 44.0224L134.288 44.0152L134.15 44.0086L134.012 44.0027L133.875 43.9977L133.737 43.9935L133.6 43.9904L133.462 43.9886L133.386 43.9884H133.325H133.187H133.05H132.912H132.775H132.637H132.5H132.362H132.225H132.087H131.949H131.812H131.674H131.537H131.399H131.262H131.124H130.987H130.849H130.712H130.574H130.437H130.299H130.161H130.024H129.886H129.749H129.611H129.474H129.336H129.199H129.061H128.924H128.786H128.649H128.511H128.374H128.236H128.099H127.961H127.823H127.686H127.548H127.411H127.273H127.136H126.998H126.861H126.723H126.586H126.448H126.311H126.173H126.036H125.898H125.76H125.623H125.485H125.348H125.21H125.073H124.935H124.798H124.66H124.523H124.385H124.248H124.11H123.973H123.835H123.698H123.56H123.422H123.285H123.147H123.01H122.872H122.735H122.597H122.46H122.322H122.185H122.047H121.91H121.772H121.635H121.497H121.36H121.222H121.084H120.947H120.809H120.672H120.534H120.397H120.259H120.122H119.984H119.847H119.709H119.572H119.434H119.297H119.159H119.022H118.884H118.746H118.609H118.471H118.334H118.196H118.059H117.921H117.784H117.646H117.509H117.371H117.234H117.096H116.959H116.821H116.683H116.546H116.408H116.271H116.133H115.996H115.858H115.721H115.583H115.446H115.308H115.171H115.033H114.896H114.758H114.621H114.483H114.345H114.208H114.07H113.933H113.795H113.658H113.52H113.223V29.2044C113.223 28.2098 113.326 27.2393 113.52 26.3022C113.562 26.1015 113.608 25.9026 113.658 25.7052C113.701 25.5363 113.747 25.3687 113.795 25.2023C113.839 25.0537 113.885 24.9061 113.933 24.7595C113.977 24.6255 114.022 24.4923 114.07 24.3602C114.115 24.2376 114.16 24.1158 114.208 23.9948C114.252 23.8819 114.298 23.7694 114.345 23.658C114.39 23.5527 114.436 23.4479 114.483 23.344C114.528 23.2452 114.574 23.1472 114.621 23.0497C114.665 22.9566 114.711 22.8643 114.758 22.7724C114.803 22.684 114.849 22.5963 114.896 22.5089C114.94 22.4248 114.986 22.3412 115.033 22.258C115.078 22.1774 115.124 22.0975 115.171 22.0178C115.216 21.9406 115.261 21.8638 115.308 21.7876C115.353 21.7137 115.399 21.6403 115.446 21.5673C115.491 21.4966 115.537 21.4265 115.583 21.3567C115.629 21.2884 115.674 21.2203 115.721 21.1528C115.766 21.0866 115.812 21.0204 115.858 20.955C115.903 20.8917 115.95 20.8292 115.996 20.7667C116.041 20.7052 116.087 20.6441 116.133 20.5834C116.179 20.5236 116.224 20.4636 116.271 20.4046C116.316 20.3472 116.362 20.2907 116.408 20.234C116.454 20.1781 116.5 20.1226 116.546 20.0675C116.591 20.0131 116.637 19.9586 116.683 19.9049C116.729 19.8525 116.775 19.801 116.821 19.7493C116.867 19.6981 116.912 19.6467 116.959 19.5961C117.004 19.5466 117.05 19.4975 117.096 19.4485C117.141 19.4002 117.187 19.3523 117.234 19.3046C117.279 19.2575 117.325 19.2105 117.371 19.164C117.417 19.1184 117.463 19.0734 117.509 19.0284C117.554 18.9836 117.6 18.9384 117.646 18.8943C117.691 18.8512 117.738 18.809 117.784 18.7665C117.829 18.7241 117.875 18.6816 117.921 18.6398C117.967 18.5987 118.013 18.5584 118.059 18.5179C118.104 18.4777 118.15 18.4375 118.196 18.3979C118.242 18.3588 118.288 18.3204 118.334 18.2819C118.38 18.2437 118.425 18.2057 118.471 18.1681C118.517 18.1308 118.563 18.0941 118.609 18.0575L118.746 17.9494L118.884 17.8442C118.93 17.8097 118.975 17.7754 119.022 17.7415C119.067 17.7079 119.113 17.6744 119.159 17.6412L119.297 17.5436C119.342 17.5116 119.388 17.4799 119.434 17.4484L119.572 17.3554L119.709 17.2648C119.755 17.2351 119.801 17.2055 119.847 17.1763L119.984 17.0905C120.03 17.0621 120.076 17.0338 120.122 17.006C120.167 16.9784 120.213 16.9516 120.259 16.9246C120.305 16.8977 120.351 16.8704 120.397 16.844C120.442 16.8179 120.489 16.7928 120.534 16.7671C120.58 16.7415 120.626 16.7154 120.672 16.6904C120.717 16.6657 120.764 16.6418 120.809 16.6175C120.855 16.5932 120.901 16.5689 120.947 16.5451C120.992 16.5215 121.039 16.4986 121.084 16.4756C121.13 16.4527 121.176 16.4297 121.222 16.4073L121.36 16.3409C121.405 16.3191 121.451 16.2979 121.497 16.2766C121.543 16.2554 121.589 16.2339 121.635 16.2132C121.68 16.1927 121.726 16.1731 121.772 16.1531C121.818 16.133 121.864 16.1126 121.91 16.093C121.955 16.0737 122.001 16.0552 122.047 16.0363C122.093 16.0175 122.139 15.9985 122.185 15.9802L122.322 15.9261L122.46 15.8738C122.506 15.8565 122.551 15.839 122.597 15.8222C122.643 15.8056 122.689 15.79 122.735 15.7738C122.781 15.7576 122.826 15.7411 122.872 15.7254C122.918 15.7098 122.964 15.6951 123.01 15.68L123.147 15.6354C123.193 15.6209 123.239 15.6062 123.285 15.592C123.331 15.578 123.377 15.5648 123.422 15.5513C123.468 15.5376 123.514 15.5235 123.56 15.5104C123.606 15.4974 123.652 15.4853 123.698 15.4728C123.743 15.4603 123.789 15.4476 123.835 15.4356L123.973 15.4C124.018 15.3885 124.064 15.3776 124.11 15.3665C124.156 15.3555 124.202 15.3437 124.248 15.3331C124.293 15.3226 124.339 15.313 124.385 15.3029L124.523 15.2729L124.66 15.2446C124.706 15.2355 124.752 15.2269 124.798 15.2183C124.844 15.2095 124.889 15.2002 124.935 15.1918C124.981 15.1835 125.027 15.1765 125.073 15.1687L125.21 15.1459C125.256 15.1387 125.302 15.1311 125.348 15.1243C125.394 15.1175 125.44 15.1114 125.485 15.1051C125.531 15.0987 125.577 15.0917 125.623 15.0858C125.669 15.0799 125.715 15.0746 125.76 15.0692L125.898 15.0535C125.944 15.0485 125.99 15.0429 126.036 15.0383C126.081 15.0338 126.127 15.0302 126.173 15.0261L126.311 15.0139L126.448 15.0036C126.494 15.0003 126.54 14.9977 126.586 14.9948C126.631 14.9921 126.677 14.9885 126.723 14.9862C126.769 14.9838 126.815 14.9824 126.861 14.9805L126.998 14.9753C127.044 14.9739 127.09 14.9719 127.136 14.9709C127.182 14.9699 127.228 14.9698 127.273 14.9691C127.319 14.9684 127.365 14.9676 127.411 14.9674L127.445 14.9669H127.548H127.686H127.823H127.961H128.099H128.236H128.374H128.511H128.649H128.786H128.924H129.061H129.199H129.336H129.474H129.611H129.749H129.886H130.024H130.161H130.299H130.437H130.574H130.712H130.849H130.987H131.124H131.262H131.399H131.537H131.674H131.812H131.949H132.087H132.225H132.362H132.5H132.637H132.775H132.912H133.05H133.187H133.325H133.462H133.6H133.737H133.875H134.012H134.15H134.288H134.425H134.563H134.7H134.838H134.975H135.113H135.25H135.388H135.525H135.663H135.8H135.938H136.075H136.213H136.35H136.488H136.626H136.763H136.901H137.038H137.176H137.313H137.451H137.588H137.726H137.863H138.001H138.138H138.276H138.413H138.551H138.688H138.826H138.964H139.101H139.239H139.376H139.514H139.651H139.789H139.926H140.064H140.201H140.339H140.476H140.614H140.751H140.889H141.027H141.164H141.302H141.439H141.577H141.714H141.852H141.989H142.127H142.264H142.402H142.539H142.677H142.814H142.952H143.089H143.227H143.365H143.502H143.64H143.777H143.915H144.052H144.19H144.327H144.465H144.602H144.74H144.877H145.015H145.152H145.29H145.427H145.565H145.703H145.84H145.978H146.115H146.253H146.39H146.528H146.665H146.803H146.94H147.078H147.216H147.353H147.491H147.628H147.766H147.903H148.041H148.178L148.316 14.9668Z" fill="#479951"/>
<path fill-rule="evenodd" clip-rule="evenodd" d="M34.8664 64.505C34.768 64.4583 34.6698 64.4113 34.5715 64.3638V29.2043C34.5715 28.2126 34.6732 27.2445 34.8664 26.31C34.9079 26.1093 34.9539 25.9104 35.0038 25.713C35.0464 25.5438 35.0923 25.3761 35.141 25.2095C35.1844 25.0609 35.2302 24.9136 35.2782 24.7671C35.3222 24.6331 35.3677 24.4996 35.4156 24.3672C35.4599 24.2448 35.5053 24.1231 35.5528 24.0022C35.5972 23.8893 35.643 23.7766 35.6902 23.665C35.7348 23.5598 35.7805 23.4552 35.8274 23.3514C35.8721 23.2526 35.9179 23.1547 35.9647 23.0572C36.0094 22.964 36.0554 22.8716 36.102 22.7795C36.1468 22.6912 36.1927 22.6035 36.2393 22.5162C36.2842 22.4321 36.33 22.3485 36.3765 22.2653C36.4215 22.1848 36.4673 22.1047 36.5139 22.0252C36.559 21.948 36.6045 21.871 36.6511 21.7947C36.6963 21.7209 36.7421 21.6477 36.7885 21.5748C36.8334 21.5042 36.8795 21.4341 36.9257 21.3642C36.971 21.2959 37.0166 21.2278 37.063 21.1603C37.1085 21.094 37.1537 21.0278 37.2003 20.9623C37.2453 20.8991 37.2915 20.8367 37.3376 20.7742C37.3829 20.7127 37.4286 20.6516 37.4749 20.5909C37.5204 20.5313 37.5658 20.4711 37.6122 20.4121C37.6573 20.3548 37.7035 20.2985 37.7494 20.2419C37.7948 20.186 37.8405 20.1303 37.8867 20.075C37.9322 20.0207 37.9777 19.9665 38.024 19.9128C38.0692 19.8603 38.1153 19.8088 38.1613 19.7569C38.2068 19.7056 38.2523 19.6543 38.2986 19.6038C38.3438 19.5542 38.3899 19.5054 38.4358 19.4565C38.4813 19.4081 38.527 19.3601 38.5732 19.3124C38.6187 19.2654 38.6643 19.2184 38.7104 19.1719C38.7558 19.1262 38.8018 19.0812 38.8478 19.0363C38.8935 18.9915 38.9387 18.9464 38.985 18.9023C39.0303 18.8592 39.0764 18.817 39.1223 18.7744C39.168 18.7319 39.2133 18.6893 39.2596 18.6476C39.305 18.6066 39.351 18.5663 39.3969 18.5259C39.4426 18.4857 39.4881 18.4454 39.5342 18.4058C39.5797 18.3667 39.6255 18.3283 39.6715 18.2898C39.7169 18.2517 39.7627 18.2135 39.8087 18.1759C39.8542 18.1388 39.9001 18.102 39.9461 18.0654C39.9917 18.029 40.0373 17.993 40.0833 17.9573C40.1288 17.9219 40.1747 17.8869 40.2207 17.852C40.2663 17.8175 40.312 17.7831 40.3579 17.7492L40.4951 17.6492C40.5407 17.6163 40.5864 17.5836 40.6325 17.5513C40.678 17.5193 40.7238 17.4876 40.7697 17.4562C40.8153 17.4248 40.861 17.3938 40.907 17.363C40.9526 17.3326 40.9984 17.3026 41.0443 17.2727C41.0899 17.243 41.1355 17.213 41.1816 17.1837C41.2271 17.1548 41.273 17.1266 41.3189 17.0981C41.3646 17.0697 41.4101 17.041 41.4562 17.0133C41.5015 16.9858 41.5476 16.9592 41.5934 16.9322C41.6392 16.9052 41.6846 16.8777 41.7308 16.8512C41.7761 16.8251 41.8223 16.8002 41.868 16.7745C41.9138 16.7489 41.9593 16.723 42.0054 16.6978C42.0509 16.673 42.0968 16.649 42.1426 16.6248C42.1883 16.6005 42.2339 16.5762 42.2799 16.5523C42.3255 16.5288 42.3713 16.5057 42.4172 16.4825L42.5545 16.4144C42.6002 16.392 42.6459 16.3696 42.6918 16.3477C42.7374 16.3259 42.7832 16.3049 42.8291 16.2836C42.8749 16.2623 42.9202 16.2405 42.9663 16.2198C43.0118 16.1992 43.0578 16.1798 43.1037 16.1598C43.1494 16.1397 43.195 16.1193 43.2409 16.0998C43.2865 16.0804 43.3324 16.0617 43.3783 16.0428L43.5155 15.9868L43.6527 15.9323L43.7901 15.8802C43.8359 15.8629 43.8813 15.845 43.9273 15.8281C43.9728 15.8115 44.019 15.796 44.0647 15.7798C44.1104 15.7637 44.156 15.7473 44.2019 15.7316L44.3392 15.6857L44.4765 15.6411C44.5222 15.6266 44.5678 15.6116 44.6138 15.5975C44.6593 15.5835 44.7053 15.5702 44.751 15.5566C44.7968 15.543 44.8424 15.5291 44.8884 15.5159C44.934 15.5028 44.9798 15.4906 45.0256 15.4779L45.163 15.4407C45.2087 15.4286 45.2543 15.4163 45.3002 15.4047C45.3458 15.3931 45.3917 15.3825 45.4375 15.3713C45.4832 15.3602 45.5289 15.3486 45.5748 15.3378C45.6204 15.3273 45.6663 15.3173 45.7121 15.3072L45.8494 15.2774C45.8951 15.2676 45.9407 15.2577 45.9866 15.2484C46.0322 15.2393 46.0782 15.2309 46.1239 15.2221C46.1697 15.2134 46.2153 15.2043 46.2612 15.1959C46.307 15.1876 46.3527 15.1801 46.3985 15.1723L46.5358 15.1495C46.5816 15.1422 46.6271 15.1343 46.6731 15.1274C46.7187 15.1204 46.7646 15.1146 46.8103 15.1081C46.856 15.1018 46.9017 15.0949 46.9477 15.0889L47.0849 15.0717L47.2223 15.0561C47.2681 15.051 47.3136 15.045 47.3595 15.0404C47.4051 15.0357 47.4511 15.0323 47.4968 15.0281L47.6341 15.016C47.6798 15.0121 47.7255 15.0084 47.7714 15.0051C47.8171 15.0018 47.8629 14.9991 47.9087 14.9963C47.9545 14.9934 48.0001 14.9901 48.046 14.9876C48.0916 14.9851 48.1374 14.9834 48.1832 14.9814L48.3206 14.9761C48.3663 14.9745 48.4119 14.9721 48.4578 14.971C48.5034 14.9699 48.5493 14.97 48.595 14.9693C48.6408 14.9686 48.6866 14.9678 48.7324 14.9676L48.7934 14.9668H48.8696H49.007H49.1442H49.2815H49.4188H49.5561H49.6934H49.8307H49.9679H50.1053H50.2425H50.3799H50.5171H50.6544H50.7917H50.929H51.0663H51.2036H51.3408H51.4782H51.6154H51.7528H51.89H52.0272H52.1646H52.3018H52.4392H52.5764H52.7137H52.851H52.9883H53.1256H53.2629H53.4001H53.5375H53.6747H53.812H53.9493H54.0865H54.2239H54.3611H54.4984H54.6357H54.773H54.9103H55.0476H55.1848H55.3222H55.4594H55.5968H55.734H55.8713H56.0086H56.1459H56.2832H56.4205H56.5577H56.6951H56.8323H56.9695H57.1069H57.2441H57.3815H57.5187H57.6561H57.7933H57.9306H58.0679H58.2052H58.3424H58.4798H58.617H58.7544H58.8916H59.0289H59.1662H59.3035H59.4408H59.5781H59.7153H59.8526H59.9899H60.1273H60.2645H60.4017H60.5391H60.6763H60.8136H60.9509H61.0882H61.2255H61.3628H61.5001H61.6374H61.7746H61.912H62.0492H62.1866H62.3238H62.461H62.5984H62.7356H62.8729H63.0102H63.1475H63.2848H63.4221H63.5594H63.6967H63.8339H63.9713H64.1085H64.2458H64.3831H64.5204H64.6577H64.795H64.9322H65.0696H65.2068H65.344H65.4814H65.6186H65.756H65.8932H66.0306H66.1678H66.3051H66.4424H66.5797H66.7169H66.8543H66.9915H67.1289H67.2661H67.4034H67.5407H67.678H67.8153H67.9525H68.0898H68.2271H68.3644H68.5017H68.639H68.7762H68.9136H69.0508H69.1881H69.3254H69.4627H69.6H69.7165V86.1491C69.7165 86.7683 69.6767 87.3783 69.6 87.9767C69.5631 88.2648 69.5166 88.5499 69.4627 88.8323C69.4216 89.0471 69.376 89.2603 69.3254 89.4716C69.2828 89.6496 69.2372 89.8263 69.1881 90.0017C69.1449 90.1556 69.0989 90.3083 69.0508 90.4599C69.0072 90.5973 68.9612 90.7336 68.9136 90.8691C68.8695 90.9945 68.8238 91.1192 68.7762 91.243C68.7319 91.3586 68.6862 91.4734 68.639 91.5875C68.5945 91.6949 68.5487 91.8018 68.5017 91.9079C68.4571 92.0086 68.4112 92.1086 68.3644 92.2081C68.3197 92.303 68.2739 92.3971 68.2271 92.4909C68.1822 92.5808 68.1365 92.6702 68.0898 92.7591C68.0449 92.8446 67.9992 92.9297 67.9525 93.0142C67.9074 93.096 67.862 93.1774 67.8153 93.2581C67.7703 93.336 67.7245 93.4135 67.678 93.4905C67.633 93.565 67.587 93.6386 67.5407 93.7122C67.4956 93.7841 67.4497 93.8555 67.4034 93.9264C67.358 93.9958 67.3126 94.065 67.2661 94.1335C67.221 94.1999 67.175 94.2658 67.1289 94.3314C67.0837 94.3955 67.0378 94.4591 66.9915 94.5225C66.9461 94.5848 66.9006 94.6469 66.8543 94.7084C66.809 94.7685 66.7632 94.8282 66.7169 94.8875C66.6717 94.9455 66.6257 95.0029 66.5797 95.0602C66.5342 95.1168 66.4887 95.1734 66.4424 95.2292C66.3972 95.2838 66.3511 95.3376 66.3051 95.3915C66.2597 95.4446 66.214 95.4972 66.1678 95.5496C66.1222 95.6013 66.0769 95.6532 66.0306 95.7042C65.9853 95.7541 65.9392 95.8031 65.8932 95.8524C65.8476 95.9013 65.8023 95.9502 65.756 95.9984C65.7106 96.0457 65.6647 96.0922 65.6186 96.1389C65.5732 96.1851 65.5276 96.2309 65.4814 96.2764C65.4359 96.3214 65.3902 96.366 65.344 96.4105C65.2987 96.4541 65.2527 96.4971 65.2068 96.5402C65.1612 96.5829 65.1157 96.6257 65.0696 96.6678C65.0242 96.7092 64.9781 96.7497 64.9322 96.7905C64.8865 96.8312 64.8412 96.8722 64.795 96.9121C64.7497 96.9513 64.7034 96.9895 64.6577 97.0282C64.612 97.0668 64.5665 97.1057 64.5204 97.1438C64.475 97.1811 64.4289 97.2177 64.3831 97.2544C64.3374 97.291 64.2919 97.328 64.2458 97.3642C64.2004 97.3997 64.1543 97.4343 64.1085 97.4693C64.0628 97.5041 64.0174 97.5392 63.9713 97.5735C63.9259 97.6073 63.8797 97.6402 63.8339 97.6736C63.7882 97.7067 63.7428 97.7402 63.6967 97.7729C63.6513 97.805 63.6053 97.8364 63.5594 97.868C63.5136 97.8997 63.4682 97.9317 63.4221 97.9628C63.3767 97.9933 63.3307 98.023 63.2848 98.0531C63.239 98.0831 63.1936 98.1138 63.1475 98.1434C63.1021 98.1724 63.056 98.2003 63.0102 98.2289C62.9645 98.2575 62.9191 98.2865 62.8729 98.3146C62.8274 98.3422 62.7814 98.3691 62.7356 98.3962C62.6899 98.4233 62.6445 98.4506 62.5984 98.4773C62.5528 98.5036 62.507 98.5293 62.461 98.5552C62.4155 98.5809 62.3697 98.6067 62.3238 98.6318C62.2782 98.6569 62.2325 98.6817 62.1866 98.7062L62.0492 98.7786C62.0035 98.8024 61.9579 98.8262 61.912 98.8496C61.8664 98.8727 61.8205 98.8952 61.7746 98.9178C61.7289 98.9404 61.6834 98.9636 61.6374 98.9857C61.5919 99.0076 61.5458 99.0284 61.5001 99.0498C61.4543 99.0712 61.4088 99.093 61.3628 99.1139C61.3173 99.1347 61.2712 99.1545 61.2255 99.1747L61.0882 99.2348L60.9509 99.293C60.9053 99.312 60.8594 99.3304 60.8136 99.349C60.7679 99.3676 60.7223 99.3865 60.6763 99.4046C60.6308 99.4225 60.5849 99.4392 60.5391 99.4566C60.4933 99.474 60.4478 99.4918 60.4017 99.5088C60.3561 99.5256 60.3103 99.5417 60.2645 99.5581L60.1273 99.6064L59.9899 99.6534C59.9443 99.6687 59.8984 99.6833 59.8526 99.698C59.8068 99.7128 59.7613 99.7281 59.7153 99.7425C59.6698 99.7567 59.6238 99.7698 59.5781 99.7836L59.4408 99.8244L59.3035 99.8634C59.2579 99.8762 59.212 99.8883 59.1662 99.9006C59.1204 99.9129 59.0748 99.9258 59.0289 99.9376C58.9834 99.9493 58.9372 99.9598 58.8916 99.9711C58.8459 99.9823 58.8002 99.9937 58.7544 100.005L58.617 100.036L58.4798 100.066C58.434 100.076 58.3885 100.087 58.3424 100.096C58.2968 100.105 58.2509 100.113 58.2052 100.122C58.1595 100.131 58.1138 100.14 58.0679 100.148L57.9306 100.173C57.885 100.181 57.8392 100.188 57.7933 100.196C57.7475 100.203 57.7019 100.212 57.6561 100.219C57.6105 100.226 57.5646 100.232 57.5187 100.238L57.3815 100.257C57.3358 100.264 57.2901 100.27 57.2441 100.276C57.1985 100.281 57.1526 100.286 57.1069 100.291C57.0611 100.297 57.0155 100.302 56.9695 100.307C56.9239 100.312 56.8781 100.316 56.8323 100.32L56.6951 100.332C56.6492 100.336 56.6036 100.341 56.5577 100.344C56.5121 100.348 56.4662 100.35 56.4205 100.353L56.2832 100.362L56.1459 100.369C56.1003 100.371 56.0543 100.373 56.0086 100.374C55.9628 100.376 55.9171 100.378 55.8713 100.38C55.8257 100.381 55.7797 100.381 55.734 100.382L55.5968 100.384C55.5544 100.384 55.5121 100.385 55.4695 100.385H55.4594H55.3222H55.1848H55.0476H54.9103H54.773H54.6357H54.4984H54.3611H54.2239H54.0865H53.9493H53.812H53.6747H53.5375H53.4001H53.2629H53.1256H52.9883H52.851H52.7137H52.5764H52.4392H52.3018H52.1646H52.0272H51.89H51.7528H51.6154H51.4782H51.3408H51.2036H51.0663H50.929H50.7917H50.6544H50.5171H50.3799H50.2425H50.1053H49.9679H49.8307H49.6934H49.5561H49.4188H49.2815H49.1442H49.007H48.8696H48.7324H48.595H48.4578H48.3206H48.1832H48.046H47.9087H47.7714H47.6341H47.4968H47.3595H47.2223H47.0849H46.9477H46.8103H46.6731H46.5358H46.3985H46.2612H46.1239H45.9866H45.8494H45.7121H45.5748H45.4375H45.3002H45.163H45.0256H44.8884H44.751H44.6138H44.4765H44.3392H44.2019H44.0647H43.9273H43.7901H43.6527H43.5155H43.3783H43.2409H43.1037H42.9663H42.8291H42.6918H42.5545H42.4172H42.2799H42.1426H42.0054H41.868H41.7308H41.5934H41.4562H41.3189H41.1816H41.0443H40.907H40.7697H40.6325H40.4951H40.3579H40.2207H40.0833H39.9461H39.8087H39.6715H39.5342H39.3969H39.2596H39.1223H38.985H38.8478H38.7104H38.5732H38.4358H38.2986H38.1613H38.024H37.8867H37.7494H37.6122H37.4749H37.3376H37.2003H37.063H36.9257H36.7885H36.6511H36.5139H36.3765H36.2393H36.102H35.9647H35.8274H35.6902H35.5528H35.4156H35.2782H35.141H35.0038H34.8664H34.5715V70.3829C34.5715 70.3829 34.673 70.4108 34.8664 70.4595L35.0038 70.4938L35.141 70.5273L35.2782 70.5602L35.4156 70.5927L35.5528 70.6246L35.6902 70.656L35.8274 70.687L35.9647 70.7175L36.102 70.7476L36.2393 70.7773L36.3765 70.8066L36.5139 70.8355L36.6511 70.8641L36.7885 70.8921L36.9257 70.9199L37.063 70.9473L37.2003 70.9744L37.3376 71.0011L37.4749 71.0276L37.6122 71.0537L37.7494 71.0793L37.8867 71.1047L38.024 71.1298L38.1613 71.1545L38.2986 71.179L38.4358 71.203L38.5732 71.2268L38.7104 71.2501L38.8478 71.2733L38.985 71.296L39.1223 71.3186L39.2596 71.3408L39.3969 71.3627L39.5342 71.3843L39.6715 71.4056L39.8087 71.4267L39.9461 71.4473L40.0833 71.4677L40.2207 71.4877L40.3579 71.5075L40.4951 71.527L40.6325 71.5463L40.7697 71.565L40.907 71.5837L41.0443 71.6019L41.1816 71.6199L41.3189 71.6377L41.4562 71.655L41.5934 71.6722L41.7308 71.689L41.868 71.7056L42.0054 71.7216L42.1426 71.7377L42.2799 71.7532L42.4172 71.7687L42.5545 71.7837L42.6918 71.7984L42.8291 71.813L42.9663 71.827L43.1037 71.841L43.2409 71.8544L43.3783 71.8678L43.5155 71.8809L43.6527 71.8934L43.7901 71.906L43.9273 71.9179L44.0647 71.9297L44.2019 71.9412L44.3392 71.9524L44.4765 71.9634L44.6138 71.9738L44.751 71.9843L44.8884 71.9942L45.0256 72.0039L45.163 72.0134L45.3002 72.0223L45.4375 72.0312L45.5748 72.0397L45.7121 72.0478L45.8494 72.0559L45.9866 72.0633L46.1239 72.0706L46.2612 72.0777L46.3985 72.0842L46.5358 72.0906L46.6731 72.0966L46.8103 72.1023L46.9477 72.108L47.0849 72.1127L47.2223 72.1176L47.3595 72.1222L47.4968 72.1262L47.6341 72.1303L47.7714 72.1337L47.9087 72.1368L48.046 72.14L48.1832 72.1422L48.3206 72.1445L48.4578 72.1466L48.595 72.1479L48.7324 72.1494L48.8696 72.1504L49.007 72.1509L49.1442 72.1512L49.1972 72.1515L49.2815 72.151L49.4188 72.1501L49.5561 72.1493L49.6934 72.1485L49.8307 72.1477L49.9679 72.1452L50.1053 72.1427L50.2425 72.1402L50.3799 72.1377L50.5171 72.1343L50.6544 72.1299L50.7917 72.1257L50.929 72.1215L51.0663 72.117L51.2036 72.1109L51.3408 72.1049L51.4782 72.0987L51.6154 72.0927L51.7528 72.0851L51.89 72.0772L52.0272 72.0692L52.1646 72.0613L52.3018 72.0521L52.4392 72.0422L52.5764 72.0324L52.7137 72.0225L52.851 72.0116L52.9883 71.9998L53.1256 71.9879L53.2629 71.976L53.4001 71.9631L53.5375 71.9491L53.6747 71.9352L53.812 71.9212L53.9493 71.9059L54.0865 71.8899L54.2239 71.8737L54.3611 71.8576L54.4984 71.8397L54.6357 71.8214L54.773 71.8031L54.9103 71.7844C54.9566 71.7778 55.0016 71.7705 55.0476 71.7638L55.1848 71.7432L55.3222 71.7224L55.4594 71.7007C55.5056 71.6933 55.5508 71.6852 55.5968 71.6776L55.734 71.6546C55.7795 71.6468 55.8261 71.6394 55.8713 71.6314C55.9175 71.6232 55.9626 71.6145 56.0086 71.606L56.1459 71.5804L56.2832 71.5548L56.4205 71.5279C56.4666 71.5188 56.5119 71.509 56.5577 71.4997L56.6951 71.4714L56.8323 71.4427C56.8787 71.4328 56.9236 71.4221 56.9695 71.4119L57.1069 71.3809C57.1524 71.3704 57.199 71.3606 57.2441 71.35C57.2905 71.3391 57.3356 71.3276 57.3815 71.3165L57.5187 71.2827C57.5643 71.2714 57.6108 71.2605 57.6561 71.249C57.7023 71.2373 57.7476 71.225 57.7933 71.213L57.9306 71.1763C57.9763 71.164 58.0227 71.1521 58.0679 71.1396C58.1141 71.1269 58.1595 71.1137 58.2052 71.1007L58.3424 71.061C58.3881 71.0477 58.4345 71.0347 58.4798 71.0211L58.617 70.9791L58.7544 70.936C58.8 70.9217 58.8465 70.9077 58.8916 70.893L59.0289 70.8473L59.1662 70.8009C59.2118 70.7853 59.2584 70.7702 59.3035 70.7544C59.3498 70.7381 59.3949 70.7211 59.4408 70.7046L59.5781 70.6546C59.6238 70.6377 59.67 70.621 59.7153 70.6038C59.7617 70.5863 59.8068 70.5681 59.8526 70.5502C59.8985 70.5323 59.9446 70.5145 59.9899 70.4964L60.1273 70.4406L60.2645 70.383C60.3101 70.3638 60.3567 70.3451 60.4017 70.3255C60.4482 70.3053 60.4932 70.2843 60.5391 70.2638L60.6763 70.2021L60.8136 70.1384C60.8597 70.1166 60.9053 70.0944 60.9509 70.0723C60.9966 70.0502 61.0431 70.0284 61.0882 70.0059C61.1347 69.9827 61.1797 69.9588 61.2255 69.9353C61.2713 69.9118 61.3176 69.8886 61.3628 69.8648C61.4092 69.8404 61.4544 69.8155 61.5001 69.7907C61.5462 69.7657 61.592 69.7407 61.6374 69.7154C61.6835 69.6896 61.7292 69.6637 61.7746 69.6376C61.8209 69.6111 61.8665 69.5841 61.912 69.5571C61.9579 69.5299 62.004 69.5026 62.0492 69.4751C62.0956 69.4467 62.141 69.418 62.1866 69.3893C62.2325 69.3605 62.2787 69.3317 62.3238 69.3024C62.3702 69.2724 62.4155 69.2415 62.461 69.211C62.507 69.1801 62.5533 69.1496 62.5984 69.1184C62.6449 69.0863 62.69 69.0536 62.7356 69.021C62.7816 68.9882 62.8279 68.9553 62.8729 68.922C62.9194 68.8878 62.9648 68.853 63.0102 68.8183C63.0564 68.7831 63.1023 68.7477 63.1475 68.712C63.1938 68.6755 63.2395 68.6385 63.2848 68.6013C63.3311 68.5634 63.3768 68.525 63.4221 68.4866C63.4682 68.4475 63.5144 68.4084 63.5594 68.3688C63.6061 68.3278 63.6512 68.286 63.6967 68.2444C63.7427 68.2023 63.789 68.1602 63.8339 68.1175C63.8805 68.0732 63.926 68.0285 63.9713 67.9836C64.0177 67.9376 64.0634 67.8911 64.1085 67.8445C64.1547 67.7969 64.201 67.7494 64.2458 67.7013C64.2925 67.6508 64.3378 67.5998 64.3831 67.5487C64.4297 67.4962 64.4753 67.4432 64.5204 67.39C64.5668 67.3352 64.6129 67.2803 64.6577 67.2248C64.7042 67.167 64.7502 67.1093 64.795 67.0509C64.8418 66.9897 64.8872 66.928 64.9322 66.866C64.9791 66.8016 65.0246 66.7366 65.0696 66.6713C65.1164 66.6032 65.1621 66.5345 65.2068 66.4654C65.2536 66.3929 65.2995 66.3199 65.344 66.2464C65.391 66.1687 65.4369 66.0907 65.4814 66.0119C65.5286 65.9284 65.5743 65.8443 65.6186 65.7596C65.6661 65.6689 65.7118 65.5777 65.756 65.4858C65.8036 65.387 65.8492 65.2872 65.8932 65.1869C65.941 65.0777 65.9869 64.968 66.0306 64.8571C66.0787 64.7349 66.1246 64.6117 66.1678 64.4875C66.2169 64.3465 66.2623 64.204 66.3051 64.0604C66.355 63.8925 66.4007 63.7229 66.4424 63.5518C66.4942 63.3394 66.5401 63.1246 66.5797 62.9074C66.6385 62.584 66.6839 62.2556 66.7169 61.9228C66.7631 61.4587 66.7855 60.9863 66.7855 60.5065V43.9885H66.7169H66.5797H66.4424H66.3051H66.1678H66.0306H65.8932H65.756H65.6186H65.4814H65.344H65.2068H65.0696H64.9322H64.795H64.6577H64.5204H64.3831H64.2458H64.1085H63.9713H63.8339H63.6967H63.5594H63.4221H63.2848H63.1475H63.0102H62.8729H62.7356H62.5984H62.461H62.3238H62.1866H62.0492H61.912H61.7746H61.6374H61.5001H61.3628H61.2255H61.0882H60.9509H60.8136H60.6763H60.5391H60.4017H60.2645H60.1273H59.9899H59.8526H59.7153H59.5781H59.4408H59.3035H59.1662H59.0289H58.8916H58.7544H58.617H58.4798H58.3424H58.2052H58.0679H57.9306H57.7933H57.6561H57.5187H57.3815H57.2441H57.1069H56.9695H56.8323H56.6951H56.5577H56.4205H56.2832H56.1459H56.0086H55.8713H55.734H55.5968H55.4594H55.3222H55.1848H55.0476H54.9103H54.773H54.6357H54.5317V60.5065C54.5317 60.765 54.5204 61.0194 54.4984 61.269C54.4703 61.5868 54.4244 61.8967 54.3611 62.1981C54.3221 62.3842 54.2762 62.5668 54.2239 62.7461C54.1822 62.8889 54.1366 63.0295 54.0865 63.1676C54.0439 63.2853 53.998 63.401 53.9493 63.5151C53.9059 63.6169 53.8602 63.7171 53.812 63.816C53.7681 63.9059 53.7226 63.9949 53.6747 64.0822C53.6307 64.1627 53.5847 64.2415 53.5375 64.3196C53.4931 64.3931 53.4474 64.4656 53.4001 64.537C53.3557 64.604 53.3098 64.67 53.2629 64.7352C53.2182 64.7972 53.1727 64.8588 53.1256 64.9193C53.0809 64.9767 53.035 65.033 52.9883 65.0888C52.9435 65.1422 52.8978 65.1948 52.851 65.2469C52.8061 65.297 52.7604 65.3465 52.7137 65.3951C52.6686 65.4421 52.6231 65.4885 52.5764 65.5342C52.5314 65.5783 52.4857 65.622 52.4392 65.6648C52.3942 65.7063 52.3482 65.7469 52.3018 65.7873C52.2568 65.8263 52.211 65.8649 52.1646 65.9029C52.1195 65.9398 52.0735 65.9761 52.0272 66.012C51.9821 66.0468 51.9363 66.0812 51.89 66.1152C51.8447 66.1482 51.799 66.1808 51.7528 66.2128C51.7075 66.2441 51.6618 66.2748 51.6154 66.3052C51.5701 66.3348 51.5244 66.364 51.4782 66.3927C51.4329 66.4207 51.3871 66.4483 51.3408 66.4754C51.2955 66.5019 51.2497 66.5279 51.2036 66.5536C51.1583 66.5788 51.1125 66.6033 51.0663 66.6277C51.0209 66.6516 50.9752 66.6749 50.929 66.6979C50.8836 66.7205 50.8379 66.7427 50.7917 66.7645C50.7462 66.786 50.7006 66.8073 50.6544 66.8279C50.6089 66.8481 50.5633 66.8682 50.5171 66.8877C50.4719 66.9068 50.4259 66.9252 50.3799 66.9436C50.3345 66.9617 50.2886 66.9793 50.2425 66.9966C50.197 67.0137 50.1514 67.0305 50.1053 67.0469C50.0598 67.063 50.0141 67.0791 49.9679 67.0945C49.9226 67.1096 49.8767 67.1244 49.8307 67.1389C49.7853 67.1531 49.7394 67.1668 49.6934 67.1803C49.648 67.1938 49.6021 67.207 49.5561 67.2196C49.5105 67.2322 49.4649 67.2448 49.4188 67.2567C49.3734 67.2684 49.3275 67.2797 49.2815 67.2907C49.2361 67.3016 49.1903 67.3121 49.1442 67.3224C49.0988 67.3325 49.0531 67.3425 49.007 67.3521C48.9614 67.3615 48.9158 67.3708 48.8696 67.3795C48.8242 67.3882 48.7783 67.3963 48.7324 67.4044C48.6868 67.4123 48.6411 67.4203 48.595 67.4277L48.4578 67.4487C48.4123 67.4553 48.3665 67.4613 48.3206 67.4673C48.275 67.4734 48.2294 67.4793 48.1832 67.4847L48.046 67.4999C48.0005 67.5046 47.9547 67.5087 47.9087 67.5129C47.863 67.517 47.8174 67.5212 47.7714 67.5247C47.7259 67.5283 47.6801 67.5314 47.6341 67.5343C47.5885 67.5373 47.5427 67.5398 47.4968 67.5422C47.4511 67.5446 47.4056 67.547 47.3595 67.5488C47.314 67.5506 47.2681 67.5516 47.2223 67.553L47.0849 67.5562C47.0394 67.557 46.9936 67.5572 46.9477 67.5575L46.896 67.558L46.8103 67.5577L46.6731 67.5568L46.5358 67.5548L46.3985 67.552L46.2612 67.5483L46.1239 67.5439L45.9866 67.5383L45.8494 67.5319L45.7121 67.525L45.5748 67.5168L45.4375 67.5079L45.3002 67.4982L45.163 67.4875L45.0256 67.476L44.8884 67.4637L44.751 67.4506L44.6138 67.4365L44.4765 67.4217L44.3392 67.4061L44.2019 67.3895L44.0647 67.372L43.9273 67.354L43.7901 67.3349L43.6527 67.315L43.5155 67.2945L43.3783 67.2731L43.2409 67.2507L43.1037 67.2277L42.9663 67.2039L42.8291 67.1791L42.6918 67.1537L42.5545 67.1275L42.4172 67.1005L42.2799 67.0726L42.1426 67.044L42.0054 67.0148L41.868 66.9846L41.7308 66.9536L41.5934 66.9221L41.4562 66.8896L41.3189 66.8563L41.1816 66.8224L41.0443 66.7879L40.907 66.7521L40.7697 66.7159L40.6325 66.6791L40.4951 66.6414L40.3579 66.6031L40.2207 66.5639L40.0833 66.5241L39.9461 66.4834L39.8087 66.442L39.6715 66.4001L39.5342 66.3573L39.3969 66.3138L39.2596 66.2697L39.1223 66.2249L38.985 66.1793L38.8478 66.133L38.7104 66.086L38.5732 66.0385L38.4358 65.99L38.2986 65.941L38.1613 65.8916L38.024 65.841L37.8867 65.79L37.7494 65.7383L37.6122 65.686L37.4749 65.6329L37.3376 65.5793L37.2003 65.525L37.063 65.47L36.9257 65.4144L36.7885 65.3581L36.6511 65.3013L36.5139 65.2437L36.3765 65.1855L36.2393 65.1267L36.102 65.0674L35.9647 65.0071L35.8274 64.9465L35.6902 64.8854L35.5528 64.8235L35.4156 64.761L35.2782 64.6979L35.141 64.6343L35.0038 64.5699L34.8664 64.505Z" fill="#265797"/>
<path fill-rule="evenodd" clip-rule="evenodd" d="M74.7622 47.5977C74.6621 47.6786 74.5636 47.7601 74.4674 47.8427V29.2043C74.4674 28.2131 74.5692 27.2457 74.7622 26.3114C74.8037 26.1109 74.8496 25.9121 74.8995 25.7148C74.9422 25.5454 74.9881 25.3774 75.0368 25.2106C75.0802 25.062 75.1261 24.9144 75.1742 24.7678C75.2181 24.6339 75.2636 24.5006 75.3114 24.3685C75.3556 24.2461 75.4012 24.1242 75.4488 24.0034C75.4932 23.8904 75.5388 23.778 75.586 23.6664C75.6306 23.5611 75.6763 23.4566 75.7232 23.3526C75.7678 23.2539 75.8139 23.1558 75.8606 23.0583C75.9053 22.9652 75.9512 22.8729 75.9978 22.7809C76.0426 22.6925 76.0886 22.6048 76.1352 22.5175C76.1801 22.4333 76.2259 22.3497 76.2724 22.2666C76.3175 22.1861 76.3632 22.1059 76.4098 22.0264C76.4549 21.9492 76.5004 21.8723 76.547 21.796C76.5921 21.7223 76.6379 21.6491 76.6843 21.5763C76.7294 21.5055 76.7754 21.4354 76.8216 21.3655C76.8669 21.297 76.9125 21.2291 76.9589 21.1615C77.0044 21.0952 77.0497 21.029 77.0962 20.9636C77.1413 20.9003 77.1874 20.838 77.2335 20.7756C77.2788 20.7141 77.3246 20.6529 77.3708 20.5922C77.4163 20.5324 77.4617 20.4725 77.5081 20.4135C77.5531 20.3562 77.5995 20.2997 77.6454 20.2431C77.6908 20.1872 77.7365 20.1315 77.7827 20.0764C77.8282 20.022 77.8738 19.9677 77.92 19.9141C77.9653 19.8617 78.0113 19.81 78.0573 19.7583C78.1028 19.7071 78.1483 19.6556 78.1946 19.6049C78.2399 19.5554 78.2858 19.5064 78.3318 19.4575C78.3771 19.4092 78.4229 19.3613 78.469 19.3136C78.5146 19.2665 78.5602 19.2195 78.6064 19.173C78.6517 19.1275 78.6977 19.0825 78.7436 19.0375C78.7893 18.9927 78.8347 18.9476 78.881 18.9035C78.9262 18.8603 78.9724 18.8182 79.0182 18.7756C79.0638 18.7331 79.1093 18.6905 79.1556 18.6487C79.2009 18.6077 79.247 18.5674 79.2928 18.5269C79.3384 18.4866 79.384 18.4464 79.4301 18.4068C79.4756 18.3677 79.5215 18.3293 79.5674 18.2909C79.613 18.2527 79.6587 18.2145 79.7047 18.1769C79.7502 18.1397 79.7961 18.1029 79.842 18.0664C79.8876 18.03 79.9333 17.9939 79.9793 17.9582C80.0248 17.9229 80.0706 17.8879 80.1166 17.8531C80.1622 17.8186 80.2079 17.7842 80.2538 17.7502C80.2993 17.7165 80.3452 17.6833 80.3912 17.6501C80.4368 17.6173 80.4825 17.5845 80.5284 17.5522C80.574 17.5202 80.6198 17.4886 80.6658 17.4571C80.7114 17.4258 80.7571 17.3946 80.803 17.3638C80.8485 17.3334 80.8944 17.3034 80.9404 17.2735C80.986 17.2437 81.0316 17.2138 81.0776 17.1845C81.1232 17.1556 81.169 17.1274 81.215 17.0989C81.2607 17.0705 81.3062 17.0418 81.3522 17.0141C81.3977 16.9865 81.4438 16.9598 81.4896 16.9328C81.5354 16.9059 81.5808 16.8783 81.6268 16.8519C81.6722 16.8258 81.7185 16.8007 81.7642 16.7751C81.81 16.7495 81.8554 16.7236 81.9014 16.6986C81.9469 16.6738 81.9928 16.6498 82.0387 16.6255C82.0844 16.6012 82.13 16.5768 82.176 16.553L82.3133 16.4832L82.4506 16.415C82.4962 16.3927 82.5419 16.3701 82.5879 16.3483C82.6335 16.3265 82.6794 16.3054 82.7252 16.2841C82.771 16.263 82.8164 16.2411 82.8625 16.2204C82.9079 16.1998 82.954 16.1804 82.9998 16.1603C83.0455 16.1403 83.0911 16.1199 83.1371 16.1003C83.1826 16.081 83.2285 16.0622 83.2743 16.0433L83.4117 15.9872C83.4574 15.9689 83.503 15.9506 83.5489 15.9327C83.5945 15.9149 83.6404 15.8978 83.6862 15.8805C83.7321 15.8632 83.7774 15.8453 83.8235 15.8285C83.869 15.8118 83.9151 15.7964 83.9608 15.7802C84.0066 15.764 84.0522 15.7476 84.0981 15.7319C84.1437 15.7162 84.1896 15.7011 84.2354 15.686L84.3727 15.6415C84.4184 15.6269 84.4641 15.612 84.51 15.5977C84.5555 15.5837 84.6016 15.5705 84.6473 15.557C84.693 15.5433 84.7387 15.5293 84.7846 15.5161C84.8302 15.503 84.8761 15.4908 84.9219 15.4782L85.0591 15.4409C85.1049 15.4288 85.1505 15.4165 85.1965 15.4049C85.2421 15.3934 85.288 15.3826 85.3337 15.3714C85.3794 15.3603 85.4251 15.3487 85.4711 15.338C85.5167 15.3274 85.5626 15.3175 85.6083 15.3073L85.7457 15.2775C85.7915 15.2678 85.837 15.2578 85.8829 15.2486C85.9285 15.2393 85.9745 15.231 86.0203 15.2222C86.066 15.2135 86.1116 15.2043 86.1575 15.1959L86.2949 15.1723L86.4321 15.1496C86.4779 15.1422 86.5235 15.1343 86.5695 15.1274C86.6151 15.1204 86.661 15.1146 86.7067 15.1081C86.7524 15.1018 86.7981 15.095 86.844 15.089L86.9813 15.0718L87.1186 15.0561C87.1644 15.051 87.21 15.045 87.2559 15.0404C87.3015 15.0357 87.3474 15.0323 87.3932 15.0281L87.5305 15.016C87.5762 15.0121 87.6219 15.0084 87.6677 15.0051C87.7135 15.0018 87.7593 14.9991 87.805 14.9963C87.8508 14.9934 87.8964 14.9901 87.9423 14.9876C87.9881 14.9851 88.0339 14.9834 88.0797 14.9814L88.2169 14.9761C88.2628 14.9745 88.3084 14.9721 88.3543 14.971C88.3999 14.9699 88.4458 14.97 88.4915 14.9693C88.5374 14.9686 88.5831 14.9678 88.6289 14.9676L88.6894 14.9668H88.7661H88.9035H89.0407H89.178H89.3153H89.4526H89.5899H89.7272H89.8645H90.0018H90.1391H90.2764H90.4136H90.551H90.6882H90.8256H90.9628H91.1002H91.2374H91.3746H91.512H91.6493H91.7866H91.9238H92.0612H92.1986H92.3358H92.4732H92.6104H92.7476H92.885H93.0222H93.1596H93.2968H93.4342H93.5714H93.7087H93.846H93.9833H94.1206H94.2579H94.3952H94.5325H94.6698H94.8071H94.9443H95.0817H95.2189H95.3563H95.4935H95.6309H95.7681H95.9055H96.0427H96.1799H96.3173H96.4547H96.5919H96.7293H96.8665H97.0039H97.1411H97.2783H97.4157H97.5529H97.6903H97.8275H97.9649H98.1021H98.2395H98.3767H98.514H98.6513H98.7886H98.9259H99.0632H99.2005H99.3378H99.4751H99.6124H99.7496H99.887H100.024H100.162H100.299H100.436H100.573H100.711H100.848H100.985H101.123H101.26H101.397H101.535H101.672H101.809H101.946H102.084H102.221H102.358H102.496H102.633H102.77H102.907H103.045H103.182H103.319H103.457H103.594H103.731H103.868H104.006H104.143H104.28H104.418H104.555H104.692H104.829H104.967H105.104H105.241H105.379H105.516H105.653H105.791H105.928H106.065H106.202H106.34H106.477H106.614H106.752H106.889H107.026H107.164H107.301H107.438H107.575H107.713H107.85H107.987H108.125H108.262H108.399H108.537H108.674H108.811H108.948H109.086H109.223H109.36H109.498H109.614V86.1491C109.614 86.7681 109.574 87.3776 109.498 87.9758C109.461 88.2638 109.414 88.5487 109.36 88.8311C109.319 89.046 109.274 89.2593 109.223 89.4707C109.18 89.6487 109.135 89.8255 109.086 90.0009C109.042 90.1548 108.997 90.3075 108.948 90.4592C108.905 90.5966 108.859 90.7328 108.811 90.8683C108.767 90.9937 108.721 91.1184 108.674 91.2422C108.629 91.3577 108.584 91.4724 108.537 91.5865C108.492 91.694 108.446 91.8009 108.399 91.9071C108.355 92.0078 108.309 92.1076 108.262 92.2071C108.217 92.302 108.171 92.3965 108.125 92.4902C108.08 92.58 108.034 92.6695 107.987 92.7583C107.942 92.8439 107.897 92.929 107.85 93.0136C107.805 93.0954 107.759 93.1768 107.713 93.2576C107.668 93.3354 107.622 93.4127 107.575 93.4896C107.53 93.5642 107.485 93.6378 107.438 93.7115C107.393 93.7833 107.347 93.8547 107.301 93.9255C107.256 93.9949 107.21 94.0644 107.164 94.1328C107.118 94.1992 107.072 94.265 107.026 94.3306C106.981 94.3947 106.935 94.4583 106.889 94.5217C106.844 94.584 106.798 94.6462 106.752 94.7077C106.706 94.7677 106.661 94.8272 106.614 94.8865C106.569 94.9446 106.523 95.0021 106.477 95.0594C106.432 95.116 106.386 95.1725 106.34 95.2284C106.295 95.283 106.249 95.3368 106.202 95.3908C106.157 95.4439 106.111 95.4964 106.065 95.5488C106.02 95.6005 105.974 95.6523 105.928 95.7034C105.883 95.7533 105.836 95.8023 105.791 95.8516C105.745 95.9005 105.7 95.9495 105.653 95.9978C105.608 96.0451 105.562 96.0916 105.516 96.1381C105.471 96.1843 105.425 96.2301 105.379 96.2756C105.333 96.3206 105.288 96.3652 105.241 96.4097C105.196 96.4533 105.15 96.4963 105.104 96.5394C105.058 96.5821 105.013 96.6251 104.967 96.6673C104.921 96.7086 104.875 96.7492 104.829 96.7899C104.784 96.8306 104.739 96.8716 104.692 96.9116C104.647 96.9509 104.601 96.9891 104.555 97.0277C104.509 97.0663 104.464 97.1053 104.418 97.1432C104.372 97.1806 104.326 97.2169 104.28 97.2537C104.235 97.2904 104.189 97.3274 104.143 97.3635C104.098 97.399 104.052 97.4336 104.006 97.4686C103.96 97.5034 103.915 97.5385 103.868 97.5729C103.823 97.6067 103.777 97.6398 103.731 97.673C103.686 97.7062 103.64 97.7398 103.594 97.7723C103.548 97.8045 103.502 97.8358 103.457 97.8674C103.411 97.8991 103.365 97.9311 103.319 97.9622C103.274 97.9927 103.228 98.0224 103.182 98.0525C103.136 98.0826 103.091 98.1132 103.045 98.1427C102.999 98.1718 102.953 98.1999 102.907 98.2285C102.862 98.257 102.816 98.286 102.77 98.314C102.725 98.3417 102.679 98.3684 102.633 98.3956C102.587 98.4227 102.542 98.4501 102.496 98.4767C102.45 98.503 102.404 98.5289 102.358 98.5547L102.221 98.6314L102.084 98.7058L101.946 98.7781C101.901 98.8019 101.855 98.8258 101.809 98.8491C101.764 98.8723 101.718 98.8947 101.672 98.9174C101.626 98.94 101.581 98.9631 101.535 98.9852C101.489 99.0071 101.443 99.0279 101.397 99.0494C101.351 99.0708 101.306 99.0926 101.26 99.1135C101.214 99.1342 101.168 99.1541 101.123 99.1744L100.985 99.2343L100.848 99.2925L100.711 99.3487C100.665 99.3672 100.619 99.3861 100.573 99.4042C100.528 99.4221 100.482 99.4389 100.436 99.4563C100.39 99.4737 100.345 99.4915 100.299 99.5084C100.253 99.5253 100.207 99.5414 100.162 99.5578L100.024 99.6062L99.887 99.6531C99.8414 99.6683 99.7954 99.6828 99.7496 99.6976C99.7038 99.7124 99.6583 99.7279 99.6124 99.7421C99.5669 99.7564 99.5208 99.7695 99.4751 99.7832L99.3378 99.824L99.2005 99.8631C99.1548 99.8758 99.109 99.888 99.0632 99.9002C99.0173 99.9125 98.972 99.9255 98.9259 99.9373C98.8803 99.9491 98.8344 99.9595 98.7886 99.9708C98.7429 99.9821 98.6972 99.9935 98.6513 100.004L98.514 100.036L98.3767 100.066C98.3309 100.076 98.2854 100.086 98.2395 100.096C98.1939 100.105 98.1478 100.113 98.1021 100.122L97.9649 100.148L97.8275 100.173C97.7819 100.181 97.7361 100.188 97.6903 100.196C97.6445 100.203 97.5989 100.211 97.5529 100.218C97.5073 100.225 97.4614 100.232 97.4157 100.238L97.2783 100.257C97.2326 100.264 97.1869 100.27 97.1411 100.275C97.0955 100.281 97.0496 100.286 97.0039 100.291C96.958 100.296 96.9124 100.302 96.8665 100.307C96.8209 100.312 96.7751 100.316 96.7293 100.32L96.5919 100.332C96.5461 100.336 96.5006 100.341 96.4547 100.344C96.4091 100.348 96.3631 100.35 96.3173 100.353L96.1799 100.362L96.0427 100.369C95.9971 100.371 95.9512 100.373 95.9055 100.374C95.8596 100.376 95.8139 100.378 95.7681 100.379C95.7225 100.381 95.6767 100.381 95.6309 100.382L95.4935 100.384C95.4508 100.384 95.4082 100.385 95.3654 100.385H95.3563H95.2189H95.0817H94.9443H94.8071H94.6698H94.5325H94.3952H94.2579H94.1206H93.9833H93.846H93.7087H93.5714H93.4342H93.2968H93.1596H93.0222H92.885H92.7476H92.6104H92.4732H92.3358H92.1986H92.0612H91.9238H91.7866H91.6493H91.512H91.3746H91.2374H91.1002H90.9628H90.8256H90.6882H90.551H90.4136H90.2764H90.1391H90.0018H89.8645H89.7272H89.5899H89.4526H89.3153H89.178H89.0407H88.9035H88.7661H88.6289H88.4915H88.3543H88.2169H88.0797H87.9423H87.805H87.6677H87.5305H87.3932H87.2559H87.1186H86.9813H86.844H86.7067H86.5695H86.4321H86.2949H86.1575H86.0203H85.8829H85.7457H85.6083H85.4711H85.3337H85.1965H85.0591H84.9219H84.7846H84.6473H84.51H84.3727H84.2354H84.0981H83.9608H83.8235H83.6862H83.5489H83.4117H83.2743H83.1371H82.9998H82.8625H82.7252H82.5879H82.4506H82.3133H82.176H82.0387H81.9014H81.7642H81.6268H81.4896H81.3522H81.215H81.0776H80.9404H80.803H80.6658H80.5284H80.3912H80.2538H80.1166H79.9793H79.842H79.7047H79.5674H79.4301H79.2928H79.1556H79.0182H78.881H78.7436H78.6064H78.469H78.3318H78.1946H78.0573H77.92H77.7827H77.6454H77.5081H77.3708H77.2335H77.0962H76.9589H76.8216H76.6843H76.547H76.4098H76.2724H76.1352H75.9978H75.8606H75.7232H75.586H75.4488H75.3114H75.1742H75.0368H74.8995H74.7622H74.4674V67.5153C74.5636 67.5978 74.6621 67.6792 74.7622 67.76C74.8076 67.7967 74.8534 67.8332 74.8995 67.8694C74.9449 67.9051 74.9906 67.9408 75.0368 67.9762C75.0824 68.011 75.1279 68.0459 75.1742 68.0805C75.2194 68.1143 75.2655 68.1477 75.3114 68.1812C75.3568 68.2142 75.4027 68.2471 75.4488 68.2798C75.4942 68.3121 75.5398 68.3443 75.586 68.3763L75.7232 68.4702C75.7686 68.5009 75.8146 68.5313 75.8606 68.5616L75.9978 68.6511C76.0433 68.6805 76.089 68.7098 76.1352 68.7388C76.1805 68.7673 76.2265 68.7955 76.2724 68.8238L76.4098 68.9072C76.4554 68.9346 76.501 68.9619 76.547 68.9889C76.5924 69.0155 76.6383 69.0417 76.6843 69.068L76.8216 69.1461L76.9589 69.222L77.0962 69.2963C77.1418 69.3207 77.1873 69.3453 77.2335 69.3694C77.2788 69.3932 77.3249 69.4165 77.3708 69.44L77.5081 69.5097L77.6454 69.5779L77.7827 69.6442C77.8284 69.6661 77.8739 69.6882 77.92 69.7098L78.0573 69.7731L78.1946 69.8359L78.3318 69.8966L78.469 69.9565L78.6064 70.015L78.7436 70.0722L78.881 70.1285L79.0182 70.1831L79.1556 70.2373L79.2928 70.2895C79.3385 70.3068 79.384 70.3243 79.4301 70.3414L79.5674 70.3914C79.6131 70.4081 79.6586 70.425 79.7047 70.4414C79.7501 70.4576 79.7963 70.4732 79.842 70.4891L79.9793 70.537L80.1166 70.5829C80.1623 70.5981 80.2077 70.6137 80.2538 70.6288C80.2992 70.6437 80.3454 70.658 80.3912 70.6727L80.5284 70.7167L80.6658 70.7588L80.803 70.8009L80.9404 70.8413L81.0776 70.8814L81.215 70.9203L81.3522 70.9587L81.4896 70.9961L81.6268 71.0326L81.7642 71.0686L81.9014 71.1035L82.0387 71.138L82.176 71.1712L82.3133 71.2045L82.4506 71.2361L82.5879 71.2676L82.7252 71.2981L82.8625 71.328L82.9998 71.3575L83.1371 71.3858L83.2743 71.4141L83.4117 71.441L83.5489 71.4678L83.6862 71.4938L83.8235 71.519L83.9608 71.5441L84.0981 71.5679L84.2354 71.5916L84.3727 71.6145L84.51 71.6368L84.6473 71.6589L84.7846 71.6797L84.9219 71.7007L85.0591 71.7207L85.1965 71.7402L85.3337 71.7596L85.4711 71.7777L85.6083 71.7958L85.7457 71.8133L85.8829 71.8301L86.0203 71.8469L86.1575 71.8626L86.2949 71.878L86.4321 71.8934L86.5695 71.9075L86.7067 71.9216L86.844 71.9353L86.9813 71.9482L87.1186 71.961L87.2559 71.9731L87.3932 71.9847L87.5305 71.9963L87.6677 72.0069L87.805 72.0173L87.9423 72.0278L88.0797 72.037L88.2169 72.0462L88.3543 72.0553L88.4915 72.0633L88.6289 72.0713L88.7661 72.0791L88.9035 72.0859L89.0407 72.0927L89.178 72.0994L89.3153 72.105L89.4526 72.1107L89.5899 72.1161L89.7272 72.1207L89.8645 72.1253L90.0018 72.1297L90.1391 72.1331L90.2764 72.1365L90.4136 72.14L90.551 72.1423L90.6882 72.1446L90.8256 72.147L90.9628 72.1484L91.1002 72.1496L91.2374 72.1509L91.3746 72.1515L91.512 72.1517L91.6493 72.1519L91.7866 72.1516L91.9238 72.1508L92.0612 72.15L92.1986 72.1488L92.3358 72.147L92.4732 72.1452L92.6104 72.1434L92.7476 72.1405L92.885 72.1378L93.0222 72.1349L93.1596 72.1314L93.2968 72.1277L93.4342 72.1238L93.5714 72.1197L93.7087 72.1149L93.846 72.1102L93.9833 72.1054L94.1206 72.0998L94.2579 72.0941L94.3952 72.0884L94.4623 72.0855L94.5325 72.0821L94.6698 72.0755L94.8071 72.0682L94.9443 72.0607L95.0817 72.0524L95.2189 72.0439L95.3563 72.0347L95.4935 72.0254L95.6309 72.0153L95.7681 72.005L95.9055 71.9941L96.0427 71.9829L96.1799 71.9712L96.3173 71.9591L96.4547 71.9467L96.5919 71.9337L96.7293 71.9206L96.8665 71.9068L97.0039 71.893L97.1411 71.8785L97.2783 71.8638L97.4157 71.8486L97.5529 71.8331L97.6903 71.8173L97.8275 71.8011L97.9649 71.7846L98.1021 71.7678L98.2395 71.7506L98.3767 71.733L98.514 71.7154L98.6513 71.697L98.7886 71.6786L98.9259 71.6598L99.0632 71.6407L99.2005 71.6213L99.3378 71.6015L99.4751 71.5816L99.6124 71.5611L99.7496 71.5405L99.887 71.5196L100.024 71.4983L100.162 71.4768L100.299 71.4549L100.436 71.4329L100.573 71.4106L100.711 71.3878L100.848 71.3649L100.985 71.3417L101.123 71.3183L101.26 71.2945L101.397 71.2704L101.535 71.246L101.672 71.2214L101.809 71.1966L101.946 71.1716L102.084 71.1462L102.221 71.1204L102.358 71.0945L102.496 71.0683L102.633 71.0418L102.77 71.0151L102.907 70.9881L103.045 70.9609L103.182 70.9333L103.319 70.9055L103.457 70.8774L103.594 70.8489L103.731 70.8203L103.868 70.7915L104.006 70.7621L104.143 70.7328L104.28 70.7029L104.418 70.6728L104.555 70.6424L104.692 70.6118L104.829 70.5807L104.967 70.5493L105.104 70.5175L105.241 70.4853L105.379 70.4527L105.516 70.4197L105.653 70.386V64.3638L105.516 64.4317L105.379 64.4994L105.241 64.5665L105.104 64.633L104.967 64.6991L104.829 64.7643L104.692 64.8288L104.555 64.8928L104.418 64.956L104.28 65.0186L104.143 65.0805L104.006 65.1417L103.868 65.2021L103.731 65.2618L103.594 65.3209L103.457 65.3792L103.319 65.4368L103.182 65.4938L103.045 65.5498L102.907 65.6052L102.77 65.6598L102.633 65.7138L102.496 65.7668L102.358 65.8192L102.221 65.8706L102.084 65.9214L101.946 65.9714L101.809 66.0207L101.672 66.0693L101.535 66.117L101.397 66.1638L101.26 66.2099L101.123 66.2553L100.985 66.2999L100.848 66.3437L100.711 66.3868L100.573 66.4289L100.436 66.4704L100.299 66.5111L100.162 66.551L100.024 66.5902L99.887 66.6283L99.7496 66.6659L99.6124 66.7027L99.4751 66.7387L99.3378 66.7739L99.2005 66.8083L99.0632 66.8419L98.9259 66.8749L98.7886 66.907L98.6513 66.9382L98.514 66.9689L98.3767 66.9987L98.2395 67.0277L98.1021 67.0559L97.9649 67.0834L97.8275 67.1103L97.6903 67.1362L97.5529 67.1613L97.4157 67.1858L97.2783 67.2096L97.1411 67.2324L97.0039 67.2546L96.8665 67.2762L96.7293 67.2969L96.5919 67.3168L96.4547 67.3361L96.3173 67.3546L96.1799 67.3723L96.0427 67.3893L95.9055 67.4057L95.7681 67.4212L95.6309 67.436L95.4935 67.4503L95.3563 67.4635L95.2189 67.4762L95.0817 67.4883L94.9443 67.4995L94.8611 67.5061L94.8071 67.5097L94.6698 67.5189L94.5325 67.5281L94.3952 67.5354L94.2579 67.5424L94.1206 67.5488L93.9833 67.5532L93.846 67.5577L93.7087 67.5606L93.5714 67.5627L93.4342 67.5644C93.3881 67.5646 93.3427 67.564 93.2968 67.5639L93.1596 67.5635L93.0222 67.5614L92.885 67.5585L92.7476 67.5549C92.7016 67.5534 92.6561 67.5512 92.6104 67.5493C92.5647 67.5475 92.5186 67.546 92.4732 67.5438L92.3358 67.5361L92.1986 67.5279L92.0612 67.5185L91.9238 67.5075C91.8781 67.5038 91.8321 67.5006 91.7866 67.4964C91.7406 67.4922 91.6951 67.4872 91.6493 67.4826L91.512 67.4688L91.3746 67.4529L91.2374 67.4363L91.1002 67.4181L90.9628 67.3987C90.917 67.392 90.871 67.3855 90.8256 67.3783C90.7795 67.3711 90.7339 67.3633 90.6882 67.3556C90.6425 67.348 90.5963 67.3409 90.551 67.3328C90.5048 67.3246 90.4594 67.3157 90.4136 67.3071C90.3679 67.2986 90.3217 67.2905 90.2764 67.2815C90.2302 67.2724 90.185 67.2623 90.1391 67.2528C90.0933 67.2432 90.0473 67.234 90.0018 67.224C89.9557 67.2138 89.9101 67.203 89.8645 67.1924L89.7272 67.1602C89.6811 67.149 89.6355 67.1372 89.5899 67.1256C89.544 67.1138 89.4981 67.1022 89.4526 67.09C89.4065 67.0777 89.3609 67.0649 89.3153 67.0521C89.2694 67.0392 89.2235 67.0264 89.178 67.0129C89.1319 66.9994 89.0863 66.9854 89.0407 66.9714C88.9948 66.9572 88.949 66.9431 88.9035 66.9285C88.8574 66.9137 88.8117 66.8985 88.7661 66.8832C88.7203 66.8678 88.6743 66.8525 88.6289 66.8366C88.5827 66.8206 88.5373 66.8038 88.4915 66.7872C88.4457 66.7705 88.3997 66.754 88.3543 66.7368C88.3081 66.7192 88.2627 66.701 88.2169 66.6829C88.1711 66.6648 88.1251 66.6469 88.0797 66.6283C88.0334 66.6093 87.9881 66.5894 87.9423 66.5698C87.8964 66.5501 87.8504 66.5306 87.805 66.5103C87.7588 66.4897 87.7133 66.4683 87.6677 66.4471C87.6218 66.4257 87.5759 66.4043 87.5305 66.3825C87.4845 66.3601 87.4386 66.3375 87.3932 66.3146C87.3471 66.2913 87.3014 66.2678 87.2559 66.244C87.21 66.2199 87.1638 66.1961 87.1186 66.1714C87.0723 66.1462 87.0269 66.1203 86.9813 66.0944C86.9354 66.0683 86.8893 66.0424 86.844 66.0156C86.7978 65.9884 86.7522 65.9606 86.7067 65.9328C86.6605 65.9046 86.6149 65.8756 86.5695 65.8467C86.5235 65.8174 86.4773 65.7883 86.4321 65.7583C86.3857 65.7276 86.3405 65.6958 86.2949 65.6643C86.2487 65.6324 86.2029 65.6 86.1575 65.5673C86.1115 65.5342 86.0654 65.5011 86.0203 65.4671C85.9739 65.4323 85.9284 65.3966 85.8829 65.361C85.8368 65.3248 85.791 65.2883 85.7457 65.2513C85.6996 65.2136 85.6535 65.1761 85.6083 65.1375C85.5619 65.0979 85.5164 65.0575 85.4711 65.0169C85.4247 64.9756 85.3791 64.9337 85.3337 64.8913C85.2876 64.8481 85.2416 64.8046 85.1965 64.7606C85.1503 64.7155 85.1041 64.6704 85.0591 64.6242C85.0126 64.5766 84.9671 64.528 84.9219 64.4793C84.8754 64.4293 84.8298 64.3786 84.7846 64.3274C84.7381 64.2748 84.6923 64.2216 84.6473 64.1679C84.6009 64.1125 84.5551 64.0566 84.51 64C84.4635 63.9415 84.4176 63.8823 84.3727 63.8223C84.3262 63.7604 84.2802 63.6979 84.2354 63.6344C84.1888 63.5685 84.1429 63.5019 84.0981 63.4343C84.0514 63.3638 84.0056 63.2925 83.9608 63.2205C83.9139 63.1448 83.8682 63.0682 83.8235 62.9909C83.7764 62.9094 83.7308 62.8267 83.6862 62.7433C83.6389 62.6548 83.5933 62.565 83.5489 62.4744C83.5016 62.3778 83.4558 62.2799 83.4117 62.1809C83.3642 62.0744 83.3181 61.9669 83.2743 61.8576C83.226 61.7367 83.1808 61.6135 83.1371 61.4891C83.0886 61.3512 83.0427 61.2116 82.9998 61.0694C82.9502 60.9046 82.9043 60.7371 82.8625 60.5667C82.8105 60.3548 82.7651 60.1383 82.7252 59.9178C82.666 59.5909 82.62 59.255 82.5879 58.9099C82.5509 58.5114 82.532 58.1008 82.532 57.6784C82.532 57.2558 82.5509 56.845 82.5879 56.4462C82.62 56.101 82.666 55.7649 82.7252 55.4378C82.7651 55.2173 82.8105 55.0005 82.8625 54.7884C82.9043 54.618 82.9502 54.4505 82.9998 54.2856C83.0427 54.1434 83.0886 54.0036 83.1371 53.8656C83.1808 53.7412 83.226 53.618 83.2743 53.497C83.3181 53.3876 83.3642 53.2801 83.4117 53.1735C83.4558 53.0744 83.5016 52.9765 83.5489 52.88C83.5933 52.7892 83.6389 52.6993 83.6862 52.6109C83.7308 52.5274 83.7764 52.4447 83.8235 52.3631C83.8682 52.2857 83.9139 52.209 83.9608 52.1334C84.0056 52.0612 84.0514 51.9899 84.0981 51.9194C84.1429 51.8519 84.1888 51.7853 84.2354 51.7192C84.2802 51.6558 84.3262 51.5933 84.3727 51.5312C84.4176 51.4713 84.4635 51.4122 84.51 51.3535C84.5551 51.2969 84.6009 51.241 84.6473 51.1856C84.6923 51.1318 84.7381 51.0786 84.7846 51.026C84.8298 50.9748 84.8754 50.9239 84.9219 50.8739C84.9671 50.8253 85.0126 50.7766 85.0591 50.729C85.1041 50.6828 85.1503 50.6376 85.1965 50.5925C85.2416 50.5484 85.2876 50.5049 85.3337 50.4618C85.3791 50.4195 85.4247 50.3774 85.4711 50.336C85.5164 50.2956 85.5619 50.2551 85.6083 50.2154C85.6535 50.1769 85.6996 50.1394 85.7457 50.1017C85.791 50.0647 85.8368 50.0281 85.8829 49.9919C85.9284 49.9561 85.9739 49.9205 86.0203 49.8856C86.0654 49.8517 86.1115 49.8185 86.1575 49.7854C86.2029 49.7526 86.2487 49.7205 86.2949 49.6885C86.3405 49.6569 86.3857 49.6252 86.4321 49.5944C86.4773 49.5643 86.5235 49.5352 86.5695 49.5059C86.6149 49.4769 86.6605 49.4481 86.7067 49.4198C86.7522 49.3919 86.7978 49.3642 86.844 49.337C86.8893 49.3103 86.9354 49.2843 86.9813 49.2582C87.0269 49.2324 87.0723 49.2064 87.1186 49.1812C87.1638 49.1565 87.21 49.1326 87.2559 49.1086C87.3014 49.0848 87.3471 49.0612 87.3932 49.0379C87.4386 49.0151 87.4845 48.9924 87.5305 48.9701C87.5759 48.9481 87.6218 48.9267 87.6677 48.9053C87.7133 48.8841 87.7588 48.8627 87.805 48.8421C87.8504 48.8218 87.8964 48.8023 87.9423 48.7826C87.9881 48.7629 88.0334 48.7431 88.0797 48.7241C88.1251 48.7054 88.1711 48.6875 88.2169 48.6694C88.2627 48.6513 88.3081 48.6331 88.3543 48.6155C88.3997 48.5983 88.4457 48.5818 88.4915 48.5651C88.5373 48.5485 88.5827 48.5317 88.6289 48.5155C88.6743 48.4997 88.7203 48.4843 88.7661 48.469C88.8117 48.4537 88.8574 48.4384 88.9035 48.4236C88.949 48.4091 88.9948 48.3949 89.0407 48.3808C89.0863 48.3668 89.1319 48.3529 89.178 48.3394L89.3153 48.3002C89.3609 48.2874 89.4065 48.2744 89.4526 48.2621C89.4981 48.25 89.544 48.2383 89.5899 48.2266C89.6355 48.215 89.6811 48.2031 89.7272 48.192L89.8645 48.1598C89.9101 48.1492 89.9557 48.1383 90.0018 48.1282C90.0473 48.1182 90.0933 48.1088 90.1391 48.0993C90.185 48.0897 90.2302 48.0797 90.2764 48.0706C90.3217 48.0616 90.3679 48.0535 90.4136 48.045C90.4594 48.0364 90.5048 48.0274 90.551 48.0192C90.5963 48.0111 90.6425 48.0041 90.6882 47.9964C90.7339 47.9888 90.7795 47.9809 90.8256 47.9738L90.9628 47.9534L91.1002 47.9338L91.2374 47.9157L91.3746 47.8991L91.512 47.8831L91.6493 47.8693C91.6951 47.8648 91.7406 47.8598 91.7866 47.8556C91.8321 47.8513 91.8781 47.8482 91.9238 47.8444L92.0612 47.8335L92.1986 47.824L92.3358 47.8158L92.4732 47.8082C92.5186 47.8059 92.5647 47.8044 92.6104 47.8026C92.6561 47.8008 92.7016 47.7985 92.7476 47.797L92.885 47.7935L93.0222 47.7905L93.1596 47.7885L93.2968 47.788C93.3427 47.7879 93.3881 47.7873 93.4342 47.7876L93.5714 47.7893L93.7087 47.7913L93.846 47.7943L93.9833 47.7987L94.1206 47.8032L94.2579 47.8096L94.3952 47.8165L94.5325 47.8239L94.6698 47.833L94.8071 47.8422L94.8611 47.8459L94.9443 47.8525L95.0817 47.8634L95.2189 47.8753L95.3563 47.8878L95.4935 47.9009L95.6309 47.9149L95.7681 47.9296L95.9055 47.9448L96.0427 47.9609L96.1799 47.9778L96.3173 47.9952L96.4547 48.0134L96.5919 48.0325L96.7293 48.0521L96.8665 48.0725L97.0039 48.0938L97.1411 48.1158L97.2783 48.1383L97.4157 48.1619L97.5529 48.1862L97.6903 48.2111L97.8275 48.2367L97.9649 48.2633L98.1021 48.2905L98.2395 48.3185L98.3767 48.3473L98.514 48.3769L98.6513 48.4073L98.7886 48.4383L98.9259 48.4702L99.0632 48.503L99.2005 48.5365L99.3378 48.5707L99.4751 48.6057L99.6124 48.6416L99.7496 48.6782L99.887 48.7156L100.024 48.7539L100.162 48.7929L100.299 48.8327L100.436 48.8734L100.573 48.9148L100.711 48.957L100.848 48.9999L100.985 49.0438L101.123 49.0884L101.26 49.1338L101.397 49.1801L101.535 49.227L101.672 49.2747L101.809 49.3235L101.946 49.3729L102.084 49.423L102.221 49.474L102.358 49.5258L102.496 49.5785L102.633 49.6318L102.77 49.6859L102.907 49.7408L103.045 49.7964L103.182 49.8529L103.319 49.9102L103.457 49.9682L103.594 50.027L103.731 50.0864L103.868 50.1466L104.006 50.2075L104.143 50.2692L104.28 50.3316L104.418 50.3947L104.555 50.4585L104.692 50.5231L104.829 50.5882L104.967 50.654L105.104 50.7205L105.241 50.7877L105.379 50.8555L105.516 50.9239L105.653 50.9925V44.966L105.516 44.9323L105.379 44.8992L105.241 44.8667L105.104 44.8344L104.967 44.8027L104.829 44.7714L104.692 44.7403L104.555 44.7095L104.418 44.6792L104.28 44.649L104.143 44.6193L104.006 44.5899L103.868 44.5605L103.731 44.5317L103.594 44.5031L103.457 44.4748L103.319 44.4467L103.182 44.4189L103.045 44.3913L102.907 44.3641L102.77 44.3372L102.633 44.3103L102.496 44.2839L102.358 44.2577L102.221 44.2319L102.084 44.2062L101.946 44.1808L101.809 44.1558L101.672 44.131L101.535 44.1064L101.397 44.0821L101.26 44.0581L101.123 44.0343L100.985 44.0109L100.848 43.9877L100.711 43.9648L100.573 43.9421L100.436 43.9198L100.299 43.8978L100.162 43.876L100.024 43.8546L99.887 43.8333L99.7496 43.8124L99.6124 43.7918L99.4751 43.7714L99.3378 43.7515L99.2005 43.7318L99.0632 43.7124L98.9259 43.6934L98.7886 43.6746L98.6513 43.6562L98.514 43.6379L98.3767 43.6203L98.2395 43.6027L98.1021 43.5855L97.9649 43.5687L97.8275 43.5523L97.6903 43.5362L97.5529 43.5204L97.4157 43.505L97.2783 43.4899L97.1411 43.4753L97.0039 43.4608L96.8665 43.4471L96.7293 43.4334L96.5919 43.4202L96.4547 43.4073L96.3173 43.395L96.1799 43.3829L96.0427 43.3713L95.9055 43.3602L95.7681 43.3493L95.6309 43.3392L95.4935 43.3291L95.3563 43.3198L95.2189 43.3106L95.0817 43.3023L94.9443 43.2941L94.8071 43.2866L94.6698 43.2794L94.5325 43.2728L94.4623 43.2695L94.3952 43.2667L94.2579 43.261L94.1206 43.2553L93.9833 43.2496L93.846 43.2448L93.7087 43.2401L93.5714 43.2353L93.4342 43.2312L93.2968 43.2274L93.1596 43.2236L93.0222 43.2201L92.885 43.2172L92.7476 43.2145L92.6104 43.2117L92.4732 43.2098L92.3358 43.208L92.1986 43.2062L92.0612 43.205L91.9238 43.2044L91.7866 43.2036L91.6493 43.2032L91.512 43.2035L91.3746 43.2037L91.2374 43.2041L91.1002 43.2054L90.9628 43.2068L90.8256 43.2081L90.6882 43.2105L90.551 43.2128L90.4136 43.2152L90.2764 43.2186L90.1391 43.222L90.0018 43.2254L89.8645 43.2299L89.7272 43.2344L89.5899 43.239L89.4526 43.2446L89.3153 43.2503L89.178 43.2558L89.0407 43.2626L88.9035 43.2694L88.7661 43.2761L88.6289 43.284L88.4915 43.2919L88.3543 43.2999L88.2169 43.309L88.0797 43.3183L87.9423 43.3275L87.805 43.338L87.6677 43.3483L87.5305 43.359L87.3932 43.3706L87.2559 43.3821L87.1186 43.3943L86.9813 43.4072L86.844 43.4201L86.7067 43.4337L86.5695 43.448L86.4321 43.4621L86.2949 43.4775L86.1575 43.4928L86.0203 43.5086L85.8829 43.5254L85.7457 43.5422L85.6083 43.5598L85.4711 43.5779L85.3337 43.596L85.1965 43.6154L85.0591 43.6349L84.9219 43.6549L84.7846 43.6759L84.6473 43.6967L84.51 43.7188L84.3727 43.7412L84.2354 43.7641L84.0981 43.7878L83.9608 43.8116L83.8235 43.8367L83.6862 43.8621L83.5489 43.888L83.4117 43.9148L83.2743 43.9417L83.1371 43.97L82.9998 43.9984L82.8625 44.0278L82.7252 44.0577L82.5879 44.0883L82.4506 44.1198L82.3133 44.1515L82.176 44.1847L82.0387 44.218L81.9014 44.2525L81.7642 44.2874L81.6268 44.3234L81.4896 44.3601L81.3522 44.3975L81.215 44.4358L81.0776 44.4748L80.9404 44.515L80.803 44.5554L80.6658 44.5974L80.5284 44.6397L80.3912 44.6837C80.3454 44.6983 80.2992 44.7127 80.2538 44.7276L80.1166 44.7735C80.0709 44.7888 80.0247 44.8038 79.9793 44.8194L79.842 44.8672L79.7047 44.9151C79.6586 44.9315 79.6131 44.9484 79.5674 44.9651C79.5216 44.9817 79.4755 44.9981 79.4301 45.0151L79.2928 45.0671C79.247 45.0845 79.2009 45.1016 79.1556 45.1193L79.0182 45.1735L78.881 45.2282L78.7436 45.2845L78.6064 45.3417L78.469 45.4002L78.3318 45.4601L78.1946 45.521L78.0573 45.5837L77.92 45.647C77.8739 45.6687 77.8284 45.6908 77.7827 45.7126L77.6454 45.779L77.5081 45.8473L77.3708 45.917C77.3249 45.9405 77.2788 45.9639 77.2335 45.9877C77.1873 46.0118 77.1418 46.0364 77.0962 46.0609L76.9589 46.1352L76.8216 46.2111C76.7755 46.237 76.7299 46.2631 76.6843 46.2893C76.6383 46.3156 76.5924 46.3418 76.547 46.3684C76.501 46.3954 76.4554 46.4227 76.4098 46.4501C76.3636 46.4777 76.3179 46.5056 76.2724 46.5337C76.2265 46.5619 76.1805 46.5901 76.1352 46.6186C76.089 46.6477 76.0433 46.677 75.9978 46.7063L75.8606 46.7959C75.8146 46.8264 75.7686 46.8565 75.7232 46.8873L75.586 46.9814C75.5398 47.0134 75.4942 47.0456 75.4488 47.0778C75.4027 47.1105 75.3568 47.1434 75.3114 47.1766C75.2655 47.21 75.2194 47.2434 75.1742 47.2772C75.1279 47.3119 75.0824 47.3467 75.0368 47.3817C74.9906 47.4171 74.9449 47.4527 74.8995 47.4885C74.8534 47.5247 74.8076 47.561 74.7622 47.5977Z" fill="#CA4638"/>
</g>
<defs>
<clipPath id="clip0_486_6710">
<rect width="183.389" height="115" fill="white" transform="translate(0.019165)"/>
</clipPath>
</defs>
</svg>
