<svg width="22" height="22" viewBox="0 0 22 22" fill="none" xmlns="http://www.w3.org/2000/svg">
<path fill-rule="evenodd" clip-rule="evenodd" d="M3.5 0.5C2.70435 0.5 1.94129 0.816071 1.37868 1.37868C0.816071 1.94129 0.5 2.70435 0.5 3.5V18.5C0.5 19.2956 0.816071 20.0587 1.37868 20.6213C1.94129 21.1839 2.70435 21.5 3.5 21.5H18.5C19.2956 21.5 20.0587 21.1839 20.6213 20.6213C21.1839 20.0587 21.5 19.2956 21.5 18.5V3.5C21.5 2.70435 21.1839 1.94129 20.6213 1.37868C20.0587 0.816071 19.2956 0.5 18.5 0.5H3.5ZM5.153 6.9455C5.6284 6.9455 6.08433 6.75665 6.42049 6.42049C6.75665 6.08433 6.9455 5.6284 6.9455 5.153C6.9455 4.6776 6.75665 4.22167 6.42049 3.88551C6.08433 3.54935 5.6284 3.3605 5.153 3.3605C4.6776 3.3605 4.22167 3.54935 3.88551 3.88551C3.54935 4.22167 3.3605 4.6776 3.3605 5.153C3.3605 5.6284 3.54935 6.08433 3.88551 6.42049C4.22167 6.75665 4.6776 6.9455 5.153 6.9455ZM6.653 18.2195V8.351H3.653V18.2195H6.653ZM8.645 8.351H11.645V9.6725C12.0875 8.9795 13.0595 8.0465 14.867 8.0465C17.024 8.0465 18.1955 9.476 18.1955 12.1955C18.1955 12.326 18.2075 12.9215 18.2075 12.9215V18.218H15.2075V12.923C15.2075 12.1955 15.0545 10.766 13.4375 10.766C11.819 10.766 11.6825 12.563 11.645 13.739V18.218H8.645V8.351Z" fill="#272343"/>
</svg>
