<svg width="162" height="115" viewBox="0 0 162 115" fill="none" xmlns="http://www.w3.org/2000/svg">
<mask id="mask0_486_6696" style="mask-type:luminance" maskUnits="userSpaceOnUse" x="36" y="23" width="90" height="69">
<path fill-rule="evenodd" clip-rule="evenodd" d="M36.8249 23H125.514V92H36.8249V23Z" fill="white"/>
</mask>
<g mask="url(#mask0_486_6696)">
<path fill-rule="evenodd" clip-rule="evenodd" d="M123.766 91.0645V91.2416H123.932C123.963 91.2422 123.993 91.2344 124.02 91.2192C124.042 91.2037 124.055 91.1781 124.054 91.1513C124.055 91.1249 124.042 91.0999 124.02 91.0852C123.994 91.0691 123.963 91.0614 123.932 91.0625H123.766V91.0645ZM123.933 90.9389C124.004 90.9346 124.075 90.955 124.132 90.9967C124.179 91.0349 124.205 91.0933 124.202 91.1536C124.204 91.2054 124.183 91.2557 124.146 91.2914C124.102 91.3299 124.046 91.3532 123.987 91.3575L124.209 91.6102H124.038L123.834 91.3592H123.768V91.6102H123.625V90.9395H123.936L123.933 90.9389ZM123.889 91.8416C123.964 91.8425 124.038 91.8273 124.107 91.7974C124.173 91.7689 124.233 91.7281 124.284 91.6772C124.335 91.6263 124.376 91.5662 124.405 91.4998C124.463 91.3592 124.463 91.2014 124.405 91.0608C124.376 90.9947 124.335 90.9346 124.284 90.8834C124.233 90.8325 124.173 90.7917 124.107 90.7632C124.038 90.735 123.964 90.7207 123.889 90.7215C123.813 90.721 123.738 90.735 123.667 90.7632C123.6 90.7911 123.538 90.8319 123.486 90.8834C123.326 91.0476 123.279 91.2928 123.368 91.5044C123.395 91.5708 123.435 91.6312 123.486 91.6818C123.538 91.733 123.6 91.7738 123.667 91.802C123.738 91.8319 123.813 91.8468 123.889 91.8462M123.889 90.5602C124.084 90.56 124.271 90.6364 124.41 90.773C124.477 90.8385 124.531 90.9167 124.567 91.0033C124.644 91.1821 124.644 91.3851 124.567 91.5642C124.53 91.6499 124.476 91.7281 124.41 91.7942C124.342 91.8595 124.263 91.9121 124.177 91.9494C124.086 91.988 123.988 92.0078 123.889 92.0072C123.789 92.0078 123.69 91.9883 123.598 91.9494C123.511 91.9129 123.431 91.8603 123.363 91.7942C123.297 91.7258 123.244 91.645 123.208 91.5567C123.132 91.3776 123.132 91.1746 123.208 90.9955C123.245 90.9093 123.298 90.8311 123.365 90.7655C123.432 90.6982 123.512 90.6456 123.6 90.6103C123.692 90.5715 123.792 90.5519 123.891 90.5528M55.9888 87.969C55.9888 86.6899 56.8271 85.6388 58.1968 85.6388C59.5058 85.6388 60.3893 86.6445 60.3893 87.969C60.3893 89.2938 59.5058 90.2995 58.1968 90.2995C56.8271 90.2995 55.9888 89.2484 55.9888 87.969ZM61.8814 87.969V84.3284H60.2987V85.2153C59.7967 84.5598 59.0354 84.149 57.9998 84.149C55.96 84.149 54.3592 85.7489 54.3592 87.971C54.3592 90.1931 55.9592 91.793 57.9998 91.793C59.0348 91.793 59.7967 91.3813 60.2987 90.7264V91.6102H61.8797V87.969H61.8814ZM115.357 87.969C115.357 86.6899 116.195 85.6388 117.566 85.6388C118.876 85.6388 119.758 86.6445 119.758 87.969C119.758 89.2938 118.876 90.2995 117.566 90.2995C116.196 90.2995 115.357 89.2484 115.357 87.969ZM121.252 87.969V81.4062H119.667V85.2153C119.165 84.5598 118.404 84.149 117.369 84.149C115.329 84.149 113.728 85.7489 113.728 87.971C113.728 90.1931 115.328 91.793 117.369 91.793C118.404 91.793 119.165 91.3813 119.667 90.7264V91.6102H121.252V87.969ZM81.5242 85.5638C82.544 85.5638 83.1992 86.2035 83.3663 87.3293H79.5899C79.759 86.2782 80.3967 85.5638 81.5242 85.5638ZM81.5562 84.145C79.4232 84.145 77.9311 85.6969 77.9311 87.967C77.9311 90.2814 79.483 91.789 81.6622 91.789C82.7582 91.789 83.7624 91.5153 84.6456 90.769L83.87 89.5963C83.2599 90.0839 82.4831 90.3576 81.7525 90.3576C80.7328 90.3576 79.8041 89.8852 79.5759 88.5748H84.98C84.9955 88.3781 85.0113 88.1795 85.0113 87.9664C84.9955 85.6975 83.5925 84.1444 81.5553 84.1444M100.663 87.9664C100.663 86.687 101.501 85.6362 102.871 85.6362C104.18 85.6362 105.064 86.6419 105.064 87.9664C105.064 89.2909 104.18 90.2969 102.871 90.2969C101.501 90.2969 100.663 89.2458 100.663 87.9664M106.555 87.9664V84.3284H104.974V85.2153C104.47 84.5598 103.71 84.149 102.675 84.149C100.635 84.149 99.0341 85.7489 99.0341 87.971C99.0341 90.1931 100.634 91.793 102.675 91.793C103.71 91.793 104.47 91.3813 104.974 90.7264V91.6102H106.556V87.969L106.555 87.9664ZM91.7256 87.9664C91.7256 90.1744 93.2626 91.7884 95.6086 91.7884C96.7045 91.7884 97.4351 91.5446 98.2248 90.9208L97.4647 89.6414C96.8704 90.0683 96.2465 90.2969 95.558 90.2969C94.2944 90.2814 93.3655 89.3677 93.3655 87.9664C93.3655 86.5651 94.2944 85.652 95.558 85.6362C96.2448 85.6362 96.8687 85.8645 97.4647 86.2915L98.2248 85.0124C97.4336 84.3882 96.7034 84.1444 95.6086 84.1444C93.2626 84.1444 91.7256 85.7581 91.7256 87.9664ZM112.129 84.1444C111.216 84.1444 110.621 84.5713 110.21 85.211V84.3284H108.641V91.6062H110.226V87.5265C110.226 86.3222 110.743 85.6529 111.778 85.6529C112.117 85.648 112.453 85.7104 112.767 85.836L113.255 84.3445C112.905 84.2065 112.448 84.1458 112.128 84.1458M69.706 84.9071C68.9447 84.4052 67.8953 84.1458 66.7381 84.1458C64.8941 84.1458 63.707 85.0296 63.707 86.4757C63.707 87.6622 64.5908 88.3945 66.2183 88.6228L66.9658 88.7292C67.8338 88.8511 68.2435 89.0796 68.2435 89.4905C68.2435 90.0534 67.667 90.3745 66.5846 90.3745C65.4884 90.3745 64.6972 90.0241 64.1638 89.6129L63.4201 90.8472C64.288 91.4866 65.3843 91.7916 66.5714 91.7916C68.6733 91.7916 69.8914 90.8017 69.8914 89.416C69.8914 88.1366 68.9326 87.4676 67.3488 87.2393L66.6027 87.1309C65.9176 87.0424 65.3688 86.9044 65.3688 86.4165C65.3688 85.8846 65.8863 85.5644 66.7545 85.5644C67.6834 85.5644 68.5827 85.9145 69.0235 86.1882L69.7086 84.9089L69.706 84.9071ZM90.1271 84.147C89.214 84.147 88.6195 84.5742 88.2101 85.2136V84.3284H86.6415V91.6062H88.2241V87.5265C88.2241 86.3222 88.7416 85.6529 89.7764 85.6529C90.115 85.648 90.4514 85.7104 90.7659 85.836L91.2538 84.3445C90.9036 84.2065 90.4468 84.1458 90.1262 84.1458M76.6215 84.3284H74.0334V82.1207H72.4335V84.3284H70.9575V85.7751H72.4335V89.0951C72.4335 90.7836 73.089 91.7893 74.9612 91.7893C75.648 91.7893 76.4392 91.5766 76.9412 91.2267L76.4841 89.8714C76.0117 90.1451 75.4942 90.2831 75.0828 90.2831C74.2916 90.2831 74.0334 89.7952 74.0334 89.065V85.7762H76.6215V84.3284ZM52.9597 91.6082V87.0407C52.9597 85.3206 51.8634 84.1631 50.0965 84.1476C49.1673 84.132 48.209 84.4213 47.5383 85.4425C47.0363 84.6355 46.2451 84.1476 45.1331 84.1476C44.3557 84.1476 43.5961 84.3758 43.0013 85.2283V84.3284H41.4174V91.6062H43.0136V87.5708C43.0136 86.3075 43.7143 85.6362 44.7964 85.6362C45.8472 85.6362 46.3791 86.3213 46.3791 87.555V91.6053H47.979V87.57C47.979 86.3067 48.7093 85.6354 49.7598 85.6354C50.8405 85.6354 51.3563 86.3205 51.3563 87.5542V91.6044L52.9597 91.6082Z" fill="#231F20"/>
<path fill-rule="evenodd" clip-rule="evenodd" d="M124.669 67.3988V66.3345H124.392L124.071 67.0647L123.752 66.3345H123.474V67.3988H123.671V66.597L123.971 67.2887H124.175L124.474 66.5952V67.3988H124.67H124.669ZM122.91 67.3988V66.5167H123.265V66.3371H122.359V66.5167H122.714V67.3988H122.91Z" fill="#F79410"/>
<path fill-rule="evenodd" clip-rule="evenodd" d="M93.1677 71.963H69.1836V28.8601H93.1683L93.1677 71.963Z" fill="#FF5F00"/>
<path fill-rule="evenodd" clip-rule="evenodd" d="M70.7042 50.4126C70.7042 41.6691 74.7982 33.8805 81.1729 28.861C76.3484 25.0568 70.3779 22.9908 64.234 23C49.096 23 36.8249 35.2728 36.8249 50.4126C36.8249 65.552 49.096 77.8248 64.234 77.8248C70.3779 77.834 76.3487 75.7681 81.1735 71.9639C74.799 66.9453 70.7042 59.1563 70.7042 50.4126Z" fill="#EB001B"/>
<path fill-rule="evenodd" clip-rule="evenodd" d="M125.525 50.4126C125.525 65.552 113.254 77.8248 98.1161 77.8248C91.9714 77.8338 86 75.7681 81.1743 71.9639C87.5511 66.9444 91.6451 59.1563 91.6451 50.4126C91.6451 41.6686 87.5511 33.8805 81.1743 28.861C85.9997 25.0568 91.9711 22.9911 98.1156 23C113.254 23 125.525 35.2728 125.525 50.4126" fill="#F79410"/>
</g>
</svg>
