<svg width="28" height="28" viewBox="0 0 28 28" fill="none" xmlns="http://www.w3.org/2000/svg">
<path d="M12.3392 2.39059C11.1757 3.55177 11.0649 3.88353 11.6743 5.21059C12.173 6.31647 12.173 6.75883 11.6743 7.09059C11.2865 7.31177 11.1757 7.92 11.3973 8.41765C11.5635 8.9153 11.1757 10.2977 10.4 11.6247C9.67972 12.8965 8.95945 14.6106 8.73783 15.3847C8.4608 16.7671 8.4054 16.8224 5.4135 16.2694C0.704044 15.3847 0.593234 15.5506 0.75945 21.7988L0.925666 27.2177L9.5135 26.9965L18.1013 26.8306L22.6446 24.0659C25.1378 22.5729 27.354 21.1353 27.5203 20.8588C28.0743 19.9188 27.077 18.6471 25.8027 18.6471C24.6946 18.6471 24.473 18.3706 24.473 17.0435C24.473 16.2141 23.7527 14.0024 22.8108 12.2329C21.1486 8.9153 21.0378 8.03059 22.5338 9.24706C23.0324 9.68941 23.3649 9.68941 23.3649 9.35765C23.3649 9.02589 23.0878 8.58353 22.8108 8.41765C22.4784 8.25177 22.3676 7.42236 22.5892 6.59295C22.8662 5.21059 22.8108 5.1553 22.0905 6.0953C21.5919 6.70353 21.0932 6.86942 20.927 6.53765C20.7054 6.26118 20.8162 5.87412 21.1486 5.65294C22.0905 5.1 21.7581 3.66236 20.4838 2.28C18.7108 0.400003 14.2784 0.510592 12.3392 2.39059ZM18.7662 2.72236C18.6554 3.44118 18.323 4.43647 18.1013 4.93412C17.8797 5.54236 17.9351 5.92941 18.2676 5.92941C18.6 5.92941 19.0432 5.43177 19.2094 4.82353C19.3757 4.2153 19.9297 3.71765 20.3176 3.71765C20.9824 3.71765 20.9824 3.99412 20.4838 5.1C19.8743 6.42706 19.5973 6.53765 16.55 6.37177C14.1676 6.26118 13.0595 5.92941 12.6162 5.26589C11.6743 3.71765 12.8378 3.33059 14.0567 4.82353C14.9432 5.92941 15.054 5.98471 14.777 5.1C13.5581 1.72706 13.6135 1.50589 16.4392 1.50589C18.877 1.50589 19.0432 1.61647 18.7662 2.72236ZM20.8716 8.14118C20.7054 8.41765 18.8216 8.69412 16.7162 8.69412C14.6108 8.69412 12.727 8.41765 12.5608 8.14118C12.3392 7.80942 13.8351 7.58824 16.7162 7.58824C19.5973 7.58824 21.0932 7.80942 20.8716 8.14118ZM21.0378 10.74C22.5338 12.8412 23.9189 17.1541 23.5865 18.4812C23.254 19.6977 17.1594 21.9647 16.8824 21.0247C16.273 19.2553 14.9986 18.4259 12.5054 18.1494C10.123 17.8729 9.79053 17.6518 9.62431 16.4353C9.56891 15.6612 10.2338 13.7259 11.1757 12.1224L12.8378 9.24706H16.4392C19.6527 9.24706 20.0405 9.35765 21.0378 10.74ZM4.80404 21.6882V26.6647L3.3081 26.8306L1.75675 26.9965V21.6882V16.38L3.3081 16.5459L4.80404 16.7118V21.6882ZM9.29188 18.3153C9.90134 18.7577 11.5081 19.2 12.8932 19.3106C14.6662 19.4212 15.3865 19.7529 15.4973 20.4165C15.6635 21.1906 15.2757 21.4118 13.8351 21.4118C12.7824 21.4118 11.5081 21.7435 10.8986 22.1306C9.18107 23.4024 15.7743 22.6282 21.2594 20.8588C25.8027 19.4212 26.6892 19.3659 26.6892 20.3612C26.6892 20.5824 24.5838 22.02 22.0351 23.5682L17.3811 26.3882H11.5081H5.63513V21.9647C5.63513 17.7071 5.69053 17.5412 6.90945 17.5412C7.57431 17.5412 8.68242 17.8729 9.29188 18.3153Z" fill="white"/>
<path d="M15.2203 11.3483C13.7243 11.5695 11.1757 14.4447 11.1757 15.9377C11.1757 16.5459 11.4527 16.8777 11.7297 16.7118C12.0621 16.5459 12.2838 15.8824 12.2838 15.3295C12.2838 14.0024 14.8324 12.0118 16.4946 12.0118C17.1594 12.0118 18.4338 12.62 19.3203 13.3389C20.5946 14.4447 20.8716 15.1083 20.8162 16.9883C20.7608 18.4812 20.927 19.0342 21.204 18.5918C23.3094 15.2742 19.4865 10.6847 15.2203 11.3483Z" fill="white"/>
<path d="M17 15.4997L17 16.9997L18.5001 16.9999C18.7762 17 19 17.2238 19 17.5C19 17.7761 18.7761 18 18.5 18H16.5C16.2239 18 16 17.7761 16 17.5V15.4997C16 15.2235 16.2239 14.9997 16.5 14.9997C16.7761 14.9997 17 15.2235 17 15.4997Z" fill="white"/>
</svg>
