<svg width="24" height="30" viewBox="0 0 24 30" fill="none" xmlns="http://www.w3.org/2000/svg">
<path d="M6.75531 1.2047C5.62589 1.65646 3.93178 2.55999 2.91531 3.23764C1.95531 3.91529 1.16472 4.25411 1.16472 3.91529C1.16472 3.57646 0.882366 3.29411 0.543542 3.29411C0.204719 3.29411 0.035307 3.97176 0.148248 4.81881C0.261189 6.06117 0.656483 6.45646 1.89884 6.5694C2.7459 6.68234 3.42354 6.51293 3.42354 6.17411C3.42354 5.83529 3.14119 5.55293 2.80237 5.55293C1.56001 5.55293 3.08472 4.25411 5.90825 2.95529C10.5953 0.752933 15.6212 1.26117 19.6871 4.25411C20.7035 5.0447 21.72 5.55293 21.8894 5.38352C22.3977 4.81881 21.4941 3.91529 18.8965 2.39058C15.7906 0.58352 9.97413 0.0188146 6.75531 1.2047Z" fill="white"/>
<path d="M6.86831 6.51292C2.12478 8.88469 0.37419 16.2259 3.59301 20.4612C5.7389 23.2282 7.48948 24.3012 10.426 24.5835C15.2824 25.1482 19.5177 22.2682 20.986 17.4682C22.2283 13.2894 20.1954 8.43292 16.4118 6.5694C13.9271 5.32704 9.40948 5.27057 6.86831 6.51292ZM16.1295 7.75528C18.5012 9.0541 20.5342 13.12 20.1389 15.9435C19.4048 22.0423 12.1765 25.6565 7.37654 22.3247C3.19772 19.5012 2.01184 15.8306 3.87537 11.5953C6.07772 6.68234 11.2165 5.04469 16.1295 7.75528Z" fill="white"/>
<path d="M10.3694 11.1434C9.24002 13.1199 9.18355 13.4023 9.97414 14.5317C10.4259 15.1528 11.2165 15.7175 11.6683 15.7175C13.1365 15.7175 12.5718 17.8634 11.0471 18.0893C9.69178 18.2587 9.69178 18.2587 10.7083 19.614L11.7247 20.9128L12.9671 18.9364C13.9835 17.2987 14.0965 16.6775 13.5883 15.7175C13.2494 15.0964 12.6283 14.5881 12.233 14.5881C11.1035 14.5881 10.2 13.2328 10.7083 12.3858C10.9906 11.934 11.6683 11.7646 12.4024 12.047C13.08 12.2728 13.5883 12.1599 13.5883 11.8211C13.5883 11.4823 13.3624 11.1999 13.1365 11.1999C12.8541 11.1999 12.4024 10.6917 12.12 10.0705C11.6683 9.05402 11.4988 9.16696 10.3694 11.1434Z" fill="white"/>
<path d="M19.8 24.1883C19.8 24.4706 20.1388 24.753 20.4776 24.753C22.1717 24.753 16.6376 27.6894 13.927 28.2541C11.4423 28.8188 10.4823 28.7624 7.94113 27.9153C6.30348 27.4071 4.27054 26.3906 3.36701 25.7694C1.55995 24.4141 0.317602 24.8094 2.06819 26.2212C7.37643 30.4565 15.7905 30.6259 20.5905 26.5035C21.3811 25.8259 21.72 25.7694 21.8894 26.3341C22.2847 27.4071 23.1882 26.5035 23.1882 24.9788C23.1882 23.8494 22.9058 23.6235 21.4941 23.6235C20.5905 23.6235 19.8 23.8494 19.8 24.1883Z" fill="white"/>
</svg>
