<svg width="27" height="24" viewBox="0 0 27 24" fill="none" xmlns="http://www.w3.org/2000/svg">
<path d="M16.8923 1.15762C16.8923 1.41174 17.2863 1.97645 17.7366 2.39997L18.5809 3.19056L15.6539 6.1835L12.6988 9.17645H10.1096H7.52037L5.7473 10.8706C4.08682 12.48 3.91795 12.5647 2.56705 12.5647C1.32872 12.5647 1.13171 12.6494 1.13171 13.1294C1.13171 13.6094 1.32872 13.6941 2.53891 13.6941C3.32693 13.6941 3.9461 13.5529 3.9461 13.4117C3.9461 13.2423 4.11496 13.1294 4.31197 13.1294C4.48083 13.1294 5.38143 12.367 6.28204 11.4353L7.94252 9.74115H10.7006H13.4869L16.3294 6.91762C17.8773 5.36468 19.2282 4.09409 19.3126 4.09409C19.3971 4.09409 19.8474 4.46115 20.2695 4.94115C21.6767 6.43762 21.9582 6.15527 21.9582 3.24703V0.705856H19.4252C17.2863 0.705856 16.8923 0.790563 16.8923 1.15762ZM20.8324 2.8235C20.8324 3.52939 20.7761 4.09409 20.6917 4.09409C20.4102 4.09409 18.5809 2.14586 18.5809 1.83527C18.5809 1.69409 19.0875 1.55292 19.7067 1.55292H20.8324V2.8235Z" fill="white"/>
<path d="M16.6953 8.47055C16.4139 8.7529 16.3295 10.6164 16.3295 15.6706C16.3295 22.2494 16.3576 22.447 16.8923 22.447C17.4271 22.447 17.4552 22.2494 17.4552 15.6706V8.89408H19.7067H21.9582V10.5317C21.9582 12.367 22.1271 12.7341 22.69 12.1411C23.2247 11.6329 23.1966 8.97879 22.69 8.44232C22.1271 7.87761 17.1738 7.90584 16.6953 8.47055Z" fill="white"/>
<path d="M18.5809 11.7177C18.2713 12.2824 18.1869 21.233 18.4683 21.9954C18.6934 22.6165 19.003 22.5601 19.8192 21.7412C20.5791 20.9789 21.3953 20.8095 21.3953 21.4024C21.3953 22.0518 22.0989 23.2942 22.4366 23.2942C23.0839 23.2942 24.7725 22.3342 24.7725 21.9671C24.7725 21.7695 24.6599 21.6001 24.4911 21.6001C24.3504 21.6001 24.2096 21.2895 24.2096 20.8942C24.2096 20.4989 24.0971 20.1883 23.9282 20.1883C23.7875 20.1883 23.6468 19.9907 23.6468 19.7648C23.6468 19.4542 23.9845 19.3412 25.054 19.3412C25.842 19.3412 26.4612 19.2001 26.4612 19.0589C26.4612 18.8895 24.7444 17.0542 22.6617 14.9648C19.2845 11.5483 18.8342 11.2095 18.5809 11.7177ZM21.8456 15.3883C23.0839 16.6589 24.0971 17.8448 24.1534 18.0707C24.2096 18.2965 23.9563 18.4942 23.4498 18.5507C22.8869 18.6071 22.6336 18.8048 22.5773 19.2565C22.521 19.6236 22.6054 19.906 22.7743 19.906C22.9432 19.906 23.0839 20.1601 23.0839 20.4707C23.0839 20.7812 23.2246 21.0354 23.3653 21.0354C23.5342 21.0354 23.6468 21.2895 23.6468 21.6001C23.6468 21.9107 23.5905 22.1648 23.5342 22.1648C23.4779 22.1648 23.2246 22.2495 22.9713 22.3342C22.6617 22.4471 22.521 22.3624 22.521 22.0518C22.521 21.7977 22.4084 21.6001 22.2396 21.6001C22.0989 21.6001 21.9581 21.2895 21.9581 20.8942C21.9581 20.4989 21.8456 20.1883 21.6767 20.1883C21.536 20.1883 21.3953 19.9907 21.3953 19.7648C21.3953 19.1718 21.1983 19.2283 20.3821 20.0471C19.9881 20.4424 19.5659 20.753 19.4252 20.753C19.2563 20.753 19.1437 19.1718 19.1437 16.9412C19.1437 14.8518 19.2563 13.1295 19.397 13.1295C19.5378 13.1295 20.6354 14.146 21.8456 15.3883Z" fill="white"/>
<path d="M8.44916 12.2542C8.13958 12.8471 8.05515 21.5154 8.33658 22.2777C8.4773 22.6448 9.04018 22.7295 11.5731 22.7295H14.6408V17.393V12.0566L13.7683 11.8871C13.2899 11.8024 11.939 11.7177 10.8132 11.7177C9.06832 11.7177 8.70245 11.8024 8.44916 12.2542ZM13.5151 17.2236V21.8824H11.2635H9.01204V17.2236V12.5648H11.2635H13.5151V17.2236Z" fill="white"/>
<path d="M0.00598145 19.0589V22.7295H3.1018H6.19763V19.0589V15.3883H3.1018H0.00598145V19.0589ZM5.18445 16.4048C5.55032 16.546 5.63475 17.0542 5.63475 18.8895C5.63475 20.3013 5.49403 21.346 5.29702 21.5436C4.9593 21.8824 1.80719 22.0236 1.01916 21.713C0.65329 21.5718 0.568858 21.0636 0.568858 19.0589C0.568858 17.3366 0.681434 16.5177 0.934728 16.433C1.44132 16.2071 4.67786 16.2071 5.18445 16.4048Z" fill="white"/>
</svg>
