<svg width="95" height="80" viewBox="0 0 95 80" fill="none" xmlns="http://www.w3.org/2000/svg">
<g clip-path="url(#clip0_486_7635)">
<path d="M78.6247 47.1287C78.6114 53.8652 76.0787 60.3531 71.5245 65.3169C66.9702 70.2807 60.7238 73.3613 54.0134 73.9531C47.3029 74.5449 40.6138 72.6051 35.261 68.5151C29.9083 64.425 26.2791 58.4806 25.087 51.8504C23.8949 45.2202 25.2262 38.3838 28.819 32.6854C32.4118 26.987 38.0063 22.8386 44.5027 21.0559C50.999 19.2732 57.9273 19.9851 63.9253 23.0516C69.9234 26.1181 74.5575 31.3175 76.9164 37.6275C76.9752 37.7859 77.0326 37.9444 77.0884 38.1043V38.1059C77.3374 38.8091 77.5567 39.5254 77.7464 40.2548C78.3314 42.4992 78.6266 44.8093 78.6247 47.1287Z" fill="#3F3D56"/>
<path d="M48.4892 28.8018C47.2685 28.1416 45.9132 27.769 44.5266 27.7123C43.1399 27.6555 41.7587 27.9162 40.4881 28.4744C39.3694 28.9613 38.1914 29.8347 37.8182 31.4118C39.3276 30.521 41.2814 31.9285 41.6698 34.1862L41.5792 34.2112C41.374 35.7751 41.832 37.4777 42.7186 38.4474C42.7845 38.0098 42.947 37.5925 43.1944 37.2256C43.4418 36.8587 43.7678 36.5515 44.1487 36.3264C44.8001 35.8982 45.5207 35.5871 46.0179 34.8511C46.6073 33.9784 46.757 32.7032 46.9912 31.5398C47.2253 30.3764 47.6696 29.1259 48.4892 28.8018Z" fill="#6C63FF"/>
<path d="M40.0403 42.1095C39.6223 42.7373 39.0639 43.1311 38.5629 43.6216C37.9845 44.1477 37.6051 44.8571 37.4885 45.6302C37.4251 46.1765 37.5232 46.7318 37.5096 47.2842C37.496 47.8365 37.3119 48.4582 36.9361 48.5955C36.3431 48.8098 35.8903 47.7082 35.2807 47.6312C34.7962 47.5709 34.3601 48.333 34.5005 48.9939C34.6408 49.6549 35.3003 49.9477 35.6791 49.5161C36.0216 50.091 35.7802 51.1338 35.2656 51.3104C35.2112 51.6726 35.1569 52.0332 35.1041 52.3954C33.8033 51.4854 32.4888 50.5604 31.3827 49.2278C30.1525 47.7584 29.3894 45.9548 29.1915 44.0487C29.0481 42.5169 29.2609 40.7649 28.5577 39.5863C27.9948 38.6431 27.029 38.4348 26.1597 38.4937C26.0013 38.5043 25.8413 38.5224 25.6829 38.542C26.1955 37.0023 26.8465 35.5123 27.6281 34.0902C27.8049 34.0142 27.9693 33.912 28.1155 33.7868C28.9244 33.1002 29.2835 31.7103 29.94 30.749C29.9822 30.6872 30.026 30.6268 30.0713 30.568C30.7428 29.6912 31.6422 29.24 32.5114 28.8204C34.4355 27.8863 36.4154 26.9401 38.4467 27.0699L37.8687 27.1257C37.1942 29.0151 36.5191 30.9045 35.8435 32.7939C35.7409 33.0836 35.6373 33.3738 35.5326 33.6646C35.1493 34.7391 34.7539 35.883 34.8128 37.0857C34.8475 37.798 35.095 38.5586 35.5658 38.8031C36.005 39.0294 36.4849 38.7517 36.9089 38.4771C37.0885 38.3624 37.2666 38.2477 37.4461 38.1315C38.0905 37.7165 38.8043 37.2909 39.4849 37.5686C40.1082 37.8221 40.5684 38.6687 40.656 39.5817C40.7362 40.4692 40.5197 41.3583 40.0403 42.1095Z" fill="#6C63FF"/>
<path d="M43.8727 55.0087C41.9908 53.85 40.1088 52.6912 38.2268 51.5324L38.2587 51.4502C37.0886 51.8958 36.6028 53.9758 36.7962 55.6768C36.9895 57.3778 37.6453 58.8983 37.9765 60.5557C38.4232 62.8238 38.2546 65.1701 37.4883 67.351C39.963 64.5742 42.153 61.5564 44.0257 58.3427C44.2872 57.9377 44.4866 57.4957 44.617 57.0315C44.7551 56.5368 44.7059 56.0085 44.4787 55.5478C44.3247 55.3206 44.1164 55.1353 43.8727 55.0087Z" fill="#6C63FF"/>
<path d="M36.4453 33.9275C36.2243 34.402 36.1902 34.9423 36.3499 35.4408C36.5356 35.8425 36.8725 36.1545 37.2871 36.3089L38.327 36.8243C38.673 36.9958 39.0459 37.169 39.3985 37.0279C39.8239 36.8577 40.1188 36.1909 40.0425 35.5718C39.9613 34.913 39.5461 34.4599 39.162 34.074C38.6245 33.5339 38.0871 32.9939 37.5496 32.4539L37.2468 32.8249C36.9191 33.1444 36.6481 33.5172 36.4453 33.9275Z" fill="#6C63FF"/>
<path d="M73.0501 40.9701C73.5179 41.0803 73.9858 41.1904 74.4536 41.3006C74.3721 42.8806 73.5889 44.3429 72.5385 44.8726C72.1009 45.0929 71.6135 45.1744 71.2513 45.5864C70.9238 45.9607 70.7578 46.5432 70.6054 47.1C70.3383 48.0719 70.0712 49.0437 69.804 50.0156C69.5173 51.0629 69.1491 52.2264 68.4036 52.6037C67.7638 52.9281 67.0318 52.5312 66.5399 51.8657C66.0479 51.2002 65.7476 50.3053 65.4564 49.4331C65.4745 50.3838 65.0323 51.3164 64.406 51.6469C63.7783 51.9774 63.0147 51.6786 62.5951 50.9407C62.2933 50.411 62.1681 49.7122 61.8723 49.175C61.5765 48.6378 60.9563 48.3299 60.6333 48.834C60.4205 49.169 60.4477 49.6821 60.3421 50.1076C60.2889 50.3902 60.149 50.6491 59.9418 50.8484C59.7346 51.0478 59.4705 51.1776 59.1861 51.2198C58.9246 51.2138 58.6671 51.1547 58.4292 51.046C58.1913 50.9373 57.978 50.7813 57.8023 50.5875C56.8782 49.6422 56.2765 48.4289 56.0834 47.1212C55.9525 46.4941 55.969 45.8453 56.1317 45.2257C56.3173 44.6387 56.7655 44.186 57.2107 44.2977C57.5035 43.6789 56.9255 42.858 56.4049 42.9304C55.8827 43.0029 55.4738 43.5627 55.0452 43.9928C54.6181 44.4229 54.0205 44.7353 53.5904 44.3082C53.6 44.4644 53.5472 44.6181 53.4435 44.7353C53.3399 44.8526 53.1939 44.9239 53.0377 44.9335C53.0222 44.9344 53.0068 44.9348 52.9913 44.9345C52.7053 44.8524 52.4396 44.7116 52.2111 44.521C51.2257 43.9068 49.9746 44.3143 49.2744 45.4762C49.7121 43.614 50.3534 41.4772 51.698 41.0395C52.2473 40.8599 52.8464 41.0078 53.3656 40.6969C54.2846 40.1461 54.4702 38.0651 53.6764 37.2064C53.7775 38.0183 53.7579 38.966 53.3293 39.5214C52.9008 40.0767 52.0013 39.7145 52.0557 38.8936C52.0435 39.0091 51.9951 39.1177 51.9173 39.204C51.8396 39.2902 51.7366 39.3497 51.623 39.3738C51.5094 39.3979 51.3911 39.3855 51.2851 39.3382C51.179 39.291 51.0906 39.2114 51.0325 39.1109C50.7473 38.6763 50.7715 37.9655 50.9737 37.4464C51.1821 36.9762 51.4811 36.5516 51.8535 36.1969C52.5703 35.4288 53.2977 34.6516 54.1277 34.1687C54.9592 33.6857 55.919 33.5228 56.752 34.0027C57.1911 34.2562 57.5775 34.6787 58.0256 34.9021C58.131 34.9674 58.2481 35.0114 58.3704 35.0315C58.4928 35.0515 58.6178 35.0473 58.7385 35.0191C58.8592 34.9908 58.9731 34.939 59.0738 34.8667C59.1745 34.7944 59.2599 34.703 59.3253 34.5977C59.3303 34.5896 59.3353 34.5814 59.3401 34.5731C59.6736 33.9875 59.5166 33.1183 59.6404 32.3864C59.8622 31.0931 61.1555 30.488 61.8723 31.3421C61.3366 31.2048 60.7827 31.8386 60.7164 32.6068C60.6485 33.3749 61.0363 34.1506 61.5554 34.3829C62.4277 34.7693 63.2818 33.7974 63.9413 32.898C64.6294 31.9563 65.3186 31.0152 66.0087 30.0745C66.1189 29.9143 66.2426 29.7639 66.3784 29.6248C66.5946 29.4141 66.8827 29.2935 67.1845 29.2873C67.4863 29.2811 67.7792 29.3899 68.0037 29.5916C68.7009 30.1605 69.0284 31.3271 69.6004 32.1299C70.4303 33.2964 71.6723 33.5801 72.8283 33.8065C73.6899 33.974 74.5521 34.1425 75.4149 34.312C75.9899 35.3819 76.4916 36.4896 76.9164 37.6275C75.3344 38.3489 73.9925 39.509 73.0501 40.9701Z" fill="#6C63FF"/>
<path d="M75.8359 59.1275C75.1893 60.4403 74.4373 61.6984 73.5873 62.8896C73.044 62.6572 72.46 63.0722 71.9515 63.4616C71.4203 63.869 70.7819 64.2659 70.2371 63.8947C69.6803 63.5144 69.5007 62.4505 69.6773 61.6069C69.8802 60.8287 70.2351 60.0984 70.7216 59.4579C71.1743 58.7819 71.6587 58.0801 72.288 57.8176C72.9188 57.555 73.7292 57.9262 73.9133 58.8226L74.36 58.8075C74.1095 58.4635 74.2408 57.7512 74.5773 57.6259C74.9651 57.4795 75.3017 58.0122 75.531 58.4831C75.6336 58.6958 75.7378 58.9102 75.8359 59.1275Z" fill="#6C63FF"/>
<path d="M58.728 52.7532C57.7678 52.8136 57.0073 51.6316 56.5019 50.4688C55.9966 49.306 55.5354 47.9763 54.6691 47.3844C54.1741 47.0462 53.6097 46.9998 53.0728 46.8359C52.7683 46.759 52.4865 46.6106 52.2507 46.4031C52.015 46.1955 51.8321 45.9347 51.7172 45.6424L51.1081 45.3964C50.2562 45.8222 49.476 46.3785 48.7957 47.0452C48.0184 47.8709 47.5342 48.9294 47.4179 50.0575C47.3015 51.2766 47.7311 52.636 48.5339 53.0939C49.1682 53.4558 49.9067 53.2277 50.5492 53.559C51.352 53.9728 51.8285 55.1751 52.009 56.3623C52.1894 57.5494 52.1436 58.7831 52.2727 59.9837C52.4018 61.1843 52.7575 62.4335 53.4937 63.0488C54.4149 63.8187 55.7667 63.1789 56.1801 61.7774C56.3828 61.0899 56.3758 60.3142 56.5275 59.6006C56.7945 58.3438 57.5151 57.4115 58.0866 56.3806C58.6581 55.3497 59.1081 53.9496 58.728 52.7532Z" fill="#6C63FF"/>
<path d="M49.2405 40.4041C49.33 40.4865 49.4136 40.5752 49.4905 40.6695C49.5702 40.8068 49.6108 40.9632 49.6081 41.1219C49.6054 41.2806 49.5594 41.4356 49.4752 41.57C49.5908 41.5635 49.7039 41.533 49.8071 41.4805C49.9104 41.428 50.0017 41.3547 50.0751 41.2651C50.2504 41.0655 50.4045 40.8484 50.5352 40.6171C50.5966 40.5379 50.6404 40.4466 50.6638 40.3491C50.6872 40.2517 50.6896 40.1503 50.6708 40.0519C50.6254 39.9224 50.5182 39.8672 50.443 39.7699C50.3387 39.5795 50.2676 39.3729 50.2326 39.1587C50.1909 38.958 50.094 38.7729 49.9529 38.6242C49.8118 38.4754 49.632 38.369 49.4337 38.3169L49.4819 38.3261C49.3999 38.3747 49.3353 38.4477 49.297 38.5349C49.2586 38.622 49.2485 38.719 49.2681 38.8122C49.2972 39.0006 49.4182 39.1569 49.4062 39.349C49.3889 39.6251 49.1129 39.7547 49.0958 40.031C49.0931 40.1695 49.1451 40.3036 49.2405 40.4041Z" fill="#6C63FF"/>
<path d="M47.5955 35.7109L47.5997 35.7101C47.6293 35.6831 47.6567 35.6539 47.6818 35.6227L47.5955 35.7109Z" fill="#6C63FF"/>
<path d="M47.8834 37.0072C47.9987 36.906 48.0841 36.7751 48.13 36.6287C48.176 36.4823 48.1808 36.3261 48.1441 36.1771C48.0743 35.8631 47.8275 35.652 47.5998 35.71C47.5337 35.7769 47.4517 35.826 47.3615 35.8526C47.2712 35.8792 47.1757 35.8823 47.0839 35.8618C46.9432 35.8256 46.7886 35.7323 46.6665 35.8383C46.5966 35.9175 46.5478 36.013 46.5243 36.116C46.4791 36.2547 46.4339 36.3934 46.3887 36.5321C46.3673 36.5818 46.3617 36.6369 46.3727 36.6898C46.3814 36.711 46.3953 36.7297 46.4133 36.744C46.4312 36.7582 46.4525 36.7676 46.4752 36.7713L47.2886 37.0111C47.382 37.0541 47.4836 37.076 47.5864 37.0754C47.6892 37.0747 47.7906 37.0514 47.8834 37.0072Z" fill="#6C63FF"/>
<path d="M68.353 54.9048C68.2276 54.6996 68.1023 54.4944 67.977 54.2892C67.8538 54.0515 67.6855 53.8402 67.4815 53.667C67.3922 53.5923 67.2769 53.556 67.1609 53.5662C67.0449 53.5765 66.9378 53.6324 66.863 53.7216L66.8564 53.7296L66.8717 53.8468C67.2073 54.2066 67.436 54.6529 67.5321 55.1354C67.5607 55.3451 67.5508 55.5622 67.5758 55.7728C67.5785 55.8705 67.6003 55.9667 67.6402 56.0559C67.68 56.1451 67.7371 56.2255 67.808 56.2927C68.0054 56.4245 68.2371 56.2301 68.3776 55.9929C68.5032 55.7981 68.5595 55.5667 68.5375 55.3359C68.5062 55.1811 68.4434 55.0343 68.353 54.9048Z" fill="#6C63FF"/>
<path d="M70.3192 55.1718C70.3431 54.9797 70.3275 54.7848 70.2733 54.5989C70.2643 54.3475 70.331 54.0991 70.4647 53.8859C70.5975 53.6848 70.6981 53.4642 70.7629 53.2321C70.7902 53.1264 70.7852 53.0148 70.7486 52.9119C70.7071 52.8187 70.6066 52.7762 70.549 52.85L70.6723 52.9295C70.5058 52.8998 70.3347 52.908 70.1718 52.9537C70.0788 52.9893 69.9958 53.0467 69.9298 53.1212C69.8637 53.1956 69.8166 53.2849 69.7924 53.3814C69.772 53.5319 69.7387 53.6803 69.6929 53.8251C69.6193 53.9764 69.4769 54.0267 69.3873 54.1594C69.3263 54.2771 69.2955 54.4081 69.2977 54.5407C69.2999 54.6732 69.335 54.8031 69.3999 54.9187C69.5123 55.1078 69.691 55.2483 69.9013 55.313C70.0519 55.367 70.2503 55.3699 70.3192 55.1718Z" fill="#6C63FF"/>
<path d="M73.8206 56.2283C73.875 56.37 73.948 56.5039 74.0375 56.6265C74.2052 56.7953 74.433 56.6916 74.6364 56.6505C74.8209 56.6214 75.0099 56.6427 75.1833 56.7123C75.3567 56.7818 75.508 56.897 75.6213 57.0456C75.5424 56.6522 75.3703 56.2836 75.1194 55.9706C74.8685 55.6576 74.5462 55.4093 74.1794 55.2467C73.7029 55.0818 73.2007 55.0033 72.6966 55.0149L72.6105 55.0369C72.8299 55.6757 73.519 55.6614 73.8206 56.2283Z" fill="#6C63FF"/>
<path d="M58.9907 57.5303L58.9918 57.5328L59.0144 57.4893L58.9907 57.5303Z" fill="#6C63FF"/>
<path d="M58.4594 58.5629C58.3436 58.7732 58.244 58.9921 58.1614 59.2175C58.0522 59.5827 57.9798 59.958 57.9455 60.3377C57.9185 60.5535 57.9102 60.8292 58.0454 60.9344C58.0842 60.9602 58.1311 60.971 58.1773 60.9647C58.2235 60.9584 58.2658 60.9355 58.2964 60.9003C58.3715 60.8208 58.433 60.7295 58.4783 60.6299C58.7441 60.1721 58.9505 59.6823 59.0925 59.1723C59.2406 58.6312 59.2052 58.0563 58.9919 57.5375C58.8144 57.8793 58.6369 58.2211 58.4594 58.5629Z" fill="#6C63FF"/>
<path d="M53.3351 31.1706C53.4195 31.2531 53.5262 31.309 53.642 31.3317C53.7578 31.3543 53.8776 31.3425 53.9868 31.2978C54.213 31.1989 54.4204 31.0619 54.6001 30.8927C54.7488 30.7826 54.8751 30.645 54.9718 30.4872C55.0251 30.3929 55.0593 30.289 55.0723 30.1815C55.0854 30.074 55.0771 29.965 55.0479 29.8607C55.0063 29.7607 54.94 29.6731 54.8551 29.6059C54.7702 29.5388 54.6696 29.4944 54.5628 29.477C54.2618 29.3877 53.9609 29.2985 53.6599 29.2092L53.8776 29.013C53.6536 28.8928 53.4058 29.1159 53.2658 29.3921C53.1761 29.5725 53.1135 29.7651 53.0801 29.9638C53.0325 30.1714 53.0306 30.3869 53.0747 30.5953C53.1187 30.8037 53.2076 31 53.3351 31.1706Z" fill="#6C63FF"/>
<path d="M58.6486 29.3868C58.7334 29.4803 58.8507 29.538 58.9765 29.5483C59.1023 29.5585 59.2274 29.5205 59.3262 29.4419C59.4113 29.378 59.4819 29.297 59.5335 29.2039C59.5852 29.1109 59.6167 29.0081 59.6259 28.9021C59.6472 28.6654 59.5302 28.4023 59.363 28.3818L59.4013 28.1602C59.0792 28.102 58.6829 28.0904 58.5103 28.4814C58.4521 28.6312 58.4343 28.7937 58.4585 28.9526C58.4828 29.1115 58.5483 29.2612 58.6486 29.3868Z" fill="#6C63FF"/>
<path d="M36.7549 45.3312C37.8644 45.3312 38.7639 44.1251 38.7639 42.6373C38.7639 41.1495 37.8644 39.9435 36.7549 39.9435C35.6454 39.9435 34.746 41.1495 34.746 42.6373C34.746 44.1251 35.6454 45.3312 36.7549 45.3312Z" fill="#E6E6E6"/>
<path d="M73.4668 78.6887C74.4259 78.4333 75.0594 77.6854 74.8817 77.0182C74.704 76.351 73.7825 76.0172 72.8234 76.2726C71.8643 76.528 71.2308 77.276 71.4085 77.9432C71.5862 78.6104 72.5077 78.9442 73.4668 78.6887Z" fill="#E6E6E6"/>
<path d="M61.7199 78.906C62.679 78.6505 63.3124 77.9026 63.1348 77.2354C62.9571 76.5682 62.0355 76.2344 61.0764 76.4898C60.1173 76.7453 59.4839 77.4932 59.6616 78.1604C59.8393 78.8276 60.7608 79.1614 61.7199 78.906Z" fill="#E6E6E6"/>
<path d="M75.5538 68.9151C76.5128 68.6596 77.1463 67.9117 76.9686 67.2445C76.7909 66.5773 75.8694 66.2435 74.9103 66.4989C73.9512 66.7544 73.3177 67.5023 73.4954 68.1695C73.6731 68.8367 74.5947 69.1705 75.5538 68.9151Z" fill="#E6E6E6"/>
<path d="M79.0184 64.7605C79.4515 64.7068 79.74 64.1586 79.6628 63.5361C79.5856 62.9136 79.172 62.4525 78.7389 62.5062C78.3059 62.5599 78.0174 63.108 78.0946 63.7305C78.1718 64.353 78.5854 64.8142 79.0184 64.7605Z" fill="#E6E6E6"/>
<path d="M79.8956 57.3868C80.3287 57.3331 80.6172 56.785 80.54 56.1624C80.4628 55.5399 80.0492 55.0788 79.6161 55.1325C79.1831 55.1862 78.8946 55.7344 78.9718 56.3569C79.049 56.9794 79.4626 57.4405 79.8956 57.3868Z" fill="#E6E6E6"/>
<path d="M68.0541 71.5617C68.4871 71.508 68.7756 70.9599 68.6984 70.3373C68.6212 69.7148 68.2076 69.2537 67.7746 69.3074C67.3415 69.3611 67.053 69.9093 67.1302 70.5318C67.2074 71.1543 67.621 71.6154 68.0541 71.5617Z" fill="#E6E6E6"/>
<path d="M73.9932 73.7114C74.4262 73.6577 74.7147 73.1095 74.6375 72.487C74.5603 71.8645 74.1467 71.4034 73.7137 71.4571C73.2806 71.5108 72.9921 72.059 73.0693 72.6815C73.1465 73.304 73.5601 73.7651 73.9932 73.7114Z" fill="#E6E6E6"/>
<path d="M66.782 79.8001C67.215 79.7464 67.5035 79.1982 67.4263 78.5757C67.3492 77.9532 66.9355 77.4921 66.5025 77.5458C66.0694 77.5995 65.781 78.1476 65.8581 78.7701C65.9353 79.3927 66.3489 79.8538 66.782 79.8001Z" fill="#E6E6E6"/>
<path d="M15.0753 68.8236C16.0344 68.5682 16.6679 67.8203 16.4902 67.1531C16.3125 66.4859 15.391 66.1521 14.4319 66.4075C13.4728 66.6629 12.8394 67.4109 13.017 68.0781C13.1947 68.7452 14.1163 69.0791 15.0753 68.8236Z" fill="#E6E6E6"/>
<path d="M3.32791 69.0413C4.287 68.7858 4.92046 68.0379 4.74278 67.3707C4.56509 66.7035 3.64355 66.3697 2.68446 66.6251C1.72537 66.8806 1.09192 67.6285 1.2696 68.2957C1.44729 68.9629 2.36882 69.2967 3.32791 69.0413Z" fill="#E6E6E6"/>
<path d="M17.1626 59.0496C18.1217 58.7942 18.7552 58.0463 18.5775 57.3791C18.3998 56.7119 17.4783 56.3781 16.5192 56.6335C15.5601 56.8889 14.9266 57.6369 15.1043 58.3041C15.282 58.9713 16.2035 59.3051 17.1626 59.0496Z" fill="#E6E6E6"/>
<path d="M20.6271 54.8954C21.0601 54.8417 21.3486 54.2935 21.2714 53.671C21.1942 53.0485 20.7806 52.5874 20.3476 52.6411C19.9145 52.6948 19.626 53.2429 19.7032 53.8654C19.7804 54.4879 20.194 54.949 20.6271 54.8954Z" fill="#E6E6E6"/>
<path d="M21.5041 47.5217C21.9372 47.468 22.2257 46.9198 22.1485 46.2973C22.0713 45.6748 21.6577 45.2137 21.2246 45.2674C20.7916 45.3211 20.5031 45.8693 20.5803 46.4918C20.6575 47.1143 21.0711 47.5754 21.5041 47.5217Z" fill="#E6E6E6"/>
<path d="M9.6626 61.6966C10.0956 61.6429 10.3841 61.0947 10.307 60.4722C10.2298 59.8497 9.81615 59.3886 9.38311 59.4423C8.95006 59.496 8.66157 60.0441 8.73875 60.6666C8.81593 61.2891 9.22956 61.7503 9.6626 61.6966Z" fill="#E6E6E6"/>
<path d="M15.6018 63.8463C16.0349 63.7926 16.3233 63.2444 16.2462 62.6219C16.169 61.9994 15.7554 61.5383 15.3223 61.592C14.8893 61.6457 14.6008 62.1938 14.678 62.8163C14.7551 63.4389 15.1688 63.9 15.6018 63.8463Z" fill="#E6E6E6"/>
<path d="M8.39049 69.935C8.82354 69.8813 9.11203 69.3332 9.03485 68.7107C8.95767 68.0882 8.54404 67.627 8.111 67.6807C7.67795 67.7344 7.38947 68.2826 7.46665 68.9051C7.54383 69.5276 7.95745 69.9887 8.39049 69.935Z" fill="#E6E6E6"/>
<path d="M86.4461 23.6534C87.4052 23.398 88.0386 22.6501 87.8609 21.9829C87.6833 21.3157 86.7617 20.9819 85.8026 21.2373C84.8435 21.4927 84.2101 22.2407 84.3878 22.9079C84.5655 23.575 85.487 23.9089 86.4461 23.6534Z" fill="#E6E6E6"/>
<path d="M74.6986 23.871C75.6577 23.6156 76.2912 22.8677 76.1135 22.2005C75.9358 21.5333 75.0143 21.1995 74.0552 21.4549C73.0961 21.7104 72.4626 22.4583 72.6403 23.1255C72.818 23.7927 73.7396 24.1265 74.6986 23.871Z" fill="#E6E6E6"/>
<path d="M88.5334 13.8792C89.4925 13.6238 90.1259 12.8758 89.9482 12.2087C89.7705 11.5415 88.849 11.2077 87.8899 11.4631C86.9308 11.7185 86.2974 12.4664 86.4751 13.1336C86.6527 13.8008 87.5743 14.1346 88.5334 13.8792Z" fill="#E6E6E6"/>
<path d="M91.9977 9.72516C92.4307 9.67147 92.7192 9.12331 92.642 8.5008C92.5648 7.8783 92.1512 7.41718 91.7182 7.47087C91.2851 7.52456 90.9966 8.07273 91.0738 8.69523C91.151 9.31774 91.5646 9.77885 91.9977 9.72516Z" fill="#E6E6E6"/>
<path d="M92.8749 2.35153C93.3079 2.29784 93.5964 1.74968 93.5192 1.12717C93.442 0.504665 93.0284 0.0435502 92.5954 0.0972411C92.1623 0.150932 91.8738 0.699097 91.951 1.3216C92.0282 1.94411 92.4418 2.40522 92.8749 2.35153Z" fill="#E6E6E6"/>
<path d="M81.0333 16.5264C81.4664 16.4727 81.7549 15.9245 81.6777 15.302C81.6005 14.6795 81.1869 14.2184 80.7538 14.2721C80.3208 14.3258 80.0323 14.874 80.1095 15.4965C80.1867 16.119 80.6003 16.5801 81.0333 16.5264Z" fill="#E6E6E6"/>
<path d="M86.9725 18.6761C87.4056 18.6224 87.6941 18.0742 87.6169 17.4517C87.5397 16.8292 87.1261 16.3681 86.693 16.4218C86.26 16.4755 85.9715 17.0237 86.0487 17.6462C86.1259 18.2687 86.5395 18.7298 86.9725 18.6761Z" fill="#E6E6E6"/>
<path d="M79.7612 24.7648C80.1943 24.7111 80.4828 24.163 80.4056 23.5405C80.3284 22.918 79.9148 22.4568 79.4817 22.5105C79.0487 22.5642 78.7602 23.1124 78.8374 23.7349C78.9146 24.3574 79.3282 24.8185 79.7612 24.7648Z" fill="#E6E6E6"/>
<path d="M11.5456 70.4948C9.62368 70.4948 8.37417 70.0173 7.82114 69.0678C6.73056 67.1957 8.55708 63.9106 13.2499 59.3041L13.6441 59.7057C9.28497 63.9848 7.38966 67.209 8.30731 68.7846C8.88801 69.7811 10.6162 70.1383 13.306 69.817C15.9763 69.4983 19.5151 68.5481 23.824 66.9931C32.6949 63.7916 43.8243 58.3913 55.1621 51.787C66.4995 45.1828 76.687 38.1656 83.8482 32.0282C85.2236 30.8492 86.4719 29.7149 87.5584 28.6572C88.9845 27.3025 90.3003 25.8362 91.493 24.272C93.0992 22.0911 93.6413 20.4114 93.0607 19.4147C92.091 17.7501 88.0171 17.9066 81.589 19.8561L81.4258 19.3176C88.3224 17.2262 92.4007 17.1635 93.547 19.1315C94.2593 20.3543 93.7207 22.1961 91.9462 24.6058C90.7352 26.1947 89.3992 27.6843 87.9509 29.0604C86.856 30.1264 85.5988 31.2687 84.2143 32.4555C77.0282 38.6144 66.8112 45.6525 55.4453 52.2732C44.0791 58.8942 32.9169 64.3098 24.0151 67.5225C19.666 69.092 16.0854 70.0521 13.3727 70.3758C12.7666 70.4514 12.1565 70.4911 11.5456 70.4948Z" fill="#3F3D56"/>
</g>
<defs>
<clipPath id="clip0_486_7635">
<rect width="93.1043" height="80" fill="white" transform="translate(0.947876)"/>
</clipPath>
</defs>
</svg>
