<svg width="75" height="73" viewBox="0 0 75 73" fill="none" xmlns="http://www.w3.org/2000/svg">
<g clip-path="url(#clip0_486_7544)">
<path d="M1.40755 15.6543C1.17778 15.7184 0.983019 15.8703 0.866 16.0767C0.748981 16.2831 0.719256 16.5271 0.783347 16.7552L15.8341 70.0763C15.8988 70.3042 16.0519 70.4974 16.2599 70.6135C16.468 70.7296 16.7139 70.759 16.9438 70.6955L72.4286 55.2836C72.6584 55.2194 72.8532 55.0675 72.9702 54.8612C73.0872 54.6548 73.1169 54.4108 73.0528 54.1827L58.0021 0.861641C57.9374 0.633707 57.7843 0.440509 57.5763 0.324426C57.3682 0.208342 57.1223 0.178855 56.8924 0.242431L1.40755 15.6543Z" fill="#E6E6E6"/>
<path d="M17.6411 68.1776L70.5147 53.491L56.1951 2.76025L3.32153 17.4468L17.6411 68.1776Z" fill="white"/>
<path d="M10.312 24.2209C9.95927 24.3189 9.81383 24.9002 9.98784 25.5166C10.1618 26.1331 10.5904 26.5549 10.9432 26.4569L35.058 19.7586C35.4108 19.6606 35.5562 19.0793 35.3822 18.4629C35.2082 17.8464 34.7796 17.4246 34.4269 17.5226L10.312 24.2209Z" fill="#E6E6E6"/>
<path d="M12.254 31.1009C11.9013 31.1989 11.7559 31.7802 11.9299 32.3966C12.1039 33.0131 12.5324 33.4349 12.8852 33.3369L37 26.6386C37.3528 26.5406 37.4983 25.9593 37.3242 25.3429C37.1502 24.7264 36.7217 24.3046 36.3689 24.4026L12.254 31.1009Z" fill="#E6E6E6"/>
<path d="M14.1737 37.9017C13.821 37.9997 13.6755 38.5809 13.8495 39.1974C14.0235 39.8139 14.4521 40.2357 14.8049 40.1377L38.9197 33.4394C39.2725 33.3414 39.4179 32.7601 39.2439 32.1437C39.0699 31.5272 38.6413 31.1054 38.2886 31.2033L14.1737 37.9017Z" fill="#E6E6E6"/>
<path d="M16.1157 44.7818C15.763 44.8798 15.6175 45.4611 15.7915 46.0775C15.9656 46.694 16.3941 47.1158 16.7469 47.0178L40.8617 40.3195C41.2145 40.2215 41.3599 39.6402 41.1859 39.0238C41.0119 38.4073 40.5833 37.9855 40.2306 38.0835L16.1157 44.7818Z" fill="#E6E6E6"/>
<path d="M46.6649 14.2026C46.5168 14.2435 46.3782 14.3131 46.2572 14.4072C46.1361 14.5014 46.035 14.6182 45.9595 14.7512C45.884 14.8841 45.8357 15.0305 45.8173 15.182C45.7988 15.3335 45.8107 15.4871 45.8522 15.634C45.8937 15.7809 45.9639 15.9183 46.059 16.0383C46.154 16.1583 46.2719 16.2585 46.406 16.3332C46.5401 16.4079 46.6878 16.4557 46.8405 16.4738C46.9932 16.4919 47.148 16.4799 47.2961 16.4386L51.8042 15.1864C52.1031 15.1034 52.3566 14.9059 52.5087 14.6376C52.6609 14.3692 52.6994 14.0518 52.6157 13.7553C52.532 13.4588 52.333 13.2074 52.0625 13.0565C51.7919 12.9055 51.472 12.8673 51.1731 12.9504L46.6649 14.2026Z" fill="#E6E6E6"/>
<path d="M48.5692 20.9493C48.4211 20.9902 48.2825 21.0598 48.1615 21.1539C48.0404 21.2481 47.9392 21.3649 47.8638 21.4979C47.7883 21.6308 47.74 21.7772 47.7215 21.9287C47.7031 22.0802 47.715 22.2338 47.7565 22.3807C47.798 22.5276 47.8682 22.665 47.9632 22.785C48.0583 22.905 48.1762 23.0052 48.3103 23.0799C48.4444 23.1546 48.5921 23.2024 48.7448 23.2205C48.8975 23.2386 49.0523 23.2266 49.2004 23.1853L53.7085 21.9331C54.0075 21.8501 54.2609 21.6527 54.413 21.3843C54.5652 21.1159 54.6037 20.7985 54.52 20.502C54.4363 20.2055 54.2373 19.9541 53.9667 19.8032C53.6962 19.6522 53.3763 19.614 53.0774 19.6971L48.5692 20.9493Z" fill="#E6E6E6"/>
<path d="M50.4737 27.696C50.3257 27.7371 50.1873 27.8067 50.0664 27.9009C49.9455 27.9951 49.8445 28.1119 49.7692 28.2448C49.6938 28.3777 49.6456 28.524 49.6273 28.6754C49.6089 28.8268 49.6208 28.9802 49.6622 29.1271C49.7037 29.2739 49.7739 29.4112 49.8688 29.5311C49.9637 29.651 50.0815 29.7512 50.2155 29.8259C50.3494 29.9007 50.4969 29.9485 50.6495 29.9667C50.8021 29.9849 50.9569 29.9731 51.1049 29.932L55.613 28.6798C55.9119 28.5968 56.1653 28.3994 56.3175 28.131C56.4697 27.8626 56.5082 27.5452 56.4245 27.2487C56.3408 26.9522 56.1418 26.7008 55.8712 26.5499C55.6007 26.3989 55.2807 26.3607 54.9818 26.4438L50.4737 27.696Z" fill="#E6E6E6"/>
<path d="M52.378 34.4428C52.0795 34.5261 51.8264 34.7236 51.6745 34.9919C51.5226 35.2601 51.4843 35.5772 51.5679 35.8735C51.6515 36.1698 51.8503 36.4211 52.1205 36.5721C52.3908 36.7231 52.7104 36.7615 53.0092 36.6789L57.5174 35.4266C57.8159 35.3433 58.069 35.1459 58.2209 34.8776C58.3728 34.6093 58.4111 34.2922 58.3275 33.9959C58.2439 33.6996 58.0451 33.4484 57.7748 33.2974C57.5046 33.1464 57.185 33.108 56.8862 33.1906L52.378 34.4428Z" fill="#E6E6E6"/>
<path d="M54.1975 46.1372C54.0087 46.1894 53.8322 46.278 53.6779 46.398C53.5237 46.5179 53.3948 46.6668 53.2986 46.8362C53.2024 47.0056 53.1409 47.1922 53.1174 47.3852C53.094 47.5782 53.1091 47.7739 53.1619 47.9612C53.2148 48.1484 53.3043 48.3234 53.4254 48.4763C53.5465 48.6292 53.6968 48.7569 53.8676 48.8521C54.0385 48.9473 54.2266 49.0082 54.4212 49.0312C54.6158 49.0543 54.8131 49.039 55.0018 48.9864L60.7461 47.3908C61.127 47.285 61.4499 47.0335 61.6438 46.6915C61.8377 46.3495 61.8867 45.9451 61.7801 45.5673C61.6734 45.1895 61.4198 44.8692 61.0751 44.6768C60.7304 44.4844 60.3227 44.4358 59.9419 44.5416L54.1975 46.1372Z" fill="#6C63FF"/>
<path d="M60.1093 40.383L17.6021 52.1902L17.7078 52.565L60.2151 40.7578L60.1093 40.383Z" fill="#E6E6E6"/>
</g>
<path d="M74.25 71.75H0.75V72.25H74.25V71.75Z" fill="#E6E6E6"/>
<defs>
<clipPath id="clip0_486_7544">
<path d="M0.75 0H74.25V72H0.75V0Z" fill="white"/>
</clipPath>
</defs>
</svg>
