<svg width="97" height="72" viewBox="0 0 97 72" fill="none" xmlns="http://www.w3.org/2000/svg">
<g clip-path="url(#clip0_486_7682)">
<path d="M83.8315 47.8107H13.8073C13.3293 47.8101 12.8711 47.62 12.5331 47.282C12.1951 46.944 12.0049 46.4857 12.0044 46.0077V2.82944C12.0048 2.47924 12.1441 2.1435 12.3917 1.89587C12.6393 1.64824 12.975 1.50895 13.3252 1.50854H84.2907C84.647 1.50895 84.9885 1.65065 85.2404 1.90256C85.4923 2.15447 85.634 2.49602 85.6344 2.85227V46.0077C85.6339 46.4857 85.4438 46.944 85.1058 47.282C84.7678 47.62 84.3095 47.8101 83.8315 47.8107Z" fill="#F2F2F2"/>
<path d="M81.2771 45.2574H16.0164C15.0598 45.2574 14.2815 44.5286 14.2815 43.6327V6.03254C14.2815 5.36817 14.8582 4.82764 15.5671 4.82764H81.7051C82.4258 4.82764 83.012 5.37708 83.012 6.05238V43.6327C83.012 44.5286 82.2337 45.2574 81.2771 45.2574Z" fill="white"/>
<path d="M85.6094 2.7263H11.9791V1.80839C11.9798 1.32879 12.1707 0.869056 12.51 0.530035C12.8492 0.191014 13.309 0.000396227 13.7886 0H83.7999C84.2794 0.000393917 84.7393 0.191011 85.0785 0.530032C85.4178 0.869054 85.6087 1.32879 85.6094 1.80839V2.7263Z" fill="#CCCCCC"/>
<path d="M15.2676 1.83392C15.5261 1.83392 15.7357 1.62437 15.7357 1.36587C15.7357 1.10738 15.5261 0.897827 15.2676 0.897827C15.0091 0.897827 14.7996 1.10738 14.7996 1.36587C14.7996 1.62437 15.0091 1.83392 15.2676 1.83392Z" fill="white"/>
<path d="M17.0442 1.83392C17.3027 1.83392 17.5123 1.62437 17.5123 1.36587C17.5123 1.10738 17.3027 0.897827 17.0442 0.897827C16.7857 0.897827 16.5762 1.10738 16.5762 1.36587C16.5762 1.62437 16.7857 1.83392 17.0442 1.83392Z" fill="white"/>
<path d="M18.8208 1.83392C19.0793 1.83392 19.2889 1.62437 19.2889 1.36587C19.2889 1.10738 19.0793 0.897827 18.8208 0.897827C18.5623 0.897827 18.3528 1.10738 18.3528 1.36587C18.3528 1.62437 18.5623 1.83392 18.8208 1.83392Z" fill="white"/>
<path d="M74.0938 38.9512H23.5196C23.0127 38.9506 22.5266 38.749 22.1681 38.3905C21.8096 38.032 21.608 37.546 21.6074 37.039V12.6551C21.6078 12.2759 21.7587 11.9124 22.0268 11.6443C22.2949 11.3762 22.6584 11.2254 23.0375 11.2249H74.553C74.9383 11.2254 75.3076 11.3786 75.58 11.651C75.8524 11.9234 76.0056 12.2927 76.006 12.6779V37.039C76.0054 37.546 75.8038 38.032 75.4453 38.3905C75.0868 38.749 74.6008 38.9506 74.0938 38.9512ZM23.0375 11.4435C22.7163 11.4438 22.4083 11.5716 22.1812 11.7987C21.9541 12.0259 21.8263 12.3339 21.826 12.6551V37.039C21.8265 37.488 22.0051 37.9185 22.3226 38.236C22.6401 38.5536 23.0706 38.7322 23.5196 38.7327H74.0938C74.5428 38.7322 74.9733 38.5536 75.2908 38.236C75.6084 37.9185 75.787 37.488 75.7875 37.039V12.6779C75.7871 12.3506 75.6569 12.0369 75.4255 11.8054C75.1941 11.574 74.8803 11.4438 74.553 11.4435H23.0375Z" fill="#CCCCCC"/>
<path d="M25.268 37.039H72.3455C72.8092 37.039 73.2539 36.8548 73.5817 36.5269C73.9096 36.1991 74.0938 35.7544 74.0938 35.2907V14.9067C74.0938 14.443 73.9096 13.9983 73.5817 13.6705C73.2539 13.3426 72.8092 13.1584 72.3455 13.1584H25.268C24.8043 13.1584 24.3596 13.3426 24.0317 13.6705C23.7039 13.9983 23.5197 14.443 23.5197 14.9067V35.2907C23.5197 35.7544 23.7039 36.1991 24.0317 36.5269C24.3596 36.8548 24.8043 37.039 25.268 37.039Z" fill="#F2F2F2"/>
<path d="M30.6134 19.0889C31.1566 19.0889 31.5969 18.6486 31.5969 18.1054C31.5969 17.5623 31.1566 17.122 30.6134 17.122C30.0703 17.122 29.63 17.5623 29.63 18.1054C29.63 18.6486 30.0703 19.0889 30.6134 19.0889Z" fill="#CCCCCC"/>
<path d="M30.6134 22.804C31.1566 22.804 31.5969 22.3637 31.5969 21.8206C31.5969 21.2775 31.1566 20.8372 30.6134 20.8372C30.0703 20.8372 29.63 21.2775 29.63 21.8206C29.63 22.3637 30.0703 22.804 30.6134 22.804Z" fill="#CCCCCC"/>
<path d="M30.6134 26.5192C31.1566 26.5192 31.5969 26.0789 31.5969 25.5358C31.5969 24.9926 31.1566 24.5523 30.6134 24.5523C30.0703 24.5523 29.63 24.9926 29.63 25.5358C29.63 26.0789 30.0703 26.5192 30.6134 26.5192Z" fill="#CCCCCC"/>
<path d="M30.6134 30.2344C31.1566 30.2344 31.5969 29.7941 31.5969 29.2509C31.5969 28.7078 31.1566 28.2675 30.6134 28.2675C30.0703 28.2675 29.63 28.7078 29.63 29.2509C29.63 29.7941 30.0703 30.2344 30.6134 30.2344Z" fill="#CCCCCC"/>
<path d="M67.8743 18.2147H35.5305C35.5016 18.2147 35.4738 18.2032 35.4533 18.1827C35.4328 18.1622 35.4213 18.1344 35.4213 18.1054C35.4213 18.0764 35.4328 18.0487 35.4533 18.0282C35.4738 18.0077 35.5016 17.9962 35.5305 17.9962H67.8743C67.9033 17.9962 67.9311 18.0077 67.9516 18.0282C67.9721 18.0487 67.9836 18.0764 67.9836 18.1054C67.9836 18.1344 67.9721 18.1622 67.9516 18.1827C67.9311 18.2032 67.9033 18.2147 67.8743 18.2147Z" fill="#CCCCCC"/>
<path d="M67.8743 21.9299H35.5305C35.5016 21.9299 35.4738 21.9184 35.4533 21.8979C35.4328 21.8774 35.4213 21.8496 35.4213 21.8206C35.4213 21.7916 35.4328 21.7638 35.4533 21.7433C35.4738 21.7228 35.5016 21.7113 35.5305 21.7113H67.8743C67.9033 21.7113 67.9311 21.7228 67.9516 21.7433C67.9721 21.7638 67.9836 21.7916 67.9836 21.8206C67.9836 21.8496 67.9721 21.8774 67.9516 21.8979C67.9311 21.9184 67.9033 21.9299 67.8743 21.9299Z" fill="#CCCCCC"/>
<path d="M67.8743 25.6451H35.5305C35.5016 25.6451 35.4738 25.6335 35.4533 25.6131C35.4328 25.5926 35.4213 25.5648 35.4213 25.5358C35.4213 25.5068 35.4328 25.479 35.4533 25.4585C35.4738 25.438 35.5016 25.4265 35.5305 25.4265H67.8743C67.9033 25.4265 67.9311 25.438 67.9516 25.4585C67.9721 25.479 67.9836 25.5068 67.9836 25.5358C67.9836 25.5648 67.9721 25.5926 67.9516 25.6131C67.9311 25.6335 67.9033 25.6451 67.8743 25.6451Z" fill="#CCCCCC"/>
<path d="M67.8743 29.3602H35.5305C35.5016 29.3602 35.4738 29.3487 35.4533 29.3282C35.4328 29.3077 35.4213 29.2799 35.4213 29.2509C35.4213 29.222 35.4328 29.1942 35.4533 29.1737C35.4738 29.1532 35.5016 29.1417 35.5305 29.1417H67.8743C67.9033 29.1417 67.9311 29.1532 67.9516 29.1737C67.9721 29.1942 67.9836 29.222 67.9836 29.2509C67.9836 29.2799 67.9721 29.3077 67.9516 29.3282C67.9311 29.3487 67.9033 29.3602 67.8743 29.3602Z" fill="#CCCCCC"/>
<path d="M41.6496 33.0754H38.4808C38.3359 33.0752 38.1971 33.0176 38.0947 32.9152C37.9922 32.8128 37.9346 32.6739 37.9344 32.529V29.5788C37.9346 29.4339 37.9922 29.295 38.0947 29.1926C38.1971 29.0902 38.3359 29.0326 38.4808 29.0324H41.6496C41.7945 29.0326 41.9333 29.0902 42.0358 29.1926C42.1382 29.295 42.1958 29.4339 42.196 29.5788V32.529C42.1958 32.6739 42.1382 32.8128 42.0358 32.9152C41.9333 33.0176 41.7945 33.0752 41.6496 33.0754Z" fill="#6C63FF"/>
<path d="M48.7522 33.0754H45.5833C45.4385 33.0752 45.2996 33.0176 45.1972 32.9152C45.0948 32.8127 45.0372 32.6739 45.037 32.529V25.8636C45.0372 25.7187 45.0948 25.5799 45.1972 25.4774C45.2996 25.375 45.4385 25.3174 45.5833 25.3172H48.7522C48.897 25.3174 49.0359 25.375 49.1383 25.4774C49.2407 25.5799 49.2983 25.7187 49.2985 25.8636V32.529C49.2983 32.6739 49.2407 32.8127 49.1383 32.9152C49.0359 33.0176 48.897 33.0752 48.7522 33.0754Z" fill="#6C63FF"/>
<path d="M55.9639 33.0754H52.7951C52.6503 33.0752 52.5114 33.0176 52.409 32.9152C52.3066 32.8127 52.2489 32.6739 52.2488 32.529V22.1484C52.2489 22.0035 52.3066 21.8647 52.409 21.7623C52.5114 21.6598 52.6503 21.6022 52.7951 21.6021H55.9639C56.1088 21.6022 56.2477 21.6598 56.3501 21.7623C56.4525 21.8647 56.5101 22.0035 56.5103 22.1484V32.529C56.5101 32.6739 56.4525 32.8127 56.3501 32.9152C56.2477 33.0176 56.1088 33.0752 55.9639 33.0754Z" fill="#6C63FF"/>
<path d="M63.3942 33.0754H60.2254C60.0806 33.0752 59.9417 33.0176 59.8393 32.9152C59.7369 32.8127 59.6792 32.6739 59.6791 32.529V18.5425C59.6792 18.3977 59.7369 18.2588 59.8393 18.1564C59.9417 18.0539 60.0806 17.9963 60.2254 17.9962H63.3942C63.5391 17.9963 63.678 18.0539 63.7804 18.1564C63.8828 18.2588 63.9404 18.3977 63.9406 18.5425V32.529C63.9404 32.6739 63.8828 32.8127 63.7804 32.9152C63.678 33.0176 63.5391 33.0752 63.3942 33.0754Z" fill="#6C63FF"/>
<path d="M67.8743 33.0754H35.5305C35.5016 33.0754 35.4738 33.0639 35.4533 33.0434C35.4328 33.0229 35.4213 32.9951 35.4213 32.9661C35.4213 32.9371 35.4328 32.9093 35.4533 32.8888C35.4738 32.8684 35.5016 32.8568 35.5305 32.8568H67.8743C67.9033 32.8568 67.9311 32.8684 67.9516 32.8888C67.9721 32.9093 67.9836 32.9371 67.9836 32.9661C67.9836 32.9951 67.9721 33.0229 67.9516 33.0434C67.9311 33.0639 67.9033 33.0754 67.8743 33.0754Z" fill="#3F3D56"/>
<path d="M90.6097 71.1816L73.8045 65.3291C73.5161 65.2283 73.2795 65.0172 73.1466 64.7422C73.0136 64.4672 72.9952 64.1507 73.0954 63.8621L77.4624 51.3225C77.5362 51.1112 77.6908 50.9379 77.8923 50.8404C78.0938 50.743 78.3257 50.7295 78.5371 50.8029L95.9105 56.8533C96.1254 56.9284 96.3017 57.0857 96.4008 57.2907C96.4999 57.4957 96.5136 57.7316 96.439 57.9467L92.0767 70.4725C91.9759 70.7609 91.7649 70.9975 91.4899 71.1304C91.2148 71.2634 90.8983 71.2818 90.6097 71.1816Z" fill="#E6E6E6"/>
<path d="M75.2386 64.6085L89.9336 69.7261C90.2134 69.8236 90.5205 69.8059 90.7873 69.6769C91.0541 69.5479 91.2587 69.3183 91.3561 69.0385L94.8825 58.9128C94.9799 58.633 94.9622 58.3259 94.8333 58.0591C94.7043 57.7923 94.4747 57.5877 94.1948 57.4902L79.4998 52.3726C79.22 52.2751 78.9129 52.2928 78.6461 52.4218C78.3793 52.5508 78.1747 52.7804 78.0773 53.0602L74.5509 63.1859C74.5027 63.3244 74.4822 63.4712 74.4906 63.6176C74.4991 63.7641 74.5363 63.9075 74.6001 64.0396C74.664 64.1717 74.7532 64.2899 74.8628 64.3875C74.9723 64.4851 75.1 64.5602 75.2386 64.6085Z" fill="white"/>
<path d="M78.9287 57.4943L78.201 57.2408C78.1615 57.2271 78.1291 57.1982 78.1109 57.1606C78.0928 57.1229 78.0902 57.0796 78.1039 57.0401L78.3574 56.3124C78.3712 56.2729 78.4 56.2406 78.4377 56.2224C78.4753 56.2042 78.5186 56.2017 78.5581 56.2154L79.2859 56.4688C79.3253 56.4826 79.3577 56.5115 79.3759 56.5491C79.3941 56.5867 79.3966 56.63 79.3829 56.6695L79.1294 57.3973C79.1156 57.4367 79.0868 57.4691 79.0491 57.4873C79.0115 57.5055 78.9682 57.508 78.9287 57.4943Z" fill="#6C63FF"/>
<path d="M78.272 59.3799L77.5442 59.1264C77.5048 59.1126 77.4724 59.0837 77.4542 59.0461C77.436 59.0085 77.4335 58.9652 77.4472 58.9257L77.7007 58.1979C77.7144 58.1585 77.7433 58.1261 77.7809 58.1079C77.8186 58.0897 77.8619 58.0872 77.9014 58.1009L78.6291 58.3544C78.6686 58.3682 78.7009 58.397 78.7191 58.4347C78.7373 58.4723 78.7398 58.5156 78.7261 58.5551L78.4727 59.2828C78.4589 59.3223 78.43 59.3547 78.3924 59.3728C78.3548 59.391 78.3115 59.3936 78.272 59.3799Z" fill="#3F3D56"/>
<path d="M77.6154 61.2654L76.8876 61.012C76.8481 60.9982 76.8158 60.9693 76.7976 60.9317C76.7794 60.8941 76.7769 60.8508 76.7906 60.8113L77.044 60.0835C77.0578 60.0441 77.0867 60.0117 77.1243 59.9935C77.1619 59.9753 77.2053 59.9728 77.2447 59.9865L77.9725 60.24C78.012 60.2537 78.0443 60.2826 78.0625 60.3202C78.0807 60.3579 78.0832 60.4012 78.0695 60.4407L77.8161 61.1684C77.8023 61.2079 77.7734 61.2402 77.7358 61.2584C77.6982 61.2766 77.6548 61.2791 77.6154 61.2654Z" fill="#CCCCCC"/>
<path d="M83.819 58.7894L80.3125 57.5682C80.2929 57.5614 80.2748 57.5508 80.2593 57.5371C80.2438 57.5233 80.2311 57.5066 80.2221 57.488C80.2131 57.4693 80.2078 57.4491 80.2066 57.4284C80.2054 57.4077 80.2082 57.3869 80.2151 57.3673C80.2219 57.3478 80.2325 57.3297 80.2463 57.3142C80.2601 57.2988 80.2768 57.2862 80.2955 57.2772C80.3142 57.2682 80.3345 57.2629 80.3552 57.2618C80.3759 57.2606 80.3966 57.2636 80.4162 57.2705L83.9227 58.4916C83.9423 58.4984 83.9603 58.509 83.9758 58.5227C83.9914 58.5365 84.004 58.5532 84.013 58.5718C84.0221 58.5905 84.0274 58.6108 84.0286 58.6315C84.0298 58.6522 84.0269 58.6729 84.0201 58.6925C84.0133 58.7121 84.0026 58.7301 83.9888 58.7456C83.975 58.761 83.9583 58.7736 83.9396 58.7826C83.921 58.7916 83.9007 58.7969 83.88 58.798C83.8593 58.7992 83.8385 58.7962 83.819 58.7894Z" fill="#CCCCCC"/>
<path d="M83.1623 60.6749L79.6558 59.4538C79.6164 59.44 79.584 59.4111 79.5658 59.3735C79.5476 59.3359 79.5451 59.2925 79.5588 59.253C79.5726 59.2136 79.6014 59.1812 79.6391 59.163C79.6767 59.1448 79.72 59.1423 79.7595 59.156L83.266 60.3772C83.2856 60.384 83.3037 60.3946 83.3192 60.4083C83.3347 60.4221 83.3473 60.4388 83.3563 60.4574C83.3654 60.4761 83.3707 60.4963 83.3719 60.517C83.3731 60.5377 83.3702 60.5584 83.3634 60.578C83.3565 60.5976 83.3459 60.6156 83.3321 60.6311C83.3183 60.6466 83.3016 60.6592 83.283 60.6682C83.2643 60.6772 83.244 60.6824 83.2233 60.6836C83.2026 60.6847 83.1819 60.6818 83.1623 60.6749Z" fill="#CCCCCC"/>
<path d="M82.5056 62.5605L78.9991 61.3393C78.9596 61.3256 78.9272 61.2967 78.909 61.2591C78.8908 61.2214 78.8883 61.1781 78.9021 61.1386C78.9158 61.0991 78.9447 61.0667 78.9823 61.0485C79.02 61.0304 79.0633 61.0279 79.1028 61.0416L82.6093 62.2628C82.6488 62.2765 82.6812 62.3054 82.6994 62.343C82.7176 62.3807 82.7201 62.424 82.7063 62.4635C82.6926 62.503 82.6637 62.5354 82.626 62.5536C82.5884 62.5718 82.5451 62.5743 82.5056 62.5605Z" fill="#CCCCCC"/>
<path d="M91.8371 63.5821C91.8627 63.5208 91.8867 63.4586 91.9089 63.395C92.1971 62.5675 92.1447 61.6593 91.7633 60.8703C91.382 60.0814 90.7028 59.4762 89.8752 59.188L88.7227 62.4975L91.8371 63.5821Z" fill="#6C63FF"/>
<path d="M88.3875 62.6988L89.54 59.3893C88.9309 59.1772 88.2731 59.148 87.6476 59.3052C87.022 59.4625 86.4562 59.7994 86.0199 60.2744C85.5836 60.7493 85.2958 61.3416 85.1921 61.9782C85.0883 62.6148 85.1732 63.2678 85.4361 63.8568C85.6991 64.4457 86.1287 64.9448 86.6719 65.2925C87.2151 65.6402 87.8482 65.8214 88.4931 65.8136C89.1381 65.8058 89.7666 65.6094 90.3013 65.2486C90.8359 64.8879 91.2533 64.3786 91.502 63.7835L88.3875 62.6988Z" fill="#3F3D56"/>
<path d="M25.1779 56.3015L8.04691 63.3294C7.75271 63.4497 7.42279 63.4484 7.12954 63.3258C6.8363 63.2032 6.60367 62.9692 6.4827 62.6753L1.23864 49.8926C1.1505 49.6771 1.15145 49.4354 1.24129 49.2205C1.33113 49.0057 1.50252 48.8353 1.71785 48.7466L19.4279 41.4811C19.6472 41.3915 19.8931 41.3924 20.1117 41.4838C20.3302 41.5752 20.5036 41.7496 20.5937 41.9687L25.832 54.7373C25.9523 55.0315 25.951 55.3614 25.8284 55.6547C25.7058 55.9479 25.4718 56.1805 25.1779 56.3015Z" fill="#E6E6E6"/>
<path d="M8.66744 61.779L23.6473 55.6336C23.9325 55.5166 24.1596 55.291 24.2786 55.0066C24.3975 54.7221 24.3986 54.402 24.2816 54.1168L20.0471 43.7949C19.9891 43.6536 19.9039 43.5252 19.7963 43.4168C19.6887 43.3085 19.5609 43.2225 19.42 43.1636C19.2792 43.1047 19.1281 43.0741 18.9754 43.0736C18.8228 43.073 18.6715 43.1026 18.5303 43.1605L3.55041 49.306C3.40917 49.3639 3.28072 49.4491 3.1724 49.5567C3.06408 49.6643 2.97801 49.7922 2.91911 49.933C2.86021 50.0738 2.82963 50.2249 2.82911 50.3776C2.82859 50.5303 2.85815 50.6815 2.91609 50.8228L7.15063 61.1447C7.20858 61.286 7.29377 61.4144 7.40136 61.5227C7.50895 61.631 7.63682 61.7171 7.77767 61.776C7.91851 61.8349 8.06958 61.8655 8.22225 61.866C8.37492 61.8665 8.5262 61.837 8.66744 61.779Z" fill="white"/>
<path d="M19.9643 46.6098L19.744 46.7001L19.7591 46.7369L19.9793 46.6465L19.9643 46.6098Z" fill="#E6E6E6"/>
<path d="M19.3143 46.9194L18.8694 47.1019L18.8543 47.0652L19.2992 46.8827L19.3143 46.9194ZM18.4244 47.2844L17.9795 47.467L17.9645 47.4303L18.4094 47.2477L18.4244 47.2844ZM17.5346 47.6495L17.0897 47.832L17.0746 47.7953L17.5195 47.6128L17.5346 47.6495ZM16.6448 48.0145L16.1998 48.1971L16.1848 48.1604L16.6297 47.9778L16.6448 48.0145ZM15.7549 48.3796L15.31 48.5621L15.2949 48.5254L15.7399 48.3429L15.7549 48.3796ZM14.8651 48.7447L14.4202 48.9272L14.4051 48.8905L14.85 48.7079L14.8651 48.7447ZM13.9752 49.1097L13.5303 49.2922L13.5153 49.2555L13.9602 49.073L13.9752 49.1097ZM13.0854 49.4748L12.6405 49.6573L12.6254 49.6206L13.0703 49.4381L13.0854 49.4748ZM12.1956 49.8398L11.7506 50.0223L11.7356 49.9856L12.1805 49.8031L12.1956 49.8398ZM11.3057 50.2049L10.8608 50.3874L10.8458 50.3507L11.2907 50.1682L11.3057 50.2049ZM10.4159 50.5699L9.97097 50.7524L9.95591 50.7157L10.4008 50.5332L10.4159 50.5699ZM9.52605 50.935L9.08113 51.1175L9.06607 51.0808L9.51099 50.8983L9.52605 50.935ZM8.63621 51.3L8.19129 51.4826L8.17623 51.4458L8.62115 51.2633L8.63621 51.3ZM7.74637 51.6651L7.30145 51.8476L7.28639 51.8109L7.73131 51.6284L7.74637 51.6651ZM6.85653 52.0301L6.41162 52.2127L6.39656 52.176L6.84147 51.9934L6.85653 52.0301ZM5.9667 52.3952L5.52177 52.5777L5.50671 52.541L5.95164 52.3585L5.9667 52.3952Z" fill="#E6E6E6"/>
<path d="M5.06179 52.7235L4.84155 52.8139L4.85661 52.8506L5.07685 52.7602L5.06179 52.7235Z" fill="#E6E6E6"/>
<path d="M14.1337 52.99L13.9135 53.0803L13.9285 53.117L14.1487 53.0267L14.1337 52.99Z" fill="#E6E6E6"/>
<path d="M13.4902 53.2968L13.0519 53.4767L13.0369 53.4399L13.4752 53.2601L13.4902 53.2968ZM12.6136 53.6565L12.1753 53.8363L12.1602 53.7996L12.5985 53.6198L12.6136 53.6565ZM11.737 54.0161L11.2987 54.1959L11.2836 54.1592L11.7219 53.9794L11.737 54.0161ZM10.8604 54.3757L10.4221 54.5555L10.407 54.5188L10.8453 54.339L10.8604 54.3757ZM9.98375 54.7354L9.54543 54.9152L9.53037 54.8785L9.96869 54.6987L9.98375 54.7354ZM9.10712 55.095L8.66881 55.2748L8.65375 55.2381L9.09206 55.0583L9.10712 55.095ZM8.2305 55.4546L7.79219 55.6345L7.77713 55.5977L8.21544 55.4179L8.2305 55.4546ZM7.35388 55.8143L6.91557 55.9941L6.90051 55.9574L7.33882 55.7776L7.35388 55.8143Z" fill="#E6E6E6"/>
<path d="M6.46218 56.1372L6.24194 56.2275L6.257 56.2642L6.47724 56.1739L6.46218 56.1372Z" fill="#E6E6E6"/>
<path d="M10.5017 56.3668L10.2815 56.4572L10.2966 56.4939L10.5168 56.4036L10.5017 56.3668Z" fill="#E6E6E6"/>
<path d="M9.84553 56.6789L9.39457 56.8639L9.37951 56.8272L9.83047 56.6422L9.84553 56.6789ZM8.94361 57.0489L8.49265 57.2339L8.47759 57.1972L8.92855 57.0122L8.94361 57.0489ZM8.0417 57.4189L7.59074 57.6039L7.57568 57.5672L8.02664 57.3822L8.0417 57.4189Z" fill="#E6E6E6"/>
<path d="M7.12478 57.7522L6.90454 57.8426L6.9196 57.8793L7.13984 57.7889L7.12478 57.7522Z" fill="#E6E6E6"/>
<path d="M11.6323 59.123L11.4121 59.2133L11.4272 59.25L11.6474 59.1597L11.6323 59.123Z" fill="#E6E6E6"/>
<path d="M10.9763 59.4351L10.5253 59.6201L10.5102 59.5833L10.9612 59.3983L10.9763 59.4351ZM10.0743 59.8051L9.62339 59.9901L9.60833 59.9534L10.0593 59.7684L10.0743 59.8051ZM9.17243 60.1751L8.72148 60.3601L8.70642 60.3234L9.15738 60.1384L9.17243 60.1751Z" fill="#E6E6E6"/>
<path d="M8.25551 60.5084L8.03528 60.5987L8.05034 60.6354L8.27057 60.5451L8.25551 60.5084Z" fill="#E6E6E6"/>
<path d="M9.30347 60.1542L21.9979 54.9463C22.3051 54.8199 22.5496 54.5768 22.6778 54.2702C22.806 53.9637 22.8073 53.6189 22.6816 53.3114L20.1167 47.0594L20.0919 47.0705L16.9767 54.519L14.6663 53.5531C14.6236 53.5351 14.5774 53.5273 14.5313 53.5302C14.4851 53.5331 14.4402 53.5466 14.4001 53.5697C14.34 53.6059 14.2934 53.661 14.2677 53.7263L12.6351 57.6296L10.9458 56.9234C10.9093 56.9082 10.8702 56.9002 10.8307 56.9001C10.7912 56.9 10.7521 56.9076 10.7155 56.9226C10.6789 56.9376 10.6457 56.9597 10.6177 56.9875C10.5896 57.0154 10.5674 57.0485 10.5521 57.0849C10.5413 57.1114 9.49972 59.667 9.30347 60.1542Z" fill="#6C63FF"/>
<path d="M9.26438 60.2131L9.22778 60.1977L10.5341 57.0741C10.5686 56.9917 10.6345 56.9263 10.7172 56.8924C10.8 56.8584 10.8928 56.8587 10.9753 56.8931L12.6312 57.5856L14.2545 53.7038C14.2891 53.6214 14.355 53.556 14.4377 53.5221C14.5204 53.4881 14.6132 53.4884 14.6958 53.5228L16.9729 54.4751L20.1041 46.9875L20.1407 47.0029L16.9941 54.527L14.6804 53.5594C14.6444 53.5443 14.6057 53.5365 14.5667 53.5364C14.5276 53.5362 14.4889 53.5438 14.4527 53.5586C14.4166 53.5735 14.3837 53.5953 14.356 53.6228C14.3282 53.6504 14.3062 53.6831 14.2911 53.7191L12.6525 57.6375L10.96 56.9297C10.8872 56.8994 10.8053 56.8991 10.7323 56.9291C10.6593 56.959 10.6012 57.0167 10.5707 57.0894L9.26438 60.2131Z" fill="#3F3D56"/>
<path d="M10.5092 56.6629C10.6625 56.6629 10.7869 56.5386 10.7869 56.3852C10.7869 56.2318 10.6625 56.1075 10.5092 56.1075C10.3558 56.1075 10.2314 56.2318 10.2314 56.3852C10.2314 56.5386 10.3558 56.6629 10.5092 56.6629Z" fill="#3F3D56"/>
<path d="M14.1412 53.286C14.2946 53.286 14.419 53.1617 14.419 53.0083C14.419 52.8549 14.2946 52.7306 14.1412 52.7306C13.9879 52.7306 13.8635 52.8549 13.8635 53.0083C13.8635 53.1617 13.9879 53.286 14.1412 53.286Z" fill="#3F3D56"/>
<path d="M19.7966 46.8961C19.95 46.8961 20.0744 46.7717 20.0744 46.6183C20.0744 46.4649 19.95 46.3406 19.7966 46.3406C19.6433 46.3406 19.5189 46.4649 19.5189 46.6183C19.5189 46.7717 19.6433 46.8961 19.7966 46.8961Z" fill="#3F3D56"/>
</g>
<defs>
<clipPath id="clip0_486_7682">
<rect width="96.3529" height="72" fill="white" transform="translate(0.323486)"/>
</clipPath>
</defs>
</svg>
