<svg width="79" height="64" viewBox="0 0 79 64" fill="none" xmlns="http://www.w3.org/2000/svg">
<g clip-path="url(#clip0_486_7559)">
<path d="M50.986 47.8269C40.3446 47.8269 31.6873 39.1507 31.6873 28.4861C31.6873 17.8216 40.3446 9.14539 50.986 9.14539C52.111 9.14524 53.234 9.24276 54.3422 9.43684C54.356 9.43923 54.3692 9.44433 54.3811 9.45184C54.3929 9.45936 54.4032 9.46914 54.4112 9.48064C54.4193 9.49213 54.425 9.50511 54.4281 9.51882C54.4312 9.53254 54.4315 9.54672 54.4291 9.56057C54.4266 9.57441 54.4215 9.58764 54.414 9.5995C54.4065 9.61135 54.3967 9.6216 54.3852 9.62966C54.3737 9.63772 54.3607 9.64343 54.347 9.64645C54.3333 9.64948 54.3192 9.64978 54.3054 9.64731C53.2093 9.45541 52.0987 9.35897 50.986 9.3591C40.4622 9.3591 31.9005 17.9394 31.9005 28.4861C31.9005 39.0328 40.4622 47.6132 50.986 47.6132C61.5098 47.6132 70.0715 39.0328 70.0715 28.4861C70.0763 23.7191 68.3001 19.1231 65.0928 15.6028C65.0739 15.5818 65.0641 15.5542 65.0655 15.526C65.0668 15.4978 65.0793 15.4713 65.1001 15.4522C65.1209 15.4332 65.1484 15.4232 65.1766 15.4244C65.2047 15.4257 65.2313 15.438 65.2504 15.4588C68.4935 19.0184 70.2895 23.6659 70.2848 28.4861C70.2848 39.1507 61.6274 47.8269 50.986 47.8269Z" fill="#E4E4E4"/>
<path d="M59.4953 15.7785C61.6041 15.7785 63.3136 14.0653 63.3136 11.952C63.3136 9.83859 61.6041 8.12537 59.4953 8.12537C57.3865 8.12537 55.677 9.83859 55.677 11.952C55.677 14.0653 57.3865 15.7785 59.4953 15.7785Z" fill="#6C63FF"/>
<path d="M58.9744 13.9435C58.9085 13.9435 58.8435 13.9281 58.7845 13.8986C58.7255 13.869 58.6742 13.8261 58.6347 13.7732L57.593 12.3813C57.5595 12.3365 57.5352 12.2857 57.5213 12.2315C57.5075 12.1774 57.5044 12.121 57.5123 12.0657C57.5202 12.0103 57.5389 11.9571 57.5673 11.909C57.5957 11.8609 57.6333 11.8189 57.678 11.7854C57.7226 11.7518 57.7734 11.7274 57.8274 11.7135C57.8814 11.6997 57.9376 11.6966 57.9929 11.7045C58.0481 11.7124 58.1012 11.7312 58.1492 11.7596C58.1972 11.7881 58.2391 11.8258 58.2726 11.8705L58.9541 12.7811L60.7044 10.1499C60.7671 10.0563 60.8642 9.99149 60.9745 9.96956C61.0847 9.94764 61.1992 9.97042 61.2927 10.0329C61.3862 10.0954 61.4512 10.1925 61.4735 10.303C61.4957 10.4134 61.4733 10.5282 61.4112 10.6221L59.3279 13.754C59.2902 13.8106 59.2395 13.8574 59.18 13.8903C59.1206 13.9233 59.0541 13.9415 58.9862 13.9434C58.9823 13.9434 58.9784 13.9435 58.9744 13.9435Z" fill="white"/>
<path d="M50.4895 25.4847L44.6014 9.06844L44.7507 9.01465L43.6678 5.99526L43.5185 6.04911L41.7106 1.00882C41.643 0.820571 41.5392 0.647492 41.4049 0.499466C41.2707 0.35144 41.1086 0.231367 40.9281 0.146101C40.7475 0.0608351 40.5519 0.0120461 40.3526 0.00252123C40.1532 -0.00700361 39.9539 0.0229218 39.766 0.0905882L29.1216 3.92511C28.9338 3.99277 28.7611 4.09684 28.6133 4.2314C28.4656 4.36595 28.3458 4.52834 28.2607 4.7093C28.1756 4.89025 28.127 5.08624 28.1174 5.28605C28.1079 5.48587 28.1378 5.6856 28.2053 5.87385L29.4658 9.38824L29.2299 9.47929L30.0346 11.5733L30.2234 11.5004L30.3905 11.9662L30.1895 12.0438L30.9942 14.1379L31.1481 14.0785L36.9842 30.3497C37.0514 30.5382 37.1551 30.7115 37.2893 30.8597C37.4235 31.008 37.5856 31.1282 37.7662 31.2135C37.9469 31.2988 38.1426 31.3475 38.3421 31.3569C38.5416 31.3662 38.741 31.336 38.9288 31.268L49.5732 27.4335C49.9523 27.2964 50.2616 27.0143 50.4334 26.6489C50.6052 26.2836 50.6253 25.8649 50.4895 25.4847Z" fill="#3F3D56"/>
<path d="M38.369 30.727C38.2191 30.7266 38.0729 30.68 37.9503 30.5935C37.8278 30.507 37.7348 30.3848 37.684 30.2435L28.8124 5.50933C28.7471 5.32716 28.7567 5.12644 28.839 4.95133C28.9213 4.77622 29.0697 4.64105 29.2515 4.57555L31.5163 3.75969L31.5129 3.8391C31.5071 3.97695 31.5352 4.11412 31.5947 4.23852C31.6543 4.36292 31.7434 4.47074 31.8544 4.55247C31.9653 4.6342 32.0946 4.68734 32.2308 4.70721C32.367 4.72707 32.5061 4.71306 32.6356 4.66639L37.6619 2.85576C37.7832 2.80005 37.8898 2.7165 37.9729 2.61187C38.056 2.50724 38.1134 2.38447 38.1404 2.2535C38.1671 2.1247 38.1631 1.9914 38.1286 1.86448C38.0941 1.73755 38.0302 1.62059 37.942 1.52314L37.8889 1.46403L40.2283 0.621243C40.4101 0.556031 40.6103 0.565733 40.785 0.648224C40.9597 0.730715 41.0946 0.879261 41.1602 1.06129L49.6244 24.6597C49.7971 25.1432 49.7715 25.6755 49.5531 26.14C49.3346 26.6045 48.9413 26.9633 48.4593 27.1375L38.6158 30.6835C38.5366 30.7122 38.4531 30.7269 38.369 30.727Z" fill="white"/>
<path d="M37.5017 13.1834C39.0917 13.1834 40.3806 11.8917 40.3806 10.2984C40.3806 8.70497 39.0917 7.41327 37.5017 7.41327C35.9118 7.41327 34.6229 8.70497 34.6229 10.2984C34.6229 11.8917 35.9118 13.1834 37.5017 13.1834Z" fill="#6C63FF"/>
<path d="M44.6354 14.494L34.6659 18.0854C34.6348 18.0966 34.6017 18.1017 34.5686 18.1002C34.5355 18.0986 34.5031 18.0906 34.4731 18.0765C34.4431 18.0624 34.4162 18.0425 34.3939 18.0179C34.3717 17.9934 34.3544 17.9647 34.3432 17.9334C34.332 17.9022 34.3271 17.8691 34.3287 17.8359C34.3303 17.8028 34.3384 17.7702 34.3525 17.7402C34.3667 17.7102 34.3866 17.6833 34.4111 17.661C34.4357 17.6387 34.4644 17.6215 34.4955 17.6104L44.465 14.019C44.5278 13.9966 44.597 14 44.6572 14.0285C44.7175 14.0571 44.764 14.1085 44.7866 14.1713C44.8091 14.2342 44.8059 14.3035 44.7775 14.364C44.7492 14.4244 44.6981 14.4712 44.6354 14.494Z" fill="#E6E6E6"/>
<path d="M41.6748 16.7711L38.3956 17.9524C38.3644 17.9637 38.3314 17.9687 38.2983 17.9671C38.2652 17.9656 38.2328 17.9576 38.2028 17.9434C38.1728 17.9293 38.146 17.9094 38.1237 17.8849C38.1014 17.8603 38.0842 17.8316 38.073 17.8004C38.0618 17.7692 38.0568 17.736 38.0584 17.7029C38.06 17.6698 38.0681 17.6373 38.0822 17.6072C38.0964 17.5772 38.1163 17.5503 38.1408 17.528C38.1654 17.5058 38.194 17.4885 38.2252 17.4774L41.5045 16.2961C41.5673 16.2734 41.6366 16.2767 41.697 16.3053C41.7574 16.3338 41.804 16.3852 41.8266 16.4482C41.8492 16.5112 41.8459 16.5806 41.8174 16.6411C41.789 16.7017 41.7377 16.7484 41.6748 16.7711Z" fill="#E6E6E6"/>
<path d="M42.4548 18.9457L39.1755 20.127C39.1444 20.1382 39.1114 20.1432 39.0783 20.1416C39.0453 20.14 39.0129 20.1319 38.983 20.1178C38.9531 20.1037 38.9262 20.0838 38.904 20.0593C38.8817 20.0347 38.8645 20.0061 38.8533 19.9749C38.8422 19.9437 38.8372 19.9106 38.8388 19.8775C38.8404 19.8444 38.8484 19.8119 38.8625 19.7819C38.8766 19.7519 38.8965 19.725 38.9209 19.7027C38.9454 19.6805 38.974 19.6632 39.0051 19.652L42.2844 18.4707C42.3472 18.448 42.4165 18.4514 42.4769 18.4799C42.5373 18.5084 42.584 18.5598 42.6066 18.6228C42.6291 18.6858 42.6258 18.7552 42.5974 18.8158C42.5689 18.8763 42.5176 18.923 42.4548 18.9457Z" fill="#E6E6E6"/>
<path d="M42.8543 20.0594L39.575 21.2407C39.5439 21.2521 39.5108 21.2571 39.4777 21.2556C39.4447 21.2541 39.4122 21.246 39.3822 21.2319C39.3522 21.2178 39.3253 21.1979 39.303 21.1734C39.2807 21.1488 39.2635 21.1201 39.2523 21.0889C39.2411 21.0576 39.2361 21.0245 39.2377 20.9913C39.2393 20.9582 39.2474 20.9256 39.2616 20.8956C39.2757 20.8656 39.2957 20.8387 39.3202 20.8164C39.3448 20.7941 39.3735 20.7769 39.4047 20.7658L42.6839 19.5845C42.7151 19.5732 42.7481 19.5681 42.7812 19.5697C42.8143 19.5712 42.8467 19.5792 42.8767 19.5933C42.9067 19.6075 42.9336 19.6274 42.9559 19.6519C42.9782 19.6765 42.9954 19.7052 43.0066 19.7364C43.0178 19.7676 43.0228 19.8008 43.0212 19.8339C43.0196 19.8671 43.0115 19.8996 42.9973 19.9296C42.9832 19.9596 42.9632 19.9865 42.9387 20.0088C42.9142 20.0311 42.8855 20.0483 42.8543 20.0594Z" fill="#E6E6E6"/>
<path d="M43.8984 17.1806L36.9409 19.6869C36.9098 19.6982 36.8767 19.7033 36.8437 19.7017C36.8106 19.7002 36.7781 19.6922 36.7481 19.6781C36.7182 19.6639 36.6913 19.644 36.669 19.6195C36.6467 19.595 36.6294 19.5662 36.6182 19.535C36.607 19.5038 36.6021 19.4706 36.6037 19.4375C36.6053 19.4043 36.6134 19.3718 36.6275 19.3418C36.6417 19.3118 36.6616 19.2849 36.6862 19.2626C36.7107 19.2403 36.7394 19.2231 36.7706 19.212L43.728 16.7056C43.7592 16.6943 43.7922 16.6893 43.8253 16.6908C43.8584 16.6923 43.8908 16.7004 43.9208 16.7145C43.9508 16.7286 43.9777 16.7485 44 16.7731C44.0223 16.7976 44.0395 16.8263 44.0507 16.8576C44.0619 16.8888 44.0669 16.9219 44.0653 16.9551C44.0637 16.9882 44.0556 17.0207 44.0414 17.0507C44.0273 17.0807 44.0074 17.1077 43.9828 17.1299C43.9583 17.1522 43.9296 17.1694 43.8984 17.1806Z" fill="#E6E6E6"/>
<path d="M42.4971 22.7632L41.3064 23.1922C41.1996 23.2306 41.0819 23.2249 40.9792 23.1764C40.8765 23.1278 40.7973 23.0404 40.7589 22.9334C40.7205 22.8263 40.7261 22.7084 40.7744 22.6054C40.8228 22.5025 40.9099 22.423 41.0167 22.3845L42.2074 21.9556C42.3142 21.9171 42.4319 21.9228 42.5346 21.9714C42.6373 22.0199 42.7165 22.1073 42.7549 22.2143C42.7933 22.3214 42.7877 22.4393 42.7394 22.5423C42.691 22.6452 42.6039 22.7247 42.4971 22.7632Z" fill="#6C63FF"/>
<path d="M33.1141 3.83964C33.2055 3.83964 33.2797 3.76534 33.2797 3.6737C33.2797 3.58205 33.2055 3.50775 33.1141 3.50775C33.0226 3.50775 32.9485 3.58205 32.9485 3.6737C32.9485 3.76534 33.0226 3.83964 33.1141 3.83964Z" fill="white"/>
<path d="M68.288 49.9418C68.4393 49.3632 68.8027 48.863 69.3057 48.5409C69.3556 48.5091 69.3036 48.4332 69.2538 48.465C68.731 48.8011 68.3539 49.3225 68.1977 49.925C68.1828 49.9824 68.2732 49.999 68.288 49.9418Z" fill="white"/>
<path d="M77.8759 35.5935L74.7903 40.7973L74.9076 40.8593L73.8626 42.8447L73.6451 42.7293L72.9585 43.8865L73.1291 43.9848L72.0095 45.9275L71.8155 45.8152L61.7471 62.7966C61.483 63.2411 61.0538 63.5623 60.5537 63.6899C60.0536 63.8175 59.5233 63.7411 59.0794 63.4773L40.3617 52.3313C39.9182 52.0667 39.5976 51.6366 39.4703 51.1353C39.3429 50.6341 39.4193 50.1027 39.6825 49.6578L55.8114 22.4546C56.0754 22.0102 56.5046 21.689 57.0048 21.5613C57.5049 21.4337 58.0351 21.5102 58.4791 21.774L77.1967 32.92C77.64 33.1847 77.9605 33.6149 78.0878 34.116C78.2151 34.6172 78.1389 35.1485 77.8759 35.5935Z" fill="#3F3D56"/>
<path d="M59.7464 62.4273L40.9628 51.2421C40.8262 51.1605 40.7274 51.0279 40.6881 50.8734C40.6489 50.7189 40.6724 50.5551 40.7535 50.4179L56.9894 23.0338C57.0708 22.8969 57.2031 22.7979 57.3573 22.7585C57.5114 22.7192 57.6749 22.7428 57.8117 22.824L76.5953 34.0093C76.732 34.0908 76.8308 34.2234 76.87 34.3779C76.9092 34.5324 76.8857 34.6962 76.8046 34.8334L60.5688 62.2175C60.4873 62.3544 60.355 62.4535 60.2009 62.4928C60.0467 62.5321 59.8833 62.5085 59.7464 62.4273Z" fill="white"/>
<path d="M67.4622 27.9839C67.5537 27.9839 67.6278 27.9096 67.6278 27.8179C67.6278 27.7263 67.5537 27.652 67.4622 27.652C67.3708 27.652 67.2966 27.7263 67.2966 27.8179C67.2966 27.9096 67.3708 27.9839 67.4622 27.9839Z" fill="white"/>
<path d="M66.4375 47.6002L50.7578 38.2633C50.7087 38.2343 50.6657 38.1958 50.6314 38.1501C50.5971 38.1044 50.5721 38.0523 50.5579 37.9969C50.5437 37.9415 50.5406 37.8839 50.5487 37.8273C50.5568 37.7706 50.576 37.7162 50.6051 37.667C50.6343 37.6178 50.6729 37.5749 50.7186 37.5407C50.7643 37.5065 50.8164 37.4817 50.8717 37.4677C50.927 37.4537 50.9846 37.4508 51.0411 37.4591C51.0975 37.4675 51.1518 37.4869 51.2007 37.5163L66.8804 46.8531C66.9295 46.8822 66.9725 46.9206 67.0068 46.9664C67.0411 47.0121 67.0661 47.0641 67.0803 47.1195C67.0945 47.1749 67.0976 47.2326 67.0895 47.2892C67.0814 47.3458 67.0622 47.4003 67.033 47.4494C67.0039 47.4986 66.9653 47.5415 66.9196 47.5757C66.8738 47.6099 66.8218 47.6348 66.7665 47.6488C66.7111 47.6628 66.6536 47.6657 66.5971 47.6573C66.5407 47.649 66.4864 47.6296 66.4375 47.6002Z" fill="#E6E6E6"/>
<path d="M60.1768 46.1534L55.0193 43.0822C54.9703 43.0531 54.9276 43.0146 54.8935 42.9689C54.8594 42.9232 54.8346 42.8712 54.8205 42.8159C54.8065 42.7606 54.8034 42.7031 54.8116 42.6466C54.8197 42.5901 54.8389 42.5358 54.868 42.4867C54.897 42.4377 54.9355 42.3948 54.9811 42.3607C55.0267 42.3265 55.0786 42.3017 55.1338 42.2876C55.1889 42.2735 55.2464 42.2705 55.3027 42.2786C55.3591 42.2868 55.4133 42.306 55.4622 42.3352L60.6197 45.4063C60.6686 45.4355 60.7114 45.474 60.7455 45.5197C60.7795 45.5654 60.8043 45.6174 60.8184 45.6727C60.8324 45.728 60.8354 45.7855 60.8273 45.842C60.8192 45.8984 60.8 45.9527 60.7709 46.0018C60.7418 46.0509 60.7034 46.0937 60.6578 46.1278C60.6122 46.162 60.5603 46.1868 60.5052 46.2009C60.45 46.215 60.3926 46.218 60.3362 46.2099C60.2799 46.2017 60.2257 46.1825 60.1768 46.1534Z" fill="#E6E6E6"/>
<path d="M58.149 49.5735L52.9916 46.5023C52.8927 46.4434 52.8213 46.3476 52.7929 46.236C52.7646 46.1243 52.7816 46.0059 52.8404 45.9069C52.8991 45.8078 52.9947 45.7362 53.1061 45.7078C53.2175 45.6793 53.3356 45.6964 53.4345 45.7553L58.5919 48.8264C58.6409 48.8556 58.6836 48.8941 58.7177 48.9398C58.7518 48.9855 58.7766 49.0375 58.7906 49.0928C58.8047 49.148 58.8077 49.2056 58.7996 49.262C58.7914 49.3185 58.7723 49.3728 58.7432 49.4219C58.7141 49.4709 58.6757 49.5138 58.6301 49.5479C58.5845 49.5821 58.5326 49.6069 58.4774 49.621C58.4223 49.6351 58.3649 49.6381 58.3085 49.63C58.2522 49.6218 58.198 49.6026 58.149 49.5735Z" fill="#E6E6E6"/>
<path d="M57.1104 51.3252L51.953 48.2541C51.9039 48.225 51.861 48.1865 51.8268 48.1408C51.7925 48.0951 51.7676 48.0431 51.7535 47.9877C51.7394 47.9324 51.7363 47.8747 51.7444 47.8182C51.7525 47.7616 51.7717 47.7072 51.8008 47.6581C51.8299 47.609 51.8685 47.5661 51.9141 47.5319C51.9598 47.4977 52.0118 47.4729 52.0671 47.4589C52.1223 47.4448 52.1798 47.4419 52.2363 47.4501C52.2927 47.4584 52.3469 47.4777 52.3959 47.507L57.5533 50.5782C57.6025 50.6072 57.6455 50.6457 57.6798 50.6914C57.7141 50.7371 57.7391 50.7892 57.7533 50.8446C57.7675 50.9 57.7706 50.9577 57.7625 51.0143C57.7544 51.0709 57.7352 51.1254 57.7061 51.1745C57.6769 51.2237 57.6384 51.2666 57.5926 51.3008C57.5469 51.335 57.4948 51.3599 57.4395 51.3739C57.3841 51.3879 57.3266 51.3908 57.2701 51.3824C57.2136 51.3741 57.1594 51.3546 57.1104 51.3252Z" fill="#E6E6E6"/>
<path d="M62.0695 49.5618L51.1271 43.0459C51.0287 42.9868 50.9578 42.891 50.9297 42.7796C50.9016 42.6681 50.9188 42.5501 50.9773 42.4513C51.0359 42.3525 51.1312 42.281 51.2422 42.2524C51.3533 42.2238 51.4712 42.2405 51.57 42.2988L62.5124 48.8148C62.5616 48.8438 62.6046 48.8823 62.6389 48.928C62.6732 48.9737 62.6982 49.0258 62.7124 49.0812C62.7265 49.1366 62.7297 49.1942 62.7216 49.2509C62.7135 49.3075 62.6943 49.3619 62.6651 49.4111C62.636 49.4603 62.5974 49.5032 62.5517 49.5374C62.5059 49.5716 62.4539 49.5965 62.3985 49.6105C62.3432 49.6245 62.2856 49.6274 62.2292 49.619C62.1727 49.6107 62.1184 49.5912 62.0695 49.5618Z" fill="#E6E6E6"/>
<path d="M59.9839 57.8892L58.1113 56.7741C57.9434 56.6739 57.8221 56.511 57.774 56.3212C57.7259 56.1315 57.755 55.9303 57.8548 55.762C57.9546 55.5937 58.117 55.4719 58.3063 55.4235C58.4956 55.3751 58.6963 55.404 58.8644 55.5038L60.7371 56.6189C60.9051 56.719 61.0267 56.8819 61.0749 57.0718C61.1231 57.2617 61.0941 57.463 60.9943 57.6315C60.8944 57.7999 60.7318 57.9217 60.5423 57.9701C60.3529 58.0184 60.152 57.9893 59.9839 57.8892Z" fill="#6C63FF"/>
<path d="M63.4778 39.7836C65.5977 39.7836 67.3163 38.0614 67.3163 35.9369C67.3163 33.8123 65.5977 32.0901 63.4778 32.0901C61.3579 32.0901 59.6394 33.8123 59.6394 35.9369C59.6394 38.0614 61.3579 39.7836 63.4778 39.7836Z" fill="#6C63FF"/>
<path d="M0.545166 51.5688H52.4898V21.4306C52.4896 21.2048 52.4 20.9883 52.2406 20.8286C52.0813 20.6689 51.8653 20.5791 51.64 20.5789H1.39506C1.16973 20.5791 0.953712 20.6689 0.794382 20.8286C0.635052 20.9883 0.545426 21.2048 0.545166 21.4306V51.5688Z" fill="#CACACA"/>
<path d="M50.885 21.7568H2.15015V49.4847H50.885V21.7568Z" fill="white"/>
<path d="M0.5 50.7533V54.4724C0.499998 54.6266 0.530299 54.7792 0.589171 54.9217C0.648043 55.0641 0.734335 55.1935 0.843118 55.3026C0.951901 55.4116 1.08105 55.4981 1.22318 55.5571C1.36531 55.6161 1.51765 55.6464 1.67149 55.6464H20.8439V62.9862H20.5892C20.5692 62.9862 20.5494 62.9901 20.5309 62.9978C20.5125 63.0054 20.4957 63.0167 20.4816 63.0308C20.4674 63.045 20.4562 63.0618 20.4486 63.0803C20.4409 63.0988 20.437 63.1186 20.437 63.1387V63.6492C20.437 63.6692 20.4409 63.689 20.4486 63.7076C20.4562 63.7261 20.4674 63.7429 20.4816 63.757C20.4957 63.7712 20.5125 63.7824 20.5309 63.7901C20.5494 63.7978 20.5692 63.8017 20.5892 63.8017H32.4911C32.5111 63.8017 32.5309 63.7978 32.5494 63.7901C32.5678 63.7824 32.5846 63.7712 32.5987 63.757C32.6129 63.7429 32.6241 63.7261 32.6317 63.7076C32.6394 63.689 32.6433 63.6692 32.6433 63.6492V63.1387C32.6433 63.1187 32.6394 63.0988 32.6317 63.0803C32.6241 63.0618 32.6129 63.045 32.5987 63.0308C32.5846 63.0167 32.5678 63.0054 32.5494 62.9978C32.5309 62.9901 32.5111 62.9862 32.4911 62.9862H32.2364V55.6465H51.4088C51.5627 55.6465 51.715 55.6161 51.8571 55.5571C51.9993 55.4981 52.1284 55.4116 52.2372 55.3026C52.346 55.1936 52.4323 55.0641 52.4911 54.9217C52.55 54.7792 52.5803 54.6266 52.5803 54.4724V50.7533L0.5 50.7533Z" fill="#3F3D56"/>
<path d="M43.833 31.0301H20.754C20.6085 31.0301 20.469 30.9722 20.3661 30.8691C20.2632 30.766 20.2054 30.6261 20.2054 30.4803C20.2054 30.3345 20.2632 30.1947 20.3661 30.0916C20.469 29.9885 20.6085 29.9305 20.754 29.9305H43.833C43.9785 29.9305 44.118 29.9885 44.2209 30.0916C44.3238 30.1947 44.3816 30.3345 44.3816 30.4803C44.3816 30.6261 44.3238 30.766 44.2209 30.8691C44.118 30.9722 43.9785 31.0301 43.833 31.0301Z" fill="#E6E6E6"/>
<path d="M36.0891 33.5118H28.4978C28.3523 33.5118 28.2128 33.4539 28.1099 33.3508C28.007 33.2477 27.9492 33.1078 27.9492 32.962C27.9492 32.8162 28.007 32.6764 28.1099 32.5733C28.2128 32.4702 28.3523 32.4122 28.4978 32.4122H36.0891C36.2346 32.4122 36.3742 32.4702 36.4771 32.5733C36.5799 32.6764 36.6377 32.8162 36.6377 32.962C36.6377 33.1078 36.5799 33.2477 36.4771 33.3508C36.3742 33.4539 36.2346 33.5118 36.0891 33.5118Z" fill="#E6E6E6"/>
<path d="M36.0891 38.5459H28.4978C28.3523 38.5459 28.2128 38.488 28.1099 38.3849C28.007 38.2818 27.9492 38.142 27.9492 37.9961C27.9492 37.8503 28.007 37.7105 28.1099 37.6074C28.2128 37.5043 28.3523 37.4464 28.4978 37.4464H36.0891C36.2346 37.4464 36.3742 37.5043 36.4771 37.6074C36.5799 37.7105 36.6377 37.8503 36.6377 37.9961C36.6377 38.142 36.5799 38.2818 36.4771 38.3849C36.3742 38.488 36.2346 38.5459 36.0891 38.5459Z" fill="#E6E6E6"/>
<path d="M36.0892 41.1243H28.4979C28.4259 41.1243 28.3545 41.1101 28.288 41.0825C28.2214 41.0548 28.161 41.0143 28.11 40.9633C28.0591 40.9122 28.0187 40.8516 27.9911 40.7849C27.9635 40.7182 27.9493 40.6467 27.9493 40.5746C27.9493 40.5024 27.9635 40.4309 27.9911 40.3642C28.0187 40.2975 28.0591 40.2369 28.11 40.1858C28.161 40.1348 28.2214 40.0943 28.288 40.0666C28.3545 40.039 28.4259 40.0248 28.4979 40.0248H36.0892C36.1613 40.0248 36.2326 40.039 36.2992 40.0666C36.3657 40.0943 36.4262 40.1348 36.4771 40.1858C36.5281 40.2369 36.5685 40.2975 36.596 40.3642C36.6236 40.4309 36.6378 40.5024 36.6378 40.5746C36.6378 40.6467 36.6236 40.7182 36.596 40.7849C36.5685 40.8516 36.5281 40.9122 36.4771 40.9633C36.4262 41.0143 36.3657 41.0548 36.2992 41.0825C36.2326 41.1101 36.1613 41.1243 36.0892 41.1243Z" fill="#E6E6E6"/>
<path d="M40.3466 35.9936H24.2403C24.0949 35.9936 23.9553 35.9357 23.8524 35.8326C23.7496 35.7295 23.6918 35.5896 23.6918 35.4438C23.6918 35.298 23.7496 35.1582 23.8524 35.0551C23.9553 34.952 24.0949 34.894 24.2403 34.894H40.3466C40.4921 34.894 40.6316 34.952 40.7345 35.0551C40.8373 35.1582 40.8951 35.298 40.8951 35.4438C40.8951 35.5896 40.8373 35.7295 40.7345 35.8326C40.6316 35.9357 40.4921 35.9936 40.3466 35.9936Z" fill="#E6E6E6"/>
<path d="M43.4487 46.4034H40.6924C40.445 46.4034 40.2077 46.3049 40.0327 46.1296C39.8578 45.9543 39.7595 45.7165 39.7595 45.4686C39.7595 45.2206 39.8578 44.9828 40.0327 44.8075C40.2077 44.6322 40.445 44.5337 40.6924 44.5337H43.4487C43.6961 44.5337 43.9334 44.6322 44.1084 44.8075C44.2833 44.9828 44.3816 45.2206 44.3816 45.4686C44.3816 45.7165 44.2833 45.9543 44.1084 46.1296C43.9334 46.3049 43.6961 46.4034 43.4487 46.4034Z" fill="#6C63FF"/>
<path d="M13.4968 39.6182C16.1466 39.6182 18.2948 37.4653 18.2948 34.8097C18.2948 32.154 16.1466 30.0012 13.4968 30.0012C10.8469 30.0012 8.69873 32.154 8.69873 34.8097C8.69873 37.4653 10.8469 39.6182 13.4968 39.6182Z" fill="#6C63FF"/>
<path d="M69.6434 64H0.626953C0.593347 63.9999 0.56115 63.9865 0.537421 63.9626C0.513692 63.9388 0.500366 63.9065 0.500366 63.8728C0.500366 63.8391 0.513692 63.8068 0.537421 63.7829C0.56115 63.7591 0.593347 63.7456 0.626953 63.7455H69.6434C69.677 63.7456 69.7092 63.7591 69.7329 63.7829C69.7566 63.8068 69.77 63.8391 69.77 63.8728C69.77 63.9065 69.7566 63.9388 69.7329 63.9626C69.7092 63.9865 69.677 63.9999 69.6434 64Z" fill="#CACACA"/>
<path d="M26.4949 21.1678C26.5948 21.1678 26.6758 21.0867 26.6758 20.9866C26.6758 20.8865 26.5948 20.8054 26.4949 20.8054C26.3951 20.8054 26.3141 20.8865 26.3141 20.9866C26.3141 21.0867 26.3951 21.1678 26.4949 21.1678Z" fill="white"/>
</g>
<defs>
<clipPath id="clip0_486_7559">
<rect width="78" height="64" fill="white" transform="translate(0.5)"/>
</clipPath>
</defs>
</svg>
