<svg width="111" height="75" viewBox="0 0 111 75" fill="none" xmlns="http://www.w3.org/2000/svg">
<g clip-path="url(#clip0_486_7598)">
<path d="M13.335 17.1167H13.0413V32.7705H13.335V17.1167Z" fill="#3F3D56"/>
<path d="M13.335 37.4302H13.0413V51.2039H13.335V37.4302Z" fill="#3F3D56"/>
<path d="M35.3647 53.3984H12.6007V53.691H35.3647V53.3984Z" fill="#3F3D56"/>
<path d="M3.20132 57.3484H2.90759V69.7836H3.20132V57.3484Z" fill="#3F3D56"/>
<path d="M40.0644 71.9781H5.55115V72.2707H40.0644V71.9781Z" fill="#3F3D56"/>
<path d="M68.8499 7.16852H68.5562V21.9445H68.8499V7.16852Z" fill="#3F3D56"/>
<path d="M66.3532 24.2853H44.759V24.5779H66.3532V24.2853Z" fill="#3F3D56"/>
<path d="M42.5611 26.626H42.2673V46.3761H42.5611V26.626Z" fill="#3F3D56"/>
<path d="M13.1881 37.5983C12.6943 37.5983 12.2116 37.4524 11.801 37.1792C11.3904 36.9059 11.0704 36.5175 10.8815 36.063C10.6925 35.6086 10.643 35.1085 10.7394 34.6261C10.8357 34.1436 11.0735 33.7005 11.4227 33.3526C11.7718 33.0048 12.2167 32.768 12.701 32.672C13.1853 32.576 13.6873 32.6253 14.1436 32.8135C14.5998 33.0018 14.9897 33.3205 15.264 33.7295C15.5384 34.1385 15.6848 34.6194 15.6848 35.1113C15.6841 35.7706 15.4208 36.4028 14.9527 36.8691C14.4847 37.3353 13.8501 37.5976 13.1881 37.5983ZM13.1881 32.9168C12.7524 32.9168 12.3265 33.0455 11.9642 33.2866C11.6019 33.5278 11.3196 33.8705 11.1528 34.2715C10.9861 34.6725 10.9425 35.1137 11.0275 35.5394C11.1125 35.9651 11.3223 36.3561 11.6304 36.663C11.9385 36.9699 12.331 37.1789 12.7583 37.2635C13.1857 37.3482 13.6286 37.3048 14.0311 37.1387C14.4337 36.9726 14.7778 36.6913 15.0198 36.3304C15.2619 35.9696 15.3911 35.5453 15.3911 35.1113C15.3904 34.5294 15.1581 33.9717 14.7451 33.5603C14.3321 33.1489 13.7722 32.9174 13.1881 32.9168Z" fill="#3F3D56"/>
<path d="M3.20129 74.6114C2.70749 74.6114 2.22478 74.4656 1.8142 74.1923C1.40362 73.919 1.08361 73.5306 0.894642 73.0761C0.705673 72.6217 0.656228 72.1216 0.752564 71.6392C0.8489 71.1567 1.08669 70.7136 1.43586 70.3658C1.78503 70.0179 2.2299 69.7811 2.71421 69.6851C3.19852 69.5892 3.70053 69.6384 4.15674 69.8266C4.61295 70.0149 5.00288 70.3337 5.27723 70.7426C5.55157 71.1516 5.698 71.6325 5.698 72.1244C5.69726 72.7838 5.43398 73.4159 4.96591 73.8822C4.49785 74.3484 3.86323 74.6107 3.20129 74.6114ZM3.20129 69.9299C2.76559 69.9299 2.33967 70.0586 1.97739 70.2998C1.61511 70.5409 1.33275 70.8836 1.16601 71.2846C0.999273 71.6856 0.955649 72.1268 1.04065 72.5525C1.12565 72.9782 1.33546 73.3692 1.64355 73.6761C1.95165 73.983 2.34418 74.192 2.77152 74.2767C3.19885 74.3613 3.64179 74.3179 4.04433 74.1518C4.44687 73.9857 4.79093 73.7044 5.033 73.3436C5.27506 72.9827 5.40427 72.5584 5.40427 72.1244C5.40362 71.5426 5.17131 70.9848 4.75831 70.5734C4.34532 70.162 3.78536 69.9306 3.20129 69.9299Z" fill="#3F3D56"/>
<path d="M13.3349 55.8854C14.6327 55.8854 15.6848 54.8374 15.6848 53.5447C15.6848 52.2519 14.6327 51.2039 13.3349 51.2039C12.0372 51.2039 10.9851 52.2519 10.9851 53.5447C10.9851 54.8374 12.0372 55.8854 13.3349 55.8854Z" fill="#6C63FF"/>
<path d="M98.3697 34.965H73.9901V35.2576H98.3697V34.965Z" fill="#3F3D56"/>
<path d="M71.7871 37.4302H71.4934V51.2039H71.7871V37.4302Z" fill="#3F3D56"/>
<path d="M69.1436 53.3984H49.6106V53.691H69.1436V53.3984Z" fill="#3F3D56"/>
<path d="M104.244 54.715H83.9769V55.0076H104.244V54.715Z" fill="#3F3D56"/>
<path d="M81.9208 57.3484H81.6271V69.7836H81.9208V57.3484Z" fill="#3F3D56"/>
<path d="M79.2773 71.9781H44.764V72.2707H79.2773V71.9781Z" fill="#3F3D56"/>
<path d="M42.5611 60.7132H42.2673V69.7836H42.5611V60.7132Z" fill="#3F3D56"/>
<path d="M71.6402 37.452C72.938 37.452 73.9901 36.404 73.9901 35.1113C73.9901 33.8185 72.938 32.7705 71.6402 32.7705C70.3425 32.7705 69.2904 33.8185 69.2904 35.1113C69.2904 36.404 70.3425 37.452 71.6402 37.452Z" fill="#6C63FF"/>
<path d="M68.703 26.7723C68.2092 26.7723 67.7265 26.6265 67.3159 26.3532C66.9053 26.0799 66.5853 25.6915 66.3964 25.237C66.2074 24.7826 66.1579 24.2825 66.2543 23.8001C66.3506 23.3176 66.5884 22.8745 66.9376 22.5267C67.2867 22.1788 67.7316 21.942 68.2159 21.846C68.7002 21.75 69.2022 21.7993 69.6584 21.9875C70.1147 22.1758 70.5046 22.4945 70.7789 22.9035C71.0533 23.3125 71.1997 23.7934 71.1997 24.2853C71.199 24.9446 70.9357 25.5768 70.4676 26.0431C69.9996 26.5093 69.3649 26.7716 68.703 26.7723ZM68.703 22.0908C68.2673 22.0908 67.8414 22.2195 67.4791 22.4606C67.1168 22.7018 66.8345 23.0445 66.6677 23.4455C66.501 23.8465 66.4574 24.2877 66.5424 24.7134C66.6274 25.1391 66.8372 25.5301 67.1453 25.837C67.4534 26.1439 67.8459 26.3529 68.2732 26.4376C68.7006 26.5222 69.1435 26.4788 69.546 26.3127C69.9486 26.1466 70.2926 25.8653 70.5347 25.5044C70.7768 25.1436 70.906 24.7193 70.906 24.2853C70.9053 23.7035 70.673 23.1457 70.26 22.7343C69.847 22.3229 69.2871 22.0915 68.703 22.0908Z" fill="#3F3D56"/>
<path d="M42.4142 26.7723C41.9204 26.7723 41.4377 26.6265 41.0271 26.3532C40.6165 26.0799 40.2965 25.6915 40.1075 25.237C39.9186 24.7826 39.8691 24.2825 39.9655 23.8001C40.0618 23.3176 40.2996 22.8745 40.6487 22.5267C40.9979 22.1788 41.4428 21.942 41.9271 21.846C42.4114 21.75 42.9134 21.7993 43.3696 21.9875C43.8258 22.1758 44.2158 22.4945 44.4901 22.9035C44.7645 23.3125 44.9109 23.7934 44.9109 24.2853C44.9101 24.9446 44.6469 25.5768 44.1788 26.0431C43.7107 26.5093 43.0761 26.7716 42.4142 26.7723ZM42.4142 22.0908C41.9785 22.0908 41.5526 22.2195 41.1903 22.4606C40.828 22.7018 40.5456 23.0445 40.3789 23.4455C40.2122 23.8465 40.1685 24.2877 40.2535 24.7134C40.3385 25.1391 40.5484 25.5301 40.8564 25.837C41.1645 26.1439 41.5571 26.3529 41.9844 26.4376C42.4117 26.5222 42.8547 26.4788 43.2572 26.3127C43.6598 26.1466 44.0038 25.8653 44.2459 25.5044C44.488 25.1436 44.6172 24.7193 44.6172 24.2853C44.6165 23.7035 44.3842 23.1457 43.9712 22.7343C43.5582 22.3229 42.9982 22.0915 42.4142 22.0908Z" fill="#3F3D56"/>
<path d="M81.6271 57.4947C81.1333 57.4947 80.6506 57.3488 80.24 57.0755C79.8294 56.8022 79.5094 56.4138 79.3204 55.9594C79.1315 55.5049 79.082 55.0049 79.1783 54.5224C79.2747 54.04 79.5125 53.5968 79.8616 53.249C80.2108 52.9012 80.6557 52.6643 81.14 52.5684C81.6243 52.4724 82.1263 52.5216 82.5825 52.7099C83.0387 52.8981 83.4287 53.2169 83.703 53.6259C83.9773 54.0349 84.1238 54.5157 84.1238 55.0076C84.123 55.667 83.8598 56.2992 83.3917 56.7654C82.9236 57.2317 82.289 57.4939 81.6271 57.4947ZM81.6271 52.8132C81.1914 52.8132 80.7654 52.9419 80.4032 53.183C80.0409 53.4241 79.7585 53.7669 79.5918 54.1678C79.4251 54.5688 79.3814 55.0101 79.4664 55.4357C79.5514 55.8614 79.7612 56.2524 80.0693 56.5593C80.3774 56.8662 80.77 57.0752 81.1973 57.1599C81.6246 57.2446 82.0676 57.2011 82.4701 57.035C82.8727 56.8689 83.2167 56.5877 83.4588 56.2268C83.7008 55.8659 83.83 55.4416 83.83 55.0076C83.8294 54.4258 83.5971 53.868 83.1841 53.4566C82.7711 53.0452 82.2111 52.8138 81.6271 52.8132Z" fill="#3F3D56"/>
<path d="M81.6271 74.4651C82.9248 74.4651 83.9769 73.4171 83.9769 72.1244C83.9769 70.8316 82.9248 69.7836 81.6271 69.7836C80.3293 69.7836 79.2772 70.8316 79.2772 72.1244C79.2772 73.4171 80.3293 74.4651 81.6271 74.4651Z" fill="#6C63FF"/>
<path d="M42.4142 74.6114C41.9204 74.6114 41.4377 74.4656 41.0271 74.1923C40.6165 73.919 40.2965 73.5306 40.1075 73.0761C39.9186 72.6217 39.8691 72.1216 39.9655 71.6392C40.0618 71.1567 40.2996 70.7136 40.6487 70.3658C40.9979 70.0179 41.4428 69.7811 41.9271 69.6851C42.4114 69.5892 42.9134 69.6384 43.3696 69.8266C43.8258 70.0149 44.2158 70.3337 44.4901 70.7426C44.7645 71.1516 44.9109 71.6325 44.9109 72.1244C44.9101 72.7838 44.6469 73.4159 44.1788 73.8822C43.7107 74.3484 43.0761 74.6107 42.4142 74.6114ZM42.4142 69.9299C41.9785 69.9299 41.5526 70.0586 41.1903 70.2998C40.828 70.5409 40.5456 70.8836 40.3789 71.2846C40.2122 71.6856 40.1685 72.1268 40.2535 72.5525C40.3385 72.9782 40.5484 73.3692 40.8564 73.6761C41.1645 73.983 41.5571 74.192 41.9844 74.2767C42.4117 74.3613 42.8547 74.3179 43.2572 74.1518C43.6598 73.9857 44.0038 73.7044 44.2459 73.3436C44.488 72.9827 44.6172 72.5584 44.6172 72.1244C44.6165 71.5426 44.3842 70.9848 43.9712 70.5734C43.5582 70.162 42.9982 69.9306 42.4142 69.9299Z" fill="#3F3D56"/>
<path d="M71.4934 56.0317C70.9996 56.0317 70.5169 55.8859 70.1063 55.6126C69.6957 55.3393 69.3757 54.9509 69.1868 54.4964C68.9978 54.042 68.9483 53.5419 69.0447 53.0595C69.141 52.577 69.3788 52.1339 69.728 51.7861C70.0771 51.4382 70.522 51.2014 71.0063 51.1054C71.4906 51.0094 71.9926 51.0587 72.4489 51.2469C72.9051 51.4352 73.295 51.7539 73.5693 52.1629C73.8437 52.5719 73.9901 53.0528 73.9901 53.5447C73.9894 54.204 73.7261 54.8362 73.258 55.3025C72.79 55.7687 72.1553 56.031 71.4934 56.0317ZM71.4934 51.3502C71.0577 51.3502 70.6318 51.4789 70.2695 51.72C69.9072 51.9612 69.6249 52.3039 69.4581 52.7049C69.2914 53.1059 69.2478 53.5471 69.3328 53.9728C69.4178 54.3985 69.6276 54.7895 69.9357 55.0964C70.2438 55.4033 70.6363 55.6123 71.0636 55.697C71.491 55.7816 71.9339 55.7382 72.3365 55.5721C72.739 55.406 73.083 55.1247 73.3251 54.7638C73.5672 54.403 73.6964 53.9787 73.6964 53.5447C73.6957 52.9629 73.4634 52.4051 73.0504 51.9937C72.6374 51.5823 72.0775 51.3509 71.4934 51.3502Z" fill="#3F3D56"/>
<path d="M3.20121 50.0336C2.62027 50.0336 2.05238 50.2052 1.56934 50.5267C1.0863 50.8482 0.70982 51.3052 0.487503 51.8398C0.265186 52.3744 0.207021 52.9628 0.320358 53.5303C0.433694 54.0979 0.713444 54.6193 1.12423 55.0285C1.53502 55.4377 2.0584 55.7163 2.62818 55.8292C3.19796 55.9421 3.78854 55.8842 4.32526 55.6627C4.86198 55.4413 5.32073 55.0662 5.64348 54.5851C5.96624 54.1039 6.13851 53.5382 6.13851 52.9595C6.13623 52.1842 5.82603 51.4413 5.27568 50.8931C4.72532 50.3448 3.97953 50.0358 3.20121 50.0336ZM3.20121 50.9114C3.37549 50.9114 3.54587 50.9628 3.69078 51.0593C3.83569 51.1557 3.94863 51.2928 4.01532 51.4532C4.08202 51.6136 4.09947 51.7901 4.06547 51.9604C4.03147 52.1307 3.94754 52.2871 3.82431 52.4098C3.70107 52.5326 3.54406 52.6162 3.37312 52.65C3.20219 52.6839 3.02501 52.6665 2.86399 52.6001C2.70298 52.5337 2.56535 52.4212 2.46853 52.2768C2.3717 52.1325 2.32002 51.9627 2.32002 51.7891C2.3208 51.5566 2.41389 51.3338 2.57898 51.1693C2.74406 51.0049 2.96775 50.9121 3.20121 50.9114ZM3.20121 55.1371C2.85311 55.1355 2.51065 55.0493 2.20354 54.8861C1.89643 54.7228 1.63394 54.4874 1.43883 54.2002C1.45296 53.615 2.61375 53.2929 3.20121 53.2929C3.78867 53.2929 4.94947 53.615 4.96359 54.2002C4.76827 54.4872 4.50573 54.7224 4.19867 54.8857C3.8916 55.0489 3.54926 55.1352 3.20121 55.1371Z" fill="#3F3D56"/>
<path d="M13.3349 10.0945C12.7539 10.0945 12.186 10.2661 11.703 10.5876C11.22 10.9091 10.8435 11.3661 10.6212 11.9007C10.3989 12.4354 10.3407 13.0237 10.454 13.5912C10.5674 14.1588 10.8471 14.6802 11.2579 15.0894C11.6687 15.4986 12.1921 15.7772 12.7618 15.8901C13.3316 16.003 13.9222 15.9451 14.4589 15.7236C14.9957 15.5022 15.4544 15.1272 15.7772 14.646C16.0999 14.1648 16.2722 13.5991 16.2722 13.0204C16.2699 12.2451 15.9597 11.5022 15.4093 10.954C14.859 10.4057 14.1132 10.0968 13.3349 10.0945ZM13.3349 10.9723C13.5092 10.9723 13.6795 11.0237 13.8244 11.1202C13.9694 11.2166 14.0823 11.3537 14.149 11.5141C14.2157 11.6745 14.2331 11.851 14.1991 12.0213C14.1651 12.1916 14.0812 12.348 13.958 12.4707C13.8347 12.5935 13.6777 12.6771 13.5068 12.711C13.3359 12.7448 13.1587 12.7274 12.9977 12.661C12.8366 12.5946 12.699 12.4821 12.6022 12.3377C12.5054 12.1934 12.4537 12.0237 12.4537 11.85C12.4545 11.6175 12.5476 11.3947 12.7126 11.2302C12.8777 11.0658 13.1014 10.973 13.3349 10.9723ZM13.3349 15.198C12.9868 15.1964 12.6443 15.1103 12.3372 14.947C12.0301 14.7837 11.7676 14.5483 11.5725 14.2611C11.5866 13.6759 12.7474 13.3538 13.3349 13.3538C13.9223 13.3538 15.0831 13.6759 15.0973 14.2611C14.9019 14.5481 14.6394 14.7834 14.3323 14.9466C14.0253 15.1098 13.6829 15.1961 13.3349 15.198Z" fill="#3F3D56"/>
<path d="M68.7029 0C68.122 0 67.5541 0.171604 67.071 0.49311C66.588 0.814617 66.2115 1.27159 65.9892 1.80623C65.7669 2.34088 65.7087 2.92919 65.8221 3.49676C65.9354 4.06434 66.2152 4.58569 66.6259 4.99489C67.0367 5.40409 67.5601 5.68276 68.1299 5.79566C68.6997 5.90856 69.2903 5.85061 69.827 5.62916C70.3637 5.4077 70.8224 5.03267 71.1452 4.5515C71.4679 4.07034 71.6402 3.50464 71.6402 2.92594C71.6379 2.15063 71.3277 1.40772 70.7774 0.859495C70.227 0.311266 69.4812 0.00226942 68.7029 0ZM68.7029 0.877782C68.8772 0.877782 69.0476 0.929263 69.1925 1.02571C69.3374 1.12217 69.4503 1.25926 69.517 1.41965C69.5837 1.58005 69.6012 1.75654 69.5672 1.92681C69.5332 2.09708 69.4493 2.25349 69.326 2.37625C69.2028 2.49901 69.0458 2.58261 68.8748 2.61648C68.7039 2.65035 68.5267 2.63297 68.3657 2.56653C68.2047 2.50009 68.0671 2.38758 67.9702 2.24323C67.8734 2.09888 67.8217 1.92917 67.8217 1.75556C67.8225 1.523 67.9156 1.30018 68.0807 1.13574C68.2458 0.971288 68.4695 0.878558 68.7029 0.877782ZM68.7029 5.10351C68.3548 5.10193 68.0124 5.01578 67.7052 4.85252C67.3981 4.68926 67.1356 4.45383 66.9405 4.16665C66.9547 3.58146 68.1155 3.25933 68.7029 3.25933C69.2904 3.25933 70.4512 3.58146 70.4653 4.16665C70.27 4.45361 70.0074 4.68888 69.7004 4.85211C69.3933 5.01534 69.051 5.10163 68.7029 5.10351Z" fill="#3F3D56"/>
<path d="M102.482 32.0391C101.901 32.0391 101.333 32.2107 100.85 32.5322C100.367 32.8537 99.9905 33.3106 99.7681 33.8453C99.5458 34.3799 99.4877 34.9682 99.601 35.5358C99.7143 36.1034 99.9941 36.6248 100.405 37.034C100.816 37.4432 101.339 37.7218 101.909 37.8347C102.479 37.9476 103.069 37.8897 103.606 37.6682C104.143 37.4468 104.601 37.0717 104.924 36.5906C105.247 36.1094 105.419 35.5437 105.419 34.965C105.417 34.1897 105.107 33.4468 104.556 32.8986C104.006 32.3503 103.26 32.0413 102.482 32.0391ZM102.482 32.9168C102.656 32.9168 102.826 32.9683 102.971 33.0648C103.116 33.1612 103.229 33.2983 103.296 33.4587C103.363 33.6191 103.38 33.7956 103.346 33.9659C103.312 34.1361 103.228 34.2926 103.105 34.4153C102.982 34.5381 102.825 34.6217 102.654 34.6555C102.483 34.6894 102.306 34.672 102.145 34.6056C101.984 34.5392 101.846 34.4266 101.749 34.2823C101.652 34.1379 101.601 33.9682 101.601 33.7946C101.601 33.5621 101.695 33.3392 101.86 33.1748C102.025 33.0103 102.248 32.9176 102.482 32.9168ZM102.482 37.1426C102.134 37.141 101.791 37.0548 101.484 36.8916C101.177 36.7283 100.915 36.4929 100.719 36.2057C100.734 35.6205 101.894 35.2984 102.482 35.2984C103.069 35.2984 104.23 35.6205 104.244 36.2057C104.049 36.4927 103.786 36.7279 103.479 36.8912C103.172 37.0544 102.83 37.1407 102.482 37.1426Z" fill="#3F3D56"/>
<path d="M108.063 51.7891C107.482 51.7891 106.914 51.9607 106.431 52.2822C105.948 52.6037 105.571 53.0607 105.349 53.5954C105.127 54.13 105.068 54.7183 105.182 55.2859C105.295 55.8535 105.575 56.3748 105.986 56.784C106.396 57.1932 106.92 57.4719 107.49 57.5848C108.059 57.6977 108.65 57.6397 109.187 57.4183C109.723 57.1968 110.182 56.8218 110.505 56.3406C110.828 55.8595 111 55.2938 111 54.7151C110.998 53.9398 110.687 53.1968 110.137 52.6486C109.587 52.1004 108.841 51.7914 108.063 51.7891ZM108.063 52.6669C108.237 52.6669 108.407 52.7184 108.552 52.8148C108.697 52.9113 108.81 53.0484 108.877 53.2088C108.943 53.3692 108.961 53.5457 108.927 53.7159C108.893 53.8862 108.809 54.0426 108.686 54.1654C108.563 54.2881 108.406 54.3717 108.235 54.4056C108.064 54.4395 107.886 54.4221 107.725 54.3557C107.564 54.2892 107.427 54.1767 107.33 54.0324C107.233 53.888 107.181 53.7183 107.181 53.5447C107.182 53.3121 107.275 53.0893 107.44 52.9249C107.606 52.7604 107.829 52.6677 108.063 52.6669ZM108.063 56.8926C107.715 56.8911 107.372 56.8049 107.065 56.6416C106.758 56.4784 106.495 56.243 106.3 55.9558C106.314 55.3706 107.475 55.0484 108.063 55.0484C108.65 55.0484 109.811 55.3706 109.825 55.9558C109.63 56.2427 109.367 56.478 109.06 56.6412C108.753 56.8045 108.411 56.8908 108.063 56.8926Z" fill="#3F3D56"/>
<path d="M42.6018 51.7404L42.3009 52.9422C42.6421 53.0269 43.6936 53.3724 43.864 52.6923C44.0415 51.9832 42.943 51.8251 42.6018 51.7404Z" fill="#6C63FF"/>
<path d="M42.1492 53.5487L41.8173 54.8739C42.2269 54.9752 43.4903 55.3793 43.6772 54.6317C43.8723 53.8523 42.5588 53.6505 42.1492 53.5487Z" fill="#6C63FF"/>
<path d="M43.9621 48.1626C42.9054 47.9002 41.7943 47.9558 40.7693 48.3223C39.7443 48.6889 38.8514 49.35 38.2036 50.222C37.5558 51.0941 37.1822 52.1379 37.1299 53.2215C37.0776 54.3051 37.3491 55.3798 37.91 56.3097C38.4708 57.2396 39.2959 57.9829 40.2809 58.4457C41.2659 58.9085 42.3665 59.0699 43.4436 58.9096C44.5207 58.7493 45.5259 58.2745 46.332 57.5451C47.1382 56.8157 47.7091 55.8646 47.9726 54.812C48.1477 54.1131 48.1829 53.3866 48.0761 52.6742C47.9693 51.9617 47.7226 51.2772 47.3502 50.6597C46.9777 50.0422 46.4868 49.5039 45.9055 49.0754C45.3241 48.647 44.6638 48.3368 43.9621 48.1626ZM45.058 52.7033C44.9785 53.2377 44.6813 53.4965 44.2863 53.587C44.8284 53.8681 45.1044 54.2994 44.8415 55.0469C44.5154 55.9752 43.7404 56.0536 42.7102 55.8593L42.4601 56.8576L41.8557 56.7077L42.1025 55.7227C41.9415 55.683 41.781 55.6415 41.6209 55.5983L41.3733 56.5879L40.7697 56.4378L41.0198 55.4377C40.8786 55.4017 40.7353 55.3634 40.589 55.3269L39.8027 55.1315L40.1026 54.4426C40.1026 54.4426 40.5479 54.5606 40.5419 54.5519C40.5695 54.5607 40.5986 54.564 40.6274 54.5616C40.6563 54.5591 40.6845 54.551 40.7102 54.5377C40.7359 54.5244 40.7588 54.5062 40.7774 54.4841C40.796 54.4619 40.8101 54.4363 40.8187 54.4088L41.2139 52.8307C41.2361 52.8361 41.2577 52.8414 41.2777 52.8465C41.2572 52.8385 41.2363 52.8318 41.2149 52.8264L41.4968 51.6998C41.5052 51.6164 41.4804 51.533 41.4278 51.4676C41.3751 51.4021 41.2988 51.3599 41.2152 51.3499C41.2248 51.3434 40.7764 51.2412 40.7764 51.2412L40.9372 50.5982L41.7707 50.8055L41.7699 50.8086C41.8952 50.8396 42.0243 50.869 42.1559 50.8988L42.4035 49.9103L43.0074 50.0603L42.7648 51.0295C42.927 51.0663 43.0901 51.1035 43.249 51.1429L43.49 50.1801L44.0942 50.33L43.8468 51.319C44.6096 51.5807 45.1675 51.9731 45.058 52.7033Z" fill="#6C63FF"/>
</g>
<defs>
<clipPath id="clip0_486_7598">
<rect width="111" height="75" fill="white"/>
</clipPath>
</defs>
</svg>
