<svg width="24" height="24" viewBox="0 0 24 24" fill="none" xmlns="http://www.w3.org/2000/svg">
<path d="M21.8153 4.6412C21.7254 4.53857 21.6153 4.45559 21.4919 4.39746C21.3685 4.33933 21.2344 4.30729 21.0981 4.30335C18.9796 4.24797 16.299 1.98274 14.5267 1.09381C13.4319 0.54643 12.7091 0.185507 12.1664 0.09043C12.0562 0.0743708 11.9442 0.0746819 11.8341 0.0913531C11.2913 0.18643 10.5685 0.547353 9.47467 1.09474C7.70237 1.98274 5.02175 4.24797 2.90329 4.30335C2.76683 4.30749 2.63268 4.33962 2.50914 4.39773C2.38561 4.45585 2.27533 4.53871 2.18514 4.6412C1.99819 4.85271 1.90173 5.12915 1.91652 5.41105C2.3716 14.663 5.69006 20.3889 11.5128 23.7166C11.6642 23.8024 11.8322 23.8467 11.9993 23.8467C12.1664 23.8467 12.3344 23.8024 12.4867 23.7166C18.3094 20.3889 21.627 14.663 22.083 5.41105C22.0986 5.12919 22.0024 4.85254 21.8153 4.6412ZM17.1851 8.27997L12.2716 15.5307C12.0953 15.791 11.8184 15.9637 11.5442 15.9637C11.2691 15.9637 10.9636 15.8132 10.7707 15.6203L7.30729 12.156C7.19421 12.0425 7.13072 11.8888 7.13072 11.7286C7.13072 11.5684 7.19421 11.4147 7.30729 11.3012L8.16298 10.4437C8.27671 10.331 8.4303 10.2679 8.59037 10.2679C8.75043 10.2679 8.90402 10.331 9.01775 10.4437L11.2701 12.696L15.183 6.92028C15.2735 6.78811 15.4127 6.69713 15.5701 6.66721C15.7274 6.63729 15.8903 6.67086 16.023 6.76058L17.0245 7.43997C17.1568 7.53036 17.248 7.66945 17.2781 7.82684C17.3082 7.98423 17.2748 8.14714 17.1851 8.27997Z" fill="#68D585"/>
</svg>
