<svg width="170" height="115" viewBox="0 0 170 115" fill="none" xmlns="http://www.w3.org/2000/svg">
<g clip-path="url(#clip0_486_6718)">
<path d="M39.2254 0.262695C29.3738 0.262695 20.2292 7.70904 17.9546 17.5822C17.9546 17.5847 0.595959 93.0298 0.595959 93.0298C-0.688133 98.5885 0.464014 104.188 3.75253 108.396C6.98864 112.527 11.9861 114.899 17.4571 114.899H130.095C139.942 114.899 149.089 107.456 151.374 97.5885C151.374 97.5772 168.73 22.132 168.73 22.132C170.015 16.5739 168.862 10.9635 165.571 6.76333C162.332 2.63265 157.34 0.262695 151.869 0.262695H39.2254Z" fill="white"/>
<path d="M40.8056 12.4907H76.7924C81.8176 12.4907 84.9413 16.5797 83.7665 21.6189L67.0139 93.5438C65.834 98.5823 60.805 102.669 55.7816 102.669H19.7948C14.7658 102.669 11.644 98.5823 12.8232 93.5438L29.5789 21.6189C30.7532 16.5797 35.7765 12.4907 40.8056 12.4907Z" fill="#ED1C24"/>
<path d="M73.8063 12.4907H109.79C114.819 12.4907 117.942 16.5797 116.762 21.6189L100.006 93.5438C98.8265 98.5823 93.8031 102.669 88.769 102.669H52.7905C47.7564 102.669 44.6389 98.5823 45.8182 93.5438L62.5695 21.6189C63.7488 16.5797 68.7778 12.4907 73.8063 12.4907Z" fill="#00569E"/>
<path d="M113.55 12.4907H149.531C154.56 12.4907 157.683 16.5797 156.503 21.6189L139.753 93.5438C138.573 98.5823 133.545 102.669 128.515 102.669H92.5291C87.5001 102.669 84.3776 98.5823 85.5575 93.5438L102.308 21.6189C103.487 16.5797 108.516 12.4907 113.55 12.4907Z" fill="#00898E"/>
<path fill-rule="evenodd" clip-rule="evenodd" d="M118.91 65.5923L115.514 80.1005H116.688L115.978 83.1119H114.803L114.587 84.031H110.417L110.633 83.1119H102.155L102.818 80.3347L103.682 80.3214L107.131 65.5923L107.816 62.615H112.075L111.739 64.1238C111.739 64.1238 112.813 63.3 113.866 63.0235C114.924 62.7469 121.09 62.639 121.09 62.639L120.374 65.5923H118.91ZM111.407 65.5923L110.537 69.305C110.537 69.305 111.76 68.7312 112.439 68.5468C113.123 68.365 114.166 68.2943 114.166 68.2943L114.793 65.5923H111.407ZM110.101 71.1535L109.2 75.0007C109.2 75.0007 110.443 74.3397 111.128 74.1548C111.808 73.9711 112.854 73.8549 112.854 73.8549L113.498 71.1535H110.101ZM108 80.1447H111.391L112.155 76.877H108.763L108 80.1447Z" fill="white"/>
<path fill-rule="evenodd" clip-rule="evenodd" d="M121.322 62.6448H125.861L125.914 64.3342C125.888 64.6082 126.13 64.7458 126.662 64.7553H127.425L126.741 67.552H124.287C122.16 67.7048 121.354 66.7881 121.407 65.7641L121.322 62.6448Z" fill="white"/>
<path fill-rule="evenodd" clip-rule="evenodd" d="M122.091 75.9029H117.757L118.337 73.4124H123.281L123.834 71.1327H118.948L119.606 68.3335H133.202L132.539 71.1327H127.973L127.421 73.4124H131.991L131.407 75.9029H126.467L125.651 76.9541H127.657L128.368 80.0917C128.425 80.4004 128.457 80.6037 128.563 80.7319C128.668 80.843 129.279 80.8985 129.626 80.8985H130.232L129.517 83.9598H127.973C127.736 83.9598 127.378 83.9497 126.894 83.9067C126.424 83.8708 126.073 83.6018 125.751 83.4541C125.456 83.3177 125.008 82.9673 124.866 82.3853L124.176 79.2577L122.144 82.348C121.486 83.307 120.57 84.05 118.942 84.05H115.783L116.42 81.3373H117.631C117.979 81.3373 118.284 81.1959 118.499 81.0829C118.721 80.9793 118.916 80.8613 119.132 80.5317L122.091 75.9029Z" fill="white"/>
<path fill-rule="evenodd" clip-rule="evenodd" d="M74.2115 69.0891H85.673L85.0152 71.8278H80.4123L79.8517 74.1605H84.5304L83.8511 76.9932H79.1718L78.2639 80.7709C78.1585 81.1958 79.4091 81.2533 79.8624 81.2533L82.1863 80.9427L81.4394 84.055H76.1497C75.728 84.055 75.4047 84.0071 74.9388 83.8915C74.4855 83.7836 74.2778 83.5809 74.0594 83.2754C73.8511 82.9805 73.5405 82.7223 73.6983 82.0651L74.9047 77.0411H72.2974L72.9899 74.1605H75.6023L76.1572 71.8278H73.5562L74.2115 69.0891Z" fill="white"/>
<path fill-rule="evenodd" clip-rule="evenodd" d="M81.6289 64.1762H86.3366L85.6516 67.0279H79.2248L78.5613 67.6415C78.2898 67.9256 78.1718 67.8069 77.8006 68.0102C77.4426 68.1996 76.7027 68.5576 75.7122 68.5576H73.6541L74.3145 65.8082H74.9313C75.4571 65.8082 75.8132 65.7615 75.9893 65.6434C76.1787 65.5247 76.3921 65.2267 76.6238 64.7552L77.6712 62.6074H82.3555L81.6289 64.1762Z" fill="white"/>
<path fill-rule="evenodd" clip-rule="evenodd" d="M88.2532 62.6288H92.2659L91.8025 64.6503C91.8025 64.6503 93.0083 63.637 93.877 63.2974C94.7406 62.9546 96.7204 62.6654 96.7204 62.6654L103.197 62.6238L101.449 69.9843C101.149 71.2437 100.77 72.0594 100.528 72.4357C100.296 72.8043 100.039 73.1339 99.49 73.4445C98.9534 73.7286 98.4685 73.8921 98.0159 73.9388C97.579 73.9761 96.9262 73.9893 96.0196 73.9994H89.7747L88.3795 79.8264C88.2374 80.4028 88.1787 80.6737 88.2949 80.8265C88.401 80.9685 88.6219 81.1276 88.9161 81.1276L91.6497 80.8637L90.9073 84.0569H87.8164C86.8422 84.0569 86.1206 84.0442 85.6257 83.9969C85.1465 83.9597 84.6516 83.9969 84.3094 83.733C83.9982 83.4862 83.5455 83.1598 83.5348 82.8176C83.5455 82.4988 83.6402 81.9754 83.798 81.2583L88.2532 62.6288ZM97.2261 70.0745H90.6592L90.3378 71.3959H96.0253C96.6945 71.3271 96.8359 71.411 96.889 71.3877L97.2261 70.0745ZM90.9433 68.8788C90.9433 68.8788 92.1491 67.7046 94.3302 67.3201C94.8252 67.2305 97.9584 67.257 97.9584 67.257L98.3315 65.6825H91.7071L90.9433 68.8788Z" fill="white"/>
<path fill-rule="evenodd" clip-rule="evenodd" d="M100.675 74.5159L100.422 76.288C100.285 76.8328 100.185 77.2514 99.7905 77.6144C99.3744 77.9881 98.8795 78.3732 97.6787 78.3732L95.4672 78.4597L95.5619 80.4553C95.5784 81.0348 95.7204 80.9748 95.8151 81.0658C95.9199 81.163 96.0196 81.2065 96.1207 81.2324L96.8258 81.2065L98.9325 81.0771L98.2419 84.007H95.8094C94.0929 84.007 92.829 83.9546 92.3921 83.644C91.9654 83.3625 91.8864 83.0386 91.8656 82.4938L91.5392 74.692H95.4306L95.4773 76.288H96.4098C96.7362 76.288 96.947 76.2558 97.079 76.1718C97.1895 76.0872 97.2627 75.9559 97.3157 75.7564L97.6106 74.5159H100.675Z" fill="white"/>
<path d="M45.0651 35.4546C44.9287 36.0991 42.4275 47.6156 42.4218 47.6206C41.8845 49.9432 41.495 51.6181 40.1737 52.692C39.4047 53.3081 38.536 53.6105 37.5146 53.6105C35.8763 53.6105 34.918 52.7923 34.75 51.2463L34.7178 50.7223C34.7178 50.7223 35.2185 47.5998 35.2235 47.584C35.2235 47.584 37.8511 37.084 38.3144 35.6888C38.3302 35.6149 38.341 35.5733 38.3567 35.5253C33.2538 35.589 32.3435 35.5411 32.2803 35.4514C32.2538 35.5625 32.1168 36.2153 32.1168 36.2153L29.442 48.0556L29.2103 49.0581L28.7728 52.334C28.7728 53.3106 28.9628 54.108 29.3473 54.7721C30.5632 56.9098 34.0442 57.2311 36.0083 57.2311C38.5411 57.2311 40.9161 56.6781 42.5272 55.7122C45.3075 54.0556 46.0449 51.4704 46.6977 49.1901L46.9982 48.0158C46.9982 48.0158 49.6989 37.1048 50.1629 35.6863C50.1787 35.6099 50.1888 35.5733 50.1996 35.5253C46.5083 35.5808 45.4129 35.536 45.0651 35.4546Z" fill="white"/>
<path d="M59.9994 57.11C58.1825 57.0892 57.5562 57.0892 55.4394 57.1839L55.3549 57.0418C55.5392 56.2249 55.7444 55.4358 55.9287 54.6195L56.1812 53.5267C56.5764 51.8019 56.9609 49.8247 57.0032 49.2167C57.0449 48.848 57.161 47.937 56.1238 47.937C55.6812 47.937 55.2179 48.1479 54.7545 48.3581C54.5019 49.2641 53.9855 51.8285 53.7437 52.992C53.2223 55.4591 53.185 55.7382 52.954 56.9471L52.8006 57.11C50.9369 57.0892 50.2886 57.0892 48.1459 57.1839L48.0455 57.021C48.4041 55.5513 48.762 54.0848 49.0992 52.6182C50.0045 48.6611 50.2153 47.1473 50.4628 45.146L50.6314 45.0046C52.7273 44.7249 53.2273 44.6567 55.5019 44.1902L55.6869 44.3985L55.3441 45.6782C55.7235 45.4465 56.0973 45.2148 56.4925 45.0046C57.5562 44.4932 58.7456 44.3297 59.3934 44.3297C60.3839 44.3297 61.4735 44.6094 61.9262 45.7514C62.3637 46.7729 62.0739 48.0317 61.5051 50.5223L61.216 51.7811C60.6314 54.5507 60.536 55.062 60.2204 56.9471L59.9994 57.11Z" fill="white"/>
<path d="M67.3561 57.1099C66.2608 57.0998 65.56 57.0941 64.8757 57.1023C64.1964 57.1099 63.5329 57.1358 62.5165 57.1838L62.4584 57.0998L62.3953 57.0209C62.6693 55.9672 62.8163 55.5985 62.959 55.2298C63.0954 54.8586 63.2273 54.4849 63.4698 53.4237C63.7854 52.0468 63.9805 51.0676 64.1225 50.2273C64.2652 49.3934 64.3542 48.6976 64.4546 47.8952L64.5386 47.8264L64.6282 47.7526C65.7128 47.6029 66.4028 47.5026 67.103 47.3889C67.8088 47.2759 68.5247 47.1471 69.6573 46.9363L69.7305 47.1257C69.5196 47.9868 69.3094 48.8529 69.1042 49.7147C68.8984 50.5752 68.6989 51.4413 68.4982 52.3024C68.0878 54.1244 67.93 54.8138 67.8353 55.2829C67.74 55.7513 67.7134 56.0045 67.5563 56.947L67.4559 57.0304L67.3561 57.1099Z" fill="white"/>
<path d="M83.6086 50.8808C84.2456 48.0923 83.7614 46.7917 83.1345 45.9994C82.1863 44.793 80.531 44.3984 78.798 44.3984C77.7608 44.3984 75.2917 44.514 73.3586 46.305C71.9792 47.579 71.3264 49.3214 70.942 50.9963C70.5524 52.6945 70.0992 55.7854 72.911 56.8991C73.7955 57.2734 75.0386 57.3896 75.8441 57.3896C77.9186 57.3896 80.036 56.8101 81.6232 55.1118C82.8555 53.764 83.4142 51.7179 83.6086 50.8808ZM78.8826 50.6724C78.7772 51.1383 78.3719 52.9029 77.8088 53.6453C77.4344 54.1819 76.966 54.5083 76.4603 54.5083C76.3182 54.5083 75.423 54.5083 75.4016 53.1819C75.3915 52.531 75.5234 51.8574 75.6913 51.1143C76.1705 49.0215 76.7343 47.2577 78.1667 47.2577C79.2987 47.2577 79.3668 48.5582 78.8826 50.6724Z" fill="white"/>
<path d="M123.508 53.8638C123.134 54.3928 122.255 54.7192 121.748 54.7192C121.607 54.7192 120.712 54.7192 120.69 53.4029C120.68 52.7552 120.811 52.086 120.98 51.3492C121.458 49.2741 122.022 47.521 123.455 47.521C124.387 47.521 124.84 48.4351 124.714 49.9225C124.64 50.2564 124.577 50.5588 124.487 50.954C124.334 51.6024 124.155 52.2394 123.998 52.884C123.85 53.2634 123.691 53.6213 123.508 53.8638ZM130.669 44.5405C128.405 44.9534 127.81 45.0462 125.64 45.3467L125.472 45.4831C125.445 45.6674 125.424 45.836 125.398 46.0128C125.061 45.4591 124.587 44.9749 123.823 44.6826C122.854 44.3088 120.58 44.7987 118.647 46.5734C117.268 47.8423 116.614 49.5721 116.231 51.2331C115.841 52.9187 115.388 55.9881 118.2 57.0942C119.084 57.4635 119.901 57.5734 120.707 57.5311C121.57 57.4869 122.36 57.0336 123.102 56.4124C123.033 56.6756 122.97 56.9414 122.902 57.2047L123.029 57.3688C125.056 57.2735 125.677 57.2735 127.862 57.2994L128.063 57.1359C128.378 55.2665 128.684 53.4452 129.517 49.8461C129.911 48.1371 130.327 46.4307 130.743 44.7249L130.669 44.5405Z" fill="white"/>
<path d="M95.9729 57.11C94.156 57.0892 93.5348 57.0892 91.413 57.1839L91.3284 57.0418C91.5178 56.2249 91.7179 55.4358 91.9079 54.6195L92.1554 53.5267C92.5499 51.8019 92.935 49.8247 92.9818 49.2167C93.0184 48.848 93.1345 47.937 92.0967 47.937C91.6598 47.937 91.197 48.1479 90.733 48.3581C90.4811 49.2641 89.9647 51.8285 89.7172 52.992C89.2015 55.4591 89.1585 55.7382 88.9275 56.9471L88.7747 57.11C86.9148 57.0892 86.2677 57.0892 84.1244 57.1839L84.0247 57.021C84.3826 55.5513 84.7406 54.0848 85.0777 52.6182C85.9837 48.6611 86.1888 47.1473 86.4414 45.146L86.6099 45.0046C88.7008 44.7249 89.2059 44.6567 91.4761 44.1902L91.6598 44.3985L91.3233 45.6782C91.697 45.4465 92.0758 45.2148 92.4653 45.0046C93.5291 44.4932 94.7198 44.3297 95.3669 44.3297C96.3574 44.3297 97.4477 44.6094 97.9054 45.7514C98.3366 46.7729 98.0468 48.0317 97.4786 50.5223L97.1945 51.7811C96.6042 54.5507 96.5102 55.062 96.1939 56.9471L95.9729 57.11Z" fill="white"/>
<path d="M113.618 42.2028C113.292 43.6397 112.371 44.8512 111.165 45.4465C110.164 45.944 108.958 45.9863 107.705 45.9863H106.889L106.962 45.6574C106.962 45.6574 108.448 39.1751 108.442 39.1959L108.484 38.867L108.516 38.6063L109.106 38.6643C109.106 38.6643 112.176 38.9377 112.255 38.9535C113.465 39.4169 113.977 40.6277 113.618 42.2028ZM111.66 35.4307C111.655 35.4307 110.154 35.4623 110.154 35.4623C106.241 35.5015 104.672 35.4914 104.024 35.4099C103.966 35.689 103.861 36.2022 103.861 36.2047C103.861 36.2047 102.465 42.7028 102.465 42.7079C102.465 42.7079 99.1112 56.5261 98.9534 57.1738C102.365 57.1258 103.772 57.1233 104.356 57.189C104.493 56.5362 105.288 52.6871 105.294 52.6789C105.294 52.6789 105.972 49.843 106.015 49.754C106.015 49.754 106.22 49.4535 106.441 49.338H106.747C109.691 49.338 113.023 49.338 115.63 47.4156C117.4 46.11 118.616 44.1719 119.158 41.8127C119.295 41.2287 119.401 40.5387 119.401 39.8436C119.401 38.9535 119.221 38.0501 118.694 37.3373C117.362 35.4863 114.724 35.4623 111.66 35.4307Z" fill="white"/>
<path d="M69.341 46.0046C70.5367 45.1801 70.6888 44.0242 69.6724 43.4244C68.6566 42.8291 66.8662 43.016 65.6655 43.8405C64.4597 44.6725 64.3176 45.8278 65.3283 46.4257C66.3448 47.0235 68.1402 46.836 69.341 46.0046Z" fill="white"/>
<path fill-rule="evenodd" clip-rule="evenodd" d="M145.744 44.5198L145.566 44.314C143.339 44.7748 142.933 44.8462 140.885 45.1202L140.721 45.259C140.716 45.2938 140.711 45.3279 140.706 45.3619L140.695 45.3354C139.157 48.8689 139.21 48.1056 137.968 50.8752C137.963 50.7489 137.957 50.6542 137.952 50.5356L137.641 44.5198L137.451 44.314C135.108 44.7748 135.051 44.8462 132.892 45.1202L132.717 45.259C132.707 45.3411 132.696 45.42 132.686 45.5046L132.707 45.5255C132.97 46.9156 132.912 46.6101 133.181 48.7849C133.302 49.8487 133.471 50.9308 133.592 51.992C133.813 53.7452 133.928 54.6347 134.186 57.3108C132.728 59.7325 132.381 60.6435 130.99 62.7654V62.7704L129.995 64.3449C129.885 64.5135 129.779 64.6183 129.642 64.6713C129.484 64.7395 129.268 64.7666 128.984 64.7666H128.225L127.594 67.5987L130.417 67.557C132.054 67.5438 133.091 66.7357 133.655 65.7142L135.382 62.7003L145.744 44.5198Z" fill="white"/>
</g>
<defs>
<clipPath id="clip0_486_6718">
<rect width="169.242" height="115" fill="white" transform="translate(0.0827026)"/>
</clipPath>
</defs>
</svg>
