<svg width="257" height="400" viewBox="0 0 257 400" fill="none" xmlns="http://www.w3.org/2000/svg">
<g opacity="0.5">
<path d="M129.548 271.946C125.338 271.932 121.147 271.389 117.073 270.33L116.27 270.108L115.525 269.734C88.5922 256.217 65.8704 238.363 47.9908 216.667C33.1902 198.602 21.651 178.091 13.892 156.056C4.61349 129.675 0.149621 101.839 0.713481 73.877C0.724859 73.29 0.734488 72.8368 0.734488 72.5246C0.734488 58.9319 8.27181 47.0053 19.9367 42.1399C28.8644 38.4163 109.924 5.08813 115.781 2.68008C126.81 -2.85219 138.577 1.76536 140.46 2.57284C144.684 4.30148 219.618 34.9817 235.812 42.7004C252.5 50.6555 256.953 64.9465 256.953 72.1366C256.953 104.688 251.321 135.11 240.214 162.558C231.243 184.775 218.53 205.285 202.626 223.196C171.942 257.761 141.25 270.015 140.954 270.123C137.286 271.386 133.427 272.003 129.548 271.946ZM122.33 254.049C124.991 254.646 131.117 255.542 135.11 254.084C140.183 252.232 165.872 238.897 189.877 211.855C223.044 174.493 239.873 127.525 239.898 72.2567C239.839 71.137 239.044 63.1508 228.479 58.1149C212.6 50.5456 134.712 18.6649 133.927 18.3436L133.712 18.2523C132.079 17.5676 126.885 16.1254 123.304 18.0037L122.587 18.3383C121.719 18.6953 35.6734 54.0718 26.4966 57.8993C20.0771 60.5768 17.7899 67.2099 17.7899 72.5246C17.7899 72.913 17.7799 73.478 17.7657 74.2082C17.0323 112.025 25.7744 205.08 122.33 254.049Z" fill="#3F3D56"/>
<path d="M119.347 10.4419C119.347 10.4419 32.5192 46.1395 23.2162 50.0196C13.9132 53.8998 9.26177 63.2122 9.26177 72.5246C9.26177 81.837 2.28457 203.351 119.347 262.103C119.347 262.103 129.971 265.046 138.032 262.103C146.093 259.161 248.425 209.494 248.425 72.1366C248.425 72.1366 248.425 58.168 232.145 50.4076C215.865 42.6473 137.153 10.4419 137.153 10.4419C137.153 10.4419 127.487 6.17374 119.347 10.4419Z" fill="#E7AA07"/>
<path opacity="0.1" d="M128.65 38.3791V228.813C128.65 228.813 41.0472 186.601 41.8225 75.6287L128.65 38.3791Z" fill="black"/>
<path d="M129.793 175.246L101.887 139.329L118.115 126.694L131.329 143.7L175.966 96.5319L190.892 110.689L129.793 175.246Z" fill="white"/>
<path d="M36.744 331.692C36.312 331.956 35.868 332.184 35.412 332.376C34.98 332.544 34.536 332.676 34.08 332.772C34.968 332.916 35.856 333.264 36.744 333.816L42.252 337.092L39.948 341.016L34.44 337.74C34.008 337.476 33.6 337.212 33.216 336.948C32.832 336.66 32.496 336.348 32.208 336.012C32.496 336.852 32.64 337.764 32.64 338.748V345.228H27.924V338.82C27.924 338.34 27.948 337.872 27.996 337.416C28.068 336.936 28.176 336.492 28.32 336.084C27.768 336.708 27.048 337.26 26.16 337.74L20.688 340.944L18.348 337.02L23.856 333.816C24.312 333.552 24.756 333.336 25.188 333.168C25.644 332.976 26.1 332.844 26.556 332.772C26.1 332.7 25.644 332.568 25.188 332.376C24.732 332.184 24.288 331.956 23.856 331.692L18.348 328.416L20.652 324.528L26.16 327.804C27.048 328.284 27.78 328.848 28.356 329.496C28.068 328.68 27.924 327.78 27.924 326.796V320.28H32.64V326.724C32.64 327.204 32.604 327.684 32.532 328.164C32.484 328.62 32.388 329.052 32.244 329.46C32.532 329.124 32.856 328.824 33.216 328.56C33.6 328.296 34.008 328.044 34.44 327.804L39.912 324.6L42.252 328.488L36.744 331.692ZM75.9699 331.692C75.5379 331.956 75.0939 332.184 74.6379 332.376C74.2059 332.544 73.7619 332.676 73.3059 332.772C74.1939 332.916 75.0819 333.264 75.9699 333.816L81.4779 337.092L79.1739 341.016L73.6659 337.74C73.2339 337.476 72.8259 337.212 72.4419 336.948C72.0579 336.66 71.7219 336.348 71.4339 336.012C71.7219 336.852 71.8659 337.764 71.8659 338.748V345.228H67.1499V338.82C67.1499 338.34 67.1739 337.872 67.2219 337.416C67.2939 336.936 67.4019 336.492 67.5459 336.084C66.9939 336.708 66.2739 337.26 65.3859 337.74L59.9139 340.944L57.5739 337.02L63.0819 333.816C63.5379 333.552 63.9819 333.336 64.4139 333.168C64.8699 332.976 65.3259 332.844 65.7819 332.772C65.3259 332.7 64.8699 332.568 64.4139 332.376C63.9579 332.184 63.5139 331.956 63.0819 331.692L57.5739 328.416L59.8779 324.528L65.3859 327.804C66.2739 328.284 67.0059 328.848 67.5819 329.496C67.2939 328.68 67.1499 327.78 67.1499 326.796V320.28H71.8659V326.724C71.8659 327.204 71.8299 327.684 71.7579 328.164C71.7099 328.62 71.6139 329.052 71.4699 329.46C71.7579 329.124 72.0819 328.824 72.4419 328.56C72.8259 328.296 73.2339 328.044 73.6659 327.804L79.1379 324.6L81.4779 328.488L75.9699 331.692ZM115.196 331.692C114.764 331.956 114.32 332.184 113.864 332.376C113.432 332.544 112.988 332.676 112.532 332.772C113.42 332.916 114.308 333.264 115.196 333.816L120.704 337.092L118.4 341.016L112.892 337.74C112.46 337.476 112.052 337.212 111.668 336.948C111.284 336.66 110.948 336.348 110.66 336.012C110.948 336.852 111.092 337.764 111.092 338.748V345.228H106.376V338.82C106.376 338.34 106.4 337.872 106.448 337.416C106.52 336.936 106.628 336.492 106.772 336.084C106.22 336.708 105.5 337.26 104.612 337.74L99.1399 340.944L96.7999 337.02L102.308 333.816C102.764 333.552 103.208 333.336 103.64 333.168C104.096 332.976 104.552 332.844 105.008 332.772C104.552 332.7 104.096 332.568 103.64 332.376C103.184 332.184 102.74 331.956 102.308 331.692L96.7999 328.416L99.1039 324.528L104.612 327.804C105.5 328.284 106.232 328.848 106.808 329.496C106.52 328.68 106.376 327.78 106.376 326.796V320.28H111.092V326.724C111.092 327.204 111.056 327.684 110.984 328.164C110.936 328.62 110.84 329.052 110.696 329.46C110.984 329.124 111.308 328.824 111.668 328.56C112.052 328.296 112.46 328.044 112.892 327.804L118.364 324.6L120.704 328.488L115.196 331.692ZM154.422 331.692C153.99 331.956 153.546 332.184 153.09 332.376C152.658 332.544 152.214 332.676 151.758 332.772C152.646 332.916 153.534 333.264 154.422 333.816L159.93 337.092L157.626 341.016L152.118 337.74C151.686 337.476 151.278 337.212 150.894 336.948C150.51 336.66 150.174 336.348 149.886 336.012C150.174 336.852 150.318 337.764 150.318 338.748V345.228H145.602V338.82C145.602 338.34 145.626 337.872 145.674 337.416C145.746 336.936 145.854 336.492 145.998 336.084C145.446 336.708 144.726 337.26 143.838 337.74L138.366 340.944L136.026 337.02L141.534 333.816C141.99 333.552 142.434 333.336 142.866 333.168C143.322 332.976 143.778 332.844 144.234 332.772C143.778 332.7 143.322 332.568 142.866 332.376C142.41 332.184 141.966 331.956 141.534 331.692L136.026 328.416L138.33 324.528L143.838 327.804C144.726 328.284 145.458 328.848 146.034 329.496C145.746 328.68 145.602 327.78 145.602 326.796V320.28H150.318V326.724C150.318 327.204 150.282 327.684 150.21 328.164C150.162 328.62 150.066 329.052 149.922 329.46C150.21 329.124 150.534 328.824 150.894 328.56C151.278 328.296 151.686 328.044 152.118 327.804L157.59 324.6L159.93 328.488L154.422 331.692ZM193.648 331.692C193.216 331.956 192.772 332.184 192.316 332.376C191.884 332.544 191.44 332.676 190.984 332.772C191.872 332.916 192.76 333.264 193.648 333.816L199.156 337.092L196.852 341.016L191.344 337.74C190.912 337.476 190.504 337.212 190.12 336.948C189.736 336.66 189.4 336.348 189.112 336.012C189.4 336.852 189.544 337.764 189.544 338.748V345.228H184.828V338.82C184.828 338.34 184.852 337.872 184.9 337.416C184.972 336.936 185.08 336.492 185.224 336.084C184.672 336.708 183.952 337.26 183.064 337.74L177.592 340.944L175.252 337.02L180.76 333.816C181.216 333.552 181.66 333.336 182.092 333.168C182.548 332.976 183.004 332.844 183.46 332.772C183.004 332.7 182.548 332.568 182.092 332.376C181.636 332.184 181.192 331.956 180.76 331.692L175.252 328.416L177.556 324.528L183.064 327.804C183.952 328.284 184.684 328.848 185.26 329.496C184.972 328.68 184.828 327.78 184.828 326.796V320.28H189.544V326.724C189.544 327.204 189.508 327.684 189.436 328.164C189.388 328.62 189.292 329.052 189.148 329.46C189.436 329.124 189.76 328.824 190.12 328.56C190.504 328.296 190.912 328.044 191.344 327.804L196.816 324.6L199.156 328.488L193.648 331.692ZM232.874 331.692C232.442 331.956 231.998 332.184 231.542 332.376C231.11 332.544 230.666 332.676 230.21 332.772C231.098 332.916 231.986 333.264 232.874 333.816L238.382 337.092L236.078 341.016L230.57 337.74C230.138 337.476 229.73 337.212 229.346 336.948C228.962 336.66 228.626 336.348 228.338 336.012C228.626 336.852 228.77 337.764 228.77 338.748V345.228H224.054V338.82C224.054 338.34 224.078 337.872 224.126 337.416C224.198 336.936 224.306 336.492 224.45 336.084C223.898 336.708 223.178 337.26 222.29 337.74L216.818 340.944L214.478 337.02L219.986 333.816C220.442 333.552 220.886 333.336 221.318 333.168C221.774 332.976 222.23 332.844 222.686 332.772C222.23 332.7 221.774 332.568 221.318 332.376C220.862 332.184 220.418 331.956 219.986 331.692L214.478 328.416L216.782 324.528L222.29 327.804C223.178 328.284 223.91 328.848 224.486 329.496C224.198 328.68 224.054 327.78 224.054 326.796V320.28H228.77V326.724C228.77 327.204 228.734 327.684 228.662 328.164C228.614 328.62 228.518 329.052 228.374 329.46C228.662 329.124 228.986 328.824 229.346 328.56C229.73 328.296 230.138 328.044 230.57 327.804L236.042 324.6L238.382 328.488L232.874 331.692Z" fill="#272343"/>
</g>
</svg>
