<svg width="161" height="115" viewBox="0 0 161 115" fill="none" xmlns="http://www.w3.org/2000/svg">
<path fill-rule="evenodd" clip-rule="evenodd" d="M82.9575 50.8042C82.8923 55.9772 87.5392 58.864 91.0395 60.5804C94.6361 62.3416 95.8441 63.4709 95.8303 65.0455C95.8029 67.4559 92.9612 68.5194 90.3018 68.5608C85.6618 68.6332 82.9643 67.3004 80.8195 66.2921L79.1483 74.1618C81.3001 75.16 85.2843 76.0303 89.4163 76.0683C99.1146 76.0683 105.46 71.2509 105.494 63.7817C105.532 54.3025 92.4638 53.7775 92.5529 49.5403C92.5838 48.2558 93.8021 46.8847 96.4721 46.536C97.7932 46.36 101.441 46.2252 105.577 48.1417L107.2 40.5275C104.976 39.7124 102.117 38.9319 98.5586 38.9319C89.4301 38.9319 83.0092 43.8148 82.9575 50.8042ZM122.797 39.588C121.027 39.588 119.534 40.6276 118.868 42.2229L105.014 75.5088H114.705L116.634 70.1458H128.477L129.596 75.5088H138.137L130.683 39.588H122.797ZM124.153 49.2917L126.95 62.78H119.29L124.153 49.2917ZM71.2072 39.588L63.5681 75.5088H72.8029L80.4386 39.588H71.2072ZM57.5452 39.588L47.9326 64.037L44.0443 43.2484C43.5881 40.928 41.7863 39.588 39.7855 39.588H24.0715L23.8518 40.631C27.0778 41.3354 30.7429 42.4716 32.9632 43.6871C34.3221 44.4295 34.7101 45.0786 35.1561 46.8433L42.5206 75.5088H52.2809L67.2435 39.588H57.5452Z" fill="#1A1F71"/>
</svg>
