<svg width="142" height="159" viewBox="0 0 142 159" fill="none" xmlns="http://www.w3.org/2000/svg">
<g clip-path="url(#clip0_486_8417)">
<path d="M49.7227 98.4112C76.83 98.4112 98.8048 76.4594 98.8048 49.3804C98.8048 22.3014 76.83 0.349548 49.7227 0.349548C22.6153 0.349548 0.640503 22.3014 0.640503 49.3804C0.640503 76.4594 22.6153 98.4112 49.7227 98.4112Z" fill="#E7AA07"/>
<path opacity="0.2" d="M47.4009 66.7337C45.1524 68.9798 42.1028 70.2417 38.923 70.2417C35.7431 70.2417 32.6935 68.9798 30.445 66.7337C28.5128 64.8027 27.2988 62.2704 27.0041 59.556C26.7094 56.8417 27.3518 54.1082 28.8247 51.8084L26.187 54.4967C23.9385 56.7429 22.6753 59.7893 22.6753 62.9658C22.6753 66.1424 23.9385 69.1888 26.187 71.4349C28.4355 73.6811 31.4851 74.943 34.665 74.943C37.8448 74.943 40.8944 73.6811 43.1429 71.435L48.9884 65.3718L49.0773 64.9948L47.4009 66.7337Z" fill="black"/>
<path opacity="0.2" d="M52.9694 29.2753C55.5975 27.4871 58.8292 26.8152 61.9533 27.4072C65.0774 27.9993 67.8382 29.8068 69.6282 32.4323C71.1663 34.6891 71.8865 37.4032 71.6696 40.1248C71.4526 42.8464 70.3115 45.4124 68.4353 47.3977L71.5284 45.2476C74.1566 43.4594 75.966 40.7016 76.5587 37.5807C77.1514 34.4598 76.4787 31.2316 74.6887 28.6062C72.8987 25.9807 70.138 24.1731 67.0138 23.5811C63.8897 22.989 60.6581 23.661 58.0299 25.4491L51.1556 30.3177L50.9979 30.6715L52.9694 29.2753Z" fill="black"/>
<path d="M34.6651 76.4414C32.0857 76.4414 29.5643 75.6774 27.4196 74.2459C25.2749 72.8144 23.6034 70.7797 22.6163 68.3991C21.6292 66.0186 21.3709 63.3991 21.8741 60.872C22.3774 58.3448 23.6195 56.0235 25.4434 54.2015L36.5108 42.9218C37.7215 41.7105 39.1592 40.7493 40.7419 40.0933C42.3245 39.4373 44.0211 39.0993 45.7346 39.0986C47.4481 39.098 49.145 39.4346 50.7282 40.0893C52.3113 40.7441 53.7499 41.7041 54.9615 42.9145C55.1587 43.1115 55.2695 43.3787 55.2695 43.6573C55.2695 43.9359 55.1587 44.2031 54.9615 44.4002C54.7642 44.5972 54.4968 44.7079 54.2178 44.7079C53.9389 44.7079 53.6714 44.5972 53.4742 44.4002C51.4229 42.3511 48.6408 41.1999 45.7399 41.2C42.839 41.2 40.057 42.3511 38.0057 44.4002C36.3801 50.125 32.8677 54.053 26.9382 55.6799C25.9208 56.6938 25.1134 57.898 24.5621 59.2237C24.0108 60.5494 23.7264 61.9707 23.7252 63.4063C23.724 64.8418 24.006 66.2636 24.555 67.5902C25.1041 68.9169 25.9095 70.1225 26.9251 71.1381C27.9408 72.1536 29.1469 72.9593 30.4744 73.5091C31.8019 74.0589 33.2249 74.3419 34.6619 74.3421C36.099 74.3423 37.522 74.0596 38.8497 73.5101C40.1773 72.9606 41.3836 72.1552 42.3995 71.1399C42.1598 68.7913 42.8468 66.5836 48.2311 65.0907C48.3268 64.9909 48.4412 64.9109 48.5679 64.8554C48.6946 64.7999 48.831 64.7698 48.9694 64.767C49.1077 64.7643 49.2452 64.7888 49.3741 64.8392C49.5029 64.8896 49.6205 64.9649 49.7201 65.0607C49.8198 65.1566 49.8995 65.2712 49.9548 65.3979C50.01 65.5246 50.0397 65.661 50.0421 65.7992C50.0445 65.9374 50.0196 66.0747 49.9688 66.2032C49.9179 66.3318 49.8422 66.4491 49.746 66.5483L43.9005 72.6115C42.6915 73.8288 41.2526 74.7942 39.6672 75.4516C38.0819 76.109 36.3816 76.4454 34.6651 76.4414Z" fill="white"/>
<path d="M52.6331 60.4844C50.9198 60.4891 49.2225 60.1542 47.6396 59.4992C46.0567 58.8442 44.6196 57.882 43.4114 56.6684C43.2142 56.4714 43.1034 56.2041 43.1034 55.9255C43.1034 55.6468 43.2143 55.3796 43.4115 55.1826C43.6088 54.9856 43.8764 54.8749 44.1553 54.8749C44.4343 54.875 44.7018 54.9857 44.899 55.1828C45.9146 56.1974 47.1204 57.0023 48.4474 57.5514C49.7745 58.1005 51.1968 58.3831 52.6332 58.3831C54.0695 58.3831 55.4918 58.1005 56.8189 57.5514C58.1459 57.0023 59.3517 56.1974 60.3673 55.1828C61.769 46.7479 67.4837 45.5575 72.4509 43.1122C73.4666 42.0975 74.2723 40.893 74.822 39.5673C75.3717 38.2416 75.6546 36.8208 75.6546 35.3859C75.6545 33.951 75.3716 32.5301 74.8219 31.2045C74.2722 29.8788 73.4665 28.6742 72.4508 27.6596C71.4352 26.645 70.2294 25.8402 68.9023 25.2911C67.5752 24.7419 66.1529 24.4593 64.7165 24.4593C63.2801 24.4594 61.8577 24.742 60.5307 25.2911C59.2036 25.8402 57.9978 26.6451 56.9821 27.6597C55.6003 31.6421 54.2437 35.6715 50.1282 34.5064C50.0306 34.604 49.9146 34.6814 49.7871 34.7342C49.6595 34.787 49.5227 34.8142 49.3846 34.8142C49.1057 34.8142 48.8382 34.7035 48.6409 34.5065C48.4437 34.3094 48.3329 34.0422 48.3329 33.7636C48.3329 33.485 48.4437 33.2177 48.6409 33.0207L55.4948 26.174C56.7058 24.9642 58.1435 24.0046 59.7257 23.3499C61.308 22.6952 63.0038 22.3582 64.7164 22.3582C66.429 22.3582 68.1248 22.6952 69.7071 23.3499C71.2893 24.0046 72.727 24.9642 73.938 26.1739C75.149 27.3836 76.1097 28.8198 76.7651 30.4004C77.4204 31.981 77.7578 33.675 77.7578 35.3859C77.7578 37.0967 77.4205 38.7908 76.7651 40.3713C76.1097 41.9519 75.1491 43.3881 73.9381 44.5978L61.8547 56.6686C60.6465 57.8822 59.2094 58.8443 57.6265 59.4993C56.0436 60.1542 54.3464 60.4891 52.6331 60.4844Z" fill="white"/>
<path d="M92.3671 24.4279C90.3057 20.9307 87.8251 17.6976 84.9801 14.8003C84.3456 14.1559 83.6901 13.5254 83.0204 12.9125C82.6488 12.5729 82.2737 12.2401 81.8914 11.9144C81.1658 11.291 80.4191 10.6886 79.6583 10.1073C71.0641 3.54036 60.5419 -0.0121863 49.7217 3.14088e-05C22.467 3.14088e-05 0.288945 22.1515 0.288945 49.3811C0.287683 52.3835 0.56106 55.3798 1.10567 58.3326C1.10654 58.3491 1.10895 58.3655 1.11286 58.3816C1.36177 59.737 1.67024 61.0748 2.02784 62.3881C4.56104 71.6581 9.74679 79.9882 16.9494 86.3573C24.152 92.7264 33.0584 96.8578 42.5768 98.245C52.0952 99.6321 61.812 98.2147 70.5359 94.1666C79.2598 90.1185 86.6117 83.6155 91.6904 75.4549C92.3739 74.3551 93.0167 73.2274 93.6186 72.0717C97.4576 64.6717 99.3563 56.4205 99.1374 48.0887C98.9186 39.757 96.5893 31.6165 92.3671 24.4279ZM49.7217 98.0617C43.3215 98.0639 36.9837 96.8062 31.0703 94.3606C25.1569 91.9149 19.7839 88.3292 15.2584 83.8084C10.7328 79.2875 7.14332 73.9201 4.69511 68.0129C2.24689 62.1058 0.987922 55.7745 0.990118 49.3811C0.990118 22.5366 22.8527 0.700472 49.7217 0.700472C56.2239 0.704154 62.6596 2.00813 68.6495 4.53554C74.6393 7.06296 80.0621 10.7627 84.5981 15.4166C85.7811 16.6229 86.8976 17.8926 87.9426 19.2201C88.9774 20.519 89.9428 21.8716 90.835 23.2721C94.5541 29.1085 96.9844 35.6702 97.9638 42.5193C98.9432 49.3684 98.449 56.3474 96.5144 62.9906C96.0832 64.4754 95.5784 65.929 95.0104 67.3543C94.439 68.7833 93.8044 70.1842 93.1032 71.543C89.0029 79.513 82.7869 86.2028 75.1354 90.88C67.484 95.5573 58.692 98.0418 49.7217 98.0617Z" fill="#3F3D56"/>
<path d="M32.6691 50.6103C33.2499 50.6103 33.7208 50.1399 33.7208 49.5596C33.7208 48.9794 33.2499 48.509 32.6691 48.509C32.0882 48.509 31.6173 48.9794 31.6173 49.5596C31.6173 50.1399 32.0882 50.6103 32.6691 50.6103Z" fill="#E7AA07"/>
<path d="M65.9749 49.9099C66.5557 49.9099 67.0266 49.4395 67.0266 48.8592C67.0266 48.2789 66.5557 47.8085 65.9749 47.8085C65.394 47.8085 64.9231 48.2789 64.9231 48.8592C64.9231 49.4395 65.394 49.9099 65.9749 49.9099Z" fill="#E7AA07"/>
</g>
<g clip-path="url(#clip1_486_8417)">
<path d="M133.731 29.8703H124.648C124.351 29.8766 124.059 29.9413 123.788 30.0606C123.517 30.1799 123.272 30.3515 123.067 30.5656C122.862 30.7796 122.701 31.0319 122.594 31.3081C122.487 31.5842 122.436 31.8787 122.443 32.1747V33.8207C122.455 34.4184 122.229 34.9964 121.815 35.4278C121.401 35.8593 120.832 36.1088 120.234 36.1217H102.533C101.935 36.1079 101.366 35.8575 100.953 35.4254C100.539 34.9933 100.314 34.4149 100.328 33.8172V32.1712C100.341 31.5736 100.116 30.9952 99.7024 30.5631C99.2889 30.131 98.7206 29.8805 98.1224 29.8668H86.9772C85.0859 29.8658 83.2714 30.614 81.9314 31.9474C80.5914 33.2807 79.8352 35.0904 79.8287 36.9797L79.8042 151.502C79.8028 152.44 79.9865 153.369 80.3447 154.236C80.703 155.103 81.2287 155.89 81.892 156.554C82.5552 157.218 83.3429 157.745 84.21 158.104C85.0772 158.464 86.0068 158.649 86.9457 158.65L133.7 158.678C134.638 158.678 135.568 158.494 136.435 158.135C137.303 157.777 138.091 157.251 138.754 156.588C139.418 155.926 139.945 155.139 140.304 154.272C140.663 153.406 140.848 152.478 140.848 151.54L140.873 37.0183C140.874 36.0805 140.69 35.1517 140.331 34.285C139.973 33.4182 139.447 32.6305 138.784 31.9668C138.121 31.303 137.333 30.7762 136.467 30.4165C135.6 30.0568 134.67 29.8712 133.731 29.8703Z" fill="white"/>
<path d="M133.731 29.8703H133.973C134.216 29.8718 134.459 29.8905 134.699 29.9263C135.649 30.0401 136.563 30.3554 137.381 30.8509C137.989 31.2048 138.539 31.6502 139.011 32.1712C139.59 32.8007 140.051 33.5291 140.372 34.3216C140.744 35.2424 140.926 36.2286 140.908 37.2214C140.908 38.2721 140.908 39.3998 140.908 40.587C140.908 50.099 140.908 63.8627 140.932 80.8624C140.957 97.862 140.932 118.119 140.932 140.603V151.295C140.945 152.031 140.852 152.764 140.656 153.474C140.458 154.187 140.15 154.865 139.744 155.484C139.33 156.104 138.828 156.661 138.254 157.137C137.08 158.088 135.637 158.647 134.128 158.737C132.631 158.779 131.141 158.737 129.637 158.755H120.521H101.842H92.2886H87.489C85.8396 158.848 84.205 158.398 82.8368 157.473C81.4767 156.528 80.477 155.15 80.0005 153.565C79.7779 152.779 79.6774 151.964 79.7025 151.148V148.742C79.7025 145.539 79.7025 142.356 79.7025 139.195C79.7025 132.872 79.7025 126.65 79.7025 120.528C79.7025 108.292 79.7025 96.4892 79.7025 85.2436C79.7025 73.998 79.7025 63.3163 79.7025 53.314C79.7025 48.3176 79.7025 43.495 79.7025 38.8464V37.0953C79.7025 36.8082 79.7306 36.5175 79.7446 36.2303C79.7586 35.9431 79.8182 35.6559 79.8918 35.3793C80.1485 34.2674 80.6624 33.231 81.3923 32.3534C82.1078 31.5014 83.0099 30.8252 84.0287 30.377C85.0476 29.9288 86.156 29.7207 87.2682 29.7687H93.4981H97.9611C98.4587 29.7443 98.9508 29.8819 99.3634 30.161C99.7672 30.4435 100.072 30.8452 100.236 31.3097C100.37 31.7638 100.42 32.2386 100.384 32.7106C100.384 32.9417 100.384 33.1729 100.384 33.411C100.376 33.6378 100.384 33.8648 100.408 34.0904C100.463 34.5326 100.649 34.9484 100.941 35.2847C101.219 35.6239 101.597 35.8676 102.021 35.9816C102.232 36.0306 102.449 36.0518 102.666 36.0447H105.905L115.343 36.0727H119.498C119.824 36.0727 120.16 36.0727 120.469 36.0727C120.78 36.0365 121.08 35.9312 121.345 35.7645C121.601 35.6034 121.823 35.3928 121.996 35.145C122.169 34.8972 122.291 34.6172 122.355 34.3216C122.403 34.0359 122.422 33.7461 122.411 33.4565V32.5915C122.399 32.3131 122.412 32.0341 122.45 31.758C122.49 31.4907 122.577 31.2325 122.705 30.9945C122.956 30.5359 123.359 30.1791 123.845 29.9859C124.298 29.8442 124.774 29.793 125.247 29.8353C124.774 29.79 124.297 29.8413 123.845 29.9859C123.375 30.1761 122.985 30.5225 122.741 30.9665C122.613 31.1988 122.525 31.451 122.481 31.7124C122.446 31.9841 122.435 32.2583 122.446 32.532V33.446C122.471 33.7378 122.464 34.0314 122.425 34.3216C122.36 34.6263 122.235 34.9152 122.058 35.1713C121.88 35.4274 121.654 35.6457 121.391 35.8135C121.115 35.987 120.803 36.097 120.479 36.1357C120.15 36.1637 119.831 36.1357 119.498 36.1357H102.669C102.443 36.1429 102.217 36.1206 101.996 36.0692C101.548 35.9614 101.145 35.7166 100.843 35.3687C100.534 35.0146 100.338 34.5771 100.278 34.1115C100.254 33.8788 100.246 33.6448 100.254 33.411V32.7106C100.293 32.2494 100.245 31.785 100.114 31.3412C99.9583 30.9027 99.6689 30.5241 99.2863 30.259C98.8936 29.9927 98.4244 29.8623 97.9505 29.8878H87.2576C86.1746 29.8469 85.0965 30.0541 84.106 30.4936C83.1155 30.9331 82.2388 31.5932 81.5431 32.4234C80.8284 33.2828 80.3253 34.2975 80.0741 35.3863C80.004 35.6559 79.983 35.9396 79.9339 36.2163C79.8848 36.493 79.8988 36.7801 79.8953 37.0673V38.8184C79.8953 43.46 79.8953 48.2825 79.8953 53.286V120.507C79.8953 126.627 79.8953 132.849 79.8953 139.174V151.127C79.8685 151.923 79.9667 152.718 80.1863 153.484C80.6465 155.025 81.6168 156.365 82.9384 157.284C84.2781 158.191 85.8804 158.631 87.4961 158.534H101.87H120.549H129.665C131.165 158.534 132.669 158.559 134.145 158.513C135.615 158.429 137.02 157.885 138.163 156.958C138.721 156.496 139.209 155.954 139.611 155.351C140.007 154.748 140.308 154.088 140.501 153.393C140.693 152.701 140.783 151.985 140.768 151.267V149.103C140.768 146.224 140.768 143.379 140.768 140.568C140.768 118.084 140.792 97.841 140.803 80.8273C140.813 63.8136 140.834 50.057 140.841 40.552V37.1864C140.86 36.2059 140.681 35.2318 140.315 34.3216C139.996 33.5473 139.541 32.8359 138.973 32.2203C137.856 30.9905 136.342 30.1911 134.696 29.9613C134.457 29.9232 134.215 29.901 133.973 29.8948L133.731 29.8703Z" fill="#2D334A"/>
<path d="M135.099 42.972C135.099 43.0036 133.921 43.0351 132.462 43.0491C131.004 43.0631 129.822 43.0491 129.822 43.0141C129.822 42.979 131.004 42.951 132.462 42.937C133.921 42.923 135.099 42.9405 135.099 42.972Z" fill="#2D334A"/>
<path d="M135.113 44.3204C135.113 44.3519 133.931 44.3869 132.473 44.3974C131.014 44.4079 129.836 44.3974 129.836 44.3624C129.836 44.3274 131.014 44.2993 132.473 44.2853C133.931 44.2713 135.113 44.2888 135.113 44.3204Z" fill="#2D334A"/>
<path d="M135.123 45.6687C135.123 45.7003 133.942 45.7353 132.483 45.7458C131.025 45.7563 129.847 45.7458 129.847 45.7108C129.847 45.6758 131.025 45.6477 132.483 45.6337C133.942 45.6197 135.123 45.6372 135.123 45.6687Z" fill="#2D334A"/>
<path d="M87.1209 47.2517H87.2296H87.5346L88.66 47.2272L88.6285 47.2587C88.6285 47.0066 88.6285 46.7334 88.6285 46.4427C88.6285 46.2886 88.6285 46.145 88.6285 45.9699C88.6453 45.8785 88.6913 45.7951 88.7596 45.732C88.8278 45.6689 88.9146 45.6295 89.0071 45.6197C89.1894 45.6197 89.3577 45.6197 89.5435 45.6197C89.6475 45.6349 89.7425 45.6873 89.8109 45.7672C89.8792 45.847 89.9162 45.9489 89.9151 46.054C89.9151 46.4322 89.9151 46.8314 89.9151 47.2447L89.8625 47.1922H91.2649L91.2123 47.2447C91.2123 46.6738 91.2123 46.082 91.2123 45.4936C91.2123 45.343 91.2123 45.1924 91.2123 45.0453C91.2087 44.9754 91.1887 44.9073 91.154 44.8465C91.1193 44.7857 91.0708 44.7338 91.0125 44.6951L90.3919 44.0822L89.7924 43.4903L89.5014 43.2067C89.4261 43.1068 89.324 43.0303 89.2069 42.986C89.1514 42.9708 89.0931 42.9686 89.0365 42.9795C88.98 42.9905 88.9267 43.0143 88.8809 43.0491C88.7967 43.1226 88.7056 43.2242 88.6179 43.3082L88.1061 43.7775C87.7871 44.1102 87.454 44.4149 87.2086 44.7021C87.1378 44.8688 87.1136 45.0516 87.1385 45.2309V45.7318C87.1385 46.0364 87.1385 46.3061 87.1385 46.5373C87.1385 46.7684 87.1385 46.912 87.1385 47.0521C87.1385 47.1922 87.1385 47.2342 87.1385 47.2377C87.1335 47.1806 87.1335 47.1232 87.1385 47.0661C87.1385 46.9295 87.1385 46.7614 87.1385 46.5583C87.1385 46.3551 87.1385 46.0575 87.1209 45.7493C87.1209 45.5882 87.1209 45.399 87.1209 45.2379C87.1209 45.1469 87.1209 45.0523 87.1209 44.9578C87.1191 44.8534 87.1458 44.7505 87.1981 44.6601C87.461 44.3379 87.773 44.0542 88.0991 43.711L88.6039 43.1927C88.6951 43.1051 88.7687 43.0175 88.8774 42.923C88.9358 42.8793 89.0033 42.8493 89.075 42.8353C89.1466 42.8214 89.2205 42.8238 89.2911 42.8424C89.4285 42.8882 89.5501 42.972 89.6417 43.0841L89.9326 43.3713L90.5357 43.9596L91.1562 44.569C91.216 44.6203 91.27 44.6778 91.3175 44.7406C91.3627 44.8134 91.3881 44.8967 91.3911 44.9823C91.3911 45.1329 91.3911 45.2835 91.3911 45.4341C91.3911 46.0399 91.3911 46.6318 91.3911 47.1852V47.2797H91.335H89.9326H89.8801V47.2272C89.8801 46.8139 89.8801 46.4182 89.8801 46.0364C89.8814 45.9535 89.8533 45.8728 89.8006 45.8087C89.748 45.7445 89.6742 45.7011 89.5926 45.6862C89.4313 45.6862 89.242 45.6862 89.0772 45.6862C89.0036 45.6943 88.9345 45.7254 88.8797 45.7751C88.8249 45.8248 88.7873 45.8905 88.7722 45.9629C88.7722 46.1065 88.7722 46.2711 88.7722 46.4147V47.2797H88.7406H87.5977H87.2997C87.2389 47.2822 87.1781 47.2727 87.1209 47.2517Z" fill="#2D334A"/>
<path d="M115.185 54.9846C115.179 55.9467 114.888 56.8855 114.348 57.6824C113.809 58.4794 113.045 59.0989 112.153 59.4628C111.262 59.8267 110.282 59.9186 109.338 59.7271C108.394 59.5356 107.528 59.0692 106.849 58.3866C106.171 57.7041 105.709 56.836 105.524 55.8919C105.338 54.9478 105.436 53.9699 105.806 53.0816C106.176 52.1932 106.801 51.4343 107.603 50.9003C108.404 50.3664 109.346 50.0815 110.309 50.0815C110.952 50.0815 111.588 50.2085 112.182 50.4553C112.776 50.7021 113.315 51.0637 113.768 51.5195C114.221 51.9752 114.58 52.5159 114.823 53.1106C115.066 53.7053 115.19 54.3422 115.185 54.9846Z" fill="#2D334A"/>
<g opacity="0.4">
<path d="M111.809 52.1373V55.8917H105.544C105.544 55.8917 105.124 53.5697 106.4 52.0392L111.809 52.1373Z" fill="#272343"/>
</g>
<path d="M109.537 54.074C109.538 54.3159 109.467 54.5525 109.333 54.754C109.199 54.9555 109.008 55.1127 108.785 55.2057C108.561 55.2988 108.315 55.3235 108.077 55.2767C107.84 55.2299 107.621 55.1138 107.45 54.943C107.278 54.7722 107.162 54.5544 107.114 54.3172C107.067 54.0801 107.091 53.8341 107.183 53.6106C107.276 53.387 107.432 53.1959 107.634 53.0615C107.835 52.927 108.072 52.8552 108.314 52.8552C108.474 52.8548 108.633 52.886 108.782 52.947C108.93 53.008 109.065 53.0977 109.179 53.211C109.293 53.3242 109.383 53.4587 109.444 53.6068C109.506 53.7549 109.537 53.9137 109.537 54.074Z" fill="#2D334A"/>
<path d="M112.044 57.3871C111.749 57.3871 111.46 57.2996 111.214 57.1356C110.969 56.9717 110.777 56.7387 110.664 56.4661C110.551 56.1935 110.522 55.8935 110.579 55.6041C110.637 55.3147 110.779 55.0488 110.988 54.8402C111.197 54.6315 111.463 54.4894 111.753 54.4319C112.043 54.3743 112.343 54.4038 112.616 54.5168C112.889 54.6297 113.122 54.8209 113.286 55.0663C113.45 55.3116 113.538 55.6001 113.538 55.8951C113.538 56.2908 113.38 56.6703 113.1 56.9501C112.82 57.2299 112.44 57.3871 112.044 57.3871ZM112.044 54.9355C111.856 54.9355 111.672 54.9913 111.516 55.0957C111.36 55.2002 111.238 55.3486 111.166 55.5222C111.094 55.6959 111.076 55.8869 111.113 56.0711C111.15 56.2553 111.24 56.4244 111.374 56.557C111.507 56.6896 111.676 56.7797 111.861 56.8159C112.045 56.8521 112.237 56.8328 112.41 56.7605C112.584 56.6881 112.732 56.5659 112.836 56.4094C112.94 56.2528 112.995 56.069 112.994 55.8811C112.991 55.6322 112.889 55.3947 112.711 55.2203C112.533 55.0459 112.293 54.9486 112.044 54.9495V54.9355Z" fill="#E7AA07"/>
<path d="M108.398 53.976V57.958H114.162C114.608 57.4079 114.924 56.7634 115.083 56.0734C115.243 55.3834 115.243 54.666 115.084 53.976H108.398Z" fill="white"/>
<path d="M113.264 55.9652C113.265 56.2073 113.194 56.4441 113.059 56.6456C112.925 56.8471 112.734 57.0043 112.511 57.0973C112.287 57.1902 112.041 57.2147 111.803 57.1677C111.565 57.1206 111.347 57.0042 111.176 56.833C111.004 56.6619 110.888 56.4437 110.84 56.2063C110.793 55.9689 110.818 55.7229 110.911 55.4994C111.004 55.2759 111.161 55.085 111.363 54.951C111.565 54.817 111.802 54.7458 112.044 54.7465C112.368 54.7465 112.678 54.8749 112.907 55.1034C113.136 55.332 113.264 55.642 113.264 55.9652Z" fill="#2D334A"/>
<path d="M121.03 134.569H99.6228C97.0244 134.569 94.918 136.673 94.918 139.269V139.272C94.918 141.868 97.0244 143.972 99.6228 143.972H121.03C123.628 143.972 125.735 141.868 125.735 139.272V139.269C125.735 136.673 123.628 134.569 121.03 134.569Z" fill="#E7AA07"/>
<path d="M103.388 138.705C103.388 139.216 103.016 139.528 102.403 139.528H101.754V140.288H101.502V137.878H102.403C103.016 137.878 103.388 138.186 103.388 138.705ZM103.136 138.705C103.136 138.32 102.88 138.099 102.396 138.099H101.754V139.304H102.396C102.88 139.304 103.136 139.083 103.136 138.705Z" fill="white"/>
<path d="M105.243 139.164V140.288H105.008V140.004C104.94 140.106 104.847 140.187 104.737 140.24C104.627 140.293 104.505 140.316 104.384 140.305C103.974 140.305 103.721 140.092 103.721 139.78C103.721 139.468 103.9 139.265 104.422 139.265H104.997V139.157C104.997 138.845 104.822 138.677 104.482 138.677C104.262 138.674 104.048 138.75 103.879 138.89L103.77 138.708C103.979 138.543 104.24 138.456 104.507 138.463C104.603 138.449 104.702 138.457 104.796 138.486C104.889 138.516 104.975 138.566 105.046 138.634C105.117 138.701 105.171 138.784 105.205 138.876C105.24 138.968 105.252 139.066 105.243 139.164ZM104.997 139.745V139.447H104.429C104.079 139.447 103.963 139.584 103.963 139.773C103.963 139.962 104.131 140.123 104.422 140.123C104.547 140.129 104.67 140.095 104.773 140.025C104.877 139.956 104.955 139.855 104.997 139.738V139.745Z" fill="white"/>
<path d="M107.395 138.477L106.491 140.505C106.337 140.855 106.14 140.974 105.888 140.974C105.725 140.98 105.566 140.92 105.446 140.81L105.558 140.624C105.601 140.669 105.653 140.705 105.71 140.729C105.767 140.753 105.829 140.765 105.891 140.764C106.053 140.764 106.161 140.687 106.266 140.459L106.344 140.284L105.527 138.477H105.783L106.466 140.015L107.146 138.477H107.395Z" fill="white"/>
<path d="M109.46 140.305V140.701H109.288V140.309C108.986 140.303 108.695 140.193 108.465 139.997L108.566 139.797C108.766 139.975 109.021 140.077 109.288 140.088V139.181C108.91 139.09 108.524 138.971 108.524 138.519C108.524 138.186 108.763 137.903 109.288 137.861V137.465H109.46V137.857C109.709 137.862 109.952 137.936 110.161 138.071L110.077 138.274C109.892 138.156 109.68 138.087 109.46 138.074V138.985C109.853 139.079 110.263 139.188 110.263 139.65C110.263 139.987 110.011 140.274 109.46 140.305ZM109.288 138.943V138.081C108.938 138.113 108.777 138.295 108.777 138.512C108.777 138.729 109.008 138.869 109.288 138.943ZM110.011 139.664C110.011 139.391 109.758 139.314 109.46 139.227V140.088C109.842 140.06 110.011 139.885 110.011 139.664Z" fill="white"/>
<path d="M112.188 139.594C112.188 140.001 111.893 140.295 111.311 140.295C110.993 140.306 110.682 140.196 110.442 139.987L110.561 139.787C110.764 139.975 111.034 140.076 111.311 140.067C111.711 140.067 111.932 139.881 111.932 139.58C111.932 139.279 111.729 139.104 111.28 139.104H111.108V138.922L111.774 138.085H110.54V137.864H112.093V138.039L111.41 138.897C111.914 138.939 112.188 139.209 112.188 139.594Z" fill="white"/>
<path d="M114.123 139.58C114.123 139.99 113.839 140.309 113.247 140.309C112.93 140.32 112.622 140.209 112.384 140.001L112.503 139.801C112.602 139.894 112.718 139.967 112.845 140.015C112.972 140.063 113.107 140.085 113.243 140.081C113.653 140.081 113.871 139.881 113.871 139.587C113.871 139.293 113.678 139.086 113.064 139.086H112.538L112.661 137.878H113.983V138.099H112.889L112.808 138.866H113.117C113.85 138.866 114.123 139.153 114.123 139.58Z" fill="white"/>
<path d="M114.442 140.116C114.441 140.092 114.445 140.068 114.454 140.045C114.463 140.022 114.476 140.001 114.493 139.984C114.51 139.967 114.531 139.953 114.553 139.944C114.576 139.935 114.6 139.93 114.624 139.931C114.674 139.931 114.721 139.95 114.756 139.985C114.791 140.02 114.81 140.067 114.81 140.116C114.81 140.166 114.791 140.213 114.756 140.249C114.721 140.284 114.674 140.304 114.624 140.305C114.6 140.305 114.576 140.3 114.554 140.29C114.531 140.28 114.511 140.266 114.494 140.248C114.477 140.231 114.464 140.21 114.455 140.187C114.446 140.165 114.442 140.141 114.442 140.116Z" fill="white"/>
<path d="M115.129 139.083C115.129 138.316 115.532 137.857 116.093 137.857C116.654 137.857 117.057 138.316 117.057 139.083C117.057 139.85 116.651 140.309 116.093 140.309C115.536 140.309 115.129 139.85 115.129 139.083ZM116.802 139.083C116.802 138.439 116.514 138.085 116.1 138.085C115.687 138.085 115.399 138.435 115.399 139.083C115.399 139.731 115.69 140.081 116.1 140.081C116.511 140.081 116.802 139.738 116.802 139.083Z" fill="white"/>
<path d="M117.415 139.083C117.415 138.316 117.818 137.857 118.376 137.857C118.933 137.857 119.34 138.316 119.34 139.083C119.34 139.85 118.933 140.309 118.376 140.309C117.818 140.309 117.415 139.85 117.415 139.083ZM119.084 139.083C119.084 138.439 118.796 138.085 118.383 138.085C117.969 138.085 117.682 138.435 117.682 139.083C117.682 139.731 117.973 140.081 118.383 140.081C118.793 140.081 119.084 139.738 119.084 139.083Z" fill="white"/>
<path d="M136.729 94.3318C136.729 94.3809 125.303 94.4229 111.217 94.4229C97.1302 94.4229 85.701 94.3809 85.701 94.3318C85.701 94.2828 97.1232 94.2408 111.217 94.2408C125.31 94.2408 136.729 94.2828 136.729 94.3318Z" fill="#E0E0E0"/>
<path d="M135.547 116.739C135.547 116.791 124.122 116.83 110.035 116.83C95.9487 116.83 84.5195 116.791 84.5195 116.739C84.5195 116.686 95.9416 116.648 110.035 116.648C124.129 116.648 135.547 116.69 135.547 116.739Z" fill="#2D334A"/>
<path d="M135.547 129.102C135.547 129.151 124.122 129.193 110.035 129.193C95.9487 129.193 84.5195 129.151 84.5195 129.102C84.5195 129.053 95.9416 129.011 110.035 129.011C124.129 129.011 135.547 129.049 135.547 129.102Z" fill="#2D334A"/>
<path d="M105.593 119.446H104.752V119.229H106.684V119.446H105.846V121.614H105.593V119.446Z" fill="#2D334A"/>
<path d="M106.792 120.584H107.69V120.798H106.792V120.584Z" fill="#2D334A"/>
<path d="M107.981 121.411L108.09 121.218C108.276 121.351 108.499 121.422 108.728 121.421C109.078 121.421 109.211 121.306 109.211 121.127C109.211 120.661 108.047 121.029 108.047 120.318C108.047 120.027 108.3 119.807 108.749 119.807C108.972 119.803 109.191 119.861 109.383 119.975L109.278 120.168C109.121 120.065 108.936 120.012 108.749 120.017C108.426 120.017 108.282 120.143 108.282 120.311C108.282 120.798 109.446 120.43 109.446 121.12C109.446 121.432 109.173 121.632 108.707 121.632C108.447 121.638 108.193 121.56 107.981 121.411Z" fill="#2D334A"/>
<path d="M111.553 120.574V121.624H111.311V120.609C111.322 120.534 111.316 120.458 111.293 120.386C111.27 120.314 111.232 120.248 111.18 120.193C111.128 120.138 111.064 120.096 110.993 120.069C110.923 120.042 110.847 120.031 110.772 120.038C110.686 120.031 110.6 120.044 110.52 120.074C110.439 120.104 110.366 120.152 110.307 120.213C110.247 120.275 110.201 120.349 110.173 120.43C110.145 120.511 110.135 120.597 110.144 120.682V121.624H109.902V119.075H110.144V120.126C110.218 120.017 110.319 119.929 110.437 119.871C110.555 119.814 110.686 119.788 110.817 119.796C110.919 119.791 111.021 119.807 111.116 119.845C111.21 119.882 111.296 119.94 111.366 120.014C111.436 120.088 111.489 120.177 111.522 120.273C111.554 120.37 111.565 120.473 111.553 120.574Z" fill="#2D334A"/>
<path d="M112.156 119.257C112.157 119.234 112.162 119.211 112.171 119.19C112.18 119.169 112.193 119.15 112.21 119.134C112.227 119.118 112.246 119.106 112.268 119.097C112.289 119.089 112.312 119.085 112.335 119.085C112.382 119.085 112.426 119.104 112.459 119.137C112.492 119.169 112.51 119.214 112.51 119.26C112.51 119.307 112.492 119.351 112.459 119.384C112.426 119.417 112.382 119.436 112.335 119.436C112.311 119.436 112.288 119.432 112.266 119.423C112.244 119.414 112.224 119.401 112.208 119.384C112.191 119.368 112.178 119.348 112.169 119.326C112.16 119.304 112.156 119.281 112.156 119.257ZM112.212 119.821H112.454V121.614H112.212V119.821Z" fill="#2D334A"/>
<path d="M114.035 119.807V120.042H113.976C113.89 120.038 113.805 120.053 113.726 120.085C113.647 120.118 113.576 120.168 113.519 120.231C113.461 120.294 113.418 120.369 113.393 120.451C113.368 120.533 113.361 120.619 113.373 120.703V121.618H113.131V119.824H113.362V120.175C113.424 120.052 113.522 119.952 113.642 119.886C113.762 119.821 113.899 119.793 114.035 119.807Z" fill="#2D334A"/>
<path d="M115.494 121.505C115.387 121.591 115.252 121.635 115.115 121.631C115.045 121.639 114.973 121.631 114.907 121.608C114.84 121.584 114.779 121.546 114.729 121.496C114.679 121.446 114.64 121.385 114.617 121.318C114.593 121.251 114.585 121.18 114.593 121.11V120.027H114.27V119.821H114.593V119.425H114.835V119.817H115.378V120.024H114.835V121.075C114.828 121.118 114.832 121.161 114.845 121.203C114.857 121.244 114.88 121.282 114.909 121.314C114.939 121.346 114.975 121.37 115.016 121.386C115.056 121.401 115.1 121.408 115.143 121.404C115.241 121.406 115.336 121.373 115.41 121.309L115.494 121.505Z" fill="#2D334A"/>
<path d="M104.033 126.601V127.13H103.651V126.605C103.24 126.595 102.841 126.461 102.508 126.219L102.719 125.747C102.989 125.951 103.313 126.073 103.651 126.097V125.169C103.132 125.043 102.578 124.875 102.578 124.227C102.578 123.754 102.929 123.337 103.651 123.267V122.742H104.033V123.278C104.367 123.29 104.691 123.388 104.976 123.561L104.787 124.031C104.556 123.896 104.299 123.81 104.033 123.778V124.72C104.549 124.847 105.113 125.008 105.113 125.656C105.113 126.114 104.762 126.524 104.033 126.601ZM103.651 124.608V123.778C103.301 123.831 103.178 123.999 103.178 124.202C103.178 124.405 103.381 124.528 103.651 124.608ZM104.517 125.684C104.517 125.456 104.31 125.333 104.033 125.27V126.079C104.373 126.041 104.517 125.883 104.517 125.684Z" fill="#2D334A"/>
<path d="M107.77 125.586C107.77 126.135 107.357 126.608 106.48 126.608C106.043 126.616 105.614 126.485 105.257 126.233L105.516 125.761C105.789 125.974 106.127 126.087 106.473 126.083C106.904 126.083 107.174 125.894 107.174 125.589C107.174 125.284 106.961 125.106 106.473 125.106H106.175V124.678L106.915 123.799H105.436V123.292H107.63V123.694L106.838 124.636C106.962 124.635 107.085 124.659 107.2 124.707C107.315 124.755 107.419 124.825 107.506 124.913C107.593 125.002 107.661 125.107 107.707 125.223C107.752 125.338 107.774 125.461 107.77 125.586Z" fill="#2D334A"/>
<path d="M110.491 125.561C110.491 126.135 110.077 126.612 109.201 126.612C108.762 126.621 108.332 126.489 107.974 126.237L108.23 125.764C108.505 125.976 108.843 126.09 109.19 126.086C109.625 126.086 109.892 125.897 109.892 125.589C109.892 125.281 109.692 125.081 109.015 125.081H108.226L108.395 123.309H110.312V123.817H108.91L108.84 124.57H109.152C110.105 124.566 110.491 124.983 110.491 125.561Z" fill="#2D334A"/>
<path d="M110.821 126.209C110.821 126.108 110.861 126.011 110.932 125.939C111.004 125.867 111.101 125.827 111.203 125.827C111.304 125.827 111.401 125.867 111.473 125.939C111.545 126.011 111.585 126.108 111.585 126.209C111.585 126.31 111.545 126.407 111.473 126.479C111.401 126.55 111.304 126.591 111.203 126.591C111.101 126.591 111.004 126.55 110.932 126.479C110.861 126.407 110.821 126.31 110.821 126.209Z" fill="#2D334A"/>
<path d="M111.918 124.934C111.918 123.862 112.507 123.257 113.282 123.257C114.057 123.257 114.646 123.862 114.646 124.934C114.646 126.006 114.06 126.608 113.282 126.608C112.503 126.608 111.918 126.006 111.918 124.934ZM114.021 124.934C114.021 124.146 113.713 123.785 113.268 123.785C112.822 123.785 112.517 124.136 112.517 124.934C112.517 125.733 112.822 126.083 113.268 126.083C113.713 126.083 114.036 125.729 114.036 124.934H114.021Z" fill="#2D334A"/>
<path d="M115.052 124.934C115.052 123.862 115.641 123.257 116.412 123.257C117.184 123.257 117.78 123.862 117.78 124.934C117.78 126.006 117.191 126.608 116.412 126.608C115.634 126.608 115.052 126.006 115.052 124.934ZM117.156 124.934C117.156 124.146 116.847 123.785 116.398 123.785C115.95 123.785 115.652 124.136 115.652 124.934C115.652 125.733 115.957 126.083 116.398 126.083C116.84 126.083 117.17 125.729 117.17 124.934H117.156Z" fill="#2D334A"/>
<path d="M86.4232 99.2594V100.863C86.4223 100.89 86.4268 100.917 86.4364 100.942C86.446 100.967 86.4606 100.99 86.4792 101.009C86.4979 101.028 86.5202 101.044 86.5449 101.054C86.5696 101.065 86.5962 101.07 86.6231 101.07H90.0343C90.0613 101.07 90.088 101.065 90.1129 101.054C90.1378 101.044 90.1604 101.029 90.1793 101.009C90.1982 100.99 90.2131 100.967 90.2231 100.942C90.2332 100.917 90.2381 100.89 90.2376 100.863V99.2629" fill="#2D334A"/>
<path d="M86.4233 98.7796H90.1851C90.1851 98.7796 90.1851 98.3314 89.8626 98.3314H86.7073C86.7073 98.3314 86.3952 98.3594 86.4233 98.7796Z" fill="#2D334A"/>
<path d="M87.9378 100.569C87.9378 100.723 87.7555 100.846 87.5276 100.846C87.2997 100.846 87.1139 100.723 87.1139 100.569C87.1139 100.415 87.2997 100.296 87.5276 100.296C87.7555 100.296 87.9378 100.419 87.9378 100.569Z" fill="#2D334A"/>
<path d="M92.0082 99.8723C92.0081 99.7785 92.0269 99.6857 92.0635 99.5993C92.1 99.5129 92.1536 99.4347 92.2209 99.3694C92.2883 99.3041 92.3681 99.253 92.4556 99.219C92.5431 99.1851 92.6365 99.169 92.7304 99.1718C92.8236 99.1681 92.9165 99.1843 93.003 99.2193C93.0894 99.2544 93.1674 99.3074 93.2317 99.375L93.1406 99.4695C93.0888 99.414 93.0257 99.3703 92.9555 99.3413C92.8854 99.3123 92.8098 99.2987 92.7339 99.3014C92.5805 99.3014 92.4333 99.3623 92.3248 99.4707C92.2164 99.5791 92.1554 99.726 92.1554 99.8793C92.1554 100.033 92.2164 100.18 92.3248 100.288C92.4333 100.396 92.5805 100.457 92.7339 100.457C92.8094 100.46 92.8847 100.446 92.9547 100.418C93.0248 100.39 93.0881 100.347 93.1406 100.293L93.2317 100.384C93.1672 100.452 93.0888 100.506 93.0017 100.542C92.9146 100.577 92.8209 100.594 92.7269 100.59C92.6318 100.593 92.5373 100.576 92.449 100.54C92.3607 100.505 92.2805 100.452 92.2133 100.385C92.1461 100.318 92.0932 100.238 92.058 100.15C92.0227 100.062 92.0058 99.9672 92.0082 99.8723Z" fill="#2D334A"/>
<path d="M94.2799 99.9213V100.573H94.1432V100.408C94.1061 100.466 94.0538 100.513 93.992 100.543C93.9301 100.573 93.8612 100.586 93.7926 100.58C93.5577 100.58 93.4139 100.457 93.4139 100.275C93.4139 100.093 93.5156 99.9774 93.8136 99.9774H94.1432V99.9143C94.1468 99.8755 94.1416 99.8364 94.1278 99.8C94.1141 99.7635 94.0921 99.7307 94.0637 99.704C94.0353 99.6773 94.0011 99.6574 93.9639 99.6459C93.9266 99.6344 93.8872 99.6316 93.8487 99.6377C93.7209 99.6352 93.5964 99.6787 93.4981 99.7602L93.435 99.6552C93.5548 99.5613 93.7035 99.5118 93.8557 99.5151C93.9118 99.5067 93.9691 99.5114 94.0231 99.5286C94.0772 99.5458 94.1266 99.5751 94.1675 99.6143C94.2085 99.6535 94.2399 99.7016 94.2594 99.7548C94.2788 99.808 94.2859 99.865 94.2799 99.9213ZM94.1397 100.272V100.1H93.8136C93.6138 100.1 93.5472 100.177 93.5472 100.286C93.5472 100.394 93.6453 100.485 93.8101 100.485C93.8817 100.485 93.9517 100.464 94.0106 100.423C94.0696 100.382 94.1146 100.325 94.1397 100.258V100.272Z" fill="#2D334A"/>
<path d="M95.1809 99.5151V99.6517H95.1459C94.9285 99.6517 94.7953 99.7882 94.7953 100.037V100.573H94.6586V99.5221H94.7918V99.7287C94.8271 99.6577 94.8833 99.5992 94.9529 99.561C95.0224 99.5228 95.102 99.5068 95.1809 99.5151Z" fill="#2D334A"/>
<path d="M96.3659 99.0913V100.573H96.2326V100.363C96.192 100.432 96.1333 100.488 96.0629 100.527C95.9925 100.565 95.913 100.583 95.833 100.58C95.7082 100.559 95.5948 100.495 95.513 100.399C95.4312 100.303 95.3862 100.181 95.3862 100.054C95.3862 99.9282 95.4312 99.806 95.513 99.7098C95.5948 99.6135 95.7082 99.5495 95.833 99.5291C95.9107 99.5266 95.9878 99.5443 96.0566 99.5805C96.1255 99.6167 96.1837 99.6702 96.2256 99.7357V99.1053L96.3659 99.0913ZM96.2291 100.047C96.2243 99.9724 96.1977 99.9005 96.1525 99.8405C96.1074 99.7804 96.0456 99.7349 95.9748 99.7094C95.9041 99.684 95.8274 99.6798 95.7543 99.6973C95.6812 99.7148 95.6148 99.7533 95.5633 99.808C95.5118 99.8628 95.4774 99.9313 95.4644 100.005C95.4514 100.079 95.4604 100.155 95.4901 100.224C95.5199 100.293 95.5692 100.352 95.632 100.394C95.6948 100.435 95.7683 100.457 95.8435 100.457C95.8964 100.458 95.9489 100.447 95.9976 100.427C96.0463 100.406 96.0902 100.375 96.1264 100.337C96.1627 100.298 96.1905 100.253 96.2082 100.203C96.2259 100.153 96.233 100.1 96.2291 100.047Z" fill="#2D334A"/>
<path d="M107.718 113.408C107.928 113.395 108.135 113.35 108.331 113.275C108.608 113.163 108.851 112.981 109.036 112.746C109.22 112.512 109.34 112.233 109.383 111.937C109.405 111.732 109.411 111.524 109.401 111.318C109.401 111.097 109.401 110.866 109.401 110.617C109.401 110.134 109.401 109.612 109.401 109.052C109.401 108.491 109.401 107.882 109.38 107.258C109.338 106.933 109.202 106.627 108.989 106.378C108.775 106.129 108.493 105.948 108.177 105.858C107.831 105.793 107.477 105.771 107.125 105.795H103.584H98.2696H86.0937C85.8384 105.795 85.5867 105.854 85.3585 105.969C85.1303 106.083 84.9319 106.249 84.779 106.453C84.6228 106.658 84.5193 106.899 84.4775 107.153C84.4473 107.409 84.4367 107.667 84.4459 107.924V111.027C84.4459 111.279 84.4459 111.542 84.4459 111.78C84.4631 112.019 84.5338 112.251 84.6528 112.459C84.7702 112.663 84.9292 112.84 85.1195 112.978C85.3097 113.116 85.527 113.212 85.7571 113.261C85.9893 113.294 86.224 113.305 86.4583 113.296H88.6004L98.5465 113.317L105.25 113.345H107.073H107.546C107.6 113.342 107.654 113.342 107.707 113.345C107.707 113.345 107.655 113.345 107.546 113.345H107.073H105.25L98.5465 113.377L88.6004 113.394H86.4583C86.2088 113.407 85.9587 113.395 85.7115 113.359C85.4561 113.306 85.215 113.199 85.004 113.046C84.7931 112.893 84.6172 112.696 84.488 112.47C84.3551 112.241 84.276 111.984 84.2566 111.72C84.2566 111.454 84.2566 111.212 84.2566 110.953C84.2566 109.938 84.2566 108.901 84.2566 107.85C84.246 107.581 84.2577 107.312 84.2917 107.045C84.3401 106.769 84.4544 106.508 84.6247 106.285C84.7958 106.059 85.0168 105.876 85.2703 105.75C85.5239 105.623 85.8033 105.557 86.0867 105.556H98.2625H103.577H105.982H107.118C107.486 105.532 107.855 105.557 108.216 105.63C108.553 105.727 108.854 105.921 109.081 106.187C109.309 106.454 109.453 106.781 109.495 107.129C109.527 107.78 109.495 108.372 109.495 108.936C109.495 109.5 109.495 110.018 109.495 110.502C109.495 110.74 109.495 110.971 109.495 111.202C109.502 111.412 109.493 111.623 109.467 111.832C109.409 112.186 109.244 112.514 108.994 112.771C108.814 112.961 108.592 113.106 108.345 113.195C108.195 113.25 108.039 113.284 107.879 113.296L107.718 113.408Z" fill="#2D334A"/>
<path d="M134.597 113.408C134.809 113.395 135.016 113.35 135.214 113.275C135.45 113.182 135.662 113.037 135.835 112.852C136.073 112.6 136.227 112.28 136.277 111.937C136.299 111.732 136.305 111.524 136.294 111.318C136.294 111.097 136.294 110.866 136.294 110.617C136.294 110.134 136.294 109.612 136.294 109.052C136.294 108.491 136.294 107.882 136.273 107.258C136.232 106.933 136.096 106.627 135.882 106.378C135.668 106.129 135.386 105.948 135.071 105.858C134.724 105.793 134.371 105.771 134.019 105.795H130.478H125.163H112.987C112.732 105.795 112.48 105.854 112.252 105.969C112.024 106.083 111.825 106.249 111.673 106.453C111.516 106.658 111.413 106.899 111.371 107.153C111.341 107.409 111.33 107.667 111.339 107.924V111.027C111.339 111.279 111.339 111.542 111.339 111.78C111.357 112.019 111.427 112.251 111.546 112.459C111.664 112.663 111.823 112.84 112.013 112.978C112.203 113.116 112.421 113.213 112.651 113.261C112.883 113.294 113.118 113.305 113.352 113.296H115.497L125.44 113.317L132.143 113.345H133.966H134.44C134.493 113.342 134.547 113.342 134.601 113.345C134.601 113.345 134.548 113.345 134.44 113.345H133.966H132.143L125.44 113.377L115.497 113.394H113.352C113.102 113.407 112.852 113.395 112.605 113.359C112.35 113.306 112.109 113.199 111.898 113.046C111.687 112.893 111.511 112.696 111.382 112.47C111.25 112.24 111.171 111.984 111.15 111.72C111.15 111.454 111.15 111.212 111.15 110.953V107.85C111.137 107.581 111.147 107.312 111.182 107.045C111.237 106.768 111.358 106.507 111.532 106.285C111.703 106.059 111.924 105.876 112.178 105.75C112.432 105.623 112.711 105.557 112.994 105.556H125.17H130.485H132.894H134.026C134.393 105.532 134.762 105.556 135.123 105.63C135.46 105.728 135.761 105.921 135.989 106.188C136.217 106.454 136.362 106.781 136.406 107.129C136.434 107.78 136.406 108.372 136.406 108.936C136.406 109.5 136.406 110.018 136.406 110.502C136.406 110.74 136.406 110.971 136.406 111.202C136.413 111.413 136.404 111.623 136.378 111.832C136.321 112.186 136.155 112.514 135.905 112.771C135.725 112.961 135.503 113.106 135.256 113.195C135.108 113.249 134.952 113.284 134.794 113.296L134.597 113.408Z" fill="#2D334A"/>
<path d="M135.547 63.2112C135.547 63.2638 124.122 63.3023 110.035 63.3023C95.9487 63.3023 84.5195 63.2638 84.5195 63.2112C84.5195 63.1587 95.9416 63.1202 110.035 63.1202C124.129 63.1202 135.547 63.1622 135.547 63.2112Z" fill="#2D334A"/>
<path d="M85.7115 79.2654C85.7115 79.5736 85.4907 79.7592 85.1225 79.7592H84.7369V80.2005H84.5826V78.761H85.1225C85.4907 78.7716 85.7115 78.9572 85.7115 79.2654ZM85.5608 79.2654C85.5608 79.0342 85.4065 78.9151 85.119 78.9151H84.7369V79.6156H85.119C85.4065 79.6226 85.5608 79.5 85.5608 79.2654Z" fill="#2D334A"/>
<path d="M86.8159 79.542V80.2004H86.6756V80.0323C86.6355 80.0928 86.5798 80.1413 86.5144 80.1727C86.449 80.2041 86.3763 80.2173 86.304 80.2109C86.0586 80.2109 85.9078 80.0849 85.9078 79.8957C85.9078 79.7066 86.0165 79.591 86.325 79.591H86.6756V79.5245C86.6756 79.3389 86.574 79.2408 86.3706 79.2408C86.2427 79.2414 86.119 79.286 86.02 79.3669L85.9534 79.2583C86.0796 79.1605 86.2354 79.1086 86.3952 79.1112C86.4527 79.1056 86.5109 79.1129 86.5652 79.1327C86.6196 79.1525 86.6688 79.1842 86.7092 79.2256C86.7496 79.267 86.7802 79.3169 86.7986 79.3717C86.8171 79.4264 86.823 79.4847 86.8159 79.542ZM86.6686 79.8922V79.7136H86.318C86.1077 79.7136 86.0376 79.7977 86.0376 79.9062C86.0376 80.0148 86.1392 80.1094 86.311 80.1094C86.3865 80.1161 86.4621 80.0983 86.5266 80.0585C86.591 80.0187 86.6409 79.9592 86.6686 79.8887V79.8922Z" fill="#2D334A"/>
<path d="M87.0613 80.0884L87.1279 79.9728C87.2401 80.0537 87.3752 80.0967 87.5135 80.0954C87.7204 80.0954 87.8045 80.0253 87.8045 79.9168C87.8045 79.6366 87.1033 79.8572 87.1033 79.43C87.1033 79.2549 87.2576 79.1218 87.5346 79.1218C87.6689 79.1193 87.8013 79.1545 87.9167 79.2233L87.8536 79.3389C87.7584 79.2783 87.6475 79.2466 87.5346 79.2478C87.3382 79.2478 87.2506 79.3249 87.2506 79.4265C87.2506 79.7171 87.9518 79.5 87.9518 79.9133C87.9518 80.1024 87.787 80.2215 87.503 80.2215C87.3452 80.2263 87.1901 80.1796 87.0613 80.0884Z" fill="#2D334A"/>
<path d="M88.0675 80.0884L88.1341 79.9728C88.2461 80.0542 88.3813 80.0972 88.5198 80.0954C88.7266 80.0954 88.8108 80.0253 88.8108 79.9168C88.8108 79.6366 88.1096 79.8572 88.1096 79.43C88.1096 79.2549 88.2638 79.1218 88.5408 79.1218C88.6752 79.1193 88.8076 79.1545 88.9229 79.2233L88.8598 79.3389C88.7646 79.2783 88.6537 79.2466 88.5408 79.2478C88.3445 79.2478 88.2568 79.3249 88.2568 79.4265C88.2568 79.7171 88.958 79.5 88.958 79.9133C88.958 80.1024 88.7967 80.2215 88.5128 80.2215C88.3537 80.2271 88.1973 80.1803 88.0675 80.0884Z" fill="#2D334A"/>
<path d="M90.8021 79.1288L90.3849 80.2005H90.2482L89.8976 79.3144L89.547 80.2005H89.4068L89.0001 79.1183H89.1404L89.4909 80.0394L89.8415 79.1183H89.9677L90.3183 80.0394L90.6689 79.1183L90.8021 79.1288Z" fill="#2D334A"/>
<path d="M90.8723 79.6716C90.8723 79.563 90.9044 79.4568 90.9648 79.3665C91.0251 79.2761 91.1109 79.2057 91.2112 79.164C91.3116 79.1222 91.4221 79.1111 91.5288 79.1321C91.6354 79.153 91.7335 79.205 91.8106 79.2816C91.8878 79.3581 91.9405 79.4558 91.9621 79.5622C91.9837 79.6686 91.9733 79.7791 91.9322 79.8796C91.8911 79.9801 91.8211 80.0662 91.731 80.1271C91.641 80.1879 91.5349 80.2208 91.4262 80.2214C91.3529 80.2244 91.2799 80.2122 91.2116 80.1856C91.1433 80.1591 91.0812 80.1188 91.0292 80.0671C90.9772 80.0155 90.9365 79.9538 90.9095 79.8857C90.8824 79.8177 90.8698 79.7448 90.8723 79.6716ZM91.8258 79.6716C91.8224 79.5926 91.7958 79.5164 91.7493 79.4525C91.7028 79.3885 91.6385 79.3396 91.5644 79.3119C91.4903 79.2842 91.4096 79.2789 91.3325 79.2967C91.2554 79.3144 91.1852 79.3544 91.1308 79.4117C91.0763 79.469 91.0398 79.5411 91.026 79.6189C91.0123 79.6968 91.0217 79.7769 91.0532 79.8494C91.0847 79.9219 91.1369 79.9836 91.2032 80.0267C91.2695 80.0698 91.3471 80.0925 91.4262 80.0919C91.4808 80.093 91.535 80.0827 91.5854 80.0617C91.6358 80.0407 91.6813 80.0094 91.7189 79.9699C91.7565 79.9303 91.7854 79.8834 91.8038 79.832C91.8223 79.7806 91.8298 79.726 91.8258 79.6716Z" fill="#2D334A"/>
<path d="M92.8179 79.1218V79.2654H92.7829C92.7324 79.2649 92.6824 79.2753 92.6363 79.2959C92.5902 79.3164 92.5491 79.3467 92.5159 79.3846C92.4826 79.4225 92.4579 79.4672 92.4434 79.5155C92.429 79.5638 92.4252 79.6147 92.4323 79.6646V80.2005H92.285V79.1183H92.4253V79.3319C92.4638 79.2631 92.5213 79.2068 92.5909 79.1696C92.6604 79.1323 92.7392 79.1157 92.8179 79.1218Z" fill="#2D334A"/>
<path d="M94.059 78.684V80.2004H93.9188V79.9868C93.8756 80.058 93.8142 80.1163 93.7408 80.1557C93.6674 80.1951 93.5848 80.2142 93.5016 80.2109C93.3556 80.2109 93.2156 80.153 93.1124 80.0499C93.0092 79.9468 92.9512 79.8069 92.9512 79.6611C92.9512 79.5153 93.0092 79.3754 93.1124 79.2723C93.2156 79.1692 93.3556 79.1112 93.5016 79.1112C93.5825 79.1088 93.6628 79.1272 93.7346 79.1646C93.8064 79.202 93.8674 79.2572 93.9118 79.3249V78.6735L94.059 78.684ZM93.9153 79.6716C93.9119 79.5928 93.8853 79.5167 93.839 79.4528C93.7926 79.3889 93.7285 79.34 93.6546 79.3122C93.5807 79.2844 93.5003 79.2789 93.4233 79.2963C93.3462 79.3138 93.276 79.3535 93.2214 79.4104C93.1668 79.4674 93.1301 79.5391 93.1159 79.6167C93.1017 79.6944 93.1106 79.7744 93.1416 79.847C93.1726 79.9196 93.2242 79.9815 93.29 80.025C93.3559 80.0685 93.4331 80.0918 93.5121 80.0919C93.5669 80.0929 93.6212 80.0827 93.6718 80.0617C93.7224 80.0407 93.768 80.0095 93.8059 79.97C93.8438 79.9305 93.8731 79.8836 93.8919 79.8322C93.9107 79.7809 93.9187 79.7262 93.9153 79.6716Z" fill="#2D334A"/>
<path d="M134.471 75.525C134.568 75.5154 134.664 75.5002 134.759 75.4795C135.039 75.4112 135.287 75.2478 135.46 75.0172C135.584 74.8511 135.664 74.6557 135.691 74.4499C135.716 74.2257 135.691 73.9665 135.691 73.6934C135.691 73.14 135.691 72.5061 135.691 71.7917C135.691 71.4415 135.691 71.0562 135.691 70.657C135.713 70.4551 135.686 70.2509 135.613 70.0614C135.54 69.872 135.422 69.7027 135.27 69.5678C135.108 69.4275 134.91 69.3332 134.699 69.2946C134.466 69.2739 134.232 69.2681 133.998 69.2771H132.522H125.612L85.5958 69.3051C85.3714 69.3074 85.1525 69.3748 84.9657 69.4992C84.779 69.6235 84.6325 69.7995 84.5441 70.0056C84.465 70.2216 84.4339 70.4522 84.4529 70.6815V71.445C84.4529 72.4092 84.4529 73.3653 84.4529 74.3133C84.4543 74.5377 84.5214 74.7568 84.646 74.9435C84.7707 75.1302 84.9473 75.2764 85.1541 75.3639C85.3621 75.4467 85.5865 75.4803 85.8097 75.462H89.3156H99.9419L117.934 75.4795L130.061 75.511H133.36L130.061 75.5285L117.934 75.5566L99.9419 75.5776H85.7852C85.5378 75.5987 85.2889 75.5603 85.0594 75.4655C84.825 75.3628 84.625 75.195 84.4833 74.9821C84.3416 74.7691 84.2641 74.5199 84.2601 74.2642C84.2601 73.3151 84.2601 72.3555 84.2601 71.3924V70.6675C84.2533 70.5438 84.2533 70.4199 84.2601 70.2962C84.2742 70.1664 84.306 70.0392 84.3548 69.918C84.4588 69.6762 84.6314 69.47 84.8513 69.325C85.0713 69.18 85.3288 69.1025 85.5923 69.102L125.608 69.13H132.518H133.991C134.225 69.1224 134.459 69.1306 134.692 69.1545C134.92 69.1957 135.133 69.2973 135.309 69.4487C135.469 69.5927 135.592 69.7726 135.668 69.9736C135.744 70.1746 135.771 70.3909 135.747 70.6044C135.747 71.0037 135.747 71.3819 135.747 71.7391C135.747 72.4396 135.747 73.0875 135.747 73.6408C135.747 73.9175 135.747 74.1662 135.73 74.4043C135.698 74.6171 135.612 74.8184 135.481 74.9892C135.307 75.2172 135.059 75.378 134.78 75.4445C134.681 75.4865 134.577 75.5136 134.471 75.525Z" fill="#2D334A"/>
<path d="M85.6029 68.1389V68.2719H84.5826V66.829H85.5713V66.9621H84.7369V67.4734H85.4801V67.5925H84.7369V68.1284L85.6029 68.1389Z" fill="#2D334A"/>
<path d="M87.7169 67.6415V68.2719H87.5697V67.6555C87.5697 67.4279 87.454 67.3053 87.2576 67.3053C87.2082 67.305 87.1592 67.3152 87.1139 67.3351C87.0687 67.3551 87.0281 67.3844 86.995 67.4211C86.9619 67.4578 86.937 67.5011 86.9218 67.5482C86.9066 67.5952 86.9016 67.6449 86.9071 67.6941V68.2649H86.7598V67.6485C86.7598 67.4209 86.6441 67.2983 86.4478 67.2983C86.3983 67.298 86.3493 67.3082 86.3041 67.3281C86.2588 67.3481 86.2183 67.3774 86.1852 67.4141C86.1521 67.4508 86.1271 67.4941 86.1119 67.5412C86.0968 67.5882 86.0918 67.6379 86.0972 67.6871V68.2579H85.95V67.1757H86.0902V67.3719C86.1319 67.3053 86.1905 67.2511 86.2602 67.2148C86.3298 67.1785 86.4079 67.1614 86.4863 67.1652C86.5662 67.1594 86.6459 67.178 86.7149 67.2187C86.7838 67.2594 86.8386 67.3202 86.872 67.3929C86.9161 67.3199 86.9792 67.2603 87.0545 67.2202C87.1298 67.1801 87.2145 67.1612 87.2997 67.1652C87.3603 67.1634 87.4205 67.175 87.476 67.1991C87.5315 67.2233 87.581 67.2594 87.6209 67.305C87.6608 67.3505 87.6901 67.4043 87.7067 67.4625C87.7233 67.5207 87.7268 67.5818 87.7169 67.6415Z" fill="#2D334A"/>
<path d="M88.93 67.5925V68.2649H88.7898V68.0933C88.7498 68.1541 88.6942 68.2031 88.6289 68.2351C88.5635 68.2672 88.4907 68.2811 88.4181 68.2754C88.1727 68.2754 88.022 68.1459 88.022 67.9602C88.022 67.7746 88.1271 67.652 88.4392 67.652H88.7898V67.5925C88.7898 67.4069 88.6846 67.3088 88.4847 67.3088C88.3569 67.3094 88.2331 67.354 88.1342 67.4349L88.0675 67.3263C88.1927 67.2267 88.3493 67.1745 88.5093 67.1793C88.5652 67.174 88.6217 67.181 88.6746 67.1998C88.7276 67.2186 88.7758 67.2487 88.8159 67.2881C88.856 67.3275 88.8869 67.3751 88.9067 67.4277C88.9264 67.4803 88.9343 67.5365 88.93 67.5925ZM88.7827 67.9427V67.7641H88.4322C88.2218 67.7641 88.1552 67.8482 88.1552 67.9602C88.1552 68.0723 88.2569 68.1634 88.4286 68.1634C88.5035 68.1694 88.5784 68.1511 88.6421 68.1114C88.7059 68.0717 88.7552 68.0126 88.7827 67.9427Z" fill="#2D334A"/>
<path d="M89.2911 66.8466C89.2904 66.825 89.2962 66.8036 89.3077 66.7853C89.3192 66.767 89.3359 66.7526 89.3557 66.7438C89.3755 66.735 89.3974 66.7324 89.4187 66.7362C89.44 66.74 89.4597 66.75 89.4753 66.765C89.4908 66.7801 89.5015 66.7994 89.506 66.8206C89.5105 66.8417 89.5086 66.8637 89.5005 66.8838C89.4923 66.9038 89.4784 66.921 89.4605 66.9331C89.4425 66.9452 89.4214 66.9516 89.3998 66.9516C89.3856 66.9521 89.3716 66.9497 89.3584 66.9447C89.3453 66.9396 89.3332 66.9319 89.3231 66.9221C89.313 66.9123 89.3049 66.9006 89.2994 66.8876C89.2939 66.8746 89.2911 66.8607 89.2911 66.8466ZM89.3261 67.1968H89.4734V68.279H89.3261V67.1968Z" fill="#2D334A"/>
<path d="M89.88 66.745H90.0237V68.272H89.88V66.745Z" fill="#2D334A"/>
<path d="M134.471 88.7914C134.568 88.7817 134.664 88.7665 134.759 88.7458C135.039 88.6776 135.287 88.5142 135.46 88.2835C135.584 88.1174 135.664 87.922 135.691 87.7162C135.716 87.492 135.691 87.2329 135.691 86.9597C135.691 86.4064 135.691 85.7725 135.691 85.058C135.691 84.7078 135.691 84.3225 135.691 83.9233C135.713 83.7214 135.687 83.5171 135.613 83.3276C135.54 83.1381 135.423 82.9689 135.27 82.8341C135.108 82.6938 134.91 82.5995 134.699 82.5609C134.466 82.5402 134.232 82.5344 133.998 82.5434H132.522H125.612L85.5958 82.5714C85.3714 82.5737 85.1525 82.6411 84.9657 82.7655C84.779 82.8899 84.6325 83.0658 84.5441 83.2719C84.465 83.4879 84.4339 83.7186 84.4529 83.9478V84.6728C84.4529 85.637 84.4529 86.5931 84.4529 87.5411C84.4543 87.7655 84.5214 87.9846 84.646 88.1713C84.7707 88.358 84.9473 88.5042 85.1541 88.5917C85.3621 88.6745 85.5865 88.7081 85.8097 88.6898H89.3156H99.9419L117.934 88.7073L130.061 88.7353L133.36 88.7528H130.061L117.934 88.7809L99.9419 88.8019H85.7852C85.5378 88.823 85.2889 88.7846 85.0594 88.6898C84.825 88.5871 84.625 88.4193 84.4833 88.2064C84.3416 87.9934 84.2641 87.7442 84.2601 87.4885C84.2601 86.5394 84.2601 85.5798 84.2601 84.6167V83.8918C84.2533 83.7681 84.2533 83.6442 84.2601 83.5205C84.2742 83.3907 84.306 83.2635 84.3548 83.1423C84.4588 82.9005 84.6314 82.6943 84.8513 82.5493C85.0713 82.4043 85.3288 82.3268 85.5923 82.3263L125.608 82.3543H132.518H133.991C134.225 82.3467 134.459 82.3549 134.692 82.3788C134.92 82.42 135.133 82.5216 135.309 82.673C135.469 82.817 135.592 82.9969 135.668 83.1979C135.744 83.3989 135.771 83.6152 135.747 83.8287C135.747 84.228 135.747 84.6062 135.747 84.9635C135.747 85.6639 135.747 86.3118 135.747 86.8651C135.747 87.1418 135.747 87.3905 135.73 87.6286C135.698 87.8415 135.612 88.0427 135.481 88.2135C135.307 88.4415 135.059 88.6023 134.78 88.6688C134.684 88.7253 134.58 88.7667 134.471 88.7914Z" fill="#2D334A"/>
<path d="M88.6985 85.6534C88.6985 85.769 88.6642 85.8821 88.5999 85.9783C88.5355 86.0745 88.4441 86.1494 88.3371 86.1937C88.2301 86.238 88.1124 86.2496 87.9988 86.227C87.8853 86.2044 87.7809 86.1487 87.6991 86.0669C87.6172 85.9851 87.5614 85.8809 87.5388 85.7675C87.5162 85.654 87.5278 85.5364 87.5722 85.4295C87.6165 85.3227 87.6915 85.2313 87.7878 85.1671C87.8841 85.1028 87.9973 85.0685 88.1131 85.0685C88.2683 85.0685 88.4173 85.1301 88.5271 85.2398C88.6369 85.3495 88.6985 85.4982 88.6985 85.6534Z" fill="#2D334A"/>
<path d="M90.8232 86.2382C91.1465 86.2382 91.4086 85.9764 91.4086 85.6534C91.4086 85.3303 91.1465 85.0685 90.8232 85.0685C90.4998 85.0685 90.2377 85.3303 90.2377 85.6534C90.2377 85.9764 90.4998 86.2382 90.8232 86.2382Z" fill="#2D334A"/>
<path d="M93.5191 86.2382C93.8424 86.2382 94.1046 85.9764 94.1046 85.6534C94.1046 85.3303 93.8424 85.0685 93.5191 85.0685C93.1957 85.0685 92.9336 85.3303 92.9336 85.6534C92.9336 85.9764 93.1957 86.2382 93.5191 86.2382Z" fill="#2D334A"/>
<path d="M96.8006 85.6534C96.8006 85.769 96.7663 85.8821 96.7019 85.9783C96.6376 86.0745 96.5462 86.1494 96.4392 86.1937C96.3322 86.238 96.2145 86.2496 96.1009 86.227C95.9873 86.2044 95.883 86.1487 95.8011 86.0669C95.7192 85.9851 95.6635 85.8809 95.6409 85.7675C95.6183 85.654 95.6299 85.5364 95.6742 85.4295C95.7185 85.3227 95.7936 85.2313 95.8898 85.1671C95.9861 85.1028 96.0993 85.0685 96.2151 85.0685C96.3704 85.0685 96.5193 85.1301 96.6291 85.2398C96.7389 85.3495 96.8006 85.4982 96.8006 85.6534Z" fill="#2D334A"/>
<path d="M99.4966 85.6534C99.4966 85.769 99.4623 85.8821 99.398 85.9783C99.3336 86.0745 99.2422 86.1494 99.1352 86.1937C99.0282 86.238 98.9105 86.2496 98.7969 86.227C98.6834 86.2044 98.579 86.1487 98.4972 86.0669C98.4153 85.9851 98.3595 85.8809 98.3369 85.7675C98.3143 85.654 98.3259 85.5364 98.3703 85.4295C98.4146 85.3227 98.4896 85.2313 98.5859 85.1671C98.6822 85.1028 98.7954 85.0685 98.9112 85.0685C99.0664 85.0685 99.2154 85.1301 99.3252 85.2398C99.435 85.3495 99.4966 85.4982 99.4966 85.6534Z" fill="#2D334A"/>
<path d="M102.193 85.6534C102.193 85.769 102.158 85.8821 102.094 85.9783C102.03 86.0745 101.938 86.1494 101.831 86.1937C101.724 86.238 101.607 86.2496 101.493 86.227C101.379 86.2044 101.275 86.1487 101.193 86.0669C101.111 85.9851 101.056 85.8809 101.033 85.7675C101.01 85.654 101.022 85.5364 101.066 85.4295C101.111 85.3227 101.186 85.2313 101.282 85.1671C101.378 85.1028 101.491 85.0685 101.607 85.0685C101.762 85.0685 101.911 85.1301 102.021 85.2398C102.131 85.3495 102.193 85.4982 102.193 85.6534Z" fill="#2D334A"/>
<path d="M104.889 85.6534C104.889 85.769 104.854 85.8821 104.79 85.9783C104.726 86.0745 104.634 86.1494 104.527 86.1937C104.42 86.238 104.302 86.2496 104.189 86.227C104.075 86.2044 103.971 86.1487 103.889 86.0669C103.807 85.9851 103.751 85.8809 103.729 85.7675C103.706 85.654 103.718 85.5364 103.762 85.4295C103.807 85.3227 103.882 85.2313 103.978 85.1671C104.074 85.1028 104.187 85.0685 104.303 85.0685C104.458 85.0685 104.607 85.1301 104.717 85.2398C104.827 85.3495 104.889 85.4982 104.889 85.6534Z" fill="#2D334A"/>
<path d="M107.585 85.6534C107.585 85.769 107.55 85.8821 107.486 85.9783C107.422 86.0745 107.33 86.1494 107.223 86.1937C107.116 86.238 106.999 86.2496 106.885 86.227C106.771 86.2044 106.667 86.1487 106.585 86.0669C106.503 85.9851 106.448 85.8809 106.425 85.7675C106.402 85.654 106.414 85.5364 106.458 85.4295C106.503 85.3227 106.578 85.2313 106.674 85.1671C106.77 85.1028 106.883 85.0685 106.999 85.0685C107.154 85.0685 107.303 85.1301 107.413 85.2398C107.523 85.3495 107.585 85.4982 107.585 85.6534Z" fill="#2D334A"/>
<path d="M109.695 86.2382C110.019 86.2382 110.281 85.9764 110.281 85.6534C110.281 85.3303 110.019 85.0685 109.695 85.0685C109.372 85.0685 109.11 85.3303 109.11 85.6534C109.11 85.9764 109.372 86.2382 109.695 86.2382Z" fill="#2D334A"/>
<path d="M113.471 85.6534C113.471 85.7692 113.437 85.8824 113.372 85.9787C113.308 86.0749 113.216 86.1499 113.109 86.194C113.002 86.2382 112.884 86.2496 112.77 86.2267C112.656 86.2039 112.552 86.1478 112.47 86.0657C112.389 85.9835 112.333 85.879 112.311 85.7653C112.289 85.6516 112.301 85.5339 112.346 85.4271C112.39 85.3203 112.466 85.2292 112.563 85.1654C112.66 85.1015 112.773 85.0678 112.889 85.0685C113.044 85.0694 113.192 85.1314 113.301 85.241C113.41 85.3506 113.471 85.4989 113.471 85.6534Z" fill="#2D334A"/>
<path d="M134.471 102.846C134.568 102.836 134.664 102.821 134.759 102.8C135.039 102.732 135.287 102.568 135.46 102.338C135.584 102.172 135.664 101.976 135.691 101.771C135.716 101.546 135.691 101.287 135.691 101.014C135.691 100.461 135.691 99.8268 135.691 99.1123C135.691 98.7621 135.691 98.3769 135.691 97.9811C135.713 97.7787 135.687 97.5739 135.613 97.3838C135.54 97.1938 135.423 97.0239 135.27 96.8884C135.108 96.7481 134.91 96.6538 134.699 96.6153C134.466 96.5964 134.232 96.5905 133.998 96.5978H132.522H125.612L85.5994 96.6608C85.3749 96.663 85.156 96.7305 84.9693 96.8548C84.7825 96.9792 84.636 97.1552 84.5476 97.3612C84.4685 97.5773 84.4374 97.8079 84.4564 98.0372V98.7621C84.4564 99.7264 84.4564 100.684 84.4564 101.634C84.4578 101.858 84.5249 102.077 84.6496 102.264C84.7742 102.451 84.9508 102.597 85.1576 102.685C85.3656 102.767 85.59 102.801 85.8132 102.783H89.3191H99.9454L117.937 102.8L130.064 102.832L133.363 102.849H130.064L117.937 102.877L99.9173 102.93H85.7852C85.5376 102.948 85.2891 102.908 85.0594 102.814C84.8245 102.712 84.624 102.545 84.4822 102.331C84.3404 102.118 84.2632 101.869 84.2601 101.613C84.2601 100.664 84.2601 99.7042 84.2601 98.7411V98.0161C84.2533 97.8925 84.2533 97.7686 84.2601 97.6449C84.2742 97.5151 84.306 97.3878 84.3548 97.2667C84.459 97.0252 84.6317 96.8196 84.8517 96.6752C85.0716 96.5307 85.3291 96.4539 85.5923 96.4542L125.608 96.4787H132.518H133.991C134.225 96.471 134.459 96.4792 134.692 96.5032C134.921 96.5442 135.134 96.6472 135.309 96.8009C135.469 96.9445 135.593 97.1244 135.669 97.3255C135.745 97.5266 135.772 97.743 135.747 97.9566C135.747 98.3524 135.747 98.7306 135.747 99.0878C135.747 99.7883 135.747 100.436 135.747 100.99C135.747 101.266 135.747 101.515 135.73 101.753C135.698 101.966 135.612 102.167 135.481 102.338C135.308 102.567 135.06 102.728 134.78 102.793C134.681 102.828 134.576 102.846 134.471 102.846Z" fill="#2D334A"/>
<path d="M104.475 100.279H104.124V100.706H103.886V100.279H102.918V100.107L103.809 98.9688H104.075L103.223 100.065H103.893V99.6902H104.124V100.065H104.475V100.279Z" fill="#2D334A"/>
<path d="M105.926 100.184C105.926 100.485 105.713 100.727 105.267 100.727C105.036 100.732 104.811 100.657 104.629 100.513L104.745 100.317C104.888 100.443 105.073 100.51 105.264 100.506C105.527 100.506 105.678 100.384 105.678 100.195C105.678 100.005 105.555 99.8758 105.152 99.8758H104.755L104.847 98.9688H105.828V99.1859H105.057L105.008 99.6622H105.204C105.723 99.6622 105.926 99.8758 105.926 100.184Z" fill="#2D334A"/>
<path d="M107.437 100.184C107.437 100.485 107.224 100.727 106.778 100.727C106.547 100.732 106.322 100.657 106.14 100.513L106.256 100.317C106.399 100.443 106.584 100.51 106.775 100.506C107.038 100.506 107.189 100.384 107.189 100.195C107.189 100.005 107.062 99.8758 106.663 99.8758H106.266L106.358 98.9688H107.339V99.1859H106.578L106.529 99.6622H106.726C107.234 99.6622 107.437 99.8758 107.437 100.184Z" fill="#2D334A"/>
<path d="M108.948 100.184C108.948 100.485 108.735 100.727 108.289 100.727C108.058 100.732 107.833 100.657 107.651 100.513L107.767 100.317C107.91 100.443 108.095 100.51 108.286 100.506C108.549 100.506 108.7 100.384 108.7 100.195C108.7 100.005 108.577 99.8758 108.174 99.8758H107.777L107.869 98.9688H108.85V99.1859H108.079L108.03 99.6622H108.226C108.745 99.6622 108.948 99.8758 108.948 100.184Z" fill="#2D334A"/>
<path d="M110.018 99.8373C110.018 99.2734 110.323 98.9512 110.719 98.9512C111.115 98.9512 111.42 99.2734 111.42 99.8373C111.42 100.401 111.115 100.727 110.719 100.727C110.323 100.727 110.018 100.405 110.018 99.8373ZM111.189 99.8373C111.189 99.3925 110.999 99.1719 110.729 99.1719C110.459 99.1719 110.267 99.3925 110.267 99.8373C110.267 100.282 110.456 100.506 110.729 100.506C111.003 100.506 111.189 100.282 111.189 99.8373Z" fill="#2D334A"/>
<path d="M111.774 99.8373C111.774 99.2734 112.076 98.9512 112.475 98.9512C112.875 98.9512 113.177 99.2734 113.177 99.8373C113.177 100.401 112.875 100.727 112.475 100.727C112.076 100.727 111.774 100.405 111.774 99.8373ZM112.942 99.8373C112.942 99.3925 112.752 99.1719 112.482 99.1719C112.212 99.1719 112.02 99.3925 112.02 99.8373C112.02 100.282 112.209 100.506 112.482 100.506C112.756 100.506 112.942 100.282 112.942 99.8373Z" fill="#2D334A"/>
<path d="M113.527 99.8373C113.527 99.2734 113.829 98.9512 114.228 98.9512C114.628 98.9512 114.929 99.2734 114.929 99.8373C114.929 100.401 114.628 100.727 114.228 100.727C113.829 100.727 113.527 100.405 113.527 99.8373ZM114.698 99.8373C114.698 99.3925 114.509 99.1719 114.239 99.1719C113.969 99.1719 113.776 99.3925 113.776 99.8373C113.776 100.282 113.965 100.506 114.239 100.506C114.512 100.506 114.698 100.282 114.698 99.8373Z" fill="#2D334A"/>
<path d="M115.28 99.8373C115.28 99.2734 115.585 98.9512 115.981 98.9512C116.377 98.9512 116.682 99.2734 116.682 99.8373C116.682 100.401 116.377 100.727 115.981 100.727C115.585 100.727 115.28 100.405 115.28 99.8373ZM116.451 99.8373C116.451 99.3925 116.262 99.1719 115.992 99.1719C115.722 99.1719 115.529 99.3925 115.529 99.8373C115.529 100.282 115.718 100.506 115.992 100.506C116.265 100.506 116.451 100.282 116.451 99.8373Z" fill="#2D334A"/>
<path d="M119.07 98.9688V99.1369L118.369 100.706H118.106L118.807 99.1859H118.015V99.4941H117.776V98.9688H119.07Z" fill="#2D334A"/>
<path d="M120.651 98.9688V99.1369L119.95 100.706H119.687L120.388 99.1859H119.592V99.4941H119.354V98.9688H120.651Z" fill="#2D334A"/>
<path d="M122.236 98.9688V99.1369L121.534 100.706H121.272L121.973 99.1859H121.163V99.4941H120.924V98.9688H122.236Z" fill="#2D334A"/>
<path d="M123.817 98.9688V99.1369L123.116 100.706H122.853L123.554 99.1859H122.758V99.4941H122.52V98.9688H123.817Z" fill="#2D334A"/>
<path d="M126.246 100.163C126.245 100.24 126.227 100.317 126.195 100.387C126.162 100.458 126.116 100.521 126.058 100.572C126 100.624 125.932 100.663 125.858 100.687C125.784 100.711 125.707 100.72 125.629 100.713C125.163 100.713 124.9 100.398 124.9 99.8443C124.884 99.7286 124.894 99.6108 124.928 99.4992C124.963 99.3877 125.021 99.285 125.1 99.1985C125.178 99.112 125.275 99.0438 125.383 98.9987C125.491 98.9535 125.607 98.9325 125.724 98.9372C125.874 98.9316 126.023 98.9667 126.155 99.0388L126.061 99.2314C125.96 99.1733 125.844 99.1454 125.727 99.1509C125.377 99.1509 125.149 99.3715 125.149 99.8023C125.147 99.8232 125.147 99.8443 125.149 99.8653C125.207 99.7892 125.282 99.7286 125.369 99.6889C125.456 99.6492 125.551 99.6316 125.647 99.6377C125.721 99.6294 125.797 99.6367 125.868 99.6592C125.94 99.6817 126.006 99.7188 126.063 99.7682C126.119 99.8177 126.164 99.8783 126.196 99.9463C126.228 100.014 126.245 100.088 126.246 100.163ZM126.004 100.163C126.004 99.9599 125.85 99.8128 125.608 99.8128C125.558 99.8057 125.507 99.8095 125.459 99.8239C125.411 99.8383 125.366 99.863 125.328 99.8963C125.29 99.9295 125.26 99.9706 125.239 100.017C125.219 100.063 125.208 100.113 125.209 100.163C125.209 100.342 125.352 100.496 125.622 100.496C125.714 100.505 125.805 100.477 125.876 100.42C125.948 100.362 125.994 100.279 126.004 100.188V100.163Z" fill="#2D334A"/>
<path d="M127.877 100.163C127.875 100.24 127.857 100.317 127.825 100.387C127.793 100.458 127.746 100.521 127.688 100.572C127.63 100.624 127.562 100.663 127.488 100.687C127.415 100.711 127.337 100.72 127.26 100.713C126.793 100.713 126.53 100.398 126.53 99.8443C126.514 99.7289 126.524 99.6114 126.558 99.5001C126.593 99.3888 126.651 99.2863 126.729 99.1999C126.807 99.1135 126.903 99.0452 127.011 98.9998C127.118 98.9544 127.234 98.9331 127.351 98.9372C127.502 98.9313 127.652 98.9664 127.785 99.0388L127.691 99.2314C127.59 99.1733 127.474 99.1454 127.358 99.1509C127.007 99.1509 126.779 99.3715 126.779 99.8023C126.777 99.8232 126.777 99.8443 126.779 99.8653C126.837 99.7892 126.913 99.7286 126.999 99.6889C127.086 99.6492 127.182 99.6316 127.277 99.6377C127.352 99.6294 127.427 99.6367 127.499 99.6592C127.57 99.6817 127.636 99.7188 127.693 99.7682C127.749 99.8177 127.795 99.8783 127.826 99.9463C127.858 100.014 127.875 100.088 127.877 100.163ZM127.635 100.163C127.635 99.9599 127.48 99.8128 127.239 99.8128C127.189 99.8057 127.138 99.8095 127.089 99.8239C127.041 99.8383 126.996 99.863 126.958 99.8963C126.92 99.9295 126.89 99.9706 126.869 100.017C126.849 100.063 126.838 100.113 126.839 100.163C126.839 100.342 126.983 100.496 127.249 100.496C127.341 100.506 127.433 100.479 127.505 100.421C127.578 100.363 127.624 100.279 127.635 100.188V100.163Z" fill="#2D334A"/>
<path d="M129.507 100.163C129.505 100.24 129.488 100.317 129.455 100.387C129.423 100.458 129.376 100.521 129.318 100.572C129.26 100.624 129.192 100.663 129.119 100.687C129.045 100.711 128.967 100.72 128.89 100.713C128.424 100.713 128.161 100.398 128.161 99.8443C128.145 99.7286 128.154 99.6108 128.189 99.4992C128.223 99.3877 128.282 99.285 128.36 99.1985C128.439 99.112 128.536 99.0438 128.643 98.9987C128.751 98.9535 128.868 98.9325 128.984 98.9372C129.135 98.9316 129.284 98.9667 129.416 99.0388L129.321 99.2314C129.215 99.17 129.093 99.1419 128.97 99.1509C128.62 99.1509 128.392 99.3715 128.392 99.8023C128.39 99.8232 128.39 99.8443 128.392 99.8653C128.45 99.7892 128.525 99.7286 128.612 99.6889C128.699 99.6492 128.794 99.6316 128.89 99.6377C128.966 99.6267 129.043 99.632 129.117 99.6533C129.191 99.6746 129.259 99.7113 129.317 99.761C129.376 99.8107 129.423 99.8723 129.455 99.9416C129.488 100.011 129.506 100.086 129.507 100.163ZM129.265 100.163C129.265 99.9599 129.111 99.8128 128.869 99.8128C128.819 99.8057 128.768 99.8095 128.719 99.8239C128.671 99.8383 128.626 99.863 128.588 99.8963C128.551 99.9295 128.52 99.9706 128.5 100.017C128.479 100.063 128.469 100.113 128.469 100.163C128.469 100.342 128.613 100.496 128.879 100.496C128.971 100.506 129.063 100.479 129.136 100.421C129.208 100.363 129.254 100.279 129.265 100.188V100.163Z" fill="#2D334A"/>
<path d="M131.137 100.163C131.135 100.24 131.118 100.317 131.085 100.387C131.053 100.458 131.006 100.521 130.948 100.572C130.891 100.624 130.823 100.663 130.749 100.687C130.675 100.711 130.597 100.72 130.52 100.713C130.054 100.713 129.791 100.398 129.791 99.8443C129.775 99.7289 129.784 99.6114 129.819 99.5001C129.853 99.3888 129.911 99.2863 129.99 99.1999C130.068 99.1135 130.164 99.0452 130.271 98.9998C130.379 98.9544 130.495 98.9331 130.611 98.9372C130.763 98.9313 130.913 98.9664 131.046 99.0388L130.951 99.2314C130.85 99.1733 130.735 99.1454 130.618 99.1509C130.268 99.1509 130.04 99.3715 130.04 99.8023C130.038 99.8232 130.038 99.8443 130.04 99.8653C130.097 99.7892 130.173 99.7286 130.26 99.6889C130.347 99.6492 130.442 99.6316 130.538 99.6377C130.612 99.6294 130.688 99.6367 130.759 99.6592C130.831 99.6817 130.897 99.7188 130.953 99.7682C131.01 99.8177 131.055 99.8783 131.087 99.9463C131.118 100.014 131.136 100.088 131.137 100.163ZM130.895 100.163C130.895 99.9599 130.741 99.8128 130.499 99.8128C130.449 99.8057 130.398 99.8095 130.35 99.8239C130.301 99.8383 130.257 99.863 130.219 99.8963C130.181 99.9295 130.15 99.9706 130.13 100.017C130.109 100.063 130.099 100.113 130.099 100.163C130.099 100.342 130.243 100.496 130.51 100.496C130.602 100.506 130.694 100.479 130.766 100.421C130.838 100.363 130.885 100.279 130.895 100.188V100.163Z" fill="#2D334A"/>
<path d="M87.8676 71.8162L87.2296 73.2626C87.1104 73.5393 86.9596 73.6128 86.7598 73.6128C86.6961 73.6165 86.6324 73.6075 86.5722 73.5865C86.5121 73.5654 86.4567 73.5327 86.4092 73.4902L86.5108 73.3116C86.5414 73.3429 86.578 73.3677 86.6183 73.3845C86.6587 73.4014 86.702 73.4099 86.7457 73.4097C86.8579 73.4097 86.9316 73.3572 86.9947 73.2066L87.0367 73.1155L86.4583 71.8022H86.7037L87.1664 72.8528L87.6187 71.8022L87.8676 71.8162Z" fill="#2D334A"/>
<path d="M88.0289 72.4746C88.0233 72.335 88.0596 72.1969 88.1332 72.0781C88.2067 71.9593 88.3142 71.8651 88.4417 71.8078C88.5693 71.7505 88.711 71.7325 88.8488 71.7563C88.9867 71.7801 89.1142 71.8445 89.2151 71.9412C89.316 72.038 89.3856 72.1627 89.415 72.2992C89.4444 72.4358 89.4322 72.5781 89.3801 72.7077C89.328 72.8373 89.2382 72.9484 89.1224 73.0267C89.0065 73.105 88.8699 73.1469 88.7301 73.147C88.6388 73.1528 88.5474 73.1397 88.4615 73.1083C88.3757 73.077 88.2973 73.0281 88.2314 72.9649C88.1654 72.9016 88.1134 72.8254 88.0785 72.741C88.0436 72.6566 88.0267 72.5658 88.0289 72.4746ZM89.1578 72.4746C89.1543 72.3873 89.1252 72.3029 89.0741 72.232C89.023 72.1612 88.9521 72.1069 88.8703 72.076C88.7885 72.0451 88.6994 72.039 88.6141 72.0584C88.5289 72.0777 88.4512 72.1218 88.3908 72.185C88.3304 72.2482 88.29 72.3277 88.2746 72.4137C88.2592 72.4997 88.2695 72.5883 88.3042 72.6685C88.3388 72.7487 88.3964 72.8169 88.4696 72.8646C88.5429 72.9123 88.6286 72.9375 88.716 72.9368C88.7763 72.9385 88.8362 72.9275 88.892 72.9045C88.9477 72.8816 88.998 72.8472 89.0396 72.8037C89.0813 72.7601 89.1133 72.7083 89.1336 72.6516C89.154 72.5949 89.1622 72.5346 89.1578 72.4746Z" fill="#2D334A"/>
<path d="M91.0511 71.8162V73.1295H90.8267V72.9334C90.7747 73.0025 90.7067 73.058 90.6286 73.0952C90.5504 73.1325 90.4644 73.1502 90.3779 73.147C90.3011 73.1543 90.2236 73.1443 90.1511 73.1179C90.0785 73.0914 90.0129 73.0491 89.9588 72.9941C89.9047 72.9391 89.8636 72.8727 89.8385 72.7998C89.8133 72.7269 89.8048 72.6493 89.8135 72.5726V71.8162H90.0519V72.5446C90.0519 72.8038 90.1816 72.9334 90.4025 72.9334C90.459 72.936 90.5154 72.9261 90.5678 72.9044C90.6201 72.8828 90.6669 72.8499 90.7051 72.8081C90.7432 72.7663 90.7717 72.7167 90.7885 72.6627C90.8053 72.6086 90.8099 72.5516 90.8021 72.4956V71.8162H91.0511Z" fill="#2D334A"/>
<path d="M92.3132 71.7952V72.0263H92.2571C92.1992 72.0221 92.1411 72.0309 92.0871 72.052C92.0331 72.0731 91.9844 72.106 91.9448 72.1483C91.9051 72.1906 91.8754 72.2412 91.8579 72.2965C91.8403 72.3517 91.8354 72.4102 91.8434 72.4676V73.1225H91.605V71.8092H91.8329V72.0298C91.8829 71.9497 91.9545 71.8852 92.0394 71.8438C92.1243 71.8023 92.2191 71.7854 92.3132 71.7952Z" fill="#2D334A"/>
<path d="M93.8767 72.5516H92.8074C92.8231 72.6643 92.8811 72.7667 92.9697 72.8383C93.0582 72.9098 93.1706 72.945 93.2842 72.9368C93.3555 72.9392 93.4264 72.9264 93.4923 72.8992C93.5582 72.8721 93.6175 72.8311 93.6664 72.7792L93.7961 72.9333C93.7302 73.0043 93.6497 73.0602 93.5601 73.0971C93.4705 73.134 93.374 73.151 93.2772 73.147C93.186 73.1528 93.0945 73.1397 93.0087 73.1083C92.9228 73.077 92.8444 73.0281 92.7785 72.9649C92.7126 72.9017 92.6605 72.8254 92.6257 72.741C92.5908 72.6566 92.5739 72.5658 92.576 72.4746C92.5727 72.3862 92.5874 72.2982 92.6194 72.2158C92.6514 72.1334 92.6999 72.0583 92.7619 71.9954C92.824 71.9324 92.8983 71.8827 92.9803 71.8495C93.0623 71.8163 93.1502 71.8002 93.2386 71.8021C93.3271 71.8 93.4151 71.8163 93.4969 71.8501C93.5787 71.8839 93.6525 71.9344 93.7135 71.9984C93.7746 72.0624 93.8216 72.1384 93.8515 72.2216C93.8815 72.3048 93.8936 72.3934 93.8872 72.4816C93.8872 72.4816 93.8767 72.5306 93.8767 72.5516ZM92.8074 72.38H93.6523C93.6427 72.2747 93.5941 72.1768 93.5159 72.1055C93.4377 72.0342 93.3357 71.9947 93.2299 71.9947C93.124 71.9947 93.022 72.0342 92.9439 72.1055C92.8657 72.1768 92.817 72.2747 92.8074 72.38Z" fill="#2D334A"/>
<path d="M96.4921 72.373V73.1295H96.2537V72.401C96.2537 72.1418 96.131 72.0158 95.9032 72.0158C95.8472 72.0142 95.7915 72.0249 95.7401 72.047C95.6887 72.0691 95.6427 72.1021 95.6053 72.1438C95.5679 72.1854 95.5401 72.2347 95.5237 72.2882C95.5074 72.3417 95.5028 72.3981 95.5105 72.4535V73.1295H95.2721V72.401C95.2721 72.1418 95.1494 72.0158 94.9215 72.0158C94.8652 72.0137 94.8092 72.024 94.7573 72.0458C94.7055 72.0677 94.659 72.1007 94.6213 72.1424C94.5835 72.1841 94.5554 72.2336 94.5388 72.2874C94.5222 72.3411 94.5176 72.3978 94.5253 72.4535V73.1295H94.308V71.8161H94.5394V72.0123C94.5923 71.9387 94.6633 71.88 94.7457 71.842C94.828 71.8039 94.9188 71.7878 95.0092 71.7951C95.1006 71.7887 95.1919 71.8083 95.2726 71.8517C95.3533 71.8951 95.42 71.9605 95.4649 72.0403C95.5228 71.9606 95.5995 71.8966 95.6882 71.8538C95.7769 71.811 95.8749 71.7908 95.9733 71.7951C96.0474 71.7923 96.1213 71.8058 96.1896 71.8347C96.2579 71.8636 96.319 71.9072 96.3686 71.9623C96.4181 72.0175 96.4549 72.0829 96.4762 72.1539C96.4976 72.2249 96.503 72.2997 96.4921 72.373Z" fill="#2D334A"/>
<path d="M98.0732 72.338V73.1295H97.8488V72.9579C97.7986 73.023 97.7328 73.0744 97.6574 73.1075C97.5821 73.1405 97.4996 73.1541 97.4176 73.147C97.1196 73.147 96.9303 72.9859 96.9303 72.7583C96.9303 72.5306 97.067 72.373 97.4597 72.373H97.8348V72.3275C97.8348 72.1279 97.7191 72.0088 97.4842 72.0088C97.3328 72.0074 97.1854 72.0581 97.067 72.1524L96.9654 71.9738C97.1217 71.8565 97.3134 71.7959 97.5088 71.8022C97.5831 71.7905 97.6592 71.796 97.731 71.8184C97.8029 71.8407 97.8687 71.8793 97.9232 71.9311C97.9778 71.9829 98.0197 72.0465 98.0457 72.1171C98.0717 72.1876 98.0811 72.2632 98.0732 72.338ZM97.8348 72.7303V72.5446H97.4632C97.2283 72.5446 97.1617 72.6357 97.1617 72.7478C97.1617 72.8598 97.2704 72.9614 97.4527 72.9614C97.5327 72.9683 97.6128 72.9497 97.6815 72.9081C97.7502 72.8666 97.8039 72.8043 97.8348 72.7303Z" fill="#2D334A"/>
<path d="M98.571 71.4099C98.571 71.3889 98.5752 71.3681 98.5834 71.3488C98.5915 71.3294 98.6035 71.3119 98.6185 71.2972C98.6335 71.2825 98.6513 71.271 98.6709 71.2633C98.6904 71.2556 98.7113 71.2518 98.7323 71.2523C98.7634 71.253 98.7935 71.2628 98.819 71.2805C98.8445 71.2983 98.8641 71.3231 98.8755 71.352C98.887 71.3808 98.8896 71.4124 98.8831 71.4427C98.8766 71.4731 98.8613 71.5008 98.8391 71.5225C98.8169 71.5442 98.7888 71.5589 98.7583 71.5647C98.7278 71.5705 98.6963 71.5672 98.6677 71.5551C98.639 71.5431 98.6146 71.5229 98.5974 71.4971C98.5802 71.4712 98.5711 71.4409 98.571 71.4099ZM98.6131 71.8162H98.8655V73.1295H98.6271L98.6131 71.8162Z" fill="#2D334A"/>
<path d="M99.4055 71.2908H99.6439V73.1295H99.4055V71.2908Z" fill="#2D334A"/>
<path d="M102.417 72.4676C102.417 72.8879 102.256 73.147 101.975 73.147C101.905 73.1514 101.835 73.1294 101.78 73.0854C101.725 73.0414 101.688 72.9785 101.677 72.9089C101.627 72.9861 101.557 73.0487 101.474 73.0905C101.392 73.1323 101.3 73.1518 101.207 73.147C101.047 73.1351 100.897 73.063 100.787 72.9451C100.678 72.8272 100.617 72.6723 100.617 72.5114C100.617 72.3505 100.678 72.1956 100.787 72.0777C100.897 71.9598 101.047 71.8876 101.207 71.8757C101.295 71.8721 101.381 71.8893 101.461 71.9259C101.54 71.9624 101.609 72.0172 101.663 72.0859V71.8862H101.877V72.7793C101.877 72.9089 101.944 72.9579 102.021 72.9579C102.165 72.9579 102.249 72.7793 102.249 72.4676C102.252 72.3401 102.228 72.2134 102.178 72.0958C102.129 71.9781 102.056 71.8721 101.963 71.7846C101.87 71.6971 101.76 71.6301 101.639 71.5879C101.519 71.5457 101.391 71.5292 101.264 71.5395C101.008 71.5395 100.763 71.641 100.582 71.8216C100.401 72.0022 100.299 72.2472 100.299 72.5026C100.299 72.7581 100.401 73.003 100.582 73.1836C100.763 73.3643 101.008 73.4657 101.264 73.4657C101.429 73.4675 101.592 73.4303 101.74 73.3572L101.796 73.5148C101.63 73.5922 101.448 73.6316 101.264 73.6303C101.11 73.6389 100.957 73.6161 100.813 73.5634C100.668 73.5106 100.537 73.4291 100.425 73.3237C100.313 73.2183 100.225 73.0913 100.164 72.9504C100.103 72.8095 100.072 72.6578 100.072 72.5044C100.072 72.351 100.103 72.1992 100.164 72.0583C100.225 71.9175 100.313 71.7904 100.425 71.6851C100.537 71.5797 100.668 71.4981 100.813 71.4454C100.957 71.3927 101.11 71.3699 101.264 71.3784C101.413 71.3672 101.562 71.3871 101.703 71.437C101.844 71.487 101.973 71.5657 102.081 71.6682C102.19 71.7708 102.276 71.8949 102.334 72.0325C102.391 72.1702 102.42 72.3184 102.417 72.4676ZM101.67 72.4956C101.675 72.438 101.667 72.3801 101.647 72.3257C101.628 72.2713 101.597 72.2217 101.557 72.18C101.517 72.1383 101.469 72.1056 101.415 72.0839C101.361 72.0623 101.304 72.0522 101.246 72.0543C101.129 72.0543 101.017 72.1008 100.934 72.1836C100.851 72.2663 100.804 72.3786 100.804 72.4956C100.804 72.6127 100.851 72.7249 100.934 72.8076C101.017 72.8904 101.129 72.9369 101.246 72.9369C101.304 72.939 101.361 72.929 101.415 72.9073C101.469 72.8856 101.517 72.8529 101.557 72.8112C101.597 72.7696 101.628 72.7199 101.647 72.6655C101.667 72.6111 101.675 72.5532 101.67 72.4956Z" fill="#2D334A"/>
<path d="M104.047 72.5516H102.978C102.994 72.6643 103.052 72.7667 103.14 72.8383C103.229 72.9098 103.341 72.945 103.455 72.9368C103.526 72.9394 103.596 72.9267 103.661 72.8995C103.727 72.8722 103.785 72.8312 103.833 72.7792L103.967 72.9333C103.901 73.0043 103.82 73.0602 103.731 73.0971C103.641 73.134 103.545 73.151 103.448 73.147C103.357 73.1528 103.265 73.1397 103.179 73.1083C103.093 73.077 103.015 73.0281 102.949 72.9649C102.883 72.9017 102.831 72.8254 102.796 72.741C102.761 72.6566 102.744 72.5658 102.747 72.4746C102.743 72.3862 102.758 72.2982 102.79 72.2158C102.822 72.1334 102.87 72.0583 102.932 71.9954C102.995 71.9324 103.069 71.8827 103.151 71.8495C103.233 71.8163 103.321 71.8002 103.409 71.8021C103.498 71.8 103.586 71.8163 103.667 71.8501C103.749 71.8839 103.823 71.9344 103.884 71.9984C103.945 72.0624 103.992 72.1384 104.022 72.2216C104.052 72.3048 104.064 72.3934 104.058 72.4816C104.058 72.4816 104.047 72.5306 104.047 72.5516ZM102.978 72.38H103.823C103.813 72.2747 103.765 72.1768 103.686 72.1055C103.608 72.0342 103.506 71.9947 103.4 71.9947C103.295 71.9947 103.193 72.0342 103.114 72.1055C103.036 72.1768 102.988 72.2747 102.978 72.38Z" fill="#2D334A"/>
<path d="M106.663 72.373V73.1295H106.424V72.401C106.424 72.1418 106.302 72.0158 106.074 72.0158C105.846 72.0158 105.681 72.1699 105.681 72.4535V73.1295H105.443V72.401C105.443 72.1418 105.316 72.0158 105.092 72.0158C105.036 72.0137 104.98 72.024 104.928 72.0458C104.876 72.0677 104.83 72.1007 104.792 72.1424C104.754 72.1841 104.726 72.2336 104.709 72.2874C104.693 72.3411 104.688 72.3978 104.696 72.4535V73.1295H104.475V71.8161H104.706V72.0123C104.759 71.9387 104.83 71.88 104.913 71.842C104.995 71.8039 105.086 71.7878 105.176 71.7951C105.268 71.7887 105.359 71.8083 105.44 71.8517C105.52 71.8951 105.587 71.9605 105.632 72.0403C105.69 71.9606 105.766 71.8966 105.855 71.8538C105.944 71.811 106.042 71.7908 106.14 71.7951C106.215 71.7917 106.289 71.8048 106.358 71.8335C106.426 71.8622 106.488 71.9057 106.538 71.9609C106.588 72.0162 106.625 72.0818 106.647 72.153C106.668 72.2242 106.674 72.2994 106.663 72.373Z" fill="#2D334A"/>
<path d="M108.244 72.338V73.1295H108.019V72.9579C107.969 73.0233 107.902 73.0749 107.826 73.1079C107.75 73.141 107.667 73.1544 107.585 73.147C107.287 73.147 107.101 72.9859 107.101 72.7583C107.101 72.5306 107.238 72.373 107.63 72.373H108.005V72.3275C108.005 72.1279 107.89 72.0088 107.655 72.0088C107.503 72.0074 107.356 72.0581 107.238 72.1524L107.136 71.9738C107.292 71.8565 107.484 71.7959 107.679 71.8022C107.754 71.7905 107.83 71.796 107.902 71.8184C107.973 71.8407 108.039 71.8793 108.094 71.9311C108.148 71.9829 108.19 72.0465 108.216 72.1171C108.242 72.1876 108.252 72.2632 108.244 72.338ZM108.005 72.7303V72.5446H107.655C107.42 72.5446 107.353 72.6357 107.353 72.7478C107.353 72.8598 107.462 72.9614 107.644 72.9614C107.721 72.9639 107.796 72.9431 107.861 72.9018C107.925 72.8606 107.976 72.8007 108.005 72.7303Z" fill="#2D334A"/>
<path d="M108.742 71.4099C108.742 71.3889 108.746 71.3681 108.754 71.3488C108.762 71.3294 108.774 71.3119 108.789 71.2972C108.804 71.2825 108.822 71.271 108.841 71.2633C108.861 71.2556 108.882 71.2518 108.903 71.2523C108.934 71.253 108.964 71.2628 108.99 71.2805C109.015 71.2983 109.035 71.3231 109.046 71.352C109.057 71.3808 109.06 71.4124 109.054 71.4427C109.047 71.4731 109.032 71.5008 109.01 71.5225C108.987 71.5442 108.959 71.5589 108.929 71.5647C108.898 71.5705 108.867 71.5672 108.838 71.5551C108.81 71.5431 108.785 71.5229 108.768 71.4971C108.751 71.4712 108.742 71.4409 108.742 71.4099ZM108.784 71.8162H109.033V73.1295H108.794L108.784 71.8162Z" fill="#2D334A"/>
<path d="M109.576 71.2908H109.814V73.1295H109.576V71.2908Z" fill="#2D334A"/>
<path d="M110.256 72.9754C110.256 72.9532 110.26 72.9311 110.268 72.9105C110.276 72.8899 110.289 72.8712 110.304 72.8555C110.32 72.8398 110.339 72.8274 110.359 72.8191C110.38 72.8108 110.402 72.8068 110.424 72.8073C110.446 72.8068 110.468 72.8108 110.489 72.8191C110.509 72.8275 110.528 72.8399 110.543 72.8556C110.559 72.8714 110.571 72.8902 110.579 72.9108C110.587 72.9314 110.59 72.9534 110.589 72.9754C110.59 72.9976 110.587 73.0198 110.579 73.0405C110.571 73.0613 110.559 73.0803 110.543 73.0963C110.528 73.1124 110.51 73.1251 110.489 73.1338C110.469 73.1425 110.447 73.147 110.424 73.147C110.402 73.147 110.38 73.1425 110.359 73.1339C110.339 73.1252 110.32 73.1125 110.304 73.0965C110.288 73.0806 110.276 73.0616 110.268 73.0408C110.26 73.02 110.256 72.9978 110.256 72.9754Z" fill="#2D334A"/>
<path d="M110.88 72.4746C110.878 72.3833 110.895 72.2925 110.93 72.2081C110.965 72.1237 111.017 72.0475 111.083 71.9842C111.149 71.921 111.227 71.8721 111.313 71.8408C111.399 71.8094 111.49 71.7963 111.581 71.8021C111.688 71.7963 111.794 71.8197 111.889 71.8696C111.983 71.9196 112.063 71.9943 112.118 72.0858L111.935 72.2014C111.898 72.1427 111.846 72.0945 111.785 72.0614C111.723 72.0284 111.655 72.0114 111.585 72.0123C111.462 72.0123 111.344 72.061 111.258 72.1477C111.171 72.2344 111.122 72.352 111.122 72.4746C111.122 72.5972 111.171 72.7148 111.258 72.8014C111.344 72.8881 111.462 72.9368 111.585 72.9368C111.655 72.9377 111.723 72.9208 111.785 72.8877C111.846 72.8546 111.898 72.8064 111.935 72.7477L112.118 72.8633C112.062 72.9542 111.983 73.0286 111.888 73.0785C111.794 73.1284 111.688 73.152 111.581 73.147C111.49 73.1528 111.399 73.1397 111.313 73.1083C111.227 73.077 111.149 73.0281 111.083 72.9649C111.017 72.9017 110.965 72.8254 110.93 72.741C110.895 72.6566 110.878 72.5658 110.88 72.4746Z" fill="#2D334A"/>
<path d="M112.374 72.4746C112.368 72.335 112.404 72.1969 112.478 72.0781C112.552 71.9593 112.659 71.8651 112.787 71.8078C112.914 71.7505 113.056 71.7325 113.194 71.7563C113.331 71.7801 113.459 71.8445 113.56 71.9412C113.661 72.038 113.73 72.1627 113.76 72.2992C113.789 72.4358 113.777 72.5781 113.725 72.7077C113.673 72.8373 113.583 72.9484 113.467 73.0267C113.351 73.105 113.215 73.1469 113.075 73.147C112.984 73.1528 112.892 73.1397 112.806 73.1083C112.721 73.077 112.642 73.0281 112.576 72.9649C112.51 72.9016 112.458 72.8254 112.423 72.741C112.388 72.6566 112.372 72.5658 112.374 72.4746ZM113.503 72.4746C113.499 72.3873 113.47 72.3029 113.419 72.232C113.368 72.1612 113.297 72.1069 113.215 72.076C113.133 72.0451 113.044 72.039 112.959 72.0584C112.874 72.0777 112.796 72.1218 112.736 72.185C112.675 72.2482 112.635 72.3277 112.619 72.4137C112.604 72.4997 112.614 72.5883 112.649 72.6685C112.684 72.7487 112.741 72.8169 112.814 72.8646C112.888 72.9123 112.973 72.9375 113.061 72.9368C113.121 72.9385 113.181 72.9275 113.237 72.9045C113.293 72.8816 113.343 72.8472 113.384 72.8037C113.426 72.7601 113.458 72.7083 113.478 72.6516C113.499 72.5949 113.507 72.5346 113.503 72.4746Z" fill="#2D334A"/>
<path d="M116.356 72.373V73.1295H116.118V72.401C116.118 72.1419 115.992 72.0158 115.767 72.0158C115.711 72.0137 115.655 72.024 115.603 72.0459C115.551 72.0677 115.505 72.1007 115.467 72.1424C115.429 72.1841 115.401 72.2336 115.385 72.2874C115.368 72.3411 115.363 72.3978 115.371 72.4536V73.1295H115.133V72.401C115.133 72.1419 115.01 72.0158 114.782 72.0158C114.554 72.0158 114.39 72.1699 114.39 72.4536V73.1295H114.151V71.8162H114.379V72.0123C114.432 71.9433 114.5 71.8881 114.579 71.8515C114.658 71.8149 114.744 71.798 114.831 71.8021C114.923 71.7959 115.015 71.8155 115.096 71.8589C115.177 71.9022 115.245 71.9675 115.291 72.0473C115.347 71.9675 115.423 71.9032 115.512 71.8603C115.6 71.8175 115.697 71.7975 115.795 71.8021C115.872 71.7935 115.95 71.8024 116.022 71.8282C116.095 71.854 116.161 71.896 116.215 71.951C116.269 72.0061 116.31 72.0726 116.334 72.1457C116.359 72.2189 116.366 72.2966 116.356 72.373Z" fill="#2D334A"/>
<path d="M87.71 108.526V108.708H86.6582V107.237H87.71V107.42H86.8791V107.868H87.6188V108.046H86.8791V108.523L87.71 108.526Z" fill="#2D334A"/>
<path d="M88.667 108.708L88.3445 108.281L88.0184 108.708H87.7941L88.2323 108.141L87.8151 107.595H88.0395L88.3445 107.997L88.6495 107.595H88.8704L88.4497 108.141L88.8949 108.708H88.667Z" fill="#2D334A"/>
<path d="M90.2272 108.152C90.2316 108.227 90.2203 108.302 90.1938 108.373C90.1673 108.443 90.1264 108.508 90.0735 108.561C90.0207 108.615 89.9571 108.657 89.8869 108.685C89.8168 108.713 89.7416 108.725 89.6662 108.722C89.5916 108.725 89.5175 108.709 89.4499 108.678C89.3824 108.646 89.3231 108.599 89.2771 108.54V109.115H89.0737V107.595H89.2665V107.773C89.3127 107.712 89.3733 107.662 89.4429 107.629C89.5126 107.596 89.5892 107.581 89.6662 107.584C89.7413 107.581 89.8162 107.594 89.8861 107.621C89.956 107.649 90.0193 107.691 90.0721 107.744C90.1249 107.797 90.166 107.861 90.1927 107.931C90.2194 108.002 90.2311 108.077 90.2272 108.152ZM90.0238 108.152C90.0204 108.078 89.9955 108.008 89.9523 107.948C89.909 107.889 89.8493 107.844 89.7805 107.818C89.7117 107.792 89.6369 107.787 89.5653 107.804C89.4938 107.82 89.4286 107.857 89.3779 107.91C89.3271 107.963 89.2931 108.03 89.28 108.102C89.2669 108.174 89.2753 108.249 89.3041 108.316C89.3329 108.384 89.381 108.441 89.4422 108.482C89.5035 108.522 89.5753 108.544 89.6487 108.544C89.7005 108.548 89.7526 108.54 89.8011 108.522C89.8497 108.503 89.8935 108.474 89.9294 108.437C89.9653 108.399 89.9924 108.354 90.0087 108.305C90.0251 108.255 90.0302 108.203 90.0238 108.152Z" fill="#2D334A"/>
<path d="M90.4304 107.251C90.4304 107.234 90.434 107.216 90.4409 107.2C90.4478 107.183 90.4579 107.169 90.4707 107.156C90.4834 107.144 90.4985 107.134 90.5151 107.128C90.5317 107.121 90.5494 107.118 90.5671 107.118C90.5933 107.119 90.6187 107.127 90.6402 107.143C90.6616 107.158 90.6782 107.179 90.6877 107.203C90.6972 107.227 90.6994 107.254 90.6939 107.28C90.6883 107.305 90.6754 107.328 90.6566 107.347C90.6379 107.365 90.6141 107.377 90.5884 107.382C90.5626 107.387 90.536 107.384 90.5119 107.374C90.4877 107.364 90.4671 107.347 90.4527 107.325C90.4382 107.303 90.4304 107.278 90.4304 107.251ZM90.4655 107.602H90.6688V108.715H90.4515L90.4655 107.602Z" fill="#2D334A"/>
<path d="M91.612 107.584V107.78H91.5629C91.5144 107.78 91.4664 107.79 91.4219 107.809C91.3774 107.829 91.3374 107.857 91.3045 107.893C91.2715 107.928 91.2463 107.97 91.2305 108.016C91.2146 108.062 91.2084 108.11 91.2123 108.158V108.712H91.0125V107.598H91.2053V107.787C91.2465 107.718 91.3067 107.662 91.3788 107.626C91.4509 107.59 91.5318 107.576 91.612 107.584Z" fill="#2D334A"/>
<path d="M92.6988 108.036V108.708H92.506V108.568C92.4653 108.622 92.412 108.665 92.3508 108.693C92.2897 108.721 92.2226 108.733 92.1554 108.729C91.903 108.729 91.7417 108.593 91.7417 108.4C91.7417 108.208 91.8574 108.074 92.1905 108.074H92.5095V108.036C92.5095 107.864 92.4113 107.766 92.2115 107.766C92.0846 107.766 91.9612 107.808 91.8609 107.885L91.7768 107.735C91.9111 107.638 92.0737 107.587 92.2395 107.591C92.527 107.584 92.6988 107.731 92.6988 108.036ZM92.4955 108.369V108.218H92.1834C91.9836 108.218 91.9275 108.295 91.9275 108.39C91.9275 108.484 92.0222 108.568 92.1729 108.568C92.241 108.574 92.3091 108.558 92.3671 108.522C92.4252 108.486 92.4702 108.432 92.4955 108.369Z" fill="#2D334A"/>
<path d="M93.6558 108.645C93.586 108.697 93.5009 108.724 93.4139 108.722C93.3667 108.727 93.3189 108.722 93.2741 108.706C93.2293 108.69 93.1886 108.664 93.155 108.631C93.1214 108.597 93.0958 108.557 93.0799 108.512C93.064 108.467 93.0584 108.419 93.0633 108.372V107.763H92.874V107.595H93.0633V107.353H93.2562V107.595H93.5752V107.763H93.2562V108.365C93.2524 108.389 93.2541 108.414 93.2612 108.437C93.2683 108.46 93.2805 108.482 93.2971 108.5C93.3136 108.517 93.334 108.531 93.3566 108.54C93.3793 108.549 93.4037 108.553 93.428 108.551C93.4851 108.552 93.5408 108.534 93.5857 108.498L93.6558 108.645Z" fill="#2D334A"/>
<path d="M93.8241 107.251C93.8241 107.234 93.8277 107.216 93.8346 107.2C93.8415 107.183 93.8516 107.169 93.8644 107.156C93.8771 107.144 93.8922 107.134 93.9088 107.128C93.9253 107.121 93.943 107.118 93.9608 107.118C93.987 107.119 94.0124 107.127 94.0339 107.143C94.0553 107.158 94.0718 107.179 94.0814 107.203C94.0909 107.227 94.0931 107.254 94.0875 107.28C94.082 107.305 94.0691 107.328 94.0503 107.347C94.0315 107.365 94.0078 107.377 93.982 107.382C93.9563 107.387 93.9297 107.384 93.9056 107.374C93.8814 107.364 93.8608 107.347 93.8463 107.325C93.8318 107.303 93.8241 107.278 93.8241 107.251ZM93.8592 107.602H94.0625V108.715H93.8592V107.602Z" fill="#2D334A"/>
<path d="M94.3079 108.152C94.3058 108.036 94.3382 107.923 94.4008 107.826C94.4635 107.729 94.5537 107.653 94.6598 107.607C94.7659 107.561 94.8833 107.548 94.9968 107.57C95.1104 107.591 95.2151 107.645 95.2975 107.726C95.38 107.807 95.4365 107.911 95.4598 108.024C95.4831 108.137 95.4722 108.254 95.4285 108.361C95.3848 108.468 95.3102 108.559 95.2143 108.624C95.1184 108.688 95.0054 108.722 94.8899 108.722C94.8133 108.726 94.7368 108.714 94.6651 108.687C94.5934 108.66 94.5282 108.618 94.4734 108.565C94.4187 108.511 94.3758 108.446 94.3473 108.375C94.3188 108.304 94.3054 108.228 94.3079 108.152ZM95.2615 108.152C95.2615 108.102 95.2518 108.054 95.233 108.008C95.2141 107.963 95.1865 107.921 95.1516 107.887C95.1168 107.852 95.0755 107.824 95.0299 107.805C94.9844 107.786 94.9356 107.777 94.8864 107.777C94.8371 107.777 94.7883 107.786 94.7428 107.805C94.6973 107.824 94.656 107.852 94.6211 107.887C94.5863 107.921 94.5587 107.963 94.5398 108.008C94.521 108.054 94.5113 108.102 94.5113 108.152C94.5113 108.201 94.521 108.249 94.5398 108.295C94.5587 108.34 94.5863 108.382 94.6211 108.416C94.656 108.451 94.6973 108.479 94.7428 108.498C94.7883 108.517 94.8371 108.526 94.8864 108.526C94.9356 108.526 94.9844 108.517 95.0299 108.498C95.0755 108.479 95.1168 108.451 95.1516 108.416C95.1865 108.382 95.2141 108.34 95.233 108.295C95.2518 108.249 95.2615 108.201 95.2615 108.152Z" fill="#2D334A"/>
<path d="M96.7621 108.067V108.708H96.5623V108.092C96.5623 107.871 96.4501 107.766 96.2608 107.766C96.2123 107.763 96.1637 107.77 96.1184 107.788C96.0731 107.805 96.0322 107.832 95.9987 107.868C95.9652 107.903 95.9399 107.945 95.9246 107.991C95.9093 108.037 95.9044 108.086 95.9102 108.134V108.708H95.7103V107.595H95.9067V107.763C95.9541 107.703 96.0152 107.656 96.0848 107.625C96.1543 107.594 96.2303 107.58 96.3063 107.584C96.3697 107.58 96.4332 107.59 96.4923 107.613C96.5513 107.636 96.6045 107.672 96.6481 107.719C96.6916 107.765 96.7244 107.82 96.7441 107.88C96.7638 107.941 96.77 108.005 96.7621 108.067Z" fill="#2D334A"/>
<path d="M97.642 107.237H98.2625C98.3652 107.227 98.4689 107.239 98.5669 107.271C98.6649 107.304 98.755 107.356 98.8314 107.426C98.9079 107.495 98.969 107.579 99.0108 107.674C99.0526 107.768 99.0742 107.87 99.0742 107.973C99.0742 108.076 99.0526 108.178 99.0108 108.272C98.969 108.367 98.9079 108.451 98.8314 108.52C98.755 108.59 98.6649 108.642 98.5669 108.674C98.4689 108.707 98.3652 108.718 98.2625 108.708H97.642V107.237ZM98.2485 108.526C98.3954 108.526 98.5363 108.468 98.6402 108.364C98.7441 108.26 98.8024 108.12 98.8024 107.973C98.8024 107.826 98.7441 107.685 98.6402 107.582C98.5363 107.478 98.3954 107.42 98.2485 107.42H97.8523V108.526H98.2485Z" fill="#2D334A"/>
<path d="M100.191 108.036V108.708H99.9979V108.568C99.9572 108.622 99.9039 108.665 99.8428 108.693C99.7816 108.721 99.7145 108.733 99.6473 108.729C99.3949 108.729 99.2336 108.593 99.2336 108.4C99.2336 108.208 99.3493 108.074 99.6824 108.074H100.001V108.036C100.001 107.864 99.9033 107.766 99.7034 107.766C99.5765 107.766 99.4531 107.808 99.3528 107.885L99.2687 107.735C99.403 107.638 99.5656 107.587 99.7315 107.591C100.019 107.584 100.191 107.731 100.191 108.036ZM99.9874 108.369V108.218H99.6789C99.4791 108.218 99.4195 108.295 99.4195 108.39C99.4195 108.484 99.5141 108.568 99.6684 108.568C99.736 108.574 99.8035 108.557 99.861 108.521C99.9184 108.485 99.9628 108.432 99.9874 108.369Z" fill="#2D334A"/>
<path d="M101.488 107.595L100.948 108.82C100.85 109.055 100.72 109.129 100.552 109.129C100.447 109.132 100.344 109.095 100.264 109.027L100.352 108.873C100.378 108.9 100.409 108.921 100.444 108.935C100.478 108.949 100.515 108.957 100.552 108.957C100.647 108.957 100.71 108.911 100.762 108.785L100.797 108.705L100.306 107.595H100.517L100.906 108.484L101.292 107.595H101.488Z" fill="#2D334A"/>
<path d="M113.219 108.152C113.217 108.075 113.231 107.999 113.261 107.928C113.29 107.857 113.334 107.793 113.389 107.739C113.444 107.686 113.51 107.645 113.582 107.618C113.654 107.591 113.731 107.58 113.808 107.584C113.897 107.579 113.987 107.599 114.067 107.641C114.146 107.683 114.213 107.745 114.26 107.822L114.109 107.92C114.076 107.87 114.031 107.829 113.977 107.802C113.924 107.774 113.864 107.761 113.804 107.763C113.707 107.772 113.616 107.817 113.551 107.889C113.485 107.962 113.448 108.056 113.448 108.153C113.448 108.251 113.485 108.345 113.551 108.417C113.616 108.489 113.707 108.535 113.804 108.544C113.864 108.546 113.924 108.532 113.977 108.505C114.031 108.477 114.076 108.436 114.109 108.386L114.26 108.481C114.214 108.559 114.148 108.623 114.068 108.665C113.988 108.708 113.898 108.728 113.808 108.722C113.731 108.727 113.653 108.715 113.581 108.688C113.509 108.661 113.443 108.62 113.388 108.566C113.332 108.512 113.289 108.448 113.26 108.377C113.23 108.305 113.217 108.229 113.219 108.152Z" fill="#2D334A"/>
<path d="M115.452 107.595L114.965 108.708H114.758L114.27 107.595H114.481L114.863 108.488L115.256 107.595H115.452Z" fill="#2D334A"/>
<path d="M116.57 107.595L116.079 108.708H115.876L115.389 107.595H115.599L115.981 108.488L116.37 107.595H116.57Z" fill="#2D334A"/>
<path d="M87.3277 110.4V111.871H87.1209V110.586H86.7878V110.4H87.3277Z" fill="#2D334A"/>
<path d="M88.6425 111.689V111.871H87.5907V111.72L88.1902 111.142C88.3445 110.992 88.3725 110.901 88.3725 110.81C88.3725 110.656 88.2673 110.565 88.0605 110.565C87.9897 110.56 87.9189 110.572 87.8537 110.6C87.7885 110.628 87.7309 110.671 87.6854 110.726L87.5416 110.6C87.6091 110.525 87.6922 110.467 87.785 110.429C87.8777 110.391 87.9778 110.374 88.078 110.379C88.3865 110.379 88.5829 110.537 88.5829 110.785C88.5806 110.876 88.5576 110.964 88.5156 111.044C88.4737 111.125 88.414 111.194 88.341 111.247L87.8922 111.682L88.6425 111.689Z" fill="#2D334A"/>
<path d="M89.831 110.102H90.0168L89.3156 112.081H89.1333L89.831 110.102Z" fill="#2D334A"/>
<path d="M91.5278 111.44C91.5278 111.685 91.3454 111.888 90.9703 111.888C90.7749 111.894 90.5836 111.831 90.4304 111.71L90.5251 111.545C90.6497 111.649 90.8078 111.705 90.9703 111.703C91.1912 111.703 91.3209 111.601 91.3209 111.44C91.3209 111.279 91.2087 111.184 90.9703 111.184H90.8546V111.037L91.2227 110.586H90.5216V110.4H91.4927V110.544L91.0825 111.02C91.377 111.044 91.5278 111.212 91.5278 111.44Z" fill="#2D334A"/>
<path d="M91.682 111.135C91.682 110.659 91.9379 110.386 92.2815 110.386C92.6251 110.386 92.881 110.659 92.881 111.135C92.881 111.612 92.6251 111.888 92.2815 111.888C91.9379 111.888 91.682 111.615 91.682 111.135ZM92.6707 111.135C92.6707 110.761 92.5129 110.572 92.2815 110.572C92.0501 110.572 91.8924 110.761 91.8924 111.135C91.8924 111.51 92.0501 111.703 92.2815 111.703C92.5129 111.703 92.6707 111.514 92.6707 111.135Z" fill="#2D334A"/>
<path d="M113.24 111.135C113.24 110.659 113.496 110.386 113.839 110.386C114.183 110.386 114.439 110.659 114.439 111.135C114.439 111.612 114.183 111.888 113.839 111.888C113.496 111.888 113.24 111.615 113.24 111.135ZM114.228 111.135C114.228 110.761 114.067 110.572 113.839 110.572C113.611 110.572 113.45 110.761 113.45 111.135C113.45 111.51 113.59 111.72 113.832 111.72C114.074 111.72 114.221 111.514 114.221 111.135H114.228Z" fill="#2D334A"/>
<path d="M114.593 111.135C114.593 110.659 114.849 110.386 115.192 110.386C115.536 110.386 115.792 110.659 115.792 111.135C115.792 111.612 115.536 111.888 115.192 111.888C114.849 111.888 114.593 111.615 114.593 111.135ZM115.582 111.135C115.582 110.761 115.424 110.572 115.192 110.572C114.961 110.572 114.803 110.761 114.803 111.135C114.803 111.51 114.961 111.703 115.192 111.703C115.424 111.703 115.582 111.514 115.582 111.135Z" fill="#2D334A"/>
<path d="M115.953 111.135C115.953 110.659 116.209 110.386 116.553 110.386C116.896 110.386 117.152 110.659 117.152 111.135C117.152 111.612 116.896 111.888 116.553 111.888C116.209 111.888 115.953 111.615 115.953 111.135ZM116.942 111.135C116.942 110.761 116.784 110.572 116.553 110.572C116.321 110.572 116.163 110.761 116.163 111.135C116.163 111.51 116.321 111.703 116.553 111.703C116.784 111.703 116.942 111.514 116.942 111.135Z" fill="#2D334A"/>
<path d="M102.133 44.6846C102.133 45.259 101.709 45.6127 101.022 45.6127H100.433V46.3657H99.9489V43.7565H101.022C101.709 43.7565 102.133 44.1067 102.133 44.6846ZM101.642 44.6846C101.642 44.3554 101.425 44.1663 100.997 44.1663H100.433V45.2169H100.997C101.425 45.2029 101.642 45.0138 101.642 44.6846Z" fill="#2D334A"/>
<path d="M104.177 45.7598H102.873L102.617 46.3657H102.115L103.29 43.7565H103.774L104.952 46.3657H104.44L104.177 45.7598ZM104.019 45.3816L103.525 44.2398L103.038 45.3816H104.019Z" fill="#2D334A"/>
<path d="M106.245 45.4446V46.3657H105.762V45.4516L104.734 43.7565H105.253L106.018 45.0278L106.789 43.7565H107.28L106.245 45.4446Z" fill="#2D334A"/>
<path d="M109.944 46.3657V44.6356L109.085 46.068H108.868L108.012 44.6671V46.3727H107.55V43.7565H107.949L108.983 45.4866L110.004 43.7565H110.403V46.3657H109.944Z" fill="#2D334A"/>
<path d="M113.061 45.9594V46.3657H111.105V43.7565H113.008V44.1628H111.588V44.8282H112.851V45.224H111.588V45.9454L113.061 45.9594Z" fill="#2D334A"/>
<path d="M115.922 43.7565V46.3657H115.522L114.081 44.6146V46.3657H113.59V43.7565H113.99L115.431 45.5076V43.7565H115.922Z" fill="#2D334A"/>
<path d="M117.149 44.1663H116.283V43.7565H118.498V44.1663H117.632V46.3657H117.149V44.1663Z" fill="#2D334A"/>
<path d="M118.618 46.089L118.786 45.7142C119.035 45.8976 119.336 45.9969 119.645 45.9979C120.052 45.9979 120.223 45.8543 120.223 45.6477C120.223 45.0838 118.674 45.4516 118.674 44.485C118.674 44.0647 119.024 43.7075 119.726 43.7075C120.031 43.7027 120.331 43.7814 120.595 43.9351L120.441 44.3134C120.228 44.1863 119.987 44.1152 119.74 44.1067C119.336 44.1067 119.172 44.2643 119.172 44.457C119.172 45.0138 120.718 44.6531 120.718 45.6092C120.718 46.0259 120.367 46.3832 119.666 46.3832C119.294 46.4033 118.925 46.2999 118.618 46.089Z" fill="#2D334A"/>
</g>
<defs>
<clipPath id="clip0_486_8417">
<rect width="99.2161" height="98.7622" fill="white"/>
</clipPath>
<clipPath id="clip1_486_8417">
<rect width="61.7033" height="129.581" fill="white" transform="translate(79.5833 29.4185)"/>
</clipPath>
</defs>
</svg>
