<svg width="159" height="159" viewBox="0 0 159 159" fill="none" xmlns="http://www.w3.org/2000/svg">
<path d="M81.726 21.3537V23.0073C81.726 23.5288 82.0917 23.7387 82.5432 23.4779L90.118 19.1118C90.3582 18.9582 90.5586 18.7499 90.7029 18.5039C90.8471 18.2579 90.9311 17.9813 90.948 17.6967V16.0431C90.948 15.5216 90.5823 15.3085 90.1307 15.5693L82.5528 19.9386C82.3131 20.0926 82.1133 20.301 81.9696 20.547C81.8259 20.7929 81.7424 21.0693 81.726 21.3537Z" fill="#F0F0F0"/>
<path d="M146.153 60.5122L139.494 64.3568C139.256 64.5119 139.058 64.7208 138.916 64.9667C138.774 65.2125 138.692 65.4884 138.677 65.7719V67.416C138.677 67.9375 139.042 68.1474 139.494 67.8866L146.153 64.042V60.5122Z" fill="#F0F0F0"/>
<path d="M144.556 69.324L146.146 68.405V64.8466L144.556 65.7688C144.319 65.9238 144.121 66.1327 143.979 66.3786C143.837 66.6245 143.755 66.9004 143.739 67.1839V68.8375C143.736 69.359 144.105 69.5689 144.556 69.324Z" fill="#F0F0F0"/>
<path d="M23.6623 67.699L16.0971 72.0651C15.9926 72.1293 15.8965 72.2062 15.8109 72.2941V75.7094C15.9118 75.6936 16.0089 75.6591 16.0971 75.6077L23.6623 71.232C23.9005 71.0783 24.0992 70.8707 24.2423 70.6259C24.3854 70.3812 24.4689 70.1062 24.486 69.8232V68.1696C24.486 67.6481 24.1139 67.4382 23.6623 67.699Z" fill="#F0F0F0"/>
<path d="M23.5924 103.264L16.0272 107.63C15.9495 107.678 15.877 107.733 15.8109 107.796V111.259C15.887 111.241 15.96 111.213 16.0272 111.173L23.5924 106.803C23.8302 106.648 24.0282 106.439 24.1702 106.194C24.3122 105.948 24.3942 105.672 24.4096 105.388V103.735C24.4096 103.213 24.0439 103.003 23.5924 103.264Z" fill="#F0F0F0"/>
<path d="M23.6623 85.0904L16.0971 89.4597C15.9912 89.5218 15.8948 89.599 15.8109 89.6887V93.104C15.9124 93.0885 16.0097 93.0528 16.0971 92.9991L23.6623 88.6329C23.9014 88.4786 24.1006 88.27 24.2437 88.0241C24.3868 87.7782 24.4698 87.5019 24.486 87.2178V85.5642C24.486 85.0427 24.1139 84.8297 23.6623 85.0904Z" fill="#F0F0F0"/>
<path d="M107.484 27.7837L99.9028 32.1498C99.665 32.3048 99.467 32.5138 99.325 32.7596C99.183 33.0055 99.101 33.2814 99.0856 33.5649V35.2185C99.0856 35.74 99.4513 35.9531 99.9028 35.6923L107.484 31.323C107.722 31.168 107.92 30.959 108.062 30.7132C108.204 30.4673 108.286 30.1914 108.301 29.9079V28.2543C108.285 27.7328 107.92 27.5229 107.484 27.7837Z" fill="#F0F0F0"/>
<path d="M112.254 20.6986L104.679 25.0647C104.441 25.2198 104.243 25.4287 104.101 25.6746C103.959 25.9205 103.877 26.1963 103.862 26.4798V28.1334C103.862 28.655 104.228 28.868 104.679 28.6073L112.254 24.2379C112.492 24.0829 112.69 23.874 112.832 23.6281C112.974 23.3822 113.056 23.1064 113.071 22.8228V21.1692C113.062 20.6477 112.696 20.4378 112.254 20.6986Z" fill="#F0F0F0"/>
<path d="M58.2544 73.5407L50.6892 77.91C50.4513 78.065 50.2534 78.274 50.1114 78.5198C49.9694 78.7657 49.8874 79.0416 49.8719 79.3251V80.9787C49.8719 81.5002 50.2376 81.7101 50.6892 81.4493L58.2544 77.0832C58.4923 76.9281 58.6902 76.7192 58.8322 76.4733C58.9742 76.2275 59.0563 75.9516 59.0717 75.6681V74.0145C59.0717 73.493 58.706 73.2799 58.2544 73.5407Z" fill="#F0F0F0"/>
<path d="M79.3982 53.6085V55.262C79.3982 55.7836 79.7639 55.9935 80.2155 55.7359L87.768 51.3665C88.0058 51.2115 88.2038 51.0026 88.3458 50.7567C88.4878 50.5108 88.5698 50.235 88.5852 49.9515V48.2979C88.5852 47.7763 88.2195 47.5664 87.768 47.8272L80.2027 52.1934C79.9672 52.3498 79.7718 52.5593 79.632 52.8051C79.4923 53.0509 79.4122 53.3261 79.3982 53.6085Z" fill="#F0F0F0"/>
<path d="M69.5562 46.7619V48.4155C69.5562 48.9338 69.9219 49.1469 70.3734 48.8861L77.9386 44.52C78.1768 44.3653 78.3751 44.1565 78.5171 43.9105C78.6592 43.6646 78.741 43.3885 78.7559 43.1049V41.4513C78.7559 40.9298 78.3902 40.7199 77.9386 40.9807L70.3734 45.3436C70.1353 45.4992 69.9372 45.7086 69.7952 45.9551C69.6532 46.2015 69.5713 46.4779 69.5562 46.7619Z" fill="#F0F0F0"/>
<path d="M92.5602 23.3476L84.995 27.7137C84.7569 27.8692 84.5588 28.0787 84.4168 28.3251C84.2748 28.5716 84.1929 28.848 84.1777 29.132V30.7856C84.1777 31.3039 84.5434 31.517 84.995 31.2562L92.5602 26.8869C92.7981 26.7319 92.996 26.5229 93.138 26.2771C93.28 26.0312 93.3621 25.7553 93.3775 25.4718V23.8182C93.3775 23.2967 93.0118 23.0868 92.5602 23.3476Z" fill="#F0F0F0"/>
<path d="M53.1886 54.7373L45.6234 59.1035C45.3857 59.2587 45.1879 59.4677 45.0459 59.7135C44.904 59.9593 44.8218 60.2351 44.8062 60.5186V62.1722C44.8062 62.6937 45.1719 62.9068 45.6234 62.646L53.1886 58.2767C53.4265 58.1216 53.6245 57.9127 53.7664 57.6668C53.9084 57.421 53.9905 57.1451 54.0059 56.8616V55.208C54.0059 54.696 53.6402 54.4766 53.1886 54.7373Z" fill="#F0F0F0"/>
<path d="M80.2155 73.14L87.768 68.7611C88.0061 68.6056 88.2042 68.3961 88.3462 68.1497C88.4882 67.9033 88.5701 67.6268 88.5852 67.3428V65.6892C88.5852 65.1709 88.2195 64.9578 87.768 65.2186L80.2028 69.5879C79.9649 69.743 79.7669 69.9519 79.6249 70.1978C79.4829 70.4436 79.4009 70.7195 79.3855 71.003V72.6566C79.3982 73.1781 79.7639 73.388 80.2155 73.14Z" fill="#F0F0F0"/>
<path d="M25.9392 91.3837L33.5044 87.0175C33.7423 86.8625 33.9402 86.6535 34.0822 86.4077C34.2242 86.1618 34.3063 85.8859 34.3217 85.6024V83.952C34.3217 83.4305 33.956 83.2206 33.5044 83.4782L25.9392 87.8443C25.7013 87.9994 25.5034 88.2083 25.3614 88.4542C25.2194 88.7 25.1374 88.9759 25.1219 89.2594V90.913C25.1219 91.4345 25.4876 91.6444 25.9392 91.3837Z" fill="#F0F0F0"/>
<path d="M138.677 44.3228V45.9764C138.677 46.498 139.042 46.711 139.494 46.4503L146.153 42.612V39.0631L139.494 42.9077C139.256 43.0628 139.058 43.2717 138.916 43.5176C138.774 43.7634 138.692 44.0393 138.677 44.3228Z" fill="#F0F0F0"/>
<path d="M70.3734 113.586L77.9386 109.22C78.1765 109.065 78.3745 108.856 78.5164 108.61C78.6584 108.365 78.7405 108.089 78.7559 107.805V106.152C78.7559 105.63 78.3902 105.417 77.9386 105.678L70.3734 110.047C70.1356 110.202 69.9376 110.411 69.7956 110.657C69.6536 110.903 69.5716 111.179 69.5562 111.462V113.116C69.5562 113.637 69.9219 113.844 70.3734 113.586Z" fill="#F0F0F0"/>
<path d="M103.003 95.718L110.569 91.3487C110.806 91.1936 111.004 90.9847 111.146 90.7388C111.288 90.493 111.37 90.2171 111.386 89.9336V88.28C111.386 87.7584 111.02 87.5486 110.569 87.8093L103.003 92.1755C102.765 92.3305 102.567 92.5394 102.425 92.7853C102.283 93.0312 102.201 93.3071 102.186 93.5906V95.2442C102.186 95.7657 102.552 95.9787 103.003 95.718Z" fill="#F0F0F0"/>
<path d="M143.825 19.2167V17.5631C143.825 17.0416 143.459 16.8317 143.008 17.0925L135.443 21.4586C135.204 21.6142 135.006 21.8237 134.864 22.0701C134.722 22.3165 134.64 22.5929 134.625 22.8769V24.5305C134.625 25.0489 134.991 25.2619 135.443 25.0012L143.008 20.6318C143.246 20.4768 143.444 20.2679 143.586 20.022C143.728 19.7761 143.81 19.5002 143.825 19.2167Z" fill="#F0F0F0"/>
<path d="M34.3217 129.086V127.432C34.3217 126.911 33.956 126.698 33.5044 126.958L25.9392 131.334C25.7022 131.488 25.5047 131.696 25.3628 131.941C25.2208 132.186 25.1383 132.46 25.1219 132.743V134.396C25.1219 134.918 25.4876 135.128 25.9392 134.867L33.5044 130.501C33.7423 130.346 33.9402 130.137 34.0822 129.891C34.2242 129.645 34.3063 129.369 34.3217 129.086Z" fill="#F0F0F0"/>
<path d="M49.8719 18.444V20.0976C49.8719 20.6159 50.2376 20.829 50.6892 20.5682L58.2544 16.218C58.4923 16.0629 58.6902 15.854 58.8322 15.6081C58.9742 15.3623 59.0563 15.0864 59.0717 14.8029V13.1493C59.0717 12.6278 58.706 12.4179 58.2544 12.6786L50.6892 17.0321C50.4519 17.187 50.2544 17.3955 50.1124 17.6407C49.9705 17.8859 49.8881 18.1611 49.8719 18.444Z" fill="#F0F0F0"/>
<path d="M146.153 51.9548L139.494 55.7995C139.256 55.9545 139.058 56.1634 138.916 56.4093C138.774 56.6552 138.692 56.931 138.677 57.2146V58.8682C138.677 59.3897 139.042 59.6027 139.494 59.342L146.153 55.4942V51.9548Z" fill="#F0F0F0"/>
<path d="M18.8828 78.8417L15.8109 80.6162V84.1587L18.8828 82.3811C19.124 82.2282 19.3253 82.0201 19.4702 81.7741C19.615 81.528 19.6993 81.251 19.716 80.966V79.3124C19.716 78.7909 19.3344 78.581 18.8828 78.8417Z" fill="#F0F0F0"/>
<path d="M31.005 127.585L38.5702 123.215C38.8081 123.06 39.006 122.851 39.148 122.606C39.29 122.36 39.3721 122.084 39.3875 121.8V120.147C39.3875 119.625 39.0218 119.415 38.5702 119.676L31.005 124.042C30.7671 124.197 30.5692 124.406 30.4272 124.652C30.2852 124.898 30.2032 125.174 30.1877 125.457V127.111C30.1877 127.632 30.5534 127.836 31.005 127.585Z" fill="#F0F0F0"/>
<path d="M23.6623 115.24L16.0971 119.606C15.9926 119.67 15.8965 119.747 15.8109 119.835V123.25C15.9118 123.235 16.0089 123.2 16.0971 123.149L23.6623 118.779C23.9014 118.625 24.1006 118.416 24.2437 118.17C24.3868 117.925 24.4698 117.648 24.486 117.364V115.711C24.486 115.189 24.1139 114.979 23.6623 115.24Z" fill="#F0F0F0"/>
<path d="M59.714 25.4177V27.0713C59.714 27.5929 60.0797 27.8027 60.5313 27.542L68.0965 23.1758C68.3343 23.0208 68.5323 22.8119 68.6743 22.566C68.8163 22.3201 68.8983 22.0443 68.9137 21.7607V20.1071C68.9137 19.5856 68.548 19.3726 68.0965 19.6333L60.5313 24.0026C60.2934 24.1577 60.0954 24.3666 59.9534 24.6125C59.8114 24.8584 59.7294 25.1342 59.714 25.4177Z" fill="#F0F0F0"/>
<path d="M18.8828 52.753L15.8109 54.5275V58.0668L18.8828 56.286C19.1228 56.1334 19.3233 55.9262 19.4681 55.6814C19.6129 55.4366 19.6978 55.1611 19.716 54.8773V53.2237C19.716 52.7021 19.3344 52.4923 18.8828 52.753Z" fill="#F0F0F0"/>
<path d="M33.5044 39.9949L25.9392 44.361C25.6992 44.5176 25.5 44.7291 25.3579 44.9779C25.2158 45.2267 25.1349 45.5058 25.1219 45.792V47.4456C25.1219 47.9671 25.4876 48.177 25.9392 47.9194L33.5044 43.5501C33.7423 43.3951 33.9402 43.1861 34.0822 42.9403C34.2242 42.6944 34.3063 42.4185 34.3217 42.135V40.4814C34.3217 39.944 33.956 39.75 33.5044 39.9949Z" fill="#F0F0F0"/>
<path d="M53.1886 19.9513L45.6234 24.3175C45.3856 24.4725 45.1876 24.6814 45.0456 24.9273C44.9036 25.1732 44.8216 25.4491 44.8062 25.7326V27.3862C44.8062 27.9077 45.1719 28.1207 45.6234 27.86L53.1886 23.4907C53.4265 23.3356 53.6245 23.1267 53.7664 22.8808C53.9084 22.635 53.9905 22.3591 54.0059 22.0756V20.422C54.0059 19.9004 53.6402 19.6906 53.1886 19.9513Z" fill="#F0F0F0"/>
<path d="M50.6892 116.239L58.2544 111.869C58.4923 111.714 58.6902 111.505 58.8322 111.259C58.9742 111.014 59.0563 110.738 59.0717 110.454V108.801C59.0717 108.279 58.706 108.069 58.2544 108.33L50.6892 112.696C50.4513 112.851 50.2534 113.06 50.1114 113.306C49.9694 113.552 49.8874 113.828 49.8719 114.111V115.752C49.8719 116.286 50.244 116.499 50.6892 116.239Z" fill="#F0F0F0"/>
<path d="M63.848 103.369V101.715C63.848 101.194 63.4824 100.984 63.0308 101.245L55.4687 105.611C55.2309 105.766 55.0329 105.975 54.8909 106.221C54.7489 106.467 54.6669 106.743 54.6515 107.026V108.68C54.6515 109.201 55.0204 109.414 55.4687 109.154L63.034 104.784C63.2712 104.629 63.4686 104.42 63.61 104.174C63.7514 103.928 63.833 103.652 63.848 103.369Z" fill="#F0F0F0"/>
<path d="M53.1886 46.04L45.6234 50.4094C45.3839 50.565 45.1849 50.7753 45.0428 51.023C44.9007 51.2707 44.8196 51.5487 44.8062 51.834V53.4876C44.8062 54.0091 45.1719 54.219 45.6234 53.9582L53.1886 49.5921C53.4267 49.4366 53.6248 49.2271 53.7668 48.9807C53.9088 48.7342 53.9907 48.4578 54.0059 48.1738V46.5202C54.0059 45.9923 53.6402 45.792 53.1886 46.04Z" fill="#F0F0F0"/>
<path d="M63.0308 26.9187L55.4687 31.288C55.2309 31.443 55.0329 31.652 54.8909 31.8978C54.7489 32.1437 54.6669 32.4196 54.6515 32.7031V34.344C54.6515 34.8655 55.0204 35.0754 55.4687 34.8146L63.034 30.4485C63.2721 30.2929 63.4702 30.0835 63.6121 29.837C63.7541 29.5906 63.8361 29.3142 63.8512 29.0302V27.3766C63.848 26.871 63.4824 26.6579 63.0308 26.9187Z" fill="#F0F0F0"/>
<path d="M30.1877 81.974V83.634C30.1877 84.1555 30.5534 84.3686 31.005 84.1078L38.5702 79.7385C38.8081 79.5835 39.006 79.3745 39.148 79.1287C39.29 78.8828 39.3721 78.6069 39.3875 78.3234V76.6698C39.3875 76.1483 39.0218 75.9384 38.5702 76.1992L31.005 80.5589C30.7671 80.714 30.5692 80.9229 30.4272 81.1688C30.2852 81.4146 30.2032 81.6905 30.1877 81.974Z" fill="#F0F0F0"/>
<path d="M135.859 38.2013L143.418 33.8352C143.656 33.68 143.853 33.471 143.995 33.2252C144.137 32.9793 144.22 32.7036 144.235 32.4201V30.7665C144.235 30.245 143.87 30.0319 143.418 30.2927L135.859 34.662C135.621 34.817 135.423 35.026 135.281 35.2718C135.139 35.5177 135.057 35.7936 135.042 36.0771V37.7307C135.042 38.2522 135.408 38.478 135.859 38.2013Z" fill="#F0F0F0"/>
<path d="M31.005 118.887L38.5702 114.518C38.8081 114.363 39.006 114.154 39.148 113.908C39.29 113.662 39.3721 113.387 39.3875 113.103V111.449C39.3875 110.928 39.0218 110.718 38.5702 110.979L31.005 115.345C30.7673 115.5 30.5695 115.709 30.4275 115.955C30.2855 116.201 30.2034 116.477 30.1877 116.76V118.417C30.1877 118.932 30.5534 119.148 31.005 118.887Z" fill="#F0F0F0"/>
<path d="M48.4123 87.9111L40.847 92.2804C40.6092 92.4355 40.4112 92.6444 40.2692 92.8902C40.1272 93.1361 40.0452 93.412 40.0298 93.6955V95.3491C40.0298 95.8706 40.3955 96.0805 40.847 95.8198L48.4123 91.4536C48.6501 91.2986 48.8481 91.0896 48.9901 90.8438C49.1321 90.5979 49.2141 90.322 49.2295 90.0385V88.3849C49.2295 87.8634 48.8638 87.6503 48.4123 87.9111Z" fill="#F0F0F0"/>
<path d="M59.714 64.9547V66.6083C59.714 67.1298 60.0797 67.3428 60.5313 67.0821L68.0965 62.7128C68.3343 62.5577 68.5323 62.3488 68.6743 62.1029C68.8163 61.8571 68.8983 61.5812 68.9137 61.2977V59.6441C68.9137 59.1225 68.548 58.9127 68.0965 59.1734L60.5313 63.5396C60.2934 63.6946 60.0954 63.9035 59.9534 64.1494C59.8114 64.3953 59.7294 64.6712 59.714 64.9547Z" fill="#F0F0F0"/>
<path d="M103.684 40.4178V42.0714C103.684 42.5929 104.05 42.8028 104.501 42.542L112.066 38.1759C112.305 38.0214 112.504 37.8127 112.647 37.5668C112.79 37.321 112.874 37.0448 112.89 36.7608V35.1072C112.89 34.5857 112.524 34.3726 112.073 34.6334L104.507 39.0027C104.268 39.157 104.069 39.3657 103.926 39.6116C103.783 39.8575 103.7 40.1337 103.684 40.4178Z" fill="#F0F0F0"/>
<path d="M123.215 13.5691V15.2227C123.215 15.7442 123.581 15.9541 124.033 15.6933L131.598 11.3272C131.836 11.1721 132.034 10.9632 132.176 10.7173C132.318 10.4714 132.4 10.1956 132.415 9.91206V8.268C132.415 7.74648 132.049 7.53342 131.598 7.79418L124.02 12.154C123.784 12.3104 123.589 12.52 123.449 12.7657C123.31 13.0115 123.229 13.2867 123.215 13.5691Z" fill="#F0F0F0"/>
<path d="M105.01 53.5703V51.9167C105.01 51.3952 104.644 51.1821 104.193 51.4429L96.6274 55.8122C96.3896 55.9672 96.1916 56.1762 96.0496 56.422C95.9076 56.6679 95.8256 56.9438 95.8102 57.2273V58.8809C95.8102 59.4024 96.1759 59.6123 96.6274 59.3515L104.193 54.9854C104.43 54.8302 104.628 54.6212 104.77 54.3753C104.912 54.1295 104.994 53.8537 105.01 53.5703Z" fill="#F0F0F0"/>
<path d="M114.852 47.8972V46.2404C114.852 45.7221 114.486 45.509 114.035 45.7698L106.469 50.1391C106.232 50.2941 106.034 50.503 105.892 50.7489C105.75 50.9948 105.668 51.2707 105.652 51.5542V53.2078C105.652 53.7293 106.018 53.9392 106.469 53.6784L114.035 49.3123C114.272 49.157 114.47 48.9481 114.612 48.7022C114.754 48.4564 114.836 48.1806 114.852 47.8972Z" fill="#F0F0F0"/>
<path d="M82.7182 42.5898L75.153 46.9559C74.9151 47.1109 74.7171 47.3199 74.5751 47.5657C74.4331 47.8116 74.3511 48.0875 74.3357 48.371V50.0246C74.3357 50.5461 74.7014 50.7592 75.153 50.4984L82.7182 46.1291C82.956 45.9741 83.154 45.7651 83.296 45.5193C83.438 45.2734 83.52 44.9975 83.5354 44.714V43.0604C83.5354 42.5389 83.1697 42.329 82.7182 42.5898Z" fill="#F0F0F0"/>
<path d="M63.848 77.274V75.6204C63.848 75.0989 63.4824 74.8858 63.0308 75.1466L55.4687 79.5159C55.2309 79.6709 55.0329 79.8799 54.8909 80.1257C54.7489 80.3716 54.6669 80.6475 54.6515 80.931V82.5846C54.6515 83.1061 55.0204 83.316 55.4687 83.0552L63.034 78.6891C63.2711 78.5335 63.4683 78.3244 63.6097 78.0786C63.7511 77.8328 63.8327 77.5572 63.848 77.274Z" fill="#F0F0F0"/>
<path d="M129.137 69.1714L136.702 64.802C136.939 64.6466 137.137 64.4376 137.279 64.1918C137.421 63.946 137.503 63.6703 137.519 63.3869V61.7333C137.519 61.2118 137.15 61.0019 136.702 61.2595L129.137 65.6288C128.899 65.7839 128.701 65.9928 128.559 66.2387C128.417 66.4846 128.335 66.7604 128.319 67.0439V68.688C128.319 69.2191 128.685 69.4289 129.137 69.1714Z" fill="#F0F0F0"/>
<path d="M132.437 72.0111L124.872 76.3804C124.634 76.5355 124.436 76.7444 124.294 76.9903C124.152 77.2361 124.07 77.512 124.055 77.7955V79.4491C124.055 79.9706 124.421 80.1805 124.872 79.9198L132.437 75.5536C132.675 75.3984 132.873 75.1894 133.015 74.9436C133.157 74.6978 133.239 74.422 133.255 74.1385V72.4849C133.242 71.9634 132.889 71.7503 132.437 72.0111Z" fill="#F0F0F0"/>
<path d="M79.3982 89.3739V87.7203C79.3982 87.1988 79.0325 86.9857 78.581 87.2465L71.0157 91.6158C70.7779 91.7708 70.5799 91.9798 70.4379 92.2256C70.2959 92.4715 70.2139 92.7474 70.1985 93.0309V94.6845C70.1985 95.206 70.5642 95.4159 71.0157 95.1551L78.581 90.789C78.8188 90.634 79.0168 90.425 79.1588 90.1792C79.3008 89.9333 79.3828 89.6574 79.3982 89.3739Z" fill="#F0F0F0"/>
<path d="M73.6933 115.087V113.434C73.6933 112.915 73.3276 112.702 72.876 112.963L65.3108 117.342C65.0729 117.497 64.875 117.706 64.733 117.952C64.591 118.198 64.5089 118.474 64.4935 118.757V120.411C64.4935 120.932 64.8592 121.142 65.3108 120.881L72.876 116.515C73.1154 116.359 73.3142 116.148 73.4563 115.9C73.5984 115.651 73.6796 115.373 73.6933 115.087Z" fill="#F0F0F0"/>
<path d="M40.0298 24.1235V25.7771C40.0298 26.2954 40.3955 26.5085 40.847 26.2477L48.4123 21.8784C48.6501 21.7234 48.8481 21.5144 48.9901 21.2685C49.1321 21.0227 49.2141 20.7468 49.2295 20.4633V18.8097C49.2295 18.2882 48.8638 18.0783 48.4123 18.339L40.847 22.7052C40.6089 22.8607 40.4109 23.0702 40.2689 23.3166C40.1269 23.5631 40.045 23.8395 40.0298 24.1235Z" fill="#F0F0F0"/>
<path d="M54.0059 126.437V124.783C54.0059 124.262 53.6402 124.049 53.1886 124.309L45.6234 128.679C45.3856 128.834 45.1876 129.043 45.0456 129.289C44.9036 129.534 44.8216 129.81 44.8062 130.094V131.747C44.8062 132.269 45.1719 132.479 45.6234 132.218L53.1886 127.852C53.4263 127.697 53.6241 127.488 53.7661 127.242C53.9081 126.996 53.9902 126.72 54.0059 126.437Z" fill="#F0F0F0"/>
<path d="M18.8828 139.716L15.8109 141.51V145.049L18.8828 143.275C19.1257 143.12 19.3281 142.909 19.473 142.66C19.6179 142.412 19.7012 142.132 19.716 141.844V140.19C19.716 139.669 19.3344 139.459 18.8828 139.716Z" fill="#F0F0F0"/>
<path d="M23.6623 54.378L16.0971 58.7314C15.9912 58.7935 15.8948 58.8707 15.8109 58.9604V62.3757C15.9124 62.3602 16.0097 62.3245 16.0971 62.2708L23.6623 57.9046C23.9014 57.7503 24.1006 57.5417 24.2437 57.2958C24.3868 57.0499 24.4698 56.7736 24.486 56.4895V54.8359C24.486 54.3144 24.1139 54.1014 23.6623 54.378Z" fill="#F0F0F0"/>
<path d="M60.5313 110.565L68.0965 106.212C68.3343 106.057 68.5323 105.848 68.6743 105.602C68.8163 105.356 68.8983 105.08 68.9137 104.797V103.143C68.9137 102.622 68.548 102.412 68.0965 102.673L60.5313 107.039C60.2934 107.194 60.0954 107.403 59.9534 107.649C59.8114 107.895 59.7294 108.17 59.714 108.454V110.108C59.714 110.613 60.0797 110.826 60.5313 110.565Z" fill="#F0F0F0"/>
<path d="M142.279 45.6266L134.714 49.9928C134.476 50.1478 134.278 50.3568 134.136 50.6026C133.994 50.8485 133.912 51.1244 133.897 51.4079V53.0615C133.897 53.583 134.263 53.7961 134.714 53.5353L142.279 49.166C142.517 49.0109 142.715 48.802 142.857 48.5561C142.999 48.3103 143.081 48.0344 143.097 47.7509V46.11C143.1 45.5758 142.731 45.3659 142.279 45.6266Z" fill="#F0F0F0"/>
<path d="M72.876 21.2456L65.3108 25.6149C65.0729 25.7699 64.875 25.9789 64.733 26.2247C64.591 26.4706 64.5089 26.7465 64.4935 27.03V28.6836C64.4935 29.2051 64.8592 29.415 65.3108 29.1542L72.876 24.804C73.1141 24.6485 73.3122 24.439 73.4542 24.1926C73.5962 23.9461 73.6781 23.6697 73.6933 23.3857V21.7321C73.6933 21.1979 73.3276 20.988 72.876 21.2456Z" fill="#F0F0F0"/>
<path d="M109.805 10.7675L102.24 15.1368C102.002 15.2918 101.804 15.5008 101.662 15.7466C101.52 15.9925 101.438 16.2684 101.423 16.5519V18.2055C101.423 18.727 101.789 18.9369 102.24 18.6761L109.805 14.31C110.043 14.155 110.241 13.946 110.383 13.7002C110.525 13.4543 110.607 13.1784 110.623 12.8949V11.2413C110.623 10.7198 110.257 10.5099 109.805 10.7675Z" fill="#F0F0F0"/>
<path d="M35.7814 68.3191L43.3466 63.9498C43.5844 63.7948 43.7824 63.5858 43.9244 63.34C44.0664 63.0941 44.1484 62.8182 44.1639 62.5347V60.8811C44.1639 60.3596 43.7982 60.1497 43.3466 60.4105L35.7814 64.7766C35.5437 64.9318 35.3459 65.1408 35.2039 65.3866C35.0619 65.6325 34.9798 65.9082 34.9641 66.1917V67.8453C34.98 68.37 35.3298 68.5799 35.7814 68.3191Z" fill="#F0F0F0"/>
<path d="M73.6933 88.9987V87.3451C73.6933 86.8235 73.3276 86.6137 72.876 86.8744L65.3108 91.2406C65.0729 91.3956 64.875 91.6045 64.733 91.8504C64.591 92.0963 64.5089 92.3721 64.4935 92.6557V94.3093C64.4935 94.8308 64.8592 95.0438 65.3108 94.7831L72.876 90.4138C73.1139 90.2587 73.3118 90.0498 73.4538 89.8039C73.5958 89.558 73.6779 89.2822 73.6933 88.9987Z" fill="#F0F0F0"/>
<path d="M87.9397 96.7897L95.5049 92.4235C95.7426 92.2683 95.9404 92.0593 96.0824 91.8135C96.2244 91.5676 96.3065 91.2919 96.3222 91.0084V89.358C96.3222 88.8365 95.9565 88.6234 95.5049 88.8842L87.9397 93.2535C87.7018 93.4085 87.5039 93.6175 87.3619 93.8633C87.2199 94.1092 87.1379 94.3851 87.1224 94.6686V96.3222C87.132 96.8405 87.4881 97.0504 87.9397 96.7897Z" fill="#F0F0F0"/>
<path d="M101.102 83.9202V82.2666C101.102 81.7483 100.736 81.5352 100.284 81.796L92.7192 86.178C92.4814 86.333 92.2834 86.542 92.1414 86.7879C91.9994 87.0337 91.9174 87.3096 91.902 87.5931V89.2467C91.902 89.7682 92.2677 89.9781 92.7192 89.7173L100.284 85.3512C100.524 85.1944 100.723 84.9829 100.865 84.7341C101.008 84.4854 101.089 84.2064 101.102 83.9202Z" fill="#F0F0F0"/>
<path d="M112.785 70.278V68.6244C112.785 68.1029 112.419 67.8898 111.968 68.1506L104.402 72.5199C104.165 72.6749 103.967 72.8839 103.825 73.1297C103.683 73.3756 103.601 73.6515 103.585 73.935V75.5886C103.585 76.1101 103.951 76.32 104.402 76.0592L111.968 71.6931C112.205 71.5379 112.403 71.3289 112.545 71.083C112.687 70.8372 112.769 70.5614 112.785 70.278Z" fill="#F0F0F0"/>
<path d="M97.7849 91.1165L105.35 86.7504C105.587 86.5946 105.785 86.3855 105.927 86.1398C106.069 85.8941 106.151 85.6186 106.167 85.3353V83.6785C106.167 83.1602 105.799 82.9471 105.35 83.2079L97.7849 87.5772C97.5471 87.7322 97.3491 87.9412 97.2071 88.187C97.0651 88.4329 96.9831 88.7088 96.9677 88.9923V90.6459C96.9677 91.1674 97.3334 91.3773 97.7849 91.1165Z" fill="#F0F0F0"/>
<path d="M107.077 69.9028V68.2491C107.077 67.7276 106.711 67.5178 106.26 67.7753L98.6944 72.1446C98.4566 72.2997 98.2586 72.5086 98.1166 72.7545C97.9746 73.0004 97.8926 73.2762 97.8772 73.5598V75.2133C97.8772 75.7349 98.2429 75.9447 98.6944 75.684L106.26 71.3179C106.498 71.1628 106.695 70.9539 106.837 70.708C106.979 70.4621 107.062 70.1863 107.077 69.9028Z" fill="#F0F0F0"/>
<path d="M101.693 60.7634L109.258 56.3973C109.496 56.2415 109.693 56.0324 109.835 55.7867C109.977 55.541 110.059 55.2655 110.076 54.9822V53.3286C110.076 52.8071 109.707 52.594 109.258 52.8548L101.693 57.24C101.455 57.395 101.257 57.604 101.115 57.8498C100.973 58.0957 100.891 58.3716 100.876 58.6551V60.3087C100.876 60.8143 101.242 61.0242 101.693 60.7634Z" fill="#F0F0F0"/>
<path d="M83.5354 65.9309V64.2773C83.5354 63.759 83.1697 63.5459 82.7182 63.8067L75.153 68.176C74.9151 68.331 74.7171 68.54 74.5751 68.7858C74.4331 69.0317 74.3511 69.3076 74.3357 69.5911V71.232C74.3357 71.7535 74.7014 71.9634 75.153 71.7026L82.7182 67.3365C82.9546 67.1822 83.1517 66.9747 83.2936 66.7307C83.4355 66.4866 83.5183 66.2127 83.5354 65.9309Z" fill="#F0F0F0"/>
<path d="M18.5266 101.852L15.8109 103.42V106.962L18.5266 105.392C18.7632 105.237 18.9604 105.03 19.1024 104.786C19.2443 104.542 19.327 104.268 19.3439 103.986V102.332C19.3439 101.801 18.9782 101.591 18.5266 101.852Z" fill="#F0F0F0"/>
<path d="M24.0185 125.104L16.4533 129.474C16.1755 129.656 15.9549 129.912 15.8173 130.215V133.016C15.9086 133.086 16.0204 133.124 16.1353 133.124C16.2502 133.124 16.3619 133.086 16.4533 133.016L24.0185 128.65C24.2563 128.495 24.4543 128.286 24.5963 128.04C24.7383 127.794 24.8203 127.518 24.8357 127.235V125.581C24.8357 125.057 24.4859 124.844 24.0185 125.104Z" fill="#F0F0F0"/>
<path d="M30.1877 47.188V48.8416C30.1877 49.3631 30.5534 49.5762 31.005 49.3154L38.5702 44.9461C38.8081 44.7911 39.006 44.5821 39.148 44.3363C39.29 44.0904 39.3721 43.8145 39.3875 43.531V41.8774C39.3875 41.3559 39.0218 41.146 38.5702 41.4068L31.005 45.7729C30.7671 45.9279 30.5692 46.1369 30.4272 46.3827C30.2852 46.6286 30.2032 46.9045 30.1877 47.188Z" fill="#F0F0F0"/>
<path d="M146.153 69.2063L139.494 73.0541C139.256 73.2092 139.058 73.4181 138.916 73.664C138.774 73.9098 138.692 74.1857 138.677 74.4692V76.1228C138.677 76.6443 139.042 76.8542 139.494 76.5935L146.153 72.7488V69.2063Z" fill="#F0F0F0"/>
<path d="M16.4788 150.592C16.4489 150.592 16.4195 150.584 16.3938 150.569C16.368 150.554 16.3468 150.532 16.3325 150.506C16.3107 150.467 16.3051 150.422 16.3171 150.379C16.329 150.336 16.3574 150.299 16.3961 150.277L146.007 75.4455C146.045 75.4232 146.091 75.4171 146.135 75.4288C146.178 75.4404 146.215 75.4687 146.237 75.5075C146.259 75.5463 146.265 75.5924 146.254 75.6356C146.242 75.6789 146.214 75.7157 146.175 75.7381L16.5646 150.57C16.5386 150.585 16.5089 150.593 16.4788 150.592Z" fill="#E0E0E0"/>
<path opacity="0.1" d="M81.1886 12.5864C81.1886 12.5387 81.1886 12.491 81.1663 12.4465C81.1441 12.402 81.1663 12.3829 81.1441 12.3511C81.1451 12.3437 81.1451 12.3362 81.1441 12.3289C81.1386 12.307 81.1311 12.2857 81.1218 12.2653C81.1236 12.2537 81.1236 12.2419 81.1218 12.2303C81.1131 12.2061 81.1025 12.1827 81.09 12.1603C81.0665 12.11 81.0366 12.063 81.001 12.0204C80.9878 12.002 80.9729 11.985 80.9564 11.9695C80.9419 11.9512 80.9248 11.9351 80.9056 11.9218C80.8788 11.8992 80.8501 11.8789 80.8197 11.8614L80.7688 11.8328C80.616 11.7752 80.4514 11.7561 80.2894 11.7772C80.1275 11.7983 79.9732 11.8588 79.8403 11.9536L32.2834 39.3748C31.8729 39.63 31.5355 39.9872 31.3039 40.4114C31.2688 40.4684 31.238 40.528 31.2117 40.5895C31.1863 40.6372 31.164 40.6849 31.1417 40.7326C31.113 40.7927 31.0876 40.8543 31.0654 40.9171C31.04 40.9807 31.0209 41.0443 31.0018 41.1079C30.9827 41.1715 30.9764 41.2001 30.9668 41.2478C30.964 41.2582 30.964 41.2692 30.9668 41.2796C30.9668 41.3209 30.9478 41.3623 30.9414 41.4036C30.9399 41.4311 30.9399 41.4587 30.9414 41.4863C30.9414 41.5244 30.9414 41.5594 30.9414 41.5976C30.9383 41.6569 30.9383 41.7163 30.9414 41.7757V125.41C30.9414 125.461 30.9414 125.505 30.9414 125.553C30.9414 125.6 30.9414 125.635 30.9414 125.677C30.9476 125.721 30.9571 125.764 30.97 125.807L30.9891 125.871C30.9978 125.899 31.0084 125.927 31.0209 125.953C31.0593 126.045 31.1155 126.128 31.1863 126.198L31.2371 126.249L31.2721 126.271L31.323 126.3C31.3793 126.33 31.4391 126.354 31.5011 126.37H31.5742H31.6664C31.8916 126.364 32.1111 126.298 32.3024 126.179L79.818 98.7899C80.2217 98.5269 80.5576 98.1725 80.7985 97.7553C81.0394 97.3381 81.1785 96.87 81.2045 96.389V12.755C81.1949 12.6914 81.1918 12.6373 81.1886 12.5864Z" fill="black"/>
<path d="M84.1714 14.2846C84.1714 14.2369 84.1714 14.1892 84.1492 14.1446C84.1269 14.1001 84.1492 14.081 84.1269 14.0492C84.1279 14.0419 84.1279 14.0344 84.1269 14.027C84.1214 14.0052 84.114 13.9839 84.1046 13.9634C84.1064 13.9518 84.1064 13.94 84.1046 13.9284C84.096 13.9042 84.0853 13.8809 84.0728 13.8584C84.0494 13.8081 84.0195 13.7611 83.9838 13.7185C83.9707 13.7001 83.9558 13.6831 83.9393 13.6676C83.9247 13.6493 83.9076 13.6333 83.8884 13.6199C83.8616 13.5973 83.8329 13.5771 83.8025 13.5595L83.7517 13.5309C83.4559 13.356 82.7118 12.9267 82.4956 12.8027C82.34 12.7304 82.1678 12.7014 81.9971 12.7187C81.8264 12.7361 81.6635 12.7991 81.5257 12.9013L33.9688 40.3224C33.5581 40.5785 33.2199 40.9354 32.9861 41.3591C32.9224 41.4664 32.8661 41.578 32.8176 41.693C32.7699 41.8075 32.7254 41.9219 32.6904 42.0364L32.6427 42.2113C32.6042 42.3793 32.5839 42.551 32.5823 42.7233V126.357C32.5823 126.399 32.5823 126.44 32.5823 126.478C32.5823 126.516 32.5823 126.554 32.5823 126.589L32.6014 126.694C32.6065 126.728 32.615 126.761 32.6268 126.793C32.6528 126.872 32.688 126.948 32.7317 127.019C32.7734 127.085 32.8261 127.143 32.8876 127.19C32.913 127.212 32.9407 127.232 32.9702 127.248L33.2087 127.384L33.6285 127.629L34.061 127.877L34.1818 127.947L34.2168 127.97L34.2677 127.998C34.324 128.029 34.3838 128.052 34.4458 128.068H34.5189H34.6111C34.8363 128.062 35.0557 127.996 35.2471 127.877L82.7913 100.488C83.195 100.225 83.5309 99.8706 83.7718 99.4534C84.0127 99.0363 84.1518 98.5681 84.1778 98.0871V14.4531C84.1778 14.3895 84.1746 14.3354 84.1714 14.2846ZM41.4895 42.4021C41.4877 42.3693 41.4877 42.3364 41.4895 42.3035C41.4895 42.2622 41.4895 42.2209 41.4895 42.1763C41.5152 41.6883 41.6559 41.2132 41.9002 40.7899C42.1444 40.3666 42.4853 40.007 42.895 39.7405L42.9936 39.6896C43.0694 39.6525 43.1481 39.6217 43.2289 39.5974H43.2734C43.309 39.7301 43.3271 39.867 43.3275 40.0044C43.3005 40.4917 43.1593 40.9659 42.9151 41.3885C42.6709 41.8111 42.3307 42.1704 41.9219 42.4371C41.8022 42.5065 41.6739 42.5599 41.5403 42.5961C41.5174 42.5332 41.5003 42.4682 41.4895 42.4021ZM73.1623 23.8818C73.1881 23.3941 73.3286 22.9194 73.5722 22.4962C73.8159 22.073 74.1559 21.7132 74.5646 21.4459C74.6046 21.4222 74.6461 21.401 74.6887 21.3823L74.7586 21.3505L74.854 21.3155L74.9462 21.2933C74.9808 21.424 74.9979 21.5587 74.9971 21.694C74.9714 22.182 74.8307 22.6571 74.5864 23.0804C74.3421 23.5038 74.0012 23.8633 73.5916 24.1298C73.4738 24.2003 73.3463 24.2528 73.2131 24.2857C73.1786 24.1538 73.1615 24.0181 73.1623 23.8818Z" fill="#2D334A"/>
<path d="M33.8797 43.477V127.111C33.8666 127.266 33.8884 127.422 33.9434 127.568C33.9984 127.714 34.0853 127.846 34.1977 127.954L32.9798 127.251C32.8373 127.153 32.7242 127.018 32.6525 126.86C32.5808 126.703 32.5532 126.529 32.5728 126.357V42.7233C32.5898 42.2413 32.73 41.7716 32.9798 41.3591L34.2804 42.1096C34.0315 42.5233 33.8935 42.9943 33.8797 43.477Z" fill="#2D334A"/>
<path d="M84.1715 14.2846C84.1715 14.2369 84.1715 14.1892 84.1492 14.1446C84.127 14.1001 84.1492 14.081 84.127 14.0492C84.128 14.0419 84.128 14.0344 84.127 14.027C84.1215 14.0052 84.114 13.9839 84.1047 13.9634C84.1065 13.9518 84.1065 13.94 84.1047 13.9284C84.0961 13.9042 84.0854 13.8808 84.0729 13.8584C84.0495 13.8081 84.0195 13.7611 83.9839 13.7185C83.9708 13.7001 83.9558 13.6831 83.9393 13.6676C83.9248 13.6493 83.9077 13.6333 83.8885 13.6199C83.8617 13.5973 83.833 13.5771 83.8026 13.5595L83.7517 13.5309C83.5989 13.4733 83.4343 13.4542 83.2723 13.4753C83.1104 13.4964 82.9562 13.557 82.8232 13.6517L35.2663 41.0729C34.8558 41.3282 34.5184 41.6853 34.2868 42.1096C34.2517 42.1666 34.2209 42.2261 34.1946 42.2876C34.1692 42.3353 34.1469 42.383 34.1246 42.4307C34.0959 42.4908 34.0705 42.5524 34.0483 42.6152C34.0229 42.6788 34.0038 42.7424 33.9847 42.806C33.9656 42.8696 33.9593 42.8982 33.9497 42.9459C33.9469 42.9563 33.9469 42.9673 33.9497 42.9777C33.9497 43.019 33.9307 43.0604 33.9243 43.1017C33.9228 43.1293 33.9228 43.1569 33.9243 43.1844C33.9243 43.2226 33.9243 43.2575 33.9243 43.2957C33.9212 43.355 33.9212 43.4145 33.9243 43.4738V127.108C33.9243 127.159 33.9243 127.203 33.9243 127.251C33.9243 127.299 33.9243 127.334 33.9243 127.375C33.9305 127.419 33.94 127.463 33.9529 127.505L33.972 127.569C33.9807 127.597 33.9913 127.625 34.0038 127.652C34.0422 127.743 34.0984 127.827 34.1692 127.896L34.22 127.947L34.255 127.97L34.3059 127.998C34.3622 128.029 34.422 128.052 34.484 128.068H34.5571H34.6493C34.8745 128.062 35.094 127.996 35.2853 127.877L82.7914 100.488C83.195 100.225 83.531 99.8706 83.7719 99.4534C84.0128 99.0363 84.1519 98.5681 84.1778 98.0871V14.4531C84.1778 14.3895 84.1747 14.3354 84.1715 14.2846ZM41.4895 42.4021C41.4878 42.3693 41.4878 42.3364 41.4895 42.3035C41.4895 42.2622 41.4895 42.2209 41.4895 42.1763C41.5152 41.6883 41.656 41.2132 41.9002 40.7899C42.1445 40.3665 42.4854 40.007 42.8951 39.7405L42.9937 39.6896C43.0695 39.6525 43.1482 39.6217 43.229 39.5974H43.2735C43.309 39.7301 43.3272 39.867 43.3276 40.0044C43.3006 40.4917 43.1593 40.9659 42.9152 41.3885C42.671 41.8111 42.3308 42.1703 41.922 42.4371C41.8023 42.5065 41.674 42.5599 41.5404 42.5961C41.5174 42.5332 41.5004 42.4682 41.4895 42.4021ZM73.1623 23.8818C73.1882 23.3941 73.3286 22.9194 73.5723 22.4962C73.816 22.073 74.156 21.7132 74.5647 21.4459C74.6047 21.4222 74.6461 21.401 74.6887 21.3823L74.7587 21.3505L74.8541 21.3155L74.9463 21.2933C74.9809 21.424 74.998 21.5587 74.9972 21.694C74.9715 22.182 74.8307 22.6571 74.5865 23.0804C74.3422 23.5038 74.0013 23.8633 73.5916 24.1298C73.4739 24.2003 73.3464 24.2528 73.2132 24.2857C73.1787 24.1538 73.1616 24.0181 73.1623 23.8818Z" fill="#272343"/>
<path d="M34.6907 111.86L83.3669 83.758V25.386L34.6907 53.4876V111.86Z" fill="white"/>
<path d="M42.9777 39.6896C43.0528 39.6511 43.1317 39.6202 43.213 39.5974C43.1322 39.6217 43.0535 39.6525 42.9777 39.6896Z" fill="#263238"/>
<path d="M44.2847 40.5545C44.2577 41.0419 44.1164 41.516 43.8722 41.9387C43.6281 42.3613 43.2878 42.7205 42.8791 42.9872C42.2431 43.3593 41.6898 43.1717 41.5244 42.5834C41.658 42.5472 41.7863 42.4938 41.906 42.4244C42.3148 42.1576 42.655 41.7984 42.8992 41.3758C43.1433 40.9532 43.2846 40.479 43.3116 39.9917C43.3112 39.8542 43.2931 39.7174 43.2575 39.5846H43.213C43.8267 39.432 44.2847 39.7913 44.2847 40.5545Z" fill="#2D334A"/>
<path d="M75.9702 22.26C75.9445 22.7481 75.8037 23.2231 75.5595 23.6465C75.3152 24.0698 74.9743 24.4294 74.5646 24.6959C73.9286 25.0679 73.3785 24.8771 73.2131 24.2888C73.3463 24.2559 73.4738 24.2034 73.5916 24.133C74.0012 23.8665 74.3421 23.5069 74.5864 23.0836C74.8307 22.6603 74.9714 22.1852 74.9971 21.6971C74.9979 21.5619 74.9808 21.4272 74.9462 21.2965C75.5377 21.1438 75.9702 21.5127 75.9702 22.26Z" fill="#2D334A"/>
<path d="M41.1397 67.098C41.0943 67.0984 41.0493 67.0899 41.0073 67.0728C40.9653 67.0557 40.927 67.0305 40.8948 66.9985C40.8626 66.9666 40.837 66.9286 40.8195 66.8867C40.8021 66.8449 40.7931 66.7999 40.7931 66.7546V55.1126C40.7931 55.0517 40.8094 54.992 40.8401 54.9395C40.8708 54.8869 40.915 54.8435 40.968 54.8137L49.713 49.7638C49.7522 49.7413 49.7956 49.7267 49.8405 49.7209C49.8854 49.7151 49.931 49.7181 49.9747 49.73C50.0184 49.7418 50.0593 49.7621 50.0952 49.7897C50.131 49.8173 50.1611 49.8518 50.1836 49.891C50.2062 49.9303 50.2208 49.9736 50.2266 50.0185C50.2324 50.0634 50.2293 50.109 50.2175 50.1527C50.2057 50.1964 50.1854 50.2373 50.1578 50.2732C50.1301 50.3091 50.0957 50.3391 50.0564 50.3617L41.4704 55.3097V66.7577C41.4697 66.8461 41.4349 66.9308 41.3733 66.9942C41.3117 67.0576 41.228 67.0947 41.1397 67.098Z" fill="#E7AA07"/>
<path d="M41.1397 103.118C41.0791 103.119 41.0195 103.102 40.968 103.07C40.915 103.04 40.8708 102.997 40.8401 102.944C40.8094 102.892 40.7931 102.832 40.7931 102.771V91.1356C40.8013 91.0498 40.8412 90.9702 40.905 90.9122C40.9688 90.8543 41.0519 90.8221 41.1381 90.8221C41.2243 90.8221 41.3074 90.8543 41.3712 90.9122C41.435 90.9702 41.4749 91.0498 41.4832 91.1356V102.173L49.713 97.4256C49.752 97.4028 49.7952 97.3879 49.84 97.3817C49.8848 97.3756 49.9303 97.3784 49.9741 97.3899C50.0178 97.4014 50.0588 97.4215 50.0948 97.4489C50.1307 97.4763 50.1609 97.5106 50.1836 97.5497C50.2064 97.5891 50.2212 97.6327 50.2272 97.6779C50.2331 97.723 50.2301 97.7689 50.2183 97.813C50.2065 97.857 50.1861 97.8982 50.1583 97.9343C50.1305 97.9705 50.0959 98.0008 50.0564 98.0235L41.3114 103.07C41.2599 103.102 41.2003 103.119 41.1397 103.118Z" fill="#E7AA07"/>
<path d="M76.9179 46.428C76.8268 46.428 76.7394 46.3918 76.675 46.3274C76.6106 46.263 76.5744 46.1756 76.5744 46.0845V35.0531L68.3478 39.8009C68.2685 39.8464 68.1744 39.8586 68.0861 39.8347C67.9978 39.8109 67.9227 39.7529 67.8771 39.6737C67.8316 39.5944 67.8194 39.5003 67.8432 39.412C67.8671 39.3237 67.925 39.2486 68.0043 39.203L76.7461 34.1564C76.7984 34.1265 76.8576 34.1108 76.9179 34.1108C76.9781 34.1108 77.0373 34.1265 77.0896 34.1564C77.1426 34.1862 77.1867 34.2296 77.2175 34.2822C77.2482 34.3347 77.2644 34.3944 77.2645 34.4553V46.0909C77.2628 46.1814 77.2254 46.2676 77.1605 46.3308C77.0956 46.3939 77.0084 46.4288 76.9179 46.428Z" fill="#E7AA07"/>
<path d="M68.176 87.5072C68.1154 87.5078 68.0558 87.4922 68.0032 87.462C67.9507 87.4318 67.9071 87.3882 67.8771 87.3355C67.8544 87.2963 67.8396 87.253 67.8337 87.208C67.8278 87.1631 67.8309 87.1175 67.8427 87.0737C67.8545 87.03 67.8749 86.989 67.9026 86.9531C67.9304 86.9173 67.9649 86.8873 68.0043 86.8649L76.5903 81.9168V70.4688C76.5985 70.383 76.6385 70.3034 76.7023 70.2454C76.766 70.1874 76.8491 70.1553 76.9353 70.1553C77.0215 70.1553 77.1046 70.1874 77.1684 70.2454C77.2322 70.3034 77.2721 70.383 77.2804 70.4688V82.1044C77.2803 82.1653 77.2641 82.225 77.2333 82.2775C77.2026 82.3301 77.1585 82.3735 77.1055 82.4033L68.3477 87.45C68.2961 87.4829 68.2371 87.5026 68.176 87.5072Z" fill="#E7AA07"/>
<path d="M71.55 74.8763L73.8968 73.5216V67.2188C73.8746 67.2188 73.8619 67.2188 73.8523 67.2188L71.6549 68.4908C71.5436 68.5544 71.5373 68.6467 71.5373 68.758C71.5373 69.6802 71.5373 70.6023 71.5373 71.5277C71.5373 71.6772 71.5723 71.7122 71.6867 71.6422C71.9698 71.4673 72.256 71.3242 72.5422 71.143C72.6725 71.0603 72.7298 71.073 72.7266 71.267C72.7266 71.6518 72.7266 72.0302 72.7266 72.4054C72.7366 72.4699 72.7252 72.5359 72.6942 72.5933C72.6632 72.6507 72.6143 72.6964 72.5549 72.7234C72.2623 72.8824 71.9729 73.0605 71.6804 73.2227C71.6308 73.2465 71.5901 73.2856 71.5644 73.3343C71.5386 73.3829 71.5291 73.4385 71.5373 73.493C71.5373 73.9541 71.5373 74.4152 71.5373 74.8763L70.348 75.5631V67.6481C70.03 67.8294 69.7438 68.0011 69.4544 68.1633C69.1046 68.3636 69.1555 68.4018 69.1364 67.9343C69.1364 67.5496 69.1364 67.1648 69.1364 66.7609L67.9471 67.4478V65.8578C67.6291 66.02 67.3111 66.2139 66.9931 66.3952C66.7609 66.5288 66.7609 66.5288 66.7609 66.2299V65.2759C66.7609 64.9579 66.7609 64.9578 67.0121 64.8052L67.9407 64.2678V62.6778C67.5941 62.8813 67.2634 63.0626 66.9199 63.2693C66.7991 63.3456 66.7577 63.3138 66.7609 63.1484C66.7609 62.7955 66.7609 62.4488 66.7609 62.1022C66.7609 61.7556 66.7609 61.7842 67.0121 61.6348L67.9502 61.091C67.9502 60.6013 67.9502 60.137 67.9502 59.6886C67.9502 59.5137 67.8994 59.5105 67.7849 59.5805C67.4955 59.7586 67.2029 59.8985 66.9136 60.0893C66.7895 60.1656 66.7546 60.1274 66.7577 59.9653C66.7577 59.5741 66.7577 59.1925 66.7577 58.7982C66.7577 58.6328 66.7164 58.6106 66.5956 58.6837C66.3062 58.8618 66.0136 59.0303 65.7242 59.1862C65.6664 59.214 65.6195 59.2605 65.5912 59.3182C65.563 59.3758 65.5549 59.4413 65.5684 59.5042C65.5684 59.8953 65.5684 60.296 65.5684 60.6903C65.5771 60.7404 65.5698 60.7919 65.5475 60.8375C65.5253 60.8832 65.4892 60.9207 65.4444 60.9447C65.0914 61.1418 64.7384 61.3454 64.3855 61.5457C64.3855 59.0589 64.3855 56.5722 64.3855 54.0854C64.3855 53.6371 64.3855 53.6371 64.042 53.8342L63.2089 54.3144V52.7244C63.5587 52.5241 63.8926 52.3237 64.2296 52.1393C64.2874 52.1111 64.3342 52.0647 64.363 52.0072C64.3917 51.9497 64.4007 51.8844 64.3886 51.8213C64.3886 50.9086 64.3886 49.996 64.3886 49.0769C64.3886 48.9052 64.3505 48.8639 64.2201 48.9434C63.953 49.1087 63.6859 49.2423 63.4187 49.414C63.2502 49.5221 63.1866 49.5062 63.1898 49.255C63.1898 48.3805 63.1898 47.5187 63.1898 46.6442C63.1898 46.4375 63.1548 46.3835 62.9894 46.4821C61.9294 47.1011 60.8694 47.7127 59.8094 48.3169C59.7363 48.3497 59.6762 48.406 59.6388 48.4769C59.6013 48.5478 59.5886 48.6291 59.6027 48.7081C59.6027 49.5794 59.6027 50.4602 59.6027 51.3316C59.6168 51.4113 59.6038 51.4934 59.5658 51.5649C59.5277 51.6363 59.4669 51.693 59.3929 51.7259C59.1194 51.869 58.8459 52.0439 58.5724 52.1965C58.4516 52.2697 58.4071 52.241 58.4102 52.0757C58.4102 51.7004 58.4102 51.3347 58.4102 50.9563C58.4102 50.7687 58.3753 50.7115 58.2258 50.8069C57.946 50.9818 57.6661 51.1407 57.3895 51.2902C57.3297 51.3168 57.2804 51.3624 57.2494 51.4199C57.2183 51.4775 57.2072 51.5437 57.2177 51.6082C57.2177 51.9898 57.2177 52.381 57.2177 52.7721C57.2095 52.861 57.1764 52.9459 57.1223 53.017C56.763 53.2364 56.4037 53.4399 56.0252 53.653V50.492C55.6436 50.7115 55.2843 50.915 54.925 51.128C54.8773 51.1934 54.8477 51.2702 54.8391 51.3506C54.8391 51.7513 54.8391 52.1488 54.8391 52.54C54.8521 52.6035 54.8431 52.6696 54.8137 52.7273C54.7842 52.7851 54.736 52.8312 54.6769 52.858C54.3875 53.0201 54.095 53.1982 53.8056 53.3572C53.7473 53.3849 53.6997 53.4311 53.6704 53.4886C53.6411 53.5461 53.6316 53.6117 53.6434 53.6752C53.6434 54.0218 53.6434 54.3716 53.6434 54.7214C53.6434 55.0712 53.6434 55.0394 53.8946 54.8995C54.5306 54.5243 55.1953 54.1459 55.8472 53.777C55.9044 53.7452 56.0093 53.7547 56.0093 53.7961C56.0093 54.2667 56.0093 54.7501 56.0093 55.2557C55.6564 55.456 55.3256 55.6564 54.9981 55.8344C54.9348 55.8641 54.883 55.9139 54.8508 55.976C54.8186 56.038 54.8078 56.109 54.82 56.1779C54.82 56.6294 54.82 57.0874 54.82 57.5421L56.003 56.8679V58.4579L54.8614 59.148V60.738C55.2016 60.544 55.5419 60.3532 55.8821 60.1497C56.0093 60.0734 56.0539 60.0925 56.0507 60.2705C56.0507 60.7316 56.0507 61.18 56.0507 61.6348L57.2845 60.9447C57.2845 61.4726 57.2336 62.01 57.2654 62.5188C58 62.0959 58.7155 61.6761 59.4469 61.2659C59.5042 61.2309 59.6123 61.2436 59.6155 61.285C59.6155 61.7556 59.6155 62.239 59.6155 62.7446C58.4802 63.4028 57.3513 64.0484 56.2192 64.7098C56.1524 64.748 56.0475 64.7575 56.0475 64.9229C56.0475 65.4031 56.0475 65.8769 56.0475 66.3889C56.3973 66.1853 56.728 66.0041 57.0556 65.8006C57.1987 65.7147 57.2527 65.737 57.2464 65.9373C57.2464 66.3157 57.2464 66.6782 57.2464 67.0566C57.2464 67.2602 57.2941 67.2761 57.4372 67.1934C58.105 66.7991 58.7728 66.4207 59.4406 66.0295C59.5741 65.95 59.6282 65.9659 59.625 66.1599C59.625 66.5351 59.625 66.9072 59.625 67.2729C59.6365 67.3429 59.6243 67.4147 59.5903 67.4769C59.5563 67.5391 59.5025 67.5882 59.4374 67.6163C59.1544 67.7722 58.8682 67.9502 58.5851 68.1061C58.5325 68.1312 58.4893 68.1726 58.4618 68.2241C58.4343 68.2756 58.4241 68.3345 58.4325 68.3923C58.4325 68.7548 58.4325 69.1268 58.4325 69.483C58.4496 69.5667 58.4379 69.6538 58.3992 69.73C58.3605 69.8063 58.2971 69.8671 58.2194 69.9028C57.9523 70.0395 57.6852 70.2208 57.4181 70.3575C57.3554 70.387 57.304 70.4363 57.2719 70.4977C57.2397 70.5591 57.2285 70.6294 57.24 70.6978C57.24 71.6899 57.24 72.6503 57.24 73.6583L56.0507 74.3452C56.0507 74.7999 56.0507 75.2547 56.0507 75.7126C56.0507 75.878 56.092 75.9034 56.2129 75.8303C56.5468 75.6299 56.8838 75.4391 57.2368 75.2356C57.2845 76.1896 57.2368 77.1945 57.2559 78.1612C57.2674 78.2296 57.2562 78.2998 57.224 78.3613C57.1919 78.4227 57.1405 78.4719 57.0778 78.5015C56.7376 78.6891 56.3941 78.8926 56.0539 79.0929C56.0539 79.5382 56.0539 79.9897 56.0539 80.4317C56.0667 80.503 56.0547 80.5766 56.02 80.6402C55.9853 80.7038 55.93 80.7537 55.8631 80.7815C55.6023 80.9215 55.3415 81.0995 55.0808 81.2267C54.8932 81.3158 54.855 81.4303 54.8614 81.656C54.8614 82.0726 54.8614 82.5019 54.8614 82.928C55.2048 82.7372 55.5451 82.556 55.8853 82.3525C56.0252 82.2666 56.0602 82.3079 56.0602 82.4892C56.0602 83.3828 56.0602 84.2764 56.0602 85.1636C56.075 85.2422 56.0634 85.3235 56.0272 85.3948C55.9909 85.4661 55.9321 85.5235 55.8599 85.5579C55.1285 85.9776 54.4098 86.3688 53.6816 86.8299C53.6816 87.291 53.6816 87.7298 53.6816 88.1718C53.6816 88.3467 53.7197 88.3849 53.8501 88.3054C54.1331 88.1305 54.4193 87.9874 54.7055 87.8062C54.8296 87.7298 54.8804 87.7489 54.8773 87.9302C54.8773 88.315 54.8773 88.6934 54.8773 89.0686C54.8843 89.1328 54.8716 89.1976 54.841 89.2544C54.8103 89.3112 54.7631 89.3573 54.7055 89.3866C54.4162 89.5456 54.1236 89.7046 53.8342 89.8922C53.7674 89.9471 53.7178 90.0199 53.6911 90.1021C53.6911 90.5791 53.6911 91.0561 53.6911 91.5363L56.0666 90.1657C56.0666 89.711 56.0666 89.2753 56.0666 88.846C56.0534 88.777 56.0634 88.7056 56.095 88.6429C56.1266 88.5802 56.1781 88.5297 56.2415 88.4994C56.5309 88.3436 56.8234 88.1814 57.1128 87.997C57.2368 87.9206 57.275 87.9588 57.2718 88.121C57.2718 88.5121 57.2718 88.8937 57.2718 89.2848C57.2718 89.4279 57.2941 89.4852 57.4149 89.4121C58.1145 89.0018 58.8109 88.6012 59.5073 88.2037C59.5566 88.1787 59.5967 88.1388 59.6219 88.0897C59.647 88.0406 59.6559 87.9847 59.6473 87.9302C59.6473 87.5454 59.6473 87.1511 59.6473 86.7695C59.6399 86.7056 59.6521 86.6411 59.6822 86.5843C59.7123 86.5276 59.7589 86.4812 59.8158 86.4515C60.102 86.2956 60.385 86.1335 60.6712 85.9586C60.8048 85.8759 60.8398 85.9331 60.8366 86.0985C60.8366 86.4578 60.8366 86.8076 60.8366 87.1702C60.8366 87.4055 60.8843 87.4277 61.0528 87.3323C62.1754 86.6614 63.2947 86.0603 64.4173 85.3671C64.4173 83.8789 64.4173 82.397 64.4173 80.9151C64.4173 80.7116 64.4491 80.5971 64.6176 80.5208C64.8847 80.384 65.1518 80.2028 65.419 80.066C65.4871 80.038 65.5434 79.9871 65.5782 79.9221C65.613 79.8572 65.6242 79.7822 65.6098 79.7099C65.6098 79.3283 65.6098 78.9339 65.6098 78.5492C65.6011 78.4918 65.6109 78.4331 65.6377 78.3817C65.6646 78.3302 65.7072 78.2886 65.7592 78.263C66.0581 78.1008 66.3539 77.9291 66.6496 77.751C66.7673 77.6778 66.7991 77.7224 66.7991 77.8686C66.7991 78.2757 66.7991 78.6732 66.7991 79.0802C66.7991 79.2233 66.8372 79.252 66.939 79.1884C67.2952 78.9785 67.6291 78.7909 67.9884 78.581C67.9884 79.6176 67.9884 80.6098 67.9884 81.5988C67.9922 81.646 67.981 81.6932 67.9565 81.7337C67.9319 81.7743 67.8953 81.806 67.8517 81.8246C67.5496 81.9995 67.2475 82.168 66.9454 82.3493C66.8277 82.4192 66.7927 82.3811 66.7959 82.2316C66.7959 81.8405 66.7959 81.4589 66.7959 81.0677C66.7959 80.9119 66.7705 80.8547 66.6401 80.9342C66.3507 81.1122 66.0613 81.2808 65.7688 81.4398C65.7124 81.47 65.6665 81.5165 65.637 81.5733C65.6075 81.63 65.5958 81.6943 65.6034 81.7578C65.6034 82.1108 65.6034 82.4638 65.6034 82.8295C65.6034 83.0552 65.6479 83.0998 65.8165 82.9948C66.1345 82.7913 66.4525 82.6196 66.7927 82.4256V83.952L67.982 83.2651C67.982 82.8644 67.982 82.486 67.982 82.1044C67.982 81.6592 67.9312 81.7323 68.2746 81.5352C68.9106 81.1663 69.5466 80.7943 70.1826 80.4381C70.2524 80.4055 70.3093 80.3506 70.3444 80.2821C70.3796 80.2136 70.3909 80.1353 70.3766 80.0597C70.3289 78.3075 70.6342 78.6923 69.3208 79.3442C69.2699 79.3696 69.1809 79.3442 69.1809 79.2933C69.1809 78.829 69.1809 78.3552 69.1809 77.8655C69.8996 77.4171 70.6055 77.0387 71.3242 76.6125C71.5659 76.4726 71.5659 76.4726 71.5659 76.1387C71.5246 75.7158 71.515 75.3215 71.55 74.8763ZM56.0666 56.8679V55.2779C56.4641 55.0522 56.8425 54.8105 57.2368 54.572C57.2368 54.1141 57.2654 53.6466 57.2654 53.1919C57.256 53.1376 57.2642 53.0818 57.2888 53.0326C57.3135 52.9834 57.3532 52.9434 57.4022 52.9184C57.7202 52.7498 58.0096 52.5749 58.3117 52.3969C58.4198 52.3333 58.4516 52.3714 58.4516 52.5082C58.4516 53.9667 58.4516 55.4253 58.4516 56.8838C58.4592 56.9419 58.4487 57.001 58.4213 57.0528C58.394 57.1047 58.3512 57.1467 58.2989 57.1732C58.0064 57.3322 57.717 57.4912 57.4244 57.6757C57.3036 57.7488 57.2591 57.7234 57.2623 57.558C57.2623 57.0937 57.2623 56.6517 57.2623 56.1938L56.0666 56.8679ZM58.2703 60.3469C57.9523 60.5249 57.6343 60.7221 57.3004 60.9129C57.2742 60.8569 57.2539 60.7983 57.24 60.738C57.24 60.3373 57.24 59.9335 57.24 59.536C57.2303 59.4784 57.2393 59.4193 57.2656 59.3672C57.292 59.3152 57.3342 59.2729 57.3863 59.2466C57.682 59.0876 57.9778 58.9286 58.2735 58.7346C58.3975 58.6615 58.4325 58.7092 58.4293 58.865C58.4293 59.2466 58.4293 59.6282 58.4293 60.0002C58.4425 60.0692 58.4326 60.1406 58.4009 60.2033C58.3693 60.266 58.3178 60.3165 58.2544 60.3469H58.2703ZM66.8881 68.052L67.9439 67.451V69.0219C67.5655 69.2413 67.2029 69.4544 66.8372 69.6579C66.8118 69.6579 66.7641 69.6102 66.7641 69.5593C66.7641 69.1396 66.7641 68.7103 66.7641 68.2873C66.7577 68.2401 66.7662 68.192 66.7884 68.1498C66.8107 68.1076 66.8455 68.0734 66.8881 68.052ZM64.5063 63.0848C64.8243 62.9036 65.12 62.7319 65.4285 62.5474C65.5303 62.487 65.5748 62.5061 65.5748 62.6492C65.5748 63.0562 65.5748 63.4601 65.5748 63.8608C65.5812 63.9154 65.5706 63.9707 65.5444 64.019C65.5182 64.0674 65.4778 64.1065 65.4285 64.1311C65.1328 64.2964 64.8338 64.449 64.5381 64.6462C64.4109 64.7225 64.3823 64.6685 64.3823 64.5126C64.3823 64.0706 64.3823 63.635 64.3823 63.1961C64.4199 63.156 64.4614 63.1198 64.5063 63.088V63.0848ZM64.3855 66.5001C64.377 66.4453 64.3868 66.3892 64.4132 66.3404C64.4396 66.2916 64.4812 66.2528 64.5317 66.2299C64.6844 66.1472 64.8338 66.0581 64.9865 65.9691C65.1391 65.8801 65.2886 65.8006 65.438 65.7083C65.5366 65.6479 65.5748 65.6797 65.5716 65.8101C65.5716 66.2235 65.5716 66.6337 65.5716 67.0408C65.5785 67.0917 65.569 67.1436 65.5444 67.1888C65.5198 67.2339 65.4814 67.2701 65.4349 67.292C65.1169 67.4637 64.8307 67.6354 64.5254 67.8167C64.4236 67.8803 64.3823 67.8517 64.3855 67.7085C64.3886 67.3079 64.3886 66.904 64.3855 66.5033V66.5001ZM63.1961 57.2972C63.2048 57.351 63.1963 57.406 63.1717 57.4546C63.1471 57.5032 63.1078 57.5427 63.0594 57.5675C62.7414 57.7393 62.4425 57.9173 62.1372 58.0986C62.0545 58.1463 62.0068 58.1463 62.0068 58.0159C62.0068 57.5389 62.0068 57.0619 62.0068 56.5817C62.3471 56.3846 62.6873 56.1938 63.0276 55.9903C63.1484 55.9171 63.1866 55.9489 63.1834 56.1143C63.1898 56.515 63.193 56.922 63.1961 57.3004V57.2972ZM60.8111 58.6487C60.8232 58.7118 60.8142 58.7772 60.7855 58.8347C60.7568 58.8921 60.7099 58.9385 60.6521 58.9667C60.3628 59.1257 60.0702 59.2847 59.7808 59.4692C59.6568 59.5423 59.6186 59.5042 59.6218 59.3451C59.6218 58.4261 59.6218 57.5135 59.6218 56.6008C59.6218 56.4991 59.6218 56.3941 59.7299 56.3273L62.01 55.014V56.604C61.692 56.798 61.339 57.0079 61.0051 57.1859C60.9313 57.2195 60.8711 57.2771 60.8341 57.3492C60.7972 57.4214 60.7857 57.5039 60.8016 57.5834C60.8175 57.9173 60.8048 58.2894 60.8111 58.6519V58.6487ZM59.6218 51.834C59.6094 51.7705 59.6186 51.7046 59.648 51.647C59.6774 51.5894 59.7253 51.5432 59.784 51.516C60.032 51.3793 60.2833 51.2298 60.5345 51.0867C60.8525 50.9054 60.808 50.9722 60.808 50.5493C60.808 50.2313 60.808 49.8942 60.808 49.573C60.8006 49.5092 60.8128 49.4446 60.8429 49.3879C60.873 49.3311 60.9196 49.2848 60.9765 49.255C61.2627 49.0992 61.5457 48.937 61.8319 48.7621C61.9655 48.6794 62.0164 48.7049 62.0132 48.8957C62.0132 49.36 62.0132 49.7797 62.0132 50.244L63.1961 49.5603C63.1961 50.0691 63.1961 50.5429 63.1961 51.0263C63.1671 51.1063 63.1151 51.176 63.0467 51.2266C62.3121 51.6591 61.5743 52.0693 60.8398 52.5431C60.8398 53.0011 60.8175 53.4685 60.8175 53.9201C60.8274 53.978 60.8182 54.0376 60.7913 54.0898C60.7643 54.142 60.721 54.184 60.668 54.2095C60.3755 54.3685 60.0861 54.5275 59.7967 54.7119C59.6759 54.785 59.6282 54.7628 59.6314 54.5974C59.6292 53.6731 59.6261 52.752 59.6218 51.834ZM57.2623 73.6202C57.6248 73.4103 57.9873 73.1972 58.3498 72.9842C58.3784 72.9842 58.4293 73.0287 58.4293 73.0764C58.4293 73.5004 58.4293 73.9329 58.4293 74.3738C58.4212 74.4404 58.3923 74.5028 58.3466 74.5519C57.9873 74.7682 57.6311 74.9717 57.2623 75.1879V73.6202ZM58.4357 87.008C58.4436 87.0665 58.4327 87.126 58.4047 87.1779C58.3767 87.2299 58.333 87.2717 58.2799 87.2973C57.9841 87.4627 57.6884 87.6344 57.3895 87.8125C57.2877 87.8729 57.2432 87.8507 57.2464 87.7044C57.2464 87.5009 57.2464 87.3037 57.2464 87.1002C57.2464 86.8967 57.2464 86.6868 57.2464 86.4642C57.2633 86.3793 57.3041 86.3009 57.364 86.2384C57.682 86.0476 57.9809 85.8791 58.2862 85.6978C58.3975 85.631 58.4261 85.6819 58.4261 85.8155C58.4325 86.2161 58.4325 86.6105 58.4357 87.0048V87.008ZM58.4357 82.238C58.427 82.3253 58.3952 82.4087 58.3435 82.4797C57.9905 82.6959 57.6375 82.8962 57.2559 83.1157V82.044C57.2559 81.5416 57.2559 81.5384 57.628 81.3253L58.477 80.8515C58.436 81.3146 58.4201 81.7795 58.4293 82.2443L58.4357 82.238ZM59.4183 80.2918C59.1003 80.4572 58.7823 80.6575 58.4643 80.8419C58.4192 80.3844 58.4064 79.9243 58.4261 79.465C58.4261 79.3156 58.3912 79.2774 58.2767 79.3474C57.9809 79.5254 57.682 79.6971 57.3863 79.8561C57.3386 79.8848 57.2495 79.8561 57.2464 79.8116C57.2464 79.3473 57.2464 78.8735 57.2464 78.3647L58.1654 77.8369C58.4579 77.6651 58.4325 77.7192 58.4325 77.3153V74.5138L59.2084 74.0654C59.6186 73.8269 59.6186 73.8269 59.6186 74.3834C59.6186 76.2182 59.6186 78.0563 59.6186 79.8911C59.625 80.1074 59.5837 80.2059 59.4119 80.2982L59.4183 80.2918ZM61.8415 83.6563C60.5408 84.3304 60.8525 84.6103 60.8175 82.8581C60.8175 82.7054 60.7793 82.6768 60.668 82.7468C59.3324 83.4686 59.6854 83.6817 59.625 81.9804C59.614 81.9113 59.6262 81.8405 59.6595 81.779C59.6928 81.7175 59.7455 81.6687 59.8094 81.6401C60.544 81.2236 61.2786 80.7943 62.0164 80.3681C62.0164 81.3476 62.0164 82.3334 62.0164 83.3096C62.0306 83.3803 62.0205 83.4537 61.9875 83.5179C61.9546 83.582 61.9009 83.633 61.8351 83.6626L61.8415 83.6563ZM63.2025 79.6781L62.01 80.365C62.01 79.3696 62.01 78.3743 62.01 77.3789C62.0038 77.3284 62.0133 77.2772 62.0372 77.2323C62.0611 77.1873 62.0982 77.1508 62.1436 77.1277C62.4616 76.956 62.7605 76.7779 63.0689 76.5966C63.1484 76.549 63.1993 76.5458 63.1993 76.6761C63.193 77.6651 63.1961 78.6573 63.1961 79.6844L63.2025 79.6781ZM63.2025 74.7046C63.2098 74.7684 63.1976 74.8329 63.1675 74.8897C63.1375 74.9465 63.0909 74.9928 63.034 75.0225C62.7509 75.1752 62.4647 75.3405 62.1817 75.5154C62.0545 75.5918 62.0036 75.5759 62.01 75.3946C62.01 75.0066 62.01 74.6346 62.01 74.2498C62.01 74.0781 61.9782 74.0368 61.8446 74.1163C61.5553 74.2975 61.2627 74.4342 60.9733 74.6282C60.8557 74.6982 60.8048 74.6791 60.808 74.5106C60.808 74.1131 60.808 73.7188 60.808 73.3244C60.7995 73.2667 60.8101 73.2078 60.8382 73.1567C60.8664 73.1056 60.9105 73.0651 60.9638 73.0414C61.2659 72.8729 61.568 72.6916 61.8733 72.5199C61.9196 72.4986 61.9578 72.463 61.9824 72.4184C62.0071 72.3737 62.0167 72.3224 62.01 72.2719C62.01 71.8203 62.01 71.3592 62.01 70.8758C61.2754 71.2574 60.544 71.709 59.8094 72.1319C59.6663 72.2146 59.6155 72.1892 59.6186 71.992C59.6186 71.6072 59.6186 71.2288 59.6186 70.8504C59.6062 70.7869 59.6155 70.721 59.6449 70.6634C59.6743 70.6058 59.7221 70.5596 59.7808 70.5324C60.0638 70.3734 60.35 70.2144 60.6362 70.0427C60.696 70.0161 60.7453 69.9705 60.7763 69.913C60.8074 69.8554 60.8185 69.7892 60.808 69.7247C60.808 67.6895 60.8302 65.6225 60.7889 63.6C60.4518 63.7972 60.1274 63.9752 59.8031 64.1756C59.6568 64.2646 59.6123 64.2265 59.6155 64.0325C59.6155 63.5936 59.6155 63.1643 59.6155 62.7001L62.0036 61.3231V60.0511C62.0036 59.7331 62.0036 59.7331 62.239 59.5996C62.4743 59.466 62.7637 59.307 63.0244 59.1448C63.158 59.0621 63.193 59.1066 63.1898 59.2752C63.1898 60.2642 63.1898 61.2277 63.1898 62.2167L64.3759 61.533V63.177C64.3378 63.1821 64.3004 63.1917 64.2646 63.2057C63.5173 63.6509 62.77 64.0388 62.0227 64.519V66.0836L62.9481 65.5493C63.1993 65.4062 63.1993 65.4062 63.1993 65.7306V70.1826C63.9371 69.7533 64.6621 69.3431 65.3999 68.9106C65.5334 68.8311 65.5843 68.847 65.578 69.041C65.578 69.4099 65.578 69.7756 65.578 70.1349C65.5926 70.2101 65.5815 70.2881 65.5463 70.3563C65.511 70.4244 65.4539 70.4786 65.384 70.5101C64.6526 70.9203 63.9339 71.3433 63.1993 71.7662C63.1961 72.7584 63.193 73.7315 63.1993 74.7109L63.2025 74.7046ZM67.9471 75.366C66.8182 76.0211 65.6988 76.6634 64.5699 77.3217C64.4268 77.4044 64.3823 77.3821 64.3823 77.185C64.3823 75.7624 64.3823 74.3431 64.3823 72.9269C64.37 72.8515 64.383 72.7741 64.4192 72.7068C64.4554 72.6396 64.5129 72.5861 64.5826 72.5549C65.6426 71.9528 66.7026 71.3422 67.7626 70.7232C67.9184 70.631 67.9598 70.666 67.9598 70.8695C67.9439 72.3736 67.9502 73.8619 67.9471 75.366ZM47.8844 80.613C47.7668 80.6829 47.7191 80.667 47.7191 80.5017C47.7191 79.5763 47.7191 78.6573 47.7191 77.7383C47.7112 77.6751 47.7224 77.6111 47.7513 77.5544C47.7803 77.4977 47.8255 77.451 47.8813 77.4203C48.5745 77.026 49.2656 76.6274 49.9546 76.2246C50.0786 76.1515 50.1104 76.1928 50.1104 76.3518C50.1104 76.8161 50.1104 77.274 50.1104 77.7351C50.8387 77.3153 51.5669 76.8892 52.2951 76.479C52.3626 76.451 52.4185 76.4007 52.4532 76.3364C52.488 76.2721 52.4995 76.1978 52.4859 76.126C52.4859 75.6872 52.4859 75.2388 52.4859 74.7936C51.6941 75.172 50.8959 75.719 50.1104 76.1228C50.1104 75.6522 50.1104 75.207 50.1104 74.7554C50.1104 74.6028 50.0723 74.571 49.961 74.6378C49.6684 74.8127 49.379 74.9558 49.0897 75.1466C48.9561 75.2261 48.9179 75.1879 48.9179 75.0162C48.9179 74.0272 48.9179 73.0668 48.9179 72.0747C48.1834 72.5008 47.4615 72.911 46.7269 73.3467C46.5743 73.4389 46.5234 73.4007 46.5298 73.194C46.5298 72.8252 46.5298 72.4595 46.5298 72.1001C46.5152 72.0282 46.5259 71.9535 46.56 71.8886C46.5942 71.8237 46.6498 71.7726 46.7174 71.744C47.8463 71.0889 48.9752 70.472 50.1041 69.7756C50.1041 68.7579 50.1041 67.769 50.1041 66.7768C50.1041 66.6464 50.05 66.6528 49.9705 66.7005C49.6525 66.8786 49.3536 67.0598 49.0451 67.2316C48.9995 67.255 48.9624 67.2921 48.939 67.3377C48.9156 67.3834 48.9071 67.4352 48.9148 67.486C48.9148 67.963 48.9148 68.4081 48.9148 68.8947L48.1261 69.3526C47.7159 69.5879 47.7159 69.5879 47.7159 69.0346V67.9979C47.3661 68.2015 47.0481 68.3954 46.7301 68.564C46.5616 68.6498 46.5234 68.7548 46.5234 68.9583C46.5234 69.9123 46.5457 70.8663 46.5234 71.8585L44.1797 73.2131C44.1448 73.7029 44.1797 74.1321 44.1607 74.6091C44.1607 74.7936 44.2115 74.8031 44.3356 74.7268C44.6281 74.5519 44.9175 74.4088 45.2101 74.2212C45.315 74.1576 45.3532 74.1894 45.3532 74.3293C45.3532 74.7268 45.3532 75.1243 45.3532 75.5154C45.3619 75.5773 45.3501 75.6403 45.3197 75.6948C45.2893 75.7494 45.2418 75.7925 45.1846 75.8176C44.908 75.9734 44.6281 76.1356 44.3483 76.2945C44.2823 76.326 44.2283 76.378 44.1944 76.4429C44.1606 76.5077 44.1487 76.5817 44.1607 76.6539C44.1607 77.6079 44.1448 78.6064 44.1607 79.5636C44.5105 79.3633 44.8412 79.1661 45.1878 78.9785C45.2355 78.9499 45.3245 78.9785 45.3245 79.0039C45.3245 79.4841 45.3245 79.9579 45.3245 80.489L44.1607 81.16V82.75C44.5105 82.5464 44.8412 82.362 45.1719 82.1617C45.2959 82.0885 45.3341 82.1235 45.3309 82.2825C45.3309 82.6832 45.3309 83.0743 45.3309 83.4718C45.3309 83.6086 45.3659 83.6467 45.474 83.5831C45.775 83.4029 46.0771 83.228 46.3803 83.0584C46.4292 83.0322 46.4688 82.9916 46.4939 82.9421C46.5189 82.8926 46.5281 82.8367 46.5202 82.7818C46.5202 82.3238 46.5202 81.8659 46.5202 81.3985L47.6873 80.7243C47.7032 81.1695 47.6873 81.6179 47.6873 82.0726C47.6873 82.2284 47.7159 82.2825 47.8431 82.2062C48.142 82.0249 48.4378 81.8532 48.7335 81.691C48.7924 81.6642 48.8402 81.618 48.8692 81.5601C48.8981 81.5022 48.9063 81.4362 48.8925 81.373C48.8925 80.9215 48.8925 80.4635 48.8925 80.0056C48.5777 80.2155 48.2311 80.4095 47.8844 80.613ZM46.5329 81.3889C46.1545 81.6083 45.7984 81.8182 45.439 82.0249C45.4104 82.0249 45.3532 81.9899 45.3532 81.9454C45.3532 81.478 45.3532 80.9914 45.3532 80.5017C45.7316 80.2823 46.0814 80.0788 46.428 79.888C46.4662 79.8657 46.5298 79.9102 46.5329 79.9579C46.5361 80.4127 46.5329 80.8865 46.5329 81.3889ZM47.5601 76.0338C47.3216 76.1642 47.0831 76.3041 46.8446 76.444C46.498 76.6507 46.5266 76.568 46.5266 77.0291C46.5266 77.3471 46.5266 77.681 46.5266 78.0022C46.5354 78.0609 46.5254 78.1208 46.498 78.1734C46.4705 78.226 46.4271 78.2685 46.3739 78.2948C46.0782 78.4601 45.7825 78.6128 45.4867 78.8068C45.3722 78.8767 45.3373 78.8354 45.3373 78.6891C45.3373 78.2216 45.3373 77.7574 45.3373 77.2931C45.3373 76.8288 45.3373 76.409 45.3373 75.9702C45.324 75.9012 45.334 75.8298 45.3657 75.7671C45.3973 75.7044 45.4488 75.6539 45.5122 75.6236C46.1895 75.242 46.87 74.8476 47.5474 74.4501C47.665 74.3802 47.7159 74.3961 47.7127 74.5646C47.7127 74.9558 47.7127 75.3437 47.7127 75.7253C47.7231 75.7863 47.714 75.849 47.6866 75.9044C47.6591 75.9598 47.6149 76.0051 47.5601 76.0338ZM65.8006 55.9998L73.8968 51.3252V40.5386C73.8968 40.2206 73.8968 40.2206 73.652 40.3542L65.8006 44.8857C65.5716 45.0161 65.5716 45.0193 65.5716 45.3214V55.8154C65.5716 56.1175 65.5716 56.1175 65.8006 55.9871V55.9998ZM66.9613 45.792C68.8057 44.732 70.649 43.672 72.4913 42.612C72.6757 42.5071 72.7139 42.5707 72.7107 42.7964C72.7107 44.0239 72.7107 45.2482 72.7107 46.4725C72.7107 47.6968 72.7107 48.9243 72.7107 50.1454C72.7253 50.2281 72.7119 50.3133 72.6728 50.3875C72.6336 50.4618 72.5709 50.5209 72.4945 50.5556C70.6501 51.6156 68.8067 52.6756 66.9644 53.7356C66.8086 53.8247 66.7546 53.8056 66.7546 53.5862C66.7546 51.1185 66.7546 48.6529 66.7546 46.1895C66.7406 46.1097 66.7533 46.0276 66.7907 45.9558C66.828 45.8839 66.888 45.8264 66.9613 45.792ZM44.3833 68.37C47.0142 66.8478 49.643 65.3288 52.2697 63.8131C52.4986 63.6827 52.4986 63.6827 52.4986 63.3774V52.8834C52.4986 52.5813 52.4986 52.5813 52.2697 52.7117C49.573 54.2794 46.8637 55.8026 44.1829 57.3926C44.1575 61.0115 44.1829 64.5953 44.1829 68.2046C44.1575 68.424 44.202 68.459 44.3705 68.37H44.3833ZM45.3595 58.5374C45.3487 58.4646 45.3613 58.3902 45.3956 58.325C45.4299 58.2598 45.4841 58.2072 45.5503 58.1749C47.4117 57.1149 49.272 56.0411 51.1312 54.9536C51.2807 54.8645 51.3125 54.925 51.3125 55.1062C51.3125 56.3591 51.3125 57.6057 51.3125 58.8523C51.3125 60.0988 51.3125 61.304 51.3125 62.5252C51.325 62.601 51.3121 62.6789 51.2759 62.7467C51.2397 62.8145 51.1821 62.8686 51.1121 62.9004C49.2593 63.9604 47.4053 65.031 45.5503 66.1122C45.4104 66.1949 45.3563 66.1758 45.3563 65.9786C45.3542 63.4897 45.351 61.0062 45.3468 58.5279L45.3595 58.5374ZM52.2887 81.249C49.5857 82.8157 46.8838 84.3771 44.1829 85.9331C44.1543 89.5583 44.1829 93.1454 44.1829 96.761C44.1829 96.9836 44.2274 97.0186 44.396 96.92C47.1011 95.3534 49.8062 93.7909 52.5113 92.2327C52.5113 88.6287 52.5113 85.0247 52.5113 81.4207C52.4891 81.1759 52.4446 81.1409 52.276 81.2395L52.2887 81.249ZM51.1121 91.4536C49.2614 92.5136 47.4127 93.581 45.5662 94.6559C45.4009 94.7513 45.3563 94.7068 45.3595 94.4969C45.3595 92.0356 45.3595 89.5774 45.3595 87.1225C45.344 87.0397 45.3565 86.954 45.3951 86.8792C45.4336 86.8043 45.4961 86.7444 45.5726 86.7091C46.5011 86.1812 47.4329 85.6406 48.3614 85.1031C49.29 84.5657 50.1995 84.0474 51.1185 83.5131C51.2743 83.4209 51.3157 83.4623 51.3125 83.6658C51.3125 86.1398 51.3125 88.6128 51.3125 91.0847C51.3193 91.1594 51.3024 91.2344 51.2642 91.2989C51.2259 91.3634 51.1683 91.4142 51.0994 91.4441L51.1121 91.4536ZM73.8968 54.4893L72.7234 55.1666C72.7234 54.6865 72.7234 54.2413 72.7234 53.7897C72.7234 53.6402 72.6884 53.6021 72.5708 53.672C72.275 53.8501 71.9793 54.0218 71.6836 54.184C71.6304 54.211 71.5872 54.2542 71.5604 54.3074C71.5335 54.3606 71.5243 54.421 71.5341 54.4798C71.5341 54.8709 71.5341 55.2652 71.5341 55.6659C71.5341 55.8185 71.5723 55.844 71.6836 55.7772C71.9761 55.5991 72.2655 55.4592 72.5581 55.2652C72.6916 55.1825 72.7266 55.2302 72.7234 55.3988C72.7234 55.7836 72.7234 56.1652 72.7234 56.5372C72.7332 56.6021 72.7214 56.6683 72.6898 56.7258C72.6582 56.7833 72.6085 56.8287 72.5485 56.8552C71.8108 57.275 71.0921 57.6947 70.3511 58.1272C70.3511 58.6392 70.3511 59.1257 70.3511 59.6059C70.3511 59.6473 70.437 59.6663 70.4815 59.6409C70.755 59.4946 71.0285 59.3229 71.302 59.1734C71.5754 59.024 71.5277 59.0462 71.5277 59.3547C71.5277 60.2324 71.5277 61.1069 71.5277 61.9846C71.5277 62.1563 71.5691 62.1944 71.6995 62.1149C71.9793 61.9432 72.2591 61.7969 72.5358 61.6252C72.6725 61.5425 72.7234 61.568 72.7202 61.7556C72.7202 62.1117 72.7202 62.4616 72.7202 62.8018C72.7395 62.8882 72.7281 62.9785 72.6881 63.0574C72.648 63.1363 72.5819 63.1988 72.5008 63.2343C71.779 63.6254 71.0666 64.0802 70.3448 64.4618C70.3448 63.4855 70.3448 62.5315 70.3448 61.5553C70.3448 61.3581 70.3003 61.3231 70.1572 61.4153C69.8773 61.5871 69.5975 61.7333 69.3176 61.8987C69.2555 61.9281 69.2046 61.9768 69.1725 62.0376C69.1404 62.0984 69.1288 62.1679 69.1396 62.2358C69.1396 63.2089 69.1205 64.1978 69.1396 65.1614C69.5339 64.9229 69.9123 64.7257 70.3034 64.5254C70.3034 65.0437 70.3321 65.5334 70.3257 66.074C70.6691 65.8737 70.984 65.7083 71.2797 65.5048C71.4673 65.384 71.5087 65.4508 71.4991 65.6829C71.4991 66.055 71.4991 66.4111 71.4991 66.78C71.4991 66.9136 71.5277 66.9581 71.639 66.8913C71.957 66.71 72.2432 66.5351 72.5453 66.3698C72.5946 66.3446 72.6348 66.3048 72.6604 66.2558C72.686 66.2068 72.6958 66.1511 72.6884 66.0963C72.6884 65.7338 72.6884 65.3681 72.6884 65.0024C72.6884 64.7035 72.6884 64.7003 72.9174 64.5699L73.8523 64.0293C73.9064 62.4743 73.8523 60.9701 73.8746 59.431C73.8746 59.2816 73.8269 59.2752 73.7283 59.3356C73.4357 59.5073 73.1464 59.6536 72.8538 59.8412C72.7234 59.9207 72.6821 59.8794 72.6853 59.7077C72.6853 59.3229 72.6853 58.9445 72.6853 58.5692C72.6729 58.5057 72.6821 58.4399 72.7115 58.3822C72.7409 58.3246 72.7887 58.2785 72.8474 58.2512C73.1209 58.1018 73.3944 57.9332 73.6679 57.7838C73.7414 57.7521 73.802 57.6966 73.8401 57.6262C73.8782 57.5558 73.8915 57.4747 73.8778 57.3958C73.8809 56.4291 73.9127 55.4433 73.8841 54.4798L73.8968 54.4893ZM54.855 73.423C54.855 73.0382 54.855 72.6535 54.855 72.2687C54.855 71.8171 54.855 71.8171 55.1953 71.6327L56.0316 71.1525V67.9948L54.8932 68.653C54.8704 68.6754 54.8511 68.7012 54.8359 68.7293C54.846 68.7526 54.8525 68.7773 54.855 68.8025C54.855 69.7565 54.855 70.7105 54.855 71.6645C54.8622 71.7151 54.8528 71.7666 54.8281 71.8114C54.8035 71.8561 54.7649 71.8916 54.7183 71.9125C54.4003 72.0842 54.1141 72.2559 53.812 72.4372C53.6975 72.504 53.6625 72.4658 53.6625 72.3164C53.6625 71.9252 53.6625 71.5436 53.6625 71.1525C53.6625 70.9935 53.6307 70.9522 53.5067 71.0253C52.8198 71.426 52.1361 71.8203 51.4492 72.2114C51.3905 72.2387 51.3427 72.2848 51.3133 72.3424C51.2839 72.4001 51.2746 72.4659 51.287 72.5294C51.287 72.9142 51.287 73.3022 51.287 73.6901C51.287 73.8555 51.3252 73.8905 51.446 73.8141C51.7354 73.6392 52.028 73.4962 52.3174 73.3085C52.4414 73.2322 52.4795 73.2735 52.4764 73.4325C52.4764 73.8968 52.4764 74.3579 52.4764 74.819C53.2777 74.3039 54.06 73.8682 54.855 73.423ZM72.892 77.2708C73.1782 77.1214 73.4612 76.9528 73.7474 76.7843C73.7997 76.758 73.8424 76.7159 73.8692 76.6639C73.8961 76.6119 73.9057 76.5527 73.8968 76.4949C73.8968 76.0974 73.8968 75.6935 73.8968 75.2865C73.8968 75.1561 73.8619 75.1275 73.7665 75.1879C73.4485 75.3692 73.1495 75.5472 72.8411 75.719C72.7927 75.7454 72.7539 75.7863 72.7299 75.8359C72.706 75.8855 72.6981 75.9413 72.7075 75.9956C72.7075 76.3836 72.7075 76.7747 72.7075 77.1563C72.7146 77.2205 72.7019 77.2853 72.6712 77.3421C72.6406 77.3989 72.5933 77.445 72.5358 77.4743C72.2496 77.6302 71.9666 77.7923 71.6804 77.9641C71.6238 77.9896 71.577 78.0329 71.5472 78.0874C71.5173 78.1419 71.5061 78.2047 71.515 78.2661C71.515 79.1799 71.515 80.0947 71.515 81.0105C71.515 81.1918 71.5659 81.2045 71.6899 81.1282C72.027 80.9246 72.3641 80.737 72.7012 80.543L73.7474 79.9388C73.7974 79.917 73.8388 79.8794 73.8653 79.8317C73.8917 79.784 73.9017 79.7288 73.8937 79.6749C73.8937 79.2742 73.8937 78.8704 73.8937 78.4633C73.8937 78.3075 73.8491 78.2916 73.741 78.3584C73.4485 78.5333 73.1591 78.6764 72.8665 78.864C72.7489 78.9371 72.7012 78.9053 72.7043 78.7431C72.7043 78.3679 72.7043 77.9958 72.7043 77.627C72.6933 77.5558 72.7057 77.4829 72.7395 77.4193C72.7733 77.3557 72.8268 77.3047 72.892 77.274V77.2708ZM54.8614 65.6447C54.8578 65.5923 54.8503 65.5402 54.8391 65.4889L53.7865 66.0963C53.672 66.1599 53.672 66.2553 53.672 66.3602C53.672 67.2856 53.672 68.2046 53.672 69.13C53.672 69.3145 53.7261 69.3208 53.8469 69.2477C54.1591 69.0379 54.4928 68.862 54.8423 68.723C54.854 68.6589 54.8615 68.5941 54.8645 68.529L54.8614 65.6447ZM55.898 77.5761L53.672 78.8481C53.672 79.3028 53.672 79.7544 53.672 80.2123C53.672 80.3904 53.7197 80.4063 53.8438 80.3331C54.5783 79.9039 55.3129 79.4809 56.0443 79.0611C56.0443 78.5969 56.0443 78.1358 56.0443 77.6683C56.0539 77.5157 56.0062 77.5061 55.898 77.5697V77.5761ZM52.3651 68.4972C52.0471 68.6848 51.7291 68.8629 51.4111 69.041C51.3684 69.0617 51.3333 69.0952 51.3105 69.1368C51.2877 69.1784 51.2784 69.226 51.2839 69.2731C51.2839 69.696 51.2839 70.1222 51.2839 70.5451C51.2839 70.685 51.3347 70.6882 51.4238 70.6341C51.5796 70.5387 51.7418 70.4529 51.8944 70.3607C52.0471 70.2684 52.2124 70.1985 52.346 70.0935C52.4067 70.0324 52.4486 69.9552 52.4668 69.871C52.4668 69.4417 52.4668 69.0187 52.4668 68.599C52.4859 68.4718 52.47 68.4368 52.3651 68.4908V68.4972ZM45.2228 69.4512C44.9048 69.6197 44.5868 69.801 44.2688 69.9918C44.2114 70.0461 44.1706 70.1155 44.1511 70.1921C44.1511 70.6691 44.1511 71.1461 44.1511 71.6422C44.5295 71.4228 44.8825 71.2224 45.2355 71.0062C45.287 70.9532 45.3204 70.8853 45.3309 70.8122C45.3309 70.3829 45.3309 69.9568 45.3309 69.5402C45.3404 69.4893 45.2673 69.4321 45.2228 69.4544V69.4512ZM54.8614 63.6859C54.8614 63.8194 54.8836 63.8703 54.9949 63.8035C55.3129 63.6223 55.6087 63.4442 55.9171 63.2725C55.9628 63.2497 56.0002 63.2133 56.0241 63.1682C56.0481 63.1232 56.0574 63.0718 56.0507 63.0212C56.0507 62.5569 56.0507 62.0863 56.0507 61.6189L54.8709 62.3026C54.8614 62.7668 54.8645 63.2248 54.8614 63.689V63.6859ZM52.3523 65.3267L51.4301 65.861C51.3842 65.8843 51.3467 65.9213 51.3228 65.9669C51.2988 66.0124 51.2897 66.0644 51.2966 66.1154C51.2966 66.532 51.2966 66.9485 51.2966 67.3683C51.2966 67.4923 51.3379 67.505 51.4238 67.4541C51.7418 67.2697 52.0598 67.0885 52.3619 66.9104C52.4042 66.8895 52.439 66.8559 52.4612 66.8142C52.4835 66.7726 52.4921 66.725 52.4859 66.6782C52.4859 66.4715 52.4859 66.2616 52.4859 66.0422C52.4859 65.8228 52.4859 65.6256 52.4859 65.4062C52.4891 65.2949 52.4477 65.2727 52.3523 65.3299V65.3267ZM48.9434 78.4251V79.9993L50.1263 79.3187V77.7287L48.9434 78.4251ZM53.8024 58.1686C53.7568 58.1922 53.7196 58.2293 53.6957 58.2748C53.6718 58.3203 53.6624 58.372 53.6689 58.423C53.6689 58.8236 53.6689 59.2211 53.6689 59.6282C53.6689 59.7999 53.7229 59.8031 53.8342 59.7363C54.1745 59.5328 54.5147 59.342 54.855 59.148V57.558C54.5052 57.7615 54.1522 57.965 53.8024 58.159V58.1686ZM53.831 61.3104C53.772 61.3372 53.7238 61.3832 53.6943 61.441C53.6648 61.4988 53.6559 61.5649 53.6689 61.6284C53.6689 62.0121 53.6689 62.4001 53.6689 62.7923C53.6689 62.9608 53.7134 62.9831 53.831 62.9099C54.1713 62.7064 54.5147 62.5124 54.855 62.3153V60.7253C54.5147 60.9224 54.1713 61.1228 53.831 61.3104ZM69.006 55.7168C68.688 55.898 68.3891 56.0761 68.0806 56.2478C68.0353 56.2709 67.9981 56.3074 67.9742 56.3524C67.9503 56.3973 67.9409 56.4485 67.9471 56.4991C67.9471 56.9156 67.9471 57.3386 67.9471 57.752C67.9471 57.806 68.0011 57.8696 68.0297 57.8537C68.3891 57.6597 68.7484 57.4467 69.1268 57.2177C69.1268 56.7121 69.1268 56.2637 69.1268 55.7836C69.1364 55.6659 69.0887 55.6691 69.006 55.7168ZM53.672 83.7548C53.672 84.1873 53.672 84.623 53.672 85.0523C53.672 85.0968 53.7293 85.1445 53.7611 85.1286C54.1204 84.9314 54.4798 84.7184 54.8455 84.5085V82.9185L53.8215 83.5227C53.7741 83.5389 53.7336 83.5707 53.7064 83.6128C53.6793 83.6549 53.6672 83.705 53.672 83.7548ZM66.6433 72.9428C66.4874 73.016 66.3253 73.1177 66.1726 73.2068C66.02 73.2958 65.8546 73.3912 65.702 73.4771C65.6591 73.4977 65.6235 73.5311 65.6002 73.5726C65.5769 73.6141 65.5669 73.6618 65.5716 73.7092C65.5716 74.1321 65.5716 74.5614 65.5716 74.9812C65.5716 75.0321 65.6416 75.083 65.6797 75.0639C65.9977 74.8922 66.3157 74.7077 66.6337 74.5106C66.6887 74.4521 66.7261 74.3794 66.7418 74.3007C66.7418 73.8714 66.7418 73.4453 66.7418 73.0287C66.7514 72.9874 66.6846 72.9365 66.6433 72.9556V72.9428ZM54.6769 76.6793C54.7432 76.6509 54.7979 76.6009 54.832 76.5373C54.8661 76.4737 54.8776 76.4005 54.8645 76.3295C54.8645 75.8907 54.8645 75.4423 54.8645 74.9971L56.0443 74.307V72.7361L54.8645 73.4166C54.8645 73.9413 54.8645 74.466 54.8645 75.0066C54.5243 75.2006 54.184 75.4041 53.8438 75.5886C53.7874 75.6188 53.7415 75.6653 53.712 75.7221C53.6825 75.7788 53.6708 75.8431 53.6784 75.9066C53.6784 76.355 53.6784 76.8129 53.6784 77.2676L50.1232 79.3251C50.1232 79.7862 50.1232 80.2505 50.1232 80.7148C50.1232 80.8738 50.1677 80.8833 50.2758 80.8197L53.6848 78.8481C53.6848 78.3202 53.6848 77.7955 53.6848 77.2581C54.0091 77.08 54.343 76.8765 54.6769 76.6921V76.6793ZM68.1506 51.4492C69.2731 50.7941 70.3766 50.155 71.5087 49.5062C71.5436 47.9894 71.5087 46.5202 71.5277 45.0129C71.5277 44.7839 71.4737 44.7553 71.3083 44.8539C70.1858 45.5249 69.0823 46.1259 67.9471 46.816C67.9471 48.3137 67.9471 49.7988 67.9471 51.2998C67.9439 51.5319 67.9948 51.5542 68.1506 51.4619V51.4492ZM46.5266 63.6922C46.5266 63.8735 46.5647 63.9116 46.7047 63.829C47.2453 63.511 47.7859 63.193 48.3265 62.875C48.8671 62.557 49.3854 62.258 49.9165 61.9623C49.9834 61.9345 50.0387 61.8846 50.0734 61.821C50.1081 61.7574 50.1201 61.6838 50.1073 61.6125C50.1073 60.1815 50.1073 58.7505 50.1073 57.31C50.1073 57.1382 50.0691 57.1033 49.9387 57.1764C48.8575 57.8124 47.7763 58.4367 46.6951 59.0494C46.6388 59.0797 46.5929 59.1262 46.5634 59.1829C46.5339 59.2396 46.5222 59.3039 46.5298 59.3674C46.5361 60.8366 46.5361 62.2676 46.5329 63.7049L46.5266 63.6922ZM49.926 85.7741C48.8035 86.4324 47.7 87.0716 46.5616 87.7203C46.5298 89.2372 46.5616 90.7063 46.5457 92.2105C46.5457 92.4331 46.5902 92.4776 46.7619 92.3758C47.8844 91.7048 48.9879 91.1038 50.1232 90.4138C50.1232 88.916 50.1232 87.4309 50.1232 85.9331C50.1136 85.7201 50.0723 85.6787 49.926 85.7741Z" fill="#263238"/>
<path d="M47.8113 111.767C47.8215 111.447 47.8598 111.127 47.9258 110.813C47.9906 110.51 48.0887 110.215 48.2183 109.933C48.3461 109.66 48.5086 109.406 48.7017 109.176C48.8958 108.947 49.1282 108.753 49.3886 108.603C49.5909 108.469 49.8264 108.393 50.0691 108.384C50.1587 108.383 50.2475 108.4 50.3304 108.434C50.4134 108.468 50.4888 108.518 50.5525 108.581C50.6926 108.735 50.794 108.921 50.8482 109.122C50.9193 109.385 50.9588 109.656 50.9659 109.929C50.9659 110.031 50.9659 110.146 50.9659 110.273C50.9659 110.4 50.9659 110.527 50.9659 110.664C50.9659 110.801 50.9659 110.928 50.9659 111.055C50.9659 111.182 50.9659 111.3 50.9659 111.408C50.9536 111.712 50.9174 112.013 50.8577 112.311C50.7989 112.605 50.7071 112.891 50.5843 113.163L50.9881 113.822C50.9925 113.844 50.9925 113.866 50.9881 113.889C50.9921 113.94 50.9811 113.992 50.9563 114.038C50.9385 114.078 50.9098 114.112 50.8736 114.137L50.3648 114.429C50.3012 114.461 50.2535 114.461 50.2217 114.429C50.1931 114.397 50.1677 114.369 50.1518 114.346L49.9801 114.067C49.8909 114.161 49.7953 114.249 49.6939 114.331C49.5942 114.411 49.4878 114.484 49.3759 114.547C49.1709 114.681 48.9339 114.759 48.689 114.773C48.5083 114.772 48.3349 114.702 48.2056 114.575C48.0641 114.423 47.9634 114.237 47.9131 114.035C47.8438 113.772 47.8054 113.502 47.7986 113.23C47.7986 113.125 47.7986 113.011 47.7986 112.887C47.7986 112.763 47.7986 112.632 47.7986 112.496C47.7986 112.359 47.7986 112.229 47.7986 112.101C47.7986 111.974 47.8081 111.872 47.8113 111.767ZM50.2408 110.406C50.264 110.124 50.1749 109.844 49.9928 109.627C49.8401 109.5 49.6398 109.506 49.3886 109.65C49.1247 109.809 48.9143 110.044 48.7844 110.324C48.6254 110.657 48.5408 111.02 48.5363 111.389C48.5363 111.602 48.5363 111.837 48.5363 112.095C48.5363 112.353 48.5363 112.582 48.5363 112.785C48.5236 112.924 48.539 113.064 48.5816 113.197C48.6242 113.329 48.6932 113.452 48.7844 113.558C48.937 113.685 49.1374 113.675 49.3886 113.532C49.6517 113.373 49.8619 113.14 49.9928 112.861C50.1513 112.529 50.2359 112.167 50.2408 111.799C50.2408 111.586 50.2408 111.351 50.2408 111.096C50.2408 110.842 50.244 110.61 50.244 110.406H50.2408Z" fill="#FAFAFA"/>
<path d="M53.2077 106.495C53.6561 106.237 53.9932 106.202 54.2253 106.387C54.4575 106.571 54.5751 106.947 54.5751 107.516C54.5773 107.9 54.5171 108.283 54.397 108.648C54.2807 108.99 54.1005 109.308 53.866 109.583L54.6069 111.195C54.6183 111.221 54.6238 111.249 54.6228 111.278C54.623 111.329 54.611 111.379 54.5878 111.424C54.5727 111.466 54.5435 111.502 54.5052 111.526L54.0504 111.79C53.9773 111.831 53.9264 111.837 53.8914 111.79C53.8605 111.761 53.8357 111.726 53.8183 111.688L53.106 110.181L52.3936 110.594V112.518C52.3925 112.581 52.3773 112.643 52.3491 112.699C52.3293 112.75 52.2936 112.794 52.2474 112.823L51.8149 113.074C51.8009 113.087 51.7828 113.094 51.764 113.094C51.7452 113.094 51.7271 113.087 51.7131 113.074C51.697 113.056 51.6848 113.035 51.6771 113.012C51.6695 112.989 51.6666 112.965 51.6686 112.941V107.602C51.6698 107.539 51.685 107.477 51.7131 107.42C51.7338 107.369 51.7692 107.325 51.8149 107.293L53.2077 106.495ZM52.4032 109.561L53.1791 109.112C53.3746 109.004 53.5423 108.851 53.6688 108.667C53.8004 108.445 53.8634 108.19 53.8501 107.932C53.8501 107.614 53.7897 107.452 53.6688 107.42C53.4957 107.397 53.3201 107.441 53.1791 107.544L52.4032 107.993V109.561Z" fill="#FAFAFA"/>
<path d="M58.8014 107.214C58.8054 107.146 58.825 107.079 58.8586 107.02C58.8811 106.975 58.9151 106.936 58.9572 106.908L59.3929 106.657C59.4079 106.646 59.4263 106.639 59.4453 106.639C59.4643 106.639 59.4828 106.646 59.4978 106.657C59.5141 106.676 59.526 106.697 59.5326 106.721C59.5392 106.745 59.5404 106.77 59.536 106.794C59.5229 107.044 59.4867 107.292 59.4278 107.535C59.3618 107.803 59.2658 108.064 59.1416 108.311C59.0086 108.573 58.8442 108.817 58.6519 109.039C58.4485 109.272 58.2078 109.47 57.9396 109.624C57.7438 109.751 57.5176 109.824 57.2845 109.834C57.1045 109.834 56.9315 109.764 56.8012 109.64C56.6489 109.49 56.5392 109.302 56.4832 109.096C56.404 108.823 56.3601 108.541 56.3528 108.257C56.3528 108.05 56.3528 107.821 56.3528 107.57C56.3528 107.319 56.3528 107.083 56.3528 106.867C56.3656 106.533 56.4093 106.201 56.4832 105.875C56.5548 105.564 56.6615 105.262 56.8012 104.975C56.9291 104.705 57.0916 104.453 57.2845 104.224C57.4693 104.003 57.6909 103.814 57.9396 103.668C58.1529 103.529 58.3981 103.447 58.6519 103.429C58.8295 103.426 59.0027 103.484 59.1416 103.595C59.2767 103.715 59.3758 103.87 59.4278 104.043C59.4901 104.241 59.5264 104.446 59.536 104.654C59.5393 104.718 59.5261 104.781 59.4978 104.838C59.4737 104.887 59.4376 104.928 59.3929 104.959L58.9572 105.21C58.9418 105.22 58.9243 105.224 58.9063 105.224C58.8884 105.224 58.8708 105.22 58.8554 105.21C58.8236 105.194 58.8046 105.15 58.7982 105.083C58.7876 104.986 58.7619 104.892 58.7219 104.803C58.6867 104.727 58.6304 104.662 58.5597 104.616C58.4815 104.571 58.3915 104.552 58.3021 104.562C58.1734 104.581 58.0501 104.626 57.9396 104.695C57.7996 104.778 57.6757 104.886 57.5739 105.013C57.4691 105.14 57.3814 105.28 57.3131 105.43C57.2403 105.586 57.1869 105.75 57.1541 105.919C57.1163 106.092 57.0939 106.268 57.0874 106.444C57.0874 106.657 57.0874 106.889 57.0874 107.144C57.0874 107.398 57.0874 107.627 57.0874 107.831C57.0909 107.984 57.1134 108.137 57.1541 108.285C57.1806 108.397 57.2353 108.5 57.3131 108.584C57.3824 108.654 57.4756 108.695 57.5739 108.699C57.7044 108.698 57.8317 108.658 57.9396 108.584C58.0747 108.509 58.1971 108.412 58.3021 108.298C58.4016 108.19 58.4891 108.072 58.5629 107.945C58.6304 107.826 58.6858 107.7 58.7282 107.57C58.7645 107.454 58.789 107.335 58.8014 107.214Z" fill="#FAFAFA"/>
<path d="M60.0352 104.708C60.0481 104.393 60.0864 104.079 60.1497 103.77C60.215 103.467 60.3131 103.173 60.4423 102.892C60.57 102.62 60.7325 102.366 60.9256 102.135C61.1187 101.904 61.3513 101.709 61.6125 101.56C61.8161 101.428 62.0509 101.352 62.293 101.34C62.383 101.339 62.4722 101.356 62.5553 101.391C62.6383 101.425 62.7136 101.476 62.7764 101.541C62.9194 101.693 63.0213 101.879 63.0721 102.081C63.145 102.344 63.1846 102.616 63.1898 102.889C63.1898 102.991 63.1898 103.105 63.1898 103.229C63.1898 103.353 63.1898 103.487 63.1898 103.62C63.1898 103.754 63.1898 103.887 63.1898 104.015C63.1898 104.142 63.1898 104.259 63.1898 104.368C63.1801 104.682 63.1418 104.995 63.0753 105.303C63.0105 105.606 62.9124 105.901 62.7827 106.183C62.6546 106.455 62.491 106.708 62.2962 106.937C62.1033 107.165 61.8719 107.358 61.6125 107.506C61.4074 107.64 61.1703 107.717 60.9256 107.729C60.836 107.729 60.7472 107.712 60.6643 107.678C60.5813 107.645 60.5059 107.595 60.4423 107.532C60.2994 107.38 60.1986 107.194 60.1497 106.991C60.0818 106.728 60.0434 106.458 60.0352 106.187C60.0352 106.085 60.0352 105.97 60.0352 105.846C60.0352 105.722 60.0352 105.589 60.0352 105.455C60.0352 105.322 60.0352 105.188 60.0352 105.061C60.0352 104.934 60.032 104.816 60.0352 104.708ZM62.4647 103.347C62.4772 103.207 62.4617 103.067 62.4191 102.934C62.3765 102.801 62.3077 102.677 62.2167 102.571C62.0641 102.441 61.8637 102.447 61.6125 102.593C61.348 102.752 61.1374 102.987 61.0083 103.267C60.8507 103.601 60.7661 103.964 60.7603 104.333C60.7603 104.546 60.7603 104.781 60.7603 105.035C60.7603 105.29 60.7603 105.522 60.7603 105.729C60.7482 105.867 60.764 106.007 60.8066 106.14C60.8491 106.273 60.9177 106.395 61.0083 106.501C61.161 106.629 61.3613 106.619 61.6125 106.473C61.8761 106.316 62.0866 106.083 62.2167 105.805C62.3758 105.473 62.4604 105.111 62.4647 104.743C62.4647 104.53 62.4647 104.294 62.4647 104.04C62.4647 103.786 62.4711 103.554 62.4647 103.35V103.347Z" fill="#FAFAFA"/>
<path d="M65.3681 99.4736C65.5756 99.3403 65.8124 99.2596 66.0581 99.2383C66.1472 99.2321 66.2365 99.2448 66.3203 99.2755C66.4042 99.3062 66.4806 99.3542 66.5447 99.4163C66.6927 99.5664 66.7962 99.7547 66.8436 99.9601C66.9209 100.243 66.9636 100.535 66.9708 100.828C66.9877 101.229 66.9877 101.636 66.9708 102.049C66.9587 102.391 66.9162 102.73 66.8436 103.064C66.7802 103.371 66.6809 103.67 66.5478 103.954C66.4221 104.221 66.2606 104.469 66.0677 104.692C65.8741 104.911 65.6465 105.096 65.3935 105.242L64.042 106.021C64.0277 106.033 64.0097 106.04 63.9911 106.04C63.9725 106.04 63.9545 106.033 63.9402 106.021C63.9249 106.003 63.9133 105.981 63.9062 105.959C63.8991 105.936 63.8966 105.912 63.8989 105.888V100.545C63.8989 100.482 63.913 100.421 63.9402 100.364C63.961 100.313 63.9964 100.27 64.042 100.24L65.3681 99.4736ZM66.2457 101.248C66.2422 101.094 66.2197 100.942 66.179 100.793C66.1511 100.681 66.0941 100.578 66.0136 100.494C65.9767 100.459 65.9332 100.432 65.8858 100.414C65.8383 100.396 65.7877 100.388 65.7369 100.389C65.5952 100.399 65.4584 100.445 65.3394 100.523L64.6208 100.936V104.654L65.3681 104.224C65.5117 104.14 65.6406 104.033 65.7497 103.906C65.8554 103.779 65.9451 103.639 66.0168 103.49C66.0888 103.333 66.1432 103.169 66.179 103C66.2172 102.824 66.2396 102.646 66.2457 102.466C66.2627 102.053 66.2627 101.647 66.2457 101.248Z" fill="#FAFAFA"/>
<path d="M70.1731 101.442C70.1871 101.429 70.2052 101.423 70.224 101.423C70.2427 101.423 70.2609 101.429 70.2749 101.442C70.291 101.459 70.3034 101.48 70.311 101.502C70.3187 101.525 70.3216 101.549 70.3194 101.572V102.158C70.3183 102.222 70.3031 102.284 70.2749 102.342C70.255 102.393 70.2193 102.437 70.1731 102.466L67.8199 103.824C67.8059 103.836 67.7878 103.843 67.769 103.843C67.7502 103.843 67.7321 103.836 67.7181 103.824C67.702 103.806 67.6898 103.785 67.6821 103.762C67.6745 103.739 67.6716 103.714 67.6736 103.69V98.3669C67.6748 98.304 67.69 98.242 67.7181 98.1857C67.7389 98.1342 67.7742 98.09 67.8199 98.0585L70.1317 96.7261C70.1457 96.7136 70.1639 96.7066 70.1826 96.7066C70.2014 96.7066 70.2195 96.7136 70.2335 96.7261C70.2489 96.7445 70.2605 96.7658 70.2676 96.7887C70.2747 96.8116 70.2771 96.8357 70.2749 96.8596V97.4447C70.2749 97.5075 70.2608 97.5695 70.2335 97.626C70.2128 97.6766 70.1773 97.7198 70.1317 97.75L68.3987 98.7517V100.065L70.0141 99.1333C70.0281 99.1208 70.0462 99.1139 70.065 99.1139C70.0837 99.1139 70.1019 99.1208 70.1159 99.1333C70.1312 99.1517 70.1428 99.173 70.1499 99.196C70.157 99.2189 70.1595 99.243 70.1572 99.2669V99.852C70.1572 99.9148 70.1431 99.9767 70.1159 100.033C70.0951 100.084 70.0596 100.127 70.0141 100.157L68.3987 101.089V102.463L70.1731 101.442Z" fill="#FAFAFA"/>
</svg>
