<svg width="159" height="159" viewBox="0 0 159 159" fill="none" xmlns="http://www.w3.org/2000/svg">
<path d="M58.5757 19.3662C58.9019 21.4976 58.5885 23.6779 57.6752 25.6311C56.7618 27.5843 55.2896 29.2227 53.4448 30.3389C51.6 31.4551 49.4655 31.999 47.3115 31.9017C45.1574 31.8044 43.0807 31.0703 41.344 29.7923C39.6074 28.5143 38.2889 26.7498 37.5554 24.7222C36.8218 22.6946 36.7063 20.4949 37.2234 18.4016C37.7404 16.3083 38.8668 14.4155 40.4601 12.9626C42.0533 11.5096 44.0417 10.562 46.1737 10.2396C47.5874 10.0237 49.0298 10.0886 50.4184 10.4305C51.807 10.7724 53.1146 11.3847 54.2664 12.2323C55.4182 13.0799 56.3916 14.1463 57.1311 15.3703C57.8705 16.5944 58.3614 17.9523 58.5757 19.3662Z" fill="#F5F5F5"/>
<path d="M56.0126 19.7542C56.2617 21.3789 56.0231 23.041 55.3271 24.5301C54.6311 26.0192 53.5089 27.2683 52.1027 28.1193C50.6964 28.9703 49.0692 29.3849 47.4272 29.3106C45.7852 29.2364 44.2021 28.6766 42.8783 27.7022C41.5546 26.7278 40.5497 25.3825 39.9909 23.8367C39.4321 22.2909 39.3445 20.614 39.7393 19.0184C40.134 17.4227 40.9932 15.9801 42.2083 14.8731C43.4233 13.7661 44.9394 13.0444 46.5648 12.7995C48.7399 12.4692 50.957 13.0163 52.7288 14.3205C54.5005 15.6247 55.6817 17.5792 56.0126 19.7542Z" fill="#EBEBEB"/>
<path d="M55.968 19.4966C55.9203 19.4966 55.8313 19.15 55.6023 18.5426C55.2859 17.6869 54.8385 16.8856 54.2762 16.1671C53.8888 15.6779 53.4483 15.2332 52.9629 14.8411C52.4079 14.392 51.7964 14.0178 51.1439 13.7281C50.4246 13.4088 49.6632 13.1946 48.883 13.0921C48.4708 13.0387 48.0551 13.0174 47.6396 13.0285C47.2129 13.0395 46.7876 13.0831 46.3676 13.1588C45.948 13.2345 45.5346 13.3408 45.1306 13.4768C44.7379 13.6179 44.3572 13.7902 43.9921 13.992C43.6372 14.176 43.2979 14.3887 42.9777 14.628C42.668 14.8561 42.3756 15.1069 42.1032 15.3785C41.5962 15.8819 41.1559 16.4484 40.793 17.0639C40.4807 17.6012 40.227 18.1705 40.0362 18.762C39.7647 19.6327 39.6306 20.5403 39.6387 21.4523C39.6387 22.0883 39.6832 22.4635 39.6387 22.4731C39.5942 22.4826 39.4765 22.1296 39.3938 21.465C39.2886 20.5176 39.3608 19.5589 39.6069 18.638C39.9746 17.2541 40.6906 15.9875 41.6866 14.9587C42.277 14.3512 42.9543 13.8347 43.6964 13.426C44.089 13.21 44.4985 13.026 44.9207 12.8758C45.3559 12.7215 45.8024 12.6014 46.2563 12.5165C46.7112 12.4366 47.1715 12.3909 47.6332 12.3797C48.0809 12.3708 48.5285 12.3974 48.972 12.4592C49.4029 12.518 49.8282 12.6116 50.244 12.7391C50.641 12.8568 51.028 13.0056 51.4015 13.1843C52.6968 13.7965 53.8127 14.7317 54.6419 15.9C55.1969 16.6755 55.6044 17.5465 55.844 18.4694C56.003 19.1182 56.0093 19.4902 55.968 19.4966Z" fill="#E0E0E0"/>
<path d="M49.4681 25.758L49.7034 27.1858L48.4314 27.3957L48.1993 26.0092C46.9273 26.1396 45.6553 25.9456 44.8603 25.5132L45.3023 23.85C46.119 24.2402 47.0231 24.4112 47.9258 24.3461L47.5728 22.2187C46.1005 22.1074 44.4437 21.9007 44.1416 20.0753C43.919 18.7238 44.7077 17.4041 46.6856 16.8413L46.4503 15.4262L47.7223 15.2163L47.9513 16.6028C48.8714 16.5034 49.802 16.6233 50.667 16.9526L50.2886 18.6253C49.632 18.3768 48.9327 18.2612 48.2311 18.285L48.5904 20.4538C50.0564 20.5492 51.6909 20.7718 51.9867 22.5589C52.2061 23.8691 51.4302 25.1761 49.4681 25.758ZM47.2612 20.352L46.9623 18.5426C46.3263 18.8065 46.1069 19.2199 46.1768 19.6397C46.2468 20.0594 46.6729 20.2439 47.2612 20.3297V20.352ZM49.961 23.0582C49.8879 22.613 49.4777 22.4222 48.8989 22.33L49.1915 24.0885C49.8052 23.8214 50.031 23.4461 49.961 23.0359V23.0582Z" fill="#E0E0E0"/>
<path d="M123.909 78.4824C124.107 79.7882 123.914 81.1234 123.353 82.3192C122.792 83.515 121.89 84.5177 120.759 85.2006C119.629 85.8834 118.321 86.2158 117.002 86.1556C115.683 86.0954 114.411 85.6453 113.347 84.8623C112.284 84.0793 111.476 82.9986 111.027 81.7567C110.577 80.5148 110.506 79.1675 110.823 77.8852C111.139 76.603 111.828 75.4433 112.804 74.5528C113.779 73.6623 114.997 73.081 116.302 72.8825C117.169 72.7506 118.054 72.7908 118.906 73.0008C119.757 73.2109 120.559 73.5867 121.266 74.1067C121.972 74.6267 122.569 75.2808 123.022 76.0316C123.476 76.7824 123.777 77.6152 123.909 78.4824Z" fill="#F5F5F5"/>
<path d="M122.335 78.7177C122.485 79.7125 122.338 80.7296 121.911 81.6406C121.483 82.5515 120.796 83.3153 119.934 83.8354C119.073 84.3556 118.077 84.6087 117.072 84.5628C116.067 84.5169 115.098 84.174 114.288 83.5776C113.477 82.9811 112.862 82.1578 112.52 81.2117C112.177 80.2657 112.123 79.2393 112.364 78.2624C112.605 77.2855 113.13 76.4019 113.873 75.7234C114.615 75.0448 115.543 74.6018 116.537 74.4502C117.198 74.3494 117.873 74.38 118.522 74.54C119.171 74.6999 119.782 74.9863 120.32 75.3826C120.859 75.7789 121.314 76.2775 121.659 76.8497C122.005 77.422 122.234 78.0567 122.335 78.7177Z" fill="#EBEBEB"/>
<path d="M122.309 78.5619C122.215 78.375 122.141 78.179 122.087 77.9768C121.891 77.4519 121.616 76.9598 121.273 76.5172C121.033 76.2179 120.762 75.945 120.465 75.7031C120.124 75.4281 119.749 75.1983 119.349 75.0194C118.908 74.8228 118.441 74.691 117.962 74.6282C117.448 74.5639 116.927 74.5778 116.417 74.6696C116.159 74.718 115.905 74.7849 115.657 74.8699C115.416 74.9583 115.182 75.0646 114.957 75.1879C114.735 75.3031 114.523 75.4349 114.321 75.5822C114.131 75.7243 113.952 75.8794 113.784 76.0465C113.197 76.6264 112.761 77.3402 112.512 78.1262C112.345 78.6604 112.263 79.2172 112.267 79.7767C112.291 79.988 112.291 80.2014 112.267 80.4127C112.174 80.2187 112.123 80.0075 112.117 79.7926C112.053 79.2107 112.097 78.622 112.248 78.0563C112.354 77.6642 112.504 77.2855 112.696 76.9274C113.045 76.2933 113.52 75.7371 114.092 75.2929C114.303 75.1316 114.526 74.987 114.76 74.8604C115 74.726 115.251 74.6121 115.51 74.5201C115.778 74.4269 116.052 74.3536 116.331 74.3007C116.609 74.2513 116.891 74.2237 117.174 74.218C117.449 74.2114 117.724 74.2273 117.997 74.2657C118.26 74.3027 118.519 74.3601 118.773 74.4375C119.016 74.5104 119.253 74.6018 119.482 74.7109C120.279 75.0818 120.966 75.6526 121.476 76.3677C121.819 76.8468 122.07 77.3862 122.214 77.9577C122.287 78.1504 122.319 78.3561 122.309 78.5619Z" fill="#E0E0E0"/>
<path d="M118.318 82.3971L118.465 83.2748L117.682 83.4051L117.539 82.5529C116.84 82.6418 116.13 82.5316 115.491 82.2349L115.762 81.2109C116.261 81.4558 116.816 81.5655 117.371 81.5289L117.154 80.2251C116.251 80.1584 115.246 80.028 115.049 78.9086C114.912 78.0818 115.396 77.2709 116.607 76.9243L116.464 76.0562L117.247 75.9258L117.387 76.778C117.951 76.7176 118.522 76.7917 119.053 76.9943L118.824 78.0214C118.418 77.866 117.986 77.7946 117.552 77.8115L117.771 79.1408C118.674 79.2012 119.679 79.3316 119.857 80.435C120 81.2459 119.52 82.0441 118.318 82.3971ZM116.964 79.0708L116.779 77.961C116.382 78.1232 116.254 78.3776 116.299 78.6351C116.343 78.8927 116.601 79.0199 116.964 79.0708ZM118.62 80.7339C118.576 80.4605 118.325 80.3492 117.984 80.2856L118.162 81.3668C118.525 81.2141 118.662 80.9852 118.614 80.7339H118.62Z" fill="#E0E0E0"/>
<path d="M29.4341 85.0109C29.7053 86.7854 29.444 88.6005 28.6833 90.2264C27.9226 91.8524 26.6966 93.2161 25.1605 94.145C23.6245 95.074 21.8474 95.5263 20.0541 95.4449C18.2609 95.3634 16.5321 94.7519 15.0865 93.6875C13.641 92.6232 12.5437 91.1539 11.9335 89.4657C11.3232 87.7775 11.2276 85.9462 11.6585 84.2036C12.0895 82.461 13.0277 80.8854 14.3544 79.6762C15.6812 78.467 17.3368 77.6786 19.1118 77.4107C21.4884 77.0504 23.9108 77.6485 25.8465 79.0737C27.7822 80.499 29.0726 82.6345 29.4341 85.0109Z" fill="#F5F5F5"/>
<path d="M27.3003 85.3322C27.5071 86.6843 27.308 88.0673 26.7285 89.3063C26.1489 90.5453 25.2149 91.5845 24.0445 92.2924C22.8741 93.0003 21.5201 93.3452 20.1536 93.2833C18.7872 93.2214 17.4699 92.7556 16.3683 91.9447C15.2667 91.1339 14.4304 90.0145 13.9652 88.7283C13.5 87.442 13.4268 86.0466 13.7549 84.7187C14.083 83.3908 14.7977 82.1901 15.8084 81.2685C16.8192 80.3469 18.0806 79.7459 19.433 79.5414C21.2441 79.2668 23.0901 79.7224 24.5653 80.8083C26.0406 81.8941 27.0243 83.5213 27.3003 85.3322Z" fill="#EBEBEB"/>
<path d="M27.2653 85.1159C27.1316 84.8628 27.0251 84.5963 26.9473 84.3209C26.6859 83.616 26.318 82.9554 25.8566 82.362C25.5341 81.9537 25.1672 81.5825 24.7627 81.2553C24.3001 80.883 23.7913 80.5719 23.249 80.33C22.9564 80.2013 22.6545 80.095 22.3459 80.012C21.6909 79.8237 21.011 79.7369 20.3297 79.7544C19.9745 79.7638 19.6206 79.7999 19.2708 79.8625C18.5786 79.9882 17.9102 80.2211 17.2897 80.5526C16.7116 80.8626 16.1814 81.2546 15.7156 81.7164C14.9222 82.5042 14.3328 83.4734 13.9984 84.5403C13.7729 85.2606 13.6602 86.0115 13.6645 86.7663C13.6944 87.0496 13.6944 87.3352 13.6645 87.6185C13.5399 87.3557 13.4716 87.0698 13.4641 86.779C13.3762 85.9904 13.4366 85.1922 13.6422 84.4258C13.9432 83.2721 14.5394 82.2167 15.3721 81.3635C15.8635 80.8588 16.4272 80.4301 17.0448 80.0915C17.3721 79.9114 17.7135 79.7582 18.0656 79.6335C18.7907 79.3739 19.5533 79.2343 20.3234 79.2201C20.6966 79.2135 21.0698 79.2358 21.4396 79.2869C21.7958 79.3373 22.1477 79.4149 22.4921 79.5191C22.8187 79.62 23.1375 79.7444 23.4461 79.8911C24.0204 80.1609 24.5553 80.5075 25.0361 80.9214C25.4515 81.2836 25.8239 81.6923 26.146 82.1394C26.6122 82.7807 26.9551 83.5032 27.1572 84.27C27.2516 84.5414 27.2885 84.8295 27.2653 85.1159Z" fill="#E0E0E0"/>
<path d="M21.8498 90.312L22.047 91.5014L20.9849 91.6763L20.7941 90.5219C19.8462 90.6463 18.8824 90.5031 18.0116 90.1085L18.3805 88.722C19.0609 89.0459 19.8134 89.1883 20.5651 89.1354L20.2726 87.361C19.0451 87.272 17.665 87.0971 17.4106 85.5802C17.2261 84.4545 17.8812 83.3542 19.5284 82.8867L19.3345 81.726L20.3966 81.5511L20.5874 82.7087C21.3533 82.6244 22.1283 82.7236 22.8484 82.998L22.5304 84.3909C21.9832 84.1849 21.4007 84.0887 20.8163 84.1079L21.1153 85.9109C22.3364 85.9936 23.6974 86.1717 23.9455 87.6663C24.1299 88.757 23.4812 89.8446 21.8498 90.312ZM20.0118 85.7996L19.7638 84.2923C19.2232 84.5149 19.0514 84.8583 19.1087 85.2081C19.1659 85.5579 19.5221 85.7392 20.0118 85.8092V85.7996ZM22.2601 88.0638C22.1996 87.6917 21.8594 87.5423 21.376 87.4596L21.6177 88.9224C22.1297 88.722 22.3173 88.404 22.2601 88.0638Z" fill="#E0E0E0"/>
<path d="M136.384 62.6906L80.9819 45.4454C80.2983 45.2323 79.7272 44.7567 79.3939 44.1229C79.0606 43.4892 78.9924 42.7491 79.2043 42.0651L89.8605 7.84192C90.0729 7.15854 90.5479 6.58744 91.1811 6.25411C91.8144 5.92079 92.5541 5.85252 93.2376 6.0643L148.643 23.3126C149.325 23.5263 149.895 24.0019 150.227 24.635C150.559 25.2681 150.626 26.007 150.414 26.6898L139.761 60.9161C139.547 61.5984 139.072 62.1682 138.439 62.5008C137.806 62.8334 137.067 62.9016 136.384 62.6906Z" fill="#E0E0E0"/>
<path d="M88.1814 32.118L87.132 35.4888L86.7886 35.3807L87.7426 32.3279L86.9476 32.0798L87.0462 31.7618L88.1814 32.118Z" fill="white"/>
<path d="M90.6904 36.2521L90.5919 36.5701L88.2355 35.8355L88.3118 35.5906L90.1339 34.6557C90.63 34.4013 90.7699 34.1978 90.8463 33.9657C90.9671 33.5777 90.7668 33.2533 90.2548 33.0912C90.0862 33.0281 89.9057 33.0033 89.7264 33.0187C89.5471 33.0341 89.3734 33.0893 89.2181 33.1802L89.04 32.894C89.2419 32.7784 89.4668 32.7085 89.6986 32.6893C89.9305 32.67 90.1638 32.7019 90.382 32.7827C91.0625 32.9958 91.3868 33.4759 91.2119 34.0547C91.1134 34.3727 90.9226 34.6335 90.3343 34.9356L88.8397 35.7019L90.6904 36.2521Z" fill="white"/>
<path d="M94.4079 36.7831L93.7337 36.5732L93.4603 37.4573L93.1136 37.3491L93.3903 36.4683L91.4823 35.8768L91.5841 35.616L94.0581 33.9434L94.4429 34.0642L92.0483 35.6987L93.508 36.1535L93.7496 35.3744L94.0867 35.4793L93.8419 36.2584L94.516 36.4683L94.4079 36.7831Z" fill="white"/>
<path d="M99.5595 38.389L98.8885 38.1792L98.6119 39.0632L98.2621 38.9551L98.5387 38.071L96.6307 37.4796L96.7102 37.2315L99.1843 35.5557L99.5691 35.6765L97.1745 37.311L98.6341 37.7658L98.8758 36.9898L99.2129 37.0916L98.9712 37.8707L99.6422 38.0806L99.5595 38.389Z" fill="white"/>
<path d="M102.53 39.1968C102.352 39.7692 101.814 40.0903 100.994 39.8328C100.547 39.7088 100.164 39.4201 99.922 39.025L100.176 38.8024C100.375 39.1486 100.702 39.4032 101.086 39.5116C101.658 39.6897 102.04 39.5116 102.177 39.0982C102.313 38.6848 102.123 38.3127 101.27 38.0488L100.555 37.8262L101.251 36.1917L103.092 36.7641L102.994 37.0821L101.458 36.6051L101.01 37.6386L101.442 37.7721C102.456 38.0838 102.714 38.6021 102.53 39.1968Z" fill="white"/>
<path d="M105.859 40.2175C105.662 40.8535 105.042 41.0951 104.387 40.8916C103.496 40.615 103.204 39.8422 103.534 38.7801C103.887 37.6385 104.698 37.2378 105.611 37.5081C105.892 37.5831 106.148 37.7325 106.352 37.9406L106.126 38.1759C105.965 37.998 105.755 37.8719 105.522 37.8134C104.797 37.5876 104.186 37.9088 103.9 38.8214C103.878 38.8978 103.852 38.9963 103.83 39.0981C103.985 38.9422 104.181 38.835 104.396 38.7898C104.611 38.7446 104.834 38.7633 105.039 38.8437C105.706 39.0631 106.05 39.6005 105.859 40.2175ZM105.512 40.1189C105.652 39.6769 105.414 39.2921 104.892 39.1299C104.79 39.0854 104.68 39.0623 104.569 39.0619C104.458 39.0615 104.348 39.0839 104.246 39.1277C104.144 39.1715 104.051 39.2358 103.975 39.3165C103.899 39.3973 103.84 39.4929 103.802 39.5974C103.687 39.9662 103.884 40.4114 104.466 40.5927C104.565 40.6372 104.673 40.6601 104.781 40.6599C104.89 40.6597 104.997 40.6364 105.096 40.5916C105.195 40.5468 105.283 40.4815 105.355 40.4C105.427 40.3185 105.48 40.2227 105.512 40.1189Z" fill="white"/>
<path d="M110.445 41.6866C110.27 42.2495 109.726 42.5547 108.915 42.3003C108.467 42.1768 108.083 41.8882 107.84 41.4926L108.095 41.27C108.295 41.6194 108.625 41.8755 109.014 41.9823C109.57 42.1572 109.968 41.9823 110.088 41.5753C110.209 41.1683 110.015 40.8185 109.389 40.6213L109.15 40.5482L109.23 40.2938L110.524 39.4161L108.804 38.8818L108.899 38.5638L111.062 39.238L110.985 39.4829L109.662 40.386C110.371 40.6563 110.613 41.1492 110.445 41.6866Z" fill="white"/>
<path d="M113.844 42.6979C113.647 43.3339 113.027 43.5755 112.375 43.372C111.481 43.0954 111.189 42.3226 111.519 41.2637C111.876 40.1189 112.683 39.7182 113.596 39.9917C113.878 40.0652 114.134 40.2148 114.337 40.4242L114.111 40.6595C113.95 40.4819 113.74 40.3558 113.507 40.297C112.782 40.0712 112.171 40.3924 111.888 41.305C111.859 41.3956 111.836 41.488 111.818 41.5817C111.973 41.4268 112.169 41.3202 112.383 41.275C112.597 41.2298 112.82 41.248 113.024 41.3273C113.676 41.5435 114.019 42.0809 113.844 42.6979ZM113.501 42.5993C113.637 42.1573 113.399 41.7725 112.881 41.6135C112.779 41.5684 112.669 41.5447 112.557 41.5438C112.446 41.543 112.335 41.565 112.233 41.6085C112.13 41.652 112.038 41.7161 111.961 41.7968C111.884 41.8776 111.825 41.9732 111.787 42.0778C111.672 42.4466 111.869 42.895 112.451 43.0763C112.549 43.1178 112.655 43.1386 112.761 43.1374C112.867 43.1363 112.972 43.1132 113.069 43.0696C113.166 43.026 113.253 42.9629 113.325 42.8842C113.396 42.8054 113.451 42.7128 113.485 42.612L113.501 42.5993Z" fill="white"/>
<path d="M117.66 41.3019L117.584 41.5468L115.205 44.2243L114.833 44.1099L117.167 41.4864L115.437 40.9458L115.24 41.5818L114.9 41.4768L115.192 40.5228L117.66 41.3019Z" fill="white"/>
<path d="M122.459 42.7965L122.382 43.0414L120.007 45.7221L119.632 45.6045L121.966 42.981L120.236 42.4435L120.042 43.0795L119.698 42.9714L119.991 42.0365L122.459 42.7965Z" fill="white"/>
<path d="M125.012 46.2531C124.828 46.8477 124.208 47.0608 123.406 46.8128C122.605 46.5647 122.223 46.0368 122.411 45.4422C122.465 45.2484 122.585 45.0794 122.749 44.9635C122.914 44.8477 123.113 44.7921 123.314 44.8062C123.173 44.7083 123.068 44.5671 123.015 44.4042C122.962 44.2412 122.963 44.0653 123.018 43.9031C123.187 43.3529 123.759 43.1589 124.472 43.3784C125.184 43.5978 125.55 44.0907 125.381 44.6504C125.331 44.8157 125.23 44.9607 125.091 45.0638C124.952 45.1669 124.784 45.2226 124.612 45.2228C124.785 45.3238 124.919 45.4807 124.992 45.6679C125.065 45.855 125.072 46.0613 125.012 46.2531ZM124.659 46.1386C124.786 45.7252 124.513 45.3531 123.918 45.1687C123.324 44.9843 122.891 45.1337 122.761 45.5471C122.63 45.9605 122.901 46.3326 123.499 46.517C124.096 46.7015 124.529 46.5552 124.656 46.1386H124.659ZM124.001 44.8952C124.526 45.0574 124.91 44.9207 125.025 44.555C125.139 44.1893 124.885 43.8426 124.389 43.6836C123.893 43.5246 123.486 43.6582 123.371 44.0303C123.257 44.4023 123.479 44.733 124.001 44.8952Z" fill="white"/>
<path d="M128.52 46.4948C128.164 47.6396 127.353 48.0403 126.44 47.7668C126.159 47.6917 125.903 47.5423 125.699 47.3343L125.925 47.099C126.088 47.2743 126.298 47.4 126.529 47.4615C127.254 47.6873 127.865 47.3661 128.151 46.4534C128.173 46.3771 128.199 46.2785 128.221 46.1768C128.066 46.332 127.869 46.4387 127.655 46.4838C127.44 46.529 127.217 46.5107 127.012 46.4312C126.345 46.2245 126.001 45.6839 126.195 45.0701C126.389 44.4564 127.009 44.1924 127.664 44.396C128.558 44.6631 128.847 45.4327 128.52 46.4948ZM128.249 45.6807C128.367 45.3118 128.167 44.8634 127.588 44.6822C127.488 44.6383 127.381 44.6159 127.272 44.6165C127.163 44.6171 127.056 44.6407 126.957 44.6858C126.857 44.7308 126.769 44.7963 126.697 44.8778C126.625 44.9594 126.571 45.0553 126.539 45.1592C126.402 45.598 126.637 45.9828 127.159 46.145C127.26 46.19 127.37 46.2137 127.481 46.2145C127.593 46.2153 127.703 46.1933 127.805 46.1498C127.907 46.1062 127.999 46.0421 128.076 45.9614C128.152 45.8807 128.211 45.7852 128.249 45.6807Z" fill="white"/>
<path d="M132.441 45.9033L131.394 49.2677L131.048 49.1596L132.002 46.1036L131.21 45.8588L131.305 45.5408L132.441 45.9033Z" fill="white"/>
<path d="M134.947 50.0341L134.851 50.3521L132.495 49.608L132.571 49.3631L134.393 48.4282C134.889 48.1738 135.029 47.9703 135.106 47.7381C135.226 47.3502 135.026 47.0258 134.511 46.8668C134.343 46.8024 134.163 46.777 133.984 46.7924C133.805 46.8078 133.632 46.8637 133.477 46.9559L133.299 46.6665C133.501 46.5514 133.726 46.4821 133.958 46.4634C134.19 46.4447 134.423 46.4771 134.641 46.5584C135.322 46.7683 135.646 47.2516 135.471 47.8113C135.369 48.1293 135.182 48.39 134.59 48.6921L133.099 49.4585L134.947 50.0341Z" fill="white"/>
<path d="M138.168 50.3172C137.993 50.8769 137.449 51.1822 136.638 50.931C136.19 50.8063 135.806 50.5166 135.563 50.1201L135.818 49.9006C136.019 50.2493 136.349 50.5051 136.737 50.613C137.293 50.7879 137.691 50.613 137.812 50.2059C137.933 49.7989 137.735 49.4491 137.112 49.2519L136.874 49.1788L136.953 48.9212L138.247 48.0467L136.527 47.5093L136.622 47.1913L138.785 47.8623L138.709 48.1071L137.376 49.023C138.095 49.2901 138.33 49.7766 138.168 50.3172Z" fill="white"/>
<path d="M111.282 45.7335L110.828 47.194L137.754 55.5753L138.208 54.1149L111.282 45.7335Z" fill="white"/>
<path d="M123.494 52.7338L123.039 54.1942L136.848 58.4926L137.303 57.0322L123.494 52.7338Z" fill="white"/>
<g opacity="0.5">
<path d="M98.9195 23.3684L90.6752 20.7649C89.8476 20.5036 88.9649 20.9626 88.7036 21.7902L86.9978 27.1917C86.7365 28.0193 87.1955 28.902 88.0231 29.1633L96.2674 31.7668C97.0949 32.0281 97.9776 31.5691 98.239 30.7415L99.9447 25.34C100.206 24.5124 99.747 23.6297 98.9195 23.3684Z" fill="#EBEBEB"/>
</g>
<path d="M87.7681 26.2541L87.9366 25.7135L93.7528 27.523C93.9126 27.5729 94.0806 27.5908 94.2472 27.5758C94.4139 27.5608 94.576 27.5131 94.7242 27.4354C94.8725 27.3577 95.0039 27.2516 95.1112 27.1232C95.2184 26.9947 95.2993 26.8464 95.3492 26.6866C95.3991 26.5269 95.417 26.3589 95.402 26.1922C95.387 26.0255 95.3393 25.8635 95.2616 25.7152C95.184 25.567 95.0779 25.4355 94.9494 25.3283C94.8209 25.221 94.6726 25.1402 94.5128 25.0903L88.6934 23.2777L88.862 22.7371L94.6814 24.5465C95.1353 24.7025 95.5104 25.0292 95.7273 25.4574C95.9441 25.8855 95.9856 26.3813 95.8428 26.8395C95.7 27.2977 95.3842 27.6822 94.9625 27.9113C94.5408 28.1405 94.0464 28.1962 93.5843 28.0667L87.7681 26.2541Z" fill="#E0E0E0"/>
<path d="M95.6936 26.4935L95.5249 27.0338L99.5166 28.2801L99.6853 27.7398L95.6936 26.4935Z" fill="#E0E0E0"/>
<path d="M122.217 22.6615L93.1592 13.6167L92.3832 16.1095L121.441 25.1543L122.217 22.6615Z" fill="white"/>
<path d="M142.597 27.1676L138.662 25.9427C138.134 25.7783 137.572 26.0732 137.408 26.6015L136.183 30.5365C136.019 31.0647 136.314 31.6262 136.842 31.7907L140.777 33.0155C141.305 33.18 141.867 32.885 142.031 32.3568L143.256 28.4218C143.42 27.8935 143.125 27.332 142.597 27.1676Z" fill="white"/>
<path d="M58.8237 103.061H14.3896C12.8511 103.061 11.6039 104.308 11.6039 105.846V144.105C11.6039 145.643 12.8511 146.891 14.3896 146.891H58.8237C60.3622 146.891 61.6094 145.643 61.6094 144.105V105.846C61.6094 104.308 60.3622 103.061 58.8237 103.061Z" fill="#272343"/>
<g opacity="0.3">
<path d="M11.6039 131.802H29.8189C30.1563 131.802 30.4798 131.668 30.7184 131.429C30.9569 131.19 31.0909 130.867 31.0909 130.53H11.6548L11.6039 131.802Z" fill="black"/>
</g>
<path d="M30.2514 119.317H11.852C10.9756 119.317 10.2651 120.027 10.2651 120.904V129.105C10.2651 129.981 10.9756 130.692 11.852 130.692H30.2514C31.1278 130.692 31.8383 129.981 31.8383 129.105V120.904C31.8383 120.027 31.1278 119.317 30.2514 119.317Z" fill="#272343"/>
<path d="M30.2514 130.698C30.4636 130.685 30.6721 130.637 30.8683 130.555C31.1072 130.447 31.3174 130.285 31.482 130.081C31.6924 129.801 31.8042 129.459 31.8 129.108C31.8 127.518 31.7841 125.193 31.7746 122.341C31.7746 121.985 31.7746 121.619 31.7746 121.244C31.7795 121.058 31.7732 120.872 31.7555 120.687C31.7307 120.503 31.6713 120.325 31.5806 120.163C31.3937 119.826 31.0856 119.572 30.7188 119.454C30.5292 119.397 30.3315 119.372 30.1337 119.38H29.4977H24.1331H11.8424C11.5864 119.383 11.3353 119.45 11.1127 119.576C10.8901 119.703 10.7035 119.884 10.5704 120.102C10.4349 120.319 10.3603 120.569 10.3541 120.824C10.3541 121.085 10.3541 121.358 10.3541 121.622C10.3541 122.682 10.3541 123.727 10.3541 124.758V127.785C10.3541 128.275 10.3541 128.777 10.3541 129.245C10.3754 129.474 10.4489 129.696 10.5691 129.893C10.6892 130.09 10.8528 130.256 11.0474 130.38C11.2406 130.499 11.4578 130.574 11.6834 130.599C11.8996 130.622 12.1413 130.599 12.3702 130.599H16.3262H21.0008L27.7678 130.628H29.609H30.086H30.2514C30.2514 130.628 30.1941 130.628 30.086 130.628H29.609L27.7678 130.644L20.988 130.749H16.3134H13.709H12.3607C12.1254 130.749 11.906 130.749 11.6579 130.749C11.4122 130.721 11.1762 130.637 10.9679 130.504C10.7542 130.371 10.5736 130.191 10.4397 129.978C10.3058 129.765 10.2222 129.524 10.1951 129.273C10.176 128.774 10.1951 128.297 10.1951 127.798C10.1951 126.809 10.1951 125.798 10.1951 124.771V121.635C10.1951 121.368 10.1951 121.104 10.1951 120.831C10.2038 120.547 10.286 120.271 10.4336 120.029C10.585 119.79 10.7945 119.593 11.0425 119.457C11.2905 119.321 11.569 119.25 11.8519 119.25H24.1426H29.5073H30.1433C30.3582 119.24 30.5733 119.267 30.7793 119.33C31.1781 119.46 31.5123 119.738 31.7142 120.105C31.8101 120.281 31.8726 120.473 31.8986 120.672C31.9175 120.863 31.9239 121.055 31.9177 121.247C31.9177 121.622 31.9177 121.988 31.9177 122.344C31.9177 125.206 31.8954 127.509 31.8891 129.114C31.8906 129.513 31.7419 129.898 31.4727 130.193C31.2035 130.488 30.8334 130.67 30.4358 130.704L30.2514 130.698Z" fill="#2D334A"/>
<g opacity="0.3">
<path d="M26.518 129.429C28.2813 129.429 29.7108 128 29.7108 126.237C29.7108 124.473 28.2813 123.044 26.518 123.044C24.7547 123.044 23.3253 124.473 23.3253 126.237C23.3253 128 24.7547 129.429 26.518 129.429Z" fill="black"/>
</g>
<path d="M28.776 127.381C30.0228 126.134 30.0228 124.113 28.776 122.866C27.5291 121.619 25.5076 121.619 24.2608 122.866C23.0139 124.113 23.0139 126.134 24.2608 127.381C25.5076 128.628 27.5291 128.628 28.776 127.381Z" fill="#EBEBEB"/>
<path d="M29.714 125.124C29.6917 125.124 29.714 124.841 29.5804 124.351C29.3953 123.664 28.9856 123.06 28.4166 122.634C27.9991 122.319 27.5092 122.114 26.9919 122.038C26.4746 121.961 25.9464 122.017 25.456 122.198C25.1742 122.298 24.9093 122.441 24.6705 122.621C24.4166 122.805 24.1943 123.03 24.0123 123.285C23.6199 123.819 23.4083 124.463 23.4083 125.125C23.4083 125.787 23.6199 126.432 24.0123 126.965C24.377 127.46 24.8789 127.839 25.456 128.052C25.868 128.203 26.307 128.266 26.7449 128.238C27.1828 128.209 27.6099 128.09 27.999 127.887C28.388 127.684 28.7305 127.402 29.0044 127.059C29.2784 126.717 29.4778 126.32 29.59 125.896C29.6475 125.641 29.6921 125.383 29.7235 125.124C29.7415 125.388 29.7179 125.655 29.6536 125.912C29.4881 126.627 29.0788 127.263 28.4961 127.709C28.0966 128.02 27.6291 128.233 27.1318 128.329C26.5578 128.439 25.9648 128.392 25.4146 128.195C25.117 128.091 24.837 127.942 24.5847 127.753C24.3184 127.56 24.0845 127.326 23.8914 127.06C23.4765 126.5 23.2526 125.822 23.2526 125.125C23.2526 124.428 23.4765 123.75 23.8914 123.19C24.0836 122.923 24.3177 122.689 24.5847 122.497C24.8369 122.307 25.1168 122.157 25.4146 122.052C25.9651 121.856 26.5581 121.811 27.1318 121.921C27.7405 122.038 28.3025 122.328 28.75 122.757C29.1974 123.186 29.5112 123.735 29.6536 124.338C29.7144 124.595 29.7348 124.86 29.714 125.124Z" fill="#2D334A"/>
<path d="M130.379 119.946C136.413 118.887 140.446 113.138 139.387 107.104C138.329 101.07 132.579 97.0372 126.546 98.0957C120.512 99.1541 116.479 104.904 117.537 110.937C118.596 116.971 124.345 121.004 130.379 119.946Z" fill="#E7AA07"/>
<g opacity="0.1">
<path d="M124.481 98.6627C123.122 99.186 121.88 99.9718 120.825 100.975C119.77 101.979 118.923 103.18 118.332 104.511C117.742 105.842 117.419 107.277 117.383 108.732C117.347 110.188 117.597 111.636 118.121 112.995C118.121 112.995 125.521 110.524 126.144 106.921C126.768 103.318 124.481 98.6627 124.481 98.6627Z" fill="white"/>
</g>
<path d="M131.102 115.849C135.433 114.172 137.585 109.302 135.909 104.97C134.232 100.638 129.361 98.4862 125.03 100.163C120.698 101.84 118.546 106.71 120.223 111.042C121.899 115.374 126.77 117.526 131.102 115.849Z" fill="#E7AA07"/>
<g opacity="0.2">
<path d="M131.102 115.849C135.433 114.172 137.585 109.302 135.909 104.97C134.232 100.638 129.361 98.4862 125.03 100.163C120.698 101.84 118.546 106.71 120.223 111.042C121.899 115.374 126.77 117.526 131.102 115.849Z" fill="black"/>
</g>
<path d="M136.454 106.129C137.046 107.665 137.17 109.341 136.809 110.947C136.448 112.552 135.619 114.015 134.427 115.15C133.235 116.284 131.734 117.039 130.112 117.32C128.491 117.601 126.822 117.395 125.318 116.727C123.814 116.06 122.541 114.961 121.662 113.57C120.782 112.179 120.335 110.559 120.376 108.914C120.418 107.269 120.946 105.673 121.895 104.328C122.843 102.983 124.169 101.95 125.705 101.359C127.763 100.568 130.051 100.625 132.067 101.52C134.082 102.414 135.66 104.072 136.454 106.129Z" fill="#E7AA07"/>
<g opacity="0.2">
<path d="M136.454 106.129C137.046 107.665 137.17 109.341 136.809 110.947C136.448 112.552 135.619 114.015 134.427 115.15C133.235 116.284 131.734 117.039 130.112 117.32C128.491 117.601 126.822 117.395 125.318 116.727C123.814 116.06 122.541 114.961 121.662 113.57C120.782 112.179 120.335 110.559 120.376 108.914C120.418 107.269 120.946 105.673 121.895 104.328C122.843 102.983 124.169 101.95 125.705 101.359C127.763 100.568 130.051 100.625 132.067 101.52C134.082 102.414 135.66 104.072 136.454 106.129Z" fill="white"/>
</g>
<path d="M128.739 108.323L127.976 106.339C128.356 106.245 128.748 106.201 129.14 106.209C129.348 106.232 129.553 106.274 129.754 106.333V106.26L129.785 105.427V105.236L129.289 105L129.146 105.14C128.612 105.08 128.071 105.128 127.556 105.28L127.133 104.186L126.688 104.043L126.793 104.317L126.329 104.498L126.755 105.611C125.276 106.349 124.885 107.519 125.27 108.508C125.798 109.875 127.105 109.78 128.3 109.624L129.057 111.593C128.32 111.807 127.537 111.807 126.799 111.593L126.739 112.756C127.423 113.004 128.478 112.96 129.464 112.648L129.782 113.472L129.401 113.628L129.884 113.739L130.692 113.421L130.269 112.318C131.754 111.567 132.158 110.41 131.773 109.411C131.258 108.056 129.935 108.171 128.739 108.323ZM127.855 108.428C127.219 108.479 126.714 108.428 126.529 107.955C126.345 107.481 126.529 107.051 127.181 106.683L127.855 108.428ZM129.868 111.259L129.197 109.516C129.852 109.456 130.374 109.516 130.558 109.996C130.72 110.422 130.545 110.874 129.868 111.259Z" fill="#E7AA07"/>
<g opacity="0.3">
<path d="M128.739 108.323L127.976 106.339C128.356 106.245 128.748 106.201 129.14 106.209C129.348 106.232 129.553 106.274 129.754 106.333V106.26L129.785 105.427V105.236L129.289 105L129.146 105.14C128.612 105.08 128.071 105.128 127.556 105.28L127.133 104.186L126.688 104.043L126.793 104.317L126.329 104.498L126.755 105.611C125.276 106.349 124.885 107.519 125.27 108.508C125.798 109.875 127.105 109.78 128.3 109.624L129.057 111.593C128.32 111.807 127.537 111.807 126.799 111.593L126.739 112.756C127.423 113.004 128.478 112.96 129.464 112.648L129.782 113.472L129.401 113.628L129.884 113.739L130.692 113.421L130.269 112.318C131.754 111.567 132.158 110.41 131.773 109.411C131.258 108.056 129.935 108.171 128.739 108.323ZM127.855 108.428C127.219 108.479 126.714 108.428 126.529 107.955C126.345 107.481 126.529 107.051 127.181 106.683L127.855 108.428ZM129.868 111.259L129.197 109.516C129.852 109.456 130.374 109.516 130.558 109.996C130.72 110.422 130.545 110.874 129.868 111.259Z" fill="black"/>
</g>
<path d="M129.843 112.187L130.269 113.291L129.461 113.609L129.041 112.515C128.052 112.833 126.996 112.871 126.313 112.626L126.373 111.462C127.111 111.675 127.894 111.675 128.631 111.462L127.874 109.494C126.678 109.646 125.371 109.742 124.847 108.374C124.459 107.369 124.847 106.215 126.329 105.477L125.903 104.364L126.71 104.046L127.13 105.14C127.846 104.899 128.612 104.841 129.356 104.972L129.334 106.123C128.735 106.025 128.122 106.052 127.534 106.202L128.3 108.193C129.496 108.037 130.819 107.923 131.344 109.293C131.735 110.286 131.334 111.437 129.843 112.187ZM127.416 108.285L126.742 106.53C126.084 106.908 125.925 107.376 126.106 107.802C126.287 108.228 126.78 108.339 127.416 108.285ZM130.122 109.856C129.935 109.373 129.416 109.312 128.761 109.373L129.432 111.116C130.107 110.731 130.285 110.279 130.122 109.856Z" fill="#E7AA07"/>
<path d="M121.514 117.263C121.514 117.263 121.486 117.243 121.435 117.202L121.218 117.011C121.107 116.911 121.001 116.805 120.9 116.693C120.78 116.566 120.63 116.429 120.487 116.258L120.258 115.994C120.179 115.902 120.105 115.797 120.023 115.695C119.857 115.491 119.705 115.256 119.536 115.014C119.189 114.477 118.884 113.912 118.627 113.326C118.378 112.735 118.176 112.126 118.023 111.504C117.962 111.214 117.899 110.941 117.864 110.68C117.845 110.55 117.822 110.426 117.81 110.305C117.797 110.184 117.787 110.069 117.775 109.958C117.749 109.735 117.749 109.532 117.743 109.357C117.735 109.206 117.735 109.054 117.743 108.902V108.616C117.73 108.614 117.719 108.607 117.712 108.597C117.704 108.587 117.7 108.574 117.702 108.561C117.703 108.549 117.709 108.537 117.718 108.529C117.727 108.52 117.74 108.515 117.752 108.515C117.765 108.515 117.777 108.52 117.787 108.529C117.796 108.537 117.802 108.549 117.803 108.561C117.804 108.574 117.801 108.587 117.793 108.597C117.785 108.607 117.774 108.614 117.762 108.616C117.762 108.689 117.762 108.785 117.762 108.902C117.762 109.02 117.762 109.179 117.762 109.354C117.762 109.529 117.778 109.732 117.81 109.952C117.81 110.063 117.835 110.178 117.848 110.298C117.86 110.419 117.886 110.54 117.905 110.67C117.943 110.928 118.01 111.198 118.073 111.484C118.226 112.102 118.428 112.706 118.678 113.291C118.933 113.874 119.233 114.436 119.574 114.973C119.74 115.215 119.892 115.45 120.051 115.653C120.131 115.755 120.204 115.86 120.284 115.952L120.506 116.219C120.646 116.391 120.789 116.537 120.91 116.662C121.031 116.786 121.136 116.897 121.228 116.98L121.435 117.18C121.492 117.234 121.517 117.259 121.514 117.263Z" fill="white"/>
<path d="M125.836 108.925C125.72 108.905 125.611 108.856 125.518 108.785C125.283 108.625 125.106 108.394 125.012 108.126C124.921 107.856 124.921 107.563 125.012 107.293C125.037 107.175 125.093 107.065 125.174 106.975C125.174 106.975 125.12 107.096 125.069 107.293C125.001 107.553 125.01 107.827 125.095 108.082C125.186 108.334 125.347 108.555 125.559 108.718C125.718 108.864 125.839 108.912 125.836 108.925Z" fill="white"/>
<path d="M126.434 105.233C126.411 105.233 126.338 105.102 126.271 104.915C126.205 104.727 126.163 104.597 126.186 104.577C126.208 104.558 126.278 104.708 126.348 104.895C126.418 105.083 126.456 105.226 126.434 105.233Z" fill="white"/>
<path d="M125.842 100.568C125.761 100.606 125.675 100.635 125.588 100.657C125.485 100.684 125.384 100.716 125.286 100.755C125.168 100.796 125.035 100.838 124.891 100.901C124.748 100.965 124.589 101.022 124.427 101.102C124.265 101.181 124.087 101.267 123.906 101.363C123.516 101.578 123.143 101.823 122.789 102.094C122.438 102.367 122.107 102.665 121.797 102.984C121.657 103.137 121.524 103.277 121.409 103.42C121.295 103.563 121.187 103.693 121.091 103.821C120.996 103.948 120.92 104.059 120.85 104.161C120.78 104.263 120.722 104.352 120.678 104.428C120.634 104.508 120.583 104.583 120.525 104.654C120.56 104.57 120.602 104.489 120.649 104.412C120.698 104.317 120.752 104.225 120.811 104.135C120.878 104.034 120.951 103.91 121.044 103.786C121.136 103.662 121.234 103.519 121.362 103.375C121.489 103.232 121.61 103.086 121.746 102.933C122.056 102.606 122.389 102.303 122.745 102.027C123.104 101.756 123.482 101.511 123.877 101.296C124.061 101.204 124.233 101.111 124.405 101.038C124.577 100.965 124.723 100.901 124.879 100.844C125.035 100.787 125.159 100.749 125.276 100.711C125.394 100.672 125.499 100.644 125.594 100.625C125.675 100.6 125.758 100.58 125.842 100.568Z" fill="white"/>
<path d="M133.5 118.347C133.449 118.393 133.394 118.434 133.334 118.468C133.18 118.572 133.019 118.668 132.854 118.754C131.767 119.341 130.559 119.667 129.324 119.708C129.089 119.708 128.898 119.708 128.765 119.708C128.696 119.707 128.628 119.701 128.561 119.689C128.629 119.682 128.697 119.682 128.765 119.689C128.898 119.689 129.083 119.689 129.321 119.67C129.93 119.63 130.534 119.531 131.124 119.374C131.713 119.213 132.284 118.993 132.829 118.719C133.035 118.614 133.204 118.522 133.315 118.458C133.373 118.415 133.434 118.377 133.5 118.347Z" fill="white"/>
<path d="M117.679 124.122H141.16V119.387H117.679V124.122Z" fill="#E7AA07"/>
<path d="M139.65 119.466C139.596 119.466 139.548 120.497 139.548 121.762C139.548 123.028 139.596 124.058 139.65 124.058C139.704 124.058 139.751 123.031 139.751 121.762C139.751 120.493 139.707 119.466 139.65 119.466Z" fill="#263238"/>
<path d="M137.475 119.466C137.417 119.466 137.373 120.497 137.373 121.762C137.373 123.028 137.417 124.058 137.475 124.058C137.532 124.058 137.576 123.031 137.576 121.762C137.576 120.493 137.529 119.466 137.475 119.466Z" fill="#263238"/>
<path d="M135.322 119.466C135.264 119.466 135.22 120.497 135.22 121.762C135.22 123.028 135.264 124.058 135.322 124.058C135.379 124.058 135.423 123.031 135.423 121.762C135.423 120.493 135.379 119.466 135.322 119.466Z" fill="#263238"/>
<path d="M133.182 119.466C133.124 119.466 133.08 120.497 133.08 121.762C133.08 123.028 133.124 124.058 133.182 124.058C133.239 124.058 133.283 123.031 133.283 121.762C133.283 120.493 133.242 119.466 133.182 119.466Z" fill="#263238"/>
<path d="M131.041 119.466C130.984 119.466 130.94 120.497 130.94 121.762C130.94 123.028 130.984 124.058 131.041 124.058C131.099 124.058 131.143 123.031 131.143 121.762C131.143 120.493 131.099 119.466 131.041 119.466Z" fill="#263238"/>
<path d="M128.901 119.466C128.844 119.466 128.8 120.497 128.8 121.762C128.8 123.028 128.844 124.058 128.901 124.058C128.959 124.058 129.003 123.031 129.003 121.762C129.003 120.493 128.959 119.466 128.901 119.466Z" fill="#263238"/>
<path d="M126.761 119.466C126.704 119.466 126.659 120.497 126.659 121.762C126.659 123.028 126.704 124.058 126.761 124.058C126.818 124.058 126.863 123.031 126.863 121.762C126.863 120.493 126.818 119.466 126.761 119.466Z" fill="#263238"/>
<path d="M124.621 119.466C124.564 119.466 124.519 120.497 124.519 121.762C124.519 123.028 124.564 124.058 124.621 124.058C124.678 124.058 124.723 123.031 124.723 121.762C124.723 120.493 124.678 119.466 124.621 119.466Z" fill="#263238"/>
<path d="M122.481 119.466C122.424 119.466 122.379 120.497 122.379 121.762C122.379 123.028 122.424 124.058 122.481 124.058C122.538 124.058 122.583 123.031 122.583 121.762C122.583 120.493 122.538 119.466 122.481 119.466Z" fill="#263238"/>
<path d="M120.341 119.466C120.284 119.466 120.239 120.497 120.239 121.762C120.239 123.028 120.284 124.058 120.341 124.058C120.398 124.058 120.443 123.031 120.443 121.762C120.443 120.493 120.398 119.466 120.341 119.466Z" fill="#263238"/>
<path d="M118.201 119.466C118.143 119.466 118.099 120.497 118.099 121.762C118.099 123.028 118.143 124.058 118.201 124.058C118.258 124.058 118.302 123.031 118.302 121.762C118.302 120.493 118.255 119.466 118.201 119.466Z" fill="#263238"/>
<g opacity="0.3">
<path d="M140.782 119.393C133.24 120.403 125.597 120.403 118.054 119.393H140.782Z" fill="black"/>
</g>
<path d="M117.66 119.403C117.66 119.46 122.907 119.504 129.378 119.504C135.85 119.504 141.1 119.46 141.1 119.403C141.1 119.345 135.853 119.301 129.378 119.301C122.904 119.301 117.66 119.345 117.66 119.403Z" fill="#263238"/>
<path d="M117.151 128.777H140.632V124.042H117.151V128.777Z" fill="#E7AA07"/>
<path d="M139.125 124.125C139.068 124.125 139.023 125.152 139.023 126.418C139.023 127.683 139.068 128.714 139.125 128.714C139.182 128.714 139.227 127.686 139.227 126.418C139.227 125.149 139.179 124.125 139.125 124.125Z" fill="#263238"/>
<path d="M136.947 124.125C136.889 124.125 136.845 125.152 136.845 126.418C136.845 127.683 136.889 128.714 136.947 128.714C137.004 128.714 137.048 127.686 137.048 126.418C137.048 125.149 137.004 124.125 136.947 124.125Z" fill="#263238"/>
<path d="M134.794 124.125C134.74 124.125 134.692 125.152 134.692 126.418C134.692 127.683 134.74 128.714 134.794 128.714C134.848 128.714 134.896 127.686 134.896 126.418C134.896 125.149 134.851 124.125 134.794 124.125Z" fill="#263238"/>
<path d="M132.654 124.125C132.597 124.125 132.552 125.152 132.552 126.418C132.552 127.683 132.597 128.714 132.654 128.714C132.711 128.714 132.756 127.686 132.756 126.418C132.756 125.149 132.711 124.125 132.654 124.125Z" fill="#263238"/>
<path d="M130.514 124.125C130.456 124.125 130.412 125.152 130.412 126.418C130.412 127.683 130.456 128.714 130.514 128.714C130.571 128.714 130.615 127.686 130.615 126.418C130.615 125.149 130.571 124.125 130.514 124.125Z" fill="#263238"/>
<path d="M128.373 124.125C128.316 124.125 128.272 125.152 128.272 126.418C128.272 127.683 128.316 128.714 128.373 128.714C128.431 128.714 128.475 127.686 128.475 126.418C128.475 125.149 128.431 124.125 128.373 124.125Z" fill="#263238"/>
<path d="M126.246 124.125C126.189 124.125 126.144 125.152 126.144 126.418C126.144 127.683 126.189 128.714 126.246 128.714C126.303 128.714 126.348 127.686 126.348 126.418C126.348 125.149 126.291 124.125 126.246 124.125Z" fill="#263238"/>
<path d="M124.093 124.125C124.036 124.125 123.991 125.152 123.991 126.418C123.991 127.683 124.036 128.714 124.093 128.714C124.15 128.714 124.195 127.686 124.195 126.418C124.195 125.149 124.15 124.125 124.093 124.125Z" fill="#263238"/>
<path d="M121.953 124.125C121.896 124.125 121.851 125.152 121.851 126.418C121.851 127.683 121.896 128.714 121.953 128.714C122.01 128.714 122.055 127.686 122.055 126.418C122.055 125.149 122.01 124.125 121.953 124.125Z" fill="#263238"/>
<path d="M119.813 124.125C119.756 124.125 119.711 125.152 119.711 126.418C119.711 127.683 119.756 128.714 119.813 128.714C119.87 128.714 119.915 127.686 119.915 126.418C119.915 125.149 119.886 124.125 119.813 124.125Z" fill="#263238"/>
<path d="M117.66 124.125C117.603 124.125 117.558 125.152 117.558 126.418C117.558 127.683 117.603 128.714 117.66 128.714C117.717 128.714 117.762 127.686 117.762 126.418C117.762 125.149 117.73 124.125 117.66 124.125Z" fill="#263238"/>
<g opacity="0.3">
<path d="M140.257 124.049C132.714 125.058 125.07 125.058 117.526 124.049H140.257Z" fill="black"/>
</g>
<path d="M117.145 124.058C117.145 124.115 122.392 124.16 128.866 124.16C135.341 124.16 140.585 124.115 140.585 124.058C140.585 124.001 135.341 123.956 128.866 123.956C122.392 123.956 117.145 124.02 117.145 124.058Z" fill="#263238"/>
<path d="M119.384 133.36H142.865V128.625H119.384V133.36Z" fill="#E7AA07"/>
<path d="M141.354 128.704C141.297 128.704 141.252 129.734 141.252 131C141.252 132.266 141.297 133.296 141.354 133.296C141.411 133.296 141.456 132.269 141.456 131C141.456 129.731 141.408 128.704 141.354 128.704Z" fill="#263238"/>
<path d="M139.176 128.704C139.119 128.704 139.074 129.734 139.074 131C139.074 132.266 139.119 133.296 139.176 133.296C139.233 133.296 139.278 132.269 139.278 131C139.278 129.731 139.233 128.704 139.176 128.704Z" fill="#263238"/>
<path d="M137.023 128.704C136.969 128.704 136.921 129.734 136.921 131C136.921 132.266 136.969 133.296 137.023 133.296C137.077 133.296 137.125 132.269 137.125 131C137.125 129.731 137.08 128.704 137.023 128.704Z" fill="#263238"/>
<path d="M134.883 128.704C134.829 128.704 134.781 129.734 134.781 131C134.781 132.266 134.829 133.296 134.883 133.296C134.937 133.296 134.985 132.269 134.985 131C134.985 129.731 134.94 128.704 134.883 128.704Z" fill="#263238"/>
<path d="M132.743 128.704C132.689 128.704 132.641 129.734 132.641 131C132.641 132.266 132.689 133.296 132.743 133.296C132.797 133.296 132.845 132.269 132.845 131C132.845 129.731 132.8 128.704 132.743 128.704Z" fill="#263238"/>
<path d="M130.603 128.704C130.549 128.704 130.501 129.734 130.501 131C130.501 132.266 130.549 133.296 130.603 133.296C130.657 133.296 130.704 132.269 130.704 131C130.704 129.731 130.66 128.704 130.603 128.704Z" fill="#263238"/>
<path d="M128.472 128.704C128.415 128.704 128.37 129.734 128.37 131C128.37 132.266 128.415 133.296 128.472 133.296C128.529 133.296 128.574 132.269 128.574 131C128.574 129.731 128.52 128.704 128.472 128.704Z" fill="#263238"/>
<path d="M126.322 128.704C126.265 128.704 126.221 129.734 126.221 131C126.221 132.266 126.265 133.296 126.322 133.296C126.38 133.296 126.424 132.269 126.424 131C126.424 129.731 126.38 128.704 126.322 128.704Z" fill="#263238"/>
<path d="M124.182 128.704C124.125 128.704 124.08 129.734 124.08 131C124.08 132.266 124.125 133.296 124.182 133.296C124.239 133.296 124.284 132.269 124.284 131C124.284 129.731 124.239 128.704 124.182 128.704Z" fill="#263238"/>
<path d="M122.042 128.704C121.985 128.704 121.94 129.734 121.94 131C121.94 132.266 121.985 133.296 122.042 133.296C122.099 133.296 122.144 132.269 122.144 131C122.144 129.731 122.112 128.704 122.042 128.704Z" fill="#263238"/>
<path d="M119.902 128.704C119.845 128.704 119.8 129.734 119.8 131C119.8 132.266 119.845 133.296 119.902 133.296C119.959 133.296 120.004 132.269 120.004 131C120.004 129.731 119.959 128.704 119.902 128.704Z" fill="#263238"/>
<g opacity="0.3">
<path d="M142.486 128.631C134.943 129.641 127.299 129.641 119.756 128.631H142.486Z" fill="black"/>
</g>
<path d="M119.374 128.641C119.374 128.698 124.621 128.742 131.095 128.742C137.57 128.742 142.814 128.698 142.814 128.641C142.814 128.583 137.57 128.539 131.095 128.539C124.621 128.539 119.374 128.587 119.374 128.641Z" fill="#263238"/>
<path d="M116.633 137.878H140.114V133.325H116.633V137.878Z" fill="#E7AA07"/>
<path d="M138.603 133.404C138.546 133.404 138.502 134.39 138.502 135.611C138.502 136.832 138.546 137.818 138.603 137.818C138.661 137.818 138.705 136.829 138.705 135.611C138.705 134.393 138.648 133.404 138.603 133.404Z" fill="#263238"/>
<path d="M136.422 133.404C136.365 133.404 136.32 134.39 136.32 135.611C136.32 136.832 136.365 137.818 136.422 137.818C136.479 137.818 136.524 136.829 136.524 135.611C136.524 134.393 136.482 133.404 136.422 133.404Z" fill="#263238"/>
<path d="M134.272 133.404C134.218 133.404 134.171 134.39 134.171 135.611C134.171 136.832 134.218 137.818 134.272 137.818C134.326 137.818 134.374 136.829 134.374 135.611C134.374 134.393 134.33 133.404 134.272 133.404Z" fill="#263238"/>
<path d="M132.132 133.404C132.078 133.404 132.031 134.39 132.031 135.611C132.031 136.832 132.078 137.818 132.132 137.818C132.186 137.818 132.234 136.829 132.234 135.611C132.234 134.393 132.19 133.404 132.132 133.404Z" fill="#263238"/>
<path d="M129.992 133.404C129.938 133.404 129.89 134.39 129.89 135.611C129.89 136.832 129.938 137.818 129.992 137.818C130.046 137.818 130.094 136.829 130.094 135.611C130.094 134.393 130.062 133.404 129.992 133.404Z" fill="#263238"/>
<path d="M127.852 133.404C127.795 133.404 127.75 134.39 127.75 135.611C127.75 136.832 127.795 137.818 127.852 137.818C127.909 137.818 127.954 136.829 127.954 135.611C127.954 134.393 127.909 133.404 127.852 133.404Z" fill="#263238"/>
<path d="M125.712 133.404C125.655 133.404 125.61 134.39 125.61 135.611C125.61 136.832 125.655 137.818 125.712 137.818C125.769 137.818 125.814 136.829 125.814 135.611C125.814 134.393 125.769 133.404 125.712 133.404Z" fill="#263238"/>
<path d="M123.572 133.404C123.514 133.404 123.47 134.39 123.47 135.611C123.47 136.832 123.514 137.818 123.572 137.818C123.629 137.818 123.673 136.829 123.673 135.611C123.673 134.393 123.629 133.404 123.572 133.404Z" fill="#263238"/>
<path d="M121.431 133.404C121.374 133.404 121.33 134.39 121.33 135.611C121.33 136.832 121.374 137.818 121.431 137.818C121.489 137.818 121.533 136.829 121.533 135.611C121.533 134.393 121.476 133.404 121.431 133.404Z" fill="#263238"/>
<path d="M119.291 133.404C119.234 133.404 119.19 134.39 119.19 135.611C119.19 136.832 119.234 137.818 119.291 137.818C119.349 137.818 119.393 136.829 119.393 135.611C119.393 134.393 119.349 133.404 119.291 133.404Z" fill="#263238"/>
<path d="M117.151 133.404C117.094 133.404 117.049 134.39 117.049 135.611C117.049 136.832 117.094 137.818 117.151 137.818C117.208 137.818 117.253 136.829 117.253 135.611C117.253 134.393 117.208 133.404 117.151 133.404Z" fill="#263238"/>
<g opacity="0.3">
<path d="M139.736 133.331C132.214 134.622 124.527 134.622 117.005 133.331H139.736Z" fill="black"/>
</g>
<path d="M116.623 133.341C116.623 133.398 121.87 133.442 128.345 133.442C134.819 133.442 140.063 133.398 140.063 133.341C140.063 133.283 134.832 133.242 128.345 133.242C121.858 133.242 116.623 133.283 116.623 133.341Z" fill="#263238"/>
<path d="M118.14 142.435H141.621V137.882H118.14V142.435Z" fill="#E7AA07"/>
<path d="M140.111 137.958C140.057 137.958 140.009 138.947 140.009 140.168C140.009 141.389 140.057 142.375 140.111 142.375C140.165 142.375 140.216 141.386 140.216 140.168C140.216 138.95 140.168 137.958 140.111 137.958Z" fill="#263238"/>
<path d="M137.936 137.958C137.879 137.958 137.834 138.947 137.834 140.168C137.834 141.389 137.879 142.375 137.936 142.375C137.993 142.375 138.037 141.386 138.037 140.168C138.037 138.95 137.99 137.958 137.936 137.958Z" fill="#263238"/>
<path d="M135.786 137.958C135.729 137.958 135.684 138.947 135.684 140.168C135.684 141.389 135.729 142.375 135.786 142.375C135.843 142.375 135.888 141.386 135.888 140.168C135.888 138.95 135.84 137.958 135.786 137.958Z" fill="#263238"/>
<path d="M133.643 137.958C133.586 137.958 133.541 138.947 133.541 140.168C133.541 141.389 133.586 142.375 133.643 142.375C133.7 142.375 133.745 141.386 133.745 140.168C133.745 138.95 133.7 137.958 133.643 137.958Z" fill="#263238"/>
<path d="M131.503 137.958C131.445 137.958 131.401 138.947 131.401 140.168C131.401 141.389 131.445 142.375 131.503 142.375C131.56 142.375 131.604 141.386 131.604 140.168C131.604 138.95 131.56 137.958 131.503 137.958Z" fill="#263238"/>
<path d="M129.362 137.958C129.305 137.958 129.261 138.947 129.261 140.168C129.261 141.389 129.305 142.375 129.362 142.375C129.42 142.375 129.464 141.386 129.464 140.168C129.464 138.95 129.426 137.958 129.362 137.958Z" fill="#263238"/>
<path d="M127.222 137.958C127.165 137.958 127.121 138.947 127.121 140.168C127.121 141.389 127.165 142.375 127.222 142.375C127.28 142.375 127.324 141.386 127.324 140.168C127.324 138.95 127.28 137.958 127.222 137.958Z" fill="#263238"/>
<path d="M125.082 137.958C125.025 137.958 124.98 138.947 124.98 140.168C124.98 141.389 125.025 142.375 125.082 142.375C125.139 142.375 125.184 141.386 125.184 140.168C125.184 138.95 125.139 137.958 125.082 137.958Z" fill="#263238"/>
<path d="M122.942 137.958C122.885 137.958 122.84 138.947 122.84 140.168C122.84 141.389 122.885 142.375 122.942 142.375C122.999 142.375 123.044 141.386 123.044 140.168C123.044 138.95 122.999 137.958 122.942 137.958Z" fill="#263238"/>
<path d="M120.802 137.958C120.745 137.958 120.7 138.947 120.7 140.168C120.7 141.389 120.745 142.375 120.802 142.375C120.859 142.375 120.904 141.386 120.904 140.168C120.904 138.95 120.859 137.958 120.802 137.958Z" fill="#263238"/>
<path d="M118.662 137.958C118.604 137.958 118.56 138.947 118.56 140.168C118.56 141.389 118.604 142.375 118.662 142.375C118.719 142.375 118.763 141.386 118.763 140.168C118.763 138.95 118.716 137.958 118.662 137.958Z" fill="#263238"/>
<g opacity="0.3">
<path d="M141.243 137.888C133.738 139.349 126.021 139.349 118.516 137.888H141.243Z" fill="black"/>
</g>
<path d="M118.134 137.898C118.134 137.955 123.381 137.999 129.852 137.999C136.324 137.999 141.574 137.955 141.574 137.898C141.574 137.84 136.327 137.796 129.852 137.796C123.378 137.796 118.134 137.84 118.134 137.898Z" fill="#263238"/>
<path d="M116.798 146.929H140.279V142.375H116.798V146.929Z" fill="#E7AA07"/>
<path d="M138.772 142.464C138.715 142.464 138.67 143.453 138.67 144.671C138.67 145.889 138.715 146.897 138.772 146.897C138.829 146.897 138.874 145.908 138.874 144.671C138.874 143.434 138.826 142.464 138.772 142.464Z" fill="#263238"/>
<path d="M136.594 142.464C136.537 142.464 136.492 143.453 136.492 144.671C136.492 145.889 136.537 146.897 136.594 146.897C136.651 146.897 136.696 145.908 136.696 144.671C136.696 143.434 136.651 142.464 136.594 142.464Z" fill="#263238"/>
<path d="M134.441 142.464C134.387 142.464 134.339 143.453 134.339 144.671C134.339 145.889 134.387 146.897 134.441 146.897C134.495 146.897 134.543 145.908 134.543 144.671C134.543 143.434 134.514 142.464 134.441 142.464Z" fill="#263238"/>
<path d="M132.288 142.464C132.231 142.464 132.186 143.453 132.186 144.671C132.186 145.889 132.231 146.897 132.288 146.897C132.345 146.897 132.39 145.908 132.39 144.671C132.39 143.434 132.358 142.464 132.288 142.464Z" fill="#263238"/>
<path d="M130.161 142.464C130.103 142.464 130.059 143.453 130.059 144.671C130.059 145.889 130.103 146.897 130.161 146.897C130.218 146.897 130.262 145.908 130.262 144.671C130.262 143.434 130.218 142.464 130.161 142.464Z" fill="#263238"/>
<path d="M128.02 142.464C127.963 142.464 127.919 143.453 127.919 144.671C127.919 145.889 127.963 146.897 128.02 146.897C128.078 146.897 128.122 145.908 128.122 144.671C128.122 143.434 128.078 142.464 128.02 142.464Z" fill="#263238"/>
<path d="M125.88 142.464C125.823 142.464 125.779 143.453 125.779 144.671C125.779 145.889 125.823 146.897 125.88 146.897C125.938 146.897 125.982 145.908 125.982 144.671C125.982 143.434 125.928 142.464 125.88 142.464Z" fill="#263238"/>
<path d="M123.74 142.464C123.683 142.464 123.638 143.453 123.638 144.671C123.638 145.889 123.683 146.897 123.74 146.897C123.797 146.897 123.842 145.908 123.842 144.671C123.842 143.434 123.797 142.464 123.74 142.464Z" fill="#263238"/>
<path d="M121.6 142.464C121.543 142.464 121.498 143.453 121.498 144.671C121.498 145.889 121.543 146.897 121.6 146.897C121.657 146.897 121.702 145.908 121.702 144.671C121.702 143.434 121.657 142.464 121.6 142.464Z" fill="#263238"/>
<path d="M119.46 142.464C119.403 142.464 119.358 143.453 119.358 144.671C119.358 145.889 119.403 146.897 119.46 146.897C119.517 146.897 119.562 145.908 119.562 144.671C119.562 143.434 119.517 142.464 119.46 142.464Z" fill="#263238"/>
<path d="M117.32 142.464C117.263 142.464 117.218 143.453 117.218 144.671C117.218 145.889 117.263 146.897 117.32 146.897C117.377 146.897 117.422 145.908 117.422 144.671C117.422 143.434 117.377 142.464 117.32 142.464Z" fill="#263238"/>
<g opacity="0.3">
<path d="M139.92 142.381C132.398 143.672 124.711 143.672 117.189 142.381H139.92Z" fill="black"/>
</g>
<path d="M116.792 142.391C116.792 142.445 122.039 142.493 128.513 142.493C134.988 142.493 140.232 142.445 140.232 142.391C140.232 142.337 134.985 142.289 128.513 142.289C122.042 142.289 116.792 142.334 116.792 142.391Z" fill="#263238"/>
<path d="M140.279 146.916C140.279 146.916 140.279 146.891 140.279 146.84C140.279 146.789 140.279 146.703 140.279 146.611C140.279 146.398 140.279 146.102 140.279 145.723C140.279 144.941 140.264 143.815 140.254 142.426V142.375H140.305H141.599L141.545 142.432C141.545 141.1 141.545 139.57 141.545 137.875L141.615 137.945H140.025V137.872C140.025 136.463 140.025 134.937 140.025 133.353V133.277H142.852L142.776 133.353C142.776 131.668 142.776 130.049 142.776 128.529L142.846 128.602H140.55V128.532C140.55 126.885 140.55 125.397 140.55 124.119V124.061H141.186L141.135 124.115C141.135 122.646 141.135 121.47 141.135 120.649C141.135 120.252 141.135 119.94 141.135 119.717C141.135 119.616 141.135 119.539 141.135 119.476C141.132 119.448 141.132 119.421 141.135 119.393C141.139 119.42 141.139 119.448 141.135 119.476C141.135 119.536 141.135 119.616 141.135 119.717C141.135 119.94 141.135 120.248 141.157 120.646C141.157 121.47 141.192 122.646 141.218 124.112V124.166H140.582L140.636 124.112C140.636 125.384 140.636 126.879 140.651 128.526L140.582 128.459H142.808H142.881V128.532C142.881 130.052 142.881 131.671 142.881 133.356V133.433H140.05L140.13 133.356C140.13 134.946 140.13 136.466 140.13 137.875L140.057 137.802H141.647V137.872C141.647 139.557 141.647 141.097 141.647 142.429V142.486H140.295L140.346 142.435C140.346 143.831 140.33 144.951 140.324 145.733C140.324 146.111 140.324 146.407 140.324 146.62C140.324 146.712 140.324 146.789 140.324 146.849C140.313 146.874 140.298 146.896 140.279 146.916Z" fill="#263238"/>
<path d="M148.881 80.0279C148.948 81.9373 148.447 83.8237 147.442 85.4485C146.436 87.0733 144.972 88.3635 143.233 89.1559C141.495 89.9484 139.56 90.2076 137.675 89.9007C135.789 89.5938 134.036 88.7347 132.639 87.4318C131.241 86.129 130.261 84.441 129.823 82.5813C129.385 80.7216 129.508 78.7737 130.177 76.984C130.845 75.1942 132.03 73.6429 133.58 72.5262C135.13 71.4095 136.977 70.7777 138.886 70.7105C141.447 70.6212 143.939 71.5526 145.813 73.2998C147.687 75.047 148.791 77.4671 148.881 80.0279Z" fill="#E7AA07"/>
<g opacity="0.1">
<path d="M138.886 70.7104C136.326 70.8008 133.906 71.9045 132.16 73.7789C130.413 75.6532 129.482 78.1447 129.572 80.7052C129.572 80.7052 136.365 80.772 137.901 77.9799C139.437 75.1879 138.886 70.7104 138.886 70.7104Z" fill="white"/>
</g>
<path d="M146.407 79.9611C146.458 81.4123 146.077 82.846 145.313 84.0808C144.549 85.3157 143.436 86.2962 142.115 86.8985C140.793 87.5008 139.323 87.6978 137.89 87.4645C136.456 87.2313 135.125 86.5783 134.062 85.5882C133 84.598 132.255 83.3151 131.922 81.9018C131.589 80.4884 131.683 79.0079 132.191 77.6476C132.699 76.2873 133.599 75.1083 134.777 74.2595C135.956 73.4107 137.359 72.9304 138.81 72.8792C139.774 72.8452 140.735 73.0014 141.639 73.3389C142.542 73.6765 143.37 74.1887 144.076 74.8463C144.781 75.504 145.35 76.2942 145.75 77.1718C146.15 78.0494 146.374 78.9972 146.407 79.9611Z" fill="#E7AA07"/>
<g opacity="0.2">
<path d="M146.407 79.9611C146.458 81.4123 146.077 82.846 145.313 84.0808C144.549 85.3157 143.436 86.2962 142.115 86.8985C140.793 87.5008 139.323 87.6978 137.89 87.4645C136.456 87.2313 135.125 86.5783 134.062 85.5882C133 84.598 132.255 83.3151 131.922 81.9018C131.589 80.4884 131.683 79.0079 132.191 77.6476C132.699 76.2873 133.599 75.1083 134.777 74.2595C135.956 73.4107 137.359 72.9304 138.81 72.8792C139.774 72.8452 140.735 73.0014 141.639 73.3389C142.542 73.6765 143.37 74.1887 144.076 74.8463C144.781 75.504 145.35 76.2942 145.75 77.1718C146.15 78.0494 146.374 78.9972 146.407 79.9611Z" fill="black"/>
</g>
<path d="M146.624 80.26C146.672 81.6916 146.294 83.1053 145.539 84.3225C144.784 85.5397 143.685 86.5057 142.381 87.0984C141.077 87.6911 139.627 87.884 138.213 87.6526C136.8 87.4211 135.486 86.7759 134.44 85.7983C133.393 84.8207 132.659 83.5547 132.331 82.1603C132.004 80.7658 132.097 79.3056 132.599 77.9641C133.101 76.6227 133.99 75.4602 135.153 74.6236C136.315 73.787 137.7 73.3139 139.131 73.264C140.083 73.2309 141.032 73.3856 141.923 73.7194C142.815 74.0531 143.632 74.5593 144.328 75.2091C145.023 75.8588 145.584 76.6394 145.978 77.506C146.372 78.3727 146.591 79.3086 146.624 80.26Z" fill="#E7AA07"/>
<g opacity="0.2">
<path d="M146.624 80.26C146.672 81.6916 146.294 83.1053 145.539 84.3225C144.784 85.5397 143.685 86.5057 142.381 87.0984C141.077 87.6911 139.627 87.884 138.213 87.6526C136.8 87.4211 135.486 86.7759 134.44 85.7983C133.393 84.8207 132.659 83.5547 132.331 82.1603C132.004 80.7658 132.097 79.3056 132.599 77.9641C133.101 76.6227 133.99 75.4602 135.153 74.6236C136.315 73.787 137.7 73.3139 139.131 73.264C140.083 73.2309 141.032 73.3856 141.923 73.7194C142.815 74.0531 143.632 74.5593 144.328 75.2091C145.023 75.8588 145.584 76.6394 145.978 77.506C146.372 78.3727 146.591 79.3086 146.624 80.26Z" fill="white"/>
</g>
<path d="M139.65 79.8753L139.586 78.0245C139.925 78.0528 140.259 78.1277 140.578 78.2471C140.743 78.3234 140.901 78.415 141.049 78.5206L141.071 78.4634L141.335 77.786L141.396 77.6302L141.052 77.2931L140.896 77.3726C140.473 77.1658 140.012 77.0499 139.542 77.0324L139.507 76.0116L139.189 75.7667V76.0243H138.753L138.788 77.0642C137.363 77.2518 136.711 78.0913 136.743 79.0262C136.788 80.2982 137.894 80.594 138.921 80.807L138.985 82.6419C138.317 82.6121 137.671 82.3914 137.125 82.0059L136.743 82.9599C137.419 83.4114 138.217 83.6465 139.03 83.634L139.055 84.4036L138.699 84.4227L139.065 84.6548L139.818 84.6262L139.78 83.5991C141.217 83.4019 141.876 82.5687 141.844 81.6338C141.799 80.3714 140.677 80.0883 139.65 79.8753ZM138.89 79.7099C138.352 79.5732 137.952 79.3919 137.936 78.9435C137.92 78.4952 138.187 78.1994 138.832 78.0754L138.89 79.7099ZM139.745 82.6101L139.688 80.9883C140.244 81.125 140.658 81.3063 140.674 81.7706C140.686 82.1649 140.413 82.4861 139.745 82.6101Z" fill="#E7AA07"/>
<g opacity="0.3">
<path d="M139.65 79.8753L139.586 78.0245C139.925 78.0528 140.259 78.1277 140.578 78.2471C140.743 78.3234 140.901 78.415 141.049 78.5206L141.071 78.4634L141.335 77.786L141.396 77.6302L141.052 77.2931L140.896 77.3726C140.473 77.1658 140.012 77.0499 139.542 77.0324L139.507 76.0116L139.189 75.7667V76.0243H138.753L138.788 77.0642C137.363 77.2518 136.711 78.0913 136.743 79.0262C136.788 80.2982 137.894 80.594 138.921 80.807L138.985 82.6419C138.317 82.6121 137.671 82.3914 137.125 82.0059L136.743 82.9599C137.419 83.4114 138.217 83.6465 139.03 83.634L139.055 84.4036L138.699 84.4227L139.065 84.6548L139.818 84.6262L139.78 83.5991C141.217 83.4019 141.876 82.5687 141.844 81.6338C141.799 80.3714 140.677 80.0883 139.65 79.8753ZM138.89 79.7099C138.352 79.5732 137.952 79.3919 137.936 78.9435C137.92 78.4952 138.187 78.1994 138.832 78.0754L138.89 79.7099ZM139.745 82.6101L139.688 80.9883C140.244 81.125 140.658 81.3063 140.674 81.7706C140.686 82.1649 140.413 82.4861 139.745 82.6101Z" fill="black"/>
</g>
<path d="M139.462 83.37L139.497 84.4003L138.743 84.4257L138.709 83.4082C137.898 83.4123 137.105 83.1742 136.432 82.7245L136.813 81.7705C137.361 82.1528 138.006 82.3732 138.674 82.4065L138.61 80.5684C137.583 80.3585 136.479 80.066 136.435 78.7908C136.4 77.8368 137.052 77.0132 138.48 76.8256L138.441 75.7857L139.195 75.7603L139.23 76.781C139.889 76.7857 140.536 76.9552 141.113 77.2739L140.769 78.2279C140.304 77.977 139.792 77.8254 139.265 77.7827L139.332 79.6367C140.359 79.8497 141.481 80.1328 141.526 81.4079C141.558 82.3429 140.896 83.1728 139.462 83.37ZM138.572 79.4681L138.515 77.8336C137.879 77.9576 137.602 78.2979 137.615 78.7018C137.627 79.1056 138.034 79.3314 138.572 79.4681ZM140.353 81.5288C140.337 81.0804 139.926 80.8928 139.37 80.7465L139.427 82.3715C140.092 82.2475 140.365 81.9231 140.353 81.5288Z" fill="#E7AA07"/>
<path d="M139.507 87.8315H139.567L139.739 87.8124L140.022 87.787C140.151 87.7782 140.28 87.7601 140.407 87.7329L140.884 87.6407C140.975 87.6245 141.066 87.6011 141.154 87.5708L141.44 87.4849C141.548 87.4578 141.654 87.4249 141.758 87.3863L142.076 87.2591C142.184 87.2114 142.299 87.1733 142.394 87.116L142.734 86.9379C143.234 86.6668 143.702 86.3415 144.13 85.968L144.464 85.65C144.521 85.596 144.579 85.5419 144.633 85.4847L144.792 85.2971C144.894 85.173 145.008 85.049 145.11 84.9155C145.212 84.7819 145.304 84.6388 145.402 84.4989L145.475 84.3908C145.5 84.3548 145.522 84.3177 145.542 84.2795L145.669 84.0505L145.8 83.8184C145.843 83.7392 145.881 83.6574 145.914 83.5735C145.984 83.4081 146.064 83.2555 146.131 83.0742L146.302 82.5432C146.743 81.0479 146.687 79.4503 146.143 77.9894C146.073 77.8135 146.003 77.6417 145.933 77.4743C145.857 77.3057 145.765 77.1563 145.682 76.9877C145.644 76.9066 145.6 76.828 145.552 76.7524C145.504 76.6793 145.456 76.6029 145.406 76.5298L145.262 76.3104L145.189 76.2023L145.11 76.1037L144.792 75.7062C144.684 75.579 144.563 75.4645 144.448 75.3468L144.28 75.1719L144.099 75.0161L143.742 74.6981C143.288 74.3554 142.798 74.0643 142.28 73.83L141.933 73.6742C141.818 73.6265 141.701 73.5947 141.59 73.5565L141.272 73.4484C141.167 73.4134 141.058 73.3975 140.954 73.3721L140.661 73.3085C140.571 73.2844 140.48 73.2674 140.387 73.2576L139.904 73.1972C139.777 73.1802 139.648 73.1717 139.519 73.1717H139.233H139.058H138.998H139.519C139.649 73.1682 139.778 73.1735 139.907 73.1876L140.394 73.2417C140.486 73.2519 140.577 73.2679 140.667 73.2894L140.963 73.353C141.062 73.3784 141.17 73.3911 141.281 73.4261L141.599 73.5311C141.71 73.5724 141.828 73.601 141.942 73.6487L142.295 73.8014C142.818 74.0354 143.313 74.3265 143.771 74.6695L144.134 74.9875C144.194 75.0384 144.258 75.0893 144.315 75.1433L144.486 75.3182C144.601 75.4359 144.725 75.5504 144.833 75.6776L145.151 76.0782L145.234 76.18L145.307 76.2881C145.355 76.3613 145.405 76.4344 145.453 76.5107L145.603 76.7333C145.654 76.8065 145.689 76.8923 145.733 76.9718C145.816 77.1308 145.908 77.2898 145.987 77.4584C146.067 77.6269 146.127 77.805 146.201 77.9799C146.463 78.7157 146.615 79.4861 146.652 80.2663C146.671 81.0483 146.572 81.8287 146.36 82.5813C146.302 82.7594 146.242 82.9375 146.185 83.1124C146.127 83.2873 146.038 83.4527 145.965 83.618C145.932 83.7027 145.893 83.7855 145.851 83.8661L145.72 84.0982L145.59 84.3303L145.523 84.4448L145.447 84.5498L145.154 84.9727C145.053 85.1063 144.938 85.2303 144.836 85.3543L144.677 85.5419L144.506 85.7105L144.165 86.0285C143.733 86.4041 143.259 86.7295 142.753 86.9984L142.413 87.1764C142.302 87.2305 142.184 87.2687 142.076 87.3164L141.758 87.4436C141.654 87.481 141.548 87.5129 141.44 87.539L141.151 87.6248C141.062 87.6523 140.972 87.6746 140.88 87.6916L140.4 87.7775C140.272 87.8017 140.142 87.8166 140.012 87.822L139.729 87.8442H139.554L139.507 87.8315Z" fill="#263238"/>
<path d="M131.162 85.1827C131.162 85.1827 131.143 85.1604 131.115 85.1095L130.991 84.8933C130.937 84.8011 130.873 84.6834 130.806 84.5435C130.739 84.4036 130.66 84.2477 130.59 84.0665C130.555 83.9743 130.517 83.882 130.475 83.7835C130.434 83.6849 130.405 83.5799 130.367 83.4655C130.288 83.2492 130.227 83.0139 130.161 82.7659C129.884 81.6823 129.8 80.5586 129.913 79.4459C129.941 79.1915 129.967 78.9467 130.014 78.7241C130.033 78.6096 130.049 78.5015 130.075 78.4061C130.1 78.3107 130.122 78.2026 130.148 78.1072C130.186 77.9195 130.246 77.751 130.288 77.6047C130.329 77.4584 130.377 77.3312 130.418 77.2295C130.46 77.1277 130.485 77.0578 130.507 76.9973C130.516 76.9692 130.529 76.9424 130.545 76.9178C130.541 76.9472 130.534 76.976 130.523 77.0037C130.501 77.0641 130.475 77.1436 130.444 77.239C130.412 77.3344 130.367 77.468 130.329 77.6143C130.291 77.7605 130.234 77.9323 130.196 78.1199C130.174 78.2153 130.152 78.3139 130.129 78.4156C130.107 78.5206 130.094 78.6287 130.072 78.7336C130.03 78.9562 130.008 79.1979 129.976 79.4523C129.931 80.0045 129.925 80.5593 129.96 81.1123C130.007 81.664 130.095 82.2115 130.224 82.75C130.291 82.9948 130.348 83.2301 130.425 83.4464C130.46 83.5545 130.491 83.6594 130.529 83.7644L130.638 84.0474C130.704 84.2287 130.781 84.3845 130.844 84.5244C130.908 84.6643 130.965 84.7852 131.016 84.8806L131.127 85.1032C131.143 85.1279 131.154 85.1547 131.162 85.1827Z" fill="white"/>
<path d="M137.087 79.5445C136.998 79.4958 136.922 79.4259 136.867 79.341C136.718 79.1429 136.637 78.902 136.635 78.6541C136.638 78.4063 136.719 78.1657 136.867 77.9672C136.923 77.8806 136.999 77.8095 137.09 77.7605C137.09 77.7605 137.007 77.8432 136.909 77.9958C136.778 78.1906 136.709 78.4197 136.709 78.6541C136.709 78.8885 136.778 79.1176 136.909 79.3123C137.007 79.4618 137.096 79.5349 137.087 79.5445Z" fill="white"/>
<path d="M138.629 76.6761C138.591 76.5814 138.574 76.4792 138.581 76.3772C138.565 76.2707 138.573 76.1617 138.607 76.0592C138.629 76.0592 138.648 76.1928 138.654 76.3613C138.671 76.4668 138.663 76.5748 138.629 76.6761Z" fill="white"/>
<path d="M139.469 72.6662C139.389 72.6744 139.309 72.6744 139.23 72.6662C139.157 72.6662 139.061 72.6662 138.957 72.6662C138.852 72.6662 138.724 72.6662 138.591 72.6662C138.457 72.6662 138.308 72.6662 138.149 72.7012C137.99 72.7361 137.831 72.7425 137.646 72.7679C137.265 72.8368 136.889 72.9313 136.521 73.051C136.153 73.177 135.795 73.329 135.449 73.5057C135.293 73.5916 135.131 73.6679 135.007 73.7537C134.883 73.8396 134.746 73.9159 134.635 73.9922C134.524 74.0686 134.425 74.1417 134.339 74.2053C134.253 74.2689 134.177 74.3261 134.12 74.3738C134.063 74.4287 134 74.4768 133.932 74.5169C133.984 74.459 134.041 74.4048 134.101 74.3548C134.158 74.3007 134.228 74.2403 134.314 74.1735C134.4 74.1067 134.492 74.0272 134.606 73.9509C134.721 73.8746 134.838 73.7855 134.975 73.7029C135.112 73.6202 135.261 73.5343 135.417 73.4453C135.765 73.2651 136.125 73.111 136.495 72.9842C136.867 72.8632 137.248 72.7696 137.634 72.7043C137.815 72.6789 137.983 72.6503 138.142 72.6407C138.301 72.6312 138.46 72.6185 138.588 72.6153C138.715 72.6121 138.848 72.6153 138.957 72.6153C139.065 72.6153 139.157 72.6153 139.233 72.6153L139.469 72.6662Z" fill="white"/>
<path d="M140.721 89.482C140.667 89.5038 140.61 89.5209 140.553 89.5329C140.396 89.5751 140.237 89.608 140.076 89.6315C139.55 89.7173 139.017 89.7429 138.486 89.7078C137.947 89.6723 137.413 89.5752 136.896 89.4184C136.702 89.3548 136.543 89.3008 136.438 89.2531C136.382 89.2336 136.328 89.2091 136.276 89.1799C136.335 89.1885 136.392 89.2045 136.447 89.2276C136.556 89.2658 136.715 89.3135 136.912 89.3676C137.424 89.5098 137.949 89.6004 138.479 89.6379C139.01 89.6719 139.543 89.6538 140.069 89.5838C140.273 89.5552 140.435 89.5266 140.55 89.5075C140.605 89.4912 140.663 89.4826 140.721 89.482Z" fill="white"/>
<path d="M108.025 146.805L64.9514 146.598C62.4631 146.586 60.0814 145.587 58.33 143.819C56.5785 142.052 55.6008 139.661 55.6118 137.172L56.0665 29.1924C56.0719 27.9585 56.3205 26.7378 56.7981 25.6002C57.2757 24.4625 57.9728 23.4301 58.8497 22.5621C59.7266 21.694 60.766 21.0074 61.9085 20.5414C63.051 20.0754 64.2741 19.8392 65.5079 19.8463L108.568 20.034C111.056 20.0457 113.437 21.0449 115.189 22.8117C116.94 24.5786 117.918 26.9686 117.908 29.4563L117.453 137.449C117.45 138.683 117.203 139.904 116.727 141.042C116.251 142.181 115.556 143.214 114.68 144.083C113.804 144.952 112.765 145.64 111.623 146.107C110.481 146.574 109.258 146.811 108.025 146.805Z" fill="#272343"/>
<path d="M108.508 23.7736L100.17 23.7355L75.7762 23.621H72.841L65.527 23.5892C64.664 23.585 63.8086 23.7509 63.0097 24.0774C62.2108 24.4039 61.484 24.8846 60.871 25.4921C60.2579 26.0995 59.7705 26.8218 59.4367 27.6177C59.1029 28.4136 58.9291 29.2674 58.9254 30.1304L58.4802 135.541C58.4764 136.404 58.6426 137.259 58.9693 138.057C59.296 138.856 59.7768 139.582 60.3842 140.195C60.9916 140.808 61.7138 141.295 62.5094 141.629C63.3051 141.962 64.1587 142.136 65.0214 142.14L108.012 142.337C108.875 142.34 109.73 142.173 110.528 141.845C111.327 141.517 112.053 141.035 112.665 140.427C113.277 139.819 113.764 139.096 114.096 138.299C114.429 137.503 114.601 136.649 114.604 135.786L115.049 30.3753C115.053 29.5123 114.887 28.6569 114.561 27.858C114.234 27.0591 113.754 26.3323 113.146 25.7192C112.539 25.1062 111.817 24.6188 111.021 24.285C110.225 23.9511 109.371 23.7774 108.508 23.7736Z" fill="#FAFAFA"/>
<path d="M108.826 33.3518C108.826 33.4582 108.794 33.5622 108.735 33.6507C108.676 33.7391 108.592 33.808 108.493 33.8486C108.395 33.8891 108.287 33.8996 108.182 33.8786C108.078 33.8576 107.982 33.8061 107.907 33.7306C107.832 33.6552 107.781 33.5591 107.761 33.4546C107.741 33.3502 107.752 33.242 107.793 33.1439C107.834 33.0457 107.903 32.962 107.992 32.9034C108.081 32.8447 108.185 32.8137 108.292 32.8143C108.434 32.8152 108.57 32.8722 108.67 32.9729C108.77 33.0736 108.826 33.2098 108.826 33.3518Z" fill="#272343"/>
<path d="M108.82 35.2979C108.819 35.4041 108.787 35.5077 108.727 35.5956C108.668 35.6836 108.584 35.752 108.486 35.7922C108.387 35.8323 108.279 35.8425 108.175 35.8214C108.071 35.8004 107.976 35.7489 107.901 35.6736C107.826 35.5983 107.775 35.5026 107.755 35.3984C107.734 35.2943 107.745 35.1864 107.786 35.0884C107.827 34.9903 107.896 34.9066 107.984 34.8477C108.072 34.7888 108.176 34.7573 108.282 34.7573C108.425 34.7582 108.562 34.8155 108.662 34.9168C108.763 35.0181 108.82 35.1551 108.82 35.2979Z" fill="#272343"/>
<path d="M108.813 37.2219C108.814 37.3291 108.783 37.434 108.723 37.5234C108.664 37.6128 108.58 37.6826 108.481 37.7239C108.382 37.7652 108.273 37.7762 108.168 37.7554C108.063 37.7347 107.966 37.6831 107.89 37.6073C107.814 37.5315 107.763 37.4349 107.742 37.3297C107.721 37.2246 107.732 37.1156 107.774 37.0167C107.815 36.9178 107.885 36.8334 107.974 36.7742C108.064 36.7151 108.169 36.6838 108.276 36.6845C108.418 36.6853 108.554 36.7422 108.655 36.8428C108.755 36.9434 108.812 37.0796 108.813 37.2219Z" fill="#272343"/>
<path d="M110.718 51.7227H67.629C66.8738 51.7227 66.2616 52.3349 66.2616 53.0901V79.4268C66.2616 80.182 66.8738 80.7942 67.629 80.7942H110.718C111.473 80.7942 112.085 80.182 112.085 79.4268V53.0901C112.085 52.3349 111.473 51.7227 110.718 51.7227Z" fill="#EBEBEB"/>
<path d="M109.459 49.8337H66.3697C65.6145 49.8337 65.0023 50.4459 65.0023 51.2011V77.5379C65.0023 78.2931 65.6145 78.9053 66.3697 78.9053H109.459C110.214 78.9053 110.826 78.2931 110.826 77.5379V51.2011C110.826 50.4459 110.214 49.8337 109.459 49.8337Z" fill="#E0E0E0"/>
<path d="M108.005 48.266H64.9165C64.1613 48.266 63.5491 48.8782 63.5491 49.6334V75.9702C63.5491 76.7253 64.1613 77.3376 64.9165 77.3376H108.005C108.761 77.3376 109.373 76.7253 109.373 75.9702V49.6334C109.373 48.8782 108.761 48.266 108.005 48.266Z" fill="#E7AA07"/>
<path d="M71.0953 54.9059C71.0953 55.2779 70.7995 55.4942 70.2335 55.4942H69.1237V53.3413H70.1731C70.7105 53.3413 70.9871 53.5671 70.9871 53.901C70.9891 53.9989 70.9632 54.0954 70.9126 54.1793C70.8619 54.2632 70.7885 54.331 70.7009 54.3748C70.8173 54.4052 70.9199 54.4743 70.9916 54.5709C71.0633 54.6675 71.0999 54.7857 71.0953 54.9059ZM69.6166 53.7165V54.2253H70.1126C70.3543 54.2253 70.4879 54.1395 70.4879 53.9709C70.4879 53.8024 70.3543 53.7165 70.1126 53.7165H69.6166ZM70.596 54.855C70.596 54.6737 70.4561 54.5879 70.1985 54.5879H69.6166V55.1189H70.1985C70.4561 55.1189 70.596 55.0394 70.596 54.855Z" fill="white"/>
<path d="M72.8887 55.0331H71.8902L71.6994 55.4942H71.1874L72.1414 53.3413H72.6343L73.5883 55.4942H73.0668L72.8887 55.0331ZM72.7329 54.6546L72.3894 53.831L72.0492 54.6546H72.7329Z" fill="white"/>
<path d="M75.7984 53.3413V55.4942H75.3882L74.3165 54.1872V55.4942H73.8236V53.3413H74.237L75.3055 54.6483V53.3413H75.7984Z" fill="white"/>
<path d="M77.0895 54.6483L76.8001 54.9663V55.51H76.3199V53.3572H76.816V54.3621L77.77 53.3572H78.3233L77.4329 54.3112L78.3869 55.5037H77.805L77.0895 54.6483Z" fill="white"/>
<path d="M70.6913 63.8512H70.297V64.3696H70.0935V63.8512H68.9805V63.7049L70.0267 62.3948H70.2525L69.2444 63.6668H70.0998V63.212H70.297V63.6668H70.6913V63.8512Z" fill="white"/>
<path d="M72.1414 63.8035C72.1414 64.1215 71.9029 64.3886 71.4259 64.3886C71.1648 64.3975 70.9101 64.3066 70.7136 64.1342L70.8154 63.9721C70.9807 64.126 71.2002 64.2083 71.4259 64.201C71.7439 64.201 71.9347 64.0484 71.9347 63.8035C71.9347 63.5587 71.7662 63.4124 71.4005 63.4124H71.2606V63.2629L71.8075 62.576H70.7963V62.3948H72.0683V62.5411L71.5118 63.2438C71.9316 63.282 72.1414 63.4887 72.1414 63.8035Z" fill="white"/>
<path d="M73.7378 63.7908C73.7378 64.1247 73.5056 64.3886 73.0223 64.3886C72.7621 64.397 72.5086 64.3061 72.3131 64.1342L72.4149 63.9721C72.4955 64.0482 72.5904 64.1077 72.6941 64.147C72.7978 64.1863 72.9082 64.2046 73.0191 64.201C73.3562 64.201 73.5342 64.0388 73.5342 63.7972C73.5342 63.5555 73.3752 63.3869 72.8728 63.3869H72.453L72.5548 62.3948H73.636V62.576H72.7329L72.6629 63.212H72.9173C73.512 63.2057 73.7378 63.441 73.7378 63.7908Z" fill="white"/>
<path d="M75.4804 63.7812C75.4795 63.8665 75.4609 63.9506 75.4258 64.0283C75.3907 64.1061 75.3398 64.1756 75.2765 64.2327C75.2131 64.2898 75.1386 64.3331 75.0577 64.3599C74.9768 64.3868 74.8912 64.3965 74.8063 64.3886C74.2816 64.3886 73.9954 64.0229 73.9954 63.3996C73.9954 62.7287 74.3611 62.3789 74.8985 62.3789C75.0612 62.3719 75.2228 62.4093 75.3659 62.487L75.2833 62.6492C75.1677 62.582 75.0351 62.5499 74.9017 62.5569C74.4755 62.5569 74.2021 62.8304 74.2021 63.3678C74.2021 63.4124 74.2021 63.4664 74.2021 63.5268C74.2595 63.4183 74.3471 63.3288 74.4543 63.269C74.5615 63.2091 74.6838 63.1816 74.8063 63.1898C74.8904 63.1789 74.9759 63.1861 75.057 63.2109C75.1382 63.2356 75.2131 63.2774 75.2769 63.3333C75.3406 63.3893 75.3918 63.4581 75.4269 63.5354C75.462 63.6126 75.4802 63.6964 75.4804 63.7812ZM75.2801 63.7812C75.2801 63.5205 75.0861 63.3551 74.784 63.3551C74.7221 63.3481 74.6594 63.3538 74.5997 63.3718C74.5401 63.3899 74.4847 63.42 74.4371 63.4601C74.3895 63.5003 74.3505 63.5498 74.3227 63.6056C74.2949 63.6613 74.2787 63.7222 74.2752 63.7844C74.2752 64.0038 74.4565 64.2105 74.7967 64.2105C74.8568 64.2177 74.9178 64.2121 74.9756 64.1942C75.0335 64.1763 75.0869 64.1464 75.1324 64.1066C75.178 64.0667 75.2147 64.0177 75.2401 63.9628C75.2656 63.9078 75.2792 63.8481 75.2801 63.7876V63.7812Z" fill="white"/>
<path d="M79.7448 64.3696L79.2742 63.7495L78.8004 64.3696H78.5746L79.1629 63.6096L78.6032 62.8877H78.829L79.2742 63.4665L79.7194 62.8877H79.942L79.3823 63.6L79.9738 64.36L79.7448 64.3696Z" fill="white"/>
<path d="M81.2522 64.3696L80.772 63.7495L80.2982 64.3696H80.0724L80.6607 63.6096L80.101 62.8877H80.3268L80.772 63.4665L81.2172 62.8877H81.4366L80.8896 63.6L81.4811 64.36L81.2522 64.3696Z" fill="white"/>
<path d="M82.7595 64.3696L82.2888 63.7495L81.815 64.3696H81.5892L82.1744 63.6096L81.6147 62.8877H81.8404L82.2888 63.4665L82.734 62.8877H82.9534L82.3938 63.6L82.9884 64.36L82.7595 64.3696Z" fill="white"/>
<path d="M84.27 64.3696L83.7993 63.7495L83.316 64.3696H83.0902L83.6785 63.6096L83.1188 62.8877H83.3446L83.7898 63.4665L84.235 62.8877H84.4576L83.9011 63.6L84.4926 64.36L84.27 64.3696Z" fill="white"/>
<path d="M89.466 64.3695L88.9954 63.7494L88.5216 64.3695H88.2958L88.8809 63.5999L88.3244 62.8781H88.5502L88.9954 63.4568L89.4406 62.8781H89.6759L89.1003 63.5999L89.695 64.3599L89.466 64.3695Z" fill="white"/>
<path d="M90.9702 64.3696L90.4995 63.7495L90.0257 64.3696H89.7999L90.3882 63.6096L89.8285 62.8877H90.0543L90.4995 63.4665L90.9447 62.8877H91.1673L90.6076 63.6L91.1991 64.36L90.9702 64.3696Z" fill="white"/>
<path d="M92.4775 64.3695L92.0068 63.7494L91.533 64.3695H91.3073L91.9019 63.5999L91.3422 62.8781H91.568L92.0132 63.4568L92.4584 62.8781H92.6778L92.115 63.5999L92.7064 64.3599L92.4775 64.3695Z" fill="white"/>
<path d="M93.9848 64.3696L93.5142 63.7495L93.0404 64.3696H92.8146L93.3997 63.6096L92.8559 62.8877H93.0817L93.5301 63.4665L93.9753 62.8877H94.1947L93.6191 63.6L94.2138 64.36L93.9848 64.3696Z" fill="white"/>
<path d="M98.6562 62.3948V64.3696H98.4527V62.576H97.9852V62.3948H98.6562Z" fill="white"/>
<path d="M100.431 63.8035C100.431 64.1215 100.192 64.3886 99.7153 64.3886C99.4541 64.3975 99.1994 64.3066 99.0029 64.1342L99.1047 63.9721C99.1864 64.0486 99.2823 64.1082 99.3871 64.1475C99.4919 64.1868 99.6034 64.205 99.7153 64.201C100.033 64.201 100.224 64.0484 100.224 63.8035C100.224 63.5587 100.056 63.4124 99.6898 63.4124H99.5499V63.2629L100.097 62.576H99.0856V62.3948H100.358V62.5411L99.8011 63.2438C100.221 63.282 100.431 63.4887 100.431 63.8035Z" fill="white"/>
<path d="M102.396 63.8512H101.998V64.3696H101.798V63.8512H100.682V63.7049L101.728 62.3948H101.954L100.946 63.6668H101.801V63.212H101.998V63.6668H102.396V63.8512Z" fill="white"/>
<path d="M103.919 64.1914V64.3695H102.533V64.2359L103.353 63.4314C103.576 63.212 103.62 63.0784 103.62 62.9448C103.62 62.7159 103.458 62.576 103.156 62.576C103.056 62.5693 102.955 62.5855 102.862 62.6236C102.769 62.6616 102.686 62.7204 102.619 62.7954L102.472 62.6714C102.561 62.5758 102.67 62.501 102.791 62.4521C102.912 62.4032 103.042 62.3814 103.172 62.3883C103.573 62.3883 103.827 62.5919 103.827 62.9226C103.823 63.0426 103.793 63.1602 103.738 63.2669C103.683 63.3737 103.604 63.4668 103.509 63.5395L102.838 64.2009L103.919 64.1914Z" fill="white"/>
<path d="M67.9661 68.4686C67.9655 68.4024 67.9786 68.3367 68.0045 68.2758C68.0303 68.2148 68.0684 68.1598 68.1165 68.1142C68.1645 68.0686 68.2213 68.0333 68.2835 68.0106C68.3457 67.9878 68.412 67.9781 68.4781 67.9821C68.5504 67.9794 68.6225 67.9929 68.689 68.0215C68.7556 68.0501 68.8149 68.0931 68.8628 68.1474L68.7229 68.2778C68.6946 68.2427 68.6588 68.2145 68.618 68.1952C68.5773 68.1759 68.5327 68.1661 68.4876 68.1665C68.4075 68.1665 68.3306 68.1983 68.274 68.255C68.2173 68.3116 68.1855 68.3885 68.1855 68.4686C68.1855 68.5487 68.2173 68.6256 68.274 68.6822C68.3306 68.7389 68.4075 68.7707 68.4876 68.7707C68.5327 68.7711 68.5773 68.7613 68.618 68.742C68.6588 68.7227 68.6946 68.6945 68.7229 68.6594L68.8628 68.7866C68.8157 68.8428 68.756 68.8873 68.6887 68.9166C68.6214 68.9458 68.5482 68.959 68.4749 68.9551C68.409 68.9586 68.3432 68.9486 68.2813 68.9256C68.2195 68.9027 68.163 68.8674 68.1154 68.8218C68.0677 68.7762 68.0299 68.7214 68.0042 68.6606C67.9785 68.5999 67.9656 68.5345 67.9661 68.4686Z" fill="white"/>
<path d="M69.6134 68.7389H69.1777L69.0919 68.9392H68.8693L69.289 67.9852H69.5053L69.925 68.9392H69.6992L69.6134 68.7389ZM69.5466 68.5735L69.3971 68.211L69.2477 68.5735H69.5466Z" fill="white"/>
<path d="M70.6278 68.9392L70.4433 68.6785H70.243V68.9392H70.0267V67.9852H70.4338C70.685 67.9852 70.844 68.1156 70.844 68.3255C70.8452 68.389 70.8274 68.4514 70.7928 68.5047C70.7582 68.5579 70.7085 68.5997 70.65 68.6244L70.8599 68.9265L70.6278 68.9392ZM70.4211 68.176H70.243V68.494H70.4211C70.5546 68.494 70.6214 68.4336 70.6214 68.3287C70.6214 68.2237 70.5546 68.176 70.4211 68.176Z" fill="white"/>
<path d="M70.9425 68.8469L71.0156 68.6815C71.1086 68.747 71.2199 68.7815 71.3336 68.7801C71.464 68.7801 71.5149 68.7388 71.5149 68.6815C71.5149 68.5035 70.9679 68.6243 70.9679 68.2745C70.9679 68.1155 71.0983 67.9819 71.3654 67.9819C71.4769 67.9812 71.5865 68.0097 71.6834 68.0646L71.6167 68.23C71.537 68.1846 71.4475 68.1595 71.3559 68.1568C71.2255 68.1568 71.1746 68.2045 71.1746 68.265C71.1746 68.4367 71.7248 68.319 71.7248 68.6625C71.7248 68.8215 71.5912 68.955 71.3241 68.955C71.189 68.9577 71.0561 68.92 70.9425 68.8469Z" fill="white"/>
<path d="M73.14 67.9979V68.9519H72.9206V68.5671H72.4913V68.9519H72.275V67.9979H72.4913V68.37H72.9206V67.9979H73.14Z" fill="white"/>
<path d="M73.2894 68.4686C73.2836 68.3657 73.3089 68.2634 73.3619 68.175C73.415 68.0866 73.4933 68.0161 73.5867 67.9727C73.6802 67.9293 73.7846 67.9149 73.8863 67.9315C73.9881 67.948 74.0825 67.9947 74.1575 68.0654C74.2324 68.1362 74.2844 68.2278 74.3067 68.3285C74.329 68.4291 74.3206 68.5341 74.2826 68.6299C74.2446 68.7257 74.1787 68.8079 74.0935 68.8659C74.0083 68.9239 73.9076 68.955 73.8045 68.9551C73.7383 68.959 73.6719 68.9493 73.6095 68.9266C73.5472 68.9039 73.4901 68.8687 73.4418 68.8231C73.3936 68.7776 73.3552 68.7226 73.3289 68.6616C73.3027 68.6007 73.2893 68.535 73.2894 68.4686ZM74.1003 68.4686C74.099 68.4104 74.0806 68.3538 74.0474 68.3061C74.0141 68.2583 73.9675 68.2213 73.9134 68.1999C73.8592 68.1785 73.8 68.1736 73.743 68.1857C73.6861 68.1978 73.634 68.2265 73.5933 68.2681C73.5525 68.3097 73.525 68.3624 73.5141 68.4195C73.5032 68.4767 73.5094 68.5359 73.532 68.5895C73.5545 68.6432 73.5924 68.689 73.6409 68.7213C73.6894 68.7535 73.7463 68.7707 73.8045 68.7707C73.8436 68.7707 73.8823 68.7628 73.9183 68.7475C73.9543 68.7322 73.9867 68.7097 74.0138 68.6815C74.0408 68.6532 74.0619 68.6198 74.0756 68.5832C74.0894 68.5466 74.0956 68.5076 74.0939 68.4686H74.1003Z" fill="white"/>
<path d="M74.4851 67.9979H74.7045V68.7611H75.1752V68.9392H74.4851V67.9979Z" fill="white"/>
<path d="M75.2992 67.9979H75.7285C75.855 67.9979 75.9763 68.0482 76.0658 68.1376C76.1552 68.2271 76.2055 68.3484 76.2055 68.4749C76.2055 68.6014 76.1552 68.7228 76.0658 68.8122C75.9763 68.9017 75.855 68.9519 75.7285 68.9519H75.2992V67.9979ZM75.719 68.7611C75.7965 68.7611 75.871 68.7303 75.9258 68.6754C75.9807 68.6206 76.0115 68.5462 76.0115 68.4686C76.0115 68.391 75.9807 68.3166 75.9258 68.2617C75.871 68.2068 75.7965 68.176 75.719 68.176H75.5186V68.7611H75.719Z" fill="white"/>
<path d="M77.1435 68.7643V68.9392H76.4153V67.9852H77.1244V68.1601H76.6379V68.37H77.0735V68.5417H76.6379V68.758L77.1435 68.7643Z" fill="white"/>
<path d="M77.91 68.9392L77.7255 68.6785H77.5252V68.9392H77.309V67.9852H77.716C77.9672 67.9852 78.1262 68.1156 78.1262 68.3255C78.1274 68.389 78.1096 68.4514 78.075 68.5047C78.0405 68.5579 77.9907 68.5997 77.9322 68.6244L78.1421 68.9265L77.91 68.9392ZM77.7033 68.176H77.5252V68.494H77.7033C77.8368 68.494 77.9036 68.4336 77.9036 68.3287C77.9036 68.2237 77.8464 68.176 77.7128 68.176H77.7033Z" fill="white"/>
<path d="M81.2204 71.2828H68.2555C67.9763 71.2828 67.7499 71.5092 67.7499 71.7885V71.9856C67.7499 72.2649 67.9763 72.4912 68.2555 72.4912H81.2204C81.4996 72.4912 81.726 72.2649 81.726 71.9856V71.7885C81.726 71.5092 81.4996 71.2828 81.2204 71.2828Z" fill="white"/>
<path d="M104.323 71.2828H97.5687C97.2895 71.2828 97.0631 71.5092 97.0631 71.7885V71.9856C97.0631 72.2649 97.2895 72.4912 97.5687 72.4912H104.323C104.602 72.4912 104.829 72.2649 104.829 71.9856V71.7885C104.829 71.5092 104.602 71.2828 104.323 71.2828Z" fill="white"/>
<g opacity="0.2">
<path d="M107.856 48.266H65.0691C64.6665 48.266 64.2804 48.4257 63.9954 48.7101C63.7104 48.9945 63.5499 49.3803 63.5491 49.7829V57.4594C66.2521 59.3451 69.9663 59.6854 73.2608 58.989C77.1436 58.1781 80.6607 56.1906 84.2763 54.5624C87.892 52.9342 91.8702 51.6304 95.7784 52.3014C99.4704 52.9374 102.615 55.2302 105.954 56.9315C107.049 57.4974 108.195 57.9594 109.376 58.3116V49.7829C109.375 49.3803 109.215 48.9945 108.93 48.7101C108.645 48.4257 108.259 48.266 107.856 48.266Z" fill="white"/>
</g>
<path d="M73.6106 88.6647H67.2983C65.7563 88.6647 64.5062 89.9147 64.5062 91.4567V97.769C64.5062 99.311 65.7563 100.561 67.2983 100.561H73.6106C75.1526 100.561 76.4026 99.311 76.4026 97.769V91.4567C76.4026 89.9147 75.1526 88.6647 73.6106 88.6647Z" fill="#E7AA07"/>
<path d="M71.6295 96.4334H69.0282C68.9941 96.4335 68.9609 96.4218 68.9343 96.4004C68.9077 96.379 68.8892 96.3491 68.882 96.3158L67.928 92.4998H67.0248C66.9827 92.4998 66.9422 92.483 66.9124 92.4532C66.8826 92.4234 66.8658 92.3829 66.8658 92.3408C66.8658 92.2986 66.8826 92.2582 66.9124 92.2283C66.9422 92.1985 66.9827 92.1818 67.0248 92.1818H68.052C68.0864 92.1821 68.1197 92.1939 68.1467 92.2151C68.1738 92.2364 68.193 92.2661 68.2014 92.2994L69.1554 96.1154H71.6358C71.678 96.1154 71.7185 96.1322 71.7483 96.162C71.7781 96.1918 71.7948 96.2323 71.7948 96.2744C71.7948 96.3166 71.7781 96.357 71.7483 96.3868C71.7185 96.4167 71.678 96.4334 71.6358 96.4334H71.6295Z" fill="white"/>
<path d="M69.5211 97.6546C69.7898 97.6546 70.0076 97.4368 70.0076 97.1681C70.0076 96.8993 69.7898 96.6815 69.5211 96.6815C69.2524 96.6815 69.0345 96.8993 69.0345 97.1681C69.0345 97.4368 69.2524 97.6546 69.5211 97.6546Z" fill="#E7AA07"/>
<path d="M69.5211 97.8073C69.3953 97.8073 69.2724 97.77 69.1678 97.7001C69.0632 97.6302 68.9817 97.5309 68.9335 97.4147C68.8854 97.2984 68.8728 97.1706 68.8974 97.0472C68.9219 96.9238 68.9825 96.8105 69.0714 96.7216C69.1604 96.6326 69.2737 96.572 69.3971 96.5475C69.5204 96.523 69.6483 96.5356 69.7645 96.5837C69.8807 96.6318 69.9801 96.7133 70.0499 96.8179C70.1198 96.9225 70.1571 97.0455 70.1571 97.1713C70.1571 97.34 70.0901 97.5017 69.9708 97.621C69.8516 97.7403 69.6898 97.8073 69.5211 97.8073ZM69.5211 96.8342C69.4589 96.8343 69.3981 96.8526 69.3462 96.8869C69.2943 96.9212 69.2536 96.9699 69.2292 97.0271C69.2047 97.0843 69.1975 97.1474 69.2086 97.2086C69.2196 97.2698 69.2484 97.3265 69.2913 97.3715C69.3341 97.4165 69.3893 97.448 69.4499 97.462C69.5105 97.476 69.5739 97.472 69.6322 97.4503C69.6905 97.4287 69.7412 97.3904 69.778 97.3402C69.8148 97.2901 69.836 97.2302 69.8391 97.1681C69.8385 97.0825 69.8052 97.0003 69.7462 96.9383C69.6871 96.8763 69.6066 96.839 69.5211 96.8342Z" fill="white"/>
<path d="M72.2273 97.6546C72.496 97.6546 72.7138 97.4368 72.7138 97.1681C72.7138 96.8993 72.496 96.6815 72.2273 96.6815C71.9586 96.6815 71.7407 96.8993 71.7407 97.1681C71.7407 97.4368 71.9586 97.6546 72.2273 97.6546Z" fill="#E7AA07"/>
<path d="M72.2273 97.8073C72.1015 97.8073 71.9786 97.77 71.874 97.7001C71.7694 97.6302 71.6879 97.5309 71.6397 97.4147C71.5916 97.2984 71.579 97.1706 71.6035 97.0472C71.6281 96.9238 71.6886 96.8105 71.7776 96.7216C71.8665 96.6326 71.9799 96.572 72.1032 96.5475C72.2266 96.523 72.3545 96.5356 72.4707 96.5837C72.5869 96.6318 72.6862 96.7133 72.7561 96.8179C72.826 96.9225 72.8633 97.0455 72.8633 97.1713C72.8633 97.34 72.7963 97.5017 72.677 97.621C72.5578 97.7403 72.396 97.8073 72.2273 97.8073ZM72.2273 96.8342C72.1659 96.8374 72.1067 96.8583 72.0569 96.8944C72.0071 96.9305 71.9689 96.9803 71.9468 97.0377C71.9247 97.0951 71.9198 97.1577 71.9326 97.2178C71.9453 97.278 71.9753 97.3332 72.0188 97.3766C72.0623 97.4201 72.1174 97.4501 72.1776 97.4628C72.2378 97.4756 72.3003 97.4707 72.3577 97.4486C72.4151 97.4265 72.4649 97.3883 72.501 97.3385C72.5372 97.2887 72.5581 97.2295 72.5612 97.1681C72.5635 97.1236 72.5564 97.0792 72.5404 97.0377C72.5245 96.9961 72.5 96.9584 72.4685 96.9269C72.437 96.8954 72.3993 96.8709 72.3577 96.855C72.3162 96.839 72.2718 96.8319 72.2273 96.8342Z" fill="white"/>
<path d="M72.6438 95.7179H68.9423C68.922 95.7184 68.9018 95.7147 68.8829 95.7072C68.864 95.6998 68.8468 95.6886 68.8323 95.6744C68.8178 95.6602 68.8063 95.6432 68.7984 95.6245C68.7905 95.6057 68.7865 95.5856 68.7865 95.5653C68.7873 95.5245 68.8041 95.4857 68.8332 95.4572C68.8624 95.4286 68.9015 95.4127 68.9423 95.4127H72.5039L72.911 93.1199H68.2523C68.2101 93.1199 68.1696 93.1031 68.1398 93.0733C68.11 93.0435 68.0933 93.003 68.0933 92.9609C68.0933 92.9187 68.11 92.8783 68.1398 92.8485C68.1696 92.8186 68.2101 92.8019 68.2523 92.8019H73.1081C73.1304 92.8021 73.1524 92.8071 73.1727 92.8164C73.193 92.8257 73.2111 92.8392 73.2258 92.8559C73.2404 92.8733 73.2509 92.8938 73.2564 92.9159C73.2619 92.9379 73.2623 92.9609 73.2576 92.9831L72.7965 95.5812C72.7925 95.6189 72.7747 95.6537 72.7465 95.679C72.7183 95.7043 72.6817 95.7182 72.6438 95.7179Z" fill="white"/>
<path d="M103.283 90.754H81.5479C80.8857 90.754 80.349 91.2908 80.349 91.9529V92.4267C80.349 93.0888 80.8857 93.6256 81.5479 93.6256H103.283C103.945 93.6256 104.482 93.0888 104.482 92.4267V91.9529C104.482 91.2908 103.945 90.754 103.283 90.754Z" fill="#E0E0E0"/>
<path d="M91.3486 96.3984H81.5479C80.8857 96.3984 80.349 96.9352 80.349 97.5973V98.0711C80.349 98.7332 80.8857 99.27 81.5479 99.27H91.3486C92.0107 99.27 92.5475 98.7332 92.5475 98.0711V97.5973C92.5475 96.9352 92.0107 96.3984 91.3486 96.3984Z" fill="#E0E0E0"/>
<path d="M114.509 84.1841C114.509 84.2286 101.951 84.2668 86.4641 84.2668C70.9775 84.2668 58.4133 84.2286 58.4133 84.1841C58.4133 84.1396 70.9711 84.1014 86.4641 84.1014C101.957 84.1014 114.509 84.1396 114.509 84.1841Z" fill="#E0E0E0"/>
<path d="M99.8965 105.328H73.6233C70.7764 105.328 68.4685 107.636 68.4685 110.483V112.508C68.4685 115.355 70.7764 117.663 73.6233 117.663H99.8965C102.743 117.663 105.051 115.355 105.051 112.508V110.483C105.051 107.636 102.743 105.328 99.8965 105.328Z" fill="#E7AA07"/>
<path d="M86.038 110.912C86.038 111.548 85.5737 111.917 84.8296 111.917H84.3526V112.629H83.583V109.904H84.8296C85.5737 109.904 86.038 110.292 86.038 110.912ZM85.262 110.912C85.262 110.661 85.0999 110.511 84.7819 110.511H84.3526V111.3H84.7819C85.0999 111.3 85.262 111.163 85.262 110.912Z" fill="white"/>
<path d="M88.1018 112.101H86.9507L86.7344 112.629H85.949L87.151 109.904H87.911L89.1163 112.629H88.3149L88.1018 112.101ZM87.8761 111.532L87.5263 110.661L87.1765 111.532H87.8761Z" fill="white"/>
<path d="M90.63 111.653V112.629H89.8604V111.64L88.8206 109.904H89.6346L90.2706 110.988L90.9066 109.904H91.6539L90.63 111.653Z" fill="white"/>
<path d="M67.5504 36.704C67.8528 35.4274 67.0632 34.1473 65.7866 33.8448C64.51 33.5423 63.2299 34.332 62.9274 35.6086C62.625 36.8852 63.4146 38.1653 64.6912 38.4677C65.9678 38.7702 67.2479 37.9805 67.5504 36.704Z" fill="#E7AA07"/>
<path d="M94.4841 34.9323H78.4379C77.9566 34.9323 77.5665 35.3224 77.5665 35.8036V36.1438C77.5665 36.625 77.9566 37.0152 78.4379 37.0152H94.4841C94.9653 37.0152 95.3554 36.625 95.3554 36.1438V35.8036C95.3554 35.3224 94.9653 34.9323 94.4841 34.9323Z" fill="#E0E0E0"/>
<path d="M106.714 121.222H70.402V123.648H106.714V121.222Z" fill="#272343"/>
<path d="M72.1223 122.43C72.4403 122.538 76.6952 122.538 76.6952 130.936C76.6952 139.335 76.4821 149.756 80.9468 150.074C85.4115 150.392 108.909 150.074 108.909 150.074V128.997C108.909 127.307 108.239 125.687 107.048 124.489C105.856 123.292 104.238 122.616 102.549 122.608L72.1223 122.43Z" fill="#FAFAFA"/>
<path d="M72.1223 122.43L89.7841 122.484L98.7453 122.516H101.2C102.05 122.481 102.902 122.523 103.744 122.64C104.624 122.808 105.458 123.16 106.194 123.671C106.929 124.183 107.548 124.843 108.012 125.61C108.502 126.398 108.816 127.284 108.931 128.205C108.978 128.671 108.998 129.139 108.988 129.607V131.016C108.988 132.905 108.988 134.832 108.988 136.804V150.16H108.905C100.688 150.258 92.875 150.331 85.7709 150.274C84.8837 150.274 84.0092 150.252 83.1442 150.236C82.2792 150.22 81.4302 150.214 80.578 150.096C80.1585 150.004 79.7651 149.82 79.4268 149.555C79.1061 149.285 78.8274 148.969 78.6 148.617C78.1762 147.925 77.8549 147.175 77.646 146.391C77.2543 144.916 77.0009 143.407 76.8891 141.885C76.7588 140.429 76.7015 139.023 76.6697 137.684C76.5998 135.004 76.6697 132.58 76.622 130.456C76.5743 128.332 76.2532 126.504 75.5981 125.162C75.313 124.565 74.928 124.022 74.4596 123.556C74.1075 123.224 73.7022 122.955 73.2608 122.757C72.8899 122.613 72.5052 122.506 72.1128 122.439L72.4149 122.487C72.7096 122.537 72.9977 122.62 73.2735 122.735C73.7224 122.93 74.1352 123.198 74.4946 123.53C74.9711 123.997 75.3637 124.542 75.6553 125.142C76.3263 126.491 76.6634 128.338 76.7143 130.463C76.7651 132.587 76.7143 135.013 76.7874 137.691C76.8224 139.026 76.8828 140.429 77.0164 141.885C77.1317 143.398 77.3861 144.897 77.7764 146.363C77.9818 147.132 78.2966 147.868 78.7113 148.547C78.9311 148.886 79.2001 149.191 79.5095 149.45C79.8316 149.698 80.2038 149.873 80.6002 149.962C81.4143 150.07 82.2824 150.064 83.1442 150.093C84.006 150.121 84.8837 150.125 85.7709 150.131C92.8687 150.179 100.685 150.099 108.902 150.001L108.82 150.083V136.797C108.82 134.832 108.82 132.898 108.82 131.01V129.598C108.832 129.136 108.815 128.674 108.769 128.214C108.605 126.893 108.026 125.658 107.116 124.686C106.206 123.715 105.011 123.057 103.703 122.808C102.873 122.693 102.034 122.651 101.197 122.681L98.7517 122.665L89.8477 122.595L72.1223 122.43Z" fill="#272343"/>
<path d="M81.0549 150.077C81.0549 150.077 84.731 150.077 85.5069 144.655C86.445 138.193 85.5069 132.533 90.5027 132.32C95.4985 132.107 108.896 132.32 108.896 132.32V150.077H81.0549Z" fill="#E0E0E0"/>
<path d="M89.889 132.383C89.889 132.383 93.9181 131.897 93.9181 138.594C93.9181 145.291 94.023 149.724 98.4878 150.217C102.952 150.71 130.386 150.217 130.386 150.217C130.386 150.217 126.027 148.162 125.709 142.101C125.391 136.04 124.119 132.345 119.752 132.228C115.386 132.11 89.889 132.383 89.889 132.383Z" fill="#FAFAFA"/>
<path d="M89.8891 132.383H90.1593H90.9512L94.0072 132.336L105.248 132.215L113.02 132.161H117.355C118.099 132.161 118.856 132.161 119.622 132.183C120.41 132.188 121.19 132.338 121.924 132.625C122.668 132.954 123.312 133.471 123.794 134.126C124.276 134.795 124.648 135.537 124.898 136.323C125.37 137.945 125.651 139.616 125.734 141.303C125.763 141.733 125.785 142.162 125.833 142.575L125.896 143.211L126.017 143.847L126.074 144.165L126.163 144.483L126.341 145.119C126.486 145.532 126.655 145.935 126.847 146.328C127.617 147.944 128.865 149.285 130.421 150.169L130.698 150.322H130.38H129.62C122.258 150.443 115.246 150.522 108.867 150.519C105.687 150.519 102.644 150.519 99.8075 150.385C99.1071 150.367 98.4095 150.291 97.7214 150.16C97.0532 150.007 96.4322 149.693 95.912 149.247C95.4258 148.806 95.0435 148.263 94.7926 147.657C94.5481 147.085 94.3679 146.488 94.2552 145.876C94.0516 144.744 93.9367 143.598 93.9118 142.448C93.8704 141.361 93.8672 140.337 93.8672 139.376C93.8672 138.899 93.8672 138.422 93.845 137.993C93.845 137.77 93.845 137.554 93.8132 137.341C93.7814 137.128 93.7623 136.921 93.7368 136.721L93.6987 136.419C93.6796 136.32 93.6574 136.225 93.6351 136.129C93.5938 135.939 93.5492 135.751 93.5111 135.57L93.333 135.055L93.2471 134.81L93.1327 134.581C92.8943 134.034 92.533 133.55 92.0769 133.166C91.7484 132.876 91.3627 132.66 90.9448 132.53C90.6894 132.447 90.4242 132.399 90.1562 132.387C90.064 132.387 89.9972 132.387 89.9495 132.387H89.8827C89.9049 132.385 89.9272 132.385 89.9495 132.387C90.0183 132.383 90.0873 132.383 90.1562 132.387C90.4269 132.394 90.6954 132.438 90.9543 132.517C91.3791 132.639 91.7727 132.85 92.1087 133.137C92.5748 133.522 92.9458 134.01 93.1931 134.562C93.8291 135.78 93.9658 137.481 93.9595 139.386C93.9595 140.34 93.9595 141.37 94.0167 142.454C94.0479 143.598 94.1659 144.738 94.3697 145.863C94.4824 146.466 94.6616 147.055 94.9039 147.619C95.1542 148.201 95.5298 148.721 96.0042 149.142C96.5082 149.575 97.1111 149.876 97.7596 150.02C98.4392 150.149 99.1285 150.221 99.8202 150.236C102.654 150.354 105.684 150.357 108.874 150.357C115.25 150.357 122.261 150.265 129.623 150.147L130.383 150.131L130.348 150.29C128.758 149.39 127.484 148.022 126.698 146.372C126.503 145.972 126.332 145.561 126.186 145.142L126.004 144.506L125.915 144.188L125.855 143.87L125.734 143.234L125.67 142.598C125.623 142.162 125.6 141.736 125.572 141.326C125.491 139.651 125.214 137.991 124.745 136.381C124.506 135.599 124.143 134.862 123.67 134.196C123.206 133.561 122.583 133.059 121.864 132.74C121.148 132.46 120.387 132.312 119.619 132.304C118.852 132.304 118.099 132.285 117.355 132.278H113.02L105.248 132.31L94.0072 132.38L90.9512 132.396H90.1562L89.8891 132.383Z" fill="#272343"/>
<path d="M90.9479 132.374C90.9479 132.393 90.6299 132.374 90.0575 132.441C89.2522 132.553 88.5031 132.917 87.9174 133.48C87.1701 134.177 86.6104 135.318 86.3274 136.638C86.0443 137.958 86.0093 139.475 85.9553 141.049C85.9344 142.537 85.7618 144.019 85.4401 145.472C85.2784 146.103 85.058 146.717 84.7819 147.307C84.5552 147.829 84.2635 148.321 83.9137 148.77C83.6183 149.138 83.2544 149.446 82.8421 149.676C82.5251 149.838 82.1868 149.955 81.8372 150.023C81.6177 150.061 81.3954 150.081 81.1726 150.083C81.0953 150.09 81.0177 150.09 80.9404 150.083C81.0166 150.066 81.0944 150.056 81.1726 150.055C81.3865 150.041 81.5991 150.011 81.8086 149.966C82.1474 149.89 82.4738 149.766 82.7785 149.6C83.1775 149.37 83.5275 149.064 83.8088 148.7C84.1442 148.254 84.424 147.77 84.642 147.256C84.9068 146.671 85.1196 146.063 85.278 145.44C85.5876 143.995 85.7538 142.523 85.774 141.046C85.8408 139.478 85.8631 137.961 86.162 136.613C86.4609 135.264 87.0365 134.11 87.8188 133.401C88.4247 132.83 89.2009 132.472 90.0289 132.383C90.1564 132.365 90.2849 132.356 90.4137 132.355C90.5079 132.35 90.6024 132.35 90.6967 132.355C90.7808 132.352 90.865 132.359 90.9479 132.374Z" fill="#272343"/>
<path d="M104.329 127.302C104.329 127.346 99.1777 127.384 92.8241 127.384C86.4704 127.384 81.3188 127.346 81.3188 127.302C81.3188 127.257 86.4673 127.219 92.8241 127.219C99.1809 127.219 104.329 127.254 104.329 127.302Z" fill="#E0E0E0"/>
<path d="M104.806 130.723C104.806 130.768 99.8233 130.806 93.6764 130.806C87.5294 130.806 82.5464 130.768 82.5464 130.723C82.5464 130.679 87.5263 130.641 93.6764 130.641C99.8265 130.641 104.806 130.679 104.806 130.723Z" fill="#E0E0E0"/>
<path d="M120.493 137.376C120.493 137.424 115.342 137.459 108.988 137.459C102.634 137.459 97.4828 137.424 97.4828 137.376C97.4828 137.328 102.634 137.293 108.988 137.293C115.342 137.293 120.493 137.335 120.493 137.376Z" fill="#E0E0E0"/>
<path d="M120.779 141.373C120.779 141.418 116.054 141.456 110.225 141.456C104.396 141.456 99.6707 141.418 99.6707 141.373C99.6707 141.329 104.396 141.291 110.225 141.291C116.054 141.291 120.779 141.329 120.779 141.373Z" fill="#E0E0E0"/>
<path d="M101.55 52.295H99.3114C98.7582 52.295 98.3097 52.7435 98.3097 53.2967V55.5355C98.3097 56.0887 98.7582 56.5372 99.3114 56.5372H101.55C102.103 56.5372 102.552 56.0887 102.552 55.5355V53.2967C102.552 52.7435 102.103 52.295 101.55 52.295Z" fill="white"/>
<path d="M23.1664 47.6396L21.0644 47.3852C19.387 48.5059 17.3512 48.9586 15.357 48.6544C13.3627 48.3502 11.5544 47.3111 10.2875 45.7413C9.02051 44.1716 8.38655 42.1846 8.5102 40.1712C8.63385 38.1577 9.50616 36.2633 10.9557 34.8603C12.4052 33.4573 14.3271 32.6473 16.3435 32.5894C18.3599 32.5315 20.3251 33.2299 21.8527 34.5474C23.3804 35.8649 24.3599 37.7062 24.5989 39.7093C24.8378 41.7123 24.3189 43.7324 23.1441 45.3722L23.1664 47.6396Z" fill="white"/>
<path d="M23.1663 47.6395C23.1663 47.6395 23.1663 47.5855 23.1663 47.4837C23.1663 47.382 23.1663 47.2357 23.1663 47.0449C23.1663 46.6569 23.1473 46.0909 23.1345 45.369L23.1822 45.3913C23.1796 45.3941 23.1764 45.3963 23.1728 45.3978C23.1693 45.3993 23.1654 45.4001 23.1616 45.4001C23.1577 45.4001 23.1539 45.3993 23.1503 45.3978C23.1468 45.3963 23.1436 45.3941 23.1409 45.3913C23.1372 45.3856 23.1352 45.379 23.1352 45.3722C23.1352 45.3654 23.1372 45.3588 23.1409 45.3531C23.8989 44.2888 24.3848 43.0551 24.556 41.7597C24.6672 40.9135 24.6447 40.055 24.4892 39.2157C24.3076 38.2626 23.9553 37.3502 23.4494 36.5223C22.8827 35.6103 22.1426 34.8183 21.2711 34.1913C20.3319 33.5074 19.252 33.0414 18.1101 32.8271C16.8951 32.6014 15.6446 32.6547 14.4531 32.9829C13.2012 33.3328 12.056 33.9884 11.1205 34.8909C10.6358 35.3424 10.2086 35.8518 9.8485 36.4078C9.68632 36.6908 9.5305 36.9706 9.37786 37.26L9.18706 37.7052L9.09484 37.9246L9.0217 38.1536C8.63721 39.341 8.52845 40.6003 8.7037 41.836C8.87012 42.9982 9.29619 44.1079 9.95026 45.0828C11.0904 46.8205 12.8592 48.0491 14.8856 48.5109L15.5534 48.6253C15.7728 48.6603 15.9923 48.6635 16.1894 48.6858C16.6007 48.7126 17.0135 48.7041 17.4233 48.6603C18.7189 48.5366 19.9651 48.1001 21.0548 47.3883H21.0739L22.6226 47.5918L23.0296 47.6491L23.1727 47.6713H23.0391L22.6385 47.63L21.0675 47.4583H21.0866C19.9964 48.1954 18.7416 48.6529 17.4328 48.7907C17.018 48.8383 16.5998 48.8489 16.1831 48.8225C15.9668 48.8034 15.7474 48.8002 15.5248 48.7684L14.8475 48.654C13.8796 48.4389 12.9593 48.0488 12.1317 47.5028C11.2118 46.8821 10.4248 46.0843 9.8167 45.156C9.14975 44.1666 8.71492 43.0393 8.5447 41.8583C8.36285 40.6007 8.47164 39.3181 8.8627 38.1091L8.93584 37.8769L9.03124 37.6512C9.09802 37.5017 9.16162 37.3332 9.22522 37.1996C9.36832 36.9007 9.54322 36.6177 9.70222 36.3283C10.0628 35.764 10.4898 35.2451 10.9742 34.7828C11.9267 33.869 13.0917 33.2067 14.3641 32.8557C15.5884 32.5109 16.8758 32.4532 18.126 32.6872C19.2876 32.9062 20.3852 33.3833 21.3378 34.0832C22.2182 34.7219 22.9638 35.5281 23.532 36.4555C24.0441 37.2971 24.3986 38.2249 24.5783 39.1935C24.7302 40.0451 24.7484 40.9152 24.6323 41.7724C24.4499 43.0792 23.9486 44.3209 23.1727 45.3881L23.1282 45.3499C23.1309 45.3472 23.1341 45.3449 23.1376 45.3434C23.1412 45.3419 23.145 45.3411 23.1488 45.3411C23.1527 45.3411 23.1565 45.3419 23.1601 45.3434C23.1636 45.3449 23.1668 45.3472 23.1695 45.3499C23.1709 45.3529 23.1717 45.3562 23.1717 45.3595C23.1717 45.3628 23.1709 45.366 23.1695 45.369V47.064C23.1695 47.2484 23.1695 47.382 23.1695 47.4964C23.1695 47.6109 23.1663 47.6395 23.1663 47.6395Z" fill="#263238"/>
<path d="M13.0284 41.1651L14.0365 40.0839L16.1162 41.8106L19.9481 37.8643L20.953 38.8755L16.0367 43.8331L13.0284 41.1651Z" fill="#E7AA07"/>
</svg>
