<svg width="12" height="9" viewBox="0 0 12 9" fill="none" xmlns="http://www.w3.org/2000/svg">
<path d="M3.9998 6.28914L9.8998 0.389135C10.0831 0.205802 10.3165 0.114136 10.5998 0.114136C10.8831 0.114136 11.1165 0.205802 11.2998 0.389135C11.4831 0.572469 11.5748 0.805802 11.5748 1.08914C11.5748 1.37247 11.4831 1.6058 11.2998 1.78914L4.6998 8.38914C4.4998 8.58914 4.26647 8.68914 3.9998 8.68914C3.73314 8.68914 3.4998 8.58914 3.2998 8.38914L0.699804 5.78914C0.516471 5.6058 0.424805 5.37247 0.424805 5.08914C0.424805 4.8058 0.516471 4.57247 0.699804 4.38914C0.883138 4.2058 1.11647 4.11414 1.3998 4.11414C1.68314 4.11414 1.91647 4.2058 2.0998 4.38914L3.9998 6.28914Z" fill="#CCA0F8"/>
</svg>
